<svg width="30" height="45" viewBox="0 0 30 45" fill="none" xmlns="http://www.w3.org/2000/svg">
<path d="M12.2646 1.00977L12.2646 6.1799" stroke="#8E8E8E" stroke-linecap="round"/>
<path d="M6.66719 11.7827H1.47556" stroke="#8E8E8E" stroke-linecap="round"/>
<path d="M23.0375 11.7827H17.8674" stroke="#8E8E8E" stroke-linecap="round"/>
<path d="M4.74033 4.06494L8.40564 7.73026" stroke="#8E8E8E" stroke-linecap="round"/>
<path d="M19.9352 4.21143L16.2672 7.87943" stroke="#8E8E8E" stroke-linecap="round"/>
<path d="M26.6968 20.994C25.9974 20.9933 25.3228 21.2531 24.8045 21.7228C24.7455 21.199 24.5411 20.7022 24.2145 20.2885C23.8879 19.8748 23.452 19.5608 22.9563 19.3819C22.4605 19.2029 21.9245 19.1663 21.409 19.276C20.8935 19.3858 20.4189 19.6375 20.039 20.0029C19.9234 19.5297 19.6874 19.0944 19.3539 18.7394C19.0204 18.3843 18.6008 18.1215 18.1357 17.9765C17.6707 17.8315 17.1761 17.8092 16.6999 17.9117C16.2237 18.0143 15.7821 18.2382 15.418 18.5618V12.2551C15.418 11.3875 15.0733 10.5555 14.4599 9.94201C13.8464 9.32853 13.0143 8.98389 12.1468 8.98389C11.2792 8.98389 10.4471 9.32853 9.83366 9.94201C9.22019 10.5555 8.87554 11.3875 8.87554 12.2551V28.0105L6.3597 25.5479C5.82127 25.0342 5.10573 24.7477 4.36161 24.7477C3.61749 24.7477 2.90194 25.0342 2.36351 25.5479C2.10011 25.8096 1.89132 26.1211 1.74925 26.4642C1.60717 26.8073 1.53465 27.1752 1.53588 27.5466C1.53086 27.9021 1.59601 28.2552 1.72758 28.5855C1.85916 28.9159 2.05458 29.2171 2.30268 29.4718L8.6474 39.0257C8.65474 39.0367 8.66278 39.0473 8.67148 39.0573C9.81306 41.253 11.6587 43.0019 13.9126 44.0237C16.1665 45.0456 18.6981 45.2812 21.1019 44.6929C23.5057 44.1045 25.6423 42.7263 27.1695 40.779C28.6967 38.8317 29.526 36.4281 29.5244 33.9534V23.814C29.5217 23.0656 29.2227 22.3487 28.6928 21.8202C28.1629 21.2917 27.4452 20.9947 26.6968 20.994ZM28.5726 33.9547C28.5738 36.2244 27.8105 38.4283 26.4056 40.211C25.0008 41.9937 23.0364 43.2512 20.8293 43.7806C18.6222 44.31 16.3011 44.0804 14.2405 43.129C12.1798 42.1776 10.4997 40.5597 9.47123 38.5364C9.44909 38.4934 9.42045 38.4541 9.38631 38.4198L3.03525 28.8723C2.86092 28.6982 2.72262 28.4915 2.62826 28.2639C2.53391 28.0363 2.48534 27.7923 2.48534 27.546C2.48534 27.2996 2.53391 27.0556 2.62826 26.828C2.72262 26.6004 2.86092 26.3937 3.03525 26.2196C3.39232 25.877 3.86802 25.6857 4.36287 25.6857C4.85773 25.6857 5.33343 25.877 5.6905 26.2196L9.01749 29.4832C9.08385 29.5485 9.16794 29.5929 9.2593 29.6108C9.35067 29.6288 9.44529 29.6195 9.53142 29.5841C9.61755 29.5487 9.69139 29.4889 9.74378 29.4119C9.79617 29.3349 9.8248 29.2442 9.82611 29.1511V12.2551C9.82611 11.6396 10.0706 11.0494 10.5058 10.6142C10.941 10.179 11.5313 9.93446 12.1468 9.93446C12.7622 9.93446 13.3525 10.179 13.7877 10.6142C14.2229 11.0494 14.4674 11.6396 14.4674 12.2551V25.5187H15.418V20.6746C15.418 20.1771 15.6156 19.7 15.9674 19.3482C16.3192 18.9965 16.7963 18.7988 17.2938 18.7988C17.7913 18.7988 18.2684 18.9965 18.6202 19.3482C18.9719 19.7 19.1696 20.1771 19.1696 20.6746V25.5187H20.1201V22.0409C20.1201 21.5434 20.3178 21.0663 20.6695 20.7145C21.0213 20.3627 21.4984 20.1651 21.9959 20.1651C22.4934 20.1651 22.9705 20.3627 23.3223 20.7145C23.6741 21.0663 23.8717 21.5434 23.8717 22.0409V25.5187H24.8223V23.8191C24.8223 23.3216 25.0199 22.8445 25.3717 22.4927C25.7235 22.1409 26.2006 21.9433 26.6981 21.9433C27.1956 21.9433 27.6727 22.1409 28.0244 22.4927C28.3762 22.8445 28.5739 23.3216 28.5739 23.8191L28.5726 33.9547Z" fill="#8E8E8E"/>
</svg>
