<?xml version="1.0" encoding="UTF-8"?>
<svg width="150px" height="80px" viewBox="0 0 150 80" version="1.1" xmlns="http://www.w3.org/2000/svg" xmlns:xlink="http://www.w3.org/1999/xlink">
    <title>Group Copy 2</title>
    <g id="Page-1" stroke="none" stroke-width="1" fill="none" fill-rule="evenodd">
        <g id="Stack-11-Copy-3" transform="translate(-93, -79)">
            <g id="Stack-2" transform="translate(46, 0)">
                <g id="Group-Copy-2" transform="translate(47, 79)">
                    <rect id="Rectangle-19" fill="#F3F2EF" x="0" y="0" width="150" height="80" rx="6"></rect>
                    <line x1="105.5" y1="0" x2="105.5" y2="80" id="Path" stroke="#C7C6C2" stroke-dasharray="3,3"></line>
                    <line x1="44.5" y1="0" x2="44.5" y2="80" id="Path-Copy-2" stroke="#C7C6C2" stroke-dasharray="3,3"></line>
                    <g id="Group" transform="translate(113, 28)" fill="#6D6D6C" font-family="SuisseIntl-Regular, Suisse Intl" font-weight="normal">
                        <text id="+2" font-size="13" line-spacing="13">
                            <tspan x="3" y="12">+2</tspan>
                        </text>
                        <text id="сек" font-size="11" line-spacing="11">
                            <tspan x="3" y="22">сек</tspan>
                        </text>
                    </g>
                    <g id="Group-Copy-48" transform="translate(14, 28)" fill="#6D6D6C" font-family="SuisseIntl-Regular, Suisse Intl" font-weight="normal">
                        <text id="-2" font-size="13" line-spacing="13">
                            <tspan x="3" y="12">-2</tspan>
                        </text>
                        <text id="сек" font-size="11" line-spacing="11">
                            <tspan x="3" y="22">сек</tspan>
                        </text>
                    </g>
                    <g id="Group" transform="translate(142, 6)" fill="#FFFFFF">
                        <rect id="Rectangle-20-Copy" x="0" y="64" width="6" height="4" rx="1"></rect>
                        <rect id="Rectangle-20-Copy-2" x="0" y="56" width="6" height="4" rx="1"></rect>
                        <rect id="Rectangle-20-Copy-3" x="0" y="48" width="6" height="4" rx="1"></rect>
                        <rect id="Rectangle-20-Copy-4" x="0" y="40" width="6" height="4" rx="1"></rect>
                        <rect id="Rectangle-20-Copy-5" x="0" y="32" width="6" height="4" rx="1"></rect>
                        <rect id="Rectangle-20-Copy-6" x="0" y="24" width="6" height="4" rx="1"></rect>
                        <rect id="Rectangle-20-Copy-7" x="0" y="16" width="6" height="4" rx="1"></rect>
                        <rect id="Rectangle-20-Copy-8" x="0" y="8" width="6" height="4" rx="1"></rect>
                        <rect id="Rectangle-20-Copy-9" x="0" y="0" width="6" height="4" rx="1"></rect>
                    </g>
                    <g id="Group-Copy-49" transform="translate(2, 6)" fill="#FFFFFF">
                        <rect id="Rectangle-20-Copy" x="0" y="64" width="6" height="4" rx="1"></rect>
                        <rect id="Rectangle-20-Copy-2" x="0" y="56" width="6" height="4" rx="1"></rect>
                        <rect id="Rectangle-20-Copy-3" x="0" y="48" width="6" height="4" rx="1"></rect>
                        <rect id="Rectangle-20-Copy-4" x="0" y="40" width="6" height="4" rx="1"></rect>
                        <rect id="Rectangle-20-Copy-5" x="0" y="32" width="6" height="4" rx="1"></rect>
                        <rect id="Rectangle-20-Copy-6" x="0" y="24" width="6" height="4" rx="1"></rect>
                        <rect id="Rectangle-20-Copy-7" x="0" y="16" width="6" height="4" rx="1"></rect>
                        <rect id="Rectangle-20-Copy-8" x="0" y="8" width="6" height="4" rx="1"></rect>
                        <rect id="Rectangle-20-Copy-9" x="0" y="0" width="6" height="4" rx="1"></rect>
                    </g>
                    <text id="старт" font-family="SuisseIntl-Regular, Suisse Intl" font-size="13" font-weight="normal" line-spacing="13" fill="#6D6D6C">
                        <tspan x="58" y="38">старт</tspan>
                    </text>
                    <text id="пауза" font-family="SuisseIntl-Regular, Suisse Intl" font-size="13" font-weight="normal" line-spacing="13" fill="#6D6D6C">
                        <tspan x="58" y="52">пауза</tspan>
                    </text>
                </g>
            </g>
        </g>
    </g>
</svg>