<svg width="70" height="69" viewBox="0 0 70 69" fill="none" xmlns="http://www.w3.org/2000/svg">
<rect x="5.5" y="4.5" width="64" height="64" rx="9.5" fill="#F6F6F9" stroke="#8E8E8E"/>
<rect x="0.5" y="0.5" width="64" height="64" rx="9.5" fill="white" stroke="#8E8E8E"/>
<circle cx="32.5" cy="32.5" r="24.5" fill="white" stroke="#8E8E8E"/>
<path d="M57.1183 34.89C57.1944 34.1036 57.2334 33.3064 57.2334 32.5C57.2334 18.969 46.2643 7.99999 32.7334 7.99999C32.2709 7.99999 26.4697 7.9747 26.0135 8C25.2227 8.04385 27.8519 8.28042 29.0145 8.28042C37.3272 9.5535 44.541 15.0507 47.7334 22.5C48.2334 24 49.2334 26 50.2334 27C50.7334 27.5 51.8584 28.375 52.9834 29.25C54.1084 30.125 55.2334 31 55.7334 31.5C56.3557 32.1223 56.9779 33.1318 57.1183 34.89Z" fill="white" stroke="#8E8E8E"/>
<path fill-rule="evenodd" clip-rule="evenodd" d="M28.7813 8.28041C27.5757 8.09578 26.3469 8 25.104 8C15.1005 8 6.5363 14.2045 3.00024 23C2.50024 24.155 1.50024 26.5 3.00024 28C3.69639 28.6962 4.39254 29.2846 5.13868 29.9153C6.00017 30.6435 6.9283 31.4281 8 32.4998C8.00012 20.2331 17.0151 10.0721 28.7813 8.28041Z" fill="white"/>
<path d="M28.7813 8.28041L28.8565 8.77471L28.8569 7.78617L28.7813 8.28041ZM3.00024 23L3.45925 23.1987L3.46415 23.1865L3.00024 23ZM3.00024 28L2.64668 28.3536L2.64668 28.3536L3.00024 28ZM5.13868 29.9153L5.46146 29.5335L5.46146 29.5335L5.13868 29.9153ZM8 32.4998L7.64645 32.8533L8.49999 33.7068L8.5 32.4998L8 32.4998ZM28.8569 7.78617C27.6267 7.59776 26.3727 7.5 25.104 7.5V8.5C26.3212 8.5 27.5246 8.5938 28.7056 8.77465L28.8569 7.78617ZM25.104 7.5C14.8879 7.5 6.14531 13.8366 2.53632 22.8135L3.46415 23.1865C6.9273 14.5724 15.3132 8.5 25.104 8.5V7.5ZM2.54139 22.8014C2.29346 23.3741 1.8903 24.308 1.75481 25.3032C1.61811 26.3073 1.74494 27.4518 2.64668 28.3536L3.35379 27.6464C2.75553 27.0482 2.63237 26.2702 2.74567 25.4381C2.86017 24.597 3.20701 23.7809 3.45909 23.1986L2.54139 22.8014ZM2.64668 28.3536C3.35989 29.0668 4.07179 29.6682 4.8159 30.2972L5.46146 29.5335C4.71329 28.901 4.03289 28.3255 3.35379 27.6464L2.64668 28.3536ZM4.81589 30.2972C5.67706 31.0251 6.59096 31.7979 7.64645 32.8533L8.35355 32.1462C7.26565 31.0583 6.32329 30.262 5.46146 29.5335L4.81589 30.2972ZM8.5 32.4998C8.50011 20.4839 17.331 10.5298 28.8565 8.77471L28.706 7.78611C16.6993 9.61442 7.50012 19.9823 7.5 32.4998L8.5 32.4998Z" fill="#8E8E8E"/>
<path d="M25.0801 30.576L32.5441 23.16L40.0081 30.576L38.4241 32.112L33.7201 27.384L33.7201 41.112L31.3921 41.112L31.3921 27.336L26.6641 32.112L25.0801 30.576Z" fill="#5A5A5A"/>
</svg>
