<?xml version="1.0" encoding="UTF-8"?>
<svg width="32px" height="32px" viewBox="0 0 32 32" version="1.1" xmlns="http://www.w3.org/2000/svg"
	 xmlns:xlink="http://www.w3.org/1999/xlink">
	<title>Rectangle 2 Copy 2</title>
	<defs>
		<rect id="path-1" x="0" y="0" width="32" height="32"></rect>
	</defs>
	<g id="Page-2" stroke="none" stroke-width="1" fill="none" fill-rule="evenodd">
		<g id="Rectangle-2-Copy-2">
			<mask id="mask-2" fill="white">
				<use xlink:href="#path-1"></use>
			</mask>
			<use id="Rectangle" fill="#FFFFFF" xlink:href="#path-1"></use>
			<g id="Group-16" mask="url(#mask-2)" fill-rule="nonzero">
				<g transform="translate(-7.374015, -4.153403)">
					<path
						d="M19.2979043,0.191661616 C21.2943058,-0.369962027 22.9971238,0.395585043 24.1454287,1.28752928 L24.2889884,1.40198861 L24.4264029,1.51726605 L24.492768,1.57503808 L24.492768,1.57503808 L24.6207385,1.69050178 L24.7422621,1.80539573 L24.8572184,1.91916477 C24.8944291,1.95683862 24.9305252,1.99423246 24.9654865,2.03125376 L25.0669459,2.14110755 C25.0996175,2.17729126 25.1311343,2.21300992 25.161476,2.24817099 L25.2489561,2.35188893 L25.3292656,2.45170622 L25.3666937,2.49997864 L25.3666937,2.49997864 L25.4360211,2.59290406 L25.4978762,2.68054097 L25.5521386,2.76233422 L25.5986875,2.83772865 L25.6374022,2.90616912 L25.6537841,2.93760814 L25.6537841,2.93760814 L25.6805216,2.99457677 L25.6991233,3.04320357 C25.902035,3.6629953 25.557415,4.89442273 25.0525679,6.01362314 C31.9118359,6.05329193 34.2151432,10.6863909 35.1438381,15.4408512 L35.2037495,15.7579459 L35.2037495,15.7579459 L35.2597975,16.0751058 C35.2688285,16.1279548 35.2777073,16.1807943 35.2864382,16.2336181 L35.3370837,16.5503236 C35.3452405,16.6030601 35.3532581,16.6557686 35.361141,16.7084431 L35.4068554,17.0240316 L35.4068554,17.0240316 L35.46243,17.4375372 L35.5132436,17.8484456 L35.5132436,17.8484456 L35.5707925,18.3574068 L35.5707925,18.3574068 L35.6225798,18.8599518 L35.6604878,19.2564876 L35.7125982,19.8405522 L35.8645053,21.6671115 C36.1765315,24.9737402 35.7796575,27.7304694 35.1890221,29.8192058 L35.1073283,30.099882 L35.0656714,30.2370939 L35.0656714,30.2370939 L34.9809188,30.5052239 C34.9523725,30.5931964 34.9235467,30.6797611 34.89449,30.7649067 L34.8066751,31.0160757 L34.6953996,31.317963 L34.6953996,31.317963 L34.5829788,31.6063135 L34.4925987,31.8271601 L34.4021388,32.0391935 L34.3118893,32.2423471 L34.2221405,32.4365543 L34.1331828,32.6217487 L34.0453063,32.7978636 L33.9588015,32.9648325 L33.8739584,33.122589 L33.7910675,33.2710663 C34.3464645,34.29697 34.6880831,36.7653626 34.1591415,38.5443821 C34.1377636,38.6886309 34.1163858,38.8328798 34.0415989,38.9397197 C34.0113314,38.9450567 34.0048012,38.9670199 34.0038109,38.981069 L34.0042054,38.9931396 C33.9588042,39.0011451 33.9214108,39.054565 33.9294185,39.0999795 L33.916437,39.159283 L33.9012351,39.2125199 L33.8783009,39.2799085 C33.8601358,39.3291493 33.8359213,39.3866183 33.8038682,39.4499027 C33.7931792,39.5220271 33.7691381,39.5847993 33.7394217,39.6485722 L33.6746969,39.7805197 L33.6409243,39.8532458 L33.6409243,39.8532458 L33.5113635,40.1524005 L33.3653477,40.4965917 L33.2091361,40.8715487 L33.1024216,41.1315649 C32.9954556,41.1940994 32.8880034,41.2553945 32.7799526,41.3158383 C32.7513664,41.2395081 32.7201168,41.1652932 32.6900727,41.0979153 C32.6740571,41.0070864 32.620648,40.9696774 32.6046324,40.8788484 C31.3063795,37.6223155 29.3940681,36.0930567 27.3936691,35.4369621 L27.1864386,35.3721699 L27.0112662,35.3328178 L26.6779468,35.2511116 L26.5027744,35.2117596 C24.85373,34.8732286 23.2059734,35.0732952 21.8421161,35.3478667 L21.5640823,35.4055854 L21.2947064,35.464517 L21.0345447,35.5237479 L20.3149068,35.6941035 L20.2562503,35.7065656 L20.1286891,35.7312397 L20.0598682,35.743446 L20.0598682,35.743446 L19.9123559,35.7675828 L19.6670405,35.8030557 L19.3938758,35.8375817 L19.0939949,35.8710837 L18.6545534,35.9140275 L18.2967409,35.9448413 L18.0453852,35.9646774 L17.6499698,35.9933149 L17.2335034,36.020544 L16.6474272,36.0545256 L16.1862481,36.0781693 L15.5446675,36.1070914 L15.0449445,36.1267312 L14.530591,36.1445268 L13.8239863,36.1652526 L12.724963,36.189539 L12.724963,36.189539 C12.1275814,35.3616889 11.8028064,34.5438262 11.564032,33.8061758 L11.4873698,33.5633595 L11.280247,32.8763402 L11.2137079,32.6630703 C8.67063171,32.5175786 5.69240394,32.9791075 2.89523193,33.6944306 C1.56378916,31.5796058 0.569454214,29.2085959 1.79160768e-12,26.6434243 C0.657256065,26.2654029 1.45072094,26.0258096 2.25049096,25.8189304 L2.55076778,25.742597 L3.27772656,25.561188 L3.53631886,25.4943844 L3.53631886,25.4943844 C5.60558002,24.99174 6.62678573,23.908169 6.63015455,22.4150493 L6.62917897,22.3267476 C6.62344803,22.0900238 6.62985735,21.8090432 6.65073991,21.4941366 L6.66915202,21.251757 C6.67621827,21.168951 6.68422555,21.0841861 6.69321031,20.9976236 L6.7231335,20.732705 L6.75914031,20.4579697 C6.99386944,18.782045 7.5689246,16.6283181 8.69689869,14.938183 C10.2241354,12.3640913 12.079626,10.5842489 13.7913258,9.37651064 L14.0137367,9.22220575 L14.1242579,9.14745241 L14.1242579,9.14745241 L14.343786,9.00267545 L14.5611013,8.86411353 L14.5611013,8.86411353 L14.7759709,8.73165707 L14.9881621,8.60519655 L15.1974422,8.4846224 L15.4035782,8.36982508 L15.6063375,8.26069505 L15.9036357,8.10738652 L15.9036357,8.10738652 L16.0969347,8.01194543 L16.2860421,7.9217882 L16.5613349,7.79621996 L16.5613349,7.79621996 L16.7389451,7.71879312 L16.995901,7.61180696 L17.1605592,7.54642584 L17.3196291,7.48567129 L17.5472469,7.40297466 L17.6913279,7.35330729 L17.829006,7.30788307 L18.0230084,7.24746302 L18.2012947,7.19597388 L18.3110332,7.16642682 L18.4613803,7.12900089 C17.6628903,6.84835804 16.1434138,5.66466229 15.7696217,4.60673675 L15.743571,4.52705398 L15.7315617,4.48555058 L15.7315617,4.48555058 L15.709713,4.39936367 L15.6909405,4.30912852 C15.68236,4.26303726 15.6750156,4.21551426 15.6690309,4.16668906 L15.6589112,4.06734074 L15.6552799,4.01643633 L15.6552799,4.01643633 L15.6510116,3.91231093 L15.6504297,3.85914751 L15.6504297,3.85914751 L15.6525077,3.75076314 C15.6582333,3.60449851 15.6759742,3.45142996 15.7080761,3.29401375 L15.734882,3.17517478 C16.0010284,2.09897823 16.9482214,0.852669618 19.2979043,0.191661616 Z"
						id="Path-Copy-8" fill="#1E1E1E"></path>
					<path
						d="M11.3519401,32.6439904 L11.2302265,32.6228588 L11.2057001,32.6176559 L11.2423599,32.818412 L11.2809182,33.0149475 L11.3321013,33.254906 L11.3321013,33.254906 L11.3869788,33.4887882 L11.4338125,33.6717125 L11.4582777,33.7618316 L11.4582777,33.7618316 L11.5094344,33.9394758 L11.5637319,34.1137843 L11.6213773,34.2849046 C11.8391344,34.9066809 12.1285821,35.4671365 12.5356499,35.9989939 L12.6496191,36.1433614 C12.8055583,36.3349717 12.9776028,36.5231937 13.1679609,36.7096009 L13.3141978,36.8490906 L13.3899563,36.9186264 L13.3899563,36.9186264 L13.5468829,37.0573718 C13.6004112,37.1035602 13.6551703,37.1496966 13.7111948,37.1958055 L13.8830989,37.334075 C13.9709835,37.4031932 14.0617929,37.4723052 14.1556435,37.5414938 L14.3474342,37.679998 C14.4127391,37.7262165 14.4794301,37.7724937 14.5475418,37.8188541 L14.7561735,37.9582098 C14.7916672,37.9814856 14.8275248,38.0047883 14.8637505,38.0281211 L15.0855563,38.1685026 L15.1998369,38.2390098 L15.1998369,38.2390098 L15.4352828,38.3807491 L15.6800809,38.523578 L16.0652662,38.7401869 L16.0652662,38.7401869 L16.3343506,38.8863851 L16.6135118,39.0341891 L16.9029569,39.1837464 L17.2028929,39.3352046 L17.5135269,39.4887112 L17.8350659,39.6444137 L18.3382743,39.8824074 L18.3382743,39.8824074 C21.308064,41.2684406 23.5920324,40.6420583 25.1549931,39.5849158 L25.3039954,39.4813201 C25.37737,39.4289029 25.4490538,39.3755967 25.5190428,39.3215806 L25.6567601,39.2126549 C25.6793359,39.1943605 25.7017232,39.1760006 25.7239217,39.1575816 L25.8548467,39.0464136 L25.8548467,39.0464136 L25.9967137,38.9200545 C26.1357063,38.7931526 26.2660705,38.6648491 26.3877608,38.5371849 L26.5065582,38.4098094 L26.619563,38.2833137 L26.6738899,38.2205375 L26.6738899,38.2205375 L26.7781868,38.0962119 L26.8766657,37.9739 L26.9693167,37.8540554 L27.0561297,37.7371316 L27.1370945,37.6235822 L27.2475544,37.4605772 L27.3138547,37.357448 L27.4022706,37.2121995 L27.4538433,37.1223254 L27.5201205,36.9990856 C26.6361903,36.4993758 26.3264605,35.804766 26.3265317,35.0087036 C26.3105059,34.0023383 26.8343283,32.9007832 27.3624383,32.0684697 L27.4889928,31.8740705 C27.5310223,31.8111183 27.572805,31.7500758 27.6140667,31.6911297 C30.0638108,31.2591737 31.5441268,29.2254115 32.4420483,26.9775675 L32.5360432,26.735971 L32.5360432,26.735971 L32.6256869,26.4931156 C32.6840224,26.3308765 32.7395275,26.1680509 32.7923433,26.0051445 L32.8695677,25.7607875 L32.8695677,25.7607875 L32.942864,25.5166887 L32.942864,25.5166887 L33.0267379,25.2211763 L33.0666205,25.0739848 L33.0666205,25.0739848 L33.1423955,24.7811555 L33.1783352,24.6356875 L33.1783352,24.6356875 L33.2464373,24.3470693 L33.309661,24.0621074 L33.309661,24.0621074 L33.3681957,23.781481 L33.4222306,23.5058691 L33.4719554,23.2359508 L33.5388751,22.8432346 L33.5786529,22.5905216 L33.6147833,22.3458791 L33.6474558,22.1099863 L33.6903952,21.7740383 L33.7266197,21.461597 L33.7655784,21.0855363 L33.7952511,20.760773 L33.8215918,20.4352325 C33.8340681,20.2847487 33.8420202,20.1233561 33.8454154,19.9536348 L33.8473002,19.7461365 L33.8465982,19.6396987 L33.8465982,19.6396987 L33.8418975,19.4220647 L33.8327907,19.1989121 L33.8192654,18.9712317 L33.801309,18.7400141 L33.7906651,18.6233885 L33.7906651,18.6233885 L33.7660384,18.3887229 L33.7390746,18.1690828 C33.7342572,18.1324439 33.7292779,18.0958001 33.7241365,18.059168 L33.6913416,17.8396501 C33.6797604,17.7666135 33.6675293,17.6937575 33.6546465,17.6212157 L33.6140411,17.4046664 C33.3657518,16.1485192 32.9173573,15.0295076 32.2597867,14.7636597 L31.5562672,14.4688926 L31.3807112,14.3929305 L31.0995157,14.2673204 L30.7993959,14.1270464 L30.5901967,14.0250152 L30.3839665,13.9207033 C30.3491529,13.9027671 30.3141284,13.8845528 30.2789084,13.8660562 L30.0653651,13.7516585 C29.9934835,13.7123756 29.9209424,13.6719316 29.847864,13.6302942 L29.6271394,13.5017693 C28.2205588,12.6646928 26.6642019,11.3851047 25.7973643,9.44110685 C24.5124639,12.3078794 23.1263594,14.0641435 21.7930496,15.1764334 L21.6194517,15.317901 C21.5328151,15.3868472 21.4464315,15.4531406 21.3603437,15.5169106 L21.188575,15.6411246 C21.1600168,15.661279 21.1314947,15.6811626 21.1030102,15.7007802 L20.9325669,15.8153323 C20.8475835,15.8710507 20.7629672,15.9244615 20.6787604,15.975694 L20.5109058,16.0752931 L20.5109058,16.0752931 L20.3442196,16.1693136 C20.2888607,16.1997496 20.2337092,16.2292942 20.1787777,16.2579857 L20.0146561,16.3415393 C19.9874167,16.3550511 19.9602355,16.3683593 19.9331141,16.3814686 L19.7711152,16.4577759 L19.7711152,16.4577759 L19.5840305,16.5410751 L19.3991218,16.6185557 L19.3991218,16.6185557 L19.2165097,16.6905831 L19.0363149,16.7575227 L18.8586578,16.8197396 L18.6836592,16.8775994 L18.5114395,16.9314672 L18.3421195,16.9817085 L18.1758196,17.0286886 L17.9322965,17.0938432 L17.6962471,17.153715 L16.9012521,17.3479745 L16.7054617,17.3994968 L16.5803431,17.4347157 L16.4641942,17.4456565 L16.2831973,17.467287 L16.2831973,17.467287 L16.1586216,17.4853493 L16.0314007,17.5064549 L15.8692863,17.5372861 L15.8692863,17.5372861 L15.7044965,17.5732637 C15.6602678,17.5835633 15.6158401,17.594435 15.5712824,17.6058973 L15.4372889,17.6420749 L15.3029305,17.6819079 L15.1686218,17.7255075 C15.1239066,17.7406808 15.0792688,17.7565005 15.0347775,17.772985 L14.9018121,17.8244516 C14.8356183,17.8512008 14.7699095,17.8794876 14.704919,17.9093746 L14.5759649,17.971301 C13.5317896,18.4947608 12.7207172,19.4562648 13.1589498,21.1285464 C13.7874136,23.5267439 15.5658293,23.8434715 17.084156,23.4380766 L17.2235295,23.3986442 C17.3158979,23.3710413 17.407117,23.3408622 17.4968583,23.3084236 L17.6303207,23.2581107 C17.652366,23.249456 17.6743087,23.24067 17.6961436,23.2317576 C18.1754514,24.400167 17.7698561,25.8908445 17.0866748,27.3271321 L16.9703452,27.5659452 C16.9109994,27.6850353 16.8499602,27.8036024 16.7875791,27.9214286 L16.6611318,28.1560282 L16.5317308,28.3882644 L16.4000011,28.6177496 L16.2665673,28.8440963 L16.1320543,29.0669169 L15.9970869,29.2858241 L15.7951506,29.6059992 L15.5301434,30.0155853 L14.7096746,31.2505872 C14.0863617,32.2289121 13.1753615,32.5620601 12.4384944,32.6551299 L12.2789582,32.6719271 L12.2789582,32.6719271 L12.1261723,32.6819025 L12.0671948,32.684199 L12.0671948,32.684199 L11.9532908,32.6862288 L11.8452579,32.6852532 L11.7436602,32.6817669 L11.6045635,32.6729121 L11.4831185,32.6611911 L11.3519401,32.6439904 Z"
						id="Path-Copy-31" fill="#FEC6A7"></path>
					<path
						d="M26.3265317,35.0087036 C26.3105059,34.0023383 26.8343283,32.9007832 27.3624383,32.0684697 L27.4889928,31.8740705 C27.5310223,31.8111183 27.572805,31.7500758 27.6140667,31.6911297 L27.177496,31.6750672 L26.9057446,31.6616311 L26.6739015,31.6468374 L26.6739015,31.6468374 L26.4373276,31.6277901 L26.2447654,31.6088696 L26.0493521,31.5861641 C26.01655,31.5820382 25.9836323,31.577735 25.9506008,31.5732444 L25.751058,31.5439759 L25.5534846,31.5105783 C25.5203485,31.5045923 25.4871098,31.4983904 25.45377,31.4919633 L25.2525305,31.4506253 C23.9367495,31.1634113 22.4718811,30.5057975 20.948448,28.933035 L20.9705041,29.3385411 L20.9892423,29.613067 L21.0067249,29.8206226 L21.0280109,30.0292472 L21.0446986,30.1687665 L21.0740523,30.3784635 L21.0740523,30.3784635 L21.0967949,30.5184099 L21.1092837,30.5883782 L21.1092837,30.5883782 L21.136421,30.7282847 L21.1667469,30.8680515 L21.2004918,31.0075841 L21.2378864,31.1467878 L21.279161,31.2855681 C21.2935915,31.3317471 21.3087071,31.3778398 21.3245462,31.4238303 L21.3742725,31.56148 C21.4002594,31.6301359 21.4279605,31.6985266 21.4575057,31.7665989 L21.519093,31.9023033 C22.1282602,33.1871617 23.4343106,34.3442724 26.3265317,35.0087036 Z"
						id="Path-Copy-48" fill="#F0AE96"></path>
					<path
						d="M27.9709339,18.2563548 C27.8805928,18.2664065 27.8155054,18.347791 27.8255571,18.438132 L27.8686598,18.8401603 L27.9101383,19.2551196 L27.962485,19.8201056 L28.0223318,20.5289372 L28.0748921,21.2196367 L28.1190098,21.8696826 L28.1474483,22.3453144 L28.1691513,22.7689831 L28.1806525,23.0456973 L28.1859068,23.2079293 L28.1899835,23.4143075 C28.1922808,23.6578817 27.9962449,23.8149083 27.5920457,23.9259675 L27.4758966,23.9553786 L27.3442041,23.9838215 L27.1054401,24.0278014 C27.0159224,24.0435858 26.9561499,24.1289499 26.9719342,24.2184675 C26.9877186,24.3079851 27.0730827,24.3677577 27.1626003,24.3519733 L27.3588806,24.3163253 L27.4598979,24.2961615 L27.5974148,24.2646839 C28.1834342,24.1200779 28.5234815,23.8713313 28.5191417,23.411203 L28.5150304,23.2022216 L28.5025028,22.8562998 L28.4763537,22.3319801 L28.4477654,21.8530401 L28.4130026,21.3337139 L28.3832353,20.9246506 L28.3273258,20.2200148 L28.2775978,19.6486978 L28.2240676,19.0831066 L28.1817813,18.6696056 L28.1527111,18.4017316 C28.1426594,18.3113905 28.061275,18.2463031 27.9709339,18.2563548 Z"
						id="Path-Copy-9" fill="#F0AE96"></path>
					<path
						d="M24.5064009,21.2348756 C24.0049126,21.3233015 23.5195014,20.9476643 23.4222045,20.3958664 C23.3249077,19.8440685 23.6525695,19.3250646 24.1540578,19.2366387 C24.655546,19.1482128 25.1409573,19.52385 25.2382541,20.0756478 C25.335551,20.6274457 25.0078891,21.1464497 24.5064009,21.2348756 Z"
						id="Oval-Copy-30" fill="#1E1E1E"></path>
					<path
						d="M30.9372191,21.5993957 C30.4608052,21.6834003 30.0028913,21.3448445 29.9144396,20.84321 C29.8259879,20.3415756 30.1404934,19.8668213 30.6169072,19.7828167 C31.093321,19.6988121 31.551235,20.037368 31.6396867,20.5390024 C31.7281384,21.0406368 31.4136329,21.5153911 30.9372191,21.5993957 Z"
						id="Oval-Copy-31" fill="#1E1E1E"></path>
					<path
						d="M32.7294588,18.7547463 C32.7561989,18.3754196 32.6013341,18.0281147 32.3636745,17.7422353 C32.126015,17.4563558 31.7681673,17.2853217 31.4183274,17.159702 C31.0764954,17.0794968 30.6972698,17.0527116 30.3794612,17.1087498 C30.0162512,17.1727935 29.7144581,17.3196607 29.4286806,17.5573569 L29.4366884,17.6027714 C29.7865283,17.728391 30.0829592,17.8166017 30.3713822,17.8593978 L30.5154312,17.9007692 L30.7836488,17.97401 C30.9128368,18.0097637 31.0363496,18.0465182 31.1618644,18.0946262 L31.3488854,18.1596923 L31.7199244,18.272794 C31.7819311,18.2925904 31.844188,18.313806 31.9069454,18.3378601 L32.3445649,18.5641314 L32.5262442,18.6557183 L32.7294588,18.7547463 Z"
						id="Path-Copy-49" fill="#1E1E1E"></path>
					<path
						d="M25.9168407,17.2868862 C25.6711734,16.9555922 25.3213335,16.8299726 24.9875092,16.7951819 C24.6456771,16.7149767 24.2824672,16.7790204 23.9726663,16.8804731 C23.6174642,16.9899313 23.3236789,17.182213 23.0913105,17.4573181 C22.858942,17.7324233 22.6799826,18.0449375 22.6532425,18.4242642 L23.0817111,18.2903893 C23.2450483,18.2407125 23.3939142,18.2000108 23.5452517,18.173326 L24.3010572,17.9464041 C24.5654568,17.8529569 24.792463,17.8129296 25.0568627,17.7194823 L25.3243288,17.62376 L25.5117254,17.5532044 C25.6405936,17.5032463 25.7785477,17.4465474 25.9328563,17.3777151 L25.9168407,17.2868862 Z"
						id="Path-Copy-50" fill="#1E1E1E"></path>
					<path
						d="M28.7308636,26.343297 C28.5438964,26.6103967 28.2875045,26.7492584 28.0685061,26.8347002 L27.8982918,26.8949035 C27.705983,26.9616362 27.5328827,27.0123921 27.3500941,27.0082021 C27.1150801,27.002815 26.8720583,26.9520133 26.6130209,26.8103828 C26.3619913,26.7141667 26.1857486,26.5111107 26.0014981,26.2626402 L25.9106956,26.2786511 C25.8782642,26.5903026 26.0179823,26.9531815 26.2603838,27.1891785 L26.3138733,27.2377423 C26.5969341,27.5156163 26.946774,27.6412359 27.3259995,27.6680212 C27.7506263,27.686801 28.0978206,27.5319283 28.3835981,27.2942321 C28.6693756,27.056536 28.8857285,26.6906019 28.8216661,26.3272861 L28.7308636,26.343297 Z"
						id="Path-Copy-51" fill="#F0AE96"></path>
					<path
						d="M25.6706752,22.5280295 C25.6091872,23.2412685 24.5515886,23.6150575 23.3685108,23.5427072 C22.185433,23.470357 21.6860905,22.7623546 21.8837823,22.0250992 C22.081474,21.2878439 23.4755424,21.2293379 24.0069872,21.3229357 L24.1014349,21.3417551 C24.1180996,21.3454247 24.1351983,21.3493591 24.1526893,21.3535554 L24.262011,21.3818563 C24.2997991,21.3923236 24.3388237,21.4038174 24.3787519,21.4163161 L24.5009146,21.4568053 C25.0598494,21.6523788 25.722797,22.0271611 25.6706752,22.5280295 Z"
						id="Path-Copy-52" fill="#F0AE96"></path>
					<path
						d="M30.2239558,23.9260072 C29.3346633,23.6613752 28.6617236,23.0308092 28.8300297,22.3923882 C28.9676002,21.8705539 29.7064377,21.7432672 30.2619236,21.7652946 L30.3820279,21.7725478 C30.4402521,21.7773036 30.4954951,21.7836786 30.5466808,21.7913362 L30.9263179,21.8544991 L31.1343898,21.8929863 L31.3016148,21.9283404 L31.444946,21.9627312 L31.444946,21.9627312 L31.589338,22.0021242 L31.7040056,22.0375684 L31.8128864,22.0754066 C32.3147374,22.2605434 32.7168959,22.5679625 32.5127501,23.1009928 C32.2622745,23.7549914 31.5351086,23.9569577 30.9491365,23.9858075 L30.8259574,23.9894415 L30.7084516,23.9883859 L30.6522484,23.9862901 L30.6522484,23.9862901 L30.5457858,23.9793436 L30.4483742,23.9692322 L30.4034847,23.9631802 L30.4034847,23.9631802 L30.3221828,23.9494649 C30.2845264,23.9421464 30.2515307,23.9342128 30.2239558,23.9260072 Z"
						id="Path-Copy-53" fill="#F0AE96"></path>
					<path
						d="M16.5642563,18.1399492 C16.5690525,18.2627254 16.5758099,18.3851557 16.58429,18.5069182 L16.603476,18.7494573 C16.6105897,18.8299433 16.6183983,18.910037 16.6268309,18.989643 L16.6539303,19.2269028 L16.6843496,19.4606642 L16.7176643,19.6903548 L16.7352747,19.8034946 L16.7352747,19.8034946 L16.7721366,20.0260055 L16.8307356,20.3492766 L16.8713868,20.556959 L16.9128108,20.7577082 L16.9754672,21.0445799 L17.0374746,21.3126317 L17.1166653,21.6374191 L17.298071,22.3446283 L17.3284971,22.4760475 L17.3330049,22.4997388 L17.3330049,22.4997388 C17.3084676,22.5099187 17.28247,22.5198531 17.2551183,22.5294818 L17.1691081,22.5573903 L17.0756133,22.5831032 L16.9752732,22.6062591 L16.9227359,22.6167652 L16.9227359,22.6167652 L16.8133262,22.6354079 L16.6986691,22.6505903 L16.6986691,22.6505903 L16.5794036,22.6619508 C16.5591775,22.6635057 16.5387861,22.6648862 16.5182425,22.666085 L16.3932631,22.6710353 L16.2652733,22.6712605 L16.1349122,22.6663991 C15.2155771,22.6137237 14.1689357,22.1606301 13.9815344,20.7493702 C13.7990602,19.5681336 14.4372692,18.9254241 15.1379866,18.5703858 L15.2490351,18.5166812 L15.2490351,18.5166812 L15.3604593,18.4675383 L15.3604593,18.4675383 L15.480114,18.4194652 L15.598607,18.3761542 L15.6571589,18.3561988 L15.6571589,18.3561988 L15.7723559,18.3195169 L15.8843203,18.2869118 L16.0443935,18.2450488 L16.1446521,18.2214369 L16.3259452,18.1832916 L16.5642563,18.1399492 Z"
						id="Path-Copy-54" fill="#F0AE96"></path>
					<path
						d="M34.4112815,19.0379424 C35.1341271,20.4825165 36.0450197,21.7744777 36.9765488,23.02867 L37.3498642,23.5286048 L37.9087563,24.2745261 C37.9705353,24.357311 38.0321581,24.4400982 38.0935749,24.5229217 L38.3272239,24.8607248 C38.5570343,25.1933514 38.7718234,25.5154567 38.9400405,25.8721139 C39.1130659,26.2162166 39.2382276,26.6286968 39.3538167,27.0548525 L39.4393119,27.3761787 C39.5808067,27.9131469 39.6688924,28.4127062 39.7195848,28.9656853 L39.7163803,29.1611472 C39.7027931,29.62129 39.6393645,30.1036655 39.3776103,30.4776051 L39.4844284,30.5524231 C39.8743785,30.1090527 39.9598898,29.5320571 40,28.963067 C39.9947089,28.4020824 39.9440166,27.8491032 39.847923,27.3041295 L39.7891772,26.9773374 C39.7079439,26.542127 39.6092764,26.1099907 39.4234386,25.6932248 C39.1911413,25.1722675 38.9214506,24.7047301 38.6517598,24.2371928 L38.0672737,23.3118055 C37.6780118,22.6971234 37.2899361,22.0891693 36.9054195,21.5013994 L36.5828803,20.9401624 C36.1557336,20.1913341 35.7460211,19.4394317 35.4234789,18.6721588 L34.4112815,19.0379424 Z"
						id="Path-Copy-55" fill="#1E1E1E"></path>
					<path
						d="M11.2137079,32.6630703 L11.3952837,33.2852194 L11.4751154,33.5447668 L11.5395999,33.7429313 L11.6089996,33.943845 L11.6584248,34.0792019 L11.7106766,34.2156113 L11.7660119,34.3530055 L11.8246874,34.4913166 L11.9031204,34.6653917 L11.9031204,34.6653917 L11.9876755,34.8406613 L12.0788543,35.0169931 L12.0788543,35.0169931 L12.1771586,35.1942547 L12.2612693,35.3366445 L12.3052354,35.4080096 L12.3052354,35.4080096 L12.3971497,35.5510379 L12.4945873,35.6944072 L12.5978052,35.8380496 L12.70706,35.9818976 C13.2126756,36.6295738 13.9094677,37.2814319 14.9027546,37.9096847 L15.1284084,38.0488966 C15.9740149,38.5578325 17.0216507,39.0497298 18.3282901,39.5095561 C21.6808751,40.6893819 23.668968,40.3223169 25.0155344,39.4819114 L25.1459402,39.39776 L25.1459402,39.39776 L25.2723611,39.3107825 L25.2723611,39.3107825 L25.3949499,39.2212061 L25.3949499,39.2212061 L25.5232935,39.1217462 L25.6475336,39.0198028 L25.7678631,38.9156625 L25.884475,38.8096118 L25.9414471,38.7559596 L25.9414471,38.7559596 L26.0528443,38.6475805 L26.1610062,38.5380072 L26.2661258,38.4275262 L26.4185228,38.2607297 L26.5651599,38.0935024 L26.7528414,37.8715341 L27.2347361,37.2847489 L27.3187362,37.184422 L27.2493802,37.1245094 L27.1157179,37.0050434 C26.4650114,36.4084149 26.0861037,35.8173488 26.3265317,35.0087036 L26.419922,35.041068 L26.9880429,35.2213659 L27.1522315,35.2763217 L27.3270901,35.3378228 L27.511796,35.4065986 L27.6399978,35.4568508 L27.7719669,35.5108764 L27.9074596,35.5688916 L28.0462321,35.6311123 L28.1880408,35.6977548 L28.3326418,35.769035 L28.4797916,35.8451692 L28.6292463,35.9263733 L28.7807622,36.0128635 C29.0602819,36.1764064 29.3489649,36.3676895 29.640053,36.5927048 L29.7990262,36.7188217 L29.9582328,36.8518455 L30.0378474,36.9210149 L30.0378474,36.9210149 L30.1969469,37.0648039 C31.1771518,37.9742426 32.1359096,39.3084708 32.8160269,41.2955252 C30.6729746,42.499688 28.2934972,43.3685336 25.7354178,43.819592 C16.5042454,45.4472968 7.59783925,41.1671113 2.8951968,33.6951387 C5.69283729,32.9731821 8.67240578,32.5050745 11.2137079,32.6630703 Z"
						id="Path-Copy-10" fill="#E5E8ED"></path>
					<path
						d="M27.5576563,35.3535407 C27.6586505,35.39533 27.7737694,35.4470126 27.8991287,35.5073033 L28.0943621,35.6040347 C28.5992186,35.8612 29.2207666,36.2303794 29.7541638,36.643797 L29.8596072,36.7270503 C30.3422267,37.0783375 30.642555,38.0427356 30.8290533,39.2939579 L30.8627045,39.5318436 L30.8937881,39.7759738 L30.9224043,40.0258706 L30.9486536,40.2810559 L30.9726361,40.5410518 L31.004579,40.9390201 L31.0233334,41.2089514 L31.0479043,41.6195824 L31.0745454,42.1752844 L31.0745454,42.1752844 C30.1709975,42.5836133 29.231789,42.9347339 28.2609891,43.2236692 L28.2372532,42.6303106 L28.2096695,42.0457563 L28.1785668,41.4715057 L28.1442735,40.9090582 L28.1071183,40.3599131 L28.0809206,40.0019471 L28.039726,39.4783048 L27.9965459,38.9719634 L27.9517089,38.4844221 L27.9055438,38.0171804 L27.858379,37.5717377 L27.7945059,37.0143152 L27.7462869,36.6255677 L27.6981638,36.2636171 L27.6504652,35.9299628 L27.6190643,35.7239872 L27.5576563,35.3535407 L27.5576563,35.3535407 Z M8.225305,32.4407829 C10.1412757,35.1123751 11.109961,38.4867586 11.5818005,41.6668899 C9.79969643,40.7460623 8.14762866,39.5895644 6.67239825,38.2310045 L6.6348763,38.0617149 L6.55762279,37.7285781 C6.53141174,37.6187656 6.50476157,37.5102018 6.4777346,37.4029343 L6.39558553,37.0850675 L6.29028928,36.6991033 L6.29028928,36.6991033 L6.18277452,36.3262895 L6.09565598,36.0378794 L6.00795864,35.7585248 L5.92005627,35.4885095 L5.83232268,35.2281177 L5.74513166,34.9776335 L5.61618011,34.6211051 L5.49055192,34.2884666 L5.36950864,33.9806766 L5.29198329,33.7897615 L5.18138498,33.5255162 L5.07873572,33.288676 L4.95641568,33.0171763 L8.225305,32.4407829 Z"
						id="Shape-Copy-2" fill="#E0671E"></path>
				</g>
			</g>
		</g>
	</g>
</svg>
