<?xml version="1.0" encoding="UTF-8"?>
<svg width="20px" height="20px" viewBox="0 0 20 20" version="1.1" xmlns="http://www.w3.org/2000/svg" xmlns:xlink="http://www.w3.org/1999/xlink">
	<title>fullScreenButtonIcon</title>
	<defs>
		<path d="M0,0 L20,0 L20,20 L0,20 L0,0 Z" id="path-1"></path>
	</defs>
	<g id="fullScreenButtonIcon" stroke="none" fill="none" xlink:href="#path-1">
		<rect id="Rectangle" fill="#D8D8D8" fill-rule="evenodd" opacity="0.0609929435" x="0" y="0" width="20" height="20"></rect>
		<path d="M1.5,13.5 L1.5,17.5 C1.5,18.0522847 1.94771525,18.5 2.5,18.5 L6.5,18.5 L6.5,18.5" id="Path" stroke="#282316" stroke-width="1" stroke-linecap="round" stroke-linejoin="round"></path>
		<path d="M13.5,13.5 L13.5,17.5 C13.5,18.0522847 13.9477153,18.5 14.5,18.5 L18.5,18.5 L18.5,18.5" id="Path-Copy" stroke="#282316" stroke-width="1" stroke-linecap="round" stroke-linejoin="round" transform="translate(16, 16) scale(-1, 1) translate(-16, -16)"></path>
		<path d="M1.5,1.5 L1.5,5.5 C1.5,6.05228475 1.94771525,6.5 2.5,6.5 L6.5,6.5 L6.5,6.5" id="Path-Copy-3" stroke="#282316" stroke-width="1" stroke-linecap="round" stroke-linejoin="round" transform="translate(4, 4) scale(1, -1) translate(-4, -4)"></path>
		<path d="M13,1.5 L13,6 C13,6.55228475 13.4477153,7 14,7 L18.5,7 L18.5,7" id="Path-Copy-2" stroke="#282316" stroke-width="1" stroke-linecap="round" stroke-linejoin="round" transform="translate(15.75, 4.25) scale(-1, -1) translate(-15.75, -4.25)"></path>
	</g>
</svg>
