<?xml version="1.0" encoding="UTF-8"?>
<svg width="20px" height="20px" viewBox="0 0 20 20" version="1.1" xmlns="http://www.w3.org/2000/svg" xmlns:xlink="http://www.w3.org/1999/xlink">
    <title>githubButtonIcon</title>
    <defs>
        <path d="M0,0 L20,0 L20,20 L0,20 L0,0 Z" id="path-1"></path>
    </defs>
    <g id="githubButtonIcon" stroke="none" fill="none" xlink:href="#path-1" fill-rule="evenodd">
        <rect id="Rectangle" fill="#D8D8D8" opacity="0.100000001" x="0" y="0" width="20" height="20"></rect>
        <path d="M10.1600867,1 C5.09479538,1 1,5.12498275 1,10.2281489 C1,14.3073819 3.62367653,17.7603674 7.26341131,18.9824873 C7.71847191,19.0743619 7.88515871,18.7839256 7.88515871,18.5396142 C7.88515871,18.3256776 7.87015877,17.5923681 7.87015877,16.8283088 C5.32204443,17.3784315 4.79142165,15.7282509 4.79142165,15.7282509 C4.38192336,14.6587554 3.7751759,14.3838815 3.7751759,14.3838815 C2.94117938,13.8185714 3.83592564,13.8185714 3.83592564,13.8185714 C4.76104677,13.8796961 5.24648224,14.7658174 5.24648224,14.7658174 C6.06529132,16.1713116 7.3847233,15.7741882 7.91553358,15.5296892 C7.99128327,14.9338167 8.23409475,14.5213185 8.49190617,14.2921944 C6.45960217,14.0782578 4.32136111,13.2838236 4.32136111,9.73915096 C4.32136111,8.73078017 4.68510959,7.90578362 5.26148218,7.26416131 C5.17054506,7.03503726 4.85198389,6.08760373 5.3526068,4.81954653 C5.3526068,4.81954653 6.12604107,4.57504755 7.86997127,5.76679257 C8.61660981,5.56479265 9.38660604,5.46203402 10.1600867,5.46116885 C10.933521,5.46116885 11.7219552,5.5682309 12.4500146,5.76679257 C14.1941323,4.57504755 14.9675666,4.81954653 14.9675666,4.81954653 C15.4681895,6.08760373 15.1494408,7.03503726 15.0585037,7.26416131 C15.6500637,7.90578362 15.9988123,8.73078017 15.9988123,9.73915096 C15.9988123,13.2838236 13.8605712,14.0628829 11.8130798,14.2921944 C12.1468284,14.5824432 12.4348272,15.1323784 12.4348272,16.0033123 C12.4348272,17.2408071 12.4198272,18.2339904 12.4198272,18.5394267 C12.4198272,18.7839256 12.5867016,19.0743619 13.0415746,18.9826748 C16.6813094,17.7601799 19.3050269,14.3073819 19.3050269,10.2281489 C19.3199859,5.12498275 15.2101906,1 10.1600867,1 Z" id="Path" fill="#24292F"></path>
    </g>
</svg>