<?xml version="1.0" encoding="UTF-8"?>
<svg width="20px" height="20px" viewBox="0 0 20 20" version="1.1" xmlns="http://www.w3.org/2000/svg" xmlns:xlink="http://www.w3.org/1999/xlink">
    <title>googleButtonIcon</title>
    <defs>
        <path d="M0,0 L20,0 L20,20 L0,20 L0,0 Z" id="path-1"></path>
    </defs>
    <g id="googleButtonIcon" stroke="none" fill="none" xlink:href="#path-1">
        <rect id="Rectangle" fill="#D8D8D8" fill-rule="evenodd" opacity="0.100000001" x="0" y="0" width="20" height="20"></rect>
        <path d="M18.64,10.2045455 C18.64,9.56636364 18.5827273,8.95272727 18.4763636,8.36363636 L10,8.36363636 L10,11.8490909 L14.8436364,11.8490909 C14.6309091,12.97 13.9927273,13.9190909 13.0354545,14.5572727 L13.0354545,16.8236364 L15.9563636,16.8236364 C17.6581818,15.2527273 18.64,12.9454545 18.64,10.2045455 L18.64,10.2045455 Z" id="Path" fill="#4285F4" fill-rule="nonzero"></path>
        <path d="M10,19 C12.43,19 14.4672727,18.1981818 15.9563636,16.8236364 L13.0354545,14.5572727 C12.2336364,15.0972727 11.2109091,15.4245455 10,15.4245455 C7.66,15.4245455 5.67181818,13.8454545 4.96,11.7181818 L1.96545455,11.7181818 L1.96545455,14.0418182 C3.44636364,16.9790909 6.48181818,19 10,19 Z" id="Path" fill="#34A853" fill-rule="nonzero"></path>
        <path d="M4.96,11.71 C4.78,11.17 4.67363636,10.5972727 4.67363636,10 C4.67363636,9.40272727 4.78,8.83 4.96,8.29 L4.96,5.96636364 L1.96545455,5.96636364 C1.35181818,7.17727273 1,8.54363636 1,10 C1,11.4563636 1.35181818,12.8227273 1.96545455,14.0336364 L4.29727273,12.2172727 L4.96,11.71 Z" id="Path" fill="#FBBC05" fill-rule="nonzero"></path>
        <path d="M10,4.58363636 C11.3254545,4.58363636 12.5036364,5.04181818 13.4445455,5.92545455 L16.0218182,3.34818182 C14.4590909,1.89181818 12.43,1 10,1 C6.48181818,1 3.44636364,3.02090909 1.96545455,5.96636364 L4.96,8.29 C5.67181818,6.16272727 7.66,4.58363636 10,4.58363636 Z" id="Path" fill="#EA4335" fill-rule="nonzero"></path>
    </g>
</svg>