<?xml version="1.0" encoding="UTF-8"?>
<svg width="20px" height="20px" viewBox="0 0 20 20" version="1.1" xmlns="http://www.w3.org/2000/svg" xmlns:xlink="http://www.w3.org/1999/xlink">
    <title>walletButtonIcon</title>
    <defs>
        <path d="M0,0 L20,0 L20,20 L0,20 L0,0 Z" id="path-1"></path>
    </defs>
    <g id="walletButtonIcon" stroke="none" fill="none" xlink:href="#path-1">
        <rect id="Rectangle" fill="#D8D8D8" fill-rule="evenodd" opacity="0.100000001" x="0" y="0" width="20" height="20"></rect>
        <path d="M3.75609756,3 C2.79081463,3 2,3.79081463 2,4.75609756 L2,17.2682949 C2,18.111968 2.6929122,18.8048802 3.53658537,18.8048802 L17.4634146,18.8048802 C18.3070878,18.8048802 19,18.111968 19,17.2682949 L19,7.17073171 C19,6.32705854 18.3070878,5.63414634 17.4634146,5.63414634 L16.3658537,5.63414634 L16.3658537,3.43902439 C16.3658317,3.20915122 16.1567024,3 15.9268293,3 M3.75609756,3.87804878 L15.4878049,3.87804878 L15.4878049,5.63414634 L3.75609756,5.63414634 C3.26206341,5.63414634 2.87804878,5.25013171 2.87804878,4.75609756 C2.87804878,4.26206341 3.26206341,3.87804878 3.75609756,3.87804878 Z M2.87804878,6.27209268 C3.13683171,6.42280976 3.43683902,6.51219512 3.75609756,6.51219512 C8.7004122,6.50780488 13.2137902,6.51219512 17.4634146,6.51219512 C17.835839,6.51219512 18.1219512,6.79830732 18.1219512,7.17073171 L18.1219512,9.80487805 L11.7560976,9.80487805 C11.1556439,9.80487805 10.6585366,10.3019854 10.6585366,10.9024412 L10.6585366,13.5365876 C10.6585366,14.1370412 11.1556439,14.6341485 11.7560976,14.6341485 L18.1219512,14.6341485 L18.1219512,17.2682949 C18.1219512,17.6407193 17.835839,17.9268315 17.4634146,17.9268315 L3.53658537,17.9268315 C3.16416098,17.9268315 2.87804878,17.6407193 2.87804878,17.2682949 L2.87804878,6.27209268 Z M11.7560976,10.6829285 L18.1219512,10.6829285 L18.1219512,13.7560998 L11.7560976,13.7560998 C11.6268927,13.7560998 11.5365854,13.6657924 11.5365854,13.5365876 L11.5365854,10.9024412 C11.5365854,10.7732363 11.6268927,10.6826656 11.7560976,10.6829285 Z M13.9512195,11.3414656 C13.4662951,11.3414656 13.0731707,11.73459 13.0731707,12.2195144 C13.0731707,12.7044607 13.4662951,13.0975632 13.9512195,13.0975632 C14.4361439,13.0975632 14.8292683,12.7044607 14.8292683,12.2195144 C14.8292683,11.73459 14.4361439,11.3414656 13.9512195,11.3414656 Z" id="Shape" fill="#000000" fill-rule="nonzero"></path>
    </g>
</svg>