<?xml version="1.0" encoding="UTF-8"?>
<svg width="20px" height="18px" viewBox="0 0 20 18" version="1.1" xmlns="http://www.w3.org/2000/svg" xmlns:xlink="http://www.w3.org/1999/xlink">
	<path d="M19.6919349,14.5037998 L12.0155794,1.17095453 C11.6016555,0.446740843 10.8326746,0 10,0 C9.16732541,0 8.39834454,0.446740843 7.98442062,1.17095453 L0.308065116,14.5037998 C-0.104310064,15.2256226 -0.102573994,16.1128114 0.312622959,16.8330071 C0.727819912,17.5532029 1.49381258,17.9977073 2.32364449,18 L17.6763555,18 C18.5061874,17.9977073 19.2721801,17.5532029 19.687377,16.8330071 C20.102574,16.1128114 20.1043101,15.2256226 19.6919349,14.5037998 L19.6919349,14.5037998 Z M18.455427,16.1157774 C18.298052,16.3981401 17.9990037,16.5713932 17.6763555,16.5672079 L2.32364449,16.5672079 C2.00099631,16.5713932 1.70194804,16.3981401 1.54457303,16.1157774 C1.38041775,15.8399374 1.38041775,15.4960743 1.54457303,15.2202343 L9.22807598,1.88738899 C9.38520548,1.60819687 9.68020223,1.43550644 10,1.43550644 C10.3197978,1.43550644 10.6147945,1.60819687 10.771924,1.88738899 L18.455427,15.2202343 C18.6195822,15.4960743 18.6195822,15.8399374 18.455427,16.1157774 Z M9.28525554,11.408803 L9.28525554,5.35493178 C9.28525554,4.95925595 9.60525753,4.63849732 10,4.63849732 C10.3947425,4.63849732 10.7147445,4.95925595 10.7147445,5.35493178 L10.7147445,11.408803 C10.7147445,11.8044788 10.3947425,12.1252374 10,12.1252374 C9.60525753,12.1252374 9.28525554,11.8044788 9.28525554,11.408803 Z M11.093559,14.0596105 C11.093559,14.6649945 10.603956,15.1557552 10,15.1557552 C9.39604403,15.1557552 8.90644098,14.6649945 8.90644098,14.0596105 C8.90644098,13.4542265 9.39604403,12.9634657 10,12.9634657 C10.6023337,12.9673737 11.0896603,13.4558526 11.093559,14.0596105 Z" fill="currentColor" fill-rule="nonzero"></path>
</svg>
