<svg width="422" height="69" viewBox="0 0 422 69" fill="none" xmlns="http://www.w3.org/2000/svg">
	<rect x="0.5" y="32.5" width="107" height="36" rx="18" stroke="#1E1E1E"/>
	<rect x="184.5" y="32.5" width="68" height="36" rx="18" stroke="#1E1E1E"/>
	<rect x="113" y="32" width="66" height="37" rx="18.5" fill="#0076DE"/>
	<rect x="258.5" y="32.5" width="151" height="36" rx="18" stroke="#1E1E1E"/>
	<path
		d="M27.4 59H24.7L19.7 43.2V59H17.15V40.875H21.425L26.05 55.975L30.675 40.875H34.95V59H32.4V43.2L27.4 59ZM47.3697 53.375V52.525C43.2447 52.925 40.6197 53.55 40.6197 55.4C40.6197 56.675 41.5947 57.525 43.2197 57.525C45.3447 57.525 47.3697 56.55 47.3697 53.375ZM42.7197 59.325C40.1947 59.325 38.0947 57.925 38.0947 55.45C38.0947 52.275 41.6947 51.325 47.1947 50.725V50.4C47.1947 47.925 45.8447 47.125 44.1447 47.125C42.2447 47.125 41.1697 48.125 41.0697 49.8H38.7197C38.9197 46.9 41.5197 45.275 44.1197 45.275C47.8447 45.275 49.4947 47.025 49.4697 50.825L49.4447 53.925C49.4197 56.2 49.5197 57.725 49.7947 59H47.4947C47.4197 58.5 47.3447 57.95 47.3197 57.15C46.4947 58.55 45.1197 59.325 42.7197 59.325ZM62.9346 49.475H60.5596C60.1846 47.875 58.9846 47.25 57.3846 47.25C56.0596 47.25 54.5596 47.725 54.5596 48.95C54.5596 50.025 55.3096 50.5 56.6096 50.775L58.5096 51.15C60.9596 51.6 63.1096 52.575 63.1096 55.15C63.1096 57.825 60.7096 59.325 57.6346 59.325C54.1096 59.325 52.1346 57 51.8596 54.65H54.2596C54.6346 56.375 55.6846 57.4 57.6846 57.4C59.4096 57.4 60.8096 56.675 60.8096 55.4C60.8096 54.025 59.5346 53.5 58.0846 53.175L56.0846 52.775C54.2596 52.375 52.2596 51.575 52.2596 49.05C52.2596 46.675 54.6596 45.3 57.6346 45.3C60.5596 45.3 62.5096 46.9 62.9346 49.475ZM68.2693 40.875V47.575C69.0443 46.3 70.3443 45.325 72.6193 45.325C75.8693 45.325 77.0443 47.425 77.0443 50.5V59H74.7693V51.175C74.7693 49.1 74.4193 47.3 71.8193 47.3C69.6193 47.3 68.2693 48.8 68.2693 51.7V59H65.9943V40.875H68.2693ZM88.9225 53.375V52.525C84.7975 52.925 82.1725 53.55 82.1725 55.4C82.1725 56.675 83.1475 57.525 84.7725 57.525C86.8975 57.525 88.9225 56.55 88.9225 53.375ZM84.2725 59.325C81.7475 59.325 79.6475 57.925 79.6475 55.45C79.6475 52.275 83.2475 51.325 88.7475 50.725V50.4C88.7475 47.925 87.3975 47.125 85.6975 47.125C83.7975 47.125 82.7225 48.125 82.6225 49.8H80.2725C80.4725 46.9 83.0725 45.275 85.6725 45.275C89.3975 45.275 91.0475 47.025 91.0225 50.825L90.9975 53.925C90.9725 56.2 91.0725 57.725 91.3475 59H89.0475C88.9725 58.5 88.8975 57.95 88.8725 57.15C88.0475 58.55 86.6725 59.325 84.2725 59.325Z"
		fill="black"/>
	<path
		d="M203.075 40.875V59H200.8V40.875H203.075ZM206.684 45.55H208.959V59H206.684V45.55ZM206.684 40.875H208.959V43.625H206.684V40.875ZM212.568 40.875H214.843V51.6L220.268 45.55H223.068L217.943 51.125L223.768 59H220.993L216.418 52.8L214.843 54.5V59H212.568V40.875ZM236.698 53.025H226.348C226.423 55.925 228.523 57.325 230.498 57.325C232.498 57.325 233.598 56.425 234.173 55.1H236.523C235.923 57.4 233.773 59.325 230.498 59.325C226.248 59.325 223.898 56.275 223.898 52.3C223.898 48.025 226.748 45.325 230.423 45.325C234.548 45.325 236.973 48.75 236.698 53.025ZM230.423 47.275C228.423 47.275 226.573 48.375 226.373 51.075H234.298C234.223 49.175 232.848 47.275 230.423 47.275Z"
		fill="black"/>
	<path
		d="M133.15 55.5L135.825 45.55H138.175L140.85 55.5L143.425 45.55H145.875L142 59H139.925L136.95 48.175L134.075 59H132L128.125 45.55H130.575L133.15 55.5ZM147.793 45.55H150.068V59H147.793V45.55ZM147.793 40.875H150.068V43.625H147.793V40.875ZM155.952 40.875V59H153.677V40.875H155.952ZM161.836 40.875V59H159.561V40.875H161.836Z"
		fill="white"/>
	<path
		d="M277.075 51.7V59H274.8V45.55H277.075V47.575C277.85 46.3 279.1 45.325 281.125 45.325C283.2 45.325 284.4 46.2 285 47.7C286.075 46.025 287.625 45.325 289.525 45.325C292.65 45.325 293.875 47.425 293.875 50.5V59H291.6V51.175C291.6 49.1 291.2 47.3 288.725 47.3C286.75 47.3 285.475 48.8 285.475 51.7V59H283.2V51.175C283.2 49.1 282.8 47.3 280.325 47.3C278.35 47.3 277.075 48.8 277.075 51.7ZM298.835 52.325C298.835 55.925 300.785 57.325 302.86 57.325C304.935 57.325 306.885 55.775 306.885 52.325C306.885 48.725 304.935 47.325 302.86 47.325C300.785 47.325 298.835 48.65 298.835 52.325ZM302.86 45.325C305.985 45.325 309.31 47.45 309.31 52.325C309.31 57.2 305.985 59.325 302.86 59.325C299.735 59.325 296.41 57.2 296.41 52.325C296.41 47.45 299.735 45.325 302.86 45.325ZM320.356 59V57.075C319.581 58.35 318.356 59.325 316.131 59.325C313.031 59.325 311.831 57.225 311.831 54.15V45.55H314.106V53.475C314.106 55.55 314.431 57.35 316.931 57.35C319.106 57.35 320.356 55.85 320.356 52.95V45.55H322.631V59H320.356ZM328.515 45.55V47.575C329.29 46.3 330.59 45.325 332.865 45.325C336.115 45.325 337.29 47.425 337.29 50.5V59H335.015V51.175C335.015 49.1 334.665 47.3 332.065 47.3C329.865 47.3 328.515 48.8 328.515 51.7V59H326.24V45.55H328.515ZM341.344 45.55V42.175H343.619V45.55H346.169V47.375H343.619V55.35C343.619 56.75 343.719 57.1 345.019 57.1H346.169V59H344.519C341.944 59 341.344 58.425 341.344 55.625V47.375H339.219V45.55H341.344ZM357.298 53.375V52.525C353.173 52.925 350.548 53.55 350.548 55.4C350.548 56.675 351.523 57.525 353.148 57.525C355.273 57.525 357.298 56.55 357.298 53.375ZM352.648 59.325C350.123 59.325 348.023 57.925 348.023 55.45C348.023 52.275 351.623 51.325 357.123 50.725V50.4C357.123 47.925 355.773 47.125 354.073 47.125C352.173 47.125 351.098 48.125 350.998 49.8H348.648C348.848 46.9 351.448 45.275 354.048 45.275C357.773 45.275 359.423 47.025 359.398 50.825L359.373 53.925C359.348 56.2 359.448 57.725 359.723 59H357.423C357.348 58.5 357.273 57.95 357.248 57.15C356.423 58.55 355.048 59.325 352.648 59.325ZM362.788 45.55H365.063V59H362.788V45.55ZM362.788 40.875H365.063V43.625H362.788V40.875ZM370.947 45.55V47.575C371.722 46.3 373.022 45.325 375.297 45.325C378.547 45.325 379.722 47.425 379.722 50.5V59H377.447V51.175C377.447 49.1 377.097 47.3 374.497 47.3C372.297 47.3 370.947 48.8 370.947 51.7V59H368.672V45.55H370.947ZM393.2 49.475H390.825C390.45 47.875 389.25 47.25 387.65 47.25C386.325 47.25 384.825 47.725 384.825 48.95C384.825 50.025 385.575 50.5 386.875 50.775L388.775 51.15C391.225 51.6 393.375 52.575 393.375 55.15C393.375 57.825 390.975 59.325 387.9 59.325C384.375 59.325 382.4 57 382.125 54.65H384.525C384.9 56.375 385.95 57.4 387.95 57.4C389.675 57.4 391.075 56.675 391.075 55.4C391.075 54.025 389.8 53.5 388.35 53.175L386.35 52.775C384.525 52.375 382.525 51.575 382.525 49.05C382.525 46.675 384.925 45.3 387.9 45.3C390.825 45.3 392.775 46.9 393.2 49.475Z"
		fill="black"/>
	<path d="M419.5 59H416.625V56.125H419.5V59Z" fill="black"/>
	<path
		d="M7.084 16H5.572L2.772 7.152V16H1.344V5.85H3.738L6.328 14.306L8.918 5.85H11.312V16H9.884V7.152L7.084 16ZM18.4142 12.85V12.374C16.1042 12.598 14.6342 12.948 14.6342 13.984C14.6342 14.698 15.1802 15.174 16.0902 15.174C17.2802 15.174 18.4142 14.628 18.4142 12.85ZM15.8102 16.182C14.3962 16.182 13.2202 15.398 13.2202 14.012C13.2202 12.234 15.2362 11.702 18.3162 11.366V11.184C18.3162 9.798 17.5602 9.35 16.6082 9.35C15.5442 9.35 14.9422 9.91 14.8862 10.848H13.5702C13.6822 9.224 15.1382 8.314 16.5942 8.314C18.6802 8.314 19.6042 9.294 19.5902 11.422L19.5762 13.158C19.5622 14.432 19.6182 15.286 19.7722 16H18.4842C18.4422 15.72 18.4002 15.412 18.3862 14.964C17.9242 15.748 17.1542 16.182 15.8102 16.182ZM30.8405 8.468V16H21.5585V8.468H22.8325V14.894H25.5625V8.468H26.8365V14.894H29.5665V8.468H30.8405ZM37.6778 12.85V12.374C35.3678 12.598 33.8978 12.948 33.8978 13.984C33.8978 14.698 34.4438 15.174 35.3538 15.174C36.5438 15.174 37.6778 14.628 37.6778 12.85ZM35.0738 16.182C33.6598 16.182 32.4838 15.398 32.4838 14.012C32.4838 12.234 34.4998 11.702 37.5798 11.366V11.184C37.5798 9.798 36.8238 9.35 35.8718 9.35C34.8078 9.35 34.2058 9.91 34.1498 10.848H32.8338C32.9458 9.224 34.4018 8.314 35.8578 8.314C37.9438 8.314 38.8678 9.294 38.8538 11.422L38.8398 13.158C38.8258 14.432 38.8818 15.286 39.0358 16H37.7478C37.7058 15.72 37.6638 15.412 37.6498 14.964C37.1878 15.748 36.4178 16.182 35.0738 16.182ZM50.3464 8.468V16H49.0724V9.574H45.4184V16H44.1444V8.468H50.3464ZM53.2959 12.262C53.2959 14.278 54.3879 15.062 55.5499 15.062C56.7119 15.062 57.8039 14.194 57.8039 12.262C57.8039 10.246 56.7119 9.462 55.5499 9.462C54.3879 9.462 53.2959 10.204 53.2959 12.262ZM55.5499 8.342C57.2999 8.342 59.1619 9.532 59.1619 12.262C59.1619 14.992 57.2999 16.182 55.5499 16.182C53.7999 16.182 51.9379 14.992 51.9379 12.262C51.9379 9.532 53.7999 8.342 55.5499 8.342ZM66.5964 8.468V16H65.3224V9.574H62.7884L62.6764 11.394C62.4944 14.432 61.8364 16 60.0864 16H59.8484V14.894H59.9884C60.6604 14.894 61.3044 14.166 61.4584 11.044L61.5704 8.468H66.5964ZM74.9418 8.342C76.6918 8.342 78.5538 9.532 78.5538 12.262C78.5538 14.992 76.6918 16.182 74.9418 16.182C73.3738 16.182 71.7078 15.118 71.5258 12.71H70.0278V16H68.7538V8.468H70.0278V11.604H71.5538C71.8198 9.322 73.4018 8.342 74.9418 8.342ZM74.9418 15.062C76.1038 15.062 77.1958 14.194 77.1958 12.262C77.1958 10.246 76.1038 9.462 74.9418 9.462C73.8918 9.462 72.8698 10.204 72.8698 12.262C72.8698 14.278 73.8918 15.062 74.9418 15.062ZM83.5441 8.902C85.2521 8.902 86.7221 10.092 86.7221 12.472C86.7221 14.894 85.1681 16.182 83.3201 16.182C81.3741 16.182 79.7781 14.824 79.7781 12.08V11.212C79.8201 8.496 80.7161 6.914 83.7401 6.312L86.2181 5.822V6.956L83.8101 7.474C81.9761 7.88 81.0941 8.566 80.9121 10.442C81.4161 9.392 82.4241 8.902 83.5441 8.902ZM83.3201 15.076C84.5521 15.076 85.3641 14.138 85.3641 12.5C85.3641 10.848 84.4961 10.008 83.3341 10.008C82.1861 10.008 81.1501 10.792 81.1501 12.486C81.1501 14.082 82.0461 15.076 83.3201 15.076ZM93.3885 16V10.316L89.4965 16H88.2225V8.468H89.4965V14.152L93.3885 8.468H94.6625V16H93.3885ZM102.38 9.574H99.8041V16H98.5301V9.574H95.9541V8.468H102.38V9.574ZM111.796 9.574H108.268V16H106.994V8.468H111.796V9.574ZM113.562 12.262C113.562 14.278 114.654 15.062 115.816 15.062C116.978 15.062 118.07 14.194 118.07 12.262C118.07 10.246 116.978 9.462 115.816 9.462C114.654 9.462 113.562 10.204 113.562 12.262ZM115.816 8.342C117.566 8.342 119.428 9.532 119.428 12.262C119.428 14.992 117.566 16.182 115.816 16.182C114.066 16.182 112.204 14.992 112.204 12.262C112.204 9.532 114.066 8.342 115.816 8.342ZM121.021 8.468H122.295V9.658C122.757 8.86 123.541 8.342 124.759 8.342C126.495 8.342 127.979 9.798 127.979 12.262C127.979 14.768 126.495 16.182 124.759 16.182C123.541 16.182 122.757 15.664 122.295 14.866V18.45H121.021V8.468ZM122.239 12.262C122.239 14.25 123.303 15.09 124.437 15.09C125.739 15.09 126.593 14.068 126.593 12.262C126.593 10.456 125.739 9.434 124.437 9.434C123.303 9.434 122.239 10.274 122.239 12.262ZM132.269 16H129.553V8.468H130.827V11.128H132.283C134.243 11.128 135.097 11.898 135.097 13.508C135.097 15.37 133.991 16 132.269 16ZM130.827 12.234V14.894H132.157C133.277 14.894 133.851 14.53 133.851 13.508C133.851 12.5 133.291 12.234 132.115 12.234H130.827ZM137.617 16H136.343V8.468H137.617V16ZM141.221 16H139.611V14.39H141.221V16Z"
		fill="#8E8E8E"/>
</svg>
