<svg width="427" height="69" viewBox="0 0 427 69" fill="none" xmlns="http://www.w3.org/2000/svg">
	<rect x="76.5" y="32.5" width="107" height="36" rx="18" stroke="#1E1E1E"/>
	<rect x="189.5" y="32.5" width="68" height="36" rx="18" stroke="#1E1E1E"/>
	<rect x="263.5" y="32.5" width="151" height="36" rx="18" stroke="#1E1E1E"/>
	<path
		d="M103.4 59H100.7L95.7 43.2V59H93.15V40.875H97.425L102.05 55.975L106.675 40.875H110.95V59H108.4V43.2L103.4 59ZM123.37 53.375V52.525C119.245 52.925 116.62 53.55 116.62 55.4C116.62 56.675 117.595 57.525 119.22 57.525C121.345 57.525 123.37 56.55 123.37 53.375ZM118.72 59.325C116.195 59.325 114.095 57.925 114.095 55.45C114.095 52.275 117.695 51.325 123.195 50.725V50.4C123.195 47.925 121.845 47.125 120.145 47.125C118.245 47.125 117.17 48.125 117.07 49.8H114.72C114.92 46.9 117.52 45.275 120.12 45.275C123.845 45.275 125.495 47.025 125.47 50.825L125.445 53.925C125.42 56.2 125.52 57.725 125.795 59H123.495C123.42 58.5 123.345 57.95 123.32 57.15C122.495 58.55 121.12 59.325 118.72 59.325ZM138.935 49.475H136.56C136.185 47.875 134.985 47.25 133.385 47.25C132.06 47.25 130.56 47.725 130.56 48.95C130.56 50.025 131.31 50.5 132.61 50.775L134.51 51.15C136.96 51.6 139.11 52.575 139.11 55.15C139.11 57.825 136.71 59.325 133.635 59.325C130.11 59.325 128.135 57 127.86 54.65H130.26C130.635 56.375 131.685 57.4 133.685 57.4C135.41 57.4 136.81 56.675 136.81 55.4C136.81 54.025 135.535 53.5 134.085 53.175L132.085 52.775C130.26 52.375 128.26 51.575 128.26 49.05C128.26 46.675 130.66 45.3 133.635 45.3C136.56 45.3 138.51 46.9 138.935 49.475ZM144.269 40.875V47.575C145.044 46.3 146.344 45.325 148.619 45.325C151.869 45.325 153.044 47.425 153.044 50.5V59H150.769V51.175C150.769 49.1 150.419 47.3 147.819 47.3C145.619 47.3 144.269 48.8 144.269 51.7V59H141.994V40.875H144.269ZM164.922 53.375V52.525C160.797 52.925 158.172 53.55 158.172 55.4C158.172 56.675 159.147 57.525 160.772 57.525C162.897 57.525 164.922 56.55 164.922 53.375ZM160.272 59.325C157.747 59.325 155.647 57.925 155.647 55.45C155.647 52.275 159.247 51.325 164.747 50.725V50.4C164.747 47.925 163.397 47.125 161.697 47.125C159.797 47.125 158.722 48.125 158.622 49.8H156.272C156.472 46.9 159.072 45.275 161.672 45.275C165.397 45.275 167.047 47.025 167.022 50.825L166.997 53.925C166.972 56.2 167.072 57.725 167.347 59H165.047C164.972 58.5 164.897 57.95 164.872 57.15C164.047 58.55 162.672 59.325 160.272 59.325Z"
		fill="black"/>
	<path
		d="M208.075 40.875V59H205.8V40.875H208.075ZM211.684 45.55H213.959V59H211.684V45.55ZM211.684 40.875H213.959V43.625H211.684V40.875ZM217.568 40.875H219.843V51.6L225.268 45.55H228.068L222.943 51.125L228.768 59H225.993L221.418 52.8L219.843 54.5V59H217.568V40.875ZM241.698 53.025H231.348C231.423 55.925 233.523 57.325 235.498 57.325C237.498 57.325 238.598 56.425 239.173 55.1H241.523C240.923 57.4 238.773 59.325 235.498 59.325C231.248 59.325 228.898 56.275 228.898 52.3C228.898 48.025 231.748 45.325 235.423 45.325C239.548 45.325 241.973 48.75 241.698 53.025ZM235.423 47.275C233.423 47.275 231.573 48.375 231.373 51.075H239.298C239.223 49.175 237.848 47.275 235.423 47.275Z"
		fill="black"/>
	<rect y="32" width="71" height="37" rx="18.5" fill="#0076DE"/>
	<path
		d="M28.05 40.875L31.625 56.1L34.975 40.875H37.65L33.125 59H30.025L26.525 44.1L23.1 59H20L15.4 40.875H18.2L21.7 56.1L25.05 40.875H28.05ZM39.8469 45.55H42.1219V59H39.8469V45.55ZM39.8469 40.875H42.1219V43.625H39.8469V40.875ZM48.0057 40.875V59H45.7307V40.875H48.0057ZM53.8895 40.875V59H51.6145V40.875H53.8895Z"
		fill="white"/>
	<path
		d="M282.075 51.7V59H279.8V45.55H282.075V47.575C282.85 46.3 284.1 45.325 286.125 45.325C288.2 45.325 289.4 46.2 290 47.7C291.075 46.025 292.625 45.325 294.525 45.325C297.65 45.325 298.875 47.425 298.875 50.5V59H296.6V51.175C296.6 49.1 296.2 47.3 293.725 47.3C291.75 47.3 290.475 48.8 290.475 51.7V59H288.2V51.175C288.2 49.1 287.8 47.3 285.325 47.3C283.35 47.3 282.075 48.8 282.075 51.7ZM303.835 52.325C303.835 55.925 305.785 57.325 307.86 57.325C309.935 57.325 311.885 55.775 311.885 52.325C311.885 48.725 309.935 47.325 307.86 47.325C305.785 47.325 303.835 48.65 303.835 52.325ZM307.86 45.325C310.985 45.325 314.31 47.45 314.31 52.325C314.31 57.2 310.985 59.325 307.86 59.325C304.735 59.325 301.41 57.2 301.41 52.325C301.41 47.45 304.735 45.325 307.86 45.325ZM325.356 59V57.075C324.581 58.35 323.356 59.325 321.131 59.325C318.031 59.325 316.831 57.225 316.831 54.15V45.55H319.106V53.475C319.106 55.55 319.431 57.35 321.931 57.35C324.106 57.35 325.356 55.85 325.356 52.95V45.55H327.631V59H325.356ZM333.515 45.55V47.575C334.29 46.3 335.59 45.325 337.865 45.325C341.115 45.325 342.29 47.425 342.29 50.5V59H340.015V51.175C340.015 49.1 339.665 47.3 337.065 47.3C334.865 47.3 333.515 48.8 333.515 51.7V59H331.24V45.55H333.515ZM346.344 45.55V42.175H348.619V45.55H351.169V47.375H348.619V55.35C348.619 56.75 348.719 57.1 350.019 57.1H351.169V59H349.519C346.944 59 346.344 58.425 346.344 55.625V47.375H344.219V45.55H346.344ZM362.298 53.375V52.525C358.173 52.925 355.548 53.55 355.548 55.4C355.548 56.675 356.523 57.525 358.148 57.525C360.273 57.525 362.298 56.55 362.298 53.375ZM357.648 59.325C355.123 59.325 353.023 57.925 353.023 55.45C353.023 52.275 356.623 51.325 362.123 50.725V50.4C362.123 47.925 360.773 47.125 359.073 47.125C357.173 47.125 356.098 48.125 355.998 49.8H353.648C353.848 46.9 356.448 45.275 359.048 45.275C362.773 45.275 364.423 47.025 364.398 50.825L364.373 53.925C364.348 56.2 364.448 57.725 364.723 59H362.423C362.348 58.5 362.273 57.95 362.248 57.15C361.423 58.55 360.048 59.325 357.648 59.325ZM367.788 45.55H370.063V59H367.788V45.55ZM367.788 40.875H370.063V43.625H367.788V40.875ZM375.947 45.55V47.575C376.722 46.3 378.022 45.325 380.297 45.325C383.547 45.325 384.722 47.425 384.722 50.5V59H382.447V51.175C382.447 49.1 382.097 47.3 379.497 47.3C377.297 47.3 375.947 48.8 375.947 51.7V59H373.672V45.55H375.947ZM398.2 49.475H395.825C395.45 47.875 394.25 47.25 392.65 47.25C391.325 47.25 389.825 47.725 389.825 48.95C389.825 50.025 390.575 50.5 391.875 50.775L393.775 51.15C396.225 51.6 398.375 52.575 398.375 55.15C398.375 57.825 395.975 59.325 392.9 59.325C389.375 59.325 387.4 57 387.125 54.65H389.525C389.9 56.375 390.95 57.4 392.95 57.4C394.675 57.4 396.075 56.675 396.075 55.4C396.075 54.025 394.8 53.5 393.35 53.175L391.35 52.775C389.525 52.375 387.525 51.575 387.525 49.05C387.525 46.675 389.925 45.3 392.9 45.3C395.825 45.3 397.775 46.9 398.2 49.475Z"
		fill="black"/>
	<path d="M424.5 59H421.625V56.125H424.5V59Z" fill="black"/>
	<path
		d="M7.084 16H5.572L2.772 7.152V16H1.344V5.85H3.738L6.328 14.306L8.918 5.85H11.312V16H9.884V7.152L7.084 16ZM18.4142 12.85V12.374C16.1042 12.598 14.6342 12.948 14.6342 13.984C14.6342 14.698 15.1802 15.174 16.0902 15.174C17.2802 15.174 18.4142 14.628 18.4142 12.85ZM15.8102 16.182C14.3962 16.182 13.2202 15.398 13.2202 14.012C13.2202 12.234 15.2362 11.702 18.3162 11.366V11.184C18.3162 9.798 17.5602 9.35 16.6082 9.35C15.5442 9.35 14.9422 9.91 14.8862 10.848H13.5702C13.6822 9.224 15.1382 8.314 16.5942 8.314C18.6802 8.314 19.6042 9.294 19.5902 11.422L19.5762 13.158C19.5622 14.432 19.6182 15.286 19.7722 16H18.4842C18.4422 15.72 18.4002 15.412 18.3862 14.964C17.9242 15.748 17.1542 16.182 15.8102 16.182ZM30.8405 8.468V16H21.5585V8.468H22.8325V14.894H25.5625V8.468H26.8365V14.894H29.5665V8.468H30.8405ZM37.6778 12.85V12.374C35.3678 12.598 33.8978 12.948 33.8978 13.984C33.8978 14.698 34.4438 15.174 35.3538 15.174C36.5438 15.174 37.6778 14.628 37.6778 12.85ZM35.0738 16.182C33.6598 16.182 32.4838 15.398 32.4838 14.012C32.4838 12.234 34.4998 11.702 37.5798 11.366V11.184C37.5798 9.798 36.8238 9.35 35.8718 9.35C34.8078 9.35 34.2058 9.91 34.1498 10.848H32.8338C32.9458 9.224 34.4018 8.314 35.8578 8.314C37.9438 8.314 38.8678 9.294 38.8538 11.422L38.8398 13.158C38.8258 14.432 38.8818 15.286 39.0358 16H37.7478C37.7058 15.72 37.6638 15.412 37.6498 14.964C37.1878 15.748 36.4178 16.182 35.0738 16.182ZM50.3464 8.468V16H49.0724V9.574H45.4184V16H44.1444V8.468H50.3464ZM53.2959 12.262C53.2959 14.278 54.3879 15.062 55.5499 15.062C56.7119 15.062 57.8039 14.194 57.8039 12.262C57.8039 10.246 56.7119 9.462 55.5499 9.462C54.3879 9.462 53.2959 10.204 53.2959 12.262ZM55.5499 8.342C57.2999 8.342 59.1619 9.532 59.1619 12.262C59.1619 14.992 57.2999 16.182 55.5499 16.182C53.7999 16.182 51.9379 14.992 51.9379 12.262C51.9379 9.532 53.7999 8.342 55.5499 8.342ZM66.5964 8.468V16H65.3224V9.574H62.7884L62.6764 11.394C62.4944 14.432 61.8364 16 60.0864 16H59.8484V14.894H59.9884C60.6604 14.894 61.3044 14.166 61.4584 11.044L61.5704 8.468H66.5964ZM74.9418 8.342C76.6918 8.342 78.5538 9.532 78.5538 12.262C78.5538 14.992 76.6918 16.182 74.9418 16.182C73.3738 16.182 71.7078 15.118 71.5258 12.71H70.0278V16H68.7538V8.468H70.0278V11.604H71.5538C71.8198 9.322 73.4018 8.342 74.9418 8.342ZM74.9418 15.062C76.1038 15.062 77.1958 14.194 77.1958 12.262C77.1958 10.246 76.1038 9.462 74.9418 9.462C73.8918 9.462 72.8698 10.204 72.8698 12.262C72.8698 14.278 73.8918 15.062 74.9418 15.062ZM83.5441 8.902C85.2521 8.902 86.7221 10.092 86.7221 12.472C86.7221 14.894 85.1681 16.182 83.3201 16.182C81.3741 16.182 79.7781 14.824 79.7781 12.08V11.212C79.8201 8.496 80.7161 6.914 83.7401 6.312L86.2181 5.822V6.956L83.8101 7.474C81.9761 7.88 81.0941 8.566 80.9121 10.442C81.4161 9.392 82.4241 8.902 83.5441 8.902ZM83.3201 15.076C84.5521 15.076 85.3641 14.138 85.3641 12.5C85.3641 10.848 84.4961 10.008 83.3341 10.008C82.1861 10.008 81.1501 10.792 81.1501 12.486C81.1501 14.082 82.0461 15.076 83.3201 15.076ZM93.3885 16V10.316L89.4965 16H88.2225V8.468H89.4965V14.152L93.3885 8.468H94.6625V16H93.3885ZM102.38 9.574H99.8041V16H98.5301V9.574H95.9541V8.468H102.38V9.574ZM111.796 9.574H108.268V16H106.994V8.468H111.796V9.574ZM113.562 12.262C113.562 14.278 114.654 15.062 115.816 15.062C116.978 15.062 118.07 14.194 118.07 12.262C118.07 10.246 116.978 9.462 115.816 9.462C114.654 9.462 113.562 10.204 113.562 12.262ZM115.816 8.342C117.566 8.342 119.428 9.532 119.428 12.262C119.428 14.992 117.566 16.182 115.816 16.182C114.066 16.182 112.204 14.992 112.204 12.262C112.204 9.532 114.066 8.342 115.816 8.342ZM121.021 8.468H122.295V9.658C122.757 8.86 123.541 8.342 124.759 8.342C126.495 8.342 127.979 9.798 127.979 12.262C127.979 14.768 126.495 16.182 124.759 16.182C123.541 16.182 122.757 15.664 122.295 14.866V18.45H121.021V8.468ZM122.239 12.262C122.239 14.25 123.303 15.09 124.437 15.09C125.739 15.09 126.593 14.068 126.593 12.262C126.593 10.456 125.739 9.434 124.437 9.434C123.303 9.434 122.239 10.274 122.239 12.262ZM132.269 16H129.553V8.468H130.827V11.128H132.283C134.243 11.128 135.097 11.898 135.097 13.508C135.097 15.37 133.991 16 132.269 16ZM130.827 12.234V14.894H132.157C133.277 14.894 133.851 14.53 133.851 13.508C133.851 12.5 133.291 12.234 132.115 12.234H130.827ZM137.617 16H136.343V8.468H137.617V16ZM142.313 5.668C143.895 5.668 145.477 6.438 145.477 8.132C145.477 9.476 144.539 10.414 143.587 11.016C142.719 11.576 142.411 11.828 142.411 12.598V13.032H141.109V12.556C141.109 11.38 141.669 10.876 142.845 10.12C143.573 9.658 144.147 9.098 144.147 8.188C144.147 7.292 143.363 6.732 142.285 6.732C140.731 6.732 140.199 7.824 140.157 8.678H138.883C138.883 6.858 140.339 5.668 142.313 5.668ZM142.593 16H140.983V14.39H142.593V16Z"
		fill="#8E8E8E"/>
</svg>
