<svg width="720" height="295" viewBox="0 0 720 295" fill="none" xmlns="http://www.w3.org/2000/svg">
<path d="M10 1H268V294H9.99999C5.02943 294 1 289.971 1 285V10C1 5.02943 5.02944 1 10 1Z" stroke="#E3E3E3" stroke-width="2"/>
<path d="M24.512 58.6V76H22.064V58.6H24.512ZM20 90.6H22.688L27.44 99.096L32.288 90.6H34.976L28.592 101.256V108H26.144V101.208L20 90.6ZM36.0363 101.592C36.0363 105.048 37.9083 106.392 39.9003 106.392C41.8923 106.392 43.7643 104.904 43.7643 101.592C43.7643 98.136 41.8923 96.792 39.9003 96.792C37.9083 96.792 36.0363 98.064 36.0363 101.592ZM39.9003 94.872C42.9003 94.872 46.0923 96.912 46.0923 101.592C46.0923 106.272 42.9003 108.312 39.9003 108.312C36.9003 108.312 33.7083 106.272 33.7083 101.592C33.7083 96.912 36.9003 94.872 39.9003 94.872ZM56.6966 108V106.152C55.9526 107.376 54.7766 108.312 52.6406 108.312C49.6646 108.312 48.5126 106.296 48.5126 103.344V95.088H50.6966V102.696C50.6966 104.688 51.0086 106.416 53.4086 106.416C55.4966 106.416 56.6966 104.976 56.6966 102.192V95.088H58.8806V108H56.6966ZM32.528 122.6L35.96 137.216L39.176 122.6H41.744L37.4 140H34.424L31.064 125.696L27.776 140H24.8L20.384 122.6H23.072L26.432 137.216L29.648 122.6H32.528ZM54.5264 134.264H44.5904C44.6624 137.048 46.6784 138.392 48.5744 138.392C50.4944 138.392 51.5504 137.528 52.1024 136.256H54.3584C53.7824 138.464 51.7184 140.312 48.5744 140.312C44.4944 140.312 42.2384 137.384 42.2384 133.568C42.2384 129.464 44.9744 126.872 48.5024 126.872C52.4624 126.872 54.7904 130.16 54.5264 134.264ZM48.5024 128.744C46.5824 128.744 44.8064 129.8 44.6144 132.392H52.2224C52.1504 130.568 50.8304 128.744 48.5024 128.744ZM25.664 172V156.712H20V154.6H33.776V156.712H28.112V172H25.664ZM37.2245 154.6V161.032C37.9685 159.808 39.2165 158.872 41.4005 158.872C44.5205 158.872 45.6485 160.888 45.6485 163.84V172H43.4645V164.488C43.4645 162.496 43.1285 160.768 40.6325 160.768C38.5205 160.768 37.2245 162.208 37.2245 164.992V172H35.0405V154.6H37.2245ZM60.3155 166.264H50.3795C50.4515 169.048 52.4675 170.392 54.3635 170.392C56.2835 170.392 57.3395 169.528 57.8915 168.256H60.1475C59.5715 170.464 57.5075 172.312 54.3635 172.312C50.2835 172.312 48.0275 169.384 48.0275 165.568C48.0275 161.464 50.7635 158.872 54.2915 158.872C58.2515 158.872 60.5795 162.16 60.3155 166.264ZM54.2915 160.744C52.3715 160.744 50.5955 161.8 50.4035 164.392H58.0115C57.9395 162.568 56.6195 160.744 54.2915 160.744ZM69.9196 159.088H72.1996L67.5916 172.552C66.6316 175.336 66.0076 176.2 63.1036 176.2H61.9756V174.376H62.8636C64.3036 174.376 64.9996 174.28 65.5756 172.264L65.6716 172L61.0156 159.088H63.4396L66.7276 169.048L69.9196 159.088ZM33.656 186.6H36.104V204H33.656V196.104H24.512V204H22.064V186.6H24.512V193.992H33.656V186.6ZM51.2921 198.264H41.3561C41.4281 201.048 43.4441 202.392 45.3401 202.392C47.2601 202.392 48.3161 201.528 48.8681 200.256H51.1241C50.5481 202.464 48.4841 204.312 45.3401 204.312C41.2601 204.312 39.0041 201.384 39.0041 197.568C39.0041 193.464 41.7401 190.872 45.2681 190.872C49.2281 190.872 51.5561 194.16 51.2921 198.264ZM45.2681 192.744C43.3481 192.744 41.5721 193.8 41.3801 196.392H48.9881C48.9161 194.568 47.5961 192.744 45.2681 192.744ZM21.344 223.04C21.344 219.704 24.824 218.288 27.632 218.288C30.776 218.288 33.536 219.704 34.232 223.04H31.856C31.28 221.048 29.264 220.352 27.536 220.352C26.192 220.352 23.84 220.952 23.84 222.896C23.84 224.432 25.04 225.2 26.672 225.56L28.688 226.016C31.352 226.592 34.544 227.6 34.544 231.104C34.544 234.488 31.376 236.312 27.92 236.312C23.816 236.312 21.224 234.056 20.768 230.6H23.168C23.624 233 25.28 234.248 27.968 234.248C30.56 234.248 32.024 233.048 32.024 231.32C32.024 229.472 30.44 228.752 28.28 228.248L26.12 227.792C23.72 227.264 21.344 225.92 21.344 223.04ZM39.287 218.6V225.032C40.031 223.808 41.279 222.872 43.463 222.872C46.583 222.872 47.711 224.888 47.711 227.84V236H45.527V228.488C45.527 226.496 45.191 224.768 42.695 224.768C40.583 224.768 39.287 226.208 39.287 228.992V236H37.103V218.6H39.287ZM62.378 230.264H52.442C52.514 233.048 54.53 234.392 56.426 234.392C58.346 234.392 59.402 233.528 59.954 232.256H62.21C61.634 234.464 59.57 236.312 56.426 236.312C52.346 236.312 50.09 233.384 50.09 229.568C50.09 225.464 52.826 222.872 56.354 222.872C60.314 222.872 62.642 226.16 62.378 230.264ZM56.354 224.744C54.434 224.744 52.658 225.8 52.466 228.392H60.074C60.002 226.568 58.682 224.744 56.354 224.744ZM24.512 250.6V268H22.064V250.6H24.512ZM28.9379 255.088V251.848H31.1219V255.088H33.5699V256.84H31.1219V264.496C31.1219 265.84 31.2179 266.176 32.4659 266.176H33.5699V268H31.9859C29.5139 268 28.9379 267.448 28.9379 264.76V256.84H26.8979V255.088H28.9379Z" fill="#1E1E1E"/>
<path d="M22.76 30.555C22.76 33.12 24.17 34.485 25.865 34.485C27.56 34.485 28.97 33.12 28.97 30.555C28.97 28.005 27.56 26.64 25.865 26.64C24.17 26.64 22.76 28.005 22.76 30.555ZM31.19 30.555C31.19 33.93 29.105 36.195 25.865 36.195C22.625 36.195 20.54 33.93 20.54 30.555C20.54 27.18 22.625 24.93 25.865 24.93C29.105 24.93 31.19 27.18 31.19 30.555ZM36.6534 36H34.5834V29.565H31.9584V27.93H39.2784V29.565H36.6534V36ZM44.4171 34.605C45.4971 34.605 46.2621 33.555 46.2621 31.98C46.2621 30.405 45.4971 29.34 44.4171 29.34C43.2771 29.34 42.5271 30.345 42.5271 31.965C42.5271 33.63 43.2771 34.605 44.4171 34.605ZM42.6021 38.625H40.5321V27.93H42.6021V28.965C43.0371 28.2 43.9071 27.75 44.9271 27.75C46.8771 27.75 48.4371 29.43 48.4371 31.965C48.4371 34.545 46.8321 36.195 44.9121 36.195C44.0721 36.195 43.1271 35.88 42.6021 34.98V38.625ZM51.9478 36H49.8778V27.93H51.9028V33.435L55.4578 27.93H57.5278V36H55.5028V30.69L51.9478 36ZM67.9443 37.875H66.0243V36H59.6043V27.93H61.6743V34.365H64.6293V27.93H66.6993V34.455H67.9443V37.875ZM74.0315 32.91V32.31C71.7065 32.55 70.7915 32.82 70.7915 33.72C70.7915 34.305 71.2415 34.785 72.1865 34.785C73.4915 34.785 74.0315 34.095 74.0315 32.91ZM74.2115 34.995C73.6265 35.835 72.7865 36.195 71.5715 36.195C70.0265 36.195 68.6615 35.295 68.6615 33.825C68.6615 31.92 70.7915 31.35 73.9715 30.99V30.855C73.9715 29.61 73.2965 29.175 72.4565 29.175C71.6615 29.175 71.0015 29.58 70.9565 30.48H69.0215C69.1865 28.89 70.4765 27.72 72.5615 27.72C74.4665 27.72 76.0415 28.56 76.0415 31.275C76.0415 31.515 76.0115 32.61 76.0115 33.33C76.0115 34.605 76.0865 35.325 76.2515 36H74.3465C74.2865 35.745 74.2565 35.4 74.2115 34.995ZM79.9409 36H77.8709V27.93H79.9409V31.05H83.3009V27.93H85.3709V36H83.3009V32.685H79.9409V36ZM89.5064 36H87.4364V27.93H89.4614V33.435L93.0164 27.93H95.0864V36H93.0614V30.69L89.5064 36ZM104.543 32.535H98.5879C98.7079 33.915 99.6379 34.59 100.628 34.59C101.273 34.59 101.903 34.365 102.323 33.66H104.453C104.018 34.86 102.848 36.195 100.643 36.195C98.0479 36.195 96.5329 34.26 96.5329 31.935C96.5329 29.535 98.1979 27.75 100.583 27.75C103.073 27.75 104.618 29.685 104.543 32.535ZM100.568 29.265C99.7879 29.265 98.7829 29.745 98.6179 31.11H102.443C102.398 29.745 101.438 29.265 100.568 29.265Z" fill="#0F0F0F"/>
<rect x="211.5" y="144.5" width="37" height="37" rx="2.5" stroke="#1E1E1E"/>
<path d="M222.264 154.6H224.952L229.776 169.48L234.504 154.6H237.072L231.168 172H228.24L222.264 154.6Z" fill="#1E1E1E"/>
<rect x="93" y="144" width="57" height="38" rx="3" fill="#0076DE"/>
<path d="M108.944 168.64L111.512 159.088H113.768L116.336 168.64L118.808 159.088H121.16L117.44 172H115.448L112.592 161.608L109.832 172H107.84L104.12 159.088H106.472L108.944 168.64ZM123.001 159.088H125.185V172H123.001V159.088ZM123.001 154.6H125.185V157.24H123.001V154.6ZM130.834 154.6V172H128.65V154.6H130.834ZM136.482 154.6V172H134.298V154.6H136.482Z" fill="white"/>
<path d="M158.912 159.088V161.032C159.656 159.808 160.904 158.872 163.088 158.872C166.208 158.872 167.336 160.888 167.336 163.84V172H165.152V164.488C165.152 162.496 164.816 160.768 162.32 160.768C160.208 160.768 158.912 162.208 158.912 164.992V172H156.728V159.088H158.912ZM172.091 165.592C172.091 169.048 173.963 170.392 175.955 170.392C177.947 170.392 179.819 168.904 179.819 165.592C179.819 162.136 177.947 160.792 175.955 160.792C173.963 160.792 172.091 162.064 172.091 165.592ZM175.955 158.872C178.955 158.872 182.147 160.912 182.147 165.592C182.147 170.272 178.955 172.312 175.955 172.312C172.955 172.312 169.763 170.272 169.763 165.592C169.763 160.912 172.955 158.872 175.955 158.872ZM185.266 159.088V155.848H187.45V159.088H189.898V160.84H187.45V168.496C187.45 169.84 187.546 170.176 188.794 170.176H189.898V172H188.314C185.842 172 185.266 171.448 185.266 168.76V160.84H183.226V159.088H185.266Z" fill="#1E1E1E"/>
<rect x="268" y="1" width="226" height="293" stroke="#E3E3E3" stroke-width="2"/>
<path d="M291.512 58.6V76H289.064V58.6H291.512ZM287 90.6H289.688L294.44 99.096L299.288 90.6H301.976L295.592 101.256V108H293.144V101.208L287 90.6ZM303.036 101.592C303.036 105.048 304.908 106.392 306.9 106.392C308.892 106.392 310.764 104.904 310.764 101.592C310.764 98.136 308.892 96.792 306.9 96.792C304.908 96.792 303.036 98.064 303.036 101.592ZM306.9 94.872C309.9 94.872 313.092 96.912 313.092 101.592C313.092 106.272 309.9 108.312 306.9 108.312C303.9 108.312 300.708 106.272 300.708 101.592C300.708 96.912 303.9 94.872 306.9 94.872ZM323.697 108V106.152C322.953 107.376 321.777 108.312 319.641 108.312C316.665 108.312 315.513 106.296 315.513 103.344V95.088H317.697V102.696C317.697 104.688 318.009 106.416 320.409 106.416C322.497 106.416 323.697 104.976 323.697 102.192V95.088H325.881V108H323.697ZM299.528 122.6L302.96 137.216L306.176 122.6H308.744L304.4 140H301.424L298.064 125.696L294.776 140H291.8L287.384 122.6H290.072L293.432 137.216L296.648 122.6H299.528ZM321.526 134.264H311.59C311.662 137.048 313.678 138.392 315.574 138.392C317.494 138.392 318.55 137.528 319.102 136.256H321.358C320.782 138.464 318.718 140.312 315.574 140.312C311.494 140.312 309.238 137.384 309.238 133.568C309.238 129.464 311.974 126.872 315.502 126.872C319.462 126.872 321.79 130.16 321.526 134.264ZM315.502 128.744C313.582 128.744 311.806 129.8 311.614 132.392H319.222C319.15 130.568 317.83 128.744 315.502 128.744ZM292.664 172V156.712H287V154.6H300.776V156.712H295.112V172H292.664ZM304.225 154.6V161.032C304.969 159.808 306.217 158.872 308.401 158.872C311.521 158.872 312.648 160.888 312.648 163.84V172H310.465V164.488C310.465 162.496 310.129 160.768 307.633 160.768C305.521 160.768 304.225 162.208 304.225 164.992V172H302.041V154.6H304.225ZM327.316 166.264H317.38C317.452 169.048 319.468 170.392 321.364 170.392C323.284 170.392 324.34 169.528 324.892 168.256H327.148C326.572 170.464 324.508 172.312 321.364 172.312C317.284 172.312 315.028 169.384 315.028 165.568C315.028 161.464 317.764 158.872 321.292 158.872C325.252 158.872 327.58 162.16 327.316 166.264ZM321.292 160.744C319.372 160.744 317.596 161.8 317.404 164.392H325.012C324.94 162.568 323.62 160.744 321.292 160.744ZM336.92 159.088H339.2L334.592 172.552C333.632 175.336 333.008 176.2 330.104 176.2H328.976V174.376H329.864C331.304 174.376 332 174.28 332.576 172.264L332.672 172L328.016 159.088H330.44L333.728 169.048L336.92 159.088ZM300.656 186.6H303.104V204H300.656V196.104H291.512V204H289.064V186.6H291.512V193.992H300.656V186.6ZM318.292 198.264H308.356C308.428 201.048 310.444 202.392 312.34 202.392C314.26 202.392 315.316 201.528 315.868 200.256H318.124C317.548 202.464 315.484 204.312 312.34 204.312C308.26 204.312 306.004 201.384 306.004 197.568C306.004 193.464 308.74 190.872 312.268 190.872C316.228 190.872 318.556 194.16 318.292 198.264ZM312.268 192.744C310.348 192.744 308.572 193.8 308.38 196.392H315.988C315.916 194.568 314.596 192.744 312.268 192.744ZM288.344 223.04C288.344 219.704 291.824 218.288 294.632 218.288C297.776 218.288 300.536 219.704 301.232 223.04H298.856C298.28 221.048 296.264 220.352 294.536 220.352C293.192 220.352 290.84 220.952 290.84 222.896C290.84 224.432 292.04 225.2 293.672 225.56L295.688 226.016C298.352 226.592 301.544 227.6 301.544 231.104C301.544 234.488 298.376 236.312 294.92 236.312C290.816 236.312 288.224 234.056 287.768 230.6H290.168C290.624 233 292.28 234.248 294.968 234.248C297.56 234.248 299.024 233.048 299.024 231.32C299.024 229.472 297.44 228.752 295.28 228.248L293.12 227.792C290.72 227.264 288.344 225.92 288.344 223.04ZM306.287 218.6V225.032C307.031 223.808 308.279 222.872 310.463 222.872C313.583 222.872 314.711 224.888 314.711 227.84V236H312.527V228.488C312.527 226.496 312.191 224.768 309.695 224.768C307.583 224.768 306.287 226.208 306.287 228.992V236H304.103V218.6H306.287ZM329.378 230.264H319.442C319.514 233.048 321.53 234.392 323.426 234.392C325.346 234.392 326.402 233.528 326.954 232.256H329.21C328.634 234.464 326.57 236.312 323.426 236.312C319.346 236.312 317.09 233.384 317.09 229.568C317.09 225.464 319.826 222.872 323.354 222.872C327.314 222.872 329.642 226.16 329.378 230.264ZM323.354 224.744C321.434 224.744 319.658 225.8 319.466 228.392H327.074C327.002 226.568 325.682 224.744 323.354 224.744ZM291.512 250.6V268H289.064V250.6H291.512ZM295.938 255.088V251.848H298.122V255.088H300.57V256.84H298.122V264.496C298.122 265.84 298.218 266.176 299.466 266.176H300.57V268H298.986C296.514 268 295.938 267.448 295.938 264.76V256.84H293.898V255.088H295.938Z" fill="#1E1E1E"/>
<path d="M289.85 36.195H288.575V34.455H289.685C290.27 34.455 290.585 34.335 290.885 33.87L291.05 33.615L287.075 25.125H289.415L292.145 31.395L294.59 25.125H296.945L293.075 33.93C292.475 35.31 291.65 36.195 289.85 36.195ZM301.119 36H299.049V29.565H296.424V27.93H303.744V29.565H301.119V36ZM309.153 36H304.998V27.93H308.973C310.698 27.93 312.063 28.35 312.063 30.03C312.063 30.825 311.718 31.38 311.043 31.695C311.823 31.95 312.393 32.52 312.393 33.54C312.393 35.31 311.028 36 309.153 36ZM307.068 32.535V34.38H308.943C309.903 34.38 310.383 34.065 310.383 33.45C310.383 32.805 309.888 32.535 308.928 32.535H307.068ZM307.068 29.55V31.185H308.823C309.603 31.185 310.068 30.93 310.068 30.33C310.068 29.715 309.603 29.55 308.808 29.55H307.068ZM321.401 32.535H315.446C315.566 33.915 316.496 34.59 317.486 34.59C318.131 34.59 318.761 34.365 319.181 33.66H321.311C320.876 34.86 319.706 36.195 317.501 36.195C314.906 36.195 313.391 34.26 313.391 31.935C313.391 29.535 315.056 27.75 317.441 27.75C319.931 27.75 321.476 29.685 321.401 32.535ZM317.426 29.265C316.646 29.265 315.641 29.745 315.476 31.11H319.301C319.256 29.745 318.296 29.265 317.426 29.265ZM326.725 34.605C327.805 34.605 328.57 33.555 328.57 31.98C328.57 30.405 327.805 29.34 326.725 29.34C325.585 29.34 324.835 30.345 324.835 31.965C324.835 33.63 325.585 34.605 326.725 34.605ZM324.91 38.625H322.84V27.93H324.91V28.965C325.345 28.2 326.215 27.75 327.235 27.75C329.185 27.75 330.745 29.43 330.745 31.965C330.745 34.545 329.14 36.195 327.22 36.195C326.38 36.195 325.435 35.88 324.91 34.98V38.625ZM333.273 36H330.888L333.858 31.74L331.098 27.93H333.408L335.988 31.71H336.003V27.93H338.073V31.71H338.088L340.698 27.93H343.083L340.263 31.74L343.233 36H340.803L338.088 31.905H338.073V36H336.003V31.905H335.988L333.273 36ZM345.454 37.875H343.534V34.365H343.984C344.764 34.365 345.154 33.69 345.319 30.33L345.424 27.93H351.619V34.365H352.864V37.875H350.944V36H345.454V37.875ZM346.399 34.365H349.549V29.565H347.284L347.194 31.035C347.074 32.715 346.969 33.465 346.399 34.365ZM361.465 32.535H355.51C355.63 33.915 356.56 34.59 357.55 34.59C358.195 34.59 358.825 34.365 359.245 33.66H361.375C360.94 34.86 359.77 36.195 357.565 36.195C354.97 36.195 353.455 34.26 353.455 31.935C353.455 29.535 355.12 27.75 357.505 27.75C359.995 27.75 361.54 29.685 361.465 32.535ZM357.49 29.265C356.71 29.265 355.705 29.745 355.54 31.11H359.365C359.32 29.745 358.36 29.265 357.49 29.265ZM364.973 36H362.903V27.93H364.973V31.05H368.333V27.93H370.403V36H368.333V32.685H364.973V36ZM374.539 36H372.469V27.93H374.494V33.435L378.049 27.93H380.119V36H378.094V30.69L374.539 36ZM389.575 32.535H383.62C383.74 33.915 384.67 34.59 385.66 34.59C386.305 34.59 386.935 34.365 387.355 33.66H389.485C389.05 34.86 387.88 36.195 385.675 36.195C383.08 36.195 381.565 34.26 381.565 31.935C381.565 29.535 383.23 27.75 385.615 27.75C388.105 27.75 389.65 29.685 389.575 32.535ZM385.6 29.265C384.82 29.265 383.815 29.745 383.65 31.11H387.475C387.43 29.745 386.47 29.265 385.6 29.265Z" fill="#0F0F0F"/>
<rect x="437.5" y="144.5" width="37" height="37" rx="2.5" stroke="#1E1E1E"/>
<path d="M448.264 154.6H450.952L455.776 169.48L460.504 154.6H463.072L457.168 172H454.24L448.264 154.6Z" fill="#1E1E1E"/>
<rect x="360" y="144" width="57" height="38" rx="3" fill="#0076DE"/>
<path d="M375.944 168.64L378.512 159.088H380.768L383.336 168.64L385.808 159.088H388.16L384.44 172H382.448L379.592 161.608L376.832 172H374.84L371.12 159.088H373.472L375.944 168.64ZM390.001 159.088H392.185V172H390.001V159.088ZM390.001 154.6H392.185V157.24H390.001V154.6ZM397.834 154.6V172H395.65V154.6H397.834ZM403.482 154.6V172H401.298V154.6H403.482Z" fill="white"/>
<path d="M494 1H710C714.971 1 719 5.02944 719 10V285C719 289.971 714.971 294 710 294H494V1Z" stroke="#E3E3E3" stroke-width="2"/>
<path d="M599.512 58.6V76H597.064V58.6H599.512ZM603.904 95.088H606.184L601.576 108.552C600.616 111.336 599.992 112.2 597.088 112.2H595.96V110.376H596.848C598.288 110.376 598.984 110.28 599.56 108.264L599.656 108L595 95.088H597.424L600.712 105.048L603.904 95.088ZM609.161 101.592C609.161 105.048 611.033 106.392 613.025 106.392C615.017 106.392 616.889 104.904 616.889 101.592C616.889 98.136 615.017 96.792 613.025 96.792C611.033 96.792 609.161 98.064 609.161 101.592ZM613.025 94.872C616.025 94.872 619.217 96.912 619.217 101.592C619.217 106.272 616.025 108.312 613.025 108.312C610.025 108.312 606.833 106.272 606.833 101.592C606.833 96.912 610.025 94.872 613.025 94.872ZM629.822 108V106.152C629.078 107.376 627.902 108.312 625.766 108.312C622.79 108.312 621.638 106.296 621.638 103.344V95.088H623.822V102.696C623.822 104.688 624.134 106.416 626.534 106.416C628.622 106.416 629.822 104.976 629.822 102.192V95.088H632.006V108H629.822ZM599.944 136.64L602.512 127.088H604.768L607.336 136.64L609.808 127.088H612.16L608.44 140H606.448L603.592 129.608L600.832 140H598.84L595.12 127.088H597.472L599.944 136.64ZM625.284 134.264H615.348C615.42 137.048 617.436 138.392 619.332 138.392C621.252 138.392 622.308 137.528 622.86 136.256H625.116C624.54 138.464 622.476 140.312 619.332 140.312C615.252 140.312 612.996 137.384 612.996 133.568C612.996 129.464 615.732 126.872 619.26 126.872C623.22 126.872 625.548 130.16 625.284 134.264ZM619.26 128.744C617.34 128.744 615.564 129.8 615.372 132.392H622.98C622.908 130.568 621.588 128.744 619.26 128.744ZM597.352 159.088V155.848H599.536V159.088H601.984V160.84H599.536V168.496C599.536 169.84 599.632 170.176 600.88 170.176H601.984V172H600.4C597.928 172 597.352 171.448 597.352 168.76V160.84H595.312V159.088H597.352ZM606.951 154.6V161.032C607.695 159.808 608.943 158.872 611.127 158.872C614.247 158.872 615.375 160.888 615.375 163.84V172H613.191V164.488C613.191 162.496 612.855 160.768 610.359 160.768C608.247 160.768 606.951 162.208 606.951 164.992V172H604.767V154.6H606.951ZM630.042 166.264H620.106C620.178 169.048 622.194 170.392 624.09 170.392C626.01 170.392 627.066 169.528 627.618 168.256H629.874C629.298 170.464 627.234 172.312 624.09 172.312C620.01 172.312 617.754 169.384 617.754 165.568C617.754 161.464 620.49 158.872 624.018 158.872C627.978 158.872 630.306 162.16 630.042 166.264ZM624.018 160.744C622.098 160.744 620.322 161.8 620.13 164.392H627.738C627.666 162.568 626.346 160.744 624.018 160.744ZM639.646 159.088H641.926L637.318 172.552C636.358 175.336 635.734 176.2 632.83 176.2H631.702V174.376H632.59C634.03 174.376 634.726 174.28 635.302 172.264L635.398 172L630.742 159.088H633.166L636.454 169.048L639.646 159.088ZM598.912 186.6V193.032C599.656 191.808 600.904 190.872 603.088 190.872C606.208 190.872 607.336 192.888 607.336 195.84V204H605.152V196.488C605.152 194.496 604.816 192.768 602.32 192.768C600.208 192.768 598.912 194.208 598.912 196.992V204H596.728V186.6H598.912ZM622.003 198.264H612.067C612.139 201.048 614.155 202.392 616.051 202.392C617.971 202.392 619.027 201.528 619.579 200.256H621.835C621.259 202.464 619.195 204.312 616.051 204.312C611.971 204.312 609.715 201.384 609.715 197.568C609.715 193.464 612.451 190.872 615.979 190.872C619.939 190.872 622.267 194.16 622.003 198.264ZM615.979 192.744C614.059 192.744 612.283 193.8 612.091 196.392H619.699C619.627 194.568 618.307 192.744 615.979 192.744ZM606.4 226.856H604.12C603.76 225.32 602.608 224.72 601.072 224.72C599.8 224.72 598.36 225.176 598.36 226.352C598.36 227.384 599.08 227.84 600.328 228.104L602.152 228.464C604.504 228.896 606.568 229.832 606.568 232.304C606.568 234.872 604.264 236.312 601.312 236.312C597.928 236.312 596.032 234.08 595.768 231.824H598.072C598.432 233.48 599.44 234.464 601.36 234.464C603.016 234.464 604.36 233.768 604.36 232.544C604.36 231.224 603.136 230.72 601.744 230.408L599.824 230.024C598.072 229.64 596.152 228.872 596.152 226.448C596.152 224.168 598.456 222.848 601.312 222.848C604.12 222.848 605.992 224.384 606.4 226.856ZM611.521 218.6V225.032C612.265 223.808 613.513 222.872 615.697 222.872C618.817 222.872 619.945 224.888 619.945 227.84V236H617.761V228.488C617.761 226.496 617.425 224.768 614.929 224.768C612.817 224.768 611.521 226.208 611.521 228.992V236H609.337V218.6H611.521ZM634.612 230.264H624.676C624.748 233.048 626.764 234.392 628.66 234.392C630.58 234.392 631.636 233.528 632.188 232.256H634.444C633.868 234.464 631.804 236.312 628.66 236.312C624.58 236.312 622.324 233.384 622.324 229.568C622.324 225.464 625.06 222.872 628.588 222.872C632.548 222.872 634.876 226.16 634.612 230.264ZM628.588 224.744C626.668 224.744 624.892 225.8 624.7 228.392H632.308C632.236 226.568 630.916 224.744 628.588 224.744ZM596.728 255.088H598.912V268H596.728V255.088ZM596.728 250.6H598.912V253.24H596.728V250.6ZM603 255.088V251.848H605.184V255.088H607.632V256.84H605.184V264.496C605.184 265.84 605.28 266.176 606.528 266.176H607.632V268H606.048C603.576 268 603 267.448 603 264.76V256.84H600.96V255.088H603Z" fill="#1E1E1E"/>
<path d="M514.155 36V25.125H518.385C520.29 25.125 522.345 25.725 522.345 27.96C522.345 28.98 521.67 29.895 521.115 30.255C521.955 30.66 522.735 31.29 522.735 32.79C522.735 35.13 520.8 36 518.565 36H514.155ZM516.3 31.23V34.32H518.67C519.93 34.32 520.545 33.795 520.545 32.79C520.545 31.77 519.915 31.23 518.58 31.23H516.3ZM516.3 26.805V29.61H518.52C519.54 29.61 520.14 29.13 520.14 28.17C520.14 27.315 519.525 26.805 518.52 26.805H516.3ZM527.855 29.37C526.715 29.37 525.905 30.285 525.905 31.98C525.905 33.675 526.715 34.575 527.855 34.575C528.995 34.575 529.805 33.675 529.805 31.98C529.805 30.285 528.995 29.37 527.855 29.37ZM527.855 36.195C525.815 36.195 523.805 34.8 523.805 31.98C523.805 29.145 525.815 27.75 527.855 27.75C529.895 27.75 531.905 29.145 531.905 31.98C531.905 34.8 529.895 36.195 527.855 36.195ZM535.397 36H533.327V27.93H540.542V36H538.472V29.565H535.397V36ZM546.499 34.605C547.579 34.605 548.344 33.555 548.344 31.98C548.344 30.405 547.579 29.34 546.499 29.34C545.359 29.34 544.609 30.345 544.609 31.965C544.609 33.63 545.359 34.605 546.499 34.605ZM544.684 38.625H542.614V27.93H544.684V28.965C545.119 28.2 545.989 27.75 547.009 27.75C548.959 27.75 550.519 29.43 550.519 31.965C550.519 34.545 548.914 36.195 546.994 36.195C546.154 36.195 545.209 35.88 544.684 34.98V38.625ZM555.482 29.37C554.342 29.37 553.532 30.285 553.532 31.98C553.532 33.675 554.342 34.575 555.482 34.575C556.622 34.575 557.432 33.675 557.432 31.98C557.432 30.285 556.622 29.37 555.482 29.37ZM555.482 36.195C553.442 36.195 551.432 34.8 551.432 31.98C551.432 29.145 553.442 27.75 555.482 27.75C557.522 27.75 559.532 29.145 559.532 31.98C559.532 34.8 557.522 36.195 555.482 36.195ZM564.491 27.75C566.186 27.75 567.866 28.695 568.151 30.69H566.171C566.006 29.91 565.286 29.355 564.491 29.355C563.411 29.355 562.556 30.27 562.556 31.95C562.556 33.645 563.366 34.59 564.506 34.59C565.226 34.59 565.961 34.215 566.246 33.255H568.226C567.746 35.46 566.081 36.195 564.401 36.195C561.986 36.195 560.441 34.425 560.441 31.98C560.441 29.52 562.076 27.75 564.491 27.75Z" fill="#0F0F0F"/>
<rect x="662.5" y="144.5" width="37" height="37" rx="2.5" stroke="#1E1E1E"/>
<path d="M673.264 154.6H675.952L680.776 169.48L685.504 154.6H688.072L682.168 172H679.24L673.264 154.6Z" fill="#1E1E1E"/>
<rect x="513" y="144" width="62" height="38" rx="3" fill="#0076DE"/>
<path d="M536.528 154.6L539.96 169.216L543.176 154.6H545.744L541.4 172H538.424L535.064 157.696L531.776 172H528.8L524.384 154.6H527.072L530.432 169.216L533.648 154.6H536.528ZM547.853 159.088H550.037V172H547.853V159.088ZM547.853 154.6H550.037V157.24H547.853V154.6ZM555.685 154.6V172H553.501V154.6H555.685ZM561.334 154.6V172H559.15V154.6H561.334Z" fill="white"/>
</svg>
