<svg width="227" height="295" viewBox="0 0 227 295" fill="none" xmlns="http://www.w3.org/2000/svg">
<rect x="1" y="1" width="225" height="293" rx="9" stroke="#E3E3E3" stroke-width="2"/>
<path d="M106.512 58.6V76H104.064V58.6H106.512ZM110.904 95.088H113.184L108.576 108.552C107.616 111.336 106.992 112.2 104.088 112.2H102.96V110.376H103.848C105.288 110.376 105.984 110.28 106.56 108.264L106.656 108L102 95.088H104.424L107.712 105.048L110.904 95.088ZM116.161 101.592C116.161 105.048 118.033 106.392 120.025 106.392C122.017 106.392 123.889 104.904 123.889 101.592C123.889 98.136 122.017 96.792 120.025 96.792C118.033 96.792 116.161 98.064 116.161 101.592ZM120.025 94.872C123.025 94.872 126.217 96.912 126.217 101.592C126.217 106.272 123.025 108.312 120.025 108.312C117.025 108.312 113.833 106.272 113.833 101.592C113.833 96.912 117.025 94.872 120.025 94.872ZM136.822 108V106.152C136.078 107.376 134.902 108.312 132.766 108.312C129.79 108.312 128.638 106.296 128.638 103.344V95.088H130.822V102.696C130.822 104.688 131.134 106.416 133.534 106.416C135.622 106.416 136.822 104.976 136.822 102.192V95.088H139.006V108H136.822ZM106.944 136.64L109.512 127.088H111.768L114.336 136.64L116.808 127.088H119.16L115.44 140H113.448L110.592 129.608L107.832 140H105.84L102.12 127.088H104.472L106.944 136.64ZM132.284 134.264H122.348C122.42 137.048 124.436 138.392 126.332 138.392C128.252 138.392 129.308 137.528 129.86 136.256H132.116C131.54 138.464 129.476 140.312 126.332 140.312C122.252 140.312 119.996 137.384 119.996 133.568C119.996 129.464 122.732 126.872 126.26 126.872C130.22 126.872 132.548 130.16 132.284 134.264ZM126.26 128.744C124.34 128.744 122.564 129.8 122.372 132.392H129.98C129.908 130.568 128.588 128.744 126.26 128.744ZM104.352 159.088V155.848H106.536V159.088H108.984V160.84H106.536V168.496C106.536 169.84 106.632 170.176 107.88 170.176H108.984V172H107.4C104.928 172 104.352 171.448 104.352 168.76V160.84H102.312V159.088H104.352ZM113.951 154.6V161.032C114.695 159.808 115.943 158.872 118.127 158.872C121.247 158.872 122.375 160.888 122.375 163.84V172H120.191V164.488C120.191 162.496 119.855 160.768 117.359 160.768C115.247 160.768 113.951 162.208 113.951 164.992V172H111.767V154.6H113.951ZM137.042 166.264H127.106C127.178 169.048 129.194 170.392 131.09 170.392C133.01 170.392 134.066 169.528 134.618 168.256H136.874C136.298 170.464 134.234 172.312 131.09 172.312C127.01 172.312 124.754 169.384 124.754 165.568C124.754 161.464 127.49 158.872 131.018 158.872C134.978 158.872 137.306 162.16 137.042 166.264ZM131.018 160.744C129.098 160.744 127.322 161.8 127.13 164.392H134.738C134.666 162.568 133.346 160.744 131.018 160.744ZM146.646 159.088H148.926L144.318 172.552C143.358 175.336 142.734 176.2 139.83 176.2H138.702V174.376H139.59C141.03 174.376 141.726 174.28 142.302 172.264L142.398 172L137.742 159.088H140.166L143.454 169.048L146.646 159.088ZM105.912 186.6V193.032C106.656 191.808 107.904 190.872 110.088 190.872C113.208 190.872 114.336 192.888 114.336 195.84V204H112.152V196.488C112.152 194.496 111.816 192.768 109.32 192.768C107.208 192.768 105.912 194.208 105.912 196.992V204H103.728V186.6H105.912ZM129.003 198.264H119.067C119.139 201.048 121.155 202.392 123.051 202.392C124.971 202.392 126.027 201.528 126.579 200.256H128.835C128.259 202.464 126.195 204.312 123.051 204.312C118.971 204.312 116.715 201.384 116.715 197.568C116.715 193.464 119.451 190.872 122.979 190.872C126.939 190.872 129.267 194.16 129.003 198.264ZM122.979 192.744C121.059 192.744 119.283 193.8 119.091 196.392H126.699C126.627 194.568 125.307 192.744 122.979 192.744ZM113.4 226.856H111.12C110.76 225.32 109.608 224.72 108.072 224.72C106.8 224.72 105.36 225.176 105.36 226.352C105.36 227.384 106.08 227.84 107.328 228.104L109.152 228.464C111.504 228.896 113.568 229.832 113.568 232.304C113.568 234.872 111.264 236.312 108.312 236.312C104.928 236.312 103.032 234.08 102.768 231.824H105.072C105.432 233.48 106.44 234.464 108.36 234.464C110.016 234.464 111.36 233.768 111.36 232.544C111.36 231.224 110.136 230.72 108.744 230.408L106.824 230.024C105.072 229.64 103.152 228.872 103.152 226.448C103.152 224.168 105.456 222.848 108.312 222.848C111.12 222.848 112.992 224.384 113.4 226.856ZM118.521 218.6V225.032C119.265 223.808 120.513 222.872 122.697 222.872C125.817 222.872 126.945 224.888 126.945 227.84V236H124.761V228.488C124.761 226.496 124.425 224.768 121.929 224.768C119.817 224.768 118.521 226.208 118.521 228.992V236H116.337V218.6H118.521ZM141.612 230.264H131.676C131.748 233.048 133.764 234.392 135.66 234.392C137.58 234.392 138.636 233.528 139.188 232.256H141.444C140.868 234.464 138.804 236.312 135.66 236.312C131.58 236.312 129.324 233.384 129.324 229.568C129.324 225.464 132.06 222.872 135.588 222.872C139.548 222.872 141.876 226.16 141.612 230.264ZM135.588 224.744C133.668 224.744 131.892 225.8 131.7 228.392H139.308C139.236 226.568 137.916 224.744 135.588 224.744ZM103.728 255.088H105.912V268H103.728V255.088ZM103.728 250.6H105.912V253.24H103.728V250.6ZM110 255.088V251.848H112.184V255.088H114.632V256.84H112.184V264.496C112.184 265.84 112.28 266.176 113.528 266.176H114.632V268H113.048C110.576 268 110 267.448 110 264.76V256.84H107.96V255.088H110Z" fill="#1E1E1E"/>
<path d="M21.155 36V25.125H25.385C27.29 25.125 29.345 25.725 29.345 27.96C29.345 28.98 28.67 29.895 28.115 30.255C28.955 30.66 29.735 31.29 29.735 32.79C29.735 35.13 27.8 36 25.565 36H21.155ZM23.3 31.23V34.32H25.67C26.93 34.32 27.545 33.795 27.545 32.79C27.545 31.77 26.915 31.23 25.58 31.23H23.3ZM23.3 26.805V29.61H25.52C26.54 29.61 27.14 29.13 27.14 28.17C27.14 27.315 26.525 26.805 25.52 26.805H23.3ZM34.855 29.37C33.715 29.37 32.905 30.285 32.905 31.98C32.905 33.675 33.715 34.575 34.855 34.575C35.995 34.575 36.805 33.675 36.805 31.98C36.805 30.285 35.995 29.37 34.855 29.37ZM34.855 36.195C32.815 36.195 30.805 34.8 30.805 31.98C30.805 29.145 32.815 27.75 34.855 27.75C36.895 27.75 38.905 29.145 38.905 31.98C38.905 34.8 36.895 36.195 34.855 36.195ZM42.397 36H40.327V27.93H47.542V36H45.472V29.565H42.397V36ZM53.4991 34.605C54.5791 34.605 55.3441 33.555 55.3441 31.98C55.3441 30.405 54.5791 29.34 53.4991 29.34C52.3591 29.34 51.6091 30.345 51.6091 31.965C51.6091 33.63 52.3591 34.605 53.4991 34.605ZM51.6841 38.625H49.6141V27.93H51.6841V28.965C52.1191 28.2 52.9891 27.75 54.0091 27.75C55.9591 27.75 57.5191 29.43 57.5191 31.965C57.5191 34.545 55.9141 36.195 53.9941 36.195C53.1541 36.195 52.2091 35.88 51.6841 34.98V38.625ZM62.482 29.37C61.342 29.37 60.532 30.285 60.532 31.98C60.532 33.675 61.342 34.575 62.482 34.575C63.622 34.575 64.432 33.675 64.432 31.98C64.432 30.285 63.622 29.37 62.482 29.37ZM62.482 36.195C60.442 36.195 58.432 34.8 58.432 31.98C58.432 29.145 60.442 27.75 62.482 27.75C64.522 27.75 66.532 29.145 66.532 31.98C66.532 34.8 64.522 36.195 62.482 36.195ZM71.4911 27.75C73.1861 27.75 74.8661 28.695 75.1511 30.69H73.1711C73.0061 29.91 72.2861 29.355 71.4911 29.355C70.4111 29.355 69.5561 30.27 69.5561 31.95C69.5561 33.645 70.3661 34.59 71.5061 34.59C72.2261 34.59 72.9611 34.215 73.2461 33.255H75.2261C74.7461 35.46 73.0811 36.195 71.4011 36.195C68.9861 36.195 67.4411 34.425 67.4411 31.98C67.4411 29.52 69.0761 27.75 71.4911 27.75Z" fill="#0F0F0F"/>
<rect x="169.5" y="144.5" width="37" height="37" rx="2.5" stroke="#1E1E1E"/>
<path d="M180.264 154.6H182.952L187.776 169.48L192.504 154.6H195.072L189.168 172H186.24L180.264 154.6Z" fill="#1E1E1E"/>
<rect x="20" y="144" width="62" height="38" rx="3" fill="#0076DE"/>
<path d="M43.528 154.6L46.96 169.216L50.176 154.6H52.744L48.4 172H45.424L42.064 157.696L38.776 172H35.8L31.384 154.6H34.072L37.432 169.216L40.648 154.6H43.528ZM54.853 159.088H57.037V172H54.853V159.088ZM54.853 154.6H57.037V157.24H54.853V154.6ZM62.6854 154.6V172H60.5014V154.6H62.6854ZM68.3339 154.6V172H66.1499V154.6H68.3339Z" fill="white"/>
</svg>
