<svg width="495" height="69" viewBox="0 0 495 69" fill="none" xmlns="http://www.w3.org/2000/svg">
	<rect x="0.5" y="32.5" width="107" height="36" rx="18" stroke="#1E1E1E"/>
	<rect x="257.5" y="32.5" width="68" height="36" rx="18" stroke="#1E1E1E"/>
	<rect x="184" y="32" width="68" height="37" rx="18.5" fill="#1E1E1E"/>
	<rect x="113" y="32" width="66" height="37" rx="18.5" fill="#0076DE"/>
	<rect x="331.5" y="32.5" width="151" height="36" rx="18" stroke="#1E1E1E"/>
	<path
		d="M27.4 59H24.7L19.7 43.2V59H17.15V40.875H21.425L26.05 55.975L30.675 40.875H34.95V59H32.4V43.2L27.4 59ZM47.3697 53.375V52.525C43.2447 52.925 40.6197 53.55 40.6197 55.4C40.6197 56.675 41.5947 57.525 43.2197 57.525C45.3447 57.525 47.3697 56.55 47.3697 53.375ZM42.7197 59.325C40.1947 59.325 38.0947 57.925 38.0947 55.45C38.0947 52.275 41.6947 51.325 47.1947 50.725V50.4C47.1947 47.925 45.8447 47.125 44.1447 47.125C42.2447 47.125 41.1697 48.125 41.0697 49.8H38.7197C38.9197 46.9 41.5197 45.275 44.1197 45.275C47.8447 45.275 49.4947 47.025 49.4697 50.825L49.4447 53.925C49.4197 56.2 49.5197 57.725 49.7947 59H47.4947C47.4197 58.5 47.3447 57.95 47.3197 57.15C46.4947 58.55 45.1197 59.325 42.7197 59.325ZM62.9346 49.475H60.5596C60.1846 47.875 58.9846 47.25 57.3846 47.25C56.0596 47.25 54.5596 47.725 54.5596 48.95C54.5596 50.025 55.3096 50.5 56.6096 50.775L58.5096 51.15C60.9596 51.6 63.1096 52.575 63.1096 55.15C63.1096 57.825 60.7096 59.325 57.6346 59.325C54.1096 59.325 52.1346 57 51.8596 54.65H54.2596C54.6346 56.375 55.6846 57.4 57.6846 57.4C59.4096 57.4 60.8096 56.675 60.8096 55.4C60.8096 54.025 59.5346 53.5 58.0846 53.175L56.0846 52.775C54.2596 52.375 52.2596 51.575 52.2596 49.05C52.2596 46.675 54.6596 45.3 57.6346 45.3C60.5596 45.3 62.5096 46.9 62.9346 49.475ZM68.2693 40.875V47.575C69.0443 46.3 70.3443 45.325 72.6193 45.325C75.8693 45.325 77.0443 47.425 77.0443 50.5V59H74.7693V51.175C74.7693 49.1 74.4193 47.3 71.8193 47.3C69.6193 47.3 68.2693 48.8 68.2693 51.7V59H65.9943V40.875H68.2693ZM88.9225 53.375V52.525C84.7975 52.925 82.1725 53.55 82.1725 55.4C82.1725 56.675 83.1475 57.525 84.7725 57.525C86.8975 57.525 88.9225 56.55 88.9225 53.375ZM84.2725 59.325C81.7475 59.325 79.6475 57.925 79.6475 55.45C79.6475 52.275 83.2475 51.325 88.7475 50.725V50.4C88.7475 47.925 87.3975 47.125 85.6975 47.125C83.7975 47.125 82.7225 48.125 82.6225 49.8H80.2725C80.4725 46.9 83.0725 45.275 85.6725 45.275C89.3975 45.275 91.0475 47.025 91.0225 50.825L90.9975 53.925C90.9725 56.2 91.0725 57.725 91.3475 59H89.0475C88.9725 58.5 88.8975 57.95 88.8725 57.15C88.0475 58.55 86.6725 59.325 84.2725 59.325Z"
		fill="black"/>
	<path
		d="M276.075 40.875V59H273.8V40.875H276.075ZM279.684 45.55H281.959V59H279.684V45.55ZM279.684 40.875H281.959V43.625H279.684V40.875ZM285.568 40.875H287.843V51.6L293.268 45.55H296.068L290.943 51.125L296.768 59H293.993L289.418 52.8L287.843 54.5V59H285.568V40.875ZM309.698 53.025H299.348C299.423 55.925 301.523 57.325 303.498 57.325C305.498 57.325 306.598 56.425 307.173 55.1H309.523C308.923 57.4 306.773 59.325 303.498 59.325C299.248 59.325 296.898 56.275 296.898 52.3C296.898 48.025 299.748 45.325 303.423 45.325C307.548 45.325 309.973 48.75 309.698 53.025ZM303.423 47.275C301.423 47.275 299.573 48.375 299.373 51.075H307.298C307.223 49.175 305.848 47.275 303.423 47.275Z"
		fill="black"/>
	<path
		d="M203.075 45.55V47.575C203.85 46.3 205.15 45.325 207.425 45.325C210.675 45.325 211.85 47.425 211.85 50.5V59H209.575V51.175C209.575 49.1 209.225 47.3 206.625 47.3C204.425 47.3 203.075 48.8 203.075 51.7V59H200.8V45.55H203.075ZM216.803 52.325C216.803 55.925 218.753 57.325 220.828 57.325C222.903 57.325 224.853 55.775 224.853 52.325C224.853 48.725 222.903 47.325 220.828 47.325C218.753 47.325 216.803 48.65 216.803 52.325ZM220.828 45.325C223.953 45.325 227.278 47.45 227.278 52.325C227.278 57.2 223.953 59.325 220.828 59.325C217.703 59.325 214.378 57.2 214.378 52.325C214.378 47.45 217.703 45.325 220.828 45.325ZM230.527 45.55V42.175H232.802V45.55H235.352V47.375H232.802V55.35C232.802 56.75 232.902 57.1 234.202 57.1H235.352V59H233.702C231.127 59 230.527 58.425 230.527 55.625V47.375H228.402V45.55H230.527Z"
		fill="white"/>
	<path
		d="M133.15 55.5L135.825 45.55H138.175L140.85 55.5L143.425 45.55H145.875L142 59H139.925L136.95 48.175L134.075 59H132L128.125 45.55H130.575L133.15 55.5ZM147.793 45.55H150.068V59H147.793V45.55ZM147.793 40.875H150.068V43.625H147.793V40.875ZM155.952 40.875V59H153.677V40.875H155.952ZM161.836 40.875V59H159.561V40.875H161.836Z"
		fill="white"/>
	<path
		d="M350.075 51.7V59H347.8V45.55H350.075V47.575C350.85 46.3 352.1 45.325 354.125 45.325C356.2 45.325 357.4 46.2 358 47.7C359.075 46.025 360.625 45.325 362.525 45.325C365.65 45.325 366.875 47.425 366.875 50.5V59H364.6V51.175C364.6 49.1 364.2 47.3 361.725 47.3C359.75 47.3 358.475 48.8 358.475 51.7V59H356.2V51.175C356.2 49.1 355.8 47.3 353.325 47.3C351.35 47.3 350.075 48.8 350.075 51.7ZM371.835 52.325C371.835 55.925 373.785 57.325 375.86 57.325C377.935 57.325 379.885 55.775 379.885 52.325C379.885 48.725 377.935 47.325 375.86 47.325C373.785 47.325 371.835 48.65 371.835 52.325ZM375.86 45.325C378.985 45.325 382.31 47.45 382.31 52.325C382.31 57.2 378.985 59.325 375.86 59.325C372.735 59.325 369.41 57.2 369.41 52.325C369.41 47.45 372.735 45.325 375.86 45.325ZM393.356 59V57.075C392.581 58.35 391.356 59.325 389.131 59.325C386.031 59.325 384.831 57.225 384.831 54.15V45.55H387.106V53.475C387.106 55.55 387.431 57.35 389.931 57.35C392.106 57.35 393.356 55.85 393.356 52.95V45.55H395.631V59H393.356ZM401.515 45.55V47.575C402.29 46.3 403.59 45.325 405.865 45.325C409.115 45.325 410.29 47.425 410.29 50.5V59H408.015V51.175C408.015 49.1 407.665 47.3 405.065 47.3C402.865 47.3 401.515 48.8 401.515 51.7V59H399.24V45.55H401.515ZM414.344 45.55V42.175H416.619V45.55H419.169V47.375H416.619V55.35C416.619 56.75 416.719 57.1 418.019 57.1H419.169V59H417.519C414.944 59 414.344 58.425 414.344 55.625V47.375H412.219V45.55H414.344ZM430.298 53.375V52.525C426.173 52.925 423.548 53.55 423.548 55.4C423.548 56.675 424.523 57.525 426.148 57.525C428.273 57.525 430.298 56.55 430.298 53.375ZM425.648 59.325C423.123 59.325 421.023 57.925 421.023 55.45C421.023 52.275 424.623 51.325 430.123 50.725V50.4C430.123 47.925 428.773 47.125 427.073 47.125C425.173 47.125 424.098 48.125 423.998 49.8H421.648C421.848 46.9 424.448 45.275 427.048 45.275C430.773 45.275 432.423 47.025 432.398 50.825L432.373 53.925C432.348 56.2 432.448 57.725 432.723 59H430.423C430.348 58.5 430.273 57.95 430.248 57.15C429.423 58.55 428.048 59.325 425.648 59.325ZM435.788 45.55H438.063V59H435.788V45.55ZM435.788 40.875H438.063V43.625H435.788V40.875ZM443.947 45.55V47.575C444.722 46.3 446.022 45.325 448.297 45.325C451.547 45.325 452.722 47.425 452.722 50.5V59H450.447V51.175C450.447 49.1 450.097 47.3 447.497 47.3C445.297 47.3 443.947 48.8 443.947 51.7V59H441.672V45.55H443.947ZM466.2 49.475H463.825C463.45 47.875 462.25 47.25 460.65 47.25C459.325 47.25 457.825 47.725 457.825 48.95C457.825 50.025 458.575 50.5 459.875 50.775L461.775 51.15C464.225 51.6 466.375 52.575 466.375 55.15C466.375 57.825 463.975 59.325 460.9 59.325C457.375 59.325 455.4 57 455.125 54.65H457.525C457.9 56.375 458.95 57.4 460.95 57.4C462.675 57.4 464.075 56.675 464.075 55.4C464.075 54.025 462.8 53.5 461.35 53.175L459.35 52.775C457.525 52.375 455.525 51.575 455.525 49.05C455.525 46.675 457.925 45.3 460.9 45.3C463.825 45.3 465.775 46.9 466.2 49.475Z"
		fill="black"/>
	<path d="M492.5 59H489.625V56.125H492.5V59Z" fill="black"/>
	<path
		d="M7.084 16H5.572L2.772 7.152V16H1.344V5.85H3.738L6.328 14.306L8.918 5.85H11.312V16H9.884V7.152L7.084 16ZM18.4142 12.85V12.374C16.1042 12.598 14.6342 12.948 14.6342 13.984C14.6342 14.698 15.1802 15.174 16.0902 15.174C17.2802 15.174 18.4142 14.628 18.4142 12.85ZM15.8102 16.182C14.3962 16.182 13.2202 15.398 13.2202 14.012C13.2202 12.234 15.2362 11.702 18.3162 11.366V11.184C18.3162 9.798 17.5602 9.35 16.6082 9.35C15.5442 9.35 14.9422 9.91 14.8862 10.848H13.5702C13.6822 9.224 15.1382 8.314 16.5942 8.314C18.6802 8.314 19.6042 9.294 19.5902 11.422L19.5762 13.158C19.5622 14.432 19.6182 15.286 19.7722 16H18.4842C18.4422 15.72 18.4002 15.412 18.3862 14.964C17.9242 15.748 17.1542 16.182 15.8102 16.182ZM30.8405 8.468V16H21.5585V8.468H22.8325V14.894H25.5625V8.468H26.8365V14.894H29.5665V8.468H30.8405ZM37.6778 12.85V12.374C35.3678 12.598 33.8978 12.948 33.8978 13.984C33.8978 14.698 34.4438 15.174 35.3538 15.174C36.5438 15.174 37.6778 14.628 37.6778 12.85ZM35.0738 16.182C33.6598 16.182 32.4838 15.398 32.4838 14.012C32.4838 12.234 34.4998 11.702 37.5798 11.366V11.184C37.5798 9.798 36.8238 9.35 35.8718 9.35C34.8078 9.35 34.2058 9.91 34.1498 10.848H32.8338C32.9458 9.224 34.4018 8.314 35.8578 8.314C37.9438 8.314 38.8678 9.294 38.8538 11.422L38.8398 13.158C38.8258 14.432 38.8818 15.286 39.0358 16H37.7478C37.7058 15.72 37.6638 15.412 37.6498 14.964C37.1878 15.748 36.4178 16.182 35.0738 16.182ZM50.4164 16H49.1424V12.71H45.4184V16H44.1444V8.468H45.4184V11.604H49.1424V8.468H50.4164V16ZM59.1463 12.654H53.3503C53.3923 14.278 54.5683 15.062 55.6743 15.062C56.7943 15.062 57.4103 14.558 57.7323 13.816H59.0483C58.7123 15.104 57.5083 16.182 55.6743 16.182C53.2943 16.182 51.9783 14.474 51.9783 12.248C51.9783 9.854 53.5743 8.342 55.6323 8.342C57.9423 8.342 59.3003 10.26 59.1463 12.654ZM55.6323 9.434C54.5123 9.434 53.4763 10.05 53.3643 11.562H57.8023C57.7603 10.498 56.9903 9.434 55.6323 9.434ZM70.239 8.468V16H68.965V9.574H65.311V16H64.037V8.468H70.239ZM73.1885 12.262C73.1885 14.278 74.2805 15.062 75.4425 15.062C76.6045 15.062 77.6965 14.194 77.6965 12.262C77.6965 10.246 76.6045 9.462 75.4425 9.462C74.2805 9.462 73.1885 10.204 73.1885 12.262ZM75.4425 8.342C77.1925 8.342 79.0545 9.532 79.0545 12.262C79.0545 14.992 77.1925 16.182 75.4425 16.182C73.6925 16.182 71.8305 14.992 71.8305 12.262C71.8305 9.532 73.6925 8.342 75.4425 8.342ZM86.4889 8.468V16H85.2149V9.574H82.6809L82.5689 11.394C82.3869 14.432 81.7289 16 79.9789 16H79.7409V14.894H79.8809C80.5529 14.894 81.1969 14.166 81.3509 11.044L81.4629 8.468H86.4889ZM94.8344 8.342C96.5844 8.342 98.4464 9.532 98.4464 12.262C98.4464 14.992 96.5844 16.182 94.8344 16.182C93.2664 16.182 91.6004 15.118 91.4184 12.71H89.9204V16H88.6464V8.468H89.9204V11.604H91.4464C91.7124 9.322 93.2944 8.342 94.8344 8.342ZM94.8344 15.062C95.9964 15.062 97.0884 14.194 97.0884 12.262C97.0884 10.246 95.9964 9.462 94.8344 9.462C93.7844 9.462 92.7624 10.204 92.7624 12.262C92.7624 14.278 93.7844 15.062 94.8344 15.062ZM103.437 8.902C105.145 8.902 106.615 10.092 106.615 12.472C106.615 14.894 105.061 16.182 103.213 16.182C101.267 16.182 99.6707 14.824 99.6707 12.08V11.212C99.7127 8.496 100.609 6.914 103.633 6.312L106.111 5.822V6.956L103.703 7.474C101.869 7.88 100.987 8.566 100.805 10.442C101.309 9.392 102.317 8.902 103.437 8.902ZM103.213 15.076C104.445 15.076 105.257 14.138 105.257 12.5C105.257 10.848 104.389 10.008 103.227 10.008C102.079 10.008 101.043 10.792 101.043 12.486C101.043 14.082 101.939 15.076 103.213 15.076ZM113.281 16V10.316L109.389 16H108.115V8.468H109.389V14.152L113.281 8.468H114.555V16H113.281ZM122.273 9.574H119.697V16H118.423V9.574H115.847V8.468H122.273V9.574ZM131.689 9.574H128.161V16H126.887V8.468H131.689V9.574ZM133.454 12.262C133.454 14.278 134.546 15.062 135.708 15.062C136.87 15.062 137.962 14.194 137.962 12.262C137.962 10.246 136.87 9.462 135.708 9.462C134.546 9.462 133.454 10.204 133.454 12.262ZM135.708 8.342C137.458 8.342 139.32 9.532 139.32 12.262C139.32 14.992 137.458 16.182 135.708 16.182C133.958 16.182 132.096 14.992 132.096 12.262C132.096 9.532 133.958 8.342 135.708 8.342ZM140.914 8.468H142.188V9.658C142.65 8.86 143.434 8.342 144.652 8.342C146.388 8.342 147.872 9.798 147.872 12.262C147.872 14.768 146.388 16.182 144.652 16.182C143.434 16.182 142.65 15.664 142.188 14.866V18.45H140.914V8.468ZM142.132 12.262C142.132 14.25 143.196 15.09 144.33 15.09C145.632 15.09 146.486 14.068 146.486 12.262C146.486 10.456 145.632 9.434 144.33 9.434C143.196 9.434 142.132 10.274 142.132 12.262ZM152.161 16H149.445V8.468H150.719V11.128H152.175C154.135 11.128 154.989 11.898 154.989 13.508C154.989 15.37 153.883 16 152.161 16ZM150.719 12.234V14.894H152.049C153.169 14.894 153.743 14.53 153.743 13.508C153.743 12.5 153.183 12.234 152.007 12.234H150.719ZM157.509 16H156.235V8.468H157.509V16ZM161.114 16H159.504V14.39H161.114V16Z"
		fill="#8E8E8E"/>
</svg>
