<svg width="228" height="295" viewBox="0 0 228 295" fill="none" xmlns="http://www.w3.org/2000/svg">
<rect x="1" y="1" width="226" height="293" rx="9" stroke="#E3E3E3" stroke-width="2"/>
<path d="M24.512 58.6V76H22.064V58.6H24.512ZM20 90.6H22.688L27.44 99.096L32.288 90.6H34.976L28.592 101.256V108H26.144V101.208L20 90.6ZM36.0363 101.592C36.0363 105.048 37.9083 106.392 39.9003 106.392C41.8923 106.392 43.7643 104.904 43.7643 101.592C43.7643 98.136 41.8923 96.792 39.9003 96.792C37.9083 96.792 36.0363 98.064 36.0363 101.592ZM39.9003 94.872C42.9003 94.872 46.0923 96.912 46.0923 101.592C46.0923 106.272 42.9003 108.312 39.9003 108.312C36.9003 108.312 33.7083 106.272 33.7083 101.592C33.7083 96.912 36.9003 94.872 39.9003 94.872ZM56.6966 108V106.152C55.9526 107.376 54.7766 108.312 52.6406 108.312C49.6646 108.312 48.5126 106.296 48.5126 103.344V95.088H50.6966V102.696C50.6966 104.688 51.0086 106.416 53.4086 106.416C55.4966 106.416 56.6966 104.976 56.6966 102.192V95.088H58.8806V108H56.6966ZM32.528 122.6L35.96 137.216L39.176 122.6H41.744L37.4 140H34.424L31.064 125.696L27.776 140H24.8L20.384 122.6H23.072L26.432 137.216L29.648 122.6H32.528ZM54.5264 134.264H44.5904C44.6624 137.048 46.6784 138.392 48.5744 138.392C50.4944 138.392 51.5504 137.528 52.1024 136.256H54.3584C53.7824 138.464 51.7184 140.312 48.5744 140.312C44.4944 140.312 42.2384 137.384 42.2384 133.568C42.2384 129.464 44.9744 126.872 48.5024 126.872C52.4624 126.872 54.7904 130.16 54.5264 134.264ZM48.5024 128.744C46.5824 128.744 44.8064 129.8 44.6144 132.392H52.2224C52.1504 130.568 50.8304 128.744 48.5024 128.744ZM25.664 172V156.712H20V154.6H33.776V156.712H28.112V172H25.664ZM37.2245 154.6V161.032C37.9685 159.808 39.2165 158.872 41.4005 158.872C44.5205 158.872 45.6485 160.888 45.6485 163.84V172H43.4645V164.488C43.4645 162.496 43.1285 160.768 40.6325 160.768C38.5205 160.768 37.2245 162.208 37.2245 164.992V172H35.0405V154.6H37.2245ZM60.3155 166.264H50.3795C50.4515 169.048 52.4675 170.392 54.3635 170.392C56.2835 170.392 57.3395 169.528 57.8915 168.256H60.1475C59.5715 170.464 57.5075 172.312 54.3635 172.312C50.2835 172.312 48.0275 169.384 48.0275 165.568C48.0275 161.464 50.7635 158.872 54.2915 158.872C58.2515 158.872 60.5795 162.16 60.3155 166.264ZM54.2915 160.744C52.3715 160.744 50.5955 161.8 50.4035 164.392H58.0115C57.9395 162.568 56.6195 160.744 54.2915 160.744ZM69.9196 159.088H72.1996L67.5916 172.552C66.6316 175.336 66.0076 176.2 63.1036 176.2H61.9756V174.376H62.8636C64.3036 174.376 64.9996 174.28 65.5756 172.264L65.6716 172L61.0156 159.088H63.4396L66.7276 169.048L69.9196 159.088ZM33.656 186.6H36.104V204H33.656V196.104H24.512V204H22.064V186.6H24.512V193.992H33.656V186.6ZM51.2921 198.264H41.3561C41.4281 201.048 43.4441 202.392 45.3401 202.392C47.2601 202.392 48.3161 201.528 48.8681 200.256H51.1241C50.5481 202.464 48.4841 204.312 45.3401 204.312C41.2601 204.312 39.0041 201.384 39.0041 197.568C39.0041 193.464 41.7401 190.872 45.2681 190.872C49.2281 190.872 51.5561 194.16 51.2921 198.264ZM45.2681 192.744C43.3481 192.744 41.5721 193.8 41.3801 196.392H48.9881C48.9161 194.568 47.5961 192.744 45.2681 192.744ZM21.344 223.04C21.344 219.704 24.824 218.288 27.632 218.288C30.776 218.288 33.536 219.704 34.232 223.04H31.856C31.28 221.048 29.264 220.352 27.536 220.352C26.192 220.352 23.84 220.952 23.84 222.896C23.84 224.432 25.04 225.2 26.672 225.56L28.688 226.016C31.352 226.592 34.544 227.6 34.544 231.104C34.544 234.488 31.376 236.312 27.92 236.312C23.816 236.312 21.224 234.056 20.768 230.6H23.168C23.624 233 25.28 234.248 27.968 234.248C30.56 234.248 32.024 233.048 32.024 231.32C32.024 229.472 30.44 228.752 28.28 228.248L26.12 227.792C23.72 227.264 21.344 225.92 21.344 223.04ZM39.287 218.6V225.032C40.031 223.808 41.279 222.872 43.463 222.872C46.583 222.872 47.711 224.888 47.711 227.84V236H45.527V228.488C45.527 226.496 45.191 224.768 42.695 224.768C40.583 224.768 39.287 226.208 39.287 228.992V236H37.103V218.6H39.287ZM62.378 230.264H52.442C52.514 233.048 54.53 234.392 56.426 234.392C58.346 234.392 59.402 233.528 59.954 232.256H62.21C61.634 234.464 59.57 236.312 56.426 236.312C52.346 236.312 50.09 233.384 50.09 229.568C50.09 225.464 52.826 222.872 56.354 222.872C60.314 222.872 62.642 226.16 62.378 230.264ZM56.354 224.744C54.434 224.744 52.658 225.8 52.466 228.392H60.074C60.002 226.568 58.682 224.744 56.354 224.744ZM24.512 250.6V268H22.064V250.6H24.512ZM28.9379 255.088V251.848H31.1219V255.088H33.5699V256.84H31.1219V264.496C31.1219 265.84 31.2179 266.176 32.4659 266.176H33.5699V268H31.9859C29.5139 268 28.9379 267.448 28.9379 264.76V256.84H26.8979V255.088H28.9379Z" fill="#1E1E1E"/>
<path d="M22.85 36.195H21.575V34.455H22.685C23.27 34.455 23.585 34.335 23.885 33.87L24.05 33.615L20.075 25.125H22.415L25.145 31.395L27.59 25.125H29.945L26.075 33.93C25.475 35.31 24.65 36.195 22.85 36.195ZM34.1192 36H32.0492V29.565H29.4242V27.93H36.7442V29.565H34.1192V36ZM42.1529 36H37.9979V27.93H41.9729C43.6979 27.93 45.0629 28.35 45.0629 30.03C45.0629 30.825 44.7179 31.38 44.0429 31.695C44.8229 31.95 45.3929 32.52 45.3929 33.54C45.3929 35.31 44.0279 36 42.1529 36ZM40.0679 32.535V34.38H41.9429C42.9029 34.38 43.3829 34.065 43.3829 33.45C43.3829 32.805 42.8879 32.535 41.9279 32.535H40.0679ZM40.0679 29.55V31.185H41.8229C42.6029 31.185 43.0679 30.93 43.0679 30.33C43.0679 29.715 42.6029 29.55 41.8079 29.55H40.0679ZM54.4013 32.535H48.4463C48.5663 33.915 49.4963 34.59 50.4863 34.59C51.1313 34.59 51.7613 34.365 52.1813 33.66H54.3113C53.8763 34.86 52.7063 36.195 50.5013 36.195C47.9063 36.195 46.3913 34.26 46.3913 31.935C46.3913 29.535 48.0563 27.75 50.4413 27.75C52.9313 27.75 54.4763 29.685 54.4013 32.535ZM50.4263 29.265C49.6463 29.265 48.6413 29.745 48.4763 31.11H52.3013C52.2563 29.745 51.2963 29.265 50.4263 29.265ZM59.7247 34.605C60.8047 34.605 61.5697 33.555 61.5697 31.98C61.5697 30.405 60.8047 29.34 59.7247 29.34C58.5847 29.34 57.8347 30.345 57.8347 31.965C57.8347 33.63 58.5847 34.605 59.7247 34.605ZM57.9097 38.625H55.8397V27.93H57.9097V28.965C58.3447 28.2 59.2147 27.75 60.2347 27.75C62.1847 27.75 63.7447 29.43 63.7447 31.965C63.7447 34.545 62.1397 36.195 60.2197 36.195C59.3797 36.195 58.4347 35.88 57.9097 34.98V38.625ZM66.2735 36H63.8885L66.8585 31.74L64.0985 27.93H66.4085L68.9885 31.71H69.0035V27.93H71.0735V31.71H71.0885L73.6985 27.93H76.0835L73.2635 31.74L76.2335 36H73.8035L71.0885 31.905H71.0735V36H69.0035V31.905H68.9885L66.2735 36ZM78.4536 37.875H76.5336V34.365H76.9836C77.7636 34.365 78.1536 33.69 78.3186 30.33L78.4236 27.93H84.6186V34.365H85.8636V37.875H83.9436V36H78.4536V37.875ZM79.3986 34.365H82.5486V29.565H80.2836L80.1936 31.035C80.0736 32.715 79.9686 33.465 79.3986 34.365ZM94.4648 32.535H88.5098C88.6298 33.915 89.5598 34.59 90.5498 34.59C91.1948 34.59 91.8248 34.365 92.2448 33.66H94.3748C93.9398 34.86 92.7698 36.195 90.5648 36.195C87.9698 36.195 86.4548 34.26 86.4548 31.935C86.4548 29.535 88.1198 27.75 90.5048 27.75C92.9948 27.75 94.5398 29.685 94.4648 32.535ZM90.4898 29.265C89.7098 29.265 88.7048 29.745 88.5398 31.11H92.3648C92.3198 29.745 91.3598 29.265 90.4898 29.265ZM97.9732 36H95.9032V27.93H97.9732V31.05H101.333V27.93H103.403V36H101.333V32.685H97.9732V36ZM107.539 36H105.469V27.93H107.494V33.435L111.049 27.93H113.119V36H111.094V30.69L107.539 36ZM122.575 32.535H116.62C116.74 33.915 117.67 34.59 118.66 34.59C119.305 34.59 119.935 34.365 120.355 33.66H122.485C122.05 34.86 120.88 36.195 118.675 36.195C116.08 36.195 114.565 34.26 114.565 31.935C114.565 29.535 116.23 27.75 118.615 27.75C121.105 27.75 122.65 29.685 122.575 32.535ZM118.6 29.265C117.82 29.265 116.815 29.745 116.65 31.11H120.475C120.43 29.745 119.47 29.265 118.6 29.265Z" fill="#0F0F0F"/>
<rect x="170.5" y="144.5" width="37" height="37" rx="2.5" stroke="#1E1E1E"/>
<path d="M181.264 154.6H183.952L188.776 169.48L193.504 154.6H196.072L190.168 172H187.24L181.264 154.6Z" fill="#1E1E1E"/>
<rect x="93" y="144" width="57" height="38" rx="3" fill="#0076DE"/>
<path d="M108.944 168.64L111.512 159.088H113.768L116.336 168.64L118.808 159.088H121.16L117.44 172H115.448L112.592 161.608L109.832 172H107.84L104.12 159.088H106.472L108.944 168.64ZM123.001 159.088H125.185V172H123.001V159.088ZM123.001 154.6H125.185V157.24H123.001V154.6ZM130.834 154.6V172H128.65V154.6H130.834ZM136.482 154.6V172H134.298V154.6H136.482Z" fill="white"/>
</svg>
