<svg width="269" height="295" viewBox="0 0 269 295" fill="none" xmlns="http://www.w3.org/2000/svg">
<rect x="1" y="1" width="267" height="293" rx="9" stroke="#E3E3E3" stroke-width="2"/>
<path d="M24.512 58.6V76H22.064V58.6H24.512ZM20 90.6H22.688L27.44 99.096L32.288 90.6H34.976L28.592 101.256V108H26.144V101.208L20 90.6ZM36.0363 101.592C36.0363 105.048 37.9083 106.392 39.9003 106.392C41.8923 106.392 43.7643 104.904 43.7643 101.592C43.7643 98.136 41.8923 96.792 39.9003 96.792C37.9083 96.792 36.0363 98.064 36.0363 101.592ZM39.9003 94.872C42.9003 94.872 46.0923 96.912 46.0923 101.592C46.0923 106.272 42.9003 108.312 39.9003 108.312C36.9003 108.312 33.7083 106.272 33.7083 101.592C33.7083 96.912 36.9003 94.872 39.9003 94.872ZM56.6966 108V106.152C55.9526 107.376 54.7766 108.312 52.6406 108.312C49.6646 108.312 48.5126 106.296 48.5126 103.344V95.088H50.6966V102.696C50.6966 104.688 51.0086 106.416 53.4086 106.416C55.4966 106.416 56.6966 104.976 56.6966 102.192V95.088H58.8806V108H56.6966ZM32.528 122.6L35.96 137.216L39.176 122.6H41.744L37.4 140H34.424L31.064 125.696L27.776 140H24.8L20.384 122.6H23.072L26.432 137.216L29.648 122.6H32.528ZM54.5264 134.264H44.5904C44.6624 137.048 46.6784 138.392 48.5744 138.392C50.4944 138.392 51.5504 137.528 52.1024 136.256H54.3584C53.7824 138.464 51.7184 140.312 48.5744 140.312C44.4944 140.312 42.2384 137.384 42.2384 133.568C42.2384 129.464 44.9744 126.872 48.5024 126.872C52.4624 126.872 54.7904 130.16 54.5264 134.264ZM48.5024 128.744C46.5824 128.744 44.8064 129.8 44.6144 132.392H52.2224C52.1504 130.568 50.8304 128.744 48.5024 128.744ZM25.664 172V156.712H20V154.6H33.776V156.712H28.112V172H25.664ZM37.2245 154.6V161.032C37.9685 159.808 39.2165 158.872 41.4005 158.872C44.5205 158.872 45.6485 160.888 45.6485 163.84V172H43.4645V164.488C43.4645 162.496 43.1285 160.768 40.6325 160.768C38.5205 160.768 37.2245 162.208 37.2245 164.992V172H35.0405V154.6H37.2245ZM60.3155 166.264H50.3795C50.4515 169.048 52.4675 170.392 54.3635 170.392C56.2835 170.392 57.3395 169.528 57.8915 168.256H60.1475C59.5715 170.464 57.5075 172.312 54.3635 172.312C50.2835 172.312 48.0275 169.384 48.0275 165.568C48.0275 161.464 50.7635 158.872 54.2915 158.872C58.2515 158.872 60.5795 162.16 60.3155 166.264ZM54.2915 160.744C52.3715 160.744 50.5955 161.8 50.4035 164.392H58.0115C57.9395 162.568 56.6195 160.744 54.2915 160.744ZM69.9196 159.088H72.1996L67.5916 172.552C66.6316 175.336 66.0076 176.2 63.1036 176.2H61.9756V174.376H62.8636C64.3036 174.376 64.9996 174.28 65.5756 172.264L65.6716 172L61.0156 159.088H63.4396L66.7276 169.048L69.9196 159.088ZM33.656 186.6H36.104V204H33.656V196.104H24.512V204H22.064V186.6H24.512V193.992H33.656V186.6ZM51.2921 198.264H41.3561C41.4281 201.048 43.4441 202.392 45.3401 202.392C47.2601 202.392 48.3161 201.528 48.8681 200.256H51.1241C50.5481 202.464 48.4841 204.312 45.3401 204.312C41.2601 204.312 39.0041 201.384 39.0041 197.568C39.0041 193.464 41.7401 190.872 45.2681 190.872C49.2281 190.872 51.5561 194.16 51.2921 198.264ZM45.2681 192.744C43.3481 192.744 41.5721 193.8 41.3801 196.392H48.9881C48.9161 194.568 47.5961 192.744 45.2681 192.744ZM21.344 223.04C21.344 219.704 24.824 218.288 27.632 218.288C30.776 218.288 33.536 219.704 34.232 223.04H31.856C31.28 221.048 29.264 220.352 27.536 220.352C26.192 220.352 23.84 220.952 23.84 222.896C23.84 224.432 25.04 225.2 26.672 225.56L28.688 226.016C31.352 226.592 34.544 227.6 34.544 231.104C34.544 234.488 31.376 236.312 27.92 236.312C23.816 236.312 21.224 234.056 20.768 230.6H23.168C23.624 233 25.28 234.248 27.968 234.248C30.56 234.248 32.024 233.048 32.024 231.32C32.024 229.472 30.44 228.752 28.28 228.248L26.12 227.792C23.72 227.264 21.344 225.92 21.344 223.04ZM39.287 218.6V225.032C40.031 223.808 41.279 222.872 43.463 222.872C46.583 222.872 47.711 224.888 47.711 227.84V236H45.527V228.488C45.527 226.496 45.191 224.768 42.695 224.768C40.583 224.768 39.287 226.208 39.287 228.992V236H37.103V218.6H39.287ZM62.378 230.264H52.442C52.514 233.048 54.53 234.392 56.426 234.392C58.346 234.392 59.402 233.528 59.954 232.256H62.21C61.634 234.464 59.57 236.312 56.426 236.312C52.346 236.312 50.09 233.384 50.09 229.568C50.09 225.464 52.826 222.872 56.354 222.872C60.314 222.872 62.642 226.16 62.378 230.264ZM56.354 224.744C54.434 224.744 52.658 225.8 52.466 228.392H60.074C60.002 226.568 58.682 224.744 56.354 224.744ZM24.512 250.6V268H22.064V250.6H24.512ZM28.9379 255.088V251.848H31.1219V255.088H33.5699V256.84H31.1219V264.496C31.1219 265.84 31.2179 266.176 32.4659 266.176H33.5699V268H31.9859C29.5139 268 28.9379 267.448 28.9379 264.76V256.84H26.8979V255.088H28.9379Z" fill="#1E1E1E"/>
<path d="M22.76 30.555C22.76 33.12 24.17 34.485 25.865 34.485C27.56 34.485 28.97 33.12 28.97 30.555C28.97 28.005 27.56 26.64 25.865 26.64C24.17 26.64 22.76 28.005 22.76 30.555ZM31.19 30.555C31.19 33.93 29.105 36.195 25.865 36.195C22.625 36.195 20.54 33.93 20.54 30.555C20.54 27.18 22.625 24.93 25.865 24.93C29.105 24.93 31.19 27.18 31.19 30.555ZM36.6534 36H34.5834V29.565H31.9584V27.93H39.2784V29.565H36.6534V36ZM44.4171 34.605C45.4971 34.605 46.2621 33.555 46.2621 31.98C46.2621 30.405 45.4971 29.34 44.4171 29.34C43.2771 29.34 42.5271 30.345 42.5271 31.965C42.5271 33.63 43.2771 34.605 44.4171 34.605ZM42.6021 38.625H40.5321V27.93H42.6021V28.965C43.0371 28.2 43.9071 27.75 44.9271 27.75C46.8771 27.75 48.4371 29.43 48.4371 31.965C48.4371 34.545 46.8321 36.195 44.9121 36.195C44.0721 36.195 43.1271 35.88 42.6021 34.98V38.625ZM51.9478 36H49.8778V27.93H51.9028V33.435L55.4578 27.93H57.5278V36H55.5028V30.69L51.9478 36ZM67.9443 37.875H66.0243V36H59.6043V27.93H61.6743V34.365H64.6293V27.93H66.6993V34.455H67.9443V37.875ZM74.0315 32.91V32.31C71.7065 32.55 70.7915 32.82 70.7915 33.72C70.7915 34.305 71.2415 34.785 72.1865 34.785C73.4915 34.785 74.0315 34.095 74.0315 32.91ZM74.2115 34.995C73.6265 35.835 72.7865 36.195 71.5715 36.195C70.0265 36.195 68.6615 35.295 68.6615 33.825C68.6615 31.92 70.7915 31.35 73.9715 30.99V30.855C73.9715 29.61 73.2965 29.175 72.4565 29.175C71.6615 29.175 71.0015 29.58 70.9565 30.48H69.0215C69.1865 28.89 70.4765 27.72 72.5615 27.72C74.4665 27.72 76.0415 28.56 76.0415 31.275C76.0415 31.515 76.0115 32.61 76.0115 33.33C76.0115 34.605 76.0865 35.325 76.2515 36H74.3465C74.2865 35.745 74.2565 35.4 74.2115 34.995ZM79.9409 36H77.8709V27.93H79.9409V31.05H83.3009V27.93H85.3709V36H83.3009V32.685H79.9409V36ZM89.5064 36H87.4364V27.93H89.4614V33.435L93.0164 27.93H95.0864V36H93.0614V30.69L89.5064 36ZM104.543 32.535H98.5879C98.7079 33.915 99.6379 34.59 100.628 34.59C101.273 34.59 101.903 34.365 102.323 33.66H104.453C104.018 34.86 102.848 36.195 100.643 36.195C98.0479 36.195 96.5329 34.26 96.5329 31.935C96.5329 29.535 98.1979 27.75 100.583 27.75C103.073 27.75 104.618 29.685 104.543 32.535ZM100.568 29.265C99.7879 29.265 98.7829 29.745 98.6179 31.11H102.443C102.398 29.745 101.438 29.265 100.568 29.265Z" fill="#0F0F0F"/>
<rect x="211.5" y="144.5" width="37" height="37" rx="2.5" stroke="#1E1E1E"/>
<path d="M222.264 154.6H224.952L229.776 169.48L234.504 154.6H237.072L231.168 172H228.24L222.264 154.6Z" fill="#1E1E1E"/>
<rect x="93" y="144" width="57" height="38" rx="3" fill="#0076DE"/>
<path d="M108.944 168.64L111.512 159.088H113.768L116.336 168.64L118.808 159.088H121.16L117.44 172H115.448L112.592 161.608L109.832 172H107.84L104.12 159.088H106.472L108.944 168.64ZM123.001 159.088H125.185V172H123.001V159.088ZM123.001 154.6H125.185V157.24H123.001V154.6ZM130.834 154.6V172H128.65V154.6H130.834ZM136.482 154.6V172H134.298V154.6H136.482Z" fill="white"/>
<path d="M158.912 159.088V161.032C159.656 159.808 160.904 158.872 163.088 158.872C166.208 158.872 167.336 160.888 167.336 163.84V172H165.152V164.488C165.152 162.496 164.816 160.768 162.32 160.768C160.208 160.768 158.912 162.208 158.912 164.992V172H156.728V159.088H158.912ZM172.091 165.592C172.091 169.048 173.963 170.392 175.955 170.392C177.947 170.392 179.819 168.904 179.819 165.592C179.819 162.136 177.947 160.792 175.955 160.792C173.963 160.792 172.091 162.064 172.091 165.592ZM175.955 158.872C178.955 158.872 182.147 160.912 182.147 165.592C182.147 170.272 178.955 172.312 175.955 172.312C172.955 172.312 169.763 170.272 169.763 165.592C169.763 160.912 172.955 158.872 175.955 158.872ZM185.266 159.088V155.848H187.45V159.088H189.898V160.84H187.45V168.496C187.45 169.84 187.546 170.176 188.794 170.176H189.898V172H188.314C185.842 172 185.266 171.448 185.266 168.76V160.84H183.226V159.088H185.266Z" fill="#1E1E1E"/>
</svg>
