<svg width="395" height="69" viewBox="0 0 395 69" fill="none" xmlns="http://www.w3.org/2000/svg">
<rect x="108.5" y="32.5" width="107" height="36" rx="18" stroke="#1E1E1E"/>
<rect x="221.5" y="32.5" width="83" height="36" rx="18" stroke="#0076DE"/>
<rect x="39.5" y="32.5" width="63" height="36" rx="18" fill="#1E1E1E" stroke="#1E1E1E"/>
<rect y="36" width="29" height="29" rx="14.5" fill="#C8C8C8"/>
<rect x="310.5" y="32.5" width="66" height="36" rx="18" stroke="#1E1E1E"/>
<path d="M135.4 59H132.7L127.7 43.2V59H125.15V40.875H129.425L134.05 55.975L138.675 40.875H142.95V59H140.4V43.2L135.4 59ZM155.37 53.375V52.525C151.245 52.925 148.62 53.55 148.62 55.4C148.62 56.675 149.595 57.525 151.22 57.525C153.345 57.525 155.37 56.55 155.37 53.375ZM150.72 59.325C148.195 59.325 146.095 57.925 146.095 55.45C146.095 52.275 149.695 51.325 155.195 50.725V50.4C155.195 47.925 153.845 47.125 152.145 47.125C150.245 47.125 149.17 48.125 149.07 49.8H146.72C146.92 46.9 149.52 45.275 152.12 45.275C155.845 45.275 157.495 47.025 157.47 50.825L157.445 53.925C157.42 56.2 157.52 57.725 157.795 59H155.495C155.42 58.5 155.345 57.95 155.32 57.15C154.495 58.55 153.12 59.325 150.72 59.325ZM170.935 49.475H168.56C168.185 47.875 166.985 47.25 165.385 47.25C164.06 47.25 162.56 47.725 162.56 48.95C162.56 50.025 163.31 50.5 164.61 50.775L166.51 51.15C168.96 51.6 171.11 52.575 171.11 55.15C171.11 57.825 168.71 59.325 165.635 59.325C162.11 59.325 160.135 57 159.86 54.65H162.26C162.635 56.375 163.685 57.4 165.685 57.4C167.41 57.4 168.81 56.675 168.81 55.4C168.81 54.025 167.535 53.5 166.085 53.175L164.085 52.775C162.26 52.375 160.26 51.575 160.26 49.05C160.26 46.675 162.66 45.3 165.635 45.3C168.56 45.3 170.51 46.9 170.935 49.475ZM176.269 40.875V47.575C177.044 46.3 178.344 45.325 180.619 45.325C183.869 45.325 185.044 47.425 185.044 50.5V59H182.769V51.175C182.769 49.1 182.419 47.3 179.819 47.3C177.619 47.3 176.269 48.8 176.269 51.7V59H173.994V40.875H176.269ZM196.922 53.375V52.525C192.797 52.925 190.172 53.55 190.172 55.4C190.172 56.675 191.147 57.525 192.772 57.525C194.897 57.525 196.922 56.55 196.922 53.375ZM192.272 59.325C189.747 59.325 187.647 57.925 187.647 55.45C187.647 52.275 191.247 51.325 196.747 50.725V50.4C196.747 47.925 195.397 47.125 193.697 47.125C191.797 47.125 190.722 48.125 190.622 49.8H188.272C188.472 46.9 191.072 45.275 193.672 45.275C197.397 45.275 199.047 47.025 199.022 50.825L198.997 53.925C198.972 56.2 199.072 57.725 199.347 59H197.047C196.972 58.5 196.897 57.95 196.872 57.15C196.047 58.55 194.672 59.325 192.272 59.325Z" fill="black"/>
<path d="M68.375 49.925C68.375 43.775 64.75 43.025 61.025 43.025H58.7V56.85H61.025C64.75 56.85 68.375 56.1 68.375 49.925ZM56.15 40.875H61.1C66.825 40.875 70.975 43.05 70.975 49.925C70.975 56.825 66.825 59 61.1 59H56.15V40.875ZM75.6117 52.325C75.6117 55.925 77.5617 57.325 79.6367 57.325C81.7117 57.325 83.6617 55.775 83.6617 52.325C83.6617 48.725 81.7117 47.325 79.6367 47.325C77.5617 47.325 75.6117 48.65 75.6117 52.325ZM79.6367 45.325C82.7617 45.325 86.0867 47.45 86.0867 52.325C86.0867 57.2 82.7617 59.325 79.6367 59.325C76.5117 59.325 73.1867 57.2 73.1867 52.325C73.1867 47.45 76.5117 45.325 79.6367 45.325Z" fill="white"/>
<path d="M240.075 40.875V59H237.8V40.875H240.075ZM243.684 45.55H245.959V59H243.684V45.55ZM243.684 40.875H245.959V43.625H243.684V40.875ZM249.568 40.875H251.843V51.6L257.268 45.55H260.068L254.943 51.125L260.768 59H257.993L253.418 52.8L251.843 54.5V59H249.568V40.875ZM273.698 53.025H263.348C263.423 55.925 265.523 57.325 267.498 57.325C269.498 57.325 270.598 56.425 271.173 55.1H273.523C272.923 57.4 270.773 59.325 267.498 59.325C263.248 59.325 260.898 56.275 260.898 52.3C260.898 48.025 263.748 45.325 267.423 45.325C271.548 45.325 273.973 48.75 273.698 53.025ZM267.423 47.275C265.423 47.275 263.573 48.375 263.373 51.075H271.298C271.223 49.175 269.848 47.275 267.423 47.275ZM285.697 47.675V40.875H287.972V59H285.697V56.975C284.872 58.4 283.472 59.325 281.297 59.325C278.197 59.325 275.547 56.8 275.547 52.325C275.547 47.925 278.197 45.325 281.297 45.325C283.472 45.325 284.872 46.25 285.697 47.675ZM285.797 52.325C285.797 48.775 283.897 47.275 281.872 47.275C279.547 47.275 278.022 49.1 278.022 52.325C278.022 55.55 279.547 57.375 281.872 57.375C283.897 57.375 285.797 55.875 285.797 52.325Z" fill="#0076DE"/>
<path d="M15.878 57H14.24V46.794H11.216V45.678C13.07 45.624 14.06 45.354 14.762 43.95H15.878V57Z" fill="white"/>
<path d="M327.45 45.55V42.175H329.725V45.55H332.275V47.375H329.725V55.35C329.725 56.75 329.825 57.1 331.125 57.1H332.275V59H330.625C328.05 59 327.45 58.425 327.45 55.625V47.375H325.325V45.55H327.45ZM346.683 53.025H336.333C336.408 55.925 338.508 57.325 340.483 57.325C342.483 57.325 343.583 56.425 344.158 55.1H346.508C345.908 57.4 343.758 59.325 340.483 59.325C336.233 59.325 333.883 56.275 333.883 52.3C333.883 48.025 336.733 45.325 340.408 45.325C344.533 45.325 346.958 48.75 346.683 53.025ZM340.408 47.275C338.408 47.275 336.558 48.375 336.358 51.075H344.283C344.208 49.175 342.833 47.275 340.408 47.275ZM357.687 53.375V52.525C353.562 52.925 350.937 53.55 350.937 55.4C350.937 56.675 351.912 57.525 353.537 57.525C355.662 57.525 357.687 56.55 357.687 53.375ZM353.037 59.325C350.512 59.325 348.412 57.925 348.412 55.45C348.412 52.275 352.012 51.325 357.512 50.725V50.4C357.512 47.925 356.162 47.125 354.462 47.125C352.562 47.125 351.487 48.125 351.387 49.8H349.037C349.237 46.9 351.837 45.275 354.437 45.275C358.162 45.275 359.812 47.025 359.787 50.825L359.762 53.925C359.737 56.2 359.837 57.725 360.112 59H357.812C357.737 58.5 357.662 57.95 357.637 57.15C356.812 58.55 355.437 59.325 353.037 59.325Z" fill="black"/>
<path d="M388.45 40.55C391.275 40.55 394.1 41.925 394.1 44.95C394.1 47.35 392.425 49.025 390.725 50.1C389.175 51.1 388.625 51.55 388.625 52.925V53.7H386.3V52.85C386.3 50.75 387.3 49.85 389.4 48.5C390.7 47.675 391.725 46.675 391.725 45.05C391.725 43.45 390.325 42.45 388.4 42.45C385.625 42.45 384.675 44.4 384.6 45.925H382.325C382.325 42.675 384.925 40.55 388.45 40.55ZM388.95 59H386.075V56.125H388.95V59Z" fill="black"/>
<path d="M7.084 16H5.572L2.772 7.152V16H1.344V5.85H3.738L6.328 14.306L8.918 5.85H11.312V16H9.884V7.152L7.084 16ZM18.4142 12.85V12.374C16.1042 12.598 14.6342 12.948 14.6342 13.984C14.6342 14.698 15.1802 15.174 16.0902 15.174C17.2802 15.174 18.4142 14.628 18.4142 12.85ZM15.8102 16.182C14.3962 16.182 13.2202 15.398 13.2202 14.012C13.2202 12.234 15.2362 11.702 18.3162 11.366V11.184C18.3162 9.798 17.5602 9.35 16.6082 9.35C15.5442 9.35 14.9422 9.91 14.8862 10.848H13.5702C13.6822 9.224 15.1382 8.314 16.5942 8.314C18.6802 8.314 19.6042 9.294 19.5902 11.422L19.5762 13.158C19.5622 14.432 19.6182 15.286 19.7722 16H18.4842C18.4422 15.72 18.4002 15.412 18.3862 14.964C17.9242 15.748 17.1542 16.182 15.8102 16.182ZM30.8405 8.468V16H21.5585V8.468H22.8325V14.894H25.5625V8.468H26.8365V14.894H29.5665V8.468H30.8405ZM37.6778 12.85V12.374C35.3678 12.598 33.8978 12.948 33.8978 13.984C33.8978 14.698 34.4438 15.174 35.3538 15.174C36.5438 15.174 37.6778 14.628 37.6778 12.85ZM35.0738 16.182C33.6598 16.182 32.4838 15.398 32.4838 14.012C32.4838 12.234 34.4998 11.702 37.5798 11.366V11.184C37.5798 9.798 36.8238 9.35 35.8718 9.35C34.8078 9.35 34.2058 9.91 34.1498 10.848H32.8338C32.9458 9.224 34.4018 8.314 35.8578 8.314C37.9438 8.314 38.8678 9.294 38.8538 11.422L38.8398 13.158C38.8258 14.432 38.8818 15.286 39.0358 16H37.7478C37.7058 15.72 37.6638 15.412 37.6498 14.964C37.1878 15.748 36.4178 16.182 35.0738 16.182ZM50.0944 8.468V16H48.8204V9.574H46.2864L46.1744 11.394C45.9924 14.432 45.3344 16 43.5844 16H43.3464V14.894H43.4864C44.1584 14.894 44.8024 14.166 44.9564 11.044L45.0684 8.468H50.0944ZM58.4398 8.342C60.1898 8.342 62.0518 9.532 62.0518 12.262C62.0518 14.992 60.1898 16.182 58.4398 16.182C56.8718 16.182 55.2058 15.118 55.0238 12.71H53.5258V16H52.2518V8.468H53.5258V11.604H55.0518C55.3178 9.322 56.8998 8.342 58.4398 8.342ZM58.4398 15.062C59.6018 15.062 60.6938 14.194 60.6938 12.262C60.6938 10.246 59.6018 9.462 58.4398 9.462C57.3898 9.462 56.3678 10.204 56.3678 12.262C56.3678 14.278 57.3898 15.062 58.4398 15.062ZM67.0422 8.902C68.7502 8.902 70.2202 10.092 70.2202 12.472C70.2202 14.894 68.6662 16.182 66.8182 16.182C64.8722 16.182 63.2762 14.824 63.2762 12.08V11.212C63.3182 8.496 64.2142 6.914 67.2382 6.312L69.7162 5.822V6.956L67.3082 7.474C65.4742 7.88 64.5922 8.566 64.4102 10.442C64.9142 9.392 65.9222 8.902 67.0422 8.902ZM66.8182 15.076C68.0502 15.076 68.8622 14.138 68.8622 12.5C68.8622 10.848 67.9942 10.008 66.8322 10.008C65.6842 10.008 64.6482 10.792 64.6482 12.486C64.6482 14.082 65.5442 15.076 66.8182 15.076ZM76.8866 16V10.316L72.9946 16H71.7206V8.468H72.9946V14.152L76.8866 8.468H78.1606V16H76.8866ZM86.2702 8.468V16H84.9962V9.574H82.4622L82.3502 11.394C82.1682 14.432 81.5102 16 79.7602 16H79.5222V14.894H79.6622C80.3342 14.894 80.9782 14.166 81.1322 11.044L81.2442 8.468H86.2702ZM93.1036 12.85V12.374C90.7936 12.598 89.3236 12.948 89.3236 13.984C89.3236 14.698 89.8696 15.174 90.7796 15.174C91.9696 15.174 93.1036 14.628 93.1036 12.85ZM90.4996 16.182C89.0856 16.182 87.9096 15.398 87.9096 14.012C87.9096 12.234 89.9256 11.702 93.0056 11.366V11.184C93.0056 9.798 92.2496 9.35 91.2976 9.35C90.2336 9.35 89.6316 9.91 89.5756 10.848H88.2596C88.3716 9.224 89.8276 8.314 91.2836 8.314C93.3696 8.314 94.2936 9.294 94.2796 11.422L94.2656 13.158C94.2516 14.432 94.3076 15.286 94.4616 16H93.1736C93.1316 15.72 93.0896 15.412 93.0756 14.964C92.6136 15.748 91.8436 16.182 90.4996 16.182ZM105.114 16H103.84V12.948C102.958 13.158 102.286 13.256 101.6 13.256C100.018 13.256 99.1922 12.556 99.1922 10.918V8.468H100.466V10.652C100.466 11.772 100.998 12.15 102.062 12.15C102.552 12.15 103.14 12.066 103.84 11.898V8.468H105.114V16ZM111.943 12.85V12.374C109.633 12.598 108.163 12.948 108.163 13.984C108.163 14.698 108.709 15.174 109.619 15.174C110.809 15.174 111.943 14.628 111.943 12.85ZM109.339 16.182C107.925 16.182 106.749 15.398 106.749 14.012C106.749 12.234 108.765 11.702 111.845 11.366V11.184C111.845 9.798 111.089 9.35 110.137 9.35C109.073 9.35 108.471 9.91 108.415 10.848H107.099C107.211 9.224 108.667 8.314 110.123 8.314C112.209 8.314 113.133 9.294 113.119 11.422L113.105 13.158C113.091 14.432 113.147 15.286 113.301 16H112.013C111.971 15.72 111.929 15.412 111.915 14.964C111.453 15.748 110.683 16.182 109.339 16.182ZM119.596 5.85H120.59C120.478 6.69 119.946 7.544 118.35 7.544C116.81 7.544 116.222 6.69 116.152 5.85H117.146C117.202 6.298 117.538 6.704 118.364 6.704C119.19 6.704 119.54 6.298 119.596 5.85ZM120.254 16V10.316L116.362 16H115.088V8.468H116.362V14.152L120.254 8.468H121.528V16H120.254ZM126.221 5.668C127.803 5.668 129.385 6.438 129.385 8.132C129.385 9.476 128.447 10.414 127.495 11.016C126.627 11.576 126.319 11.828 126.319 12.598V13.032H125.017V12.556C125.017 11.38 125.577 10.876 126.753 10.12C127.481 9.658 128.055 9.098 128.055 8.188C128.055 7.292 127.271 6.732 126.193 6.732C124.639 6.732 124.107 7.824 124.065 8.678H122.791C122.791 6.858 124.247 5.668 126.221 5.668ZM126.501 16H124.891V14.39H126.501V16Z" fill="#8E8E8E"/>
</svg>
