<svg width="407" height="119" viewBox="0 0 407 119" fill="none" xmlns="http://www.w3.org/2000/svg">
<rect x="114.5" y="32.5" width="107" height="36" rx="18" stroke="#1E1E1E"/>
<rect x="227.5" y="32.5" width="68" height="36" rx="18" stroke="#1E1E1E"/>
<rect x="39" y="32" width="70" height="37" rx="18.5" fill="#0076DE"/>
<rect y="36" width="29" height="29" rx="14.5" fill="#C8C8C8"/>
<rect x="301.5" y="32.5" width="66" height="36" rx="18" stroke="#1E1E1E"/>
<path d="M141.4 59H138.7L133.7 43.2V59H131.15V40.875H135.425L140.05 55.975L144.675 40.875H148.95V59H146.4V43.2L141.4 59ZM161.37 53.375V52.525C157.245 52.925 154.62 53.55 154.62 55.4C154.62 56.675 155.595 57.525 157.22 57.525C159.345 57.525 161.37 56.55 161.37 53.375ZM156.72 59.325C154.195 59.325 152.095 57.925 152.095 55.45C152.095 52.275 155.695 51.325 161.195 50.725V50.4C161.195 47.925 159.845 47.125 158.145 47.125C156.245 47.125 155.17 48.125 155.07 49.8H152.72C152.92 46.9 155.52 45.275 158.12 45.275C161.845 45.275 163.495 47.025 163.47 50.825L163.445 53.925C163.42 56.2 163.52 57.725 163.795 59H161.495C161.42 58.5 161.345 57.95 161.32 57.15C160.495 58.55 159.12 59.325 156.72 59.325ZM176.935 49.475H174.56C174.185 47.875 172.985 47.25 171.385 47.25C170.06 47.25 168.56 47.725 168.56 48.95C168.56 50.025 169.31 50.5 170.61 50.775L172.51 51.15C174.96 51.6 177.11 52.575 177.11 55.15C177.11 57.825 174.71 59.325 171.635 59.325C168.11 59.325 166.135 57 165.86 54.65H168.26C168.635 56.375 169.685 57.4 171.685 57.4C173.41 57.4 174.81 56.675 174.81 55.4C174.81 54.025 173.535 53.5 172.085 53.175L170.085 52.775C168.26 52.375 166.26 51.575 166.26 49.05C166.26 46.675 168.66 45.3 171.635 45.3C174.56 45.3 176.51 46.9 176.935 49.475ZM182.269 40.875V47.575C183.044 46.3 184.344 45.325 186.619 45.325C189.869 45.325 191.044 47.425 191.044 50.5V59H188.769V51.175C188.769 49.1 188.419 47.3 185.819 47.3C183.619 47.3 182.269 48.8 182.269 51.7V59H179.994V40.875H182.269ZM202.922 53.375V52.525C198.797 52.925 196.172 53.55 196.172 55.4C196.172 56.675 197.147 57.525 198.772 57.525C200.897 57.525 202.922 56.55 202.922 53.375ZM198.272 59.325C195.747 59.325 193.647 57.925 193.647 55.45C193.647 52.275 197.247 51.325 202.747 50.725V50.4C202.747 47.925 201.397 47.125 199.697 47.125C197.797 47.125 196.722 48.125 196.622 49.8H194.272C194.472 46.9 197.072 45.275 199.672 45.275C203.397 45.275 205.047 47.025 205.022 50.825L204.997 53.925C204.972 56.2 205.072 57.725 205.347 59H203.047C202.972 58.5 202.897 57.95 202.872 57.15C202.047 58.55 200.672 59.325 198.272 59.325Z" fill="black"/>
<path d="M68.375 49.925C68.375 43.775 64.75 43.025 61.025 43.025H58.7V56.85H61.025C64.75 56.85 68.375 56.1 68.375 49.925ZM56.15 40.875H61.1C66.825 40.875 70.975 43.05 70.975 49.925C70.975 56.825 66.825 59 61.1 59H56.15V40.875ZM74.0617 45.55H76.3367V59H74.0617V45.55ZM74.0617 40.875H76.3367V43.625H74.0617V40.875ZM89.1705 47.675V40.875H91.4455V59H89.1705V56.975C88.3455 58.4 86.9455 59.325 84.7705 59.325C81.6705 59.325 79.0205 56.8 79.0205 52.325C79.0205 47.925 81.6705 45.325 84.7705 45.325C86.9455 45.325 88.3455 46.25 89.1705 47.675ZM89.2705 52.325C89.2705 48.775 87.3705 47.275 85.3455 47.275C83.0205 47.275 81.4955 49.1 81.4955 52.325C81.4955 55.55 83.0205 57.375 85.3455 57.375C87.3705 57.375 89.2705 55.875 89.2705 52.325Z" fill="white"/>
<path d="M246.075 40.875V59H243.8V40.875H246.075ZM249.684 45.55H251.959V59H249.684V45.55ZM249.684 40.875H251.959V43.625H249.684V40.875ZM255.568 40.875H257.843V51.6L263.268 45.55H266.068L260.943 51.125L266.768 59H263.993L259.418 52.8L257.843 54.5V59H255.568V40.875ZM279.698 53.025H269.348C269.423 55.925 271.523 57.325 273.498 57.325C275.498 57.325 276.598 56.425 277.173 55.1H279.523C278.923 57.4 276.773 59.325 273.498 59.325C269.248 59.325 266.898 56.275 266.898 52.3C266.898 48.025 269.748 45.325 273.423 45.325C277.548 45.325 279.973 48.75 279.698 53.025ZM273.423 47.275C271.423 47.275 269.573 48.375 269.373 51.075H277.298C277.223 49.175 275.848 47.275 273.423 47.275Z" fill="black"/>
<path d="M14.436 43.716C16.848 43.716 18.576 44.922 18.576 47.136C18.576 50.16 15.426 52.824 11.772 55.47H18.936V57H9.54V55.524C14.148 52.122 16.848 49.674 16.848 47.352C16.848 45.984 15.966 45.084 14.4 45.084C12.996 45.084 11.646 45.858 11.592 48.018H9.9C9.846 45.426 11.646 43.716 14.436 43.716Z" fill="white"/>
<path d="M318.45 45.55V42.175H320.725V45.55H323.275V47.375H320.725V55.35C320.725 56.75 320.825 57.1 322.125 57.1H323.275V59H321.625C319.05 59 318.45 58.425 318.45 55.625V47.375H316.325V45.55H318.45ZM337.683 53.025H327.333C327.408 55.925 329.508 57.325 331.483 57.325C333.483 57.325 334.583 56.425 335.158 55.1H337.508C336.908 57.4 334.758 59.325 331.483 59.325C327.233 59.325 324.883 56.275 324.883 52.3C324.883 48.025 327.733 45.325 331.408 45.325C335.533 45.325 337.958 48.75 337.683 53.025ZM331.408 47.275C329.408 47.275 327.558 48.375 327.358 51.075H335.283C335.208 49.175 333.833 47.275 331.408 47.275ZM348.687 53.375V52.525C344.562 52.925 341.937 53.55 341.937 55.4C341.937 56.675 342.912 57.525 344.537 57.525C346.662 57.525 348.687 56.55 348.687 53.375ZM344.037 59.325C341.512 59.325 339.412 57.925 339.412 55.45C339.412 52.275 343.012 51.325 348.512 50.725V50.4C348.512 47.925 347.162 47.125 345.462 47.125C343.562 47.125 342.487 48.125 342.387 49.8H340.037C340.237 46.9 342.837 45.275 345.437 45.275C349.162 45.275 350.812 47.025 350.787 50.825L350.762 53.925C350.737 56.2 350.837 57.725 351.112 59H348.812C348.737 58.5 348.662 57.95 348.637 57.15C347.812 58.55 346.437 59.325 344.037 59.325Z" fill="black"/>
<path d="M379.45 40.55C382.275 40.55 385.1 41.925 385.1 44.95C385.1 47.35 383.425 49.025 381.725 50.1C380.175 51.1 379.625 51.55 379.625 52.925V53.7H377.3V52.85C377.3 50.75 378.3 49.85 380.4 48.5C381.7 47.675 382.725 46.675 382.725 45.05C382.725 43.45 381.325 42.45 379.4 42.45C376.625 42.45 375.675 44.4 375.6 45.925H373.325C373.325 42.675 375.925 40.55 379.45 40.55ZM379.95 59H377.075V56.125H379.95V59Z" fill="black"/>
<path d="M7.084 16H5.572L2.772 7.152V16H1.344V5.85H3.738L6.328 14.306L8.918 5.85H11.312V16H9.884V7.152L7.084 16ZM18.4142 12.85V12.374C16.1042 12.598 14.6342 12.948 14.6342 13.984C14.6342 14.698 15.1802 15.174 16.0902 15.174C17.2802 15.174 18.4142 14.628 18.4142 12.85ZM15.8102 16.182C14.3962 16.182 13.2202 15.398 13.2202 14.012C13.2202 12.234 15.2362 11.702 18.3162 11.366V11.184C18.3162 9.798 17.5602 9.35 16.6082 9.35C15.5442 9.35 14.9422 9.91 14.8862 10.848H13.5702C13.6822 9.224 15.1382 8.314 16.5942 8.314C18.6802 8.314 19.6042 9.294 19.5902 11.422L19.5762 13.158C19.5622 14.432 19.6182 15.286 19.7722 16H18.4842C18.4422 15.72 18.4002 15.412 18.3862 14.964C17.9242 15.748 17.1542 16.182 15.8102 16.182ZM30.8405 8.468V16H21.5585V8.468H22.8325V14.894H25.5625V8.468H26.8365V14.894H29.5665V8.468H30.8405ZM37.6778 12.85V12.374C35.3678 12.598 33.8978 12.948 33.8978 13.984C33.8978 14.698 34.4438 15.174 35.3538 15.174C36.5438 15.174 37.6778 14.628 37.6778 12.85ZM35.0738 16.182C33.6598 16.182 32.4838 15.398 32.4838 14.012C32.4838 12.234 34.4998 11.702 37.5798 11.366V11.184C37.5798 9.798 36.8238 9.35 35.8718 9.35C34.8078 9.35 34.2058 9.91 34.1498 10.848H32.8338C32.9458 9.224 34.4018 8.314 35.8578 8.314C37.9438 8.314 38.8678 9.294 38.8538 11.422L38.8398 13.158C38.8258 14.432 38.8818 15.286 39.0358 16H37.7478C37.7058 15.72 37.6638 15.412 37.6498 14.964C37.1878 15.748 36.4178 16.182 35.0738 16.182ZM50.0944 8.468V16H48.8204V9.574H46.2864L46.1744 11.394C45.9924 14.432 45.3344 16 43.5844 16H43.3464V14.894H43.4864C44.1584 14.894 44.8024 14.166 44.9564 11.044L45.0684 8.468H50.0944ZM58.4398 8.342C60.1898 8.342 62.0518 9.532 62.0518 12.262C62.0518 14.992 60.1898 16.182 58.4398 16.182C56.8718 16.182 55.2058 15.118 55.0238 12.71H53.5258V16H52.2518V8.468H53.5258V11.604H55.0518C55.3178 9.322 56.8998 8.342 58.4398 8.342ZM58.4398 15.062C59.6018 15.062 60.6938 14.194 60.6938 12.262C60.6938 10.246 59.6018 9.462 58.4398 9.462C57.3898 9.462 56.3678 10.204 56.3678 12.262C56.3678 14.278 57.3898 15.062 58.4398 15.062ZM67.0422 8.902C68.7502 8.902 70.2202 10.092 70.2202 12.472C70.2202 14.894 68.6662 16.182 66.8182 16.182C64.8722 16.182 63.2762 14.824 63.2762 12.08V11.212C63.3182 8.496 64.2142 6.914 67.2382 6.312L69.7162 5.822V6.956L67.3082 7.474C65.4742 7.88 64.5922 8.566 64.4102 10.442C64.9142 9.392 65.9222 8.902 67.0422 8.902ZM66.8182 15.076C68.0502 15.076 68.8622 14.138 68.8622 12.5C68.8622 10.848 67.9942 10.008 66.8322 10.008C65.6842 10.008 64.6482 10.792 64.6482 12.486C64.6482 14.082 65.5442 15.076 66.8182 15.076ZM76.8866 16V10.316L72.9946 16H71.7206V8.468H72.9946V14.152L76.8866 8.468H78.1606V16H76.8866ZM86.2702 8.468V16H84.9962V9.574H82.4622L82.3502 11.394C82.1682 14.432 81.5102 16 79.7602 16H79.5222V14.894H79.6622C80.3342 14.894 80.9782 14.166 81.1322 11.044L81.2442 8.468H86.2702ZM93.1036 12.85V12.374C90.7936 12.598 89.3236 12.948 89.3236 13.984C89.3236 14.698 89.8696 15.174 90.7796 15.174C91.9696 15.174 93.1036 14.628 93.1036 12.85ZM90.4996 16.182C89.0856 16.182 87.9096 15.398 87.9096 14.012C87.9096 12.234 89.9256 11.702 93.0056 11.366V11.184C93.0056 9.798 92.2496 9.35 91.2976 9.35C90.2336 9.35 89.6316 9.91 89.5756 10.848H88.2596C88.3716 9.224 89.8276 8.314 91.2836 8.314C93.3696 8.314 94.2936 9.294 94.2796 11.422L94.2656 13.158C94.2516 14.432 94.3076 15.286 94.4616 16H93.1736C93.1316 15.72 93.0896 15.412 93.0756 14.964C92.6136 15.748 91.8436 16.182 90.4996 16.182ZM105.114 16H103.84V12.948C102.958 13.158 102.286 13.256 101.6 13.256C100.018 13.256 99.1922 12.556 99.1922 10.918V8.468H100.466V10.652C100.466 11.772 100.998 12.15 102.062 12.15C102.552 12.15 103.14 12.066 103.84 11.898V8.468H105.114V16ZM111.943 12.85V12.374C109.633 12.598 108.163 12.948 108.163 13.984C108.163 14.698 108.709 15.174 109.619 15.174C110.809 15.174 111.943 14.628 111.943 12.85ZM109.339 16.182C107.925 16.182 106.749 15.398 106.749 14.012C106.749 12.234 108.765 11.702 111.845 11.366V11.184C111.845 9.798 111.089 9.35 110.137 9.35C109.073 9.35 108.471 9.91 108.415 10.848H107.099C107.211 9.224 108.667 8.314 110.123 8.314C112.209 8.314 113.133 9.294 113.119 11.422L113.105 13.158C113.091 14.432 113.147 15.286 113.301 16H112.013C111.971 15.72 111.929 15.412 111.915 14.964C111.453 15.748 110.683 16.182 109.339 16.182ZM119.596 5.85H120.59C120.478 6.69 119.946 7.544 118.35 7.544C116.81 7.544 116.222 6.69 116.152 5.85H117.146C117.202 6.298 117.538 6.704 118.364 6.704C119.19 6.704 119.54 6.298 119.596 5.85ZM120.254 16V10.316L116.362 16H115.088V8.468H116.362V14.152L120.254 8.468H121.528V16H120.254ZM126.221 5.668C127.803 5.668 129.385 6.438 129.385 8.132C129.385 9.476 128.447 10.414 127.495 11.016C126.627 11.576 126.319 11.828 126.319 12.598V13.032H125.017V12.556C125.017 11.38 125.577 10.876 126.753 10.12C127.481 9.658 128.055 9.098 128.055 8.188C128.055 7.292 127.271 6.732 126.193 6.732C124.639 6.732 124.107 7.824 124.065 8.678H122.791C122.791 6.858 124.247 5.668 126.221 5.668ZM126.501 16H124.891V14.39H126.501V16Z" fill="#8E8E8E"/>
<path d="M88.3536 77.6464C88.1583 77.4512 87.8417 77.4512 87.6464 77.6464L84.4645 80.8284C84.2692 81.0237 84.2692 81.3403 84.4645 81.5355C84.6597 81.7308 84.9763 81.7308 85.1716 81.5355L88 78.7071L90.8284 81.5355C91.0237 81.7308 91.3403 81.7308 91.5355 81.5355C91.7308 81.3403 91.7308 81.0237 91.5355 80.8284L88.3536 77.6464ZM87.5 78C87.5 78.7182 87.5621 79.4309 87.6843 80.1371L88.6697 79.9666C88.5571 79.316 88.5 78.6603 88.5 78H87.5ZM89.0585 84.1658C89.6745 85.3665 90.4653 86.5386 91.4174 87.6788L92.185 87.0379C91.2741 85.947 90.5263 84.8361 89.9482 83.7093L89.0585 84.1658ZM94.3617 90.6708C95.3604 91.5476 96.4589 92.4032 97.6512 93.2357L98.2237 92.4158C97.0584 91.6021 95.9895 90.7692 95.0215 89.9193L94.3617 90.6708ZM101.167 95.469C102.327 96.1421 103.551 96.7977 104.838 97.435L105.282 96.5389C104.013 95.9107 102.808 95.2653 101.669 94.6041L101.167 95.469ZM108.602 99.1718C109.839 99.7039 111.121 100.221 112.448 100.722L112.801 99.7866C111.488 99.2905 110.219 98.7791 108.997 98.2532L108.602 99.1718ZM116.363 102.113C117.644 102.54 118.96 102.954 120.308 103.354L120.592 102.395C119.254 101.999 117.949 101.588 116.679 101.164L116.363 102.113ZM124.291 104.467C125.604 104.813 126.943 105.146 128.307 105.465L128.535 104.491C127.179 104.174 125.849 103.844 124.546 103.5L124.291 104.467ZM132.349 106.355C133.682 106.631 135.037 106.895 136.412 107.146L136.591 106.162C135.224 105.912 133.877 105.65 132.552 105.376L132.349 106.355ZM140.49 107.842C141.837 108.057 143.201 108.259 144.582 108.45L144.718 107.459C143.344 107.27 141.987 107.068 140.647 106.855L140.49 107.842ZM148.684 108.973C150.04 109.132 151.41 109.279 152.794 109.414L152.892 108.419C151.514 108.285 150.15 108.138 148.8 107.979L148.684 108.973ZM156.912 109.778C158.275 109.886 159.65 109.982 161.035 110.066L161.096 109.068C159.716 108.984 158.348 108.888 156.991 108.781L156.912 109.778ZM165.163 110.28C166.531 110.338 167.908 110.385 169.294 110.421L169.319 109.421C167.939 109.386 166.568 109.339 165.206 109.28L165.163 110.28ZM173.427 110.491C174.116 110.497 174.807 110.5 175.5 110.5V109.5C174.81 109.5 174.121 109.497 173.435 109.491L173.427 110.491ZM175.5 110.5C176.193 110.5 176.884 110.497 177.573 110.491L177.565 109.491C176.879 109.497 176.19 109.5 175.5 109.5V110.5ZM181.706 110.421C183.092 110.385 184.469 110.338 185.837 110.28L185.794 109.28C184.432 109.339 183.061 109.386 181.681 109.421L181.706 110.421ZM189.965 110.066C191.35 109.982 192.725 109.886 194.088 109.778L194.009 108.781C192.652 108.888 191.284 108.984 189.904 109.068L189.965 110.066ZM198.206 109.414C199.59 109.279 200.96 109.132 202.316 108.973L202.2 107.979C200.85 108.138 199.486 108.285 198.108 108.419L198.206 109.414ZM206.418 108.45C207.799 108.259 209.163 108.057 210.51 107.842L210.353 106.855C209.013 107.068 207.656 107.27 206.282 107.459L206.418 108.45ZM214.588 107.146C215.963 106.895 217.318 106.631 218.651 106.355L218.448 105.376C217.123 105.65 215.776 105.912 214.409 106.162L214.588 107.146ZM222.693 105.465C224.057 105.146 225.396 104.813 226.709 104.467L226.454 103.5C225.151 103.844 223.821 104.174 222.465 104.491L222.693 105.465ZM230.692 103.354C232.04 102.954 233.356 102.54 234.637 102.113L234.321 101.164C233.051 101.588 231.746 101.999 230.408 102.395L230.692 103.354ZM238.552 100.722C239.879 100.221 241.161 99.7039 242.398 99.1718L242.003 98.2532C240.781 98.7791 239.512 99.2905 238.199 99.7866L238.552 100.722ZM246.162 97.435C247.449 96.7978 248.673 96.1421 249.833 95.469L249.331 94.6041C248.192 95.2653 246.986 95.9107 245.718 96.5389L246.162 97.435ZM253.349 93.2357C254.541 92.4032 255.64 91.5476 256.638 90.6708L255.978 89.9193C255.01 90.7692 253.942 91.6021 252.776 92.4158L253.349 93.2357ZM259.583 87.6789C260.535 86.5386 261.325 85.3665 261.941 84.1658L261.052 83.7093C260.474 84.8361 259.726 85.947 258.815 87.0379L259.583 87.6789ZM263.316 80.1371C263.438 79.4309 263.5 78.7182 263.5 78H262.5C262.5 78.6603 262.443 79.316 262.33 79.9666L263.316 80.1371ZM88.3536 77.6464C88.1583 77.4512 87.8417 77.4512 87.6464 77.6464L84.4645 80.8284C84.2692 81.0237 84.2692 81.3403 84.4645 81.5355C84.6597 81.7308 84.9763 81.7308 85.1716 81.5355L88 78.7071L90.8284 81.5355C91.0237 81.7308 91.3403 81.7308 91.5355 81.5355C91.7308 81.3403 91.7308 81.0237 91.5355 80.8284L88.3536 77.6464ZM87.5 78C87.5 78.7182 87.5621 79.4309 87.6843 80.1371L88.6697 79.9666C88.5571 79.316 88.5 78.6603 88.5 78H87.5ZM89.0585 84.1658C89.6745 85.3665 90.4653 86.5386 91.4174 87.6788L92.185 87.0379C91.2741 85.947 90.5263 84.8361 89.9482 83.7093L89.0585 84.1658ZM94.3617 90.6708C95.3604 91.5476 96.4589 92.4032 97.6512 93.2357L98.2237 92.4158C97.0584 91.6021 95.9895 90.7692 95.0215 89.9193L94.3617 90.6708ZM101.167 95.469C102.327 96.1421 103.551 96.7977 104.838 97.435L105.282 96.5389C104.013 95.9107 102.808 95.2653 101.669 94.6041L101.167 95.469ZM108.602 99.1718C109.839 99.7039 111.121 100.221 112.448 100.722L112.801 99.7866C111.488 99.2905 110.219 98.7791 108.997 98.2532L108.602 99.1718ZM116.363 102.113C117.644 102.54 118.96 102.954 120.308 103.354L120.592 102.395C119.254 101.999 117.949 101.588 116.679 101.164L116.363 102.113ZM124.291 104.467C125.604 104.813 126.943 105.146 128.307 105.465L128.535 104.491C127.179 104.174 125.849 103.844 124.546 103.5L124.291 104.467ZM132.349 106.355C133.682 106.631 135.037 106.895 136.412 107.146L136.591 106.162C135.224 105.912 133.877 105.65 132.552 105.376L132.349 106.355ZM140.49 107.842C141.837 108.057 143.201 108.259 144.582 108.45L144.718 107.459C143.344 107.27 141.987 107.068 140.647 106.855L140.49 107.842ZM148.684 108.973C150.04 109.132 151.41 109.279 152.794 109.414L152.892 108.419C151.514 108.285 150.15 108.138 148.8 107.979L148.684 108.973ZM156.912 109.778C158.275 109.886 159.65 109.982 161.035 110.066L161.096 109.068C159.716 108.984 158.348 108.888 156.991 108.781L156.912 109.778ZM165.163 110.28C166.531 110.338 167.908 110.385 169.294 110.421L169.319 109.421C167.939 109.386 166.568 109.339 165.206 109.28L165.163 110.28ZM173.427 110.491C174.116 110.497 174.807 110.5 175.5 110.5V109.5C174.81 109.5 174.121 109.497 173.435 109.491L173.427 110.491ZM175.5 110.5C176.193 110.5 176.884 110.497 177.573 110.491L177.565 109.491C176.879 109.497 176.19 109.5 175.5 109.5V110.5ZM181.706 110.421C183.092 110.385 184.469 110.338 185.837 110.28L185.794 109.28C184.432 109.339 183.061 109.386 181.681 109.421L181.706 110.421ZM189.965 110.066C191.35 109.982 192.725 109.886 194.088 109.778L194.009 108.781C192.652 108.888 191.284 108.984 189.904 109.068L189.965 110.066ZM198.206 109.414C199.59 109.279 200.96 109.132 202.316 108.973L202.2 107.979C200.85 108.138 199.486 108.285 198.108 108.419L198.206 109.414ZM206.418 108.45C207.799 108.259 209.163 108.057 210.51 107.842L210.353 106.855C209.013 107.068 207.656 107.27 206.282 107.459L206.418 108.45ZM214.588 107.146C215.963 106.895 217.318 106.631 218.651 106.355L218.448 105.376C217.123 105.65 215.776 105.912 214.409 106.162L214.588 107.146ZM222.693 105.465C224.057 105.146 225.396 104.813 226.709 104.467L226.454 103.5C225.151 103.844 223.821 104.174 222.465 104.491L222.693 105.465ZM230.692 103.354C232.04 102.954 233.356 102.54 234.637 102.113L234.321 101.164C233.051 101.588 231.746 101.999 230.408 102.395L230.692 103.354ZM238.552 100.722C239.879 100.221 241.161 99.7039 242.398 99.1718L242.003 98.2532C240.781 98.7791 239.512 99.2905 238.199 99.7866L238.552 100.722ZM246.162 97.435C247.449 96.7978 248.673 96.1421 249.833 95.469L249.331 94.6041C248.192 95.2653 246.986 95.9107 245.718 96.5389L246.162 97.435ZM253.349 93.2357C254.541 92.4032 255.64 91.5476 256.638 90.6708L255.978 89.9193C255.01 90.7692 253.942 91.6021 252.776 92.4158L253.349 93.2357ZM259.583 87.6789C260.535 86.5386 261.325 85.3665 261.941 84.1658L261.052 83.7093C260.474 84.8361 259.726 85.947 258.815 87.0379L259.583 87.6789ZM263.316 80.1371C263.438 79.4309 263.5 78.7182 263.5 78H262.5C262.5 78.6603 262.443 79.316 262.33 79.9666L263.316 80.1371Z" fill="url(#paint0_linear_1424_10372)"/>
<circle cx="176.5" cy="109.5" r="9.5" fill="#0076DE"/>
<path d="M176.5 103V109.5L181.5 113.5" stroke="white"/>
<defs>
<linearGradient id="paint0_linear_1424_10372" x1="88" y1="78" x2="263" y2="78" gradientUnits="userSpaceOnUse">
<stop stop-color="#0076DE"/>
<stop offset="1" stop-color="#1E1E1E"/>
</linearGradient>
</defs>
</svg>
