<svg width="710" height="295" viewBox="0 0 710 295" fill="none" xmlns="http://www.w3.org/2000/svg">
<path d="M10 1H291V294H10C5.02943 294 1 289.971 1 285V10C1 5.02943 5.02944 1 10 1Z" stroke="#E3E3E3" stroke-width="2"/>
<path d="M24.512 58.6V76H22.064V58.6H24.512ZM20 90.6H22.688L27.44 99.096L32.288 90.6H34.976L28.592 101.256V108H26.144V101.208L20 90.6ZM36.0363 101.592C36.0363 105.048 37.9083 106.392 39.9003 106.392C41.8923 106.392 43.7643 104.904 43.7643 101.592C43.7643 98.136 41.8923 96.792 39.9003 96.792C37.9083 96.792 36.0363 98.064 36.0363 101.592ZM39.9003 94.872C42.9003 94.872 46.0923 96.912 46.0923 101.592C46.0923 106.272 42.9003 108.312 39.9003 108.312C36.9003 108.312 33.7083 106.272 33.7083 101.592C33.7083 96.912 36.9003 94.872 39.9003 94.872ZM56.6966 108V106.152C55.9526 107.376 54.7766 108.312 52.6406 108.312C49.6646 108.312 48.5126 106.296 48.5126 103.344V95.088H50.6966V102.696C50.6966 104.688 51.0086 106.416 53.4086 106.416C55.4966 106.416 56.6966 104.976 56.6966 102.192V95.088H58.8806V108H56.6966ZM32.528 122.6L35.96 137.216L39.176 122.6H41.744L37.4 140H34.424L31.064 125.696L27.776 140H24.8L20.384 122.6H23.072L26.432 137.216L29.648 122.6H32.528ZM54.5264 134.264H44.5904C44.6624 137.048 46.6784 138.392 48.5744 138.392C50.4944 138.392 51.5504 137.528 52.1024 136.256H54.3584C53.7824 138.464 51.7184 140.312 48.5744 140.312C44.4944 140.312 42.2384 137.384 42.2384 133.568C42.2384 129.464 44.9744 126.872 48.5024 126.872C52.4624 126.872 54.7904 130.16 54.5264 134.264ZM48.5024 128.744C46.5824 128.744 44.8064 129.8 44.6144 132.392H52.2224C52.1504 130.568 50.8304 128.744 48.5024 128.744ZM25.664 172V156.712H20V154.6H33.776V156.712H28.112V172H25.664ZM37.2245 154.6V161.032C37.9685 159.808 39.2165 158.872 41.4005 158.872C44.5205 158.872 45.6485 160.888 45.6485 163.84V172H43.4645V164.488C43.4645 162.496 43.1285 160.768 40.6325 160.768C38.5205 160.768 37.2245 162.208 37.2245 164.992V172H35.0405V154.6H37.2245ZM60.3155 166.264H50.3795C50.4515 169.048 52.4675 170.392 54.3635 170.392C56.2835 170.392 57.3395 169.528 57.8915 168.256H60.1475C59.5715 170.464 57.5075 172.312 54.3635 172.312C50.2835 172.312 48.0275 169.384 48.0275 165.568C48.0275 161.464 50.7635 158.872 54.2915 158.872C58.2515 158.872 60.5795 162.16 60.3155 166.264ZM54.2915 160.744C52.3715 160.744 50.5955 161.8 50.4035 164.392H58.0115C57.9395 162.568 56.6195 160.744 54.2915 160.744ZM69.9196 159.088H72.1996L67.5916 172.552C66.6316 175.336 66.0076 176.2 63.1036 176.2H61.9756V174.376H62.8636C64.3036 174.376 64.9996 174.28 65.5756 172.264L65.6716 172L61.0156 159.088H63.4396L66.7276 169.048L69.9196 159.088ZM33.656 186.6H36.104V204H33.656V196.104H24.512V204H22.064V186.6H24.512V193.992H33.656V186.6ZM51.2921 198.264H41.3561C41.4281 201.048 43.4441 202.392 45.3401 202.392C47.2601 202.392 48.3161 201.528 48.8681 200.256H51.1241C50.5481 202.464 48.4841 204.312 45.3401 204.312C41.2601 204.312 39.0041 201.384 39.0041 197.568C39.0041 193.464 41.7401 190.872 45.2681 190.872C49.2281 190.872 51.5561 194.16 51.2921 198.264ZM45.2681 192.744C43.3481 192.744 41.5721 193.8 41.3801 196.392H48.9881C48.9161 194.568 47.5961 192.744 45.2681 192.744ZM21.344 223.04C21.344 219.704 24.824 218.288 27.632 218.288C30.776 218.288 33.536 219.704 34.232 223.04H31.856C31.28 221.048 29.264 220.352 27.536 220.352C26.192 220.352 23.84 220.952 23.84 222.896C23.84 224.432 25.04 225.2 26.672 225.56L28.688 226.016C31.352 226.592 34.544 227.6 34.544 231.104C34.544 234.488 31.376 236.312 27.92 236.312C23.816 236.312 21.224 234.056 20.768 230.6H23.168C23.624 233 25.28 234.248 27.968 234.248C30.56 234.248 32.024 233.048 32.024 231.32C32.024 229.472 30.44 228.752 28.28 228.248L26.12 227.792C23.72 227.264 21.344 225.92 21.344 223.04ZM39.287 218.6V225.032C40.031 223.808 41.279 222.872 43.463 222.872C46.583 222.872 47.711 224.888 47.711 227.84V236H45.527V228.488C45.527 226.496 45.191 224.768 42.695 224.768C40.583 224.768 39.287 226.208 39.287 228.992V236H37.103V218.6H39.287ZM62.378 230.264H52.442C52.514 233.048 54.53 234.392 56.426 234.392C58.346 234.392 59.402 233.528 59.954 232.256H62.21C61.634 234.464 59.57 236.312 56.426 236.312C52.346 236.312 50.09 233.384 50.09 229.568C50.09 225.464 52.826 222.872 56.354 222.872C60.314 222.872 62.642 226.16 62.378 230.264ZM56.354 224.744C54.434 224.744 52.658 225.8 52.466 228.392H60.074C60.002 226.568 58.682 224.744 56.354 224.744ZM24.512 250.6V268H22.064V250.6H24.512ZM28.9379 255.088V251.848H31.1219V255.088H33.5699V256.84H31.1219V264.496C31.1219 265.84 31.2179 266.176 32.4659 266.176H33.5699V268H31.9859C29.5139 268 28.9379 267.448 28.9379 264.76V256.84H26.8979V255.088H28.9379Z" fill="#1E1E1E"/>
<rect x="212.5" y="145.5" width="37" height="37" rx="2.5" stroke="#1E1E1E"/>
<path d="M223.264 155.6H225.952L230.776 170.48L235.504 155.6H238.072L232.168 173H229.24L223.264 155.6Z" fill="#1E1E1E"/>
<path d="M266.192 155.288C268.904 155.288 271.616 156.608 271.616 159.512C271.616 161.816 270.008 163.424 268.376 164.456C266.888 165.416 266.36 165.848 266.36 167.168V167.912H264.128V167.096C264.128 165.08 265.088 164.216 267.104 162.92C268.352 162.128 269.336 161.168 269.336 159.608C269.336 158.072 267.992 157.112 266.144 157.112C263.48 157.112 262.568 158.984 262.496 160.448H260.312C260.312 157.328 262.808 155.288 266.192 155.288ZM266.672 173H263.912V170.24H266.672V173Z" fill="#1E1E1E"/>
<rect x="93" y="144" width="57" height="38" rx="3" fill="#0076DE"/>
<path d="M114.584 161.128V154.6H116.768V172H114.584V170.056C113.792 171.424 112.448 172.312 110.36 172.312C107.384 172.312 104.84 169.888 104.84 165.592C104.84 161.368 107.384 158.872 110.36 158.872C112.448 158.872 113.792 159.76 114.584 161.128ZM114.68 165.592C114.68 162.184 112.856 160.744 110.912 160.744C108.68 160.744 107.216 162.496 107.216 165.592C107.216 168.688 108.68 170.44 110.912 170.44C112.856 170.44 114.68 169 114.68 165.592ZM120.212 159.088H122.396V172H120.212V159.088ZM120.212 154.6H122.396V157.24H120.212V154.6ZM134.717 161.128V154.6H136.901V172H134.717V170.056C133.925 171.424 132.581 172.312 130.493 172.312C127.517 172.312 124.973 169.888 124.973 165.592C124.973 161.368 127.517 158.872 130.493 158.872C132.581 158.872 133.925 159.76 134.717 161.128ZM134.813 165.592C134.813 162.184 132.989 160.744 131.045 160.744C128.813 160.744 127.349 162.496 127.349 165.592C127.349 168.688 128.813 170.44 131.045 170.44C132.989 170.44 134.813 169 134.813 165.592Z" fill="white"/>
<path d="M159.912 159.088V161.032C160.656 159.808 161.904 158.872 164.088 158.872C167.208 158.872 168.336 160.888 168.336 163.84V172H166.152V164.488C166.152 162.496 165.816 160.768 163.32 160.768C161.208 160.768 159.912 162.208 159.912 164.992V172H157.728V159.088H159.912ZM173.091 165.592C173.091 169.048 174.963 170.392 176.955 170.392C178.947 170.392 180.819 168.904 180.819 165.592C180.819 162.136 178.947 160.792 176.955 160.792C174.963 160.792 173.091 162.064 173.091 165.592ZM176.955 158.872C179.955 158.872 183.147 160.912 183.147 165.592C183.147 170.272 179.955 172.312 176.955 172.312C173.955 172.312 170.763 170.272 170.763 165.592C170.763 160.912 173.955 158.872 176.955 158.872ZM186.266 159.088V155.848H188.45V159.088H190.898V160.84H188.45V168.496C188.45 169.84 188.546 170.176 189.794 170.176H190.898V172H189.314C186.842 172 186.266 171.448 186.266 168.76V160.84H184.226V159.088H186.266Z" fill="#1E1E1E"/>
<path d="M22.76 30.555C22.76 33.12 24.17 34.485 25.865 34.485C27.56 34.485 28.97 33.12 28.97 30.555C28.97 28.005 27.56 26.64 25.865 26.64C24.17 26.64 22.76 28.005 22.76 30.555ZM31.19 30.555C31.19 33.93 29.105 36.195 25.865 36.195C22.625 36.195 20.54 33.93 20.54 30.555C20.54 27.18 22.625 24.93 25.865 24.93C29.105 24.93 31.19 27.18 31.19 30.555ZM36.6534 36H34.5834V29.565H31.9584V27.93H39.2784V29.565H36.6534V36ZM44.4171 34.605C45.4971 34.605 46.2621 33.555 46.2621 31.98C46.2621 30.405 45.4971 29.34 44.4171 29.34C43.2771 29.34 42.5271 30.345 42.5271 31.965C42.5271 33.63 43.2771 34.605 44.4171 34.605ZM42.6021 38.625H40.5321V27.93H42.6021V28.965C43.0371 28.2 43.9071 27.75 44.9271 27.75C46.8771 27.75 48.4371 29.43 48.4371 31.965C48.4371 34.545 46.8321 36.195 44.9121 36.195C44.0721 36.195 43.1271 35.88 42.6021 34.98V38.625ZM51.9478 36H49.8778V27.93H51.9028V33.435L55.4578 27.93H57.5278V36H55.5028V30.69L51.9478 36ZM67.9443 37.875H66.0243V36H59.6043V27.93H61.6743V34.365H64.6293V27.93H66.6993V34.455H67.9443V37.875ZM74.0315 32.91V32.31C71.7065 32.55 70.7915 32.82 70.7915 33.72C70.7915 34.305 71.2415 34.785 72.1865 34.785C73.4915 34.785 74.0315 34.095 74.0315 32.91ZM74.2115 34.995C73.6265 35.835 72.7865 36.195 71.5715 36.195C70.0265 36.195 68.6615 35.295 68.6615 33.825C68.6615 31.92 70.7915 31.35 73.9715 30.99V30.855C73.9715 29.61 73.2965 29.175 72.4565 29.175C71.6615 29.175 71.0015 29.58 70.9565 30.48H69.0215C69.1865 28.89 70.4765 27.72 72.5615 27.72C74.4665 27.72 76.0415 28.56 76.0415 31.275C76.0415 31.515 76.0115 32.61 76.0115 33.33C76.0115 34.605 76.0865 35.325 76.2515 36H74.3465C74.2865 35.745 74.2565 35.4 74.2115 34.995ZM79.9409 36H77.8709V27.93H79.9409V31.05H83.3009V27.93H85.3709V36H83.3009V32.685H79.9409V36ZM89.5064 36H87.4364V27.93H89.4614V33.435L93.0164 27.93H95.0864V36H93.0614V30.69L89.5064 36ZM104.543 32.535H98.5879C98.7079 33.915 99.6379 34.59 100.628 34.59C101.273 34.59 101.903 34.365 102.323 33.66H104.453C104.018 34.86 102.848 36.195 100.643 36.195C98.0479 36.195 96.5329 34.26 96.5329 31.935C96.5329 29.535 98.1979 27.75 100.583 27.75C103.073 27.75 104.618 29.685 104.543 32.535ZM100.568 29.265C99.7879 29.265 98.7829 29.745 98.6179 31.11H102.443C102.398 29.745 101.438 29.265 100.568 29.265Z" fill="#0F0F0F"/>
<rect x="291" y="1" width="172" height="293" stroke="#E3E3E3" stroke-width="2"/>
<path d="M314.512 58.6V76H312.064V58.6H314.512ZM310 90.6H312.688L317.44 99.096L322.288 90.6H324.976L318.592 101.256V108H316.144V101.208L310 90.6ZM326.036 101.592C326.036 105.048 327.908 106.392 329.9 106.392C331.892 106.392 333.764 104.904 333.764 101.592C333.764 98.136 331.892 96.792 329.9 96.792C327.908 96.792 326.036 98.064 326.036 101.592ZM329.9 94.872C332.9 94.872 336.092 96.912 336.092 101.592C336.092 106.272 332.9 108.312 329.9 108.312C326.9 108.312 323.708 106.272 323.708 101.592C323.708 96.912 326.9 94.872 329.9 94.872ZM346.697 108V106.152C345.953 107.376 344.777 108.312 342.641 108.312C339.665 108.312 338.513 106.296 338.513 103.344V95.088H340.697V102.696C340.697 104.688 341.009 106.416 343.409 106.416C345.497 106.416 346.697 104.976 346.697 102.192V95.088H348.881V108H346.697ZM322.528 122.6L325.96 137.216L329.176 122.6H331.744L327.4 140H324.424L321.064 125.696L317.776 140H314.8L310.384 122.6H313.072L316.432 137.216L319.648 122.6H322.528ZM344.526 134.264H334.59C334.662 137.048 336.678 138.392 338.574 138.392C340.494 138.392 341.55 137.528 342.102 136.256H344.358C343.782 138.464 341.718 140.312 338.574 140.312C334.494 140.312 332.238 137.384 332.238 133.568C332.238 129.464 334.974 126.872 338.502 126.872C342.462 126.872 344.79 130.16 344.526 134.264ZM338.502 128.744C336.582 128.744 334.806 129.8 334.614 132.392H342.222C342.15 130.568 340.83 128.744 338.502 128.744ZM315.664 172V156.712H310V154.6H323.776V156.712H318.112V172H315.664ZM327.225 154.6V161.032C327.969 159.808 329.217 158.872 331.401 158.872C334.521 158.872 335.648 160.888 335.648 163.84V172H333.465V164.488C333.465 162.496 333.129 160.768 330.633 160.768C328.521 160.768 327.225 162.208 327.225 164.992V172H325.041V154.6H327.225ZM350.316 166.264H340.38C340.452 169.048 342.468 170.392 344.364 170.392C346.284 170.392 347.34 169.528 347.892 168.256H350.148C349.572 170.464 347.508 172.312 344.364 172.312C340.284 172.312 338.028 169.384 338.028 165.568C338.028 161.464 340.764 158.872 344.292 158.872C348.252 158.872 350.58 162.16 350.316 166.264ZM344.292 160.744C342.372 160.744 340.596 161.8 340.404 164.392H348.012C347.94 162.568 346.62 160.744 344.292 160.744ZM359.92 159.088H362.2L357.592 172.552C356.632 175.336 356.008 176.2 353.104 176.2H351.976V174.376H352.864C354.304 174.376 355 174.28 355.576 172.264L355.672 172L351.016 159.088H353.44L356.728 169.048L359.92 159.088ZM323.656 186.6H326.104V204H323.656V196.104H314.512V204H312.064V186.6H314.512V193.992H323.656V186.6ZM341.292 198.264H331.356C331.428 201.048 333.444 202.392 335.34 202.392C337.26 202.392 338.316 201.528 338.868 200.256H341.124C340.548 202.464 338.484 204.312 335.34 204.312C331.26 204.312 329.004 201.384 329.004 197.568C329.004 193.464 331.74 190.872 335.268 190.872C339.228 190.872 341.556 194.16 341.292 198.264ZM335.268 192.744C333.348 192.744 331.572 193.8 331.38 196.392H338.988C338.916 194.568 337.596 192.744 335.268 192.744ZM311.344 223.04C311.344 219.704 314.824 218.288 317.632 218.288C320.776 218.288 323.536 219.704 324.232 223.04H321.856C321.28 221.048 319.264 220.352 317.536 220.352C316.192 220.352 313.84 220.952 313.84 222.896C313.84 224.432 315.04 225.2 316.672 225.56L318.688 226.016C321.352 226.592 324.544 227.6 324.544 231.104C324.544 234.488 321.376 236.312 317.92 236.312C313.816 236.312 311.224 234.056 310.768 230.6H313.168C313.624 233 315.28 234.248 317.968 234.248C320.56 234.248 322.024 233.048 322.024 231.32C322.024 229.472 320.44 228.752 318.28 228.248L316.12 227.792C313.72 227.264 311.344 225.92 311.344 223.04ZM329.287 218.6V225.032C330.031 223.808 331.279 222.872 333.463 222.872C336.583 222.872 337.711 224.888 337.711 227.84V236H335.527V228.488C335.527 226.496 335.191 224.768 332.695 224.768C330.583 224.768 329.287 226.208 329.287 228.992V236H327.103V218.6H329.287ZM352.378 230.264H342.442C342.514 233.048 344.53 234.392 346.426 234.392C348.346 234.392 349.402 233.528 349.954 232.256H352.21C351.634 234.464 349.57 236.312 346.426 236.312C342.346 236.312 340.09 233.384 340.09 229.568C340.09 225.464 342.826 222.872 346.354 222.872C350.314 222.872 352.642 226.16 352.378 230.264ZM346.354 224.744C344.434 224.744 342.658 225.8 342.466 228.392H350.074C350.002 226.568 348.682 224.744 346.354 224.744ZM314.512 250.6V268H312.064V250.6H314.512ZM318.938 255.088V251.848H321.122V255.088H323.57V256.84H321.122V264.496C321.122 265.84 321.218 266.176 322.466 266.176H323.57V268H321.986C319.514 268 318.938 267.448 318.938 264.76V256.84H316.898V255.088H318.938Z" fill="#1E1E1E"/>
<rect x="383" y="144" width="61" height="38" rx="3" fill="#0076DE"/>
<path d="M394.264 154.6H396.952L401.776 169.48L406.504 154.6H409.072L403.168 172H400.24L394.264 154.6Z" fill="white"/>
<rect x="412" y="153" width="21" height="21" rx="10.5" fill="white"/>
<path d="M422.832 157.192C424.976 157.192 426.512 158.264 426.512 160.232C426.512 162.92 423.712 165.288 420.464 167.64H426.832V169H418.48V167.688C422.576 164.664 424.976 162.488 424.976 160.424C424.976 159.208 424.192 158.408 422.8 158.408C421.552 158.408 420.352 159.096 420.304 161.016H418.8C418.752 158.712 420.352 157.192 422.832 157.192Z" fill="#0076DE"/>
<path d="M312.85 36.195H311.575V34.455H312.685C313.27 34.455 313.585 34.335 313.885 33.87L314.05 33.615L310.075 25.125H312.415L315.145 31.395L317.59 25.125H319.945L316.075 33.93C315.475 35.31 314.65 36.195 312.85 36.195ZM324.119 36H322.049V29.565H319.424V27.93H326.744V29.565H324.119V36ZM332.153 36H327.998V27.93H331.973C333.698 27.93 335.063 28.35 335.063 30.03C335.063 30.825 334.718 31.38 334.043 31.695C334.823 31.95 335.393 32.52 335.393 33.54C335.393 35.31 334.028 36 332.153 36ZM330.068 32.535V34.38H331.943C332.903 34.38 333.383 34.065 333.383 33.45C333.383 32.805 332.888 32.535 331.928 32.535H330.068ZM330.068 29.55V31.185H331.823C332.603 31.185 333.068 30.93 333.068 30.33C333.068 29.715 332.603 29.55 331.808 29.55H330.068ZM344.401 32.535H338.446C338.566 33.915 339.496 34.59 340.486 34.59C341.131 34.59 341.761 34.365 342.181 33.66H344.311C343.876 34.86 342.706 36.195 340.501 36.195C337.906 36.195 336.391 34.26 336.391 31.935C336.391 29.535 338.056 27.75 340.441 27.75C342.931 27.75 344.476 29.685 344.401 32.535ZM340.426 29.265C339.646 29.265 338.641 29.745 338.476 31.11H342.301C342.256 29.745 341.296 29.265 340.426 29.265ZM349.725 34.605C350.805 34.605 351.57 33.555 351.57 31.98C351.57 30.405 350.805 29.34 349.725 29.34C348.585 29.34 347.835 30.345 347.835 31.965C347.835 33.63 348.585 34.605 349.725 34.605ZM347.91 38.625H345.84V27.93H347.91V28.965C348.345 28.2 349.215 27.75 350.235 27.75C352.185 27.75 353.745 29.43 353.745 31.965C353.745 34.545 352.14 36.195 350.22 36.195C349.38 36.195 348.435 35.88 347.91 34.98V38.625ZM356.273 36H353.888L356.858 31.74L354.098 27.93H356.408L358.988 31.71H359.003V27.93H361.073V31.71H361.088L363.698 27.93H366.083L363.263 31.74L366.233 36H363.803L361.088 31.905H361.073V36H359.003V31.905H358.988L356.273 36ZM368.454 37.875H366.534V34.365H366.984C367.764 34.365 368.154 33.69 368.319 30.33L368.424 27.93H374.619V34.365H375.864V37.875H373.944V36H368.454V37.875ZM369.399 34.365H372.549V29.565H370.284L370.194 31.035C370.074 32.715 369.969 33.465 369.399 34.365ZM384.465 32.535H378.51C378.63 33.915 379.56 34.59 380.55 34.59C381.195 34.59 381.825 34.365 382.245 33.66H384.375C383.94 34.86 382.77 36.195 380.565 36.195C377.97 36.195 376.455 34.26 376.455 31.935C376.455 29.535 378.12 27.75 380.505 27.75C382.995 27.75 384.54 29.685 384.465 32.535ZM380.49 29.265C379.71 29.265 378.705 29.745 378.54 31.11H382.365C382.32 29.745 381.36 29.265 380.49 29.265ZM387.973 36H385.903V27.93H387.973V31.05H391.333V27.93H393.403V36H391.333V32.685H387.973V36ZM397.539 36H395.469V27.93H397.494V33.435L401.049 27.93H403.119V36H401.094V30.69L397.539 36ZM412.575 32.535H406.62C406.74 33.915 407.67 34.59 408.66 34.59C409.305 34.59 409.935 34.365 410.355 33.66H412.485C412.05 34.86 410.88 36.195 408.675 36.195C406.08 36.195 404.565 34.26 404.565 31.935C404.565 29.535 406.23 27.75 408.615 27.75C411.105 27.75 412.65 29.685 412.575 32.535ZM408.6 29.265C407.82 29.265 406.815 29.745 406.65 31.11H410.475C410.43 29.745 409.47 29.265 408.6 29.265Z" fill="#0F0F0F"/>
<path d="M463 1H700C704.971 1 709 5.02944 709 10V285C709 289.971 704.971 294 700 294H463V1Z" stroke="#E3E3E3" stroke-width="2"/>
<path d="M567.512 58.6V76H565.064V58.6H567.512ZM571.904 95.088H574.184L569.576 108.552C568.616 111.336 567.992 112.2 565.088 112.2H563.96V110.376H564.848C566.288 110.376 566.984 110.28 567.56 108.264L567.656 108L563 95.088H565.424L568.712 105.048L571.904 95.088ZM577.161 101.592C577.161 105.048 579.033 106.392 581.025 106.392C583.017 106.392 584.889 104.904 584.889 101.592C584.889 98.136 583.017 96.792 581.025 96.792C579.033 96.792 577.161 98.064 577.161 101.592ZM581.025 94.872C584.025 94.872 587.217 96.912 587.217 101.592C587.217 106.272 584.025 108.312 581.025 108.312C578.025 108.312 574.833 106.272 574.833 101.592C574.833 96.912 578.025 94.872 581.025 94.872ZM597.822 108V106.152C597.078 107.376 595.902 108.312 593.766 108.312C590.79 108.312 589.638 106.296 589.638 103.344V95.088H591.822V102.696C591.822 104.688 592.134 106.416 594.534 106.416C596.622 106.416 597.822 104.976 597.822 102.192V95.088H600.006V108H597.822ZM567.944 136.64L570.512 127.088H572.768L575.336 136.64L577.808 127.088H580.16L576.44 140H574.448L571.592 129.608L568.832 140H566.84L563.12 127.088H565.472L567.944 136.64ZM593.284 134.264H583.348C583.42 137.048 585.436 138.392 587.332 138.392C589.252 138.392 590.308 137.528 590.86 136.256H593.116C592.54 138.464 590.476 140.312 587.332 140.312C583.252 140.312 580.996 137.384 580.996 133.568C580.996 129.464 583.732 126.872 587.26 126.872C591.22 126.872 593.548 130.16 593.284 134.264ZM587.26 128.744C585.34 128.744 583.564 129.8 583.372 132.392H590.98C590.908 130.568 589.588 128.744 587.26 128.744ZM565.352 159.088V155.848H567.536V159.088H569.984V160.84H567.536V168.496C567.536 169.84 567.632 170.176 568.88 170.176H569.984V172H568.4C565.928 172 565.352 171.448 565.352 168.76V160.84H563.312V159.088H565.352ZM574.951 154.6V161.032C575.695 159.808 576.943 158.872 579.127 158.872C582.247 158.872 583.375 160.888 583.375 163.84V172H581.191V164.488C581.191 162.496 580.855 160.768 578.359 160.768C576.247 160.768 574.951 162.208 574.951 164.992V172H572.767V154.6H574.951ZM598.042 166.264H588.106C588.178 169.048 590.194 170.392 592.09 170.392C594.01 170.392 595.066 169.528 595.618 168.256H597.874C597.298 170.464 595.234 172.312 592.09 172.312C588.01 172.312 585.754 169.384 585.754 165.568C585.754 161.464 588.49 158.872 592.018 158.872C595.978 158.872 598.306 162.16 598.042 166.264ZM592.018 160.744C590.098 160.744 588.322 161.8 588.13 164.392H595.738C595.666 162.568 594.346 160.744 592.018 160.744ZM607.646 159.088H609.926L605.318 172.552C604.358 175.336 603.734 176.2 600.83 176.2H599.702V174.376H600.59C602.03 174.376 602.726 174.28 603.302 172.264L603.398 172L598.742 159.088H601.166L604.454 169.048L607.646 159.088ZM566.912 186.6V193.032C567.656 191.808 568.904 190.872 571.088 190.872C574.208 190.872 575.336 192.888 575.336 195.84V204H573.152V196.488C573.152 194.496 572.816 192.768 570.32 192.768C568.208 192.768 566.912 194.208 566.912 196.992V204H564.728V186.6H566.912ZM590.003 198.264H580.067C580.139 201.048 582.155 202.392 584.051 202.392C585.971 202.392 587.027 201.528 587.579 200.256H589.835C589.259 202.464 587.195 204.312 584.051 204.312C579.971 204.312 577.715 201.384 577.715 197.568C577.715 193.464 580.451 190.872 583.979 190.872C587.939 190.872 590.267 194.16 590.003 198.264ZM583.979 192.744C582.059 192.744 580.283 193.8 580.091 196.392H587.699C587.627 194.568 586.307 192.744 583.979 192.744ZM574.4 226.856H572.12C571.76 225.32 570.608 224.72 569.072 224.72C567.8 224.72 566.36 225.176 566.36 226.352C566.36 227.384 567.08 227.84 568.328 228.104L570.152 228.464C572.504 228.896 574.568 229.832 574.568 232.304C574.568 234.872 572.264 236.312 569.312 236.312C565.928 236.312 564.032 234.08 563.768 231.824H566.072C566.432 233.48 567.44 234.464 569.36 234.464C571.016 234.464 572.36 233.768 572.36 232.544C572.36 231.224 571.136 230.72 569.744 230.408L567.824 230.024C566.072 229.64 564.152 228.872 564.152 226.448C564.152 224.168 566.456 222.848 569.312 222.848C572.12 222.848 573.992 224.384 574.4 226.856ZM579.521 218.6V225.032C580.265 223.808 581.513 222.872 583.697 222.872C586.817 222.872 587.945 224.888 587.945 227.84V236H585.761V228.488C585.761 226.496 585.425 224.768 582.929 224.768C580.817 224.768 579.521 226.208 579.521 228.992V236H577.337V218.6H579.521ZM602.612 230.264H592.676C592.748 233.048 594.764 234.392 596.66 234.392C598.58 234.392 599.636 233.528 600.188 232.256H602.444C601.868 234.464 599.804 236.312 596.66 236.312C592.58 236.312 590.324 233.384 590.324 229.568C590.324 225.464 593.06 222.872 596.588 222.872C600.548 222.872 602.876 226.16 602.612 230.264ZM596.588 224.744C594.668 224.744 592.892 225.8 592.7 228.392H600.308C600.236 226.568 598.916 224.744 596.588 224.744ZM564.728 255.088H566.912V268H564.728V255.088ZM564.728 250.6H566.912V253.24H564.728V250.6ZM571 255.088V251.848H573.184V255.088H575.632V256.84H573.184V264.496C573.184 265.84 573.28 266.176 574.528 266.176H575.632V268H574.048C571.576 268 571 267.448 571 264.76V256.84H568.96V255.088H571Z" fill="#1E1E1E"/>
<rect x="630.5" y="145.5" width="37" height="37" rx="2.5" stroke="#1E1E1E"/>
<path d="M641.264 155.6H643.952L648.776 170.48L653.504 155.6H656.072L650.168 173H647.24L641.264 155.6Z" fill="#1E1E1E"/>
<path d="M684.192 155.288C686.904 155.288 689.616 156.608 689.616 159.512C689.616 161.816 688.008 163.424 686.376 164.456C684.888 165.416 684.36 165.848 684.36 167.168V167.912H682.128V167.096C682.128 165.08 683.088 164.216 685.104 162.92C686.352 162.128 687.336 161.168 687.336 159.608C687.336 158.072 685.992 157.112 684.144 157.112C681.48 157.112 680.568 158.984 680.496 160.448H678.312C678.312 157.328 680.808 155.288 684.192 155.288ZM684.672 173H681.912V170.24H684.672V173Z" fill="#1E1E1E"/>
<rect x="483" y="144" width="60" height="38" rx="3" fill="#0076DE"/>
<path d="M507.8 163.288C507.8 157.384 504.32 156.664 500.744 156.664H498.512V169.936H500.744C504.32 169.936 507.8 169.216 507.8 163.288ZM496.064 154.6H500.816C506.312 154.6 510.296 156.688 510.296 163.288C510.296 169.912 506.312 172 500.816 172H496.064V154.6ZM513.259 159.088H515.443V172H513.259V159.088ZM513.259 154.6H515.443V157.24H513.259V154.6ZM527.764 161.128V154.6H529.948V172H527.764V170.056C526.972 171.424 525.628 172.312 523.54 172.312C520.564 172.312 518.02 169.888 518.02 165.592C518.02 161.368 520.564 158.872 523.54 158.872C525.628 158.872 526.972 159.76 527.764 161.128ZM527.86 165.592C527.86 162.184 526.036 160.744 524.092 160.744C521.86 160.744 520.396 162.496 520.396 165.592C520.396 168.688 521.86 170.44 524.092 170.44C526.036 170.44 527.86 169 527.86 165.592Z" fill="white"/>
<path d="M483.155 36V25.125H487.385C489.29 25.125 491.345 25.725 491.345 27.96C491.345 28.98 490.67 29.895 490.115 30.255C490.955 30.66 491.735 31.29 491.735 32.79C491.735 35.13 489.8 36 487.565 36H483.155ZM485.3 31.23V34.32H487.67C488.93 34.32 489.545 33.795 489.545 32.79C489.545 31.77 488.915 31.23 487.58 31.23H485.3ZM485.3 26.805V29.61H487.52C488.54 29.61 489.14 29.13 489.14 28.17C489.14 27.315 488.525 26.805 487.52 26.805H485.3ZM496.855 29.37C495.715 29.37 494.905 30.285 494.905 31.98C494.905 33.675 495.715 34.575 496.855 34.575C497.995 34.575 498.805 33.675 498.805 31.98C498.805 30.285 497.995 29.37 496.855 29.37ZM496.855 36.195C494.815 36.195 492.805 34.8 492.805 31.98C492.805 29.145 494.815 27.75 496.855 27.75C498.895 27.75 500.905 29.145 500.905 31.98C500.905 34.8 498.895 36.195 496.855 36.195ZM504.397 36H502.327V27.93H509.542V36H507.472V29.565H504.397V36ZM515.499 34.605C516.579 34.605 517.344 33.555 517.344 31.98C517.344 30.405 516.579 29.34 515.499 29.34C514.359 29.34 513.609 30.345 513.609 31.965C513.609 33.63 514.359 34.605 515.499 34.605ZM513.684 38.625H511.614V27.93H513.684V28.965C514.119 28.2 514.989 27.75 516.009 27.75C517.959 27.75 519.519 29.43 519.519 31.965C519.519 34.545 517.914 36.195 515.994 36.195C515.154 36.195 514.209 35.88 513.684 34.98V38.625ZM524.482 29.37C523.342 29.37 522.532 30.285 522.532 31.98C522.532 33.675 523.342 34.575 524.482 34.575C525.622 34.575 526.432 33.675 526.432 31.98C526.432 30.285 525.622 29.37 524.482 29.37ZM524.482 36.195C522.442 36.195 520.432 34.8 520.432 31.98C520.432 29.145 522.442 27.75 524.482 27.75C526.522 27.75 528.532 29.145 528.532 31.98C528.532 34.8 526.522 36.195 524.482 36.195ZM533.491 27.75C535.186 27.75 536.866 28.695 537.151 30.69H535.171C535.006 29.91 534.286 29.355 533.491 29.355C532.411 29.355 531.556 30.27 531.556 31.95C531.556 33.645 532.366 34.59 533.506 34.59C534.226 34.59 534.961 34.215 535.246 33.255H537.226C536.746 35.46 535.081 36.195 533.401 36.195C530.986 36.195 529.441 34.425 529.441 31.98C529.441 29.52 531.076 27.75 533.491 27.75Z" fill="#0F0F0F"/>
</svg>
