<svg width="420" height="295" viewBox="0 0 420 295" fill="none" xmlns="http://www.w3.org/2000/svg">
<path d="M10 1H173V294H10C5.02944 294 1 289.971 1 285V10C1 5.02943 5.02944 1 10 1Z" stroke="#E3E3E3" stroke-width="2"/>
<path d="M24.512 58.6V76H22.064V58.6H24.512ZM20 90.6H22.688L27.44 99.096L32.288 90.6H34.976L28.592 101.256V108H26.144V101.208L20 90.6ZM36.0363 101.592C36.0363 105.048 37.9083 106.392 39.9003 106.392C41.8923 106.392 43.7643 104.904 43.7643 101.592C43.7643 98.136 41.8923 96.792 39.9003 96.792C37.9083 96.792 36.0363 98.064 36.0363 101.592ZM39.9003 94.872C42.9003 94.872 46.0923 96.912 46.0923 101.592C46.0923 106.272 42.9003 108.312 39.9003 108.312C36.9003 108.312 33.7083 106.272 33.7083 101.592C33.7083 96.912 36.9003 94.872 39.9003 94.872ZM56.6966 108V106.152C55.9526 107.376 54.7766 108.312 52.6406 108.312C49.6646 108.312 48.5126 106.296 48.5126 103.344V95.088H50.6966V102.696C50.6966 104.688 51.0086 106.416 53.4086 106.416C55.4966 106.416 56.6966 104.976 56.6966 102.192V95.088H58.8806V108H56.6966ZM32.528 122.6L35.96 137.216L39.176 122.6H41.744L37.4 140H34.424L31.064 125.696L27.776 140H24.8L20.384 122.6H23.072L26.432 137.216L29.648 122.6H32.528ZM54.5264 134.264H44.5904C44.6624 137.048 46.6784 138.392 48.5744 138.392C50.4944 138.392 51.5504 137.528 52.1024 136.256H54.3584C53.7824 138.464 51.7184 140.312 48.5744 140.312C44.4944 140.312 42.2384 137.384 42.2384 133.568C42.2384 129.464 44.9744 126.872 48.5024 126.872C52.4624 126.872 54.7904 130.16 54.5264 134.264ZM48.5024 128.744C46.5824 128.744 44.8064 129.8 44.6144 132.392H52.2224C52.1504 130.568 50.8304 128.744 48.5024 128.744ZM25.664 172V156.712H20V154.6H33.776V156.712H28.112V172H25.664ZM37.2245 154.6V161.032C37.9685 159.808 39.2165 158.872 41.4005 158.872C44.5205 158.872 45.6485 160.888 45.6485 163.84V172H43.4645V164.488C43.4645 162.496 43.1285 160.768 40.6325 160.768C38.5205 160.768 37.2245 162.208 37.2245 164.992V172H35.0405V154.6H37.2245ZM60.3155 166.264H50.3795C50.4515 169.048 52.4675 170.392 54.3635 170.392C56.2835 170.392 57.3395 169.528 57.8915 168.256H60.1475C59.5715 170.464 57.5075 172.312 54.3635 172.312C50.2835 172.312 48.0275 169.384 48.0275 165.568C48.0275 161.464 50.7635 158.872 54.2915 158.872C58.2515 158.872 60.5795 162.16 60.3155 166.264ZM54.2915 160.744C52.3715 160.744 50.5955 161.8 50.4035 164.392H58.0115C57.9395 162.568 56.6195 160.744 54.2915 160.744ZM69.9196 159.088H72.1996L67.5916 172.552C66.6316 175.336 66.0076 176.2 63.1036 176.2H61.9756V174.376H62.8636C64.3036 174.376 64.9996 174.28 65.5756 172.264L65.6716 172L61.0156 159.088H63.4396L66.7276 169.048L69.9196 159.088ZM33.656 186.6H36.104V204H33.656V196.104H24.512V204H22.064V186.6H24.512V193.992H33.656V186.6ZM51.2921 198.264H41.3561C41.4281 201.048 43.4441 202.392 45.3401 202.392C47.2601 202.392 48.3161 201.528 48.8681 200.256H51.1241C50.5481 202.464 48.4841 204.312 45.3401 204.312C41.2601 204.312 39.0041 201.384 39.0041 197.568C39.0041 193.464 41.7401 190.872 45.2681 190.872C49.2281 190.872 51.5561 194.16 51.2921 198.264ZM45.2681 192.744C43.3481 192.744 41.5721 193.8 41.3801 196.392H48.9881C48.9161 194.568 47.5961 192.744 45.2681 192.744ZM21.344 223.04C21.344 219.704 24.824 218.288 27.632 218.288C30.776 218.288 33.536 219.704 34.232 223.04H31.856C31.28 221.048 29.264 220.352 27.536 220.352C26.192 220.352 23.84 220.952 23.84 222.896C23.84 224.432 25.04 225.2 26.672 225.56L28.688 226.016C31.352 226.592 34.544 227.6 34.544 231.104C34.544 234.488 31.376 236.312 27.92 236.312C23.816 236.312 21.224 234.056 20.768 230.6H23.168C23.624 233 25.28 234.248 27.968 234.248C30.56 234.248 32.024 233.048 32.024 231.32C32.024 229.472 30.44 228.752 28.28 228.248L26.12 227.792C23.72 227.264 21.344 225.92 21.344 223.04ZM39.287 218.6V225.032C40.031 223.808 41.279 222.872 43.463 222.872C46.583 222.872 47.711 224.888 47.711 227.84V236H45.527V228.488C45.527 226.496 45.191 224.768 42.695 224.768C40.583 224.768 39.287 226.208 39.287 228.992V236H37.103V218.6H39.287ZM62.378 230.264H52.442C52.514 233.048 54.53 234.392 56.426 234.392C58.346 234.392 59.402 233.528 59.954 232.256H62.21C61.634 234.464 59.57 236.312 56.426 236.312C52.346 236.312 50.09 233.384 50.09 229.568C50.09 225.464 52.826 222.872 56.354 222.872C60.314 222.872 62.642 226.16 62.378 230.264ZM56.354 224.744C54.434 224.744 52.658 225.8 52.466 228.392H60.074C60.002 226.568 58.682 224.744 56.354 224.744ZM24.512 250.6V268H22.064V250.6H24.512ZM28.9379 255.088V251.848H31.1219V255.088H33.5699V256.84H31.1219V264.496C31.1219 265.84 31.2179 266.176 32.4659 266.176H33.5699V268H31.9859C29.5139 268 28.9379 267.448 28.9379 264.76V256.84H26.8979V255.088H28.9379Z" fill="#1E1E1E"/>
<rect x="93" y="144" width="61" height="38" rx="3" fill="#0076DE"/>
<path d="M104.264 154.6H106.952L111.776 169.48L116.504 154.6H119.072L113.168 172H110.24L104.264 154.6Z" fill="white"/>
<rect x="122" y="153" width="21" height="21" rx="10.5" fill="white"/>
<path d="M132.832 157.192C134.976 157.192 136.512 158.264 136.512 160.232C136.512 162.92 133.712 165.288 130.464 167.64H136.832V169H128.48V167.688C132.576 164.664 134.976 162.488 134.976 160.424C134.976 159.208 134.192 158.408 132.8 158.408C131.552 158.408 130.352 159.096 130.304 161.016H128.8C128.752 158.712 130.352 157.192 132.832 157.192Z" fill="#0076DE"/>
<path d="M22.85 36.195H21.575V34.455H22.685C23.27 34.455 23.585 34.335 23.885 33.87L24.05 33.615L20.075 25.125H22.415L25.145 31.395L27.59 25.125H29.945L26.075 33.93C25.475 35.31 24.65 36.195 22.85 36.195ZM34.1192 36H32.0492V29.565H29.4242V27.93H36.7442V29.565H34.1192V36ZM42.1529 36H37.9979V27.93H41.9729C43.6979 27.93 45.0629 28.35 45.0629 30.03C45.0629 30.825 44.7179 31.38 44.0429 31.695C44.8229 31.95 45.3929 32.52 45.3929 33.54C45.3929 35.31 44.0279 36 42.1529 36ZM40.0679 32.535V34.38H41.9429C42.9029 34.38 43.3829 34.065 43.3829 33.45C43.3829 32.805 42.8879 32.535 41.9279 32.535H40.0679ZM40.0679 29.55V31.185H41.8229C42.6029 31.185 43.0679 30.93 43.0679 30.33C43.0679 29.715 42.6029 29.55 41.8079 29.55H40.0679ZM54.4013 32.535H48.4463C48.5663 33.915 49.4963 34.59 50.4863 34.59C51.1313 34.59 51.7613 34.365 52.1813 33.66H54.3113C53.8763 34.86 52.7063 36.195 50.5013 36.195C47.9063 36.195 46.3913 34.26 46.3913 31.935C46.3913 29.535 48.0563 27.75 50.4413 27.75C52.9313 27.75 54.4763 29.685 54.4013 32.535ZM50.4263 29.265C49.6463 29.265 48.6413 29.745 48.4763 31.11H52.3013C52.2563 29.745 51.2963 29.265 50.4263 29.265ZM59.7247 34.605C60.8047 34.605 61.5697 33.555 61.5697 31.98C61.5697 30.405 60.8047 29.34 59.7247 29.34C58.5847 29.34 57.8347 30.345 57.8347 31.965C57.8347 33.63 58.5847 34.605 59.7247 34.605ZM57.9097 38.625H55.8397V27.93H57.9097V28.965C58.3447 28.2 59.2147 27.75 60.2347 27.75C62.1847 27.75 63.7447 29.43 63.7447 31.965C63.7447 34.545 62.1397 36.195 60.2197 36.195C59.3797 36.195 58.4347 35.88 57.9097 34.98V38.625ZM66.2735 36H63.8885L66.8585 31.74L64.0985 27.93H66.4085L68.9885 31.71H69.0035V27.93H71.0735V31.71H71.0885L73.6985 27.93H76.0835L73.2635 31.74L76.2335 36H73.8035L71.0885 31.905H71.0735V36H69.0035V31.905H68.9885L66.2735 36ZM78.4536 37.875H76.5336V34.365H76.9836C77.7636 34.365 78.1536 33.69 78.3186 30.33L78.4236 27.93H84.6186V34.365H85.8636V37.875H83.9436V36H78.4536V37.875ZM79.3986 34.365H82.5486V29.565H80.2836L80.1936 31.035C80.0736 32.715 79.9686 33.465 79.3986 34.365ZM94.4648 32.535H88.5098C88.6298 33.915 89.5598 34.59 90.5498 34.59C91.1948 34.59 91.8248 34.365 92.2448 33.66H94.3748C93.9398 34.86 92.7698 36.195 90.5648 36.195C87.9698 36.195 86.4548 34.26 86.4548 31.935C86.4548 29.535 88.1198 27.75 90.5048 27.75C92.9948 27.75 94.5398 29.685 94.4648 32.535ZM90.4898 29.265C89.7098 29.265 88.7048 29.745 88.5398 31.11H92.3648C92.3198 29.745 91.3598 29.265 90.4898 29.265ZM97.9732 36H95.9032V27.93H97.9732V31.05H101.333V27.93H103.403V36H101.333V32.685H97.9732V36ZM107.539 36H105.469V27.93H107.494V33.435L111.049 27.93H113.119V36H111.094V30.69L107.539 36ZM122.575 32.535H116.62C116.74 33.915 117.67 34.59 118.66 34.59C119.305 34.59 119.935 34.365 120.355 33.66H122.485C122.05 34.86 120.88 36.195 118.675 36.195C116.08 36.195 114.565 34.26 114.565 31.935C114.565 29.535 116.23 27.75 118.615 27.75C121.105 27.75 122.65 29.685 122.575 32.535ZM118.6 29.265C117.82 29.265 116.815 29.745 116.65 31.11H120.475C120.43 29.745 119.47 29.265 118.6 29.265Z" fill="#0F0F0F"/>
<path d="M173 1H410C414.971 1 419 5.02944 419 10V285C419 289.971 414.971 294 410 294H173V1Z" stroke="#E3E3E3" stroke-width="2"/>
<path d="M277.512 58.6V76H275.064V58.6H277.512ZM281.904 95.088H284.184L279.576 108.552C278.616 111.336 277.992 112.2 275.088 112.2H273.96V110.376H274.848C276.288 110.376 276.984 110.28 277.56 108.264L277.656 108L273 95.088H275.424L278.712 105.048L281.904 95.088ZM287.161 101.592C287.161 105.048 289.033 106.392 291.025 106.392C293.017 106.392 294.889 104.904 294.889 101.592C294.889 98.136 293.017 96.792 291.025 96.792C289.033 96.792 287.161 98.064 287.161 101.592ZM291.025 94.872C294.025 94.872 297.217 96.912 297.217 101.592C297.217 106.272 294.025 108.312 291.025 108.312C288.025 108.312 284.833 106.272 284.833 101.592C284.833 96.912 288.025 94.872 291.025 94.872ZM307.822 108V106.152C307.078 107.376 305.902 108.312 303.766 108.312C300.79 108.312 299.638 106.296 299.638 103.344V95.088H301.822V102.696C301.822 104.688 302.134 106.416 304.534 106.416C306.622 106.416 307.822 104.976 307.822 102.192V95.088H310.006V108H307.822ZM277.944 136.64L280.512 127.088H282.768L285.336 136.64L287.808 127.088H290.16L286.44 140H284.448L281.592 129.608L278.832 140H276.84L273.12 127.088H275.472L277.944 136.64ZM303.284 134.264H293.348C293.42 137.048 295.436 138.392 297.332 138.392C299.252 138.392 300.308 137.528 300.86 136.256H303.116C302.54 138.464 300.476 140.312 297.332 140.312C293.252 140.312 290.996 137.384 290.996 133.568C290.996 129.464 293.732 126.872 297.26 126.872C301.22 126.872 303.548 130.16 303.284 134.264ZM297.26 128.744C295.34 128.744 293.564 129.8 293.372 132.392H300.98C300.908 130.568 299.588 128.744 297.26 128.744ZM275.352 159.088V155.848H277.536V159.088H279.984V160.84H277.536V168.496C277.536 169.84 277.632 170.176 278.88 170.176H279.984V172H278.4C275.928 172 275.352 171.448 275.352 168.76V160.84H273.312V159.088H275.352ZM284.951 154.6V161.032C285.695 159.808 286.943 158.872 289.127 158.872C292.247 158.872 293.375 160.888 293.375 163.84V172H291.191V164.488C291.191 162.496 290.855 160.768 288.359 160.768C286.247 160.768 284.951 162.208 284.951 164.992V172H282.767V154.6H284.951ZM308.042 166.264H298.106C298.178 169.048 300.194 170.392 302.09 170.392C304.01 170.392 305.066 169.528 305.618 168.256H307.874C307.298 170.464 305.234 172.312 302.09 172.312C298.01 172.312 295.754 169.384 295.754 165.568C295.754 161.464 298.49 158.872 302.018 158.872C305.978 158.872 308.306 162.16 308.042 166.264ZM302.018 160.744C300.098 160.744 298.322 161.8 298.13 164.392H305.738C305.666 162.568 304.346 160.744 302.018 160.744ZM317.646 159.088H319.926L315.318 172.552C314.358 175.336 313.734 176.2 310.83 176.2H309.702V174.376H310.59C312.03 174.376 312.726 174.28 313.302 172.264L313.398 172L308.742 159.088H311.166L314.454 169.048L317.646 159.088ZM276.912 186.6V193.032C277.656 191.808 278.904 190.872 281.088 190.872C284.208 190.872 285.336 192.888 285.336 195.84V204H283.152V196.488C283.152 194.496 282.816 192.768 280.32 192.768C278.208 192.768 276.912 194.208 276.912 196.992V204H274.728V186.6H276.912ZM300.003 198.264H290.067C290.139 201.048 292.155 202.392 294.051 202.392C295.971 202.392 297.027 201.528 297.579 200.256H299.835C299.259 202.464 297.195 204.312 294.051 204.312C289.971 204.312 287.715 201.384 287.715 197.568C287.715 193.464 290.451 190.872 293.979 190.872C297.939 190.872 300.267 194.16 300.003 198.264ZM293.979 192.744C292.059 192.744 290.283 193.8 290.091 196.392H297.699C297.627 194.568 296.307 192.744 293.979 192.744ZM284.4 226.856H282.12C281.76 225.32 280.608 224.72 279.072 224.72C277.8 224.72 276.36 225.176 276.36 226.352C276.36 227.384 277.08 227.84 278.328 228.104L280.152 228.464C282.504 228.896 284.568 229.832 284.568 232.304C284.568 234.872 282.264 236.312 279.312 236.312C275.928 236.312 274.032 234.08 273.768 231.824H276.072C276.432 233.48 277.44 234.464 279.36 234.464C281.016 234.464 282.36 233.768 282.36 232.544C282.36 231.224 281.136 230.72 279.744 230.408L277.824 230.024C276.072 229.64 274.152 228.872 274.152 226.448C274.152 224.168 276.456 222.848 279.312 222.848C282.12 222.848 283.992 224.384 284.4 226.856ZM289.521 218.6V225.032C290.265 223.808 291.513 222.872 293.697 222.872C296.817 222.872 297.945 224.888 297.945 227.84V236H295.761V228.488C295.761 226.496 295.425 224.768 292.929 224.768C290.817 224.768 289.521 226.208 289.521 228.992V236H287.337V218.6H289.521ZM312.612 230.264H302.676C302.748 233.048 304.764 234.392 306.66 234.392C308.58 234.392 309.636 233.528 310.188 232.256H312.444C311.868 234.464 309.804 236.312 306.66 236.312C302.58 236.312 300.324 233.384 300.324 229.568C300.324 225.464 303.06 222.872 306.588 222.872C310.548 222.872 312.876 226.16 312.612 230.264ZM306.588 224.744C304.668 224.744 302.892 225.8 302.7 228.392H310.308C310.236 226.568 308.916 224.744 306.588 224.744ZM274.728 255.088H276.912V268H274.728V255.088ZM274.728 250.6H276.912V253.24H274.728V250.6ZM281 255.088V251.848H283.184V255.088H285.632V256.84H283.184V264.496C283.184 265.84 283.28 266.176 284.528 266.176H285.632V268H284.048C281.576 268 281 267.448 281 264.76V256.84H278.96V255.088H281Z" fill="#1E1E1E"/>
<rect x="340.5" y="145.5" width="37" height="37" rx="2.5" stroke="#1E1E1E"/>
<path d="M351.264 155.6H353.952L358.776 170.48L363.504 155.6H366.072L360.168 173H357.24L351.264 155.6Z" fill="#1E1E1E"/>
<path d="M394.192 155.288C396.904 155.288 399.616 156.608 399.616 159.512C399.616 161.816 398.008 163.424 396.376 164.456C394.888 165.416 394.36 165.848 394.36 167.168V167.912H392.128V167.096C392.128 165.08 393.088 164.216 395.104 162.92C396.352 162.128 397.336 161.168 397.336 159.608C397.336 158.072 395.992 157.112 394.144 157.112C391.48 157.112 390.568 158.984 390.496 160.448H388.312C388.312 157.328 390.808 155.288 394.192 155.288ZM394.672 173H391.912V170.24H394.672V173Z" fill="#1E1E1E"/>
<rect x="193" y="144" width="60" height="38" rx="3" fill="#0076DE"/>
<path d="M217.8 163.288C217.8 157.384 214.32 156.664 210.744 156.664H208.512V169.936H210.744C214.32 169.936 217.8 169.216 217.8 163.288ZM206.064 154.6H210.816C216.312 154.6 220.296 156.688 220.296 163.288C220.296 169.912 216.312 172 210.816 172H206.064V154.6ZM223.259 159.088H225.443V172H223.259V159.088ZM223.259 154.6H225.443V157.24H223.259V154.6ZM237.764 161.128V154.6H239.948V172H237.764V170.056C236.972 171.424 235.628 172.312 233.54 172.312C230.564 172.312 228.02 169.888 228.02 165.592C228.02 161.368 230.564 158.872 233.54 158.872C235.628 158.872 236.972 159.76 237.764 161.128ZM237.86 165.592C237.86 162.184 236.036 160.744 234.092 160.744C231.86 160.744 230.396 162.496 230.396 165.592C230.396 168.688 231.86 170.44 234.092 170.44C236.036 170.44 237.86 169 237.86 165.592Z" fill="white"/>
<path d="M193.155 36V25.125H197.385C199.29 25.125 201.345 25.725 201.345 27.96C201.345 28.98 200.67 29.895 200.115 30.255C200.955 30.66 201.735 31.29 201.735 32.79C201.735 35.13 199.8 36 197.565 36H193.155ZM195.3 31.23V34.32H197.67C198.93 34.32 199.545 33.795 199.545 32.79C199.545 31.77 198.915 31.23 197.58 31.23H195.3ZM195.3 26.805V29.61H197.52C198.54 29.61 199.14 29.13 199.14 28.17C199.14 27.315 198.525 26.805 197.52 26.805H195.3ZM206.855 29.37C205.715 29.37 204.905 30.285 204.905 31.98C204.905 33.675 205.715 34.575 206.855 34.575C207.995 34.575 208.805 33.675 208.805 31.98C208.805 30.285 207.995 29.37 206.855 29.37ZM206.855 36.195C204.815 36.195 202.805 34.8 202.805 31.98C202.805 29.145 204.815 27.75 206.855 27.75C208.895 27.75 210.905 29.145 210.905 31.98C210.905 34.8 208.895 36.195 206.855 36.195ZM214.397 36H212.327V27.93H219.542V36H217.472V29.565H214.397V36ZM225.499 34.605C226.579 34.605 227.344 33.555 227.344 31.98C227.344 30.405 226.579 29.34 225.499 29.34C224.359 29.34 223.609 30.345 223.609 31.965C223.609 33.63 224.359 34.605 225.499 34.605ZM223.684 38.625H221.614V27.93H223.684V28.965C224.119 28.2 224.989 27.75 226.009 27.75C227.959 27.75 229.519 29.43 229.519 31.965C229.519 34.545 227.914 36.195 225.994 36.195C225.154 36.195 224.209 35.88 223.684 34.98V38.625ZM234.482 29.37C233.342 29.37 232.532 30.285 232.532 31.98C232.532 33.675 233.342 34.575 234.482 34.575C235.622 34.575 236.432 33.675 236.432 31.98C236.432 30.285 235.622 29.37 234.482 29.37ZM234.482 36.195C232.442 36.195 230.432 34.8 230.432 31.98C230.432 29.145 232.442 27.75 234.482 27.75C236.522 27.75 238.532 29.145 238.532 31.98C238.532 34.8 236.522 36.195 234.482 36.195ZM243.491 27.75C245.186 27.75 246.866 28.695 247.151 30.69H245.171C245.006 29.91 244.286 29.355 243.491 29.355C242.411 29.355 241.556 30.27 241.556 31.95C241.556 33.645 242.366 34.59 243.506 34.59C244.226 34.59 244.961 34.215 245.246 33.255H247.226C246.746 35.46 245.081 36.195 243.401 36.195C240.986 36.195 239.441 34.425 239.441 31.98C239.441 29.52 241.076 27.75 243.491 27.75Z" fill="#0F0F0F"/>
</svg>
