<svg width="286" height="69" viewBox="0 0 286 69" fill="none" xmlns="http://www.w3.org/2000/svg">
<rect x="0.5" y="32.5" width="107" height="36" rx="18" stroke="#1E1E1E"/>
<rect x="113.5" y="32.5" width="83" height="36" rx="18" stroke="#0076DE"/>
<rect x="202.5" y="32.5" width="66" height="36" rx="18" stroke="#1E1E1E"/>
<path d="M27.4 59H24.7L19.7 43.2V59H17.15V40.875H21.425L26.05 55.975L30.675 40.875H34.95V59H32.4V43.2L27.4 59ZM47.3697 53.375V52.525C43.2447 52.925 40.6197 53.55 40.6197 55.4C40.6197 56.675 41.5947 57.525 43.2197 57.525C45.3447 57.525 47.3697 56.55 47.3697 53.375ZM42.7197 59.325C40.1947 59.325 38.0947 57.925 38.0947 55.45C38.0947 52.275 41.6947 51.325 47.1947 50.725V50.4C47.1947 47.925 45.8447 47.125 44.1447 47.125C42.2447 47.125 41.1697 48.125 41.0697 49.8H38.7197C38.9197 46.9 41.5197 45.275 44.1197 45.275C47.8447 45.275 49.4947 47.025 49.4697 50.825L49.4447 53.925C49.4197 56.2 49.5197 57.725 49.7947 59H47.4947C47.4197 58.5 47.3447 57.95 47.3197 57.15C46.4947 58.55 45.1197 59.325 42.7197 59.325ZM62.9346 49.475H60.5596C60.1846 47.875 58.9846 47.25 57.3846 47.25C56.0596 47.25 54.5596 47.725 54.5596 48.95C54.5596 50.025 55.3096 50.5 56.6096 50.775L58.5096 51.15C60.9596 51.6 63.1096 52.575 63.1096 55.15C63.1096 57.825 60.7096 59.325 57.6346 59.325C54.1096 59.325 52.1346 57 51.8596 54.65H54.2596C54.6346 56.375 55.6846 57.4 57.6846 57.4C59.4096 57.4 60.8096 56.675 60.8096 55.4C60.8096 54.025 59.5346 53.5 58.0846 53.175L56.0846 52.775C54.2596 52.375 52.2596 51.575 52.2596 49.05C52.2596 46.675 54.6596 45.3 57.6346 45.3C60.5596 45.3 62.5096 46.9 62.9346 49.475ZM68.2693 40.875V47.575C69.0443 46.3 70.3443 45.325 72.6193 45.325C75.8693 45.325 77.0443 47.425 77.0443 50.5V59H74.7693V51.175C74.7693 49.1 74.4193 47.3 71.8193 47.3C69.6193 47.3 68.2693 48.8 68.2693 51.7V59H65.9943V40.875H68.2693ZM88.9225 53.375V52.525C84.7975 52.925 82.1725 53.55 82.1725 55.4C82.1725 56.675 83.1475 57.525 84.7725 57.525C86.8975 57.525 88.9225 56.55 88.9225 53.375ZM84.2725 59.325C81.7475 59.325 79.6475 57.925 79.6475 55.45C79.6475 52.275 83.2475 51.325 88.7475 50.725V50.4C88.7475 47.925 87.3975 47.125 85.6975 47.125C83.7975 47.125 82.7225 48.125 82.6225 49.8H80.2725C80.4725 46.9 83.0725 45.275 85.6725 45.275C89.3975 45.275 91.0475 47.025 91.0225 50.825L90.9975 53.925C90.9725 56.2 91.0725 57.725 91.3475 59H89.0475C88.9725 58.5 88.8975 57.95 88.8725 57.15C88.0475 58.55 86.6725 59.325 84.2725 59.325Z" fill="black"/>
<path d="M132.075 40.875V59H129.8V40.875H132.075ZM135.684 45.55H137.959V59H135.684V45.55ZM135.684 40.875H137.959V43.625H135.684V40.875ZM141.568 40.875H143.843V51.6L149.268 45.55H152.068L146.943 51.125L152.768 59H149.993L145.418 52.8L143.843 54.5V59H141.568V40.875ZM165.698 53.025H155.348C155.423 55.925 157.523 57.325 159.498 57.325C161.498 57.325 162.598 56.425 163.173 55.1H165.523C164.923 57.4 162.773 59.325 159.498 59.325C155.248 59.325 152.898 56.275 152.898 52.3C152.898 48.025 155.748 45.325 159.423 45.325C163.548 45.325 165.973 48.75 165.698 53.025ZM159.423 47.275C157.423 47.275 155.573 48.375 155.373 51.075H163.298C163.223 49.175 161.848 47.275 159.423 47.275ZM177.697 47.675V40.875H179.972V59H177.697V56.975C176.872 58.4 175.472 59.325 173.297 59.325C170.197 59.325 167.547 56.8 167.547 52.325C167.547 47.925 170.197 45.325 173.297 45.325C175.472 45.325 176.872 46.25 177.697 47.675ZM177.797 52.325C177.797 48.775 175.897 47.275 173.872 47.275C171.547 47.275 170.022 49.1 170.022 52.325C170.022 55.55 171.547 57.375 173.872 57.375C175.897 57.375 177.797 55.875 177.797 52.325Z" fill="#0076DE"/>
<path d="M219.45 45.55V42.175H221.725V45.55H224.275V47.375H221.725V55.35C221.725 56.75 221.825 57.1 223.125 57.1H224.275V59H222.625C220.05 59 219.45 58.425 219.45 55.625V47.375H217.325V45.55H219.45ZM238.683 53.025H228.333C228.408 55.925 230.508 57.325 232.483 57.325C234.483 57.325 235.583 56.425 236.158 55.1H238.508C237.908 57.4 235.758 59.325 232.483 59.325C228.233 59.325 225.883 56.275 225.883 52.3C225.883 48.025 228.733 45.325 232.408 45.325C236.533 45.325 238.958 48.75 238.683 53.025ZM232.408 47.275C230.408 47.275 228.558 48.375 228.358 51.075H236.283C236.208 49.175 234.833 47.275 232.408 47.275ZM249.687 53.375V52.525C245.562 52.925 242.937 53.55 242.937 55.4C242.937 56.675 243.912 57.525 245.537 57.525C247.662 57.525 249.687 56.55 249.687 53.375ZM245.037 59.325C242.512 59.325 240.412 57.925 240.412 55.45C240.412 52.275 244.012 51.325 249.512 50.725V50.4C249.512 47.925 248.162 47.125 246.462 47.125C244.562 47.125 243.487 48.125 243.387 49.8H241.037C241.237 46.9 243.837 45.275 246.437 45.275C250.162 45.275 251.812 47.025 251.787 50.825L251.762 53.925C251.737 56.2 251.837 57.725 252.112 59H249.812C249.737 58.5 249.662 57.95 249.637 57.15C248.812 58.55 247.437 59.325 245.037 59.325Z" fill="black"/>
<path d="M278.5 59H275.625V56.125H278.5V59Z" fill="black"/>
<path d="M7.084 16H5.572L2.772 7.152V16H1.344V5.85H3.738L6.328 14.306L8.918 5.85H11.312V16H9.884V7.152L7.084 16ZM18.4142 12.85V12.374C16.1042 12.598 14.6342 12.948 14.6342 13.984C14.6342 14.698 15.1802 15.174 16.0902 15.174C17.2802 15.174 18.4142 14.628 18.4142 12.85ZM15.8102 16.182C14.3962 16.182 13.2202 15.398 13.2202 14.012C13.2202 12.234 15.2362 11.702 18.3162 11.366V11.184C18.3162 9.798 17.5602 9.35 16.6082 9.35C15.5442 9.35 14.9422 9.91 14.8862 10.848H13.5702C13.6822 9.224 15.1382 8.314 16.5942 8.314C18.6802 8.314 19.6042 9.294 19.5902 11.422L19.5762 13.158C19.5622 14.432 19.6182 15.286 19.7722 16H18.4842C18.4422 15.72 18.4002 15.412 18.3862 14.964C17.9242 15.748 17.1542 16.182 15.8102 16.182ZM30.8405 8.468V16H21.5585V8.468H22.8325V14.894H25.5625V8.468H26.8365V14.894H29.5665V8.468H30.8405ZM37.6778 12.85V12.374C35.3678 12.598 33.8978 12.948 33.8978 13.984C33.8978 14.698 34.4438 15.174 35.3538 15.174C36.5438 15.174 37.6778 14.628 37.6778 12.85ZM35.0738 16.182C33.6598 16.182 32.4838 15.398 32.4838 14.012C32.4838 12.234 34.4998 11.702 37.5798 11.366V11.184C37.5798 9.798 36.8238 9.35 35.8718 9.35C34.8078 9.35 34.2058 9.91 34.1498 10.848H32.8338C32.9458 9.224 34.4018 8.314 35.8578 8.314C37.9438 8.314 38.8678 9.294 38.8538 11.422L38.8398 13.158C38.8258 14.432 38.8818 15.286 39.0358 16H37.7478C37.7058 15.72 37.6638 15.412 37.6498 14.964C37.1878 15.748 36.4178 16.182 35.0738 16.182ZM50.0944 8.468V16H48.8204V9.574H46.2864L46.1744 11.394C45.9924 14.432 45.3344 16 43.5844 16H43.3464V14.894H43.4864C44.1584 14.894 44.8024 14.166 44.9564 11.044L45.0684 8.468H50.0944ZM58.4398 8.342C60.1898 8.342 62.0518 9.532 62.0518 12.262C62.0518 14.992 60.1898 16.182 58.4398 16.182C56.8718 16.182 55.2058 15.118 55.0238 12.71H53.5258V16H52.2518V8.468H53.5258V11.604H55.0518C55.3178 9.322 56.8998 8.342 58.4398 8.342ZM58.4398 15.062C59.6018 15.062 60.6938 14.194 60.6938 12.262C60.6938 10.246 59.6018 9.462 58.4398 9.462C57.3898 9.462 56.3678 10.204 56.3678 12.262C56.3678 14.278 57.3898 15.062 58.4398 15.062ZM67.0422 8.902C68.7502 8.902 70.2202 10.092 70.2202 12.472C70.2202 14.894 68.6662 16.182 66.8182 16.182C64.8722 16.182 63.2762 14.824 63.2762 12.08V11.212C63.3182 8.496 64.2142 6.914 67.2382 6.312L69.7162 5.822V6.956L67.3082 7.474C65.4742 7.88 64.5922 8.566 64.4102 10.442C64.9142 9.392 65.9222 8.902 67.0422 8.902ZM66.8182 15.076C68.0502 15.076 68.8622 14.138 68.8622 12.5C68.8622 10.848 67.9942 10.008 66.8322 10.008C65.6842 10.008 64.6482 10.792 64.6482 12.486C64.6482 14.082 65.5442 15.076 66.8182 15.076ZM76.8866 16V10.316L72.9946 16H71.7206V8.468H72.9946V14.152L76.8866 8.468H78.1606V16H76.8866ZM86.2702 8.468V16H84.9962V9.574H82.4622L82.3502 11.394C82.1682 14.432 81.5102 16 79.7602 16H79.5222V14.894H79.6622C80.3342 14.894 80.9782 14.166 81.1322 11.044L81.2442 8.468H86.2702ZM93.1036 12.85V12.374C90.7936 12.598 89.3236 12.948 89.3236 13.984C89.3236 14.698 89.8696 15.174 90.7796 15.174C91.9696 15.174 93.1036 14.628 93.1036 12.85ZM90.4996 16.182C89.0856 16.182 87.9096 15.398 87.9096 14.012C87.9096 12.234 89.9256 11.702 93.0056 11.366V11.184C93.0056 9.798 92.2496 9.35 91.2976 9.35C90.2336 9.35 89.6316 9.91 89.5756 10.848H88.2596C88.3716 9.224 89.8276 8.314 91.2836 8.314C93.3696 8.314 94.2936 9.294 94.2796 11.422L94.2656 13.158C94.2516 14.432 94.3076 15.286 94.4616 16H93.1736C93.1316 15.72 93.0896 15.412 93.0756 14.964C92.6136 15.748 91.8436 16.182 90.4996 16.182ZM105.114 16H103.84V12.948C102.958 13.158 102.286 13.256 101.6 13.256C100.018 13.256 99.1922 12.556 99.1922 10.918V8.468H100.466V10.652C100.466 11.772 100.998 12.15 102.062 12.15C102.552 12.15 103.14 12.066 103.84 11.898V8.468H105.114V16ZM111.943 12.85V12.374C109.633 12.598 108.163 12.948 108.163 13.984C108.163 14.698 108.709 15.174 109.619 15.174C110.809 15.174 111.943 14.628 111.943 12.85ZM109.339 16.182C107.925 16.182 106.749 15.398 106.749 14.012C106.749 12.234 108.765 11.702 111.845 11.366V11.184C111.845 9.798 111.089 9.35 110.137 9.35C109.073 9.35 108.471 9.91 108.415 10.848H107.099C107.211 9.224 108.667 8.314 110.123 8.314C112.209 8.314 113.133 9.294 113.119 11.422L113.105 13.158C113.091 14.432 113.147 15.286 113.301 16H112.013C111.971 15.72 111.929 15.412 111.915 14.964C111.453 15.748 110.683 16.182 109.339 16.182ZM119.596 5.85H120.59C120.478 6.69 119.946 7.544 118.35 7.544C116.81 7.544 116.222 6.69 116.152 5.85H117.146C117.202 6.298 117.538 6.704 118.364 6.704C119.19 6.704 119.54 6.298 119.596 5.85ZM120.254 16V10.316L116.362 16H115.088V8.468H116.362V14.152L120.254 8.468H121.528V16H120.254ZM125.129 16H123.519V14.39H125.129V16Z" fill="#8E8E8E"/>
</svg>
