<svg width="248" height="295" viewBox="0 0 248 295" fill="none" xmlns="http://www.w3.org/2000/svg">
<rect x="1" y="1" width="246" height="293" rx="9" stroke="#E3E3E3" stroke-width="2"/>
<path d="M105.512 58.6V76H103.064V58.6H105.512ZM109.904 95.088H112.184L107.576 108.552C106.616 111.336 105.992 112.2 103.088 112.2H101.96V110.376H102.848C104.288 110.376 104.984 110.28 105.56 108.264L105.656 108L101 95.088H103.424L106.712 105.048L109.904 95.088ZM115.161 101.592C115.161 105.048 117.033 106.392 119.025 106.392C121.017 106.392 122.889 104.904 122.889 101.592C122.889 98.136 121.017 96.792 119.025 96.792C117.033 96.792 115.161 98.064 115.161 101.592ZM119.025 94.872C122.025 94.872 125.217 96.912 125.217 101.592C125.217 106.272 122.025 108.312 119.025 108.312C116.025 108.312 112.833 106.272 112.833 101.592C112.833 96.912 116.025 94.872 119.025 94.872ZM135.822 108V106.152C135.078 107.376 133.902 108.312 131.766 108.312C128.79 108.312 127.638 106.296 127.638 103.344V95.088H129.822V102.696C129.822 104.688 130.134 106.416 132.534 106.416C134.622 106.416 135.822 104.976 135.822 102.192V95.088H138.006V108H135.822ZM105.944 136.64L108.512 127.088H110.768L113.336 136.64L115.808 127.088H118.16L114.44 140H112.448L109.592 129.608L106.832 140H104.84L101.12 127.088H103.472L105.944 136.64ZM131.284 134.264H121.348C121.42 137.048 123.436 138.392 125.332 138.392C127.252 138.392 128.308 137.528 128.86 136.256H131.116C130.54 138.464 128.476 140.312 125.332 140.312C121.252 140.312 118.996 137.384 118.996 133.568C118.996 129.464 121.732 126.872 125.26 126.872C129.22 126.872 131.548 130.16 131.284 134.264ZM125.26 128.744C123.34 128.744 121.564 129.8 121.372 132.392H128.98C128.908 130.568 127.588 128.744 125.26 128.744ZM103.352 159.088V155.848H105.536V159.088H107.984V160.84H105.536V168.496C105.536 169.84 105.632 170.176 106.88 170.176H107.984V172H106.4C103.928 172 103.352 171.448 103.352 168.76V160.84H101.312V159.088H103.352ZM112.951 154.6V161.032C113.695 159.808 114.943 158.872 117.127 158.872C120.247 158.872 121.375 160.888 121.375 163.84V172H119.191V164.488C119.191 162.496 118.855 160.768 116.359 160.768C114.247 160.768 112.951 162.208 112.951 164.992V172H110.767V154.6H112.951ZM136.042 166.264H126.106C126.178 169.048 128.194 170.392 130.09 170.392C132.01 170.392 133.066 169.528 133.618 168.256H135.874C135.298 170.464 133.234 172.312 130.09 172.312C126.01 172.312 123.754 169.384 123.754 165.568C123.754 161.464 126.49 158.872 130.018 158.872C133.978 158.872 136.306 162.16 136.042 166.264ZM130.018 160.744C128.098 160.744 126.322 161.8 126.13 164.392H133.738C133.666 162.568 132.346 160.744 130.018 160.744ZM145.646 159.088H147.926L143.318 172.552C142.358 175.336 141.734 176.2 138.83 176.2H137.702V174.376H138.59C140.03 174.376 140.726 174.28 141.302 172.264L141.398 172L136.742 159.088H139.166L142.454 169.048L145.646 159.088ZM104.912 186.6V193.032C105.656 191.808 106.904 190.872 109.088 190.872C112.208 190.872 113.336 192.888 113.336 195.84V204H111.152V196.488C111.152 194.496 110.816 192.768 108.32 192.768C106.208 192.768 104.912 194.208 104.912 196.992V204H102.728V186.6H104.912ZM128.003 198.264H118.067C118.139 201.048 120.155 202.392 122.051 202.392C123.971 202.392 125.027 201.528 125.579 200.256H127.835C127.259 202.464 125.195 204.312 122.051 204.312C117.971 204.312 115.715 201.384 115.715 197.568C115.715 193.464 118.451 190.872 121.979 190.872C125.939 190.872 128.267 194.16 128.003 198.264ZM121.979 192.744C120.059 192.744 118.283 193.8 118.091 196.392H125.699C125.627 194.568 124.307 192.744 121.979 192.744ZM112.4 226.856H110.12C109.76 225.32 108.608 224.72 107.072 224.72C105.8 224.72 104.36 225.176 104.36 226.352C104.36 227.384 105.08 227.84 106.328 228.104L108.152 228.464C110.504 228.896 112.568 229.832 112.568 232.304C112.568 234.872 110.264 236.312 107.312 236.312C103.928 236.312 102.032 234.08 101.768 231.824H104.072C104.432 233.48 105.44 234.464 107.36 234.464C109.016 234.464 110.36 233.768 110.36 232.544C110.36 231.224 109.136 230.72 107.744 230.408L105.824 230.024C104.072 229.64 102.152 228.872 102.152 226.448C102.152 224.168 104.456 222.848 107.312 222.848C110.12 222.848 111.992 224.384 112.4 226.856ZM117.521 218.6V225.032C118.265 223.808 119.513 222.872 121.697 222.872C124.817 222.872 125.945 224.888 125.945 227.84V236H123.761V228.488C123.761 226.496 123.425 224.768 120.929 224.768C118.817 224.768 117.521 226.208 117.521 228.992V236H115.337V218.6H117.521ZM140.612 230.264H130.676C130.748 233.048 132.764 234.392 134.66 234.392C136.58 234.392 137.636 233.528 138.188 232.256H140.444C139.868 234.464 137.804 236.312 134.66 236.312C130.58 236.312 128.324 233.384 128.324 229.568C128.324 225.464 131.06 222.872 134.588 222.872C138.548 222.872 140.876 226.16 140.612 230.264ZM134.588 224.744C132.668 224.744 130.892 225.8 130.7 228.392H138.308C138.236 226.568 136.916 224.744 134.588 224.744ZM102.728 255.088H104.912V268H102.728V255.088ZM102.728 250.6H104.912V253.24H102.728V250.6ZM109 255.088V251.848H111.184V255.088H113.632V256.84H111.184V264.496C111.184 265.84 111.28 266.176 112.528 266.176H113.632V268H112.048C109.576 268 109 267.448 109 264.76V256.84H106.96V255.088H109Z" fill="#1E1E1E"/>
<rect x="168.5" y="145.5" width="37" height="37" rx="2.5" stroke="#1E1E1E"/>
<path d="M179.264 155.6H181.952L186.776 170.48L191.504 155.6H194.072L188.168 173H185.24L179.264 155.6Z" fill="#1E1E1E"/>
<path d="M222.192 155.288C224.904 155.288 227.616 156.608 227.616 159.512C227.616 161.816 226.008 163.424 224.376 164.456C222.888 165.416 222.36 165.848 222.36 167.168V167.912H220.128V167.096C220.128 165.08 221.088 164.216 223.104 162.92C224.352 162.128 225.336 161.168 225.336 159.608C225.336 158.072 223.992 157.112 222.144 157.112C219.48 157.112 218.568 158.984 218.496 160.448H216.312C216.312 157.328 218.808 155.288 222.192 155.288ZM222.672 173H219.912V170.24H222.672V173Z" fill="#1E1E1E"/>
<rect x="21" y="144" width="60" height="38" rx="3" fill="#0076DE"/>
<path d="M45.8 163.288C45.8 157.384 42.32 156.664 38.744 156.664H36.512V169.936H38.744C42.32 169.936 45.8 169.216 45.8 163.288ZM34.064 154.6H38.816C44.312 154.6 48.296 156.688 48.296 163.288C48.296 169.912 44.312 172 38.816 172H34.064V154.6ZM51.2593 159.088H53.4433V172H51.2593V159.088ZM51.2593 154.6H53.4433V157.24H51.2593V154.6ZM65.7637 161.128V154.6H67.9477V172H65.7637V170.056C64.9717 171.424 63.6277 172.312 61.5397 172.312C58.5637 172.312 56.0197 169.888 56.0197 165.592C56.0197 161.368 58.5637 158.872 61.5397 158.872C63.6277 158.872 64.9717 159.76 65.7637 161.128ZM65.8597 165.592C65.8597 162.184 64.0357 160.744 62.0917 160.744C59.8597 160.744 58.3957 162.496 58.3957 165.592C58.3957 168.688 59.8597 170.44 62.0917 170.44C64.0357 170.44 65.8597 169 65.8597 165.592Z" fill="white"/>
<path d="M21.155 36V25.125H25.385C27.29 25.125 29.345 25.725 29.345 27.96C29.345 28.98 28.67 29.895 28.115 30.255C28.955 30.66 29.735 31.29 29.735 32.79C29.735 35.13 27.8 36 25.565 36H21.155ZM23.3 31.23V34.32H25.67C26.93 34.32 27.545 33.795 27.545 32.79C27.545 31.77 26.915 31.23 25.58 31.23H23.3ZM23.3 26.805V29.61H25.52C26.54 29.61 27.14 29.13 27.14 28.17C27.14 27.315 26.525 26.805 25.52 26.805H23.3ZM34.855 29.37C33.715 29.37 32.905 30.285 32.905 31.98C32.905 33.675 33.715 34.575 34.855 34.575C35.995 34.575 36.805 33.675 36.805 31.98C36.805 30.285 35.995 29.37 34.855 29.37ZM34.855 36.195C32.815 36.195 30.805 34.8 30.805 31.98C30.805 29.145 32.815 27.75 34.855 27.75C36.895 27.75 38.905 29.145 38.905 31.98C38.905 34.8 36.895 36.195 34.855 36.195ZM42.397 36H40.327V27.93H47.542V36H45.472V29.565H42.397V36ZM53.4991 34.605C54.5791 34.605 55.3441 33.555 55.3441 31.98C55.3441 30.405 54.5791 29.34 53.4991 29.34C52.3591 29.34 51.6091 30.345 51.6091 31.965C51.6091 33.63 52.3591 34.605 53.4991 34.605ZM51.6841 38.625H49.6141V27.93H51.6841V28.965C52.1191 28.2 52.9891 27.75 54.0091 27.75C55.9591 27.75 57.5191 29.43 57.5191 31.965C57.5191 34.545 55.9141 36.195 53.9941 36.195C53.1541 36.195 52.2091 35.88 51.6841 34.98V38.625ZM62.482 29.37C61.342 29.37 60.532 30.285 60.532 31.98C60.532 33.675 61.342 34.575 62.482 34.575C63.622 34.575 64.432 33.675 64.432 31.98C64.432 30.285 63.622 29.37 62.482 29.37ZM62.482 36.195C60.442 36.195 58.432 34.8 58.432 31.98C58.432 29.145 60.442 27.75 62.482 27.75C64.522 27.75 66.532 29.145 66.532 31.98C66.532 34.8 64.522 36.195 62.482 36.195ZM71.4911 27.75C73.1861 27.75 74.8661 28.695 75.1511 30.69H73.1711C73.0061 29.91 72.2861 29.355 71.4911 29.355C70.4111 29.355 69.5561 30.27 69.5561 31.95C69.5561 33.645 70.3661 34.59 71.5061 34.59C72.2261 34.59 72.9611 34.215 73.2461 33.255H75.2261C74.7461 35.46 73.0811 36.195 71.4011 36.195C68.9861 36.195 67.4411 34.425 67.4411 31.98C67.4411 29.52 69.0761 27.75 71.4911 27.75Z" fill="#0F0F0F"/>
</svg>
