<svg width="332" height="325" viewBox="0 0 332 325" fill="none" xmlns="http://www.w3.org/2000/svg">
<rect x="1" y="1" width="330" height="323" rx="9" fill="white"/>
<rect x="1" y="1" width="330" height="323" rx="9" stroke="#E3E3E3" stroke-width="2"/>
<path d="M24.512 58.6V76H22.064V58.6H24.512Z" fill="#1E1E1E"/>
<path d="M192.912 68.992V76H190.728V63.088H192.912V65.032C193.656 63.808 194.856 62.872 196.8 62.872C198.792 62.872 199.944 63.712 200.52 65.152C201.552 63.544 203.04 62.872 204.864 62.872C207.864 62.872 209.04 64.888 209.04 67.84V76H206.856V68.488C206.856 66.496 206.472 64.768 204.096 64.768C202.2 64.768 200.976 66.208 200.976 68.992V76H198.792V68.488C198.792 66.496 198.408 64.768 196.032 64.768C194.136 64.768 192.912 66.208 192.912 68.992ZM223.714 70.264H213.778C213.85 73.048 215.866 74.392 217.762 74.392C219.682 74.392 220.738 73.528 221.29 72.256H223.546C222.97 74.464 220.906 76.312 217.762 76.312C213.682 76.312 211.426 73.384 211.426 69.568C211.426 65.464 214.162 62.872 217.69 62.872C221.65 62.872 223.978 66.16 223.714 70.264ZM217.69 64.744C215.77 64.744 213.994 65.8 213.802 68.392H221.41C221.338 66.568 220.018 64.744 217.69 64.744Z" fill="#1E1E1E"/>
<path d="M28.904 110.088H31.184L26.576 123.552C25.616 126.336 24.992 127.2 22.088 127.2H20.96V125.376H21.848C23.288 125.376 23.984 125.28 24.56 123.264L24.656 123L20 110.088H22.424L25.712 120.048L28.904 110.088ZM34.1613 116.592C34.1613 120.048 36.0333 121.392 38.0253 121.392C40.0173 121.392 41.8893 119.904 41.8893 116.592C41.8893 113.136 40.0173 111.792 38.0253 111.792C36.0333 111.792 34.1613 113.064 34.1613 116.592ZM38.0253 109.872C41.0253 109.872 44.2173 111.912 44.2173 116.592C44.2173 121.272 41.0253 123.312 38.0253 123.312C35.0253 123.312 31.8333 121.272 31.8333 116.592C31.8333 111.912 35.0253 109.872 38.0253 109.872ZM54.8216 123V121.152C54.0776 122.376 52.9016 123.312 50.7656 123.312C47.7896 123.312 46.6376 121.296 46.6376 118.344V110.088H48.8216V117.696C48.8216 119.688 49.1336 121.416 51.5336 121.416C53.6216 121.416 54.8216 119.976 54.8216 117.192V110.088H57.0056V123H54.8216ZM24.944 151.64L27.512 142.088H29.768L32.336 151.64L34.808 142.088H37.16L33.44 155H31.448L28.592 144.608L25.832 155H23.84L20.12 142.088H22.472L24.944 151.64ZM50.2843 149.264H40.3483C40.4203 152.048 42.4363 153.392 44.3323 153.392C46.2523 153.392 47.3083 152.528 47.8603 151.256H50.1163C49.5403 153.464 47.4763 155.312 44.3323 155.312C40.2523 155.312 37.9963 152.384 37.9963 148.568C37.9963 144.464 40.7323 141.872 44.2603 141.872C48.2203 141.872 50.5483 145.16 50.2843 149.264ZM44.2603 143.744C42.3403 143.744 40.5643 144.8 40.3723 147.392H47.9803C47.9083 145.568 46.5883 143.744 44.2603 143.744ZM22.352 174.088V170.848H24.536V174.088H26.984V175.84H24.536V183.496C24.536 184.84 24.632 185.176 25.88 185.176H26.984V187H25.4C22.928 187 22.352 186.448 22.352 183.76V175.84H20.312V174.088H22.352ZM31.9511 169.6V176.032C32.6951 174.808 33.9431 173.872 36.1271 173.872C39.2471 173.872 40.3751 175.888 40.3751 178.84V187H38.1911V179.488C38.1911 177.496 37.8551 175.768 35.3591 175.768C33.2471 175.768 31.9511 177.208 31.9511 179.992V187H29.7671V169.6H31.9511ZM55.0421 181.264H45.1061C45.1781 184.048 47.1941 185.392 49.0901 185.392C51.0101 185.392 52.0661 184.528 52.6181 183.256H54.8741C54.2981 185.464 52.2341 187.312 49.0901 187.312C45.0101 187.312 42.7541 184.384 42.7541 180.568C42.7541 176.464 45.4901 173.872 49.0181 173.872C52.9781 173.872 55.3061 177.16 55.0421 181.264ZM49.0181 175.744C47.0981 175.744 45.3221 176.8 45.1301 179.392H52.7381C52.6661 177.568 51.3461 175.744 49.0181 175.744ZM64.6462 174.088H66.9262L62.3182 187.552C61.3582 190.336 60.7342 191.2 57.8302 191.2H56.7022V189.376H57.5902C59.0302 189.376 59.7262 189.28 60.3022 187.264L60.3982 187L55.7422 174.088H58.1662L61.4542 184.048L64.6462 174.088Z" fill="#1E1E1E"/>
<path d="M197.904 110.088H200.184L195.576 123.552C194.616 126.336 193.992 127.2 191.088 127.2H189.96V125.376H190.848C192.288 125.376 192.984 125.28 193.56 123.264L193.656 123L189 110.088H191.424L194.712 120.048L197.904 110.088ZM203.161 116.592C203.161 120.048 205.033 121.392 207.025 121.392C209.017 121.392 210.889 119.904 210.889 116.592C210.889 113.136 209.017 111.792 207.025 111.792C205.033 111.792 203.161 113.064 203.161 116.592ZM207.025 109.872C210.025 109.872 213.217 111.912 213.217 116.592C213.217 121.272 210.025 123.312 207.025 123.312C204.025 123.312 200.833 121.272 200.833 116.592C200.833 111.912 204.025 109.872 207.025 109.872ZM223.822 123V121.152C223.078 122.376 221.902 123.312 219.766 123.312C216.79 123.312 215.638 121.296 215.638 118.344V110.088H217.822V117.696C217.822 119.688 218.134 121.416 220.534 121.416C222.622 121.416 223.822 119.976 223.822 117.192V110.088H226.006V123H223.822ZM198.72 155V153.152C197.976 154.376 196.8 155.312 194.664 155.312C191.688 155.312 190.536 153.296 190.536 150.344V142.088H192.72V149.696C192.72 151.688 193.032 153.416 195.432 153.416C197.52 153.416 198.72 151.976 198.72 149.192V142.088H200.904V155H198.72ZM214.041 145.856H211.761C211.401 144.32 210.249 143.72 208.713 143.72C207.441 143.72 206.001 144.176 206.001 145.352C206.001 146.384 206.721 146.84 207.969 147.104L209.793 147.464C212.145 147.896 214.209 148.832 214.209 151.304C214.209 153.872 211.905 155.312 208.953 155.312C205.569 155.312 203.673 153.08 203.409 150.824H205.713C206.073 152.48 207.081 153.464 209.001 153.464C210.657 153.464 212.001 152.768 212.001 151.544C212.001 150.224 210.777 149.72 209.385 149.408L207.465 149.024C205.713 148.64 203.793 147.872 203.793 145.448C203.793 143.168 206.097 141.848 208.953 141.848C211.761 141.848 213.633 143.384 214.041 145.856ZM191.352 174.088V170.848H193.536V174.088H195.984V175.84H193.536V183.496C193.536 184.84 193.632 185.176 194.88 185.176H195.984V187H194.4C191.928 187 191.352 186.448 191.352 183.76V175.84H189.312V174.088H191.352ZM200.951 169.6V176.032C201.695 174.808 202.943 173.872 205.127 173.872C208.247 173.872 209.375 175.888 209.375 178.84V187H207.191V179.488C207.191 177.496 206.855 175.768 204.359 175.768C202.247 175.768 200.951 177.208 200.951 179.992V187H198.767V169.6H200.951ZM224.042 181.264H214.106C214.178 184.048 216.194 185.392 218.09 185.392C220.01 185.392 221.066 184.528 221.618 183.256H223.874C223.298 185.464 221.234 187.312 218.09 187.312C214.01 187.312 211.754 184.384 211.754 180.568C211.754 176.464 214.49 173.872 218.018 173.872C221.978 173.872 224.306 177.16 224.042 181.264ZM218.018 175.744C216.098 175.744 214.322 176.8 214.13 179.392H221.738C221.666 177.568 220.346 175.744 218.018 175.744ZM228.771 179.992V187H226.587V174.088H228.771V176.032C229.515 174.808 230.715 173.872 232.659 173.872C234.651 173.872 235.803 174.712 236.379 176.152C237.411 174.544 238.899 173.872 240.723 173.872C243.723 173.872 244.899 175.888 244.899 178.84V187H242.715V179.488C242.715 177.496 242.331 175.768 239.955 175.768C238.059 175.768 236.835 177.208 236.835 179.992V187H234.651V179.488C234.651 177.496 234.267 175.768 231.891 175.768C229.995 175.768 228.771 177.208 228.771 179.992Z" fill="#1E1E1E"/>
<path d="M88.078 115.468H91.354C92.866 115.468 94.098 115.86 94.098 117.386C94.098 118.184 93.748 118.744 93.048 119.038C93.832 119.262 94.406 119.794 94.406 120.802C94.406 122.37 93.188 123 91.578 123H88.078V115.468ZM89.352 118.632H91.27C92.208 118.632 92.768 118.38 92.768 117.526C92.768 116.742 92.18 116.574 91.228 116.574H89.352V118.632ZM89.352 119.682V121.894H91.382C92.502 121.894 93.076 121.572 93.076 120.788C93.076 119.948 92.516 119.682 91.34 119.682H89.352ZM98.6143 123H95.8983V115.468H97.1723V118.128H98.6283C100.588 118.128 101.442 118.898 101.442 120.508C101.442 122.37 100.336 123 98.6143 123ZM97.1723 119.234V121.894H98.5023C99.6223 121.894 100.196 121.53 100.196 120.508C100.196 119.5 99.6363 119.234 98.4603 119.234H97.1723ZM103.962 123H102.688V115.468H103.962V123Z" fill="#5A5A5A"/>
<path d="M262.636 116.574H260.06V123H258.786V116.574H256.21V115.468H262.636V116.574ZM270.262 119.654H264.466C264.508 121.278 265.684 122.062 266.79 122.062C267.91 122.062 268.526 121.558 268.848 120.816H270.164C269.828 122.104 268.624 123.182 266.79 123.182C264.41 123.182 263.094 121.474 263.094 119.248C263.094 116.854 264.69 115.342 266.748 115.342C269.058 115.342 270.416 117.26 270.262 119.654ZM266.748 116.434C265.628 116.434 264.592 117.05 264.48 118.562H268.918C268.876 117.498 268.106 116.434 266.748 116.434ZM275.286 115.902C276.994 115.902 278.464 117.092 278.464 119.472C278.464 121.894 276.91 123.182 275.062 123.182C273.116 123.182 271.52 121.824 271.52 119.08V118.212C271.562 115.496 272.458 113.914 275.482 113.312L277.96 112.822V113.956L275.552 114.474C273.718 114.88 272.836 115.566 272.654 117.442C273.158 116.392 274.166 115.902 275.286 115.902ZM275.062 122.076C276.294 122.076 277.106 121.138 277.106 119.5C277.106 117.848 276.238 117.008 275.076 117.008C273.928 117.008 272.892 117.792 272.892 119.486C272.892 121.082 273.788 122.076 275.062 122.076ZM286.545 119.654H280.749C280.791 121.278 281.967 122.062 283.073 122.062C284.193 122.062 284.809 121.558 285.131 120.816H286.447C286.111 122.104 284.907 123.182 283.073 123.182C280.693 123.182 279.377 121.474 279.377 119.248C279.377 116.854 280.973 115.342 283.031 115.342C285.341 115.342 286.699 117.26 286.545 119.654ZM283.031 116.434C281.911 116.434 280.875 117.05 280.763 118.562H285.201C285.159 117.498 284.389 116.434 283.031 116.434Z" fill="#5A5A5A"/>
<path d="M96.31 147.468V155H95.064V148.952L92.642 155H91.732L89.324 149.036V155H88.078V147.468H89.898L92.236 153.264L94.49 147.468H96.31ZM101.185 155H98.4686V147.468H99.7426V150.128H101.199C103.159 150.128 104.013 150.898 104.013 152.508C104.013 154.37 102.907 155 101.185 155ZM99.7426 151.234V153.894H101.073C102.193 153.894 102.767 153.53 102.767 152.508C102.767 151.5 102.207 151.234 101.031 151.234H99.7426ZM106.533 155H105.259V147.468H106.533V155Z" fill="#5A5A5A"/>
<path d="M263.35 155H262.076V151.71H258.352V155H257.078V147.468H258.352V150.604H262.076V147.468H263.35V155ZM270.176 151.85V151.374C267.866 151.598 266.396 151.948 266.396 152.984C266.396 153.698 266.942 154.174 267.852 154.174C269.042 154.174 270.176 153.628 270.176 151.85ZM267.572 155.182C266.158 155.182 264.982 154.398 264.982 153.012C264.982 151.234 266.998 150.702 270.078 150.366V150.184C270.078 148.798 269.322 148.35 268.37 148.35C267.306 148.35 266.704 148.91 266.648 149.848H265.332C265.444 148.224 266.9 147.314 268.356 147.314C270.442 147.314 271.366 148.294 271.352 150.422L271.338 152.158C271.324 153.432 271.38 154.286 271.534 155H270.246C270.204 154.72 270.162 154.412 270.148 153.964C269.686 154.748 268.916 155.182 267.572 155.182ZM281.552 147.468V155H280.306V148.952L277.884 155H276.974L274.566 149.036V155H273.32V147.468H275.14L277.478 153.264L279.732 147.468H281.552Z" fill="#5A5A5A"/>
<path d="M88.876 183.262C88.876 185.278 89.968 186.062 91.13 186.062C92.292 186.062 93.384 185.194 93.384 183.262C93.384 181.246 92.292 180.462 91.13 180.462C89.968 180.462 88.876 181.204 88.876 183.262ZM91.13 179.342C92.88 179.342 94.742 180.532 94.742 183.262C94.742 185.992 92.88 187.182 91.13 187.182C89.38 187.182 87.518 185.992 87.518 183.262C87.518 180.532 89.38 179.342 91.13 179.342ZM102.608 187H101.334V183.71H97.6098V187H96.3358V179.468H97.6098V182.604H101.334V179.468H102.608V187ZM109.924 187V181.316L106.032 187H104.758V179.468H106.032V185.152L109.924 179.468H111.198V187H109.924Z" fill="#5A5A5A"/>
<path d="M262.244 187V181.316L258.352 187H257.078V179.468H258.352V185.152L262.244 179.468H263.518V187H262.244ZM273.91 179.468V187H272.664V180.952L270.242 187H269.332L266.924 181.036V187H265.678V179.468H267.498L269.836 185.264L272.09 179.468H273.91Z" fill="#5A5A5A"/>
<path d="M23.912 216.6V223.032C24.656 221.808 25.904 220.872 28.088 220.872C31.208 220.872 32.336 222.888 32.336 225.84V234H30.152V226.488C30.152 224.496 29.816 222.768 27.32 222.768C25.208 222.768 23.912 224.208 23.912 226.992V234H21.728V216.6H23.912ZM47.003 228.264H37.067C37.139 231.048 39.155 232.392 41.051 232.392C42.971 232.392 44.027 231.528 44.579 230.256H46.835C46.259 232.464 44.195 234.312 41.051 234.312C36.971 234.312 34.715 231.384 34.715 227.568C34.715 223.464 37.451 220.872 40.979 220.872C44.939 220.872 47.267 224.16 47.003 228.264ZM40.979 222.744C39.059 222.744 37.283 223.8 37.091 226.392H44.699C44.627 224.568 43.307 222.744 40.979 222.744ZM31.4 256.856H29.12C28.76 255.32 27.608 254.72 26.072 254.72C24.8 254.72 23.36 255.176 23.36 256.352C23.36 257.384 24.08 257.84 25.328 258.104L27.152 258.464C29.504 258.896 31.568 259.832 31.568 262.304C31.568 264.872 29.264 266.312 26.312 266.312C22.928 266.312 21.032 264.08 20.768 261.824H23.072C23.432 263.48 24.44 264.464 26.36 264.464C28.016 264.464 29.36 263.768 29.36 262.544C29.36 261.224 28.136 260.72 26.744 260.408L24.824 260.024C23.072 259.64 21.152 258.872 21.152 256.448C21.152 254.168 23.456 252.848 26.312 252.848C29.12 252.848 30.992 254.384 31.4 256.856ZM36.5214 248.6V255.032C37.2654 253.808 38.5134 252.872 40.6974 252.872C43.8174 252.872 44.9454 254.888 44.9454 257.84V266H42.7614V258.488C42.7614 256.496 42.4254 254.768 39.9294 254.768C37.8174 254.768 36.5214 256.208 36.5214 258.992V266H34.3374V248.6H36.5214ZM59.6124 260.264H49.6764C49.7484 263.048 51.7644 264.392 53.6604 264.392C55.5804 264.392 56.6364 263.528 57.1884 262.256H59.4444C58.8684 264.464 56.8044 266.312 53.6604 266.312C49.5804 266.312 47.3244 263.384 47.3244 259.568C47.3244 255.464 50.0604 252.872 53.5884 252.872C57.5484 252.872 59.8764 256.16 59.6124 260.264ZM53.5884 254.744C51.6684 254.744 49.8924 255.8 49.7004 258.392H57.3084C57.2364 256.568 55.9164 254.744 53.5884 254.744ZM21.728 285.088H23.912V298H21.728V285.088ZM21.728 280.6H23.912V283.24H21.728V280.6ZM28.0004 285.088V281.848H30.1844V285.088H32.6324V286.84H30.1844V294.496C30.1844 295.84 30.2804 296.176 31.5284 296.176H32.6324V298H31.0484C28.5764 298 28.0004 297.448 28.0004 294.76V286.84H25.9604V285.088H28.0004Z" fill="#1E1E1E"/>
<path d="M192.912 216.6V223.032C193.656 221.808 194.904 220.872 197.088 220.872C200.208 220.872 201.336 222.888 201.336 225.84V234H199.152V226.488C199.152 224.496 198.816 222.768 196.32 222.768C194.208 222.768 192.912 224.208 192.912 226.992V234H190.728V216.6H192.912ZM204.603 221.088H206.787V234H204.603V221.088ZM204.603 216.6H206.787V219.24H204.603V216.6ZM212.435 226.992V234H210.251V221.088H212.435V223.032C213.179 221.808 214.379 220.872 216.323 220.872C218.315 220.872 219.467 221.712 220.043 223.152C221.075 221.544 222.563 220.872 224.387 220.872C227.387 220.872 228.563 222.888 228.563 225.84V234H226.379V226.488C226.379 224.496 225.995 222.768 223.619 222.768C221.723 222.768 220.499 224.208 220.499 226.992V234H218.315V226.488C218.315 224.496 217.931 222.768 215.555 222.768C213.659 222.768 212.435 224.208 212.435 226.992ZM192.912 248.6V255.032C193.656 253.808 194.904 252.872 197.088 252.872C200.208 252.872 201.336 254.888 201.336 257.84V266H199.152V258.488C199.152 256.496 198.816 254.768 196.32 254.768C194.208 254.768 192.912 256.208 192.912 258.992V266H190.728V248.6H192.912ZM216.003 260.264H206.067C206.139 263.048 208.155 264.392 210.051 264.392C211.971 264.392 213.027 263.528 213.579 262.256H215.835C215.259 264.464 213.195 266.312 210.051 266.312C205.971 266.312 203.715 263.384 203.715 259.568C203.715 255.464 206.451 252.872 209.979 252.872C213.939 252.872 216.267 256.16 216.003 260.264ZM209.979 254.744C208.059 254.744 206.283 255.8 206.091 258.392H213.699C213.627 256.568 212.307 254.744 209.979 254.744ZM224.98 253.04V255.368C224.524 255.296 224.116 255.272 223.756 255.272C221.74 255.272 220.732 256.376 220.732 259.232V266H218.548V253.088H220.684V255.344C221.332 253.88 222.628 253.088 224.332 253.016C224.548 253.016 224.716 253.016 224.98 253.04ZM190.728 285.088H192.912V298H190.728V285.088ZM190.728 280.6H192.912V283.24H190.728V280.6ZM197 285.088V281.848H199.184V285.088H201.632V286.84H199.184V294.496C199.184 295.84 199.28 296.176 200.528 296.176H201.632V298H200.048C197.576 298 197 297.448 197 294.76V286.84H194.96V285.088H197Z" fill="#1E1E1E"/>
<path d="M88.876 230.262C88.876 232.278 89.968 233.062 91.13 233.062C92.292 233.062 93.384 232.194 93.384 230.262C93.384 228.246 92.292 227.462 91.13 227.462C89.968 227.462 88.876 228.204 88.876 230.262ZM91.13 226.342C92.88 226.342 94.742 227.532 94.742 230.262C94.742 232.992 92.88 234.182 91.13 234.182C89.38 234.182 87.518 232.992 87.518 230.262C87.518 227.532 89.38 226.342 91.13 226.342ZM102.608 234H101.334V230.71H97.6098V234H96.3358V226.468H97.6098V229.604H101.334V226.468H102.608V234Z" fill="#5A5A5A"/>
<path d="M263.658 230.654H257.862C257.904 232.278 259.08 233.062 260.186 233.062C261.306 233.062 261.922 232.558 262.244 231.816H263.56C263.224 233.104 262.02 234.182 260.186 234.182C257.806 234.182 256.49 232.474 256.49 230.248C256.49 227.854 258.086 226.342 260.144 226.342C262.454 226.342 263.812 228.26 263.658 230.654ZM260.144 227.434C259.024 227.434 257.988 228.05 257.876 229.562H262.314C262.272 228.498 261.502 227.434 260.144 227.434ZM273.458 226.468V234H272.212V227.952L269.79 234H268.88L266.472 228.036V234H265.226V226.468H267.046L269.384 232.264L271.638 226.468H273.458ZM275.169 236.45V235.386H275.687C276.527 235.386 276.933 235.33 277.269 234.154L277.325 234L274.609 226.468H276.023L277.941 232.278L279.803 226.468H281.133L278.445 234.322C277.885 235.946 277.521 236.45 275.827 236.45H275.169Z" fill="#5A5A5A"/>
<path d="M88.876 262.262C88.876 264.278 89.968 265.062 91.13 265.062C92.292 265.062 93.384 264.194 93.384 262.262C93.384 260.246 92.292 259.462 91.13 259.462C89.968 259.462 88.876 260.204 88.876 262.262ZM91.13 258.342C92.88 258.342 94.742 259.532 94.742 262.262C94.742 264.992 92.88 266.182 91.13 266.182C89.38 266.182 87.518 264.992 87.518 262.262C87.518 259.532 89.38 258.342 91.13 258.342ZM102.608 266H101.334V262.71H97.6098V266H96.3358V258.468H97.6098V261.604H101.334V258.468H102.608V266ZM109.434 262.85V262.374C107.124 262.598 105.654 262.948 105.654 263.984C105.654 264.698 106.2 265.174 107.11 265.174C108.3 265.174 109.434 264.628 109.434 262.85ZM106.83 266.182C105.416 266.182 104.24 265.398 104.24 264.012C104.24 262.234 106.256 261.702 109.336 261.366V261.184C109.336 259.798 108.58 259.35 107.628 259.35C106.564 259.35 105.962 259.91 105.906 260.848H104.59C104.702 259.224 106.158 258.314 107.614 258.314C109.7 258.314 110.624 259.294 110.61 261.422L110.596 263.158C110.582 264.432 110.638 265.286 110.792 266H109.504C109.462 265.72 109.42 265.412 109.406 264.964C108.944 265.748 108.174 266.182 106.83 266.182Z" fill="#5A5A5A"/>
<path d="M263.658 262.654H257.862C257.904 264.278 259.08 265.062 260.186 265.062C261.306 265.062 261.922 264.558 262.244 263.816H263.56C263.224 265.104 262.02 266.182 260.186 266.182C257.806 266.182 256.49 264.474 256.49 262.248C256.49 259.854 258.086 258.342 260.144 258.342C262.454 258.342 263.812 260.26 263.658 262.654ZM260.144 259.434C259.024 259.434 257.988 260.05 257.876 261.562H262.314C262.272 260.498 261.502 259.434 260.144 259.434ZM269.734 255.85H270.728C270.616 256.69 270.084 257.544 268.488 257.544C266.948 257.544 266.36 256.69 266.29 255.85H267.284C267.34 256.298 267.676 256.704 268.502 256.704C269.328 256.704 269.678 256.298 269.734 255.85ZM270.392 266V260.316L266.5 266H265.226V258.468H266.5V264.152L270.392 258.468H271.666V266H270.392Z" fill="#5A5A5A"/>
<path d="M87.434 295.48H88.708C88.918 296.376 89.66 297.062 90.836 297.062C91.942 297.062 92.978 296.32 93.09 294.752H89.772V293.646H93.09C92.936 292.246 92.04 291.42 90.822 291.42C89.772 291.42 89.03 292.008 88.764 293.016H87.504C87.84 291.238 89.226 290.3 90.864 290.3C93.076 290.3 94.434 291.896 94.434 294.248C94.434 296.586 93.188 298.182 90.906 298.182C89.268 298.182 87.854 297.328 87.434 295.48ZM101.32 291.574H98.7436V298H97.4696V291.574H94.8936V290.468H101.32V291.574ZM103.163 294.262C103.163 296.278 104.255 297.062 105.417 297.062C106.579 297.062 107.671 296.194 107.671 294.262C107.671 292.246 106.579 291.462 105.417 291.462C104.255 291.462 103.163 292.204 103.163 294.262ZM105.417 290.342C107.167 290.342 109.029 291.532 109.029 294.262C109.029 296.992 107.167 298.182 105.417 298.182C103.667 298.182 101.805 296.992 101.805 294.262C101.805 291.532 103.667 290.342 105.417 290.342Z" fill="#5A5A5A"/>
<path d="M256.434 295.48H257.708C257.918 296.376 258.66 297.062 259.836 297.062C260.942 297.062 261.978 296.32 262.09 294.752H258.772V293.646H262.09C261.936 292.246 261.04 291.42 259.822 291.42C258.772 291.42 258.03 292.008 257.764 293.016H256.504C256.84 291.238 258.226 290.3 259.864 290.3C262.076 290.3 263.434 291.896 263.434 294.248C263.434 296.586 262.188 298.182 259.906 298.182C258.268 298.182 256.854 297.328 256.434 295.48ZM270.32 291.574H267.744V298H266.47V291.574H263.894V290.468H270.32V291.574ZM272.163 294.262C272.163 296.278 273.255 297.062 274.417 297.062C275.579 297.062 276.671 296.194 276.671 294.262C276.671 292.246 275.579 291.462 274.417 291.462C273.255 291.462 272.163 292.204 272.163 294.262ZM274.417 290.342C276.167 290.342 278.029 291.532 278.029 294.262C278.029 296.992 276.167 298.182 274.417 298.182C272.667 298.182 270.805 296.992 270.805 294.262C270.805 291.532 272.667 290.342 274.417 290.342ZM287.855 290.468V298H286.609V291.952L284.187 298H283.277L280.869 292.036V298H279.623V290.468H281.443L283.781 296.264L286.035 290.468H287.855ZM289.566 300.45V299.386H290.084C290.924 299.386 291.33 299.33 291.666 298.154L291.722 298L289.006 290.468H290.42L292.338 296.278L294.2 290.468H295.53L292.842 298.322C292.282 299.946 291.918 300.45 290.224 300.45H289.566Z" fill="#5A5A5A"/>
<path d="M93.65 68.468V76H92.376V73.326H91.046C90.976 73.326 90.906 73.326 90.836 73.312L88.792 76H87.21L89.492 72.962C88.54 72.64 87.896 71.912 87.896 70.792C87.896 69.238 88.96 68.468 90.696 68.468H93.65ZM92.376 69.574H90.766C89.828 69.574 89.198 69.966 89.198 70.876C89.198 71.898 89.996 72.22 90.878 72.22H92.376V69.574Z" fill="#5A5A5A"/>
<path d="M265.31 68.468V76H264.064V69.952L261.642 76H260.732L258.324 70.036V76H257.078V68.468H258.898L261.236 74.264L263.49 68.468H265.31ZM273.741 76H272.467V72.71H268.743V76H267.469V68.468H268.743V71.604H272.467V68.468H273.741V76ZM282.471 72.654H276.675C276.717 74.278 277.893 75.062 278.999 75.062C280.119 75.062 280.735 74.558 281.057 73.816H282.373C282.037 75.104 280.833 76.182 278.999 76.182C276.619 76.182 275.303 74.474 275.303 72.248C275.303 69.854 276.899 68.342 278.957 68.342C281.267 68.342 282.625 70.26 282.471 72.654ZM278.957 69.434C277.837 69.434 276.801 70.05 276.689 71.562H281.127C281.085 70.498 280.315 69.434 278.957 69.434Z" fill="#5A5A5A"/>
<path d="M23.3 36H21.155V25.125H23.3V30.36H23.315L27.23 25.125H29.63L25.595 30.315L29.795 36H27.305L23.315 30.615H23.3V36ZM35.4182 32.91V32.31C33.0932 32.55 32.1782 32.82 32.1782 33.72C32.1782 34.305 32.6282 34.785 33.5732 34.785C34.8782 34.785 35.4182 34.095 35.4182 32.91ZM35.5982 34.995C35.0132 35.835 34.1732 36.195 32.9582 36.195C31.4132 36.195 30.0482 35.295 30.0482 33.825C30.0482 31.92 32.1782 31.35 35.3582 30.99V30.855C35.3582 29.61 34.6832 29.175 33.8432 29.175C33.0482 29.175 32.3882 29.58 32.3432 30.48H30.4082C30.5732 28.89 31.8632 27.72 33.9482 27.72C35.8532 27.72 37.4282 28.56 37.4282 31.275C37.4282 31.515 37.3982 32.61 37.3982 33.33C37.3982 34.605 37.4732 35.325 37.6382 36H35.7332C35.6732 35.745 35.6432 35.4 35.5982 34.995ZM41.3427 36H39.2577V27.93H41.3427V31.845H41.3577L44.1927 27.93H46.5327L43.4877 31.905L46.6677 36H44.2827L41.3577 32.04H41.3427V36ZM53.2368 36H51.1668V27.93H58.3818V36H56.3118V29.565H53.2368V36ZM63.8589 29.37C62.7189 29.37 61.9089 30.285 61.9089 31.98C61.9089 33.675 62.7189 34.575 63.8589 34.575C64.9989 34.575 65.8089 33.675 65.8089 31.98C65.8089 30.285 64.9989 29.37 63.8589 29.37ZM63.8589 36.195C61.8189 36.195 59.8089 34.8 59.8089 31.98C59.8089 29.145 61.8189 27.75 63.8589 27.75C65.8989 27.75 67.9089 29.145 67.9089 31.98C67.9089 34.8 65.8989 36.195 63.8589 36.195ZM70.3237 37.875H68.4037V34.365H68.8537C69.6337 34.365 70.0237 33.69 70.1887 30.33L70.2937 27.93H76.4887V34.365H77.7337V37.875H75.8137V36H70.3237V37.875ZM71.2687 34.365H74.4187V29.565H72.1537L72.0637 31.035C71.9437 32.715 71.8387 33.465 71.2687 34.365ZM78.7271 36H78.3371V34.365H78.5321C79.3721 34.365 79.7021 33.375 79.8671 30.465L80.0171 27.93H86.1071V36H84.0371V29.565H81.9521L81.8321 31.485C81.6521 34.53 80.7221 36 78.7271 36ZM95.5634 32.535H89.6084C89.7284 33.915 90.6584 34.59 91.6484 34.59C92.2934 34.59 92.9234 34.365 93.3434 33.66H95.4734C95.0384 34.86 93.8684 36.195 91.6634 36.195C89.0684 36.195 87.5534 34.26 87.5534 31.935C87.5534 29.535 89.2184 27.75 91.6034 27.75C94.0934 27.75 95.6384 29.685 95.5634 32.535ZM91.5884 29.265C90.8084 29.265 89.8034 29.745 89.6384 31.11H93.4634C93.4184 29.745 92.4584 29.265 91.5884 29.265ZM98.1485 36H95.7635L98.7335 31.74L95.9735 27.93H98.2835L100.863 31.71H100.878V27.93H102.948V31.71H102.963L105.573 27.93H107.958L105.138 31.74L108.108 36H105.678L102.963 31.905H102.948V36H100.878V31.905H100.863L98.1485 36ZM113.729 32.91V32.31C111.404 32.55 110.489 32.82 110.489 33.72C110.489 34.305 110.939 34.785 111.884 34.785C113.189 34.785 113.729 34.095 113.729 32.91ZM113.909 34.995C113.324 35.835 112.484 36.195 111.269 36.195C109.724 36.195 108.359 35.295 108.359 33.825C108.359 31.92 110.489 31.35 113.669 30.99V30.855C113.669 29.61 112.994 29.175 112.154 29.175C111.359 29.175 110.699 29.58 110.654 30.48H108.719C108.884 28.89 110.174 27.72 112.259 27.72C114.164 27.72 115.739 28.56 115.739 31.275C115.739 31.515 115.709 32.61 115.709 33.33C115.709 34.605 115.784 35.325 115.949 36H114.044C113.984 35.745 113.954 35.4 113.909 34.995ZM129.823 37.875H127.903V36H117.568V27.93H119.638V34.365H122.038V27.93H124.108V34.365H126.508V27.93H128.578V34.455H129.823V37.875ZM138.425 32.535H132.47C132.59 33.915 133.52 34.59 134.51 34.59C135.155 34.59 135.785 34.365 136.205 33.66H138.335C137.9 34.86 136.73 36.195 134.525 36.195C131.93 36.195 130.415 34.26 130.415 31.935C130.415 29.535 132.08 27.75 134.465 27.75C136.955 27.75 138.5 29.685 138.425 32.535ZM134.45 29.265C133.67 29.265 132.665 29.745 132.5 31.11H136.325C136.28 29.745 135.32 29.265 134.45 29.265ZM147.463 32.535H141.508C141.628 33.915 142.558 34.59 143.548 34.59C144.193 34.59 144.823 34.365 145.243 33.66H147.373C146.938 34.86 145.768 36.195 143.563 36.195C140.968 36.195 139.453 34.26 139.453 31.935C139.453 29.535 141.118 27.75 143.503 27.75C145.993 27.75 147.538 29.685 147.463 32.535ZM143.488 29.265C142.708 29.265 141.703 29.745 141.538 31.11H145.363C145.318 29.745 144.358 29.265 143.488 29.265Z" fill="#0F0F0F"/>
<path d="M192.3 36H190.155V25.125H192.3V30.36H192.315L196.23 25.125H198.63L194.595 30.315L198.795 36H196.305L192.315 30.615H192.3V36ZM204.418 32.91V32.31C202.093 32.55 201.178 32.82 201.178 33.72C201.178 34.305 201.628 34.785 202.573 34.785C203.878 34.785 204.418 34.095 204.418 32.91ZM204.598 34.995C204.013 35.835 203.173 36.195 201.958 36.195C200.413 36.195 199.048 35.295 199.048 33.825C199.048 31.92 201.178 31.35 204.358 30.99V30.855C204.358 29.61 203.683 29.175 202.843 29.175C202.048 29.175 201.388 29.58 201.343 30.48H199.408C199.573 28.89 200.863 27.72 202.948 27.72C204.853 27.72 206.428 28.56 206.428 31.275C206.428 31.515 206.398 32.61 206.398 33.33C206.398 34.605 206.473 35.325 206.638 36H204.733C204.673 35.745 204.643 35.4 204.598 34.995ZM210.343 36H208.258V27.93H210.343V31.845H210.358L213.193 27.93H215.533L212.488 31.905L215.668 36H213.283L210.358 32.04H210.343V36ZM221.277 37.875H219.357V34.365H219.807C220.587 34.365 220.977 33.69 221.142 30.33L221.247 27.93H227.442V34.365H228.687V37.875H226.767V36H221.277V37.875ZM222.222 34.365H225.372V29.565H223.107L223.017 31.035C222.897 32.715 222.792 33.465 222.222 34.365ZM233.313 29.37C232.173 29.37 231.363 30.285 231.363 31.98C231.363 33.675 232.173 34.575 233.313 34.575C234.453 34.575 235.263 33.675 235.263 31.98C235.263 30.285 234.453 29.37 233.313 29.37ZM233.313 36.195C231.273 36.195 229.263 34.8 229.263 31.98C229.263 29.145 231.273 27.75 233.313 27.75C235.353 27.75 237.363 29.145 237.363 31.98C237.363 34.8 235.353 36.195 233.313 36.195ZM240.855 36H238.785V27.93H246V36H243.93V29.565H240.855V36ZM251.477 29.37C250.337 29.37 249.527 30.285 249.527 31.98C249.527 33.675 250.337 34.575 251.477 34.575C252.617 34.575 253.427 33.675 253.427 31.98C253.427 30.285 252.617 29.37 251.477 29.37ZM251.477 36.195C249.437 36.195 247.427 34.8 247.427 31.98C247.427 29.145 249.437 27.75 251.477 27.75C253.517 27.75 255.527 29.145 255.527 31.98C255.527 34.8 253.517 36.195 251.477 36.195ZM256.428 36H256.038V34.365H256.233C257.073 34.365 257.403 33.375 257.568 30.465L257.718 27.93H263.808V36H261.738V29.565H259.653L259.533 31.485C259.353 34.53 258.423 36 256.428 36ZM267.955 36H265.885V27.93H267.955V31.05H271.315V27.93H273.385V36H271.315V32.685H267.955V36ZM282.83 32.535H276.875C276.995 33.915 277.925 34.59 278.915 34.59C279.56 34.59 280.19 34.365 280.61 33.66H282.74C282.305 34.86 281.135 36.195 278.93 36.195C276.335 36.195 274.82 34.26 274.82 31.935C274.82 29.535 276.485 27.75 278.87 27.75C281.36 27.75 282.905 29.685 282.83 32.535ZM278.855 29.265C278.075 29.265 277.07 29.745 276.905 31.11H280.73C280.685 29.745 279.725 29.265 278.855 29.265ZM286.338 36H284.268V27.93H286.338V31.05H289.698V27.93H291.768V36H289.698V32.685H286.338V36ZM295.904 36H293.834V27.93H295.859V33.435L299.414 27.93H301.484V36H299.459V30.69L295.904 36ZM310.94 32.535H304.985C305.105 33.915 306.035 34.59 307.025 34.59C307.67 34.59 308.3 34.365 308.72 33.66H310.85C310.415 34.86 309.245 36.195 307.04 36.195C304.445 36.195 302.93 34.26 302.93 31.935C302.93 29.535 304.595 27.75 306.98 27.75C309.47 27.75 311.015 29.685 310.94 32.535ZM306.965 29.265C306.185 29.265 305.18 29.745 305.015 31.11H308.84C308.795 29.745 307.835 29.265 306.965 29.265Z" fill="#0F0F0F"/>
<rect x="168" y="20" width="1" height="285" fill="#D9D9D9"/>
</svg>
