<svg width="270" height="376" viewBox="0 0 270 376" fill="none" xmlns="http://www.w3.org/2000/svg">
<rect x="1" y="1" width="268" height="374" rx="9" fill="white"/>
<rect x="1" y="1" width="268" height="374" rx="9" stroke="#E3E3E3" stroke-width="2"/>
<path d="M23.794 33H22.52V25.062H20.168V24.194C21.61 24.152 22.38 23.942 22.926 22.85H23.794V33ZM35.5046 25.468V33H34.2306V26.574H31.6966L31.5846 28.394C31.4026 31.432 30.7446 33 28.9946 33H28.7566V31.894H28.8966C29.5686 31.894 30.2126 31.166 30.3666 28.044L30.4786 25.468H35.5046ZM42.828 33V27.316L38.936 33H37.662V25.468H38.936V31.152L42.828 25.468H44.102V33H42.828ZM52.2536 31.894H53.3036V34.806H52.0996V33H46.2616V25.468H47.5356V31.894H50.9796V25.468H52.2536V31.894ZM55.3858 29.262C55.3858 31.278 56.4778 32.062 57.6398 32.062C58.8018 32.062 59.8938 31.194 59.8938 29.262C59.8938 27.246 58.8018 26.462 57.6398 26.462C56.4778 26.462 55.3858 27.204 55.3858 29.262ZM57.6398 25.342C59.3898 25.342 61.2518 26.532 61.2518 29.262C61.2518 31.992 59.3898 33.182 57.6398 33.182C55.8898 33.182 54.0278 31.992 54.0278 29.262C54.0278 26.532 55.8898 25.342 57.6398 25.342Z" fill="#5A5A5A"/>
<path d="M24.228 98.668C26.104 98.668 27.448 99.606 27.448 101.328C27.448 103.68 24.998 105.752 22.156 107.81H27.728V109H20.42V107.852C24.004 105.206 26.104 103.302 26.104 101.496C26.104 100.432 25.418 99.732 24.2 99.732C23.108 99.732 22.058 100.334 22.016 102.014H20.7C20.658 99.998 22.058 98.668 24.228 98.668ZM38.6081 101.468V109H37.3341V102.574H34.8001L34.6881 104.394C34.5061 107.432 33.8481 109 32.0981 109H31.8601V107.894H32.0001C32.6721 107.894 33.3161 107.166 33.4701 104.044L33.5821 101.468H38.6081ZM45.9315 109V103.316L42.0395 109H40.7655V101.468H42.0395V107.152L45.9315 101.468H47.2055V109H45.9315ZM55.3571 107.894H56.4071V110.806H55.2031V109H49.3651V101.468H50.6391V107.894H54.0831V101.468H55.3571V107.894ZM58.4893 105.262C58.4893 107.278 59.5813 108.062 60.7433 108.062C61.9053 108.062 62.9973 107.194 62.9973 105.262C62.9973 103.246 61.9053 102.462 60.7433 102.462C59.5813 102.462 58.4893 103.204 58.4893 105.262ZM60.7433 101.342C62.4933 101.342 64.3553 102.532 64.3553 105.262C64.3553 107.992 62.4933 109.182 60.7433 109.182C58.9933 109.182 57.1313 107.992 57.1313 105.262C57.1313 102.532 58.9933 101.342 60.7433 101.342Z" fill="#5A5A5A"/>
<path d="M23.948 248.118C25.292 248.118 26.244 247.432 26.244 246.158C26.244 244.702 24.942 244.226 23.318 244.226H23.108V243.064H23.276C25.054 243.064 25.978 242.574 25.978 241.384C25.978 240.306 25.082 239.732 24.004 239.732C22.646 239.732 21.904 240.544 21.792 241.706H20.476C20.63 239.914 21.904 238.668 24.032 238.668C25.782 238.668 27.322 239.382 27.322 241.244C27.322 242.294 26.734 243.162 25.67 243.596C27.182 244.086 27.602 245.066 27.602 246.144C27.602 248.188 25.88 249.182 23.934 249.182C21.526 249.182 20.476 247.698 20.322 246.004H21.638C21.792 247.25 22.506 248.118 23.948 248.118ZM38.5671 241.468V249H37.2931V242.574H34.7591L34.6471 244.394C34.4651 247.432 33.8071 249 32.0571 249H31.8191V247.894H31.9591C32.6311 247.894 33.2751 247.166 33.4291 244.044L33.5411 241.468H38.5671ZM45.8905 249V243.316L41.9985 249H40.7245V241.468H41.9985V247.152L45.8905 241.468H47.1645V249H45.8905ZM55.3161 247.894H56.3661V250.806H55.1621V249H49.3241V241.468H50.5981V247.894H54.0421V241.468H55.3161V247.894ZM58.4483 245.262C58.4483 247.278 59.5403 248.062 60.7023 248.062C61.8643 248.062 62.9563 247.194 62.9563 245.262C62.9563 243.246 61.8643 242.462 60.7023 242.462C59.5403 242.462 58.4483 243.204 58.4483 245.262ZM60.7023 241.342C62.4523 241.342 64.3143 242.532 64.3143 245.262C64.3143 247.992 62.4523 249.182 60.7023 249.182C58.9523 249.182 57.0903 247.992 57.0903 245.262C57.0903 242.532 58.9523 241.342 60.7023 241.342Z" fill="#5A5A5A"/>
<path d="M24.512 51.6V69H22.064V51.6H24.512Z" fill="#1E1E1E"/>
<path d="M20 127.6H22.688L27.44 136.096L32.288 127.6H34.976L28.592 138.256V145H26.144V138.208L20 127.6ZM36.0363 138.592C36.0363 142.048 37.9083 143.392 39.9003 143.392C41.8923 143.392 43.7643 141.904 43.7643 138.592C43.7643 135.136 41.8923 133.792 39.9003 133.792C37.9083 133.792 36.0363 135.064 36.0363 138.592ZM39.9003 131.872C42.9003 131.872 46.0923 133.912 46.0923 138.592C46.0923 143.272 42.9003 145.312 39.9003 145.312C36.9003 145.312 33.7083 143.272 33.7083 138.592C33.7083 133.912 36.9003 131.872 39.9003 131.872ZM56.6966 145V143.152C55.9526 144.376 54.7766 145.312 52.6406 145.312C49.6646 145.312 48.5126 143.296 48.5126 140.344V132.088H50.6966V139.696C50.6966 141.688 51.0086 143.416 53.4086 143.416C55.4966 143.416 56.6966 141.976 56.6966 139.192V132.088H58.8806V145H56.6966ZM32.528 159.6L35.96 174.216L39.176 159.6H41.744L37.4 177H34.424L31.064 162.696L27.776 177H24.8L20.384 159.6H23.072L26.432 174.216L29.648 159.6H32.528ZM54.5264 171.264H44.5904C44.6624 174.048 46.6784 175.392 48.5744 175.392C50.4944 175.392 51.5504 174.528 52.1024 173.256H54.3584C53.7824 175.464 51.7184 177.312 48.5744 177.312C44.4944 177.312 42.2384 174.384 42.2384 170.568C42.2384 166.464 44.9744 163.872 48.5024 163.872C52.4624 163.872 54.7904 167.16 54.5264 171.264ZM48.5024 165.744C46.5824 165.744 44.8064 166.8 44.6144 169.392H52.2224C52.1504 167.568 50.8304 165.744 48.5024 165.744ZM25.664 209V193.712H20V191.6H33.776V193.712H28.112V209H25.664ZM37.2245 191.6V198.032C37.9685 196.808 39.2165 195.872 41.4005 195.872C44.5205 195.872 45.6485 197.888 45.6485 200.84V209H43.4645V201.488C43.4645 199.496 43.1285 197.768 40.6325 197.768C38.5205 197.768 37.2245 199.208 37.2245 201.992V209H35.0405V191.6H37.2245ZM60.3155 203.264H50.3795C50.4515 206.048 52.4675 207.392 54.3635 207.392C56.2835 207.392 57.3395 206.528 57.8915 205.256H60.1475C59.5715 207.464 57.5075 209.312 54.3635 209.312C50.2835 209.312 48.0275 206.384 48.0275 202.568C48.0275 198.464 50.7635 195.872 54.2915 195.872C58.2515 195.872 60.5795 199.16 60.3155 203.264ZM54.2915 197.744C52.3715 197.744 50.5955 198.8 50.4035 201.392H58.0115C57.9395 199.568 56.6195 197.744 54.2915 197.744ZM69.9196 196.088H72.1996L67.5916 209.552C66.6316 212.336 66.0076 213.2 63.1036 213.2H61.9756V211.376H62.8636C64.3036 211.376 64.9996 211.28 65.5756 209.264L65.6716 209L61.0156 196.088H63.4396L66.7276 206.048L69.9196 196.088Z" fill="#1E1E1E"/>
<path d="M95.304 145V127.6H101.568C104.808 127.6 107.688 128.44 107.688 131.896C107.688 133.552 106.992 135.04 105.768 135.736C107.424 136.432 108.408 137.728 108.408 139.864C108.408 143.56 105.648 145 102.168 145H95.304ZM97.752 136.984V142.936H102.192C104.688 142.936 105.888 141.88 105.888 139.888C105.888 137.848 104.664 136.984 102.048 136.984H97.752ZM97.752 129.664V135.04H101.952C103.968 135.04 105.216 134.272 105.216 132.232C105.216 130.432 103.896 129.664 101.952 129.664H97.752ZM115.91 145H111.254V132.088H113.438V136.648H115.934C119.294 136.648 120.758 137.968 120.758 140.728C120.758 143.92 118.862 145 115.91 145ZM113.438 138.544V143.104H115.718C117.638 143.104 118.622 142.48 118.622 140.728C118.622 139 117.662 138.544 115.646 138.544H113.438ZM125.078 145H122.894V132.088H125.078V145ZM105.144 177H102.552L97.752 161.832V177H95.304V159.6H99.408L103.848 174.096L108.288 159.6H112.392V177H109.944V161.832L105.144 177ZM121.207 177H116.551V164.088H118.735V168.648H121.231C124.591 168.648 126.055 169.968 126.055 172.728C126.055 175.92 124.159 177 121.207 177ZM118.735 170.544V175.104H121.015C122.935 175.104 123.919 174.48 123.919 172.728C123.919 171 122.959 170.544 120.943 170.544H118.735ZM130.375 177H128.191V164.088H130.375V177ZM96.72 200.288C96.72 204.776 99.216 207.248 102.384 207.248C105.552 207.248 108.048 204.776 108.048 200.288C108.048 195.8 105.552 193.352 102.384 193.352C99.216 193.352 96.72 195.8 96.72 200.288ZM110.544 200.288C110.544 205.544 107.4 209.312 102.384 209.312C97.368 209.312 94.224 205.544 94.224 200.288C94.224 195.032 97.368 191.288 102.384 191.288C107.4 191.288 110.544 195.032 110.544 200.288ZM124.373 209H122.189V203.36H115.805V209H113.621V196.088H115.805V201.464H122.189V196.088H124.373V209ZM136.915 209V199.256L130.243 209H128.059V196.088H130.243V205.832L136.915 196.088H139.099V209H136.915Z" fill="#1E1E1E"/>
<path d="M33.656 267.6H36.104V285H33.656V277.104H24.512V285H22.064V267.6H24.512V274.992H33.656V267.6ZM51.2921 279.264H41.3561C41.4281 282.048 43.4441 283.392 45.3401 283.392C47.2601 283.392 48.3161 282.528 48.8681 281.256H51.1241C50.5481 283.464 48.4841 285.312 45.3401 285.312C41.2601 285.312 39.0041 282.384 39.0041 278.568C39.0041 274.464 41.7401 271.872 45.2681 271.872C49.2281 271.872 51.5561 275.16 51.2921 279.264ZM45.2681 273.744C43.3481 273.744 41.5721 274.8 41.3801 277.392H48.9881C48.9161 275.568 47.5961 273.744 45.2681 273.744ZM21.344 304.04C21.344 300.704 24.824 299.288 27.632 299.288C30.776 299.288 33.536 300.704 34.232 304.04H31.856C31.28 302.048 29.264 301.352 27.536 301.352C26.192 301.352 23.84 301.952 23.84 303.896C23.84 305.432 25.04 306.2 26.672 306.56L28.688 307.016C31.352 307.592 34.544 308.6 34.544 312.104C34.544 315.488 31.376 317.312 27.92 317.312C23.816 317.312 21.224 315.056 20.768 311.6H23.168C23.624 314 25.28 315.248 27.968 315.248C30.56 315.248 32.024 314.048 32.024 312.32C32.024 310.472 30.44 309.752 28.28 309.248L26.12 308.792C23.72 308.264 21.344 306.92 21.344 304.04ZM39.287 299.6V306.032C40.031 304.808 41.279 303.872 43.463 303.872C46.583 303.872 47.711 305.888 47.711 308.84V317H45.527V309.488C45.527 307.496 45.191 305.768 42.695 305.768C40.583 305.768 39.287 307.208 39.287 309.992V317H37.103V299.6H39.287ZM62.378 311.264H52.442C52.514 314.048 54.53 315.392 56.426 315.392C58.346 315.392 59.402 314.528 59.954 313.256H62.21C61.634 315.464 59.57 317.312 56.426 317.312C52.346 317.312 50.09 314.384 50.09 310.568C50.09 306.464 52.826 303.872 56.354 303.872C60.314 303.872 62.642 307.16 62.378 311.264ZM56.354 305.744C54.434 305.744 52.658 306.8 52.466 309.392H60.074C60.002 307.568 58.682 305.744 56.354 305.744ZM24.512 331.6V349H22.064V331.6H24.512ZM28.9379 336.088V332.848H31.1219V336.088H33.5699V337.84H31.1219V345.496C31.1219 346.84 31.2179 347.176 32.4659 347.176H33.5699V349H31.9859C29.5139 349 28.9379 348.448 28.9379 345.76V337.84H26.8979V336.088H28.9379Z" fill="#1E1E1E"/>
<path d="M96.72 276.288C96.72 280.776 99.216 283.248 102.384 283.248C105.552 283.248 108.048 280.776 108.048 276.288C108.048 271.8 105.552 269.352 102.384 269.352C99.216 269.352 96.72 271.8 96.72 276.288ZM110.544 276.288C110.544 281.544 107.4 285.312 102.384 285.312C97.368 285.312 94.224 281.544 94.224 276.288C94.224 271.032 97.368 267.288 102.384 267.288C107.4 267.288 110.544 271.032 110.544 276.288ZM124.373 285H122.189V279.36H115.805V285H113.621V272.088H115.805V277.464H122.189V272.088H124.373V285ZM96.72 308.288C96.72 312.776 99.216 315.248 102.384 315.248C105.552 315.248 108.048 312.776 108.048 308.288C108.048 303.8 105.552 301.352 102.384 301.352C99.216 301.352 96.72 303.8 96.72 308.288ZM110.544 308.288C110.544 313.544 107.4 317.312 102.384 317.312C97.368 317.312 94.224 313.544 94.224 308.288C94.224 303.032 97.368 299.288 102.384 299.288C107.4 299.288 110.544 303.032 110.544 308.288ZM124.373 317H122.189V311.36H115.805V317H113.621V304.088H115.805V309.464H122.189V304.088H124.373V317ZM136.075 311.6V310.784C132.115 311.168 129.595 311.768 129.595 313.544C129.595 314.768 130.531 315.584 132.091 315.584C134.131 315.584 136.075 314.648 136.075 311.6ZM131.611 317.312C129.187 317.312 127.171 315.968 127.171 313.592C127.171 310.544 130.627 309.632 135.907 309.056V308.744C135.907 306.368 134.611 305.6 132.979 305.6C131.155 305.6 130.123 306.56 130.027 308.168H127.771C127.963 305.384 130.459 303.824 132.955 303.824C136.531 303.824 138.115 305.504 138.091 309.152L138.067 312.128C138.043 314.312 138.139 315.776 138.403 317H136.195C136.123 316.52 136.051 315.992 136.027 315.224C135.235 316.568 133.915 317.312 131.611 317.312ZM93.72 343.216H96.144C96.72 345.976 98.856 347.248 101.448 347.248C104.616 347.248 106.8 344.92 107.064 341.176H98.88V339.064H107.04C106.656 335.536 104.496 333.352 101.472 333.352C99 333.352 96.816 334.576 96.24 337.408H93.792C94.512 333.664 97.344 331.288 101.376 331.288C106.584 331.288 109.656 334.984 109.656 340.288C109.656 345.64 106.656 349.312 101.472 349.312C97.392 349.312 94.368 346.984 93.72 343.216ZM122.259 337.984H117.843V349H115.659V337.984H111.243V336.088H122.259V337.984ZM125.419 342.592C125.419 346.048 127.291 347.392 129.283 347.392C131.275 347.392 133.147 345.904 133.147 342.592C133.147 339.136 131.275 337.792 129.283 337.792C127.291 337.792 125.419 339.064 125.419 342.592ZM129.283 335.872C132.283 335.872 135.475 337.912 135.475 342.592C135.475 347.272 132.283 349.312 129.283 349.312C126.283 349.312 123.091 347.272 123.091 342.592C123.091 337.912 126.283 335.872 129.283 335.872Z" fill="#1E1E1E"/>
<path d="M107.304 51.6V69H104.856V62.472H102.312C101.952 62.472 101.4 62.424 101.208 62.424L96.888 69H94.056L98.76 61.848C96.552 61.104 95.016 59.544 95.016 56.952C95.016 52.848 98.136 51.6 102.456 51.6H107.304ZM104.856 53.712H102.288C99.48 53.712 97.512 54.312 97.512 57.024C97.512 59.616 99.6 60.36 102.288 60.36H104.856V53.712Z" fill="#1E1E1E"/>
<path d="M174.111 61.893H168.729C168.768 63.401 169.86 64.129 170.887 64.129C171.927 64.129 172.499 63.661 172.798 62.972H174.02C173.708 64.168 172.59 65.169 170.887 65.169C168.677 65.169 167.455 63.583 167.455 61.516C167.455 59.293 168.937 57.889 170.848 57.889C172.993 57.889 174.254 59.67 174.111 61.893ZM170.848 58.903C169.808 58.903 168.846 59.475 168.742 60.879H172.863C172.824 59.891 172.109 58.903 170.848 58.903ZM181.979 63.973V66.547H180.835V65H175.713V66.547H174.569V63.973H174.881C175.674 63.973 176.09 62.933 176.194 60.255L176.285 58.006H181.004V63.973H181.979ZM179.821 63.973V59.033H177.429L177.364 60.372C177.26 62.439 176.961 63.453 176.415 63.973H179.821ZM184.511 65H183.016V63.505H184.511V65ZM194.591 65H193.408V62.166C192.589 62.361 191.965 62.452 191.328 62.452C189.859 62.452 189.092 61.802 189.092 60.281V58.006H190.275V60.034C190.275 61.074 190.769 61.425 191.757 61.425C192.212 61.425 192.758 61.347 193.408 61.191V58.006H194.591V65ZM197.93 65H196.435V63.505H197.93V65Z" fill="#5A9E00"/>
<rect x="161.5" y="52.5" width="43" height="18" rx="3.5" stroke="#5A9E00"/>
<path d="M174.111 137.893H168.729C168.768 139.401 169.86 140.129 170.887 140.129C171.927 140.129 172.499 139.661 172.798 138.972H174.02C173.708 140.168 172.59 141.169 170.887 141.169C168.677 141.169 167.455 139.583 167.455 137.516C167.455 135.293 168.937 133.889 170.848 133.889C172.993 133.889 174.254 135.67 174.111 137.893ZM170.848 134.903C169.808 134.903 168.846 135.475 168.742 136.879H172.863C172.824 135.891 172.109 134.903 170.848 134.903ZM181.979 139.973V142.547H180.835V141H175.713V142.547H174.569V139.973H174.881C175.674 139.973 176.09 138.933 176.194 136.255L176.285 134.006H181.004V139.973H181.979ZM179.821 139.973V135.033H177.429L177.364 136.372C177.26 138.439 176.961 139.453 176.415 139.973H179.821ZM184.511 141H183.016V139.505H184.511V141ZM194.591 141H193.408V138.166C192.589 138.361 191.965 138.452 191.328 138.452C189.859 138.452 189.092 137.802 189.092 136.281V134.006H190.275V136.034C190.275 137.074 190.769 137.425 191.757 137.425C192.212 137.425 192.758 137.347 193.408 137.191V134.006H194.591V141ZM197.93 141H196.435V139.505H197.93V141ZM203.044 141H201.861L205.566 131.575H206.762L203.044 141ZM218.492 134.006V141H217.335V135.384L215.086 141H214.241L212.005 135.462V141H210.848V134.006H212.538L214.709 139.388L216.802 134.006H218.492ZM226.32 141H225.137V137.945H221.679V141H220.496V134.006H221.679V136.918H225.137V134.006H226.32V141ZM229.655 141H228.16V139.505H229.655V141ZM239.736 141H238.553V138.166C237.734 138.361 237.11 138.452 236.473 138.452C235.004 138.452 234.237 137.802 234.237 136.281V134.006H235.42V136.034C235.42 137.074 235.914 137.425 236.902 137.425C237.357 137.425 237.903 137.347 238.553 137.191V134.006H239.736V141ZM243.074 141H241.579V139.505H243.074V141Z" fill="url(#paint0_linear_336_25224)"/>
<rect x="161.5" y="128.5" width="88" height="18" rx="3.5" stroke="url(#paint1_linear_336_25224)"/>
<path d="M175.645 166.006V173H174.488V167.384L172.239 173H171.394L169.158 167.462V173H168.001V166.006H169.691L171.862 171.388L173.955 166.006H175.645ZM183.473 173H182.29V169.945H178.832V173H177.649V166.006H178.832V168.918H182.29V166.006H183.473V173ZM186.809 173H185.314V171.505H186.809V173ZM196.889 173H195.706V170.166C194.887 170.361 194.263 170.452 193.626 170.452C192.157 170.452 191.39 169.802 191.39 168.281V166.006H192.573V168.034C192.573 169.074 193.067 169.425 194.055 169.425C194.51 169.425 195.056 169.347 195.706 169.191V166.006H196.889V173ZM200.228 173H198.733V171.505H200.228V173Z" fill="#0076DE"/>
<rect x="161.5" y="160.5" width="46" height="18" rx="3.5" stroke="#0076DE"/>
<path d="M175.645 198.006V205H174.488V199.384L172.239 205H171.394L169.158 199.462V205H168.001V198.006H169.691L171.862 203.388L173.955 198.006H175.645ZM183.473 205H182.29V201.945H178.832V205H177.649V198.006H178.832V200.918H182.29V198.006H183.473V205ZM186.809 205H185.314V203.505H186.809V205ZM196.889 205H195.706V202.166C194.887 202.361 194.263 202.452 193.626 202.452C192.157 202.452 191.39 201.802 191.39 200.281V198.006H192.573V200.034C192.573 201.074 193.067 201.425 194.055 201.425C194.51 201.425 195.056 201.347 195.706 201.191V198.006H196.889V205ZM200.228 205H198.733V203.505H200.228V205Z" fill="#0076DE"/>
<rect x="161.5" y="192.5" width="46" height="18" rx="3.5" stroke="#0076DE"/>
<path d="M174.111 277.893H168.729C168.768 279.401 169.86 280.129 170.887 280.129C171.927 280.129 172.499 279.661 172.798 278.972H174.02C173.708 280.168 172.59 281.169 170.887 281.169C168.677 281.169 167.455 279.583 167.455 277.516C167.455 275.293 168.937 273.889 170.848 273.889C172.993 273.889 174.254 275.67 174.111 277.893ZM170.848 274.903C169.808 274.903 168.846 275.475 168.742 276.879H172.863C172.824 275.891 172.109 274.903 170.848 274.903ZM181.979 279.973V282.547H180.835V281H175.713V282.547H174.569V279.973H174.881C175.674 279.973 176.09 278.933 176.194 276.255L176.285 274.006H181.004V279.973H181.979ZM179.821 279.973V275.033H177.429L177.364 276.372C177.26 278.439 176.961 279.453 176.415 279.973H179.821ZM184.511 281H183.016V279.505H184.511V281ZM194.591 281H193.408V278.166C192.589 278.361 191.965 278.452 191.328 278.452C189.859 278.452 189.092 277.802 189.092 276.281V274.006H190.275V276.034C190.275 277.074 190.769 277.425 191.757 277.425C192.212 277.425 192.758 277.347 193.408 277.191V274.006H194.591V281ZM197.93 281H196.435V279.505H197.93V281Z" fill="#5A9E00"/>
<rect x="161.5" y="268.5" width="43" height="18" rx="3.5" stroke="#5A9E00"/>
<path d="M174.111 309.893H168.729C168.768 311.401 169.86 312.129 170.887 312.129C171.927 312.129 172.499 311.661 172.798 310.972H174.02C173.708 312.168 172.59 313.169 170.887 313.169C168.677 313.169 167.455 311.583 167.455 309.516C167.455 307.293 168.937 305.889 170.848 305.889C172.993 305.889 174.254 307.67 174.111 309.893ZM170.848 306.903C169.808 306.903 168.846 307.475 168.742 308.879H172.863C172.824 307.891 172.109 306.903 170.848 306.903ZM181.979 311.973V314.547H180.835V313H175.713V314.547H174.569V311.973H174.881C175.674 311.973 176.09 310.933 176.194 308.255L176.285 306.006H181.004V311.973H181.979ZM179.821 311.973V307.033H177.429L177.364 308.372C177.26 310.439 176.961 311.453 176.415 311.973H179.821ZM184.511 313H183.016V311.505H184.511V313ZM194.591 313H193.408V310.166C192.589 310.361 191.965 310.452 191.328 310.452C189.859 310.452 189.092 309.802 189.092 308.281V306.006H190.275V308.034C190.275 309.074 190.769 309.425 191.757 309.425C192.212 309.425 192.758 309.347 193.408 309.191V306.006H194.591V313ZM197.93 313H196.435V311.505H197.93V313Z" fill="#5A9E00"/>
<rect x="161.5" y="300.5" width="43" height="18" rx="3.5" stroke="#5A9E00"/>
<path d="M174.111 341.893H168.729C168.768 343.401 169.86 344.129 170.887 344.129C171.927 344.129 172.499 343.661 172.798 342.972H174.02C173.708 344.168 172.59 345.169 170.887 345.169C168.677 345.169 167.455 343.583 167.455 341.516C167.455 339.293 168.937 337.889 170.848 337.889C172.993 337.889 174.254 339.67 174.111 341.893ZM170.848 338.903C169.808 338.903 168.846 339.475 168.742 340.879H172.863C172.824 339.891 172.109 338.903 170.848 338.903ZM181.979 343.973V346.547H180.835V345H175.713V346.547H174.569V343.973H174.881C175.674 343.973 176.09 342.933 176.194 340.255L176.285 338.006H181.004V343.973H181.979ZM179.821 343.973V339.033H177.429L177.364 340.372C177.26 342.439 176.961 343.453 176.415 343.973H179.821ZM184.511 345H183.016V343.505H184.511V345ZM194.591 345H193.408V342.166C192.589 342.361 191.965 342.452 191.328 342.452C189.859 342.452 189.092 341.802 189.092 340.281V338.006H190.275V340.034C190.275 341.074 190.769 341.425 191.757 341.425C192.212 341.425 192.758 341.347 193.408 341.191V338.006H194.591V345ZM197.93 345H196.435V343.505H197.93V345Z" fill="#5A9E00"/>
<rect x="161.5" y="332.5" width="43" height="18" rx="3.5" stroke="#5A9E00"/>
<defs>
<linearGradient id="paint0_linear_336_25224" x1="167" y1="138.5" x2="244" y2="138" gradientUnits="userSpaceOnUse">
<stop stop-color="#5A9E00"/>
<stop offset="1" stop-color="#0076DE"/>
</linearGradient>
<linearGradient id="paint1_linear_336_25224" x1="161" y1="138" x2="250" y2="138" gradientUnits="userSpaceOnUse">
<stop stop-color="#5A9E00"/>
<stop offset="1" stop-color="#0076DE"/>
</linearGradient>
</defs>
</svg>
