<svg width="507" height="432" viewBox="0 0 507 432" fill="none" xmlns="http://www.w3.org/2000/svg">
<rect x="1" y="1" width="505" height="430" rx="9" stroke="#E3E3E3" stroke-width="2"/>
<path d="M28.904 212.088H31.184L26.576 225.552C25.616 228.336 24.992 229.2 22.088 229.2H20.96V227.376H21.848C23.288 227.376 23.984 227.28 24.56 225.264L24.656 225L20 212.088H22.424L25.712 222.048L28.904 212.088ZM34.1613 218.592C34.1613 222.048 36.0333 223.392 38.0253 223.392C40.0173 223.392 41.8893 221.904 41.8893 218.592C41.8893 215.136 40.0173 213.792 38.0253 213.792C36.0333 213.792 34.1613 215.064 34.1613 218.592ZM38.0253 211.872C41.0253 211.872 44.2173 213.912 44.2173 218.592C44.2173 223.272 41.0253 225.312 38.0253 225.312C35.0253 225.312 31.8333 223.272 31.8333 218.592C31.8333 213.912 35.0253 211.872 38.0253 211.872ZM54.8216 225V223.152C54.0776 224.376 52.9016 225.312 50.7656 225.312C47.7896 225.312 46.6376 223.296 46.6376 220.344V212.088H48.8216V219.696C48.8216 221.688 49.1336 223.416 51.5336 223.416C53.6216 223.416 54.8216 221.976 54.8216 219.192V212.088H57.0056V225H54.8216ZM24.944 253.64L27.512 244.088H29.768L32.336 253.64L34.808 244.088H37.16L33.44 257H31.448L28.592 246.608L25.832 257H23.84L20.12 244.088H22.472L24.944 253.64ZM50.2843 251.264H40.3483C40.4203 254.048 42.4363 255.392 44.3323 255.392C46.2523 255.392 47.3083 254.528 47.8603 253.256H50.1163C49.5403 255.464 47.4763 257.312 44.3323 257.312C40.2523 257.312 37.9963 254.384 37.9963 250.568C37.9963 246.464 40.7323 243.872 44.2603 243.872C48.2203 243.872 50.5483 247.16 50.2843 251.264ZM44.2603 245.744C42.3403 245.744 40.5643 246.8 40.3723 249.392H47.9803C47.9083 247.568 46.5883 245.744 44.2603 245.744ZM22.352 276.088V272.848H24.536V276.088H26.984V277.84H24.536V285.496C24.536 286.84 24.632 287.176 25.88 287.176H26.984V289H25.4C22.928 289 22.352 288.448 22.352 285.76V277.84H20.312V276.088H22.352ZM31.9511 271.6V278.032C32.6951 276.808 33.9431 275.872 36.1271 275.872C39.2471 275.872 40.3751 277.888 40.3751 280.84V289H38.1911V281.488C38.1911 279.496 37.8551 277.768 35.3591 277.768C33.2471 277.768 31.9511 279.208 31.9511 281.992V289H29.7671V271.6H31.9511ZM55.0421 283.264H45.1061C45.1781 286.048 47.1941 287.392 49.0901 287.392C51.0101 287.392 52.0661 286.528 52.6181 285.256H54.8741C54.2981 287.464 52.2341 289.312 49.0901 289.312C45.0101 289.312 42.7541 286.384 42.7541 282.568C42.7541 278.464 45.4901 275.872 49.0181 275.872C52.9781 275.872 55.3061 279.16 55.0421 283.264ZM49.0181 277.744C47.0981 277.744 45.3221 278.8 45.1301 281.392H52.7381C52.6661 279.568 51.3461 277.744 49.0181 277.744ZM64.6462 276.088H66.9262L62.3182 289.552C61.3582 292.336 60.7342 293.2 57.8302 293.2H56.7022V291.376H57.5902C59.0302 291.376 59.7262 291.28 60.3022 289.264L60.3982 289L55.7422 276.088H58.1662L61.4542 286.048L64.6462 276.088Z" fill="#1E1E1E"/>
<path d="M23.912 323.6V330.032C24.656 328.808 25.904 327.872 28.088 327.872C31.208 327.872 32.336 329.888 32.336 332.84V341H30.152V333.488C30.152 331.496 29.816 329.768 27.32 329.768C25.208 329.768 23.912 331.208 23.912 333.992V341H21.728V323.6H23.912ZM47.003 335.264H37.067C37.139 338.048 39.155 339.392 41.051 339.392C42.971 339.392 44.027 338.528 44.579 337.256H46.835C46.259 339.464 44.195 341.312 41.051 341.312C36.971 341.312 34.715 338.384 34.715 334.568C34.715 330.464 37.451 327.872 40.979 327.872C44.939 327.872 47.267 331.16 47.003 335.264ZM40.979 329.744C39.059 329.744 37.283 330.8 37.091 333.392H44.699C44.627 331.568 43.307 329.744 40.979 329.744ZM31.4 363.856H29.12C28.76 362.32 27.608 361.72 26.072 361.72C24.8 361.72 23.36 362.176 23.36 363.352C23.36 364.384 24.08 364.84 25.328 365.104L27.152 365.464C29.504 365.896 31.568 366.832 31.568 369.304C31.568 371.872 29.264 373.312 26.312 373.312C22.928 373.312 21.032 371.08 20.768 368.824H23.072C23.432 370.48 24.44 371.464 26.36 371.464C28.016 371.464 29.36 370.768 29.36 369.544C29.36 368.224 28.136 367.72 26.744 367.408L24.824 367.024C23.072 366.64 21.152 365.872 21.152 363.448C21.152 361.168 23.456 359.848 26.312 359.848C29.12 359.848 30.992 361.384 31.4 363.856ZM36.5214 355.6V362.032C37.2654 360.808 38.5134 359.872 40.6974 359.872C43.8174 359.872 44.9454 361.888 44.9454 364.84V373H42.7614V365.488C42.7614 363.496 42.4254 361.768 39.9294 361.768C37.8174 361.768 36.5214 363.208 36.5214 365.992V373H34.3374V355.6H36.5214ZM59.6124 367.264H49.6764C49.7484 370.048 51.7644 371.392 53.6604 371.392C55.5804 371.392 56.6364 370.528 57.1884 369.256H59.4444C58.8684 371.464 56.8044 373.312 53.6604 373.312C49.5804 373.312 47.3244 370.384 47.3244 366.568C47.3244 362.464 50.0604 359.872 53.5884 359.872C57.5484 359.872 59.8764 363.16 59.6124 367.264ZM53.5884 361.744C51.6684 361.744 49.8924 362.8 49.7004 365.392H57.3084C57.2364 363.568 55.9164 361.744 53.5884 361.744ZM21.728 392.088H23.912V405H21.728V392.088ZM21.728 387.6H23.912V390.24H21.728V387.6ZM28.0004 392.088V388.848H30.1844V392.088H32.6324V393.84H30.1844V401.496C30.1844 402.84 30.2804 403.176 31.5284 403.176H32.6324V405H31.0484C28.5764 405 28.0004 404.448 28.0004 401.76V393.84H25.9604V392.088H28.0004Z" fill="#1E1E1E"/>
<path d="M83.65 165.468V173H82.376V170.326H81.046C80.976 170.326 80.906 170.326 80.836 170.312L78.792 173H77.21L79.492 169.962C78.54 169.64 77.896 168.912 77.896 167.792C77.896 166.238 78.96 165.468 80.696 165.468H83.65ZM82.376 166.574H80.766C79.828 166.574 79.198 166.966 79.198 167.876C79.198 168.898 79.996 169.22 80.878 169.22H82.376V166.574Z" fill="#5A5A5A"/>
<path d="M78.078 217.468H81.354C82.866 217.468 84.098 217.86 84.098 219.386C84.098 220.184 83.748 220.744 83.048 221.038C83.832 221.262 84.406 221.794 84.406 222.802C84.406 224.37 83.188 225 81.578 225H78.078V217.468ZM79.352 220.632H81.27C82.208 220.632 82.768 220.38 82.768 219.526C82.768 218.742 82.18 218.574 81.228 218.574H79.352V220.632ZM79.352 221.682V223.894H81.382C82.502 223.894 83.076 223.572 83.076 222.788C83.076 221.948 82.516 221.682 81.34 221.682H79.352ZM88.6143 225H85.8983V217.468H87.1723V220.128H88.6283C90.5883 220.128 91.4423 220.898 91.4423 222.508C91.4423 224.37 90.3363 225 88.6143 225ZM87.1723 221.234V223.894H88.5023C89.6223 223.894 90.1963 223.53 90.1963 222.508C90.1963 221.5 89.6363 221.234 88.4603 221.234H87.1723ZM93.9623 225H92.6883V217.468H93.9623V225Z" fill="#5A5A5A"/>
<path d="M86.31 249.468V257H85.064V250.952L82.642 257H81.732L79.324 251.036V257H78.078V249.468H79.898L82.236 255.264L84.49 249.468H86.31ZM91.1846 257H88.4686V249.468H89.7426V252.128H91.1986C93.1586 252.128 94.0126 252.898 94.0126 254.508C94.0126 256.37 92.9066 257 91.1846 257ZM89.7426 253.234V255.894H91.0726C92.1926 255.894 92.7666 255.53 92.7666 254.508C92.7666 253.5 92.2066 253.234 91.0306 253.234H89.7426ZM96.5326 257H95.2586V249.468H96.5326V257Z" fill="#5A5A5A"/>
<path d="M78.876 285.262C78.876 287.278 79.968 288.062 81.13 288.062C82.292 288.062 83.384 287.194 83.384 285.262C83.384 283.246 82.292 282.462 81.13 282.462C79.968 282.462 78.876 283.204 78.876 285.262ZM81.13 281.342C82.88 281.342 84.742 282.532 84.742 285.262C84.742 287.992 82.88 289.182 81.13 289.182C79.38 289.182 77.518 287.992 77.518 285.262C77.518 282.532 79.38 281.342 81.13 281.342ZM92.6078 289H91.3338V285.71H87.6098V289H86.3358V281.468H87.6098V284.604H91.3338V281.468H92.6078V289ZM99.9237 289V283.316L96.0317 289H94.7577V281.468H96.0317V287.152L99.9237 281.468H101.198V289H99.9237Z" fill="#5A5A5A"/>
<path d="M78.876 337.262C78.876 339.278 79.968 340.062 81.13 340.062C82.292 340.062 83.384 339.194 83.384 337.262C83.384 335.246 82.292 334.462 81.13 334.462C79.968 334.462 78.876 335.204 78.876 337.262ZM81.13 333.342C82.88 333.342 84.742 334.532 84.742 337.262C84.742 339.992 82.88 341.182 81.13 341.182C79.38 341.182 77.518 339.992 77.518 337.262C77.518 334.532 79.38 333.342 81.13 333.342ZM92.6078 341H91.3338V337.71H87.6098V341H86.3358V333.468H87.6098V336.604H91.3338V333.468H92.6078V341Z" fill="#5A5A5A"/>
<path d="M78.876 369.262C78.876 371.278 79.968 372.062 81.13 372.062C82.292 372.062 83.384 371.194 83.384 369.262C83.384 367.246 82.292 366.462 81.13 366.462C79.968 366.462 78.876 367.204 78.876 369.262ZM81.13 365.342C82.88 365.342 84.742 366.532 84.742 369.262C84.742 371.992 82.88 373.182 81.13 373.182C79.38 373.182 77.518 371.992 77.518 369.262C77.518 366.532 79.38 365.342 81.13 365.342ZM92.6078 373H91.3338V369.71H87.6098V373H86.3358V365.468H87.6098V368.604H91.3338V365.468H92.6078V373ZM99.4337 369.85V369.374C97.1237 369.598 95.6537 369.948 95.6537 370.984C95.6537 371.698 96.1997 372.174 97.1097 372.174C98.2997 372.174 99.4337 371.628 99.4337 369.85ZM96.8297 373.182C95.4157 373.182 94.2397 372.398 94.2397 371.012C94.2397 369.234 96.2557 368.702 99.3357 368.366V368.184C99.3357 366.798 98.5797 366.35 97.6277 366.35C96.5637 366.35 95.9617 366.91 95.9057 367.848H94.5897C94.7017 366.224 96.1577 365.314 97.6137 365.314C99.6997 365.314 100.624 366.294 100.61 368.422L100.596 370.158C100.582 371.432 100.638 372.286 100.792 373H99.5037C99.4617 372.72 99.4197 372.412 99.4057 371.964C98.9437 372.748 98.1737 373.182 96.8297 373.182Z" fill="#5A5A5A"/>
<path d="M77.434 402.48H78.708C78.918 403.376 79.66 404.062 80.836 404.062C81.942 404.062 82.978 403.32 83.09 401.752H79.772V400.646H83.09C82.936 399.246 82.04 398.42 80.822 398.42C79.772 398.42 79.03 399.008 78.764 400.016H77.504C77.84 398.238 79.226 397.3 80.864 397.3C83.076 397.3 84.434 398.896 84.434 401.248C84.434 403.586 83.188 405.182 80.906 405.182C79.268 405.182 77.854 404.328 77.434 402.48ZM91.3196 398.574H88.7436V405H87.4696V398.574H84.8936V397.468H91.3196V398.574ZM93.1631 401.262C93.1631 403.278 94.2551 404.062 95.4171 404.062C96.5791 404.062 97.6711 403.194 97.6711 401.262C97.6711 399.246 96.5791 398.462 95.4171 398.462C94.2551 398.462 93.1631 399.204 93.1631 401.262ZM95.4171 397.342C97.1671 397.342 99.0291 398.532 99.0291 401.262C99.0291 403.992 97.1671 405.182 95.4171 405.182C93.6671 405.182 91.8051 403.992 91.8051 401.262C91.8051 398.532 93.6671 397.342 95.4171 397.342Z" fill="#5A5A5A"/>
<path d="M24.512 155.6V173H22.064V155.6H24.512Z" fill="#1E1E1E"/>
<path d="M354.904 212.088H357.184L352.576 225.552C351.616 228.336 350.992 229.2 348.088 229.2H346.96V227.376H347.848C349.288 227.376 349.984 227.28 350.56 225.264L350.656 225L346 212.088H348.424L351.712 222.048L354.904 212.088ZM360.161 218.592C360.161 222.048 362.033 223.392 364.025 223.392C366.017 223.392 367.889 221.904 367.889 218.592C367.889 215.136 366.017 213.792 364.025 213.792C362.033 213.792 360.161 215.064 360.161 218.592ZM364.025 211.872C367.025 211.872 370.217 213.912 370.217 218.592C370.217 223.272 367.025 225.312 364.025 225.312C361.025 225.312 357.833 223.272 357.833 218.592C357.833 213.912 361.025 211.872 364.025 211.872ZM380.822 225V223.152C380.078 224.376 378.902 225.312 376.766 225.312C373.79 225.312 372.638 223.296 372.638 220.344V212.088H374.822V219.696C374.822 221.688 375.134 223.416 377.534 223.416C379.622 223.416 380.822 221.976 380.822 219.192V212.088H383.006V225H380.822ZM392.902 212.04V214.368C392.446 214.296 392.038 214.272 391.678 214.272C389.662 214.272 388.654 215.376 388.654 218.232V225H386.47V212.088H388.606V214.344C389.254 212.88 390.55 212.088 392.254 212.016C392.47 212.016 392.638 212.016 392.902 212.04ZM404.556 215.856H402.276C401.916 214.32 400.764 213.72 399.228 213.72C397.956 213.72 396.516 214.176 396.516 215.352C396.516 216.384 397.236 216.84 398.484 217.104L400.308 217.464C402.66 217.896 404.724 218.832 404.724 221.304C404.724 223.872 402.42 225.312 399.468 225.312C396.084 225.312 394.188 223.08 393.924 220.824H396.228C396.588 222.48 397.596 223.464 399.516 223.464C401.172 223.464 402.516 222.768 402.516 221.544C402.516 220.224 401.292 219.72 399.9 219.408L397.98 219.024C396.228 218.64 394.308 217.872 394.308 215.448C394.308 213.168 396.612 211.848 399.468 211.848C402.276 211.848 404.148 213.384 404.556 215.856ZM349.216 250.592C349.216 254.048 351.088 255.392 353.08 255.392C355.072 255.392 356.944 253.904 356.944 250.592C356.944 247.136 355.072 245.792 353.08 245.792C351.088 245.792 349.216 247.064 349.216 250.592ZM353.08 243.872C356.08 243.872 359.272 245.912 359.272 250.592C359.272 255.272 356.08 257.312 353.08 257.312C350.08 257.312 346.888 255.272 346.888 250.592C346.888 245.912 350.08 243.872 353.08 243.872ZM369.876 257V255.152C369.132 256.376 367.956 257.312 365.82 257.312C362.844 257.312 361.692 255.296 361.692 252.344V244.088H363.876V251.696C363.876 253.688 364.188 255.416 366.588 255.416C368.676 255.416 369.876 253.976 369.876 251.192V244.088H372.06V257H369.876ZM381.957 244.04V246.368C381.501 246.296 381.093 246.272 380.733 246.272C378.717 246.272 377.709 247.376 377.709 250.232V257H375.525V244.088H377.661V246.344C378.309 244.88 379.605 244.088 381.309 244.016C381.525 244.016 381.693 244.016 381.957 244.04ZM393.611 247.856H391.331C390.971 246.32 389.819 245.72 388.283 245.72C387.011 245.72 385.571 246.176 385.571 247.352C385.571 248.384 386.291 248.84 387.539 249.104L389.363 249.464C391.715 249.896 393.779 250.832 393.779 253.304C393.779 255.872 391.475 257.312 388.523 257.312C385.139 257.312 383.243 255.08 382.979 252.824H385.283C385.643 254.48 386.651 255.464 388.571 255.464C390.227 255.464 391.571 254.768 391.571 253.544C391.571 252.224 390.347 251.72 388.955 251.408L387.035 251.024C385.283 250.64 383.363 249.872 383.363 247.448C383.363 245.168 385.667 243.848 388.523 243.848C391.331 243.848 393.203 245.384 393.611 247.856ZM348.352 276.088V272.848H350.536V276.088H352.984V277.84H350.536V285.496C350.536 286.84 350.632 287.176 351.88 287.176H352.984V289H351.4C348.928 289 348.352 288.448 348.352 285.76V277.84H346.312V276.088H348.352ZM357.951 271.6V278.032C358.695 276.808 359.943 275.872 362.127 275.872C365.247 275.872 366.375 277.888 366.375 280.84V289H364.191V281.488C364.191 279.496 363.855 277.768 361.359 277.768C359.247 277.768 357.951 279.208 357.951 281.992V289H355.767V271.6H357.951ZM381.042 283.264H371.106C371.178 286.048 373.194 287.392 375.09 287.392C377.01 287.392 378.066 286.528 378.618 285.256H380.874C380.298 287.464 378.234 289.312 375.09 289.312C371.01 289.312 368.754 286.384 368.754 282.568C368.754 278.464 371.49 275.872 375.018 275.872C378.978 275.872 381.306 279.16 381.042 283.264ZM375.018 277.744C373.098 277.744 371.322 278.8 371.13 281.392H378.738C378.666 279.568 377.346 277.744 375.018 277.744ZM383.587 276.088H385.771V289H383.587V276.088ZM383.587 271.6H385.771V274.24H383.587V271.6ZM395.668 276.04V278.368C395.212 278.296 394.804 278.272 394.444 278.272C392.428 278.272 391.42 279.376 391.42 282.232V289H389.236V276.088H391.372V278.344C392.02 276.88 393.316 276.088 395.02 276.016C395.236 276.016 395.404 276.016 395.668 276.04ZM407.322 279.856H405.042C404.682 278.32 403.53 277.72 401.994 277.72C400.722 277.72 399.282 278.176 399.282 279.352C399.282 280.384 400.002 280.84 401.25 281.104L403.074 281.464C405.426 281.896 407.49 282.832 407.49 285.304C407.49 287.872 405.186 289.312 402.234 289.312C398.85 289.312 396.954 287.08 396.69 284.824H398.994C399.354 286.48 400.362 287.464 402.282 287.464C403.938 287.464 405.282 286.768 405.282 285.544C405.282 284.224 404.058 283.72 402.666 283.408L400.746 283.024C398.994 282.64 397.074 281.872 397.074 279.448C397.074 277.168 399.378 275.848 402.234 275.848C405.042 275.848 406.914 277.384 407.322 279.856Z" fill="#1E1E1E"/>
<path d="M349.912 323.6V330.032C350.656 328.808 351.904 327.872 354.088 327.872C357.208 327.872 358.336 329.888 358.336 332.84V341H356.152V333.488C356.152 331.496 355.816 329.768 353.32 329.768C351.208 329.768 349.912 331.208 349.912 333.992V341H347.728V323.6H349.912ZM361.603 328.088H363.787V341H361.603V328.088ZM361.603 323.6H363.787V326.24H361.603V323.6ZM376.923 331.856H374.643C374.283 330.32 373.131 329.72 371.595 329.72C370.323 329.72 368.883 330.176 368.883 331.352C368.883 332.384 369.603 332.84 370.851 333.104L372.675 333.464C375.027 333.896 377.091 334.832 377.091 337.304C377.091 339.872 374.787 341.312 371.835 341.312C368.451 341.312 366.555 339.08 366.291 336.824H368.595C368.955 338.48 369.963 339.464 371.883 339.464C373.539 339.464 374.883 338.768 374.883 337.544C374.883 336.224 373.659 335.72 372.267 335.408L370.347 335.024C368.595 334.64 366.675 333.872 366.675 331.448C366.675 329.168 368.979 327.848 371.835 327.848C374.643 327.848 376.515 329.384 376.923 331.856ZM349.912 355.6V362.032C350.656 360.808 351.904 359.872 354.088 359.872C357.208 359.872 358.336 361.888 358.336 364.84V373H356.152V365.488C356.152 363.496 355.816 361.768 353.32 361.768C351.208 361.768 349.912 363.208 349.912 365.992V373H347.728V355.6H349.912ZM373.003 367.264H363.067C363.139 370.048 365.155 371.392 367.051 371.392C368.971 371.392 370.027 370.528 370.579 369.256H372.835C372.259 371.464 370.195 373.312 367.051 373.312C362.971 373.312 360.715 370.384 360.715 366.568C360.715 362.464 363.451 359.872 366.979 359.872C370.939 359.872 373.267 363.16 373.003 367.264ZM366.979 361.744C365.059 361.744 363.283 362.8 363.091 365.392H370.699C370.627 363.568 369.307 361.744 366.979 361.744ZM381.98 360.04V362.368C381.524 362.296 381.116 362.272 380.756 362.272C378.74 362.272 377.732 363.376 377.732 366.232V373H375.548V360.088H377.684V362.344C378.332 360.88 379.628 360.088 381.332 360.016C381.548 360.016 381.716 360.016 381.98 360.04ZM393.634 363.856H391.354C390.994 362.32 389.842 361.72 388.306 361.72C387.034 361.72 385.594 362.176 385.594 363.352C385.594 364.384 386.314 364.84 387.562 365.104L389.386 365.464C391.738 365.896 393.802 366.832 393.802 369.304C393.802 371.872 391.498 373.312 388.546 373.312C385.162 373.312 383.266 371.08 383.002 368.824H385.306C385.666 370.48 386.674 371.464 388.594 371.464C390.25 371.464 391.594 370.768 391.594 369.544C391.594 368.224 390.37 367.72 388.978 367.408L387.058 367.024C385.306 366.64 383.386 365.872 383.386 363.448C383.386 361.168 385.69 359.848 388.546 359.848C391.354 359.848 393.226 361.384 393.634 363.856ZM347.728 392.088H349.912V405H347.728V392.088ZM347.728 387.6H349.912V390.24H347.728V387.6ZM354 392.088V388.848H356.184V392.088H358.632V393.84H356.184V401.496C356.184 402.84 356.28 403.176 357.528 403.176H358.632V405H357.048C354.576 405 354 404.448 354 401.76V393.84H351.96V392.088H354ZM370.853 395.856H368.573C368.213 394.32 367.061 393.72 365.525 393.72C364.253 393.72 362.813 394.176 362.813 395.352C362.813 396.384 363.533 396.84 364.781 397.104L366.605 397.464C368.957 397.896 371.021 398.832 371.021 401.304C371.021 403.872 368.717 405.312 365.765 405.312C362.381 405.312 360.485 403.08 360.221 400.824H362.525C362.885 402.48 363.893 403.464 365.813 403.464C367.469 403.464 368.813 402.768 368.813 401.544C368.813 400.224 367.589 399.72 366.197 399.408L364.277 399.024C362.525 398.64 360.605 397.872 360.605 395.448C360.605 393.168 362.909 391.848 365.765 391.848C368.573 391.848 370.445 393.384 370.853 395.856Z" fill="#1E1E1E"/>
<path d="M428.31 165.468V173H427.064V166.952L424.642 173H423.732L421.324 167.036V173H420.078V165.468H421.898L424.236 171.264L426.49 165.468H428.31ZM431.267 169.262C431.267 171.278 432.359 172.062 433.521 172.062C434.683 172.062 435.775 171.194 435.775 169.262C435.775 167.246 434.683 166.462 433.521 166.462C432.359 166.462 431.267 167.204 431.267 169.262ZM433.521 165.342C435.271 165.342 437.133 166.532 437.133 169.262C437.133 171.992 435.271 173.182 433.521 173.182C431.771 173.182 429.909 171.992 429.909 169.262C429.909 166.532 431.771 165.342 433.521 165.342ZM443.234 162.85H444.228C444.116 163.69 443.584 164.544 441.988 164.544C440.448 164.544 439.86 163.69 439.79 162.85H440.784C440.84 163.298 441.176 163.704 442.002 163.704C442.828 163.704 443.178 163.298 443.234 162.85ZM443.892 173V167.316L440 173H438.726V165.468H440V171.152L443.892 165.468H445.166V173H443.892Z" fill="#5A5A5A"/>
<path d="M425.636 218.574H423.06V225H421.786V218.574H419.21V217.468H425.636V218.574ZM426.928 217.468H430.204C431.716 217.468 432.948 217.86 432.948 219.386C432.948 220.184 432.598 220.744 431.898 221.038C432.682 221.262 433.256 221.794 433.256 222.802C433.256 224.37 432.038 225 430.428 225H426.928V217.468ZM428.202 220.632H430.12C431.058 220.632 431.618 220.38 431.618 219.526C431.618 218.742 431.03 218.574 430.078 218.574H428.202V220.632ZM428.202 221.682V223.894H430.232C431.352 223.894 431.926 223.572 431.926 222.788C431.926 221.948 431.366 221.682 430.19 221.682H428.202ZM435.546 221.262C435.546 223.278 436.638 224.062 437.8 224.062C438.962 224.062 440.054 223.194 440.054 221.262C440.054 219.246 438.962 218.462 437.8 218.462C436.638 218.462 435.546 219.204 435.546 221.262ZM437.8 217.342C439.55 217.342 441.412 218.532 441.412 221.262C441.412 223.992 439.55 225.182 437.8 225.182C436.05 225.182 434.188 223.992 434.188 221.262C434.188 218.532 436.05 217.342 437.8 217.342ZM447.514 214.85H448.508C448.396 215.69 447.864 216.544 446.268 216.544C444.728 216.544 444.14 215.69 444.07 214.85H445.064C445.12 215.298 445.456 215.704 446.282 215.704C447.108 215.704 447.458 215.298 447.514 214.85ZM448.172 225V219.316L444.28 225H443.006V217.468H444.28V223.152L448.172 217.468H449.446V225H448.172Z" fill="#5A5A5A"/>
<path d="M426.35 257H425.076V253.71H421.352V257H420.078V249.468H421.352V252.604H425.076V249.468H426.35V257ZM433.176 253.85V253.374C430.866 253.598 429.396 253.948 429.396 254.984C429.396 255.698 429.942 256.174 430.852 256.174C432.042 256.174 433.176 255.628 433.176 253.85ZM430.572 257.182C429.158 257.182 427.982 256.398 427.982 255.012C427.982 253.234 429.998 252.702 433.078 252.366V252.184C433.078 250.798 432.322 250.35 431.37 250.35C430.306 250.35 429.704 250.91 429.648 251.848H428.332C428.444 250.224 429.9 249.314 431.356 249.314C433.442 249.314 434.366 250.294 434.352 252.422L434.338 254.158C434.324 255.432 434.38 256.286 434.534 257H433.246C433.204 256.72 433.162 256.412 433.148 255.964C432.686 256.748 431.916 257.182 430.572 257.182ZM445.602 249.468V257H436.32V249.468H437.594V255.894H440.324V249.468H441.598V255.894H444.328V249.468H445.602Z" fill="#5A5A5A"/>
<path d="M425.244 289V283.316L421.352 289H420.078V281.468H421.352V287.152L425.244 281.468H426.518V289H425.244ZM434.544 281.468L431.982 285.066L434.796 289H433.27L431.226 286.13L429.196 289H427.74L430.512 285.122L427.908 281.468H429.434L431.268 284.058L433.116 281.468H434.544Z" fill="#5A5A5A"/>
<path d="M426.658 337.654H420.862C420.904 339.278 422.08 340.062 423.186 340.062C424.306 340.062 424.922 339.558 425.244 338.816H426.56C426.224 340.104 425.02 341.182 423.186 341.182C420.806 341.182 419.49 339.474 419.49 337.248C419.49 334.854 421.086 333.342 423.144 333.342C425.454 333.342 426.812 335.26 426.658 337.654ZM423.144 334.434C422.024 334.434 420.988 335.05 420.876 336.562H425.314C425.272 335.498 424.502 334.434 423.144 334.434ZM433.028 334.574H429.5V341H428.226V333.468H433.028V334.574ZM434.794 337.262C434.794 339.278 435.886 340.062 437.048 340.062C438.21 340.062 439.302 339.194 439.302 337.262C439.302 335.246 438.21 334.462 437.048 334.462C435.886 334.462 434.794 335.204 434.794 337.262ZM437.048 333.342C438.798 333.342 440.66 334.532 440.66 337.262C440.66 339.992 438.798 341.182 437.048 341.182C435.298 341.182 433.436 339.992 433.436 337.262C433.436 334.532 435.298 333.342 437.048 333.342Z" fill="#5A5A5A"/>
<path d="M426.658 369.654H420.862C420.904 371.278 422.08 372.062 423.186 372.062C424.306 372.062 424.922 371.558 425.244 370.816H426.56C426.224 372.104 425.02 373.182 423.186 373.182C420.806 373.182 419.49 371.474 419.49 369.248C419.49 366.854 421.086 365.342 423.144 365.342C425.454 365.342 426.812 367.26 426.658 369.654ZM423.144 366.434C422.024 366.434 420.988 367.05 420.876 368.562H425.314C425.272 367.498 424.502 366.434 423.144 366.434ZM429.233 364.236V362.85H430.507V364.236H429.233ZM432.439 362.85H433.727V364.236H432.439V362.85ZM434.875 369.654H429.079C429.121 371.278 430.297 372.062 431.403 372.062C432.523 372.062 433.139 371.558 433.461 370.816H434.777C434.441 372.104 433.237 373.182 431.403 373.182C429.023 373.182 427.707 371.474 427.707 369.248C427.707 366.854 429.303 365.342 431.361 365.342C433.671 365.342 435.029 367.26 434.875 369.654ZM431.361 366.434C430.241 366.434 429.205 367.05 429.093 368.562H433.531C433.489 367.498 432.719 366.434 431.361 366.434Z" fill="#5A5A5A"/>
<path d="M419.434 402.48H420.708C420.918 403.376 421.66 404.062 422.836 404.062C423.942 404.062 424.978 403.32 425.09 401.752H421.772V400.646H425.09C424.936 399.246 424.04 398.42 422.822 398.42C421.772 398.42 421.03 399.008 420.764 400.016H419.504C419.84 398.238 421.226 397.3 422.864 397.3C425.076 397.3 426.434 398.896 426.434 401.248C426.434 403.586 425.188 405.182 422.906 405.182C421.268 405.182 419.854 404.328 419.434 402.48ZM433.32 398.574H430.744V405H429.47V398.574H426.894V397.468H433.32V398.574ZM435.163 401.262C435.163 403.278 436.255 404.062 437.417 404.062C438.579 404.062 439.671 403.194 439.671 401.262C439.671 399.246 438.579 398.462 437.417 398.462C436.255 398.462 435.163 399.204 435.163 401.262ZM437.417 397.342C439.167 397.342 441.029 398.532 441.029 401.262C441.029 403.992 439.167 405.182 437.417 405.182C435.667 405.182 433.805 403.992 433.805 401.262C433.805 398.532 435.667 397.342 437.417 397.342ZM447.935 398.574H445.359V405H444.085V398.574H441.509V397.468H447.935V398.574Z" fill="#5A5A5A"/>
<path d="M349.912 165.992V173H347.728V160.088H349.912V162.032C350.656 160.808 351.856 159.872 353.8 159.872C355.792 159.872 356.944 160.712 357.52 162.152C358.552 160.544 360.04 159.872 361.864 159.872C364.864 159.872 366.04 161.888 366.04 164.84V173H363.856V165.488C363.856 163.496 363.472 161.768 361.096 161.768C359.2 161.768 357.976 163.208 357.976 165.992V173H355.792V165.488C355.792 163.496 355.408 161.768 353.032 161.768C351.136 161.768 349.912 163.208 349.912 165.992ZM369.314 160.088H371.498V173H369.314V160.088ZM369.314 155.6H371.498V158.24H369.314V155.6ZM377.146 160.088V162.032C377.89 160.808 379.138 159.872 381.322 159.872C384.442 159.872 385.57 161.888 385.57 164.84V173H383.386V165.488C383.386 163.496 383.05 161.768 380.554 161.768C378.442 161.768 377.146 163.208 377.146 165.992V173H374.962V160.088H377.146ZM400.237 167.264H390.301C390.373 170.048 392.389 171.392 394.285 171.392C396.205 171.392 397.261 170.528 397.813 169.256H400.069C399.493 171.464 397.429 173.312 394.285 173.312C390.205 173.312 387.949 170.384 387.949 166.568C387.949 162.464 390.685 159.872 394.213 159.872C398.173 159.872 400.501 163.16 400.237 167.264ZM394.213 161.744C392.293 161.744 390.517 162.8 390.325 165.392H397.933C397.861 163.568 396.541 161.744 394.213 161.744Z" fill="#1E1E1E"/>
<path d="M32.624 45L26.576 37.08H24.752V45H22.304V27.6H24.752V34.968H26.504L32.36 27.6H35.312L28.592 35.832L35.552 45H32.624ZM45.8604 33.984H41.4444V45H39.2604V33.984H34.8444V32.088H45.8604V33.984ZM49.0207 38.592C49.0207 42.048 50.8927 43.392 52.8847 43.392C54.8767 43.392 56.7487 41.904 56.7487 38.592C56.7487 35.136 54.8767 33.792 52.8847 33.792C50.8927 33.792 49.0207 35.064 49.0207 38.592ZM52.8847 31.872C55.8847 31.872 59.0767 33.912 59.0767 38.592C59.0767 43.272 55.8847 45.312 52.8847 45.312C49.8847 45.312 46.6927 43.272 46.6927 38.592C46.6927 33.912 49.8847 31.872 52.8847 31.872ZM66.1529 27.288C68.8649 27.288 71.5769 28.608 71.5769 31.512C71.5769 33.816 69.9689 35.424 68.3369 36.456C66.8489 37.416 66.3209 37.848 66.3209 39.168V39.912H64.0889V39.096C64.0889 37.08 65.0489 36.216 67.0649 34.92C68.3129 34.128 69.2969 33.168 69.2969 31.608C69.2969 30.072 67.9529 29.112 66.1049 29.112C63.4409 29.112 62.5289 30.984 62.4569 32.448H60.2729C60.2729 29.328 62.7689 27.288 66.1529 27.288ZM66.6329 45H63.8729V42.24H66.6329V45Z" fill="#1E1E1E"/>
<rect x="144" y="20" width="1" height="392" fill="#D9D9D9"/>
<path d="M189.352 27.6V45H186.904V38.184C185.44 38.496 183.832 38.736 182.416 38.736C178.432 38.736 176.44 36.96 176.44 33.432V27.6H178.888V32.808C178.888 35.712 180.352 36.576 183.136 36.576C184.264 36.576 185.656 36.408 186.904 36.12V27.6H189.352ZM204.792 39.264H194.856C194.928 42.048 196.944 43.392 198.84 43.392C200.76 43.392 201.816 42.528 202.368 41.256H204.624C204.048 43.464 201.984 45.312 198.84 45.312C194.76 45.312 192.504 42.384 192.504 38.568C192.504 34.464 195.24 31.872 198.768 31.872C202.728 31.872 205.056 35.16 204.792 39.264ZM198.768 33.744C196.848 33.744 195.072 34.8 194.88 37.392H202.488C202.416 35.568 201.096 33.744 198.768 33.744ZM215.209 27.6H216.913C216.721 29.04 215.809 30.504 213.073 30.504C210.433 30.504 209.425 29.04 209.305 27.6H211.009C211.105 28.368 211.681 29.064 213.097 29.064C214.513 29.064 215.113 28.368 215.209 27.6ZM216.337 45V35.256L209.665 45H207.481V32.088H209.665V41.832L216.337 32.088H218.521V45H216.337ZM226.567 27.288C229.279 27.288 231.991 28.608 231.991 31.512C231.991 33.816 230.383 35.424 228.751 36.456C227.263 37.416 226.735 37.848 226.735 39.168V39.912H224.503V39.096C224.503 37.08 225.463 36.216 227.479 34.92C228.727 34.128 229.711 33.168 229.711 31.608C229.711 30.072 228.367 29.112 226.519 29.112C223.855 29.112 222.943 30.984 222.871 32.448H220.687C220.687 29.328 223.183 27.288 226.567 27.288ZM227.047 45H224.287V42.24H227.047V45Z" fill="#1E1E1E"/>
<path d="M257.352 27.6V45H254.904V38.184C253.44 38.496 251.832 38.736 250.416 38.736C246.432 38.736 244.44 36.96 244.44 33.432V27.6H246.888V32.808C246.888 35.712 248.352 36.576 251.136 36.576C252.264 36.576 253.656 36.408 254.904 36.12V27.6H257.352ZM263.696 36.648H266.768C270.152 36.648 271.592 37.968 271.592 40.728C271.592 43.92 269.72 45 266.744 45H261.512V32.088H263.696V36.648ZM263.696 43.104H266.552C268.472 43.104 269.456 42.456 269.456 40.728C269.456 39.024 268.448 38.544 266.504 38.544H263.696V43.104ZM283.416 32.088V45H281.232V40.416H278.952C278.832 40.416 278.712 40.416 278.592 40.392L275.088 45H272.376L276.288 39.792C274.656 39.24 273.552 37.992 273.552 36.072C273.552 33.408 275.376 32.088 278.352 32.088H283.416ZM281.232 33.984H278.472C276.864 33.984 275.784 34.656 275.784 36.216C275.784 37.968 277.152 38.52 278.664 38.52H281.232V33.984ZM291.45 27.288C294.162 27.288 296.874 28.608 296.874 31.512C296.874 33.816 295.266 35.424 293.634 36.456C292.146 37.416 291.618 37.848 291.618 39.168V39.912H289.386V39.096C289.386 37.08 290.346 36.216 292.362 34.92C293.61 34.128 294.594 33.168 294.594 31.608C294.594 30.072 293.25 29.112 291.402 29.112C288.738 29.112 287.826 30.984 287.754 32.448H285.57C285.57 29.328 288.066 27.288 291.45 27.288ZM291.93 45H289.17V42.24H291.93V45Z" fill="#1E1E1E"/>
<path d="M322.352 27.6V45H319.904V38.184C318.44 38.496 316.832 38.736 315.416 38.736C311.432 38.736 309.44 36.96 309.44 33.432V27.6H311.888V32.808C311.888 35.712 313.352 36.576 316.136 36.576C317.264 36.576 318.656 36.408 319.904 36.12V27.6H322.352ZM328.696 36.648H331.768C335.152 36.648 336.592 37.968 336.592 40.728C336.592 43.92 334.72 45 331.744 45H326.512V32.088H328.696V36.648ZM328.696 43.104H331.552C333.472 43.104 334.456 42.456 334.456 40.728C334.456 39.024 333.448 38.544 331.504 38.544H328.696V43.104ZM340.847 29.976V27.6H343.031V29.976H340.847ZM346.343 27.6H348.551V29.976H346.343V27.6ZM350.519 39.264H340.583C340.655 42.048 342.671 43.392 344.567 43.392C346.487 43.392 347.543 42.528 348.095 41.256H350.351C349.775 43.464 347.711 45.312 344.567 45.312C340.487 45.312 338.231 42.384 338.231 38.568C338.231 34.464 340.967 31.872 344.495 31.872C348.455 31.872 350.783 35.16 350.519 39.264ZM344.495 33.744C342.575 33.744 340.799 34.8 340.607 37.392H348.215C348.143 35.568 346.823 33.744 344.495 33.744ZM357.551 27.288C360.263 27.288 362.975 28.608 362.975 31.512C362.975 33.816 361.367 35.424 359.735 36.456C358.247 37.416 357.719 37.848 357.719 39.168V39.912H355.487V39.096C355.487 37.08 356.447 36.216 358.463 34.92C359.711 34.128 360.695 33.168 360.695 31.608C360.695 30.072 359.351 29.112 357.503 29.112C354.839 29.112 353.927 30.984 353.855 32.448H351.671C351.671 29.328 354.167 27.288 357.551 27.288ZM358.031 45H355.271V42.24H358.031V45Z" fill="#1E1E1E"/>
<path d="M388.352 27.6V45H385.904V38.184C384.44 38.496 382.832 38.736 381.416 38.736C377.432 38.736 375.44 36.96 375.44 33.432V27.6H377.888V32.808C377.888 35.712 379.352 36.576 382.136 36.576C383.264 36.576 384.656 36.408 385.904 36.12V27.6H388.352ZM394.696 36.648H397.768C401.152 36.648 402.592 37.968 402.592 40.728C402.592 43.92 400.72 45 397.744 45H392.512V32.088H394.696V36.648ZM394.696 43.104H397.552C399.472 43.104 400.456 42.456 400.456 40.728C400.456 39.024 399.448 38.544 397.504 38.544H394.696V43.104ZM413.907 45V35.256L407.235 45H405.051V32.088H407.235V41.832L413.907 32.088H416.091V45H413.907ZM424.137 27.288C426.849 27.288 429.561 28.608 429.561 31.512C429.561 33.816 427.953 35.424 426.321 36.456C424.833 37.416 424.305 37.848 424.305 39.168V39.912H422.073V39.096C422.073 37.08 423.033 36.216 425.049 34.92C426.297 34.128 427.281 33.168 427.281 31.608C427.281 30.072 425.937 29.112 424.089 29.112C421.425 29.112 420.513 30.984 420.441 32.448H418.257C418.257 29.328 420.753 27.288 424.137 27.288ZM424.617 45H421.857V42.24H424.617V45Z" fill="#1E1E1E"/>
<path d="M183.904 212.088H186.184L181.576 225.552C180.616 228.336 179.992 229.2 177.088 229.2H175.96V227.376H176.848C178.288 227.376 178.984 227.28 179.56 225.264L179.656 225L175 212.088H177.424L180.712 222.048L183.904 212.088ZM189.161 218.592C189.161 222.048 191.033 223.392 193.025 223.392C195.017 223.392 196.889 221.904 196.889 218.592C196.889 215.136 195.017 213.792 193.025 213.792C191.033 213.792 189.161 215.064 189.161 218.592ZM193.025 211.872C196.025 211.872 199.217 213.912 199.217 218.592C199.217 223.272 196.025 225.312 193.025 225.312C190.025 225.312 186.833 223.272 186.833 218.592C186.833 213.912 190.025 211.872 193.025 211.872ZM209.822 225V223.152C209.078 224.376 207.902 225.312 205.766 225.312C202.79 225.312 201.638 223.296 201.638 220.344V212.088H203.822V219.696C203.822 221.688 204.134 223.416 206.534 223.416C208.622 223.416 209.822 221.976 209.822 219.192V212.088H212.006V225H209.822ZM221.902 212.04V214.368C221.446 214.296 221.038 214.272 220.678 214.272C218.662 214.272 217.654 215.376 217.654 218.232V225H215.47V212.088H217.606V214.344C218.254 212.88 219.55 212.088 221.254 212.016C221.47 212.016 221.638 212.016 221.902 212.04ZM178.216 250.592C178.216 254.048 180.088 255.392 182.08 255.392C184.072 255.392 185.944 253.904 185.944 250.592C185.944 247.136 184.072 245.792 182.08 245.792C180.088 245.792 178.216 247.064 178.216 250.592ZM182.08 243.872C185.08 243.872 188.272 245.912 188.272 250.592C188.272 255.272 185.08 257.312 182.08 257.312C179.08 257.312 175.888 255.272 175.888 250.592C175.888 245.912 179.08 243.872 182.08 243.872ZM198.876 257V255.152C198.132 256.376 196.956 257.312 194.82 257.312C191.844 257.312 190.692 255.296 190.692 252.344V244.088H192.876V251.696C192.876 253.688 193.188 255.416 195.588 255.416C197.676 255.416 198.876 253.976 198.876 251.192V244.088H201.06V257H198.876ZM210.957 244.04V246.368C210.501 246.296 210.093 246.272 209.733 246.272C207.717 246.272 206.709 247.376 206.709 250.232V257H204.525V244.088H206.661V246.344C207.309 244.88 208.605 244.088 210.309 244.016C210.525 244.016 210.693 244.016 210.957 244.04ZM177.352 276.088V272.848H179.536V276.088H181.984V277.84H179.536V285.496C179.536 286.84 179.632 287.176 180.88 287.176H181.984V289H180.4C177.928 289 177.352 288.448 177.352 285.76V277.84H175.312V276.088H177.352ZM186.951 271.6V278.032C187.695 276.808 188.943 275.872 191.127 275.872C194.247 275.872 195.375 277.888 195.375 280.84V289H193.191V281.488C193.191 279.496 192.855 277.768 190.359 277.768C188.247 277.768 186.951 279.208 186.951 281.992V289H184.767V271.6H186.951ZM210.042 283.264H200.106C200.178 286.048 202.194 287.392 204.09 287.392C206.01 287.392 207.066 286.528 207.618 285.256H209.874C209.298 287.464 207.234 289.312 204.09 289.312C200.01 289.312 197.754 286.384 197.754 282.568C197.754 278.464 200.49 275.872 204.018 275.872C207.978 275.872 210.306 279.16 210.042 283.264ZM204.018 277.744C202.098 277.744 200.322 278.8 200.13 281.392H207.738C207.666 279.568 206.346 277.744 204.018 277.744ZM212.587 276.088H214.771V289H212.587V276.088ZM212.587 271.6H214.771V274.24H212.587V271.6ZM224.668 276.04V278.368C224.212 278.296 223.804 278.272 223.444 278.272C221.428 278.272 220.42 279.376 220.42 282.232V289H218.236V276.088H220.372V278.344C221.02 276.88 222.316 276.088 224.02 276.016C224.236 276.016 224.404 276.016 224.668 276.04Z" fill="#1E1E1E"/>
<path d="M178.912 323.6V330.032C179.656 328.808 180.904 327.872 183.088 327.872C186.208 327.872 187.336 329.888 187.336 332.84V341H185.152V333.488C185.152 331.496 184.816 329.768 182.32 329.768C180.208 329.768 178.912 331.208 178.912 333.992V341H176.728V323.6H178.912ZM190.603 328.088H192.787V341H190.603V328.088ZM190.603 323.6H192.787V326.24H190.603V323.6ZM205.923 331.856H203.643C203.283 330.32 202.131 329.72 200.595 329.72C199.323 329.72 197.883 330.176 197.883 331.352C197.883 332.384 198.603 332.84 199.851 333.104L201.675 333.464C204.027 333.896 206.091 334.832 206.091 337.304C206.091 339.872 203.787 341.312 200.835 341.312C197.451 341.312 195.555 339.08 195.291 336.824H197.595C197.955 338.48 198.963 339.464 200.883 339.464C202.539 339.464 203.883 338.768 203.883 337.544C203.883 336.224 202.659 335.72 201.267 335.408L199.347 335.024C197.595 334.64 195.675 333.872 195.675 331.448C195.675 329.168 197.979 327.848 200.835 327.848C203.643 327.848 205.515 329.384 205.923 331.856ZM178.912 355.6V362.032C179.656 360.808 180.904 359.872 183.088 359.872C186.208 359.872 187.336 361.888 187.336 364.84V373H185.152V365.488C185.152 363.496 184.816 361.768 182.32 361.768C180.208 361.768 178.912 363.208 178.912 365.992V373H176.728V355.6H178.912ZM202.003 367.264H192.067C192.139 370.048 194.155 371.392 196.051 371.392C197.971 371.392 199.027 370.528 199.579 369.256H201.835C201.259 371.464 199.195 373.312 196.051 373.312C191.971 373.312 189.715 370.384 189.715 366.568C189.715 362.464 192.451 359.872 195.979 359.872C199.939 359.872 202.267 363.16 202.003 367.264ZM195.979 361.744C194.059 361.744 192.283 362.8 192.091 365.392H199.699C199.627 363.568 198.307 361.744 195.979 361.744ZM210.98 360.04V362.368C210.524 362.296 210.116 362.272 209.756 362.272C207.74 362.272 206.732 363.376 206.732 366.232V373H204.548V360.088H206.684V362.344C207.332 360.88 208.628 360.088 210.332 360.016C210.548 360.016 210.716 360.016 210.98 360.04ZM176.728 392.088H178.912V405H176.728V392.088ZM176.728 387.6H178.912V390.24H176.728V387.6ZM183 392.088V388.848H185.184V392.088H187.632V393.84H185.184V401.496C185.184 402.84 185.28 403.176 186.528 403.176H187.632V405H186.048C183.576 405 183 404.448 183 401.76V393.84H180.96V392.088H183ZM199.853 395.856H197.573C197.213 394.32 196.061 393.72 194.525 393.72C193.253 393.72 191.813 394.176 191.813 395.352C191.813 396.384 192.533 396.84 193.781 397.104L195.605 397.464C197.957 397.896 200.021 398.832 200.021 401.304C200.021 403.872 197.717 405.312 194.765 405.312C191.381 405.312 189.485 403.08 189.221 400.824H191.525C191.885 402.48 192.893 403.464 194.813 403.464C196.469 403.464 197.813 402.768 197.813 401.544C197.813 400.224 196.589 399.72 195.197 399.408L193.277 399.024C191.525 398.64 189.605 397.872 189.605 395.448C189.605 393.168 191.909 391.848 194.765 391.848C197.573 391.848 199.445 393.384 199.853 395.856Z" fill="#1E1E1E"/>
<path d="M245.31 165.468V173H244.064V166.952L241.642 173H240.732L238.324 167.036V173H237.078V165.468H238.898L241.236 171.264L243.49 165.468H245.31ZM248.267 169.262C248.267 171.278 249.359 172.062 250.521 172.062C251.683 172.062 252.775 171.194 252.775 169.262C252.775 167.246 251.683 166.462 250.521 166.462C249.359 166.462 248.267 167.204 248.267 169.262ZM250.521 165.342C252.271 165.342 254.133 166.532 254.133 169.262C254.133 171.992 252.271 173.182 250.521 173.182C248.771 173.182 246.909 171.992 246.909 169.262C246.909 166.532 248.771 165.342 250.521 165.342ZM260.234 162.85H261.228C261.116 163.69 260.584 164.544 258.988 164.544C257.448 164.544 256.86 163.69 256.79 162.85H257.784C257.84 163.298 258.176 163.704 259.002 163.704C259.828 163.704 260.178 163.298 260.234 162.85ZM260.892 173V167.316L257 173H255.726V165.468H257V171.152L260.892 165.468H262.166V173H260.892Z" fill="#5A5A5A"/>
<path d="M242.636 218.574H240.06V225H238.786V218.574H236.21V217.468H242.636V218.574ZM243.928 217.468H247.204C248.716 217.468 249.948 217.86 249.948 219.386C249.948 220.184 249.598 220.744 248.898 221.038C249.682 221.262 250.256 221.794 250.256 222.802C250.256 224.37 249.038 225 247.428 225H243.928V217.468ZM245.202 220.632H247.12C248.058 220.632 248.618 220.38 248.618 219.526C248.618 218.742 248.03 218.574 247.078 218.574H245.202V220.632ZM245.202 221.682V223.894H247.232C248.352 223.894 248.926 223.572 248.926 222.788C248.926 221.948 248.366 221.682 247.19 221.682H245.202ZM252.546 221.262C252.546 223.278 253.638 224.062 254.8 224.062C255.962 224.062 257.054 223.194 257.054 221.262C257.054 219.246 255.962 218.462 254.8 218.462C253.638 218.462 252.546 219.204 252.546 221.262ZM254.8 217.342C256.55 217.342 258.412 218.532 258.412 221.262C258.412 223.992 256.55 225.182 254.8 225.182C253.05 225.182 251.188 223.992 251.188 221.262C251.188 218.532 253.05 217.342 254.8 217.342ZM264.514 214.85H265.508C265.396 215.69 264.864 216.544 263.268 216.544C261.728 216.544 261.14 215.69 261.07 214.85H262.064C262.12 215.298 262.456 215.704 263.282 215.704C264.108 215.704 264.458 215.298 264.514 214.85ZM265.172 225V219.316L261.28 225H260.006V217.468H261.28V223.152L265.172 217.468H266.446V225H265.172Z" fill="#5A5A5A"/>
<path d="M243.35 257H242.076V253.71H238.352V257H237.078V249.468H238.352V252.604H242.076V249.468H243.35V257ZM250.176 253.85V253.374C247.866 253.598 246.396 253.948 246.396 254.984C246.396 255.698 246.942 256.174 247.852 256.174C249.042 256.174 250.176 255.628 250.176 253.85ZM247.572 257.182C246.158 257.182 244.982 256.398 244.982 255.012C244.982 253.234 246.998 252.702 250.078 252.366V252.184C250.078 250.798 249.322 250.35 248.37 250.35C247.306 250.35 246.704 250.91 246.648 251.848H245.332C245.444 250.224 246.9 249.314 248.356 249.314C250.442 249.314 251.366 250.294 251.352 252.422L251.338 254.158C251.324 255.432 251.38 256.286 251.534 257H250.246C250.204 256.72 250.162 256.412 250.148 255.964C249.686 256.748 248.916 257.182 247.572 257.182ZM262.602 249.468V257H253.32V249.468H254.594V255.894H257.324V249.468H258.598V255.894H261.328V249.468H262.602Z" fill="#5A5A5A"/>
<path d="M242.244 289V283.316L238.352 289H237.078V281.468H238.352V287.152L242.244 281.468H243.518V289H242.244ZM251.544 281.468L248.982 285.066L251.796 289H250.27L248.226 286.13L246.196 289H244.74L247.512 285.122L244.908 281.468H246.434L248.268 284.058L250.116 281.468H251.544Z" fill="#5A5A5A"/>
<path d="M243.658 337.654H237.862C237.904 339.278 239.08 340.062 240.186 340.062C241.306 340.062 241.922 339.558 242.244 338.816H243.56C243.224 340.104 242.02 341.182 240.186 341.182C237.806 341.182 236.49 339.474 236.49 337.248C236.49 334.854 238.086 333.342 240.144 333.342C242.454 333.342 243.812 335.26 243.658 337.654ZM240.144 334.434C239.024 334.434 237.988 335.05 237.876 336.562H242.314C242.272 335.498 241.502 334.434 240.144 334.434ZM250.028 334.574H246.5V341H245.226V333.468H250.028V334.574ZM251.794 337.262C251.794 339.278 252.886 340.062 254.048 340.062C255.21 340.062 256.302 339.194 256.302 337.262C256.302 335.246 255.21 334.462 254.048 334.462C252.886 334.462 251.794 335.204 251.794 337.262ZM254.048 333.342C255.798 333.342 257.66 334.532 257.66 337.262C257.66 339.992 255.798 341.182 254.048 341.182C252.298 341.182 250.436 339.992 250.436 337.262C250.436 334.532 252.298 333.342 254.048 333.342Z" fill="#5A5A5A"/>
<path d="M243.658 369.654H237.862C237.904 371.278 239.08 372.062 240.186 372.062C241.306 372.062 241.922 371.558 242.244 370.816H243.56C243.224 372.104 242.02 373.182 240.186 373.182C237.806 373.182 236.49 371.474 236.49 369.248C236.49 366.854 238.086 365.342 240.144 365.342C242.454 365.342 243.812 367.26 243.658 369.654ZM240.144 366.434C239.024 366.434 237.988 367.05 237.876 368.562H242.314C242.272 367.498 241.502 366.434 240.144 366.434ZM246.233 364.236V362.85H247.507V364.236H246.233ZM249.439 362.85H250.727V364.236H249.439V362.85ZM251.875 369.654H246.079C246.121 371.278 247.297 372.062 248.403 372.062C249.523 372.062 250.139 371.558 250.461 370.816H251.777C251.441 372.104 250.237 373.182 248.403 373.182C246.023 373.182 244.707 371.474 244.707 369.248C244.707 366.854 246.303 365.342 248.361 365.342C250.671 365.342 252.029 367.26 251.875 369.654ZM248.361 366.434C247.241 366.434 246.205 367.05 246.093 368.562H250.531C250.489 367.498 249.719 366.434 248.361 366.434Z" fill="#5A5A5A"/>
<path d="M236.434 402.48H237.708C237.918 403.376 238.66 404.062 239.836 404.062C240.942 404.062 241.978 403.32 242.09 401.752H238.772V400.646H242.09C241.936 399.246 241.04 398.42 239.822 398.42C238.772 398.42 238.03 399.008 237.764 400.016H236.504C236.84 398.238 238.226 397.3 239.864 397.3C242.076 397.3 243.434 398.896 243.434 401.248C243.434 403.586 242.188 405.182 239.906 405.182C238.268 405.182 236.854 404.328 236.434 402.48ZM250.32 398.574H247.744V405H246.47V398.574H243.894V397.468H250.32V398.574ZM252.163 401.262C252.163 403.278 253.255 404.062 254.417 404.062C255.579 404.062 256.671 403.194 256.671 401.262C256.671 399.246 255.579 398.462 254.417 398.462C253.255 398.462 252.163 399.204 252.163 401.262ZM254.417 397.342C256.167 397.342 258.029 398.532 258.029 401.262C258.029 403.992 256.167 405.182 254.417 405.182C252.667 405.182 250.805 403.992 250.805 401.262C250.805 398.532 252.667 397.342 254.417 397.342ZM264.935 398.574H262.359V405H261.085V398.574H258.509V397.468H264.935V398.574Z" fill="#5A5A5A"/>
<path d="M178.912 165.992V173H176.728V160.088H178.912V162.032C179.656 160.808 180.856 159.872 182.8 159.872C184.792 159.872 185.944 160.712 186.52 162.152C187.552 160.544 189.04 159.872 190.864 159.872C193.864 159.872 195.04 161.888 195.04 164.84V173H192.856V165.488C192.856 163.496 192.472 161.768 190.096 161.768C188.2 161.768 186.976 163.208 186.976 165.992V173H184.792V165.488C184.792 163.496 184.408 161.768 182.032 161.768C180.136 161.768 178.912 163.208 178.912 165.992ZM205.373 160.088H207.653L203.045 173.552C202.085 176.336 201.461 177.2 198.557 177.2H197.429V175.376H198.317C199.757 175.376 200.453 175.28 201.029 173.264L201.125 173L196.469 160.088H198.893L202.181 170.048L205.373 160.088Z" fill="#1E1E1E"/>
<path d="M184.268 93H182.84V84.082H177.772V93H176.344V82.85H184.268V93ZM186.687 85.468H187.961V86.658C188.423 85.86 189.207 85.342 190.425 85.342C192.161 85.342 193.645 86.798 193.645 89.262C193.645 91.768 192.161 93.182 190.425 93.182C189.207 93.182 188.423 92.664 187.961 91.866V95.45H186.687V85.468ZM187.905 89.262C187.905 91.25 188.969 92.09 190.103 92.09C191.405 92.09 192.259 91.068 192.259 89.262C192.259 87.456 191.405 86.434 190.103 86.434C188.969 86.434 187.905 87.274 187.905 89.262ZM200.385 93V87.316L196.493 93H195.219V85.468H196.493V91.152L200.385 85.468H201.659V93H200.385ZM209.376 86.574H206.8V93H205.526V86.574H202.95V85.468H209.376V86.574ZM215.966 85.468V93H214.692V90.326H213.362C213.292 90.326 213.222 90.326 213.152 90.312L211.108 93H209.526L211.808 89.962C210.856 89.64 210.212 88.912 210.212 87.792C210.212 86.238 211.276 85.468 213.012 85.468H215.966ZM214.692 86.574H213.082C212.144 86.574 211.514 86.966 211.514 87.876C211.514 88.898 212.312 89.22 213.194 89.22H214.692V86.574ZM225.497 89.024L228.255 93H226.729L224.461 89.668H223.355V93H222.081V89.668H221.017L218.735 93H217.181L219.953 89.066L217.433 85.468H218.917L221.017 88.562H222.081V85.468H223.355V88.562H224.419L226.533 85.468H228.003L225.497 89.024ZM233.965 89.85V89.374C231.655 89.598 230.185 89.948 230.185 90.984C230.185 91.698 230.731 92.174 231.641 92.174C232.831 92.174 233.965 91.628 233.965 89.85ZM231.361 93.182C229.947 93.182 228.771 92.398 228.771 91.012C228.771 89.234 230.787 88.702 233.867 88.366V88.184C233.867 86.798 233.111 86.35 232.159 86.35C231.095 86.35 230.493 86.91 230.437 87.848H229.121C229.233 86.224 230.689 85.314 232.145 85.314C234.231 85.314 235.155 86.294 235.141 88.422L235.127 90.158C235.113 91.432 235.169 92.286 235.323 93H234.035C233.993 92.72 233.951 92.412 233.937 91.964C233.475 92.748 232.705 93.182 231.361 93.182ZM242.271 86.574H239.695V93H238.421V86.574H235.845V85.468H242.271V86.574ZM249.896 89.654H244.1C244.142 91.278 245.318 92.062 246.424 92.062C247.544 92.062 248.16 91.558 248.482 90.816H249.798C249.462 92.104 248.258 93.182 246.424 93.182C244.044 93.182 242.728 91.474 242.728 89.248C242.728 86.854 244.324 85.342 246.382 85.342C248.692 85.342 250.05 87.26 249.896 89.654ZM246.382 86.434C245.262 86.434 244.226 87.05 244.114 88.562H248.552C248.51 87.498 247.74 86.434 246.382 86.434ZM257.415 85.468V93H256.141V86.574H253.607L253.495 88.394C253.313 91.432 252.655 93 250.905 93H250.667V91.894H250.807C251.479 91.894 252.123 91.166 252.277 88.044L252.389 85.468H257.415ZM260.846 88.128H262.638C264.612 88.128 265.452 88.898 265.452 90.508C265.452 92.37 264.36 93 262.624 93H259.572V85.468H260.846V88.128ZM260.846 91.894H262.512C263.632 91.894 264.206 91.516 264.206 90.508C264.206 89.514 263.618 89.234 262.484 89.234H260.846V91.894ZM273.159 93H271.885V89.71H268.161V93H266.887V85.468H268.161V88.604H271.885V85.468H273.159V93ZM276.106 89.262C276.106 91.278 277.198 92.062 278.36 92.062C279.522 92.062 280.614 91.194 280.614 89.262C280.614 87.246 279.522 86.462 278.36 86.462C277.198 86.462 276.106 87.204 276.106 89.262ZM278.36 85.342C280.11 85.342 281.972 86.532 281.972 89.262C281.972 91.992 280.11 93.182 278.36 93.182C276.61 93.182 274.748 91.992 274.748 89.262C274.748 86.532 276.61 85.342 278.36 85.342ZM290.256 89.654H284.46C284.502 91.278 285.678 92.062 286.784 92.062C287.904 92.062 288.52 91.558 288.842 90.816H290.158C289.822 92.104 288.618 93.182 286.784 93.182C284.404 93.182 283.088 91.474 283.088 89.248C283.088 86.854 284.684 85.342 286.742 85.342C289.052 85.342 290.41 87.26 290.256 89.654ZM286.742 86.434C285.622 86.434 284.586 87.05 284.474 88.562H288.912C288.87 87.498 288.1 86.434 286.742 86.434ZM184.31 101.468V109H183.064V102.952L180.642 109H179.732L177.324 103.036V109H176.078V101.468H177.898L180.236 107.264L182.49 101.468H184.31ZM193.049 105.654H187.253C187.295 107.278 188.471 108.062 189.577 108.062C190.697 108.062 191.313 107.558 191.635 106.816H192.951C192.615 108.104 191.411 109.182 189.577 109.182C187.197 109.182 185.881 107.474 185.881 105.248C185.881 102.854 187.477 101.342 189.535 101.342C191.845 101.342 193.203 103.26 193.049 105.654ZM189.535 102.434C188.415 102.434 187.379 103.05 187.267 104.562H191.705C191.663 103.498 190.893 102.434 189.535 102.434ZM197.737 101.342C199.585 101.342 200.705 102.7 200.887 103.988H199.599C199.417 103.092 198.647 102.462 197.653 102.462C196.533 102.462 195.483 103.344 195.483 105.234C195.483 107.138 196.533 108.062 197.653 108.062C198.731 108.062 199.473 107.334 199.655 106.55H200.971C200.705 107.964 199.375 109.182 197.611 109.182C195.441 109.182 194.097 107.544 194.097 105.248C194.097 103.008 195.511 101.342 197.737 101.342ZM207.79 102.574H205.214V109H203.94V102.574H201.364V101.468H207.79V102.574ZM209.634 105.262C209.634 107.278 210.726 108.062 211.888 108.062C213.05 108.062 214.142 107.194 214.142 105.262C214.142 103.246 213.05 102.462 211.888 102.462C210.726 102.462 209.634 103.204 209.634 105.262ZM211.888 101.342C213.638 101.342 215.5 102.532 215.5 105.262C215.5 107.992 213.638 109.182 211.888 109.182C210.138 109.182 208.276 107.992 208.276 105.262C208.276 102.532 210.138 101.342 211.888 101.342ZM222.26 109V103.316L218.368 109H217.094V101.468H218.368V107.152L222.26 101.468H223.534V109H222.26ZM233.925 101.468V109H232.679V102.952L230.257 109H229.347L226.939 103.036V109H225.693V101.468H227.513L229.851 107.264L232.105 101.468H233.925ZM242.664 105.654H236.868C236.91 107.278 238.086 108.062 239.192 108.062C240.312 108.062 240.928 107.558 241.25 106.816H242.566C242.23 108.104 241.026 109.182 239.192 109.182C236.812 109.182 235.496 107.474 235.496 105.248C235.496 102.854 237.092 101.342 239.15 101.342C241.46 101.342 242.818 103.26 242.664 105.654ZM239.15 102.434C238.03 102.434 236.994 103.05 236.882 104.562H241.32C241.278 103.498 240.508 102.434 239.15 102.434ZM250.504 109H249.23V105.71H245.506V109H244.232V101.468H245.506V104.604H249.23V101.468H250.504V109ZM257.82 109V103.316L253.928 109H252.654V101.468H253.928V107.152L257.82 101.468H259.094V109H257.82ZM267.834 105.654H262.038C262.08 107.278 263.256 108.062 264.362 108.062C265.482 108.062 266.098 107.558 266.42 106.816H267.736C267.4 108.104 266.196 109.182 264.362 109.182C261.982 109.182 260.666 107.474 260.666 105.248C260.666 102.854 262.262 101.342 264.32 101.342C266.63 101.342 267.988 103.26 267.834 105.654ZM264.32 102.434C263.2 102.434 262.164 103.05 262.052 104.562H266.49C266.448 103.498 265.678 102.434 264.32 102.434Z" fill="#5A5A5A"/>
<path d="M274.544 109H272.612V101.468H279.346V109H277.414V102.994H274.544V109ZM288.168 105.766H282.61C282.722 107.054 283.59 107.684 284.514 107.684C285.116 107.684 285.704 107.474 286.096 106.816H288.084C287.678 107.936 286.586 109.182 284.528 109.182C282.106 109.182 280.692 107.376 280.692 105.206C280.692 102.966 282.246 101.3 284.472 101.3C286.796 101.3 288.238 103.106 288.168 105.766ZM284.458 102.714C283.73 102.714 282.792 103.162 282.638 104.436H286.208C286.166 103.162 285.27 102.714 284.458 102.714ZM293.137 107.698C294.145 107.698 294.859 106.718 294.859 105.248C294.859 103.778 294.145 102.784 293.137 102.784C292.073 102.784 291.373 103.722 291.373 105.234C291.373 106.788 292.073 107.698 293.137 107.698ZM291.443 111.45H289.511V101.468H291.443V102.434C291.849 101.72 292.661 101.3 293.613 101.3C295.433 101.3 296.889 102.868 296.889 105.234C296.889 107.642 295.391 109.182 293.599 109.182C292.815 109.182 291.933 108.888 291.443 108.048V111.45ZM305.231 105.766H299.673C299.785 107.054 300.653 107.684 301.577 107.684C302.179 107.684 302.767 107.474 303.159 106.816H305.147C304.741 107.936 303.649 109.182 301.591 109.182C299.169 109.182 297.755 107.376 297.755 105.206C297.755 102.966 299.309 101.3 301.535 101.3C303.859 101.3 305.301 103.106 305.231 105.766ZM301.521 102.714C300.793 102.714 299.855 103.162 299.701 104.436H303.271C303.229 103.162 302.333 102.714 301.521 102.714ZM307.609 110.75H305.817V107.474H306.237C306.965 107.474 307.329 106.844 307.483 103.708L307.581 101.468H313.363V107.474H314.525V110.75H312.733V109H307.609V110.75ZM308.491 107.474H311.431V102.994H309.317L309.233 104.366C309.121 105.934 309.023 106.634 308.491 107.474ZM179.158 117.3C180.74 117.3 182.308 118.182 182.574 120.044H180.726C180.572 119.316 179.9 118.798 179.158 118.798C178.15 118.798 177.352 119.652 177.352 121.22C177.352 122.802 178.108 123.684 179.172 123.684C179.844 123.684 180.53 123.334 180.796 122.438H182.644C182.196 124.496 180.642 125.182 179.074 125.182C176.82 125.182 175.378 123.53 175.378 121.248C175.378 118.952 176.904 117.3 179.158 117.3ZM184.226 127.45H183.414V125.966H184.142C184.786 125.966 185.066 125.98 185.402 125.182L185.486 124.972L182.602 117.468H184.716L186.424 122.9L188.174 117.468H190.134L187.376 124.776C186.48 127.114 186.102 127.45 184.226 127.45ZM202.566 126.75H200.774V125H191.128V117.468H193.06V123.474H195.3V117.468H197.232V123.474H199.472V117.468H201.404V123.558H202.566V126.75ZM210.594 121.766H205.036C205.148 123.054 206.016 123.684 206.94 123.684C207.542 123.684 208.13 123.474 208.522 122.816H210.51C210.104 123.936 209.012 125.182 206.954 125.182C204.532 125.182 203.118 123.376 203.118 121.206C203.118 118.966 204.672 117.3 206.898 117.3C209.222 117.3 210.664 119.106 210.594 121.766ZM206.884 118.714C206.156 118.714 205.218 119.162 205.064 120.436H208.634C208.592 119.162 207.696 118.714 206.884 118.714ZM215.334 117.3C216.916 117.3 218.484 118.182 218.75 120.044H216.902C216.748 119.316 216.076 118.798 215.334 118.798C214.326 118.798 213.528 119.652 213.528 121.22C213.528 122.802 214.284 123.684 215.348 123.684C216.02 123.684 216.706 123.334 216.972 122.438H218.82C218.372 124.496 216.818 125.182 215.25 125.182C212.996 125.182 211.554 123.53 211.554 121.248C211.554 118.952 213.08 117.3 215.334 117.3ZM223.369 125H221.437V118.994H218.987V117.468H225.819V118.994H223.369V125ZM230.867 125H226.989V117.468H230.699C232.309 117.468 233.583 117.86 233.583 119.428C233.583 120.17 233.261 120.688 232.631 120.982C233.359 121.22 233.891 121.752 233.891 122.704C233.891 124.356 232.617 125 230.867 125ZM228.921 121.766V123.488H230.671C231.567 123.488 232.015 123.194 232.015 122.62C232.015 122.018 231.553 121.766 230.657 121.766H228.921ZM228.921 118.98V120.506H230.559C231.287 120.506 231.721 120.268 231.721 119.708C231.721 119.134 231.287 118.98 230.545 118.98H228.921ZM237.343 125H235.411V117.468H237.301V122.606L240.619 117.468H242.551V125H240.661V120.044L237.343 125ZM248.115 125H246.183V118.994H243.733V117.468H250.565V118.994H248.115V125ZM258.459 121.766H252.901C253.013 123.054 253.881 123.684 254.805 123.684C255.407 123.684 255.995 123.474 256.387 122.816H258.375C257.969 123.936 256.877 125.182 254.819 125.182C252.397 125.182 250.983 123.376 250.983 121.206C250.983 118.966 252.537 117.3 254.763 117.3C257.087 117.3 258.529 119.106 258.459 121.766ZM254.749 118.714C254.021 118.714 253.083 119.162 252.929 120.436H256.499C256.457 119.162 255.561 118.714 254.749 118.714ZM259.48 125H259.116V123.474H259.298C260.082 123.474 260.39 122.55 260.544 119.834L260.684 117.468H266.368V125H264.436V118.994H262.49L262.378 120.786C262.21 123.628 261.342 125 259.48 125ZM271.862 125H268.306V117.468H270.238V119.918H271.792C273.92 119.918 274.816 120.73 274.816 122.424C274.816 124.356 273.836 125 271.862 125ZM270.238 121.43V123.488H271.624C272.52 123.488 272.954 123.194 272.954 122.396C272.954 121.682 272.506 121.43 271.61 121.43H270.238ZM278.099 125H276.167V117.468H278.099V120.38H281.235V117.468H283.167V125H281.235V121.906H278.099V125ZM288.273 125H285.095V117.468H287.027V119.918H288.203C290.345 119.918 291.255 120.73 291.255 122.424C291.255 124.356 290.247 125 288.273 125ZM287.027 121.43V123.488H288.049C288.945 123.488 289.393 123.236 289.393 122.396C289.393 121.682 288.945 121.43 288.035 121.43H287.027ZM294.293 125H292.347V117.468H294.293V125ZM298.072 125H296.224V117.468H299.066L300.788 122.872L302.496 117.468H305.338V125H303.49V119.036L301.46 125H300.102L298.072 119.036V125Z" fill="#1E1E1E"/>
<path d="M355.268 93H353.84V84.082H348.772V93H347.344V82.85H355.268V93ZM357.687 85.468H358.961V86.658C359.423 85.86 360.207 85.342 361.425 85.342C363.161 85.342 364.645 86.798 364.645 89.262C364.645 91.768 363.161 93.182 361.425 93.182C360.207 93.182 359.423 92.664 358.961 91.866V95.45H357.687V85.468ZM358.905 89.262C358.905 91.25 359.969 92.09 361.103 92.09C362.405 92.09 363.259 91.068 363.259 89.262C363.259 87.456 362.405 86.434 361.103 86.434C359.969 86.434 358.905 87.274 358.905 89.262ZM371.385 93V87.316L367.493 93H366.219V85.468H367.493V91.152L371.385 85.468H372.659V93H371.385ZM380.376 86.574H377.8V93H376.526V86.574H373.95V85.468H380.376V86.574ZM386.966 85.468V93H385.692V90.326H384.362C384.292 90.326 384.222 90.326 384.152 90.312L382.108 93H380.526L382.808 89.962C381.856 89.64 381.212 88.912 381.212 87.792C381.212 86.238 382.276 85.468 384.012 85.468H386.966ZM385.692 86.574H384.082C383.144 86.574 382.514 86.966 382.514 87.876C382.514 88.898 383.312 89.22 384.194 89.22H385.692V86.574ZM396.497 89.024L399.255 93H397.729L395.461 89.668H394.355V93H393.081V89.668H392.017L389.735 93H388.181L390.953 89.066L388.433 85.468H389.917L392.017 88.562H393.081V85.468H394.355V88.562H395.419L397.533 85.468H399.003L396.497 89.024ZM404.965 89.85V89.374C402.655 89.598 401.185 89.948 401.185 90.984C401.185 91.698 401.731 92.174 402.641 92.174C403.831 92.174 404.965 91.628 404.965 89.85ZM402.361 93.182C400.947 93.182 399.771 92.398 399.771 91.012C399.771 89.234 401.787 88.702 404.867 88.366V88.184C404.867 86.798 404.111 86.35 403.159 86.35C402.095 86.35 401.493 86.91 401.437 87.848H400.121C400.233 86.224 401.689 85.314 403.145 85.314C405.231 85.314 406.155 86.294 406.141 88.422L406.127 90.158C406.113 91.432 406.169 92.286 406.323 93H405.035C404.993 92.72 404.951 92.412 404.937 91.964C404.475 92.748 403.705 93.182 402.361 93.182ZM413.271 86.574H410.695V93H409.421V86.574H406.845V85.468H413.271V86.574ZM420.896 89.654H415.1C415.142 91.278 416.318 92.062 417.424 92.062C418.544 92.062 419.16 91.558 419.482 90.816H420.798C420.462 92.104 419.258 93.182 417.424 93.182C415.044 93.182 413.728 91.474 413.728 89.248C413.728 86.854 415.324 85.342 417.382 85.342C419.692 85.342 421.05 87.26 420.896 89.654ZM417.382 86.434C416.262 86.434 415.226 87.05 415.114 88.562H419.552C419.51 87.498 418.74 86.434 417.382 86.434ZM428.415 85.468V93H427.141V86.574H424.607L424.495 88.394C424.313 91.432 423.655 93 421.905 93H421.667V91.894H421.807C422.479 91.894 423.123 91.166 423.277 88.044L423.389 85.468H428.415ZM431.846 88.128H433.638C435.612 88.128 436.452 88.898 436.452 90.508C436.452 92.37 435.36 93 433.624 93H430.572V85.468H431.846V88.128ZM431.846 91.894H433.512C434.632 91.894 435.206 91.516 435.206 90.508C435.206 89.514 434.618 89.234 433.484 89.234H431.846V91.894ZM444.159 93H442.885V89.71H439.161V93H437.887V85.468H439.161V88.604H442.885V85.468H444.159V93ZM447.106 89.262C447.106 91.278 448.198 92.062 449.36 92.062C450.522 92.062 451.614 91.194 451.614 89.262C451.614 87.246 450.522 86.462 449.36 86.462C448.198 86.462 447.106 87.204 447.106 89.262ZM449.36 85.342C451.11 85.342 452.972 86.532 452.972 89.262C452.972 91.992 451.11 93.182 449.36 93.182C447.61 93.182 445.748 91.992 445.748 89.262C445.748 86.532 447.61 85.342 449.36 85.342ZM461.256 89.654H455.46C455.502 91.278 456.678 92.062 457.784 92.062C458.904 92.062 459.52 91.558 459.842 90.816H461.158C460.822 92.104 459.618 93.182 457.784 93.182C455.404 93.182 454.088 91.474 454.088 89.248C454.088 86.854 455.684 85.342 457.742 85.342C460.052 85.342 461.41 87.26 461.256 89.654ZM457.742 86.434C456.622 86.434 455.586 87.05 455.474 88.562H459.912C459.87 87.498 459.1 86.434 457.742 86.434ZM355.31 101.468V109H354.064V102.952L351.642 109H350.732L348.324 103.036V109H347.078V101.468H348.898L351.236 107.264L353.49 101.468H355.31ZM364.049 105.654H358.253C358.295 107.278 359.471 108.062 360.577 108.062C361.697 108.062 362.313 107.558 362.635 106.816H363.951C363.615 108.104 362.411 109.182 360.577 109.182C358.197 109.182 356.881 107.474 356.881 105.248C356.881 102.854 358.477 101.342 360.535 101.342C362.845 101.342 364.203 103.26 364.049 105.654ZM360.535 102.434C359.415 102.434 358.379 103.05 358.267 104.562H362.705C362.663 103.498 361.893 102.434 360.535 102.434ZM368.737 101.342C370.585 101.342 371.705 102.7 371.887 103.988H370.599C370.417 103.092 369.647 102.462 368.653 102.462C367.533 102.462 366.483 103.344 366.483 105.234C366.483 107.138 367.533 108.062 368.653 108.062C369.731 108.062 370.473 107.334 370.655 106.55H371.971C371.705 107.964 370.375 109.182 368.611 109.182C366.441 109.182 365.097 107.544 365.097 105.248C365.097 103.008 366.511 101.342 368.737 101.342ZM378.79 102.574H376.214V109H374.94V102.574H372.364V101.468H378.79V102.574ZM380.634 105.262C380.634 107.278 381.726 108.062 382.888 108.062C384.05 108.062 385.142 107.194 385.142 105.262C385.142 103.246 384.05 102.462 382.888 102.462C381.726 102.462 380.634 103.204 380.634 105.262ZM382.888 101.342C384.638 101.342 386.5 102.532 386.5 105.262C386.5 107.992 384.638 109.182 382.888 109.182C381.138 109.182 379.276 107.992 379.276 105.262C379.276 102.532 381.138 101.342 382.888 101.342ZM393.26 109V103.316L389.368 109H388.094V101.468H389.368V107.152L393.26 101.468H394.534V109H393.26ZM404.925 101.468V109H403.679V102.952L401.257 109H400.347L397.939 103.036V109H396.693V101.468H398.513L400.851 107.264L403.105 101.468H404.925ZM413.664 105.654H407.868C407.91 107.278 409.086 108.062 410.192 108.062C411.312 108.062 411.928 107.558 412.25 106.816H413.566C413.23 108.104 412.026 109.182 410.192 109.182C407.812 109.182 406.496 107.474 406.496 105.248C406.496 102.854 408.092 101.342 410.15 101.342C412.46 101.342 413.818 103.26 413.664 105.654ZM410.15 102.434C409.03 102.434 407.994 103.05 407.882 104.562H412.32C412.278 103.498 411.508 102.434 410.15 102.434ZM421.504 109H420.23V105.71H416.506V109H415.232V101.468H416.506V104.604H420.23V101.468H421.504V109ZM428.82 109V103.316L424.928 109H423.654V101.468H424.928V107.152L428.82 101.468H430.094V109H428.82ZM438.834 105.654H433.038C433.08 107.278 434.256 108.062 435.362 108.062C436.482 108.062 437.098 107.558 437.42 106.816H438.736C438.4 108.104 437.196 109.182 435.362 109.182C432.982 109.182 431.666 107.474 431.666 105.248C431.666 102.854 433.262 101.342 435.32 101.342C437.63 101.342 438.988 103.26 438.834 105.654ZM435.32 102.434C434.2 102.434 433.164 103.05 433.052 104.562H437.49C437.448 103.498 436.678 102.434 435.32 102.434Z" fill="#5A5A5A"/>
<path d="M446.916 109.182C444.886 109.182 443.206 107.74 443.206 104.73V104.198C443.248 101.468 444.046 99.592 447.126 99.186L449.954 98.808V100.362L447.182 100.768C445.74 100.992 445.026 101.468 444.718 103.218C445.278 102.322 446.258 101.916 447.28 101.916C449.058 101.916 450.612 103.134 450.612 105.486C450.612 107.908 448.834 109.182 446.916 109.182ZM446.916 107.67C447.924 107.67 448.652 106.942 448.652 105.486C448.652 104.016 447.868 103.316 446.93 103.316C445.978 103.316 445.138 104.002 445.138 105.486C445.138 106.886 445.908 107.67 446.916 107.67ZM458.936 105.766H453.378C453.49 107.054 454.358 107.684 455.282 107.684C455.884 107.684 456.472 107.474 456.864 106.816H458.852C458.446 107.936 457.354 109.182 455.296 109.182C452.874 109.182 451.46 107.376 451.46 105.206C451.46 102.966 453.014 101.3 455.24 101.3C457.564 101.3 459.006 103.106 458.936 105.766ZM455.226 102.714C454.498 102.714 453.56 103.162 453.406 104.436H456.976C456.934 103.162 456.038 102.714 455.226 102.714ZM463.247 109.182C461.525 109.182 459.985 108.468 459.691 106.452H461.553C461.651 107.236 462.239 107.782 463.303 107.782C464.241 107.782 464.801 107.404 464.801 106.788C464.801 106.074 464.297 105.808 463.415 105.808H462.295V104.478H463.331C464.045 104.478 464.535 104.198 464.535 103.638C464.535 103.092 464.087 102.658 463.191 102.658C462.351 102.658 461.777 103.148 461.679 103.988H459.817C460.083 102.112 461.637 101.258 463.303 101.258C465.025 101.258 466.425 101.916 466.425 103.442C466.425 104.156 466.061 104.674 465.347 104.996C466.187 105.234 466.677 105.752 466.677 106.746C466.677 108.426 465.207 109.182 463.247 109.182ZM350.158 117.3C351.74 117.3 353.308 118.182 353.574 120.044H351.726C351.572 119.316 350.9 118.798 350.158 118.798C349.15 118.798 348.352 119.652 348.352 121.22C348.352 122.802 349.108 123.684 350.172 123.684C350.844 123.684 351.53 123.334 351.796 122.438H353.644C353.196 124.496 351.642 125.182 350.074 125.182C347.82 125.182 346.378 123.53 346.378 121.248C346.378 118.952 347.904 117.3 350.158 117.3ZM355.226 127.45H354.414V125.966H355.142C355.786 125.966 356.066 125.98 356.402 125.182L356.486 124.972L353.602 117.468H355.716L357.424 122.9L359.174 117.468H361.134L358.376 124.776C357.48 127.114 357.102 127.45 355.226 127.45ZM373.566 126.75H371.774V125H362.128V117.468H364.06V123.474H366.3V117.468H368.232V123.474H370.472V117.468H372.404V123.558H373.566V126.75ZM381.594 121.766H376.036C376.148 123.054 377.016 123.684 377.94 123.684C378.542 123.684 379.13 123.474 379.522 122.816H381.51C381.104 123.936 380.012 125.182 377.954 125.182C375.532 125.182 374.118 123.376 374.118 121.206C374.118 118.966 375.672 117.3 377.898 117.3C380.222 117.3 381.664 119.106 381.594 121.766ZM377.884 118.714C377.156 118.714 376.218 119.162 376.064 120.436H379.634C379.592 119.162 378.696 118.714 377.884 118.714ZM386.334 117.3C387.916 117.3 389.484 118.182 389.75 120.044H387.902C387.748 119.316 387.076 118.798 386.334 118.798C385.326 118.798 384.528 119.652 384.528 121.22C384.528 122.802 385.284 123.684 386.348 123.684C387.02 123.684 387.706 123.334 387.972 122.438H389.82C389.372 124.496 387.818 125.182 386.25 125.182C383.996 125.182 382.554 123.53 382.554 121.248C382.554 118.952 384.08 117.3 386.334 117.3ZM394.369 125H392.437V118.994H389.987V117.468H396.819V118.994H394.369V125ZM401.867 125H397.989V117.468H401.699C403.309 117.468 404.583 117.86 404.583 119.428C404.583 120.17 404.261 120.688 403.631 120.982C404.359 121.22 404.891 121.752 404.891 122.704C404.891 124.356 403.617 125 401.867 125ZM399.921 121.766V123.488H401.671C402.567 123.488 403.015 123.194 403.015 122.62C403.015 122.018 402.553 121.766 401.657 121.766H399.921ZM399.921 118.98V120.506H401.559C402.287 120.506 402.721 120.268 402.721 119.708C402.721 119.134 402.287 118.98 401.545 118.98H399.921ZM408.343 125H406.411V117.468H408.301V122.606L411.619 117.468H413.551V125H411.661V120.044L408.343 125ZM419.115 125H417.183V118.994H414.733V117.468H421.565V118.994H419.115V125ZM429.459 121.766H423.901C424.013 123.054 424.881 123.684 425.805 123.684C426.407 123.684 426.995 123.474 427.387 122.816H429.375C428.969 123.936 427.877 125.182 425.819 125.182C423.397 125.182 421.983 123.376 421.983 121.206C421.983 118.966 423.537 117.3 425.763 117.3C428.087 117.3 429.529 119.106 429.459 121.766ZM425.749 118.714C425.021 118.714 424.083 119.162 423.929 120.436H427.499C427.457 119.162 426.561 118.714 425.749 118.714ZM430.48 125H430.116V123.474H430.298C431.082 123.474 431.39 122.55 431.544 119.834L431.684 117.468H437.368V125H435.436V118.994H433.49L433.378 120.786C433.21 123.628 432.342 125 430.48 125ZM442.862 125H439.306V117.468H441.238V119.918H442.792C444.92 119.918 445.816 120.73 445.816 122.424C445.816 124.356 444.836 125 442.862 125ZM441.238 121.43V123.488H442.624C443.52 123.488 443.954 123.194 443.954 122.396C443.954 121.682 443.506 121.43 442.61 121.43H441.238ZM449.099 125H447.167V117.468H449.099V120.38H452.235V117.468H454.167V125H452.235V121.906H449.099V125ZM459.273 118.812C458.209 118.812 457.453 119.666 457.453 121.248C457.453 122.83 458.209 123.67 459.273 123.67C460.337 123.67 461.093 122.83 461.093 121.248C461.093 119.666 460.337 118.812 459.273 118.812ZM459.273 125.182C457.369 125.182 455.493 123.88 455.493 121.248C455.493 118.602 457.369 117.3 459.273 117.3C461.177 117.3 463.053 118.602 463.053 121.248C463.053 123.88 461.177 125.182 459.273 125.182ZM466.312 125H464.38V117.468H469.826V118.994H466.312V125ZM473.929 118.812C472.865 118.812 472.109 119.666 472.109 121.248C472.109 122.83 472.865 123.67 473.929 123.67C474.993 123.67 475.749 122.83 475.749 121.248C475.749 119.666 474.993 118.812 473.929 118.812ZM473.929 125.182C472.025 125.182 470.149 123.88 470.149 121.248C470.149 118.602 472.025 117.3 473.929 117.3C475.833 117.3 477.709 118.602 477.709 121.248C477.709 123.88 475.833 125.182 473.929 125.182Z" fill="#1E1E1E"/>
<path d="M28.876 93H27.448V84.082H23.864L23.794 85.846C23.612 90.256 22.926 93 20.84 93H20.42V91.768H20.63C21.974 91.768 22.324 88.884 22.436 85.412L22.506 82.85H28.876V93ZM36.4706 93V87.316L32.5786 93H31.3046V85.468H32.5786V91.152L36.4706 85.468H37.7446V93H36.4706ZM45.4482 93H44.1742V89.948C43.2922 90.158 42.6202 90.256 41.9342 90.256C40.3522 90.256 39.5262 89.556 39.5262 87.918V85.468H40.8002V87.652C40.8002 88.772 41.3322 89.15 42.3962 89.15C42.8862 89.15 43.4742 89.066 44.1742 88.898V85.468H45.4482V93ZM53.8734 93H52.5994V89.71H48.8754V93H47.6014V85.468H48.8754V88.604H52.5994V85.468H53.8734V93ZM56.8213 89.262C56.8213 91.278 57.9133 92.062 59.0753 92.062C60.2373 92.062 61.3293 91.194 61.3293 89.262C61.3293 87.246 60.2373 86.462 59.0753 86.462C57.9133 86.462 56.8213 87.204 56.8213 89.262ZM59.0753 85.342C60.8253 85.342 62.6873 86.532 62.6873 89.262C62.6873 91.992 60.8253 93.182 59.0753 93.182C57.3253 93.182 55.4633 91.992 55.4633 89.262C55.4633 86.532 57.3253 85.342 59.0753 85.342ZM70.9705 89.654H65.1745C65.2165 91.278 66.3925 92.062 67.4985 92.062C68.6185 92.062 69.2345 91.558 69.5565 90.816H70.8725C70.5365 92.104 69.3325 93.182 67.4985 93.182C65.1185 93.182 63.8025 91.474 63.8025 89.248C63.8025 86.854 65.3985 85.342 67.4565 85.342C69.7665 85.342 71.1245 87.26 70.9705 89.654ZM67.4565 86.434C66.3365 86.434 65.3005 87.05 65.1885 88.562H69.6265C69.5845 87.498 68.8145 86.434 67.4565 86.434ZM29.31 101.468V109H28.064V102.952L25.642 109H24.732L22.324 103.036V109H21.078V101.468H22.898L25.236 107.264L27.49 101.468H29.31ZM38.0486 105.654H32.2526C32.2946 107.278 33.4706 108.062 34.5766 108.062C35.6966 108.062 36.3126 107.558 36.6346 106.816H37.9506C37.6146 108.104 36.4106 109.182 34.5766 109.182C32.1966 109.182 30.8806 107.474 30.8806 105.248C30.8806 102.854 32.4766 101.342 34.5346 101.342C36.8446 101.342 38.2026 103.26 38.0486 105.654ZM34.5346 102.434C33.4146 102.434 32.3786 103.05 32.2666 104.562H36.7046C36.6626 103.498 35.8926 102.434 34.5346 102.434ZM42.7374 101.342C44.5854 101.342 45.7054 102.7 45.8874 103.988H44.5994C44.4174 103.092 43.6474 102.462 42.6534 102.462C41.5334 102.462 40.4834 103.344 40.4834 105.234C40.4834 107.138 41.5334 108.062 42.6534 108.062C43.7314 108.062 44.4734 107.334 44.6554 106.55H45.9714C45.7054 107.964 44.3754 109.182 42.6114 109.182C40.4414 109.182 39.0974 107.544 39.0974 105.248C39.0974 103.008 40.5114 101.342 42.7374 101.342ZM52.7903 102.574H50.2143V109H48.9403V102.574H46.3643V101.468H52.7903V102.574ZM54.6338 105.262C54.6338 107.278 55.7258 108.062 56.8878 108.062C58.0498 108.062 59.1418 107.194 59.1418 105.262C59.1418 103.246 58.0498 102.462 56.8878 102.462C55.7258 102.462 54.6338 103.204 54.6338 105.262ZM56.8878 101.342C58.6378 101.342 60.4998 102.532 60.4998 105.262C60.4998 107.992 58.6378 109.182 56.8878 109.182C55.1378 109.182 53.2758 107.992 53.2758 105.262C53.2758 102.532 55.1378 101.342 56.8878 101.342ZM67.2596 109V103.316L63.3676 109H62.0936V101.468H63.3676V107.152L67.2596 101.468H68.5336V109H67.2596ZM78.9252 101.468V109H77.6792V102.952L75.2572 109H74.3472L71.9392 103.036V109H70.6932V101.468H72.5132L74.8512 107.264L77.1052 101.468H78.9252ZM87.6639 105.654H81.8679C81.9099 107.278 83.0859 108.062 84.1919 108.062C85.3119 108.062 85.9279 107.558 86.2499 106.816H87.5659C87.2299 108.104 86.0259 109.182 84.1919 109.182C81.8119 109.182 80.4959 107.474 80.4959 105.248C80.4959 102.854 82.0919 101.342 84.1499 101.342C86.4599 101.342 87.8179 103.26 87.6639 105.654ZM84.1499 102.434C83.0299 102.434 81.9939 103.05 81.8819 104.562H86.3199C86.2779 103.498 85.5079 102.434 84.1499 102.434ZM95.5043 109H94.2303V105.71H90.5063V109H89.2323V101.468H90.5063V104.604H94.2303V101.468H95.5043V109ZM102.82 109V103.316L98.9282 109H97.6542V101.468H98.9282V107.152L102.82 101.468H104.094V109H102.82ZM112.834 105.654H107.038C107.08 107.278 108.256 108.062 109.362 108.062C110.482 108.062 111.098 107.558 111.42 106.816H112.736C112.4 108.104 111.196 109.182 109.362 109.182C106.982 109.182 105.666 107.474 105.666 105.248C105.666 102.854 107.262 101.342 109.32 101.342C111.63 101.342 112.988 103.26 112.834 105.654ZM109.32 102.434C108.2 102.434 107.164 103.05 107.052 104.562H111.49C111.448 103.498 110.678 102.434 109.32 102.434Z" fill="#5A5A5A"/>
</svg>
