<svg width="180" height="64" viewBox="0 0 180 64" fill="none" xmlns="http://www.w3.org/2000/svg">
<rect x="78.5" y="27.5" width="89" height="36" rx="18" stroke="#1E1E1E"/>
<rect y="27" width="73" height="37" rx="18.5" fill="#0076DE"/>
<path d="M20.9 54V38.075H15V35.875H29.35V38.075H23.45V54H20.9ZM32.9422 35.875V42.575C33.7172 41.3 35.0172 40.325 37.2922 40.325C40.5422 40.325 41.7172 42.425 41.7172 45.5V54H39.4422V46.175C39.4422 44.1 39.0922 42.3 36.4922 42.3C34.2922 42.3 32.9422 43.8 32.9422 46.7V54H30.6672V35.875H32.9422ZM56.9953 48.025H46.6453C46.7203 50.925 48.8203 52.325 50.7953 52.325C52.7953 52.325 53.8953 51.425 54.4703 50.1H56.8203C56.2203 52.4 54.0703 54.325 50.7953 54.325C46.5453 54.325 44.1953 51.275 44.1953 47.3C44.1953 43.025 47.0453 40.325 50.7203 40.325C54.8453 40.325 57.2703 43.75 56.9953 48.025ZM50.7203 42.275C48.7203 42.275 46.8703 43.375 46.6703 46.075H54.5953C54.5203 44.175 53.1453 42.275 50.7203 42.275Z" fill="white"/>
<path d="M94.8 40.55H97.075V42.675C97.9 41.25 99.3 40.325 101.475 40.325C104.575 40.325 107.225 42.925 107.225 47.325C107.225 51.8 104.575 54.325 101.475 54.325C99.3 54.325 97.9 53.4 97.075 51.975V58.375H94.8V40.55ZM96.975 47.325C96.975 50.875 98.875 52.375 100.9 52.375C103.225 52.375 104.75 50.55 104.75 47.325C104.75 44.1 103.225 42.275 100.9 42.275C98.875 42.275 96.975 43.775 96.975 47.325ZM109.888 40.55H112.163V54H109.888V40.55ZM109.888 35.875H112.163V38.625H109.888V35.875ZM114.797 54V52.025L122.572 42.525H115.297V40.55H125.222V42.525L117.472 52.025H125.372V54H114.797ZM127.004 54V52.025L134.779 42.525H127.504V40.55H137.429V42.525L129.679 52.025H137.579V54H127.004ZM148.539 48.375V47.525C144.414 47.925 141.789 48.55 141.789 50.4C141.789 51.675 142.764 52.525 144.389 52.525C146.514 52.525 148.539 51.55 148.539 48.375ZM143.889 54.325C141.364 54.325 139.264 52.925 139.264 50.45C139.264 47.275 142.864 46.325 148.364 45.725V45.4C148.364 42.925 147.014 42.125 145.314 42.125C143.414 42.125 142.339 43.125 142.239 44.8H139.889C140.089 41.9 142.689 40.275 145.289 40.275C149.014 40.275 150.664 42.025 150.639 45.825L150.614 48.925C150.589 51.2 150.689 52.725 150.964 54H148.664C148.589 53.5 148.514 52.95 148.489 52.15C147.664 53.55 146.289 54.325 143.889 54.325Z" fill="black"/>
<path d="M177.5 54H174.625V51.125H177.5V54Z" fill="black"/>
<path d="M2.464 10.918C2.464 13.396 3.794 14.726 5.474 14.726C7.154 14.726 8.484 13.396 8.484 10.918C8.484 8.454 7.154 7.124 5.474 7.124C3.794 7.124 2.464 8.454 2.464 10.918ZM10.318 10.918C10.318 14.04 8.456 16.182 5.474 16.182C2.492 16.182 0.63 14.04 0.63 10.918C0.63 7.782 2.492 5.668 5.474 5.668C8.456 5.668 10.318 7.782 10.318 10.918ZM18.5112 8.468V16H16.8452V9.784H13.6252V16H11.9592V8.468H18.5112ZM22.0574 12.234C22.0574 13.97 22.9114 14.824 24.0034 14.824C25.1794 14.824 25.8654 13.844 25.8654 12.234C25.8654 10.652 25.1794 9.658 24.0034 9.658C22.9114 9.658 22.0574 10.498 22.0574 12.234ZM20.4614 8.468H22.1274V9.476C22.5754 8.734 23.3594 8.3 24.3674 8.3C26.2154 8.3 27.6014 9.826 27.6014 12.234C27.6014 14.656 26.2154 16.182 24.3674 16.182C23.3594 16.182 22.5754 15.748 22.1274 15.006V18.45H20.4614V8.468ZM35.8514 12.71H30.2374C30.3494 14.11 31.3294 14.796 32.2814 14.796C33.1634 14.796 33.8354 14.46 34.1294 13.746H35.7674C35.4314 14.95 34.2834 16.182 32.3514 16.182C29.9294 16.182 28.5434 14.348 28.5434 12.178C28.5434 9.91 30.0974 8.3 32.2394 8.3C34.5494 8.3 36.0054 10.19 35.8514 12.71ZM32.2394 9.602C31.4554 9.602 30.3914 10.078 30.2374 11.492H34.1574C34.1154 10.316 33.2194 9.602 32.2394 9.602ZM44.8965 14.698V17.778H43.3845V16H37.8825V17.778H36.3705V14.698H36.7765C37.6165 14.698 38.0505 13.606 38.1765 10.862L38.2885 8.468H43.7765V14.698H44.8965ZM42.1105 14.698V9.784H39.7585L39.6885 11.058C39.5765 13.06 39.3105 14.124 38.7085 14.698H42.1105ZM52.7772 12.71H47.1632C47.2752 14.11 48.2552 14.796 49.2072 14.796C50.0892 14.796 50.7612 14.46 51.0552 13.746H52.6932C52.3572 14.95 51.2092 16.182 49.2772 16.182C46.8552 16.182 45.4692 14.348 45.4692 12.178C45.4692 9.91 47.0232 8.3 49.1652 8.3C51.4752 8.3 52.9312 10.19 52.7772 12.71ZM49.1652 9.602C48.3812 9.602 47.3172 10.078 47.1632 11.492H51.0832C51.0412 10.316 50.1452 9.602 49.1652 9.602ZM60.5886 16H58.9226V9.784H56.7106L56.5986 11.408C56.3886 14.558 55.5486 16 53.8126 16H53.5046V14.684H53.6726C54.2886 14.684 54.8626 14.026 55.0166 11.17L55.1566 8.468H60.5886V16ZM69.5158 8.468V16H67.8498V10.778L64.2658 16H62.5998V8.468H64.2658V13.718L67.8498 8.468H69.5158ZM77.3968 9.784H74.8348V16H73.1688V9.784H70.5928V8.468H77.3968V9.784ZM85.1385 12.71H79.5245C79.6365 14.11 80.6165 14.796 81.5685 14.796C82.4505 14.796 83.1225 14.46 83.4165 13.746H85.0545C84.7185 14.95 83.5705 16.182 81.6385 16.182C79.2165 16.182 77.8305 14.348 77.8305 12.178C77.8305 9.91 79.3845 8.3 81.5265 8.3C83.8365 8.3 85.2925 10.19 85.1385 12.71ZM81.5265 9.602C80.7425 9.602 79.6785 10.078 79.5245 11.492H83.4445C83.4025 10.316 82.5065 9.602 81.5265 9.602ZM92.9499 16H91.2839V9.784H89.0719L88.9599 11.408C88.7499 14.558 87.9099 16 86.1739 16H85.8659V14.684H86.0339C86.6499 14.684 87.2239 14.026 87.3779 11.17L87.5179 8.468H92.9499V16ZM96.6271 11.002H98.1811C100.253 11.002 101.121 11.786 101.121 13.452C101.121 15.356 100.085 16 98.2091 16H94.9611V8.468H96.6271V11.002ZM96.6271 14.684H97.9851C98.9791 14.684 99.4691 14.348 99.4691 13.438C99.4691 12.598 98.9791 12.318 97.9711 12.318H96.6271V14.684ZM112.929 14.894V17.666H111.697V16H106.181V17.666H104.949V14.894H105.285C106.139 14.894 106.587 13.774 106.699 10.89L106.797 8.468H111.879V14.894H112.929ZM110.605 14.894V9.574H108.029L107.959 11.016C107.847 13.242 107.525 14.334 106.937 14.894H110.605ZM120.163 8.468V16H118.889V9.574H116.355L116.243 11.394C116.061 14.432 115.403 16 113.653 16H113.415V14.894H113.555C114.227 14.894 114.871 14.166 115.025 11.044L115.137 8.468H120.163ZM127.892 8.468V16H126.618V13.326H125.288C125.218 13.326 125.148 13.326 125.078 13.312L123.034 16H121.452L123.734 12.962C122.782 12.64 122.138 11.912 122.138 10.792C122.138 9.238 123.202 8.468 124.938 8.468H127.892ZM126.618 9.574H125.008C124.07 9.574 123.44 9.966 123.44 10.876C123.44 11.898 124.238 12.22 125.12 12.22H126.618V9.574ZM133.297 8.468H134.571V9.658C135.033 8.86 135.817 8.342 137.035 8.342C138.771 8.342 140.255 9.798 140.255 12.262C140.255 14.768 138.771 16.182 137.035 16.182C135.817 16.182 135.033 15.664 134.571 14.866V18.45H133.297V8.468ZM134.515 12.262C134.515 14.25 135.579 15.09 136.713 15.09C138.015 15.09 138.869 14.068 138.869 12.262C138.869 10.456 138.015 9.434 136.713 9.434C135.579 9.434 134.515 10.274 134.515 12.262ZM141.746 8.468H143.02V16H141.746V8.468ZM141.746 5.85H143.02V7.39H141.746V5.85ZM144.495 16V14.894L148.849 9.574H144.775V8.468H150.333V9.574L145.993 14.894H150.417V16H144.495ZM151.331 16V14.894L155.685 9.574H151.611V8.468H157.169V9.574L152.829 14.894H157.253V16H151.331ZM163.391 12.85V12.374C161.081 12.598 159.611 12.948 159.611 13.984C159.611 14.698 160.157 15.174 161.067 15.174C162.257 15.174 163.391 14.628 163.391 12.85ZM160.787 16.182C159.373 16.182 158.197 15.398 158.197 14.012C158.197 12.234 160.213 11.702 163.293 11.366V11.184C163.293 9.798 162.537 9.35 161.585 9.35C160.521 9.35 159.919 9.91 159.863 10.848H158.547C158.659 9.224 160.115 8.314 161.571 8.314C163.657 8.314 164.581 9.294 164.567 11.422L164.553 13.158C164.539 14.432 164.595 15.286 164.749 16H163.461C163.419 15.72 163.377 15.412 163.363 14.964C162.901 15.748 162.131 16.182 160.787 16.182Z" fill="#0076DE"/>
</svg>
