<svg width="320" height="96" viewBox="0 0 320 96" fill="none" xmlns="http://www.w3.org/2000/svg">
<rect x="227.5" y="28.5" width="80" height="36" rx="18" stroke="#1E1E1E"/>
<path d="M0 46.5C0 35.7304 8.73045 27 19.5 27H202.5C213.27 27 222 35.7304 222 46.5V46.5C222 57.2696 213.27 66 202.5 66H19.5C8.73044 66 0 57.2696 0 46.5V46.5Z" fill="#0076DE"/>
<rect x="1" y="28" width="73" height="37" rx="18.5" fill="#E0671D"/>
<path d="M21.9 55V39.075H16V36.875H30.35V39.075H24.45V55H21.9ZM33.9422 36.875V43.575C34.7172 42.3 36.0172 41.325 38.2922 41.325C41.5422 41.325 42.7172 43.425 42.7172 46.5V55H40.4422V47.175C40.4422 45.1 40.0922 43.3 37.4922 43.3C35.2922 43.3 33.9422 44.8 33.9422 47.7V55H31.6672V36.875H33.9422ZM57.9953 49.025H47.6453C47.7203 51.925 49.8203 53.325 51.7953 53.325C53.7953 53.325 54.8953 52.425 55.4703 51.1H57.8203C57.2203 53.4 55.0703 55.325 51.7953 55.325C47.5453 55.325 45.1953 52.275 45.1953 48.3C45.1953 44.025 48.0453 41.325 51.7203 41.325C55.8453 41.325 58.2703 44.75 57.9953 49.025ZM51.7203 43.275C49.7203 43.275 47.8703 44.375 47.6703 47.075H55.5953C55.5203 45.175 54.1453 43.275 51.7203 43.275Z" fill="white"/>
<path d="M93.075 36.875V55H90.8V36.875H93.075ZM96.6838 41.55H98.9588V55H96.6838V41.55ZM96.6838 36.875H98.9588V39.625H96.6838V36.875ZM103.218 41.55V38.175H105.493V41.55H108.043V43.375H105.493V51.35C105.493 52.75 105.593 53.1 106.893 53.1H108.043V55H106.393C103.818 55 103.218 54.425 103.218 51.625V43.375H101.093V41.55H103.218ZM111.347 41.55V38.175H113.622V41.55H116.172V43.375H113.622V51.35C113.622 52.75 113.722 53.1 115.022 53.1H116.172V55H114.522C111.947 55 111.347 54.425 111.347 51.625V43.375H109.222V41.55H111.347ZM121.346 36.875V55H119.071V36.875H121.346ZM136.83 49.025H126.48C126.555 51.925 128.655 53.325 130.63 53.325C132.63 53.325 133.73 52.425 134.305 51.1H136.655C136.055 53.4 133.905 55.325 130.63 55.325C126.38 55.325 124.03 52.275 124.03 48.3C124.03 44.025 126.88 41.325 130.555 41.325C134.68 41.325 137.105 44.75 136.83 49.025ZM130.555 43.275C128.555 43.275 126.705 44.375 126.505 47.075H134.43C134.355 45.175 132.98 43.275 130.555 43.275ZM147.589 48.325C147.589 51.875 149.489 53.375 151.514 53.375C153.839 53.375 155.364 51.55 155.364 48.325C155.364 45.1 153.839 43.275 151.514 43.275C149.489 43.275 147.589 44.775 147.589 48.325ZM145.414 36.875H147.689V43.675C148.514 42.25 149.914 41.325 152.089 41.325C155.189 41.325 157.839 43.925 157.839 48.325C157.839 52.8 155.189 55.325 152.089 55.325C149.914 55.325 148.514 54.4 147.689 52.975V55H145.414V36.875ZM160.429 41.55H162.704V55H160.429V41.55ZM160.429 36.875H162.704V39.625H160.429V36.875ZM173.013 41.5V43.925C172.538 43.85 172.113 43.825 171.738 43.825C169.638 43.825 168.588 44.975 168.588 47.95V55H166.313V41.55H168.538V43.9C169.213 42.375 170.563 41.55 172.338 41.475C172.563 41.475 172.738 41.475 173.013 41.5ZM184.18 43.675V36.875H186.455V55H184.18V52.975C183.355 54.4 181.955 55.325 179.78 55.325C176.68 55.325 174.03 52.8 174.03 48.325C174.03 43.925 176.68 41.325 179.78 41.325C181.955 41.325 183.355 42.25 184.18 43.675ZM184.28 48.325C184.28 44.775 182.38 43.275 180.355 43.275C178.03 43.275 176.505 45.1 176.505 48.325C176.505 51.55 178.03 53.375 180.355 53.375C182.38 53.375 184.28 51.875 184.28 48.325ZM189.868 39.75V36.875H192.743V39.95L191.218 43.225H189.768L191.093 39.75H189.868ZM205.001 45.475H202.626C202.251 43.875 201.051 43.25 199.451 43.25C198.126 43.25 196.626 43.725 196.626 44.95C196.626 46.025 197.376 46.5 198.676 46.775L200.576 47.15C203.026 47.6 205.176 48.575 205.176 51.15C205.176 53.825 202.776 55.325 199.701 55.325C196.176 55.325 194.201 53 193.926 50.65H196.326C196.701 52.375 197.751 53.4 199.751 53.4C201.476 53.4 202.876 52.675 202.876 51.4C202.876 50.025 201.601 49.5 200.151 49.175L198.151 48.775C196.326 48.375 194.326 47.575 194.326 45.05C194.326 42.675 196.726 41.3 199.701 41.3C202.626 41.3 204.576 42.9 205.001 45.475Z" fill="white"/>
<path d="M246.075 41.55V43.575C246.85 42.3 248.15 41.325 250.425 41.325C253.675 41.325 254.85 43.425 254.85 46.5V55H252.575V47.175C252.575 45.1 252.225 43.3 249.625 43.3C247.425 43.3 246.075 44.8 246.075 47.7V55H243.8V41.55H246.075ZM270.128 49.025H259.778C259.853 51.925 261.953 53.325 263.928 53.325C265.928 53.325 267.028 52.425 267.603 51.1H269.953C269.353 53.4 267.203 55.325 263.928 55.325C259.678 55.325 257.328 52.275 257.328 48.3C257.328 44.025 260.178 41.325 263.853 41.325C267.978 41.325 270.403 44.75 270.128 49.025ZM263.853 43.275C261.853 43.275 260.003 44.375 259.803 47.075H267.728C267.653 45.175 266.278 43.275 263.853 43.275ZM282.903 45.475H280.528C280.153 43.875 278.953 43.25 277.353 43.25C276.028 43.25 274.528 43.725 274.528 44.95C274.528 46.025 275.278 46.5 276.578 46.775L278.478 47.15C280.928 47.6 283.078 48.575 283.078 51.15C283.078 53.825 280.678 55.325 277.603 55.325C274.078 55.325 272.103 53 271.828 50.65H274.228C274.603 52.375 275.653 53.4 277.653 53.4C279.378 53.4 280.778 52.675 280.778 51.4C280.778 50.025 279.503 49.5 278.053 49.175L276.053 48.775C274.228 48.375 272.228 47.575 272.228 45.05C272.228 42.675 274.628 41.3 277.603 41.3C280.528 41.3 282.478 42.9 282.903 45.475ZM286.613 41.55V38.175H288.888V41.55H291.438V43.375H288.888V51.35C288.888 52.75 288.988 53.1 290.288 53.1H291.438V55H289.788C287.213 55 286.613 54.425 286.613 51.625V43.375H284.488V41.55H286.613Z" fill="black"/>
<path d="M317.5 55H314.625V52.125H317.5V55Z" fill="black"/>
<path d="M2.464 10.918C2.464 13.396 3.794 14.726 5.474 14.726C7.154 14.726 8.484 13.396 8.484 10.918C8.484 8.454 7.154 7.124 5.474 7.124C3.794 7.124 2.464 8.454 2.464 10.918ZM10.318 10.918C10.318 14.04 8.456 16.182 5.474 16.182C2.492 16.182 0.63 14.04 0.63 10.918C0.63 7.782 2.492 5.668 5.474 5.668C8.456 5.668 10.318 7.782 10.318 10.918ZM18.5112 8.468V16H16.8452V9.784H13.6252V16H11.9592V8.468H18.5112ZM22.0574 12.234C22.0574 13.97 22.9114 14.824 24.0034 14.824C25.1794 14.824 25.8654 13.844 25.8654 12.234C25.8654 10.652 25.1794 9.658 24.0034 9.658C22.9114 9.658 22.0574 10.498 22.0574 12.234ZM20.4614 8.468H22.1274V9.476C22.5754 8.734 23.3594 8.3 24.3674 8.3C26.2154 8.3 27.6014 9.826 27.6014 12.234C27.6014 14.656 26.2154 16.182 24.3674 16.182C23.3594 16.182 22.5754 15.748 22.1274 15.006V18.45H20.4614V8.468ZM35.8514 12.71H30.2374C30.3494 14.11 31.3294 14.796 32.2814 14.796C33.1634 14.796 33.8354 14.46 34.1294 13.746H35.7674C35.4314 14.95 34.2834 16.182 32.3514 16.182C29.9294 16.182 28.5434 14.348 28.5434 12.178C28.5434 9.91 30.0974 8.3 32.2394 8.3C34.5494 8.3 36.0054 10.19 35.8514 12.71ZM32.2394 9.602C31.4554 9.602 30.3914 10.078 30.2374 11.492H34.1574C34.1154 10.316 33.2194 9.602 32.2394 9.602ZM44.8965 14.698V17.778H43.3845V16H37.8825V17.778H36.3705V14.698H36.7765C37.6165 14.698 38.0505 13.606 38.1765 10.862L38.2885 8.468H43.7765V14.698H44.8965ZM42.1105 14.698V9.784H39.7585L39.6885 11.058C39.5765 13.06 39.3105 14.124 38.7085 14.698H42.1105ZM52.7772 12.71H47.1632C47.2752 14.11 48.2552 14.796 49.2072 14.796C50.0892 14.796 50.7612 14.46 51.0552 13.746H52.6932C52.3572 14.95 51.2092 16.182 49.2772 16.182C46.8552 16.182 45.4692 14.348 45.4692 12.178C45.4692 9.91 47.0232 8.3 49.1652 8.3C51.4752 8.3 52.9312 10.19 52.7772 12.71ZM49.1652 9.602C48.3812 9.602 47.3172 10.078 47.1632 11.492H51.0832C51.0412 10.316 50.1452 9.602 49.1652 9.602ZM60.5886 16H58.9226V9.784H56.7106L56.5986 11.408C56.3886 14.558 55.5486 16 53.8126 16H53.5046V14.684H53.6726C54.2886 14.684 54.8626 14.026 55.0166 11.17L55.1566 8.468H60.5886V16ZM69.5158 8.468V16H67.8498V10.778L64.2658 16H62.5998V8.468H64.2658V13.718L67.8498 8.468H69.5158ZM77.3968 9.784H74.8348V16H73.1688V9.784H70.5928V8.468H77.3968V9.784ZM85.1385 12.71H79.5245C79.6365 14.11 80.6165 14.796 81.5685 14.796C82.4505 14.796 83.1225 14.46 83.4165 13.746H85.0545C84.7185 14.95 83.5705 16.182 81.6385 16.182C79.2165 16.182 77.8305 14.348 77.8305 12.178C77.8305 9.91 79.3845 8.3 81.5265 8.3C83.8365 8.3 85.2925 10.19 85.1385 12.71ZM81.5265 9.602C80.7425 9.602 79.6785 10.078 79.5245 11.492H83.4445C83.4025 10.316 82.5065 9.602 81.5265 9.602ZM92.9499 16H91.2839V9.784H89.0719L88.9599 11.408C88.7499 14.558 87.9099 16 86.1739 16H85.8659V14.684H86.0339C86.6499 14.684 87.2239 14.026 87.3779 11.17L87.5179 8.468H92.9499V16ZM96.6271 11.002H98.1811C100.253 11.002 101.121 11.786 101.121 13.452C101.121 15.356 100.085 16 98.2091 16H94.9611V8.468H96.6271V11.002ZM96.6271 14.684H97.9851C98.9791 14.684 99.4691 14.348 99.4691 13.438C99.4691 12.598 98.9791 12.318 97.9711 12.318H96.6271V14.684ZM112.929 14.894V17.666H111.697V16H106.181V17.666H104.949V14.894H105.285C106.139 14.894 106.587 13.774 106.699 10.89L106.797 8.468H111.879V14.894H112.929ZM110.605 14.894V9.574H108.029L107.959 11.016C107.847 13.242 107.525 14.334 106.937 14.894H110.605ZM120.163 8.468V16H118.889V9.574H116.355L116.243 11.394C116.061 14.432 115.403 16 113.653 16H113.415V14.894H113.555C114.227 14.894 114.871 14.166 115.025 11.044L115.137 8.468H120.163ZM127.892 8.468V16H126.618V13.326H125.288C125.218 13.326 125.148 13.326 125.078 13.312L123.034 16H121.452L123.734 12.962C122.782 12.64 122.138 11.912 122.138 10.792C122.138 9.238 123.202 8.468 124.938 8.468H127.892ZM126.618 9.574H125.008C124.07 9.574 123.44 9.966 123.44 10.876C123.44 11.898 124.238 12.22 125.12 12.22H126.618V9.574ZM134.571 5.85V16H133.297V5.85H134.571ZM136.592 8.468H137.866V16H136.592V8.468ZM136.592 5.85H137.866V7.39H136.592V5.85ZM140.251 8.468V6.578H141.525V8.468H142.953V9.49H141.525V13.956C141.525 14.74 141.581 14.936 142.309 14.936H142.953V16H142.029C140.587 16 140.251 15.678 140.251 14.11V9.49H139.061V8.468H140.251ZM144.804 8.468V6.578H146.078V8.468H147.506V9.49H146.078V13.956C146.078 14.74 146.134 14.936 146.862 14.936H147.506V16H146.582C145.14 16 144.804 15.678 144.804 14.11V9.49H143.614V8.468H144.804ZM150.403 5.85V16H149.129V5.85H150.403ZM159.074 12.654H153.278C153.32 14.278 154.496 15.062 155.602 15.062C156.722 15.062 157.338 14.558 157.66 13.816H158.976C158.64 15.104 157.436 16.182 155.602 16.182C153.222 16.182 151.906 14.474 151.906 12.248C151.906 9.854 153.502 8.342 155.56 8.342C157.87 8.342 159.228 10.26 159.074 12.654ZM155.56 9.434C154.44 9.434 153.404 10.05 153.292 11.562H157.73C157.688 10.498 156.918 9.434 155.56 9.434ZM165.099 12.262C165.099 14.25 166.163 15.09 167.297 15.09C168.599 15.09 169.453 14.068 169.453 12.262C169.453 10.456 168.599 9.434 167.297 9.434C166.163 9.434 165.099 10.274 165.099 12.262ZM163.881 5.85H165.155V9.658C165.617 8.86 166.401 8.342 167.619 8.342C169.355 8.342 170.839 9.798 170.839 12.262C170.839 14.768 169.355 16.182 167.619 16.182C166.401 16.182 165.617 15.664 165.155 14.866V16H163.881V5.85ZM172.289 8.468H173.563V16H172.289V8.468ZM172.289 5.85H173.563V7.39H172.289V5.85ZM179.336 8.44V9.798C179.07 9.756 178.832 9.742 178.622 9.742C177.446 9.742 176.858 10.386 176.858 12.052V16H175.584V8.468H176.83V9.784C177.208 8.93 177.964 8.468 178.958 8.426C179.084 8.426 179.182 8.426 179.336 8.44ZM185.59 9.658V5.85H186.864V16H185.59V14.866C185.128 15.664 184.344 16.182 183.126 16.182C181.39 16.182 179.906 14.768 179.906 12.262C179.906 9.798 181.39 8.342 183.126 8.342C184.344 8.342 185.128 8.86 185.59 9.658ZM185.646 12.262C185.646 10.274 184.582 9.434 183.448 9.434C182.146 9.434 181.292 10.456 181.292 12.262C181.292 14.068 182.146 15.09 183.448 15.09C184.582 15.09 185.646 14.25 185.646 12.262ZM188.775 7.46V5.85H190.385V7.572L189.531 9.406H188.719L189.461 7.46H188.775ZM197.25 10.666H195.92C195.71 9.77 195.038 9.42 194.142 9.42C193.4 9.42 192.56 9.686 192.56 10.372C192.56 10.974 192.98 11.24 193.708 11.394L194.772 11.604C196.144 11.856 197.348 12.402 197.348 13.844C197.348 15.342 196.004 16.182 194.282 16.182C192.308 16.182 191.202 14.88 191.048 13.564H192.392C192.602 14.53 193.19 15.104 194.31 15.104C195.276 15.104 196.06 14.698 196.06 13.984C196.06 13.214 195.346 12.92 194.534 12.738L193.414 12.514C192.392 12.29 191.272 11.842 191.272 10.428C191.272 9.098 192.616 8.328 194.282 8.328C195.92 8.328 197.012 9.224 197.25 10.666Z" fill="#E0671D"/>
<path d="M2.464 84.918C2.464 87.396 3.794 88.726 5.474 88.726C7.154 88.726 8.484 87.396 8.484 84.918C8.484 82.454 7.154 81.124 5.474 81.124C3.794 81.124 2.464 82.454 2.464 84.918ZM10.318 84.918C10.318 88.04 8.456 90.182 5.474 90.182C2.492 90.182 0.63 88.04 0.63 84.918C0.63 81.782 2.492 79.668 5.474 79.668C8.456 79.668 10.318 81.782 10.318 84.918ZM18.5112 82.468V90H16.8452V83.784H13.6252V90H11.9592V82.468H18.5112ZM22.0574 86.234C22.0574 87.97 22.9114 88.824 24.0034 88.824C25.1794 88.824 25.8654 87.844 25.8654 86.234C25.8654 84.652 25.1794 83.658 24.0034 83.658C22.9114 83.658 22.0574 84.498 22.0574 86.234ZM20.4614 82.468H22.1274V83.476C22.5754 82.734 23.3594 82.3 24.3674 82.3C26.2154 82.3 27.6014 83.826 27.6014 86.234C27.6014 88.656 26.2154 90.182 24.3674 90.182C23.3594 90.182 22.5754 89.748 22.1274 89.006V92.45H20.4614V82.468ZM35.8514 86.71H30.2374C30.3494 88.11 31.3294 88.796 32.2814 88.796C33.1634 88.796 33.8354 88.46 34.1294 87.746H35.7674C35.4314 88.95 34.2834 90.182 32.3514 90.182C29.9294 90.182 28.5434 88.348 28.5434 86.178C28.5434 83.91 30.0974 82.3 32.2394 82.3C34.5494 82.3 36.0054 84.19 35.8514 86.71ZM32.2394 83.602C31.4554 83.602 30.3914 84.078 30.2374 85.492H34.1574C34.1154 84.316 33.2194 83.602 32.2394 83.602ZM44.8965 88.698V91.778H43.3845V90H37.8825V91.778H36.3705V88.698H36.7765C37.6165 88.698 38.0505 87.606 38.1765 84.862L38.2885 82.468H43.7765V88.698H44.8965ZM42.1105 88.698V83.784H39.7585L39.6885 85.058C39.5765 87.06 39.3105 88.124 38.7085 88.698H42.1105ZM52.7772 86.71H47.1632C47.2752 88.11 48.2552 88.796 49.2072 88.796C50.0892 88.796 50.7612 88.46 51.0552 87.746H52.6932C52.3572 88.95 51.2092 90.182 49.2772 90.182C46.8552 90.182 45.4692 88.348 45.4692 86.178C45.4692 83.91 47.0232 82.3 49.1652 82.3C51.4752 82.3 52.9312 84.19 52.7772 86.71ZM49.1652 83.602C48.3812 83.602 47.3172 84.078 47.1632 85.492H51.0832C51.0412 84.316 50.1452 83.602 49.1652 83.602ZM60.5886 90H58.9226V83.784H56.7106L56.5986 85.408C56.3886 88.558 55.5486 90 53.8126 90H53.5046V88.684H53.6726C54.2886 88.684 54.8626 88.026 55.0166 85.17L55.1566 82.468H60.5886V90ZM69.5158 82.468V90H67.8498V84.778L64.2658 90H62.5998V82.468H64.2658V87.718L67.8498 82.468H69.5158ZM77.3968 83.784H74.8348V90H73.1688V83.784H70.5928V82.468H77.3968V83.784ZM85.1385 86.71H79.5245C79.6365 88.11 80.6165 88.796 81.5685 88.796C82.4505 88.796 83.1225 88.46 83.4165 87.746H85.0545C84.7185 88.95 83.5705 90.182 81.6385 90.182C79.2165 90.182 77.8305 88.348 77.8305 86.178C77.8305 83.91 79.3845 82.3 81.5265 82.3C83.8365 82.3 85.2925 84.19 85.1385 86.71ZM81.5265 83.602C80.7425 83.602 79.6785 84.078 79.5245 85.492H83.4445C83.4025 84.316 82.5065 83.602 81.5265 83.602ZM92.9499 90H91.2839V83.784H89.0719L88.9599 85.408C88.7499 88.558 87.9099 90 86.1739 90H85.8659V88.684H86.0339C86.6499 88.684 87.2239 88.026 87.3779 85.17L87.5179 82.468H92.9499V90ZM96.6271 85.002H98.1811C100.253 85.002 101.121 85.786 101.121 87.452C101.121 89.356 100.085 90 98.2091 90H94.9611V82.468H96.6271V85.002ZM96.6271 88.684H97.9851C98.9791 88.684 99.4691 88.348 99.4691 87.438C99.4691 86.598 98.9791 86.318 97.9711 86.318H96.6271V88.684ZM112.929 88.894V91.666H111.697V90H106.181V91.666H104.949V88.894H105.285C106.139 88.894 106.587 87.774 106.699 84.89L106.797 82.468H111.879V88.894H112.929ZM110.605 88.894V83.574H108.029L107.959 85.016C107.847 87.242 107.525 88.334 106.937 88.894H110.605ZM120.163 82.468V90H118.889V83.574H116.355L116.243 85.394C116.061 88.432 115.403 90 113.653 90H113.415V88.894H113.555C114.227 88.894 114.871 88.166 115.025 85.044L115.137 82.468H120.163ZM127.892 82.468V90H126.618V87.326H125.288C125.218 87.326 125.148 87.326 125.078 87.312L123.034 90H121.452L123.734 86.962C122.782 86.64 122.138 85.912 122.138 84.792C122.138 83.238 123.202 82.468 124.938 82.468H127.892ZM126.618 83.574H125.008C124.07 83.574 123.44 83.966 123.44 84.876C123.44 85.898 124.238 86.22 125.12 86.22H126.618V83.574ZM134.571 82.468V83.602C135.005 82.888 135.733 82.342 137.007 82.342C138.827 82.342 139.485 83.518 139.485 85.24V90H138.211V85.618C138.211 84.456 138.015 83.448 136.559 83.448C135.327 83.448 134.571 84.288 134.571 85.912V90H133.297V82.468H134.571ZM148.041 86.654H142.245C142.287 88.278 143.463 89.062 144.569 89.062C145.689 89.062 146.305 88.558 146.627 87.816H147.943C147.607 89.104 146.403 90.182 144.569 90.182C142.189 90.182 140.873 88.474 140.873 86.248C140.873 83.854 142.469 82.342 144.527 82.342C146.837 82.342 148.195 84.26 148.041 86.654ZM144.527 83.434C143.407 83.434 142.371 84.05 142.259 85.562H146.697C146.655 84.498 145.885 83.434 144.527 83.434ZM155.195 84.666H153.865C153.655 83.77 152.983 83.42 152.087 83.42C151.345 83.42 150.505 83.686 150.505 84.372C150.505 84.974 150.925 85.24 151.653 85.394L152.717 85.604C154.089 85.856 155.293 86.402 155.293 87.844C155.293 89.342 153.949 90.182 152.227 90.182C150.253 90.182 149.147 88.88 148.993 87.564H150.337C150.547 88.53 151.135 89.104 152.255 89.104C153.221 89.104 154.005 88.698 154.005 87.984C154.005 87.214 153.291 86.92 152.479 86.738L151.359 86.514C150.337 86.29 149.217 85.842 149.217 84.428C149.217 83.098 150.561 82.328 152.227 82.328C153.865 82.328 154.957 83.224 155.195 84.666ZM157.272 82.468V80.578H158.546V82.468H159.974V83.49H158.546V87.956C158.546 88.74 158.602 88.936 159.33 88.936H159.974V90H159.05C157.608 90 157.272 89.678 157.272 88.11V83.49H156.082V82.468H157.272Z" fill="#0076DE"/>
</svg>
