<svg width="269" height="64" viewBox="0 0 269 64" fill="none" xmlns="http://www.w3.org/2000/svg">
<rect x="167.5" y="27.5" width="89" height="36" rx="18" stroke="#1E1E1E"/>
<rect y="27" width="162" height="37" rx="18.5" fill="#0076DE"/>
<path d="M15 35.875H17.8L22.75 44.725L27.8 35.875H30.6L23.95 46.975V54H21.4V46.925L15 35.875ZM42.0295 48.025H31.6795C31.7545 50.925 33.8545 52.325 35.8295 52.325C37.8295 52.325 38.9295 51.425 39.5045 50.1H41.8545C41.2545 52.4 39.1045 54.325 35.8295 54.325C31.5795 54.325 29.2295 51.275 29.2295 47.3C29.2295 43.025 32.0795 40.325 35.7545 40.325C39.8795 40.325 42.3045 43.75 42.0295 48.025ZM35.7545 42.275C33.7545 42.275 31.9045 43.375 31.7045 46.075H39.6295C39.5545 44.175 38.1795 42.275 35.7545 42.275ZM54.8047 44.475H52.4297C52.0547 42.875 50.8547 42.25 49.2547 42.25C47.9297 42.25 46.4297 42.725 46.4297 43.95C46.4297 45.025 47.1797 45.5 48.4797 45.775L50.3797 46.15C52.8297 46.6 54.9797 47.575 54.9797 50.15C54.9797 52.825 52.5797 54.325 49.5047 54.325C45.9797 54.325 44.0047 52 43.7297 49.65H46.1297C46.5047 51.375 47.5547 52.4 49.5547 52.4C51.2797 52.4 52.6797 51.675 52.6797 50.4C52.6797 49.025 51.4047 48.5 49.9547 48.175L47.9547 47.775C46.1297 47.375 44.1297 46.575 44.1297 44.05C44.1297 41.675 46.5297 40.3 49.5047 40.3C52.4297 40.3 54.3797 41.9 54.8047 44.475ZM58.5145 40.55V37.175H60.7895V40.55H63.3395V42.375H60.7895V50.35C60.7895 51.75 60.8895 52.1 62.1895 52.1H63.3395V54H61.6895C59.1145 54 58.5145 53.425 58.5145 50.625V42.375H56.3895V40.55H58.5145ZM77.7473 48.025H67.3973C67.4723 50.925 69.5723 52.325 71.5473 52.325C73.5473 52.325 74.6473 51.425 75.2223 50.1H77.5723C76.9723 52.4 74.8223 54.325 71.5473 54.325C67.2973 54.325 64.9473 51.275 64.9473 47.3C64.9473 43.025 67.7973 40.325 71.4723 40.325C75.5973 40.325 78.0223 43.75 77.7473 48.025ZM71.4723 42.275C69.4723 42.275 67.6223 43.375 67.4223 46.075H75.3473C75.2723 44.175 73.8973 42.275 71.4723 42.275ZM87.0986 40.5V42.925C86.6236 42.85 86.1986 42.825 85.8236 42.825C83.7236 42.825 82.6736 43.975 82.6736 46.95V54H80.3986V40.55H82.6236V42.9C83.2986 41.375 84.6486 40.55 86.4236 40.475C86.6486 40.475 86.8236 40.475 87.0986 40.5ZM98.2662 42.675V35.875H100.541V54H98.2662V51.975C97.4412 53.4 96.0412 54.325 93.8662 54.325C90.7662 54.325 88.1162 51.8 88.1162 47.325C88.1162 42.925 90.7662 40.325 93.8662 40.325C96.0412 40.325 97.4412 41.25 98.2662 42.675ZM98.3662 47.325C98.3662 43.775 96.4662 42.275 94.4412 42.275C92.1162 42.275 90.5912 44.1 90.5912 47.325C90.5912 50.55 92.1162 52.375 94.4412 52.375C96.4662 52.375 98.3662 50.875 98.3662 47.325ZM112.604 48.375V47.525C108.479 47.925 105.854 48.55 105.854 50.4C105.854 51.675 106.829 52.525 108.454 52.525C110.579 52.525 112.604 51.55 112.604 48.375ZM107.954 54.325C105.429 54.325 103.329 52.925 103.329 50.45C103.329 47.275 106.929 46.325 112.429 45.725V45.4C112.429 42.925 111.079 42.125 109.379 42.125C107.479 42.125 106.404 43.125 106.304 44.8H103.954C104.154 41.9 106.754 40.275 109.354 40.275C113.079 40.275 114.729 42.025 114.704 45.825L114.679 48.925C114.654 51.2 114.754 52.725 115.029 54H112.729C112.654 53.5 112.579 52.95 112.554 52.15C111.729 53.55 110.354 54.325 107.954 54.325ZM125.447 40.55H127.822L123.022 54.575C122.022 57.475 121.372 58.375 118.347 58.375H117.172V56.475H118.097C119.597 56.475 120.322 56.375 120.922 54.275L121.022 54L116.172 40.55H118.697L122.122 50.925L125.447 40.55ZM129.931 38.75V35.875H132.806V38.95L131.281 42.225H129.831L131.156 38.75H129.931ZM145.063 44.475H142.688C142.313 42.875 141.113 42.25 139.513 42.25C138.188 42.25 136.688 42.725 136.688 43.95C136.688 45.025 137.438 45.5 138.738 45.775L140.638 46.15C143.088 46.6 145.238 47.575 145.238 50.15C145.238 52.825 142.838 54.325 139.763 54.325C136.238 54.325 134.263 52 133.988 49.65H136.388C136.763 51.375 137.813 52.4 139.813 52.4C141.538 52.4 142.938 51.675 142.938 50.4C142.938 49.025 141.663 48.5 140.213 48.175L138.213 47.775C136.388 47.375 134.388 46.575 134.388 44.05C134.388 41.675 136.788 40.3 139.763 40.3C142.688 40.3 144.638 41.9 145.063 44.475Z" fill="white"/>
<path d="M183.8 40.55H186.075V42.675C186.9 41.25 188.3 40.325 190.475 40.325C193.575 40.325 196.225 42.925 196.225 47.325C196.225 51.8 193.575 54.325 190.475 54.325C188.3 54.325 186.9 53.4 186.075 51.975V58.375H183.8V40.55ZM185.975 47.325C185.975 50.875 187.875 52.375 189.9 52.375C192.225 52.375 193.75 50.55 193.75 47.325C193.75 44.1 192.225 42.275 189.9 42.275C187.875 42.275 185.975 43.775 185.975 47.325ZM198.888 40.55H201.163V54H198.888V40.55ZM198.888 35.875H201.163V38.625H198.888V35.875ZM203.797 54V52.025L211.572 42.525H204.297V40.55H214.222V42.525L206.472 52.025H214.372V54H203.797ZM216.004 54V52.025L223.779 42.525H216.504V40.55H226.429V42.525L218.679 52.025H226.579V54H216.004ZM237.539 48.375V47.525C233.414 47.925 230.789 48.55 230.789 50.4C230.789 51.675 231.764 52.525 233.389 52.525C235.514 52.525 237.539 51.55 237.539 48.375ZM232.889 54.325C230.364 54.325 228.264 52.925 228.264 50.45C228.264 47.275 231.864 46.325 237.364 45.725V45.4C237.364 42.925 236.014 42.125 234.314 42.125C232.414 42.125 231.339 43.125 231.239 44.8H228.889C229.089 41.9 231.689 40.275 234.289 40.275C238.014 40.275 239.664 42.025 239.639 45.825L239.614 48.925C239.589 51.2 239.689 52.725 239.964 54H237.664C237.589 53.5 237.514 52.95 237.489 52.15C236.664 53.55 235.289 54.325 232.889 54.325Z" fill="black"/>
<path d="M266.5 54H263.625V51.125H266.5V54Z" fill="black"/>
<path d="M2.464 10.918C2.464 13.396 3.794 14.726 5.474 14.726C7.154 14.726 8.484 13.396 8.484 10.918C8.484 8.454 7.154 7.124 5.474 7.124C3.794 7.124 2.464 8.454 2.464 10.918ZM10.318 10.918C10.318 14.04 8.456 16.182 5.474 16.182C2.492 16.182 0.63 14.04 0.63 10.918C0.63 7.782 2.492 5.668 5.474 5.668C8.456 5.668 10.318 7.782 10.318 10.918ZM18.5112 8.468V16H16.8452V9.784H13.6252V16H11.9592V8.468H18.5112ZM22.0574 12.234C22.0574 13.97 22.9114 14.824 24.0034 14.824C25.1794 14.824 25.8654 13.844 25.8654 12.234C25.8654 10.652 25.1794 9.658 24.0034 9.658C22.9114 9.658 22.0574 10.498 22.0574 12.234ZM20.4614 8.468H22.1274V9.476C22.5754 8.734 23.3594 8.3 24.3674 8.3C26.2154 8.3 27.6014 9.826 27.6014 12.234C27.6014 14.656 26.2154 16.182 24.3674 16.182C23.3594 16.182 22.5754 15.748 22.1274 15.006V18.45H20.4614V8.468ZM35.8514 12.71H30.2374C30.3494 14.11 31.3294 14.796 32.2814 14.796C33.1634 14.796 33.8354 14.46 34.1294 13.746H35.7674C35.4314 14.95 34.2834 16.182 32.3514 16.182C29.9294 16.182 28.5434 14.348 28.5434 12.178C28.5434 9.91 30.0974 8.3 32.2394 8.3C34.5494 8.3 36.0054 10.19 35.8514 12.71ZM32.2394 9.602C31.4554 9.602 30.3914 10.078 30.2374 11.492H34.1574C34.1154 10.316 33.2194 9.602 32.2394 9.602ZM44.8965 14.698V17.778H43.3845V16H37.8825V17.778H36.3705V14.698H36.7765C37.6165 14.698 38.0505 13.606 38.1765 10.862L38.2885 8.468H43.7765V14.698H44.8965ZM42.1105 14.698V9.784H39.7585L39.6885 11.058C39.5765 13.06 39.3105 14.124 38.7085 14.698H42.1105ZM52.7772 12.71H47.1632C47.2752 14.11 48.2552 14.796 49.2072 14.796C50.0892 14.796 50.7612 14.46 51.0552 13.746H52.6932C52.3572 14.95 51.2092 16.182 49.2772 16.182C46.8552 16.182 45.4692 14.348 45.4692 12.178C45.4692 9.91 47.0232 8.3 49.1652 8.3C51.4752 8.3 52.9312 10.19 52.7772 12.71ZM49.1652 9.602C48.3812 9.602 47.3172 10.078 47.1632 11.492H51.0832C51.0412 10.316 50.1452 9.602 49.1652 9.602ZM60.5886 16H58.9226V9.784H56.7106L56.5986 11.408C56.3886 14.558 55.5486 16 53.8126 16H53.5046V14.684H53.6726C54.2886 14.684 54.8626 14.026 55.0166 11.17L55.1566 8.468H60.5886V16ZM69.5158 8.468V16H67.8498V10.778L64.2658 16H62.5998V8.468H64.2658V13.718L67.8498 8.468H69.5158ZM77.3968 9.784H74.8348V16H73.1688V9.784H70.5928V8.468H77.3968V9.784ZM85.1385 12.71H79.5245C79.6365 14.11 80.6165 14.796 81.5685 14.796C82.4505 14.796 83.1225 14.46 83.4165 13.746H85.0545C84.7185 14.95 83.5705 16.182 81.6385 16.182C79.2165 16.182 77.8305 14.348 77.8305 12.178C77.8305 9.91 79.3845 8.3 81.5265 8.3C83.8365 8.3 85.2925 10.19 85.1385 12.71ZM81.5265 9.602C80.7425 9.602 79.6785 10.078 79.5245 11.492H83.4445C83.4025 10.316 82.5065 9.602 81.5265 9.602ZM92.9499 16H91.2839V9.784H89.0719L88.9599 11.408C88.7499 14.558 87.9099 16 86.1739 16H85.8659V14.684H86.0339C86.6499 14.684 87.2239 14.026 87.3779 11.17L87.5179 8.468H92.9499V16ZM96.6271 11.002H98.1811C100.253 11.002 101.121 11.786 101.121 13.452C101.121 15.356 100.085 16 98.2091 16H94.9611V8.468H96.6271V11.002ZM96.6271 14.684H97.9851C98.9791 14.684 99.4691 14.348 99.4691 13.438C99.4691 12.598 98.9791 12.318 97.9711 12.318H96.6271V14.684ZM112.929 14.894V17.666H111.697V16H106.181V17.666H104.949V14.894H105.285C106.139 14.894 106.587 13.774 106.699 10.89L106.797 8.468H111.879V14.894H112.929ZM110.605 14.894V9.574H108.029L107.959 11.016C107.847 13.242 107.525 14.334 106.937 14.894H110.605ZM120.163 8.468V16H118.889V9.574H116.355L116.243 11.394C116.061 14.432 115.403 16 113.653 16H113.415V14.894H113.555C114.227 14.894 114.871 14.166 115.025 11.044L115.137 8.468H120.163ZM127.892 8.468V16H126.618V13.326H125.288C125.218 13.326 125.148 13.326 125.078 13.312L123.034 16H121.452L123.734 12.962C122.782 12.64 122.138 11.912 122.138 10.792C122.138 9.238 123.202 8.468 124.938 8.468H127.892ZM126.618 9.574H125.008C124.07 9.574 123.44 9.966 123.44 10.876C123.44 11.898 124.238 12.22 125.12 12.22H126.618V9.574ZM133.297 8.468H134.571V9.658C135.033 8.86 135.817 8.342 137.035 8.342C138.771 8.342 140.255 9.798 140.255 12.262C140.255 14.768 138.771 16.182 137.035 16.182C135.817 16.182 135.033 15.664 134.571 14.866V18.45H133.297V8.468ZM134.515 12.262C134.515 14.25 135.579 15.09 136.713 15.09C138.015 15.09 138.869 14.068 138.869 12.262C138.869 10.456 138.015 9.434 136.713 9.434C135.579 9.434 134.515 10.274 134.515 12.262ZM141.746 8.468H143.02V16H141.746V8.468ZM141.746 5.85H143.02V7.39H141.746V5.85ZM144.495 16V14.894L148.849 9.574H144.775V8.468H150.333V9.574L145.993 14.894H150.417V16H144.495ZM151.331 16V14.894L155.685 9.574H151.611V8.468H157.169V9.574L152.829 14.894H157.253V16H151.331ZM163.391 12.85V12.374C161.081 12.598 159.611 12.948 159.611 13.984C159.611 14.698 160.157 15.174 161.067 15.174C162.257 15.174 163.391 14.628 163.391 12.85ZM160.787 16.182C159.373 16.182 158.197 15.398 158.197 14.012C158.197 12.234 160.213 11.702 163.293 11.366V11.184C163.293 9.798 162.537 9.35 161.585 9.35C160.521 9.35 159.919 9.91 159.863 10.848H158.547C158.659 9.224 160.115 8.314 161.571 8.314C163.657 8.314 164.581 9.294 164.567 11.422L164.553 13.158C164.539 14.432 164.595 15.286 164.749 16H163.461C163.419 15.72 163.377 15.412 163.363 14.964C162.901 15.748 162.131 16.182 160.787 16.182Z" fill="#0076DE"/>
</svg>
