<svg width="456" height="69" viewBox="0 0 456 69" fill="none" xmlns="http://www.w3.org/2000/svg">
	<rect y="36" width="29" height="29" rx="14.5" fill="#C8C8C8"/>
	<path d="M15.878 57H14.24V46.794H11.216V45.678C13.07 45.624 14.06 45.354 14.762 43.95H15.878V57Z" fill="white"/>
	<path
		d="M7.084 16H5.572L2.772 7.152V16H1.344V5.85H3.738L6.328 14.306L8.918 5.85H11.312V16H9.884V7.152L7.084 16ZM18.4142 12.85V12.374C16.1042 12.598 14.6342 12.948 14.6342 13.984C14.6342 14.698 15.1802 15.174 16.0902 15.174C17.2802 15.174 18.4142 14.628 18.4142 12.85ZM15.8102 16.182C14.3962 16.182 13.2202 15.398 13.2202 14.012C13.2202 12.234 15.2362 11.702 18.3162 11.366V11.184C18.3162 9.798 17.5602 9.35 16.6082 9.35C15.5442 9.35 14.9422 9.91 14.8862 10.848H13.5702C13.6822 9.224 15.1382 8.314 16.5942 8.314C18.6802 8.314 19.6042 9.294 19.5902 11.422L19.5762 13.158C19.5622 14.432 19.6182 15.286 19.7722 16H18.4842C18.4422 15.72 18.4002 15.412 18.3862 14.964C17.9242 15.748 17.1542 16.182 15.8102 16.182ZM30.8405 8.468V16H21.5585V8.468H22.8325V14.894H25.5625V8.468H26.8365V14.894H29.5665V8.468H30.8405ZM37.6778 12.85V12.374C35.3678 12.598 33.8978 12.948 33.8978 13.984C33.8978 14.698 34.4438 15.174 35.3538 15.174C36.5438 15.174 37.6778 14.628 37.6778 12.85ZM35.0738 16.182C33.6598 16.182 32.4838 15.398 32.4838 14.012C32.4838 12.234 34.4998 11.702 37.5798 11.366V11.184C37.5798 9.798 36.8238 9.35 35.8718 9.35C34.8078 9.35 34.2058 9.91 34.1498 10.848H32.8338C32.9458 9.224 34.4018 8.314 35.8578 8.314C37.9438 8.314 38.8678 9.294 38.8538 11.422L38.8398 13.158C38.8258 14.432 38.8818 15.286 39.0358 16H37.7478C37.7058 15.72 37.6638 15.412 37.6498 14.964C37.1878 15.748 36.4178 16.182 35.0738 16.182ZM50.4164 16H49.1424V12.71H45.4184V16H44.1444V8.468H45.4184V11.604H49.1424V8.468H50.4164V16ZM59.1463 12.654H53.3503C53.3923 14.278 54.5683 15.062 55.6743 15.062C56.7943 15.062 57.4103 14.558 57.7323 13.816H59.0483C58.7123 15.104 57.5083 16.182 55.6743 16.182C53.2943 16.182 51.9783 14.474 51.9783 12.248C51.9783 9.854 53.5743 8.342 55.6323 8.342C57.9423 8.342 59.3003 10.26 59.1463 12.654ZM55.6323 9.434C54.5123 9.434 53.4763 10.05 53.3643 11.562H57.8023C57.7603 10.498 56.9903 9.434 55.6323 9.434ZM69.987 8.468V16H68.713V9.574H66.179L66.067 11.394C65.885 14.432 65.227 16 63.477 16H63.239V14.894H63.379C64.051 14.894 64.695 14.166 64.849 11.044L64.961 8.468H69.987ZM78.3324 8.342C80.0824 8.342 81.9444 9.532 81.9444 12.262C81.9444 14.992 80.0824 16.182 78.3324 16.182C76.7644 16.182 75.0984 15.118 74.9164 12.71H73.4184V16H72.1444V8.468H73.4184V11.604H74.9444C75.2104 9.322 76.7924 8.342 78.3324 8.342ZM78.3324 15.062C79.4944 15.062 80.5864 14.194 80.5864 12.262C80.5864 10.246 79.4944 9.462 78.3324 9.462C77.2824 9.462 76.2604 10.204 76.2604 12.262C76.2604 14.278 77.2824 15.062 78.3324 15.062ZM86.9348 8.902C88.6428 8.902 90.1128 10.092 90.1128 12.472C90.1128 14.894 88.5588 16.182 86.7108 16.182C84.7648 16.182 83.1688 14.824 83.1688 12.08V11.212C83.2108 8.496 84.1068 6.914 87.1308 6.312L89.6088 5.822V6.956L87.2008 7.474C85.3668 7.88 84.4848 8.566 84.3028 10.442C84.8068 9.392 85.8148 8.902 86.9348 8.902ZM86.7108 15.076C87.9428 15.076 88.7548 14.138 88.7548 12.5C88.7548 10.848 87.8868 10.008 86.7248 10.008C85.5768 10.008 84.5408 10.792 84.5408 12.486C84.5408 14.082 85.4368 15.076 86.7108 15.076ZM96.7792 16V10.316L92.8872 16H91.6132V8.468H92.8872V14.152L96.7792 8.468H98.0532V16H96.7792ZM105.771 9.574H103.195V16H101.921V9.574H99.3448V8.468H105.771V9.574ZM115.929 16H114.655V12.948C113.773 13.158 113.101 13.256 112.415 13.256C110.833 13.256 110.007 12.556 110.007 10.918V8.468H111.281V10.652C111.281 11.772 111.813 12.15 112.877 12.15C113.367 12.15 113.955 12.066 114.655 11.898V8.468H115.929V16ZM122.758 12.85V12.374C120.448 12.598 118.978 12.948 118.978 13.984C118.978 14.698 119.524 15.174 120.434 15.174C121.624 15.174 122.758 14.628 122.758 12.85ZM120.154 16.182C118.74 16.182 117.564 15.398 117.564 14.012C117.564 12.234 119.58 11.702 122.66 11.366V11.184C122.66 9.798 121.904 9.35 120.952 9.35C119.888 9.35 119.286 9.91 119.23 10.848H117.914C118.026 9.224 119.482 8.314 120.938 8.314C123.024 8.314 123.948 9.294 123.934 11.422L123.92 13.158C123.906 14.432 123.962 15.286 124.116 16H122.828C122.786 15.72 122.744 15.412 122.73 14.964C122.268 15.748 121.498 16.182 120.154 16.182ZM130.41 5.85H131.404C131.292 6.69 130.76 7.544 129.164 7.544C127.624 7.544 127.036 6.69 126.966 5.85H127.96C128.016 6.298 128.352 6.704 129.178 6.704C130.004 6.704 130.354 6.298 130.41 5.85ZM131.068 16V10.316L127.176 16H125.902V8.468H127.176V14.152L131.068 8.468H132.342V16H131.068ZM135.944 16H134.334V14.39H135.944V16Z"
		fill="#8E8E8E"/>
	<rect x="39.5" y="32.5" width="107" height="36" rx="18" stroke="#1E1E1E"/>
	<rect x="290.5" y="32.5" width="81" height="36" rx="18" stroke="#0076DE"/>
	<rect x="152.5" y="32.5" width="59" height="36" rx="18" fill="#1E1E1E" stroke="#1E1E1E"/>
	<rect x="377.5" y="32.5" width="66" height="36" rx="18" stroke="#1E1E1E"/>
	<path
		d="M66.4 59H63.7L58.7 43.2V59H56.15V40.875H60.425L65.05 55.975L69.675 40.875H73.95V59H71.4V43.2L66.4 59ZM86.3697 53.375V52.525C82.2447 52.925 79.6197 53.55 79.6197 55.4C79.6197 56.675 80.5947 57.525 82.2197 57.525C84.3447 57.525 86.3697 56.55 86.3697 53.375ZM81.7197 59.325C79.1947 59.325 77.0947 57.925 77.0947 55.45C77.0947 52.275 80.6947 51.325 86.1947 50.725V50.4C86.1947 47.925 84.8447 47.125 83.1447 47.125C81.2447 47.125 80.1697 48.125 80.0697 49.8H77.7197C77.9197 46.9 80.5197 45.275 83.1197 45.275C86.8447 45.275 88.4947 47.025 88.4697 50.825L88.4447 53.925C88.4197 56.2 88.5197 57.725 88.7947 59H86.4947C86.4197 58.5 86.3447 57.95 86.3197 57.15C85.4947 58.55 84.1197 59.325 81.7197 59.325ZM101.935 49.475H99.5596C99.1846 47.875 97.9846 47.25 96.3846 47.25C95.0596 47.25 93.5596 47.725 93.5596 48.95C93.5596 50.025 94.3096 50.5 95.6096 50.775L97.5096 51.15C99.9596 51.6 102.11 52.575 102.11 55.15C102.11 57.825 99.7096 59.325 96.6346 59.325C93.1096 59.325 91.1346 57 90.8596 54.65H93.2596C93.6346 56.375 94.6846 57.4 96.6846 57.4C98.4096 57.4 99.8096 56.675 99.8096 55.4C99.8096 54.025 98.5346 53.5 97.0846 53.175L95.0846 52.775C93.2596 52.375 91.2596 51.575 91.2596 49.05C91.2596 46.675 93.6596 45.3 96.6346 45.3C99.5596 45.3 101.51 46.9 101.935 49.475ZM107.269 40.875V47.575C108.044 46.3 109.344 45.325 111.619 45.325C114.869 45.325 116.044 47.425 116.044 50.5V59H113.769V51.175C113.769 49.1 113.419 47.3 110.819 47.3C108.619 47.3 107.269 48.8 107.269 51.7V59H104.994V40.875H107.269ZM127.922 53.375V52.525C123.797 52.925 121.172 53.55 121.172 55.4C121.172 56.675 122.147 57.525 123.772 57.525C125.897 57.525 127.922 56.55 127.922 53.375ZM123.272 59.325C120.747 59.325 118.647 57.925 118.647 55.45C118.647 52.275 122.247 51.325 127.747 50.725V50.4C127.747 47.925 126.397 47.125 124.697 47.125C122.797 47.125 121.722 48.125 121.622 49.8H119.272C119.472 46.9 122.072 45.275 124.672 45.275C128.397 45.275 130.047 47.025 130.022 50.825L129.997 53.925C129.972 56.2 130.072 57.725 130.347 59H128.047C127.972 58.5 127.897 57.95 127.872 57.15C127.047 58.55 125.672 59.325 123.272 59.325Z"
		fill="black"/>
	<path
		d="M178.025 47.675V40.875H180.3V59H178.025V56.975C177.2 58.4 175.8 59.325 173.625 59.325C170.525 59.325 167.875 56.8 167.875 52.325C167.875 47.925 170.525 45.325 173.625 45.325C175.8 45.325 177.2 46.25 178.025 47.675ZM178.125 52.325C178.125 48.775 176.225 47.275 174.2 47.275C171.875 47.275 170.35 49.1 170.35 52.325C170.35 55.55 171.875 57.375 174.2 57.375C176.225 57.375 178.125 55.875 178.125 52.325ZM185.438 52.325C185.438 55.925 187.388 57.325 189.463 57.325C191.538 57.325 193.488 55.775 193.488 52.325C193.488 48.725 191.538 47.325 189.463 47.325C187.388 47.325 185.438 48.65 185.438 52.325ZM189.463 45.325C192.588 45.325 195.913 47.45 195.913 52.325C195.913 57.2 192.588 59.325 189.463 59.325C186.338 59.325 183.013 57.2 183.013 52.325C183.013 47.45 186.338 45.325 189.463 45.325Z"
		fill="white"/>
	<path
		d="M309.075 40.875V59H306.8V40.875H309.075ZM312.684 45.55H314.959V59H312.684V45.55ZM312.684 40.875H314.959V43.625H312.684V40.875ZM318.568 40.875H320.843V51.6L326.268 45.55H329.068L323.943 51.125L329.768 59H326.993L322.418 52.8L320.843 54.5V59H318.568V40.875ZM342.698 53.025H332.348C332.423 55.925 334.523 57.325 336.498 57.325C338.498 57.325 339.598 56.425 340.173 55.1H342.523C341.923 57.4 339.773 59.325 336.498 59.325C332.248 59.325 329.898 56.275 329.898 52.3C329.898 48.025 332.748 45.325 336.423 45.325C340.548 45.325 342.973 48.75 342.698 53.025ZM336.423 47.275C334.423 47.275 332.573 48.375 332.373 51.075H340.298C340.223 49.175 338.848 47.275 336.423 47.275ZM355.474 49.475H353.099C352.724 47.875 351.524 47.25 349.924 47.25C348.599 47.25 347.099 47.725 347.099 48.95C347.099 50.025 347.849 50.5 349.149 50.775L351.049 51.15C353.499 51.6 355.649 52.575 355.649 55.15C355.649 57.825 353.249 59.325 350.174 59.325C346.649 59.325 344.674 57 344.399 54.65H346.799C347.174 56.375 348.224 57.4 350.224 57.4C351.949 57.4 353.349 56.675 353.349 55.4C353.349 54.025 352.074 53.5 350.624 53.175L348.624 52.775C346.799 52.375 344.799 51.575 344.799 49.05C344.799 46.675 347.199 45.3 350.174 45.3C353.099 45.3 355.049 46.9 355.474 49.475Z"
		fill="#0076DE"/>
	<path
		d="M394.45 45.55V42.175H396.725V45.55H399.275V47.375H396.725V55.35C396.725 56.75 396.825 57.1 398.125 57.1H399.275V59H397.625C395.05 59 394.45 58.425 394.45 55.625V47.375H392.325V45.55H394.45ZM413.683 53.025H403.333C403.408 55.925 405.508 57.325 407.483 57.325C409.483 57.325 410.583 56.425 411.158 55.1H413.508C412.908 57.4 410.758 59.325 407.483 59.325C403.233 59.325 400.883 56.275 400.883 52.3C400.883 48.025 403.733 45.325 407.408 45.325C411.533 45.325 413.958 48.75 413.683 53.025ZM407.408 47.275C405.408 47.275 403.558 48.375 403.358 51.075H411.283C411.208 49.175 409.833 47.275 407.408 47.275ZM424.687 53.375V52.525C420.562 52.925 417.937 53.55 417.937 55.4C417.937 56.675 418.912 57.525 420.537 57.525C422.662 57.525 424.687 56.55 424.687 53.375ZM420.037 59.325C417.512 59.325 415.412 57.925 415.412 55.45C415.412 52.275 419.012 51.325 424.512 50.725V50.4C424.512 47.925 423.162 47.125 421.462 47.125C419.562 47.125 418.487 48.125 418.387 49.8H416.037C416.237 46.9 418.837 45.275 421.437 45.275C425.162 45.275 426.812 47.025 426.787 50.825L426.762 53.925C426.737 56.2 426.837 57.725 427.112 59H424.812C424.737 58.5 424.662 57.95 424.637 57.15C423.812 58.55 422.437 59.325 420.037 59.325Z"
		fill="black"/>
	<path d="M453.5 59H450.625V56.125H453.5V59Z" fill="black"/>
	<rect x="217.5" y="32.5" width="67" height="36" rx="18" fill="#1E1E1E" stroke="#1E1E1E"/>
	<path
		d="M236.075 45.55V47.575C236.85 46.3 238.15 45.325 240.425 45.325C243.675 45.325 244.85 47.425 244.85 50.5V59H242.575V51.175C242.575 49.1 242.225 47.3 239.625 47.3C237.425 47.3 236.075 48.8 236.075 51.7V59H233.8V45.55H236.075ZM249.803 52.325C249.803 55.925 251.753 57.325 253.828 57.325C255.903 57.325 257.853 55.775 257.853 52.325C257.853 48.725 255.903 47.325 253.828 47.325C251.753 47.325 249.803 48.65 249.803 52.325ZM253.828 45.325C256.953 45.325 260.278 47.45 260.278 52.325C260.278 57.2 256.953 59.325 253.828 59.325C250.703 59.325 247.378 57.2 247.378 52.325C247.378 47.45 250.703 45.325 253.828 45.325ZM263.527 45.55V42.175H265.802V45.55H268.352V47.375H265.802V55.35C265.802 56.75 265.902 57.1 267.202 57.1H268.352V59H266.702C264.127 59 263.527 58.425 263.527 55.625V47.375H261.402V45.55H263.527Z"
		fill="white"/>
</svg>
