<svg width="446" height="315" viewBox="0 0 446 315" fill="none" xmlns="http://www.w3.org/2000/svg">
<path d="M10 1H178V314H10C5.02944 314 1 309.971 1 305V10C1 5.02944 5.02944 1 10 1Z" stroke="#E3E3E3" stroke-width="2"/>
<path d="M24.512 58.6V76H22.064V58.6H24.512ZM20 90.6H22.688L27.44 99.096L32.288 90.6H34.976L28.592 101.256V108H26.144V101.208L20 90.6ZM36.0363 101.592C36.0363 105.048 37.9083 106.392 39.9003 106.392C41.8923 106.392 43.7643 104.904 43.7643 101.592C43.7643 98.136 41.8923 96.792 39.9003 96.792C37.9083 96.792 36.0363 98.064 36.0363 101.592ZM39.9003 94.872C42.9003 94.872 46.0923 96.912 46.0923 101.592C46.0923 106.272 42.9003 108.312 39.9003 108.312C36.9003 108.312 33.7083 106.272 33.7083 101.592C33.7083 96.912 36.9003 94.872 39.9003 94.872ZM56.6966 108V106.152C55.9526 107.376 54.7766 108.312 52.6406 108.312C49.6646 108.312 48.5126 106.296 48.5126 103.344V95.088H50.6966V102.696C50.6966 104.688 51.0086 106.416 53.4086 106.416C55.4966 106.416 56.6966 104.976 56.6966 102.192V95.088H58.8806V108H56.6966ZM32.528 122.6L35.96 137.216L39.176 122.6H41.744L37.4 140H34.424L31.064 125.696L27.776 140H24.8L20.384 122.6H23.072L26.432 137.216L29.648 122.6H32.528ZM54.5264 134.264H44.5904C44.6624 137.048 46.6784 138.392 48.5744 138.392C50.4944 138.392 51.5504 137.528 52.1024 136.256H54.3584C53.7824 138.464 51.7184 140.312 48.5744 140.312C44.4944 140.312 42.2384 137.384 42.2384 133.568C42.2384 129.464 44.9744 126.872 48.5024 126.872C52.4624 126.872 54.7904 130.16 54.5264 134.264ZM48.5024 128.744C46.5824 128.744 44.8064 129.8 44.6144 132.392H52.2224C52.1504 130.568 50.8304 128.744 48.5024 128.744ZM25.664 172V156.712H20V154.6H33.776V156.712H28.112V172H25.664ZM37.2245 154.6V161.032C37.9685 159.808 39.2165 158.872 41.4005 158.872C44.5205 158.872 45.6485 160.888 45.6485 163.84V172H43.4645V164.488C43.4645 162.496 43.1285 160.768 40.6325 160.768C38.5205 160.768 37.2245 162.208 37.2245 164.992V172H35.0405V154.6H37.2245ZM60.3155 166.264H50.3795C50.4515 169.048 52.4675 170.392 54.3635 170.392C56.2835 170.392 57.3395 169.528 57.8915 168.256H60.1475C59.5715 170.464 57.5075 172.312 54.3635 172.312C50.2835 172.312 48.0275 169.384 48.0275 165.568C48.0275 161.464 50.7635 158.872 54.2915 158.872C58.2515 158.872 60.5795 162.16 60.3155 166.264ZM54.2915 160.744C52.3715 160.744 50.5955 161.8 50.4035 164.392H58.0115C57.9395 162.568 56.6195 160.744 54.2915 160.744ZM69.9196 159.088H72.1996L67.5916 172.552C66.6316 175.336 66.0076 176.2 63.1036 176.2H61.9756V174.376H62.8636C64.3036 174.376 64.9996 174.28 65.5756 172.264L65.6716 172L61.0156 159.088H63.4396L66.7276 169.048L69.9196 159.088Z" fill="#1E1E1E"/>
<path d="M33.656 206.6H36.104V224H33.656V216.104H24.512V224H22.064V206.6H24.512V213.992H33.656V206.6ZM51.2921 218.264H41.3561C41.4281 221.048 43.4441 222.392 45.3401 222.392C47.2601 222.392 48.3161 221.528 48.8681 220.256H51.1241C50.5481 222.464 48.4841 224.312 45.3401 224.312C41.2601 224.312 39.0041 221.384 39.0041 217.568C39.0041 213.464 41.7401 210.872 45.2681 210.872C49.2281 210.872 51.5561 214.16 51.2921 218.264ZM45.2681 212.744C43.3481 212.744 41.5721 213.8 41.3801 216.392H48.9881C48.9161 214.568 47.5961 212.744 45.2681 212.744ZM21.344 243.04C21.344 239.704 24.824 238.288 27.632 238.288C30.776 238.288 33.536 239.704 34.232 243.04H31.856C31.28 241.048 29.264 240.352 27.536 240.352C26.192 240.352 23.84 240.952 23.84 242.896C23.84 244.432 25.04 245.2 26.672 245.56L28.688 246.016C31.352 246.592 34.544 247.6 34.544 251.104C34.544 254.488 31.376 256.312 27.92 256.312C23.816 256.312 21.224 254.056 20.768 250.6H23.168C23.624 253 25.28 254.248 27.968 254.248C30.56 254.248 32.024 253.048 32.024 251.32C32.024 249.472 30.44 248.752 28.28 248.248L26.12 247.792C23.72 247.264 21.344 245.92 21.344 243.04ZM39.287 238.6V245.032C40.031 243.808 41.279 242.872 43.463 242.872C46.583 242.872 47.711 244.888 47.711 247.84V256H45.527V248.488C45.527 246.496 45.191 244.768 42.695 244.768C40.583 244.768 39.287 246.208 39.287 248.992V256H37.103V238.6H39.287ZM62.378 250.264H52.442C52.514 253.048 54.53 254.392 56.426 254.392C58.346 254.392 59.402 253.528 59.954 252.256H62.21C61.634 254.464 59.57 256.312 56.426 256.312C52.346 256.312 50.09 253.384 50.09 249.568C50.09 245.464 52.826 242.872 56.354 242.872C60.314 242.872 62.642 246.16 62.378 250.264ZM56.354 244.744C54.434 244.744 52.658 245.8 52.466 248.392H60.074C60.002 246.568 58.682 244.744 56.354 244.744ZM24.512 270.6V288H22.064V270.6H24.512ZM28.9379 275.088V271.848H31.1219V275.088H33.5699V276.84H31.1219V284.496C31.1219 285.84 31.2179 286.176 32.4659 286.176H33.5699V288H31.9859C29.5139 288 28.9379 287.448 28.9379 284.76V276.84H26.8979V275.088H28.9379Z" fill="#1E1E1E"/>
<rect x="133" y="228" width="18" height="18" rx="3" fill="#589E07"/>
<rect x="133" y="248" width="26" height="18" rx="3" fill="#589E07"/>
<path d="M144.65 235.666H143.32C143.11 234.77 142.438 234.42 141.542 234.42C140.8 234.42 139.96 234.686 139.96 235.372C139.96 235.974 140.38 236.24 141.108 236.394L142.172 236.604C143.544 236.856 144.748 237.402 144.748 238.844C144.748 240.342 143.404 241.182 141.682 241.182C139.708 241.182 138.602 239.88 138.448 238.564H139.792C140.002 239.53 140.59 240.104 141.71 240.104C142.676 240.104 143.46 239.698 143.46 238.984C143.46 238.214 142.746 237.92 141.934 237.738L140.814 237.514C139.792 237.29 138.672 236.842 138.672 235.428C138.672 234.098 140.016 233.328 141.682 233.328C143.32 233.328 144.412 234.224 144.65 235.666Z" fill="white"/>
<path d="M145.658 257.654H139.862C139.904 259.278 141.08 260.062 142.186 260.062C143.306 260.062 143.922 259.558 144.244 258.816H145.56C145.224 260.104 144.02 261.182 142.186 261.182C139.806 261.182 138.49 259.474 138.49 257.248C138.49 254.854 140.086 253.342 142.144 253.342C144.454 253.342 145.812 255.26 145.658 257.654ZM142.144 254.434C141.024 254.434 139.988 255.05 139.876 256.562H144.314C144.272 255.498 143.502 254.434 142.144 254.434ZM152.812 255.666H151.482C151.272 254.77 150.6 254.42 149.704 254.42C148.962 254.42 148.122 254.686 148.122 255.372C148.122 255.974 148.542 256.24 149.27 256.394L150.334 256.604C151.706 256.856 152.91 257.402 152.91 258.844C152.91 260.342 151.566 261.182 149.844 261.182C147.87 261.182 146.764 259.88 146.61 258.564H147.954C148.164 259.53 148.752 260.104 149.872 260.104C150.838 260.104 151.622 259.698 151.622 258.984C151.622 258.214 150.908 257.92 150.096 257.738L148.976 257.514C147.954 257.29 146.834 256.842 146.834 255.428C146.834 254.098 148.178 253.328 149.844 253.328C151.482 253.328 152.574 254.224 152.812 255.666Z" fill="white"/>
<rect x="93" y="228" width="38" height="38" rx="3" fill="#0076DE"/>
<path d="M104.264 238.6H106.952L111.776 253.48L116.504 238.6H119.072L113.168 256H110.24L104.264 238.6Z" fill="white"/>
<rect x="93" y="96" width="38" height="38" rx="3" fill="#0076DE"/>
<path d="M104.264 106.6H106.952L111.776 121.48L116.504 106.6H119.072L113.168 124H110.24L104.264 106.6Z" fill="white"/>
<path d="M22.85 36.195H21.575V34.455H22.685C23.27 34.455 23.585 34.335 23.885 33.87L24.05 33.615L20.075 25.125H22.415L25.145 31.395L27.59 25.125H29.945L26.075 33.93C25.475 35.31 24.65 36.195 22.85 36.195ZM34.1192 36H32.0492V29.565H29.4242V27.93H36.7442V29.565H34.1192V36ZM42.1529 36H37.9979V27.93H41.9729C43.6979 27.93 45.0629 28.35 45.0629 30.03C45.0629 30.825 44.7179 31.38 44.0429 31.695C44.8229 31.95 45.3929 32.52 45.3929 33.54C45.3929 35.31 44.0279 36 42.1529 36ZM40.0679 32.535V34.38H41.9429C42.9029 34.38 43.3829 34.065 43.3829 33.45C43.3829 32.805 42.8879 32.535 41.9279 32.535H40.0679ZM40.0679 29.55V31.185H41.8229C42.6029 31.185 43.0679 30.93 43.0679 30.33C43.0679 29.715 42.6029 29.55 41.8079 29.55H40.0679ZM54.4013 32.535H48.4463C48.5663 33.915 49.4963 34.59 50.4863 34.59C51.1313 34.59 51.7613 34.365 52.1813 33.66H54.3113C53.8763 34.86 52.7063 36.195 50.5013 36.195C47.9063 36.195 46.3913 34.26 46.3913 31.935C46.3913 29.535 48.0563 27.75 50.4413 27.75C52.9313 27.75 54.4763 29.685 54.4013 32.535ZM50.4263 29.265C49.6463 29.265 48.6413 29.745 48.4763 31.11H52.3013C52.2563 29.745 51.2963 29.265 50.4263 29.265ZM59.7247 34.605C60.8047 34.605 61.5697 33.555 61.5697 31.98C61.5697 30.405 60.8047 29.34 59.7247 29.34C58.5847 29.34 57.8347 30.345 57.8347 31.965C57.8347 33.63 58.5847 34.605 59.7247 34.605ZM57.9097 38.625H55.8397V27.93H57.9097V28.965C58.3447 28.2 59.2147 27.75 60.2347 27.75C62.1847 27.75 63.7447 29.43 63.7447 31.965C63.7447 34.545 62.1397 36.195 60.2197 36.195C59.3797 36.195 58.4347 35.88 57.9097 34.98V38.625ZM66.2735 36H63.8885L66.8585 31.74L64.0985 27.93H66.4085L68.9885 31.71H69.0035V27.93H71.0735V31.71H71.0885L73.6985 27.93H76.0835L73.2635 31.74L76.2335 36H73.8035L71.0885 31.905H71.0735V36H69.0035V31.905H68.9885L66.2735 36ZM78.4536 37.875H76.5336V34.365H76.9836C77.7636 34.365 78.1536 33.69 78.3186 30.33L78.4236 27.93H84.6186V34.365H85.8636V37.875H83.9436V36H78.4536V37.875ZM79.3986 34.365H82.5486V29.565H80.2836L80.1936 31.035C80.0736 32.715 79.9686 33.465 79.3986 34.365ZM94.4648 32.535H88.5098C88.6298 33.915 89.5598 34.59 90.5498 34.59C91.1948 34.59 91.8248 34.365 92.2448 33.66H94.3748C93.9398 34.86 92.7698 36.195 90.5648 36.195C87.9698 36.195 86.4548 34.26 86.4548 31.935C86.4548 29.535 88.1198 27.75 90.5048 27.75C92.9948 27.75 94.5398 29.685 94.4648 32.535ZM90.4898 29.265C89.7098 29.265 88.7048 29.745 88.5398 31.11H92.3648C92.3198 29.745 91.3598 29.265 90.4898 29.265ZM97.9732 36H95.9032V27.93H97.9732V31.05H101.333V27.93H103.403V36H101.333V32.685H97.9732V36ZM107.539 36H105.469V27.93H107.494V33.435L111.049 27.93H113.119V36H111.094V30.69L107.539 36ZM122.575 32.535H116.62C116.74 33.915 117.67 34.59 118.66 34.59C119.305 34.59 119.935 34.365 120.355 33.66H122.485C122.05 34.86 120.88 36.195 118.675 36.195C116.08 36.195 114.565 34.26 114.565 31.935C114.565 29.535 116.23 27.75 118.615 27.75C121.105 27.75 122.65 29.685 122.575 32.535ZM118.6 29.265C117.82 29.265 116.815 29.745 116.65 31.11H120.475C120.43 29.745 119.47 29.265 118.6 29.265Z" fill="#0F0F0F"/>
<path d="M178 1H436C440.971 1 445 5.02944 445 10V305C445 309.971 440.971 314 436 314H178V1Z" stroke="#E3E3E3" stroke-width="2"/>
<path d="M303.512 58.6V76H301.064V58.6H303.512ZM307.904 95.088H310.184L305.576 108.552C304.616 111.336 303.992 112.2 301.088 112.2H299.96V110.376H300.848C302.288 110.376 302.984 110.28 303.56 108.264L303.656 108L299 95.088H301.424L304.712 105.048L307.904 95.088ZM313.161 101.592C313.161 105.048 315.033 106.392 317.025 106.392C319.017 106.392 320.889 104.904 320.889 101.592C320.889 98.136 319.017 96.792 317.025 96.792C315.033 96.792 313.161 98.064 313.161 101.592ZM317.025 94.872C320.025 94.872 323.217 96.912 323.217 101.592C323.217 106.272 320.025 108.312 317.025 108.312C314.025 108.312 310.833 106.272 310.833 101.592C310.833 96.912 314.025 94.872 317.025 94.872ZM333.822 108V106.152C333.078 107.376 331.902 108.312 329.766 108.312C326.79 108.312 325.638 106.296 325.638 103.344V95.088H327.822V102.696C327.822 104.688 328.134 106.416 330.534 106.416C332.622 106.416 333.822 104.976 333.822 102.192V95.088H336.006V108H333.822ZM303.944 136.64L306.512 127.088H308.768L311.336 136.64L313.808 127.088H316.16L312.44 140H310.448L307.592 129.608L304.832 140H302.84L299.12 127.088H301.472L303.944 136.64ZM329.284 134.264H319.348C319.42 137.048 321.436 138.392 323.332 138.392C325.252 138.392 326.308 137.528 326.86 136.256H329.116C328.54 138.464 326.476 140.312 323.332 140.312C319.252 140.312 316.996 137.384 316.996 133.568C316.996 129.464 319.732 126.872 323.26 126.872C327.22 126.872 329.548 130.16 329.284 134.264ZM323.26 128.744C321.34 128.744 319.564 129.8 319.372 132.392H326.98C326.908 130.568 325.588 128.744 323.26 128.744ZM301.352 159.088V155.848H303.536V159.088H305.984V160.84H303.536V168.496C303.536 169.84 303.632 170.176 304.88 170.176H305.984V172H304.4C301.928 172 301.352 171.448 301.352 168.76V160.84H299.312V159.088H301.352ZM310.951 154.6V161.032C311.695 159.808 312.943 158.872 315.127 158.872C318.247 158.872 319.375 160.888 319.375 163.84V172H317.191V164.488C317.191 162.496 316.855 160.768 314.359 160.768C312.247 160.768 310.951 162.208 310.951 164.992V172H308.767V154.6H310.951ZM334.042 166.264H324.106C324.178 169.048 326.194 170.392 328.09 170.392C330.01 170.392 331.066 169.528 331.618 168.256H333.874C333.298 170.464 331.234 172.312 328.09 172.312C324.01 172.312 321.754 169.384 321.754 165.568C321.754 161.464 324.49 158.872 328.018 158.872C331.978 158.872 334.306 162.16 334.042 166.264ZM328.018 160.744C326.098 160.744 324.322 161.8 324.13 164.392H331.738C331.666 162.568 330.346 160.744 328.018 160.744ZM343.646 159.088H345.926L341.318 172.552C340.358 175.336 339.734 176.2 336.83 176.2H335.702V174.376H336.59C338.03 174.376 338.726 174.28 339.302 172.264L339.398 172L334.742 159.088H337.166L340.454 169.048L343.646 159.088Z" fill="#1E1E1E"/>
<path d="M302.912 206.6V213.032C303.656 211.808 304.904 210.872 307.088 210.872C310.208 210.872 311.336 212.888 311.336 215.84V224H309.152V216.488C309.152 214.496 308.816 212.768 306.32 212.768C304.208 212.768 302.912 214.208 302.912 216.992V224H300.728V206.6H302.912ZM326.003 218.264H316.067C316.139 221.048 318.155 222.392 320.051 222.392C321.971 222.392 323.027 221.528 323.579 220.256H325.835C325.259 222.464 323.195 224.312 320.051 224.312C315.971 224.312 313.715 221.384 313.715 217.568C313.715 213.464 316.451 210.872 319.979 210.872C323.939 210.872 326.267 214.16 326.003 218.264ZM319.979 212.744C318.059 212.744 316.283 213.8 316.091 216.392H323.699C323.627 214.568 322.307 212.744 319.979 212.744ZM310.4 246.856H308.12C307.76 245.32 306.608 244.72 305.072 244.72C303.8 244.72 302.36 245.176 302.36 246.352C302.36 247.384 303.08 247.84 304.328 248.104L306.152 248.464C308.504 248.896 310.568 249.832 310.568 252.304C310.568 254.872 308.264 256.312 305.312 256.312C301.928 256.312 300.032 254.08 299.768 251.824H302.072C302.432 253.48 303.44 254.464 305.36 254.464C307.016 254.464 308.36 253.768 308.36 252.544C308.36 251.224 307.136 250.72 305.744 250.408L303.824 250.024C302.072 249.64 300.152 248.872 300.152 246.448C300.152 244.168 302.456 242.848 305.312 242.848C308.12 242.848 309.992 244.384 310.4 246.856ZM315.521 238.6V245.032C316.265 243.808 317.513 242.872 319.697 242.872C322.817 242.872 323.945 244.888 323.945 247.84V256H321.761V248.488C321.761 246.496 321.425 244.768 318.929 244.768C316.817 244.768 315.521 246.208 315.521 248.992V256H313.337V238.6H315.521ZM338.612 250.264H328.676C328.748 253.048 330.764 254.392 332.66 254.392C334.58 254.392 335.636 253.528 336.188 252.256H338.444C337.868 254.464 335.804 256.312 332.66 256.312C328.58 256.312 326.324 253.384 326.324 249.568C326.324 245.464 329.06 242.872 332.588 242.872C336.548 242.872 338.876 246.16 338.612 250.264ZM332.588 244.744C330.668 244.744 328.892 245.8 328.7 248.392H336.308C336.236 246.568 334.916 244.744 332.588 244.744ZM300.728 275.088H302.912V288H300.728V275.088ZM300.728 270.6H302.912V273.24H300.728V270.6ZM307 275.088V271.848H309.184V275.088H311.632V276.84H309.184V284.496C309.184 285.84 309.28 286.176 310.528 286.176H311.632V288H310.048C307.576 288 307 287.448 307 284.76V276.84H304.96V275.088H307Z" fill="#1E1E1E"/>
<rect x="197" y="96" width="54" height="38" rx="3" fill="#0076DE"/>
<path d="M221.8 115.288C221.8 109.384 218.32 108.664 214.744 108.664H212.512V121.936H214.744C218.32 121.936 221.8 121.216 221.8 115.288ZM210.064 106.6H214.816C220.312 106.6 224.296 108.688 224.296 115.288C224.296 121.912 220.312 124 214.816 124H210.064V106.6ZM228.747 117.592C228.747 121.048 230.619 122.392 232.611 122.392C234.603 122.392 236.475 120.904 236.475 117.592C236.475 114.136 234.603 112.792 232.611 112.792C230.619 112.792 228.747 114.064 228.747 117.592ZM232.611 110.872C235.611 110.872 238.803 112.912 238.803 117.592C238.803 122.272 235.611 124.312 232.611 124.312C229.611 124.312 226.419 122.272 226.419 117.592C226.419 112.912 229.611 110.872 232.611 110.872Z" fill="white"/>
<path d="M198.155 36V25.125H202.385C204.29 25.125 206.345 25.725 206.345 27.96C206.345 28.98 205.67 29.895 205.115 30.255C205.955 30.66 206.735 31.29 206.735 32.79C206.735 35.13 204.8 36 202.565 36H198.155ZM200.3 31.23V34.32H202.67C203.93 34.32 204.545 33.795 204.545 32.79C204.545 31.77 203.915 31.23 202.58 31.23H200.3ZM200.3 26.805V29.61H202.52C203.54 29.61 204.14 29.13 204.14 28.17C204.14 27.315 203.525 26.805 202.52 26.805H200.3ZM211.855 29.37C210.715 29.37 209.905 30.285 209.905 31.98C209.905 33.675 210.715 34.575 211.855 34.575C212.995 34.575 213.805 33.675 213.805 31.98C213.805 30.285 212.995 29.37 211.855 29.37ZM211.855 36.195C209.815 36.195 207.805 34.8 207.805 31.98C207.805 29.145 209.815 27.75 211.855 27.75C213.895 27.75 215.905 29.145 215.905 31.98C215.905 34.8 213.895 36.195 211.855 36.195ZM219.397 36H217.327V27.93H224.542V36H222.472V29.565H219.397V36ZM230.499 34.605C231.579 34.605 232.344 33.555 232.344 31.98C232.344 30.405 231.579 29.34 230.499 29.34C229.359 29.34 228.609 30.345 228.609 31.965C228.609 33.63 229.359 34.605 230.499 34.605ZM228.684 38.625H226.614V27.93H228.684V28.965C229.119 28.2 229.989 27.75 231.009 27.75C232.959 27.75 234.519 29.43 234.519 31.965C234.519 34.545 232.914 36.195 230.994 36.195C230.154 36.195 229.209 35.88 228.684 34.98V38.625ZM239.482 29.37C238.342 29.37 237.532 30.285 237.532 31.98C237.532 33.675 238.342 34.575 239.482 34.575C240.622 34.575 241.432 33.675 241.432 31.98C241.432 30.285 240.622 29.37 239.482 29.37ZM239.482 36.195C237.442 36.195 235.432 34.8 235.432 31.98C235.432 29.145 237.442 27.75 239.482 27.75C241.522 27.75 243.532 29.145 243.532 31.98C243.532 34.8 241.522 36.195 239.482 36.195ZM248.491 27.75C250.186 27.75 251.866 28.695 252.151 30.69H250.171C250.006 29.91 249.286 29.355 248.491 29.355C247.411 29.355 246.556 30.27 246.556 31.95C246.556 33.645 247.366 34.59 248.506 34.59C249.226 34.59 249.961 34.215 250.246 33.255H252.226C251.746 35.46 250.081 36.195 248.401 36.195C245.986 36.195 244.441 34.425 244.441 31.98C244.441 29.52 246.076 27.75 248.491 27.75Z" fill="#0F0F0F"/>
<rect x="366.5" y="155.5" width="37" height="37" rx="2.5" stroke="#1E1E1E"/>
<path d="M377.264 165.6H379.952L384.776 180.48L389.504 165.6H392.072L386.168 183H383.24L377.264 165.6Z" fill="#1E1E1E"/>
<path d="M420.192 164.288C422.904 164.288 425.616 165.608 425.616 168.512C425.616 170.816 424.008 172.424 422.376 173.456C420.888 174.416 420.36 174.848 420.36 176.168V176.912H418.128V176.096C418.128 174.08 419.088 173.216 421.104 171.92C422.352 171.128 423.336 170.168 423.336 168.608C423.336 167.072 421.992 166.112 420.144 166.112C417.48 166.112 416.568 167.984 416.496 169.448H414.312C414.312 166.328 416.808 164.288 420.192 164.288ZM420.672 182H417.912V179.24H420.672V182Z" fill="#1E1E1E"/>
<rect x="197" y="228" width="82" height="38" rx="3" fill="#0076DE"/>
<rect x="239" y="238" width="29" height="22" rx="3" fill="#589E07"/>
<path d="M221.8 247.288C221.8 241.384 218.32 240.664 214.744 240.664H212.512V253.936H214.744C218.32 253.936 221.8 253.216 221.8 247.288ZM210.064 238.6H214.816C220.312 238.6 224.296 240.688 224.296 247.288C224.296 253.912 220.312 256 214.816 256H210.064V238.6ZM228.747 249.592C228.747 253.048 230.619 254.392 232.611 254.392C234.603 254.392 236.475 252.904 236.475 249.592C236.475 246.136 234.603 244.792 232.611 244.792C230.619 244.792 228.747 246.064 228.747 249.592ZM232.611 242.872C235.611 242.872 238.803 244.912 238.803 249.592C238.803 254.272 235.611 256.312 232.611 256.312C229.611 256.312 226.419 254.272 226.419 249.592C226.419 244.912 229.611 242.872 232.611 242.872ZM253.003 250.264H243.067C243.139 253.048 245.155 254.392 247.051 254.392C248.971 254.392 250.027 253.528 250.579 252.256H252.835C252.259 254.464 250.195 256.312 247.051 256.312C242.971 256.312 240.715 253.384 240.715 249.568C240.715 245.464 243.451 242.872 246.979 242.872C250.939 242.872 253.267 246.16 253.003 250.264ZM246.979 244.744C245.059 244.744 243.283 245.8 243.091 248.392H250.699C250.627 246.568 249.307 244.744 246.979 244.744ZM265.267 246.856H262.987C262.627 245.32 261.475 244.72 259.939 244.72C258.667 244.72 257.227 245.176 257.227 246.352C257.227 247.384 257.947 247.84 259.195 248.104L261.019 248.464C263.371 248.896 265.435 249.832 265.435 252.304C265.435 254.872 263.131 256.312 260.179 256.312C256.795 256.312 254.899 254.08 254.635 251.824H256.939C257.299 253.48 258.307 254.464 260.227 254.464C261.883 254.464 263.227 253.768 263.227 252.544C263.227 251.224 262.003 250.72 260.611 250.408L258.691 250.024C256.939 249.64 255.019 248.872 255.019 246.448C255.019 244.168 257.323 242.848 260.179 242.848C262.987 242.848 264.859 244.384 265.267 246.856Z" fill="white"/>
</svg>
