<svg width="471" height="119" viewBox="0 0 471 119" fill="none" xmlns="http://www.w3.org/2000/svg">
	<rect x="318.5" y="32.5" width="68" height="36" rx="18" stroke="#1E1E1E"/>
	<rect x="152" y="32" width="88" height="37" rx="18.5" fill="#0076DE"/>
	<rect y="36" width="29" height="29" rx="14.5" fill="#C8C8C8"/>
	<rect x="392.5" y="32.5" width="66" height="36" rx="18" stroke="#1E1E1E"/>
	<rect x="39.5" y="32.5" width="107" height="36" rx="18" stroke="#1E1E1E"/>
	<path
		d="M66.4 59H63.7L58.7 43.2V59H56.15V40.875H60.425L65.05 55.975L69.675 40.875H73.95V59H71.4V43.2L66.4 59ZM86.3697 53.375V52.525C82.2447 52.925 79.6197 53.55 79.6197 55.4C79.6197 56.675 80.5947 57.525 82.2197 57.525C84.3447 57.525 86.3697 56.55 86.3697 53.375ZM81.7197 59.325C79.1947 59.325 77.0947 57.925 77.0947 55.45C77.0947 52.275 80.6947 51.325 86.1947 50.725V50.4C86.1947 47.925 84.8447 47.125 83.1447 47.125C81.2447 47.125 80.1697 48.125 80.0697 49.8H77.7197C77.9197 46.9 80.5197 45.275 83.1197 45.275C86.8447 45.275 88.4947 47.025 88.4697 50.825L88.4447 53.925C88.4197 56.2 88.5197 57.725 88.7947 59H86.4947C86.4197 58.5 86.3447 57.95 86.3197 57.15C85.4947 58.55 84.1197 59.325 81.7197 59.325ZM101.935 49.475H99.5596C99.1846 47.875 97.9846 47.25 96.3846 47.25C95.0596 47.25 93.5596 47.725 93.5596 48.95C93.5596 50.025 94.3096 50.5 95.6096 50.775L97.5096 51.15C99.9596 51.6 102.11 52.575 102.11 55.15C102.11 57.825 99.7096 59.325 96.6346 59.325C93.1096 59.325 91.1346 57 90.8596 54.65H93.2596C93.6346 56.375 94.6846 57.4 96.6846 57.4C98.4096 57.4 99.8096 56.675 99.8096 55.4C99.8096 54.025 98.5346 53.5 97.0846 53.175L95.0846 52.775C93.2596 52.375 91.2596 51.575 91.2596 49.05C91.2596 46.675 93.6596 45.3 96.6346 45.3C99.5596 45.3 101.51 46.9 101.935 49.475ZM107.269 40.875V47.575C108.044 46.3 109.344 45.325 111.619 45.325C114.869 45.325 116.044 47.425 116.044 50.5V59H113.769V51.175C113.769 49.1 113.419 47.3 110.819 47.3C108.619 47.3 107.269 48.8 107.269 51.7V59H104.994V40.875H107.269ZM127.922 53.375V52.525C123.797 52.925 121.172 53.55 121.172 55.4C121.172 56.675 122.147 57.525 123.772 57.525C125.897 57.525 127.922 56.55 127.922 53.375ZM123.272 59.325C120.747 59.325 118.647 57.925 118.647 55.45C118.647 52.275 122.247 51.325 127.747 50.725V50.4C127.747 47.925 126.397 47.125 124.697 47.125C122.797 47.125 121.722 48.125 121.622 49.8H119.272C119.472 46.9 122.072 45.275 124.672 45.275C128.397 45.275 130.047 47.025 130.022 50.825L129.997 53.925C129.972 56.2 130.072 57.725 130.347 59H128.047C127.972 58.5 127.897 57.95 127.872 57.15C127.047 58.55 125.672 59.325 123.272 59.325Z"
		fill="black"/>
	<path
		d="M178.025 47.675V40.875H180.3V59H178.025V56.975C177.2 58.4 175.8 59.325 173.625 59.325C170.525 59.325 167.875 56.8 167.875 52.325C167.875 47.925 170.525 45.325 173.625 45.325C175.8 45.325 177.2 46.25 178.025 47.675ZM178.125 52.325C178.125 48.775 176.225 47.275 174.2 47.275C171.875 47.275 170.35 49.1 170.35 52.325C170.35 55.55 171.875 57.375 174.2 57.375C176.225 57.375 178.125 55.875 178.125 52.325ZM185.438 52.325C185.438 55.925 187.388 57.325 189.463 57.325C191.538 57.325 193.488 55.775 193.488 52.325C193.488 48.725 191.538 47.325 189.463 47.325C187.388 47.325 185.438 48.65 185.438 52.325ZM189.463 45.325C192.588 45.325 195.913 47.45 195.913 52.325C195.913 57.2 192.588 59.325 189.463 59.325C186.338 59.325 183.013 57.2 183.013 52.325C183.013 47.45 186.338 45.325 189.463 45.325ZM210.704 53.025H200.354C200.429 55.925 202.529 57.325 204.504 57.325C206.504 57.325 207.604 56.425 208.179 55.1H210.529C209.929 57.4 207.779 59.325 204.504 59.325C200.254 59.325 197.904 56.275 197.904 52.3C197.904 48.025 200.754 45.325 204.429 45.325C208.554 45.325 210.979 48.75 210.704 53.025ZM204.429 47.275C202.429 47.275 200.579 48.375 200.379 51.075H208.304C208.229 49.175 206.854 47.275 204.429 47.275ZM223.479 49.475H221.104C220.729 47.875 219.529 47.25 217.929 47.25C216.604 47.25 215.104 47.725 215.104 48.95C215.104 50.025 215.854 50.5 217.154 50.775L219.054 51.15C221.504 51.6 223.654 52.575 223.654 55.15C223.654 57.825 221.254 59.325 218.179 59.325C214.654 59.325 212.679 57 212.404 54.65H214.804C215.179 56.375 216.229 57.4 218.229 57.4C219.954 57.4 221.354 56.675 221.354 55.4C221.354 54.025 220.079 53.5 218.629 53.175L216.629 52.775C214.804 52.375 212.804 51.575 212.804 49.05C212.804 46.675 215.204 45.3 218.179 45.3C221.104 45.3 223.054 46.9 223.479 49.475Z"
		fill="white"/>
	<path
		d="M337.075 40.875V59H334.8V40.875H337.075ZM340.684 45.55H342.959V59H340.684V45.55ZM340.684 40.875H342.959V43.625H340.684V40.875ZM346.568 40.875H348.843V51.6L354.268 45.55H357.068L351.943 51.125L357.768 59H354.993L350.418 52.8L348.843 54.5V59H346.568V40.875ZM370.698 53.025H360.348C360.423 55.925 362.523 57.325 364.498 57.325C366.498 57.325 367.598 56.425 368.173 55.1H370.523C369.923 57.4 367.773 59.325 364.498 59.325C360.248 59.325 357.898 56.275 357.898 52.3C357.898 48.025 360.748 45.325 364.423 45.325C368.548 45.325 370.973 48.75 370.698 53.025ZM364.423 47.275C362.423 47.275 360.573 48.375 360.373 51.075H368.298C368.223 49.175 366.848 47.275 364.423 47.275Z"
		fill="black"/>
	<path
		d="M14.436 43.716C16.848 43.716 18.576 44.922 18.576 47.136C18.576 50.16 15.426 52.824 11.772 55.47H18.936V57H9.54V55.524C14.148 52.122 16.848 49.674 16.848 47.352C16.848 45.984 15.966 45.084 14.4 45.084C12.996 45.084 11.646 45.858 11.592 48.018H9.9C9.846 45.426 11.646 43.716 14.436 43.716Z"
		fill="white"/>
	<path
		d="M409.45 45.55V42.175H411.725V45.55H414.275V47.375H411.725V55.35C411.725 56.75 411.825 57.1 413.125 57.1H414.275V59H412.625C410.05 59 409.45 58.425 409.45 55.625V47.375H407.325V45.55H409.45ZM428.683 53.025H418.333C418.408 55.925 420.508 57.325 422.483 57.325C424.483 57.325 425.583 56.425 426.158 55.1H428.508C427.908 57.4 425.758 59.325 422.483 59.325C418.233 59.325 415.883 56.275 415.883 52.3C415.883 48.025 418.733 45.325 422.408 45.325C426.533 45.325 428.958 48.75 428.683 53.025ZM422.408 47.275C420.408 47.275 418.558 48.375 418.358 51.075H426.283C426.208 49.175 424.833 47.275 422.408 47.275ZM439.687 53.375V52.525C435.562 52.925 432.937 53.55 432.937 55.4C432.937 56.675 433.912 57.525 435.537 57.525C437.662 57.525 439.687 56.55 439.687 53.375ZM435.037 59.325C432.512 59.325 430.412 57.925 430.412 55.45C430.412 52.275 434.012 51.325 439.512 50.725V50.4C439.512 47.925 438.162 47.125 436.462 47.125C434.562 47.125 433.487 48.125 433.387 49.8H431.037C431.237 46.9 433.837 45.275 436.437 45.275C440.162 45.275 441.812 47.025 441.787 50.825L441.762 53.925C441.737 56.2 441.837 57.725 442.112 59H439.812C439.737 58.5 439.662 57.95 439.637 57.15C438.812 58.55 437.437 59.325 435.037 59.325Z"
		fill="black"/>
	<path d="M468.5 59H465.625V56.125H468.5V59Z" fill="black"/>
	<path
		d="M7.084 16H5.572L2.772 7.152V16H1.344V5.85H3.738L6.328 14.306L8.918 5.85H11.312V16H9.884V7.152L7.084 16ZM18.4142 12.85V12.374C16.1042 12.598 14.6342 12.948 14.6342 13.984C14.6342 14.698 15.1802 15.174 16.0902 15.174C17.2802 15.174 18.4142 14.628 18.4142 12.85ZM15.8102 16.182C14.3962 16.182 13.2202 15.398 13.2202 14.012C13.2202 12.234 15.2362 11.702 18.3162 11.366V11.184C18.3162 9.798 17.5602 9.35 16.6082 9.35C15.5442 9.35 14.9422 9.91 14.8862 10.848H13.5702C13.6822 9.224 15.1382 8.314 16.5942 8.314C18.6802 8.314 19.6042 9.294 19.5902 11.422L19.5762 13.158C19.5622 14.432 19.6182 15.286 19.7722 16H18.4842C18.4422 15.72 18.4002 15.412 18.3862 14.964C17.9242 15.748 17.1542 16.182 15.8102 16.182ZM30.8405 8.468V16H21.5585V8.468H22.8325V14.894H25.5625V8.468H26.8365V14.894H29.5665V8.468H30.8405ZM37.6778 12.85V12.374C35.3678 12.598 33.8978 12.948 33.8978 13.984C33.8978 14.698 34.4438 15.174 35.3538 15.174C36.5438 15.174 37.6778 14.628 37.6778 12.85ZM35.0738 16.182C33.6598 16.182 32.4838 15.398 32.4838 14.012C32.4838 12.234 34.4998 11.702 37.5798 11.366V11.184C37.5798 9.798 36.8238 9.35 35.8718 9.35C34.8078 9.35 34.2058 9.91 34.1498 10.848H32.8338C32.9458 9.224 34.4018 8.314 35.8578 8.314C37.9438 8.314 38.8678 9.294 38.8538 11.422L38.8398 13.158C38.8258 14.432 38.8818 15.286 39.0358 16H37.7478C37.7058 15.72 37.6638 15.412 37.6498 14.964C37.1878 15.748 36.4178 16.182 35.0738 16.182ZM50.4164 16H49.1424V12.71H45.4184V16H44.1444V8.468H45.4184V11.604H49.1424V8.468H50.4164V16ZM59.1463 12.654H53.3503C53.3923 14.278 54.5683 15.062 55.6743 15.062C56.7943 15.062 57.4103 14.558 57.7323 13.816H59.0483C58.7123 15.104 57.5083 16.182 55.6743 16.182C53.2943 16.182 51.9783 14.474 51.9783 12.248C51.9783 9.854 53.5743 8.342 55.6323 8.342C57.9423 8.342 59.3003 10.26 59.1463 12.654ZM55.6323 9.434C54.5123 9.434 53.4763 10.05 53.3643 11.562H57.8023C57.7603 10.498 56.9903 9.434 55.6323 9.434ZM69.987 8.468V16H68.713V9.574H66.179L66.067 11.394C65.885 14.432 65.227 16 63.477 16H63.239V14.894H63.379C64.051 14.894 64.695 14.166 64.849 11.044L64.961 8.468H69.987ZM78.3324 8.342C80.0824 8.342 81.9444 9.532 81.9444 12.262C81.9444 14.992 80.0824 16.182 78.3324 16.182C76.7644 16.182 75.0984 15.118 74.9164 12.71H73.4184V16H72.1444V8.468H73.4184V11.604H74.9444C75.2104 9.322 76.7924 8.342 78.3324 8.342ZM78.3324 15.062C79.4944 15.062 80.5864 14.194 80.5864 12.262C80.5864 10.246 79.4944 9.462 78.3324 9.462C77.2824 9.462 76.2604 10.204 76.2604 12.262C76.2604 14.278 77.2824 15.062 78.3324 15.062ZM86.9348 8.902C88.6428 8.902 90.1128 10.092 90.1128 12.472C90.1128 14.894 88.5588 16.182 86.7108 16.182C84.7648 16.182 83.1688 14.824 83.1688 12.08V11.212C83.2108 8.496 84.1068 6.914 87.1308 6.312L89.6088 5.822V6.956L87.2008 7.474C85.3668 7.88 84.4848 8.566 84.3028 10.442C84.8068 9.392 85.8148 8.902 86.9348 8.902ZM86.7108 15.076C87.9428 15.076 88.7548 14.138 88.7548 12.5C88.7548 10.848 87.8868 10.008 86.7248 10.008C85.5768 10.008 84.5408 10.792 84.5408 12.486C84.5408 14.082 85.4368 15.076 86.7108 15.076ZM96.7792 16V10.316L92.8872 16H91.6132V8.468H92.8872V14.152L96.7792 8.468H98.0532V16H96.7792ZM105.771 9.574H103.195V16H101.921V9.574H99.3448V8.468H105.771V9.574ZM115.929 16H114.655V12.948C113.773 13.158 113.101 13.256 112.415 13.256C110.833 13.256 110.007 12.556 110.007 10.918V8.468H111.281V10.652C111.281 11.772 111.813 12.15 112.877 12.15C113.367 12.15 113.955 12.066 114.655 11.898V8.468H115.929V16ZM122.758 12.85V12.374C120.448 12.598 118.978 12.948 118.978 13.984C118.978 14.698 119.524 15.174 120.434 15.174C121.624 15.174 122.758 14.628 122.758 12.85ZM120.154 16.182C118.74 16.182 117.564 15.398 117.564 14.012C117.564 12.234 119.58 11.702 122.66 11.366V11.184C122.66 9.798 121.904 9.35 120.952 9.35C119.888 9.35 119.286 9.91 119.23 10.848H117.914C118.026 9.224 119.482 8.314 120.938 8.314C123.024 8.314 123.948 9.294 123.934 11.422L123.92 13.158C123.906 14.432 123.962 15.286 124.116 16H122.828C122.786 15.72 122.744 15.412 122.73 14.964C122.268 15.748 121.498 16.182 120.154 16.182ZM130.41 5.85H131.404C131.292 6.69 130.76 7.544 129.164 7.544C127.624 7.544 127.036 6.69 126.966 5.85H127.96C128.016 6.298 128.352 6.704 129.178 6.704C130.004 6.704 130.354 6.298 130.41 5.85ZM131.068 16V10.316L127.176 16H125.902V8.468H127.176V14.152L131.068 8.468H132.342V16H131.068ZM135.944 16H134.334V14.39H135.944V16Z"
		fill="#8E8E8E"/>
	<path
		d="M197.354 77.6464C197.158 77.4512 196.842 77.4512 196.646 77.6464L193.464 80.8284C193.269 81.0237 193.269 81.3403 193.464 81.5355C193.66 81.7308 193.976 81.7308 194.172 81.5355L197 78.7071L199.828 81.5355C200.024 81.7308 200.34 81.7308 200.536 81.5355C200.731 81.3403 200.731 81.0237 200.536 80.8284L197.354 77.6464ZM196.5 78C196.5 78.7118 196.555 79.4183 196.662 80.1185L197.651 79.9667C197.551 79.3162 197.5 78.6605 197.5 78H196.5ZM197.892 84.1592C198.456 85.3897 199.184 86.5914 200.065 87.7605L200.864 87.1589C200.022 86.0409 199.332 84.9007 198.801 83.7425L197.892 84.1592ZM202.845 90.8763C203.803 91.7997 204.859 92.6993 206.009 93.5731L206.614 92.777C205.492 91.9245 204.466 91.0502 203.539 90.1565L202.845 90.8763ZM209.415 95.9199C210.546 96.6289 211.741 97.3179 212.998 97.9855L213.467 97.1023C212.23 96.4452 211.055 95.7681 209.946 95.0727L209.415 95.9199ZM216.708 99.813C217.926 100.37 219.19 100.91 220.498 101.43L220.868 100.501C219.575 99.9865 218.326 99.4536 217.124 98.9036L216.708 99.813ZM224.362 102.87C225.636 103.314 226.945 103.742 228.286 104.152L228.579 103.196C227.249 102.789 225.952 102.365 224.691 101.926L224.362 102.87ZM232.237 105.284C233.542 105.634 234.873 105.969 236.229 106.287L236.457 105.313C235.111 104.997 233.79 104.666 232.496 104.319L232.237 105.284ZM240.252 107.167C241.58 107.438 242.93 107.694 244.299 107.934L244.472 106.949C243.111 106.71 241.771 106.456 240.452 106.188L240.252 107.167ZM248.361 108.591C249.702 108.79 251.06 108.975 252.434 109.144L252.556 108.152C251.19 107.983 249.84 107.8 248.508 107.601L248.361 108.591ZM256.52 109.599C257.872 109.733 259.237 109.853 260.616 109.958L260.692 108.961C259.321 108.857 257.963 108.737 256.619 108.604L256.52 109.599ZM264.719 110.225C266.078 110.298 267.447 110.357 268.827 110.402L268.859 109.402C267.487 109.358 266.124 109.299 264.773 109.227L264.719 110.225ZM272.938 110.489C273.623 110.496 274.311 110.5 275 110.5V109.5C274.314 109.5 273.63 109.496 272.949 109.489L272.938 110.489ZM275 110.5C275.689 110.5 276.377 110.496 277.062 110.489L277.051 109.489C276.37 109.496 275.686 109.5 275 109.5V110.5ZM281.173 110.402C282.553 110.357 283.922 110.298 285.281 110.225L285.227 109.227C283.876 109.299 282.513 109.358 281.141 109.402L281.173 110.402ZM289.384 109.958C290.763 109.853 292.128 109.733 293.48 109.599L293.381 108.604C292.037 108.737 290.679 108.857 289.308 108.961L289.384 109.958ZM297.566 109.144C298.94 108.975 300.298 108.79 301.639 108.591L301.492 107.601C300.16 107.8 298.81 107.983 297.444 108.152L297.566 109.144ZM305.701 107.934C307.07 107.694 308.42 107.438 309.748 107.167L309.548 106.188C308.229 106.456 306.889 106.71 305.528 106.949L305.701 107.934ZM313.771 106.287C315.127 105.969 316.458 105.634 317.763 105.284L317.504 104.319C316.21 104.666 314.889 104.997 313.543 105.313L313.771 106.287ZM321.714 104.152C323.055 103.742 324.364 103.314 325.638 102.87L325.309 101.926C324.048 102.365 322.751 102.789 321.421 103.196L321.714 104.152ZM329.502 101.43C330.81 100.91 332.074 100.37 333.292 99.813L332.876 98.9036C331.674 99.4536 330.425 99.9865 329.132 100.501L329.502 101.43ZM337.002 97.9855C338.259 97.3179 339.454 96.6289 340.585 95.9199L340.054 95.0727C338.945 95.7681 337.77 96.4452 336.533 97.1024L337.002 97.9855ZM343.991 93.5731C345.141 92.6993 346.197 91.7997 347.155 90.8763L346.461 90.1565C345.534 91.0502 344.508 91.9245 343.386 92.777L343.991 93.5731ZM349.935 87.7605C350.816 86.5914 351.544 85.3897 352.108 84.1592L351.199 83.7425C350.668 84.9007 349.978 86.0409 349.136 87.1589L349.935 87.7605ZM353.338 80.1185C353.445 79.4183 353.5 78.7118 353.5 78H352.5C352.5 78.6605 352.449 79.3162 352.349 79.9667L353.338 80.1185ZM197.707 77.2929C197.317 76.9024 196.683 76.9024 196.293 77.2929L189.929 83.6569C189.538 84.0474 189.538 84.6805 189.929 85.0711C190.319 85.4616 190.953 85.4616 191.343 85.0711L197 79.4142L202.657 85.0711C203.047 85.4616 203.681 85.4616 204.071 85.0711C204.462 84.6805 204.462 84.0474 204.071 83.6569L197.707 77.2929ZM196 78C196 78.7375 196.057 79.4693 196.168 80.1944L198.145 79.8909C198.049 79.2651 198 78.6348 198 78H196ZM197.437 84.3675C198.018 85.6342 198.766 86.8666 199.666 88.0613L201.263 86.858C200.44 85.7656 199.77 84.6562 199.255 83.5341L197.437 84.3675ZM202.498 91.2362C203.471 92.1745 204.543 93.0867 205.706 93.9711L206.916 92.379C205.809 91.5371 204.798 90.6754 203.886 89.7966L202.498 91.2362ZM209.149 96.3435C210.291 97.0593 211.497 97.7543 212.764 98.4271L213.702 96.6608C212.474 96.0088 211.31 95.3377 210.212 94.6491L209.149 96.3435ZM216.5 100.268C217.726 100.829 218.998 101.371 220.313 101.895L221.053 100.037C219.767 99.5249 218.526 98.9953 217.332 98.4489L216.5 100.268ZM224.197 103.342C225.478 103.788 226.792 104.218 228.14 104.63L228.725 102.717C227.401 102.313 226.111 101.891 224.855 101.454L224.197 103.342ZM232.108 105.767C233.417 106.119 234.754 106.454 236.115 106.774L236.572 104.826C235.23 104.512 233.915 104.181 232.626 103.836L232.108 105.767ZM240.152 107.657C241.485 107.929 242.839 108.185 244.213 108.426L244.558 106.456C243.202 106.218 241.866 105.965 240.552 105.698L240.152 107.657ZM248.287 109.085C249.632 109.285 250.994 109.47 252.372 109.64L252.617 107.655C251.256 107.487 249.91 107.304 248.581 107.107L248.287 109.085ZM256.47 110.097C257.826 110.231 259.196 110.352 260.578 110.457L260.73 108.463C259.363 108.359 258.009 108.24 256.668 108.106L256.47 110.097ZM264.692 110.725C266.055 110.798 267.428 110.857 268.811 110.901L268.875 108.902C267.506 108.858 266.148 108.8 264.8 108.727L264.692 110.725ZM272.933 110.989C273.62 110.996 274.309 111 275 111V109C274.316 109 273.634 108.996 272.954 108.989L272.933 110.989ZM275 111C275.691 111 276.38 110.996 277.067 110.989L277.046 108.989C276.366 108.996 275.684 109 275 109V111ZM281.189 110.901C282.572 110.857 283.945 110.798 285.308 110.725L285.2 108.727C283.852 108.8 282.494 108.858 281.125 108.902L281.189 110.901ZM289.422 110.457C290.804 110.352 292.174 110.231 293.53 110.097L293.332 108.106C291.991 108.24 290.637 108.359 289.27 108.463L289.422 110.457ZM297.628 109.64C299.006 109.47 300.368 109.285 301.713 109.085L301.419 107.107C300.09 107.304 298.744 107.487 297.383 107.655L297.628 109.64ZM305.787 108.426C307.161 108.185 308.515 107.929 309.848 107.657L309.448 105.698C308.134 105.965 306.798 106.218 305.442 106.456L305.787 108.426ZM313.885 106.774C315.246 106.454 316.583 106.119 317.892 105.767L317.374 103.836C316.085 104.181 314.77 104.512 313.428 104.826L313.885 106.774ZM321.86 104.63C323.207 104.218 324.522 103.788 325.803 103.342L325.144 101.454C323.889 101.891 322.599 102.313 321.275 102.717L321.86 104.63ZM329.687 101.895C331.002 101.371 332.274 100.829 333.5 100.268L332.668 98.4489C331.474 98.9953 330.233 99.5249 328.947 100.037L329.687 101.895ZM337.236 98.4271C338.503 97.7543 339.709 97.0593 340.851 96.3435L339.788 94.6491C338.69 95.3377 337.526 96.0088 336.298 96.6608L337.236 98.4271ZM344.294 93.9711C345.457 93.0867 346.529 92.1745 347.502 91.2362L346.114 89.7966C345.202 90.6754 344.191 91.5371 343.084 92.379L344.294 93.9711ZM350.334 88.0613C351.234 86.8666 351.982 85.6342 352.563 84.3675L350.745 83.5341C350.23 84.6562 349.56 85.7656 348.737 86.858L350.334 88.0613ZM353.832 80.1944C353.943 79.4693 354 78.7375 354 78H352C352 78.6348 351.951 79.2651 351.855 79.8908L353.832 80.1944Z"
		fill="url(#paint0_linear_336_25594)"/>
	<circle cx="275.5" cy="109.5" r="9.5" fill="#0076DE"/>
	<path d="M275.5 103V109.5L280.5 113.5" stroke="white"/>
	<rect x="245.5" y="32.5" width="67" height="36" rx="18" fill="#1E1E1E" stroke="#1E1E1E"/>
	<path
		d="M264.075 45.55V47.575C264.85 46.3 266.15 45.325 268.425 45.325C271.675 45.325 272.85 47.425 272.85 50.5V59H270.575V51.175C270.575 49.1 270.225 47.3 267.625 47.3C265.425 47.3 264.075 48.8 264.075 51.7V59H261.8V45.55H264.075ZM277.803 52.325C277.803 55.925 279.753 57.325 281.828 57.325C283.903 57.325 285.853 55.775 285.853 52.325C285.853 48.725 283.903 47.325 281.828 47.325C279.753 47.325 277.803 48.65 277.803 52.325ZM281.828 45.325C284.953 45.325 288.278 47.45 288.278 52.325C288.278 57.2 284.953 59.325 281.828 59.325C278.703 59.325 275.378 57.2 275.378 52.325C275.378 47.45 278.703 45.325 281.828 45.325ZM291.527 45.55V42.175H293.802V45.55H296.352V47.375H293.802V55.35C293.802 56.75 293.902 57.1 295.202 57.1H296.352V59H294.702C292.127 59 291.527 58.425 291.527 55.625V47.375H289.402V45.55H291.527Z"
		fill="white"/>
	<defs>
		<linearGradient id="paint0_linear_336_25594" x1="197" y1="78" x2="353" y2="78" gradientUnits="userSpaceOnUse">
			<stop stop-color="#0076DE"/>
			<stop offset="1" stop-color="#1E1E1E"/>
		</linearGradient>
	</defs>
</svg>
