<svg width="309" height="103" viewBox="0 0 309 103" fill="none" xmlns="http://www.w3.org/2000/svg">
<rect x="108.5" y="32.5" width="36" height="36" rx="18" stroke="#1E1E1E"/>
<rect x="150.5" y="32.5" width="68" height="36" rx="18" stroke="#1E1E1E"/>
<rect x="39" y="32" width="64" height="37" rx="18.5" fill="#0076DE"/>
<rect y="36" width="29" height="29" rx="14.5" fill="#C8C8C8"/>
<rect x="224.5" y="32.5" width="66" height="36" rx="18" stroke="#1E1E1E"/>
<path d="M127.7 40.875V59H125.15V40.875H127.7Z" fill="black"/>
<path d="M68.375 49.925C68.375 43.775 64.75 43.025 61.025 43.025H58.7V56.85H61.025C64.75 56.85 68.375 56.1 68.375 49.925ZM56.15 40.875H61.1C66.825 40.875 70.975 43.05 70.975 49.925C70.975 56.825 66.825 59 61.1 59H56.15V40.875ZM75.6117 52.325C75.6117 55.925 77.5617 57.325 79.6367 57.325C81.7117 57.325 83.6617 55.775 83.6617 52.325C83.6617 48.725 81.7117 47.325 79.6367 47.325C77.5617 47.325 75.6117 48.65 75.6117 52.325ZM79.6367 45.325C82.7617 45.325 86.0867 47.45 86.0867 52.325C86.0867 57.2 82.7617 59.325 79.6367 59.325C76.5117 59.325 73.1867 57.2 73.1867 52.325C73.1867 47.45 76.5117 45.325 79.6367 45.325Z" fill="white"/>
<path d="M169.075 40.875V59H166.8V40.875H169.075ZM172.684 45.55H174.959V59H172.684V45.55ZM172.684 40.875H174.959V43.625H172.684V40.875ZM178.568 40.875H180.843V51.6L186.268 45.55H189.068L183.943 51.125L189.768 59H186.993L182.418 52.8L180.843 54.5V59H178.568V40.875ZM202.698 53.025H192.348C192.423 55.925 194.523 57.325 196.498 57.325C198.498 57.325 199.598 56.425 200.173 55.1H202.523C201.923 57.4 199.773 59.325 196.498 59.325C192.248 59.325 189.898 56.275 189.898 52.3C189.898 48.025 192.748 45.325 196.423 45.325C200.548 45.325 202.973 48.75 202.698 53.025ZM196.423 47.275C194.423 47.275 192.573 48.375 192.373 51.075H200.298C200.223 49.175 198.848 47.275 196.423 47.275Z" fill="black"/>
<path d="M14.436 43.716C16.848 43.716 18.576 44.922 18.576 47.136C18.576 50.16 15.426 52.824 11.772 55.47H18.936V57H9.54V55.524C14.148 52.122 16.848 49.674 16.848 47.352C16.848 45.984 15.966 45.084 14.4 45.084C12.996 45.084 11.646 45.858 11.592 48.018H9.9C9.846 45.426 11.646 43.716 14.436 43.716Z" fill="white"/>
<path d="M241.45 45.55V42.175H243.725V45.55H246.275V47.375H243.725V55.35C243.725 56.75 243.825 57.1 245.125 57.1H246.275V59H244.625C242.05 59 241.45 58.425 241.45 55.625V47.375H239.325V45.55H241.45ZM260.683 53.025H250.333C250.408 55.925 252.508 57.325 254.483 57.325C256.483 57.325 257.583 56.425 258.158 55.1H260.508C259.908 57.4 257.758 59.325 254.483 59.325C250.233 59.325 247.883 56.275 247.883 52.3C247.883 48.025 250.733 45.325 254.408 45.325C258.533 45.325 260.958 48.75 260.683 53.025ZM254.408 47.275C252.408 47.275 250.558 48.375 250.358 51.075H258.283C258.208 49.175 256.833 47.275 254.408 47.275ZM271.687 53.375V52.525C267.562 52.925 264.937 53.55 264.937 55.4C264.937 56.675 265.912 57.525 267.537 57.525C269.662 57.525 271.687 56.55 271.687 53.375ZM267.037 59.325C264.512 59.325 262.412 57.925 262.412 55.45C262.412 52.275 266.012 51.325 271.512 50.725V50.4C271.512 47.925 270.162 47.125 268.462 47.125C266.562 47.125 265.487 48.125 265.387 49.8H263.037C263.237 46.9 265.837 45.275 268.437 45.275C272.162 45.275 273.812 47.025 273.787 50.825L273.762 53.925C273.737 56.2 273.837 57.725 274.112 59H271.812C271.737 58.5 271.662 57.95 271.637 57.15C270.812 58.55 269.437 59.325 267.037 59.325Z" fill="black"/>
<path d="M302.45 40.55C305.275 40.55 308.1 41.925 308.1 44.95C308.1 47.35 306.425 49.025 304.725 50.1C303.175 51.1 302.625 51.55 302.625 52.925V53.7H300.3V52.85C300.3 50.75 301.3 49.85 303.4 48.5C304.7 47.675 305.725 46.675 305.725 45.05C305.725 43.45 304.325 42.45 302.4 42.45C299.625 42.45 298.675 44.4 298.6 45.925H296.325C296.325 42.675 298.925 40.55 302.45 40.55ZM302.95 59H300.075V56.125H302.95V59Z" fill="black"/>
<path d="M8.344 5.85V16H6.916V12.192H5.432C5.222 12.192 4.9 12.164 4.788 12.164L2.268 16H0.616L3.36 11.828C2.072 11.394 1.176 10.484 1.176 8.972C1.176 6.578 2.996 5.85 5.516 5.85H8.344ZM6.916 7.082H5.418C3.78 7.082 2.632 7.432 2.632 9.014C2.632 10.526 3.85 10.96 5.418 10.96H6.916V7.082ZM20.0436 8.468V16H18.7696V9.574H16.2356L16.1236 11.394C15.9416 14.432 15.2836 16 13.5336 16H13.2956V14.894H13.4356C14.1076 14.894 14.7516 14.166 14.9056 11.044L15.0176 8.468H20.0436ZM28.389 8.342C30.139 8.342 32.001 9.532 32.001 12.262C32.001 14.992 30.139 16.182 28.389 16.182C26.821 16.182 25.155 15.118 24.973 12.71H23.475V16H22.201V8.468H23.475V11.604H25.001C25.267 9.322 26.849 8.342 28.389 8.342ZM28.389 15.062C29.551 15.062 30.643 14.194 30.643 12.262C30.643 10.246 29.551 9.462 28.389 9.462C27.339 9.462 26.317 10.204 26.317 12.262C26.317 14.278 27.339 15.062 28.389 15.062ZM36.9914 8.902C38.6994 8.902 40.1694 10.092 40.1694 12.472C40.1694 14.894 38.6154 16.182 36.7674 16.182C34.8214 16.182 33.2254 14.824 33.2254 12.08V11.212C33.2674 8.496 34.1634 6.914 37.1874 6.312L39.6654 5.822V6.956L37.2574 7.474C35.4234 7.88 34.5414 8.566 34.3594 10.442C34.8634 9.392 35.8714 8.902 36.9914 8.902ZM36.7674 15.076C37.9994 15.076 38.8114 14.138 38.8114 12.5C38.8114 10.848 37.9434 10.008 36.7814 10.008C35.6334 10.008 34.5974 10.792 34.5974 12.486C34.5974 14.082 35.4934 15.076 36.7674 15.076ZM47.6198 8.468V16H46.3458V9.574H43.8118L43.6998 11.394C43.5178 14.432 42.8598 16 41.1098 16H40.8718V14.894H41.0118C41.6838 14.894 42.3278 14.166 42.4818 11.044L42.5938 8.468H47.6198ZM55.9652 8.342C57.7152 8.342 59.5772 9.532 59.5772 12.262C59.5772 14.992 57.7152 16.182 55.9652 16.182C54.3972 16.182 52.7312 15.118 52.5492 12.71H51.0512V16H49.7772V8.468H51.0512V11.604H52.5772C52.8432 9.322 54.4252 8.342 55.9652 8.342ZM55.9652 15.062C57.1272 15.062 58.2192 14.194 58.2192 12.262C58.2192 10.246 57.1272 9.462 55.9652 9.462C54.9152 9.462 53.8932 10.204 53.8932 12.262C53.8932 14.278 54.9152 15.062 55.9652 15.062ZM70.0458 16H68.7718V12.948C67.8898 13.158 67.2178 13.256 66.5318 13.256C64.9498 13.256 64.1238 12.556 64.1238 10.918V8.468H65.3978V10.652C65.3978 11.772 65.9298 12.15 66.9938 12.15C67.4838 12.15 68.0718 12.066 68.7718 11.898V8.468H70.0458V16ZM76.8751 12.85V12.374C74.5651 12.598 73.0951 12.948 73.0951 13.984C73.0951 14.698 73.6411 15.174 74.5511 15.174C75.7411 15.174 76.8751 14.628 76.8751 12.85ZM74.2711 16.182C72.8571 16.182 71.6811 15.398 71.6811 14.012C71.6811 12.234 73.6971 11.702 76.7771 11.366V11.184C76.7771 9.798 76.0211 9.35 75.0691 9.35C74.0051 9.35 73.4031 9.91 73.3471 10.848H72.0311C72.1431 9.224 73.5991 8.314 75.0551 8.314C77.1411 8.314 78.0651 9.294 78.0511 11.422L78.0371 13.158C78.0231 14.432 78.0791 15.286 78.2331 16H76.9451C76.9031 15.72 76.8611 15.412 76.8471 14.964C76.3851 15.748 75.6151 16.182 74.2711 16.182ZM84.5274 5.85H85.5214C85.4094 6.69 84.8774 7.544 83.2814 7.544C81.7414 7.544 81.1534 6.69 81.0834 5.85H82.0774C82.1334 6.298 82.4694 6.704 83.2954 6.704C84.1214 6.704 84.4714 6.298 84.5274 5.85ZM85.1854 16V10.316L81.2934 16H80.0194V8.468H81.2934V14.152L85.1854 8.468H86.4594V16H85.1854ZM91.153 5.668C92.735 5.668 94.317 6.438 94.317 8.132C94.317 9.476 93.379 10.414 92.427 11.016C91.559 11.576 91.251 11.828 91.251 12.598V13.032H89.949V12.556C89.949 11.38 90.509 10.876 91.685 10.12C92.413 9.658 92.987 9.098 92.987 8.188C92.987 7.292 92.203 6.732 91.125 6.732C89.571 6.732 89.039 7.824 88.997 8.678H87.723C87.723 6.858 89.179 5.668 91.153 5.668ZM91.433 16H89.823V14.39H91.433V16Z" fill="#8E8E8E"/>
<path d="M93 77L94.0807 82.6715L98.452 78.8998L93 77ZM97.4416 81.4754L97.1227 81.8605C98.1872 82.7421 99.3316 83.5876 100.549 84.3937L100.825 83.9768L101.101 83.5598C99.9114 82.7721 98.7958 81.9477 97.7605 81.0903L97.4416 81.4754ZM104.44 86.1359L104.202 86.576C105.421 87.2332 106.694 87.8559 108.018 88.4417L108.221 87.9845L108.423 87.5272C107.122 86.9515 105.872 86.3401 104.677 85.6959L104.44 86.1359ZM112.127 89.5507L111.957 90.0208C113.263 90.4938 114.609 90.9334 115.991 91.3377L116.131 90.8578L116.272 90.3779C114.91 89.9794 113.584 89.5462 112.297 89.0806L112.127 89.5507ZM120.204 91.921L120.091 92.4082C121.449 92.7215 122.835 93.0021 124.247 93.2482L124.333 92.7557L124.419 92.2631C123.024 92.02 121.656 91.743 120.316 91.4338L120.204 91.921ZM128.496 93.3706L128.436 93.867C129.821 94.0356 131.227 94.1717 132.651 94.2739L132.687 93.7752L132.723 93.2765C131.315 93.1754 129.925 93.0409 128.556 92.8743L128.496 93.3706ZM136.894 93.9752L136.882 94.4751C137.585 94.4916 138.291 94.5 139 94.5V94V93.5C138.298 93.5 137.6 93.4917 136.906 93.4753L136.894 93.9752ZM139 94V94.5C139.709 94.5 140.415 94.4916 141.118 94.4751L141.106 93.9752L141.094 93.4753C140.4 93.4917 139.702 93.5 139 93.5V94ZM145.313 93.7752L145.349 94.2739C146.773 94.1717 148.179 94.0356 149.564 93.867L149.504 93.3706L149.444 92.8743C148.075 93.0409 146.685 93.1754 145.277 93.2765L145.313 93.7752ZM153.667 92.7557L153.753 93.2482C155.165 93.0021 156.551 92.7215 157.909 92.4082L157.796 91.921L157.684 91.4338C156.344 91.743 154.976 92.02 153.581 92.2631L153.667 92.7557ZM161.869 90.8578L162.009 91.3377C163.391 90.9334 164.737 90.4938 166.043 90.0209L165.873 89.5507L165.703 89.0806C164.416 89.5463 163.09 89.9794 161.728 90.3779L161.869 90.8578ZM169.779 87.9845L169.982 88.4417C171.306 87.8559 172.579 87.2332 173.798 86.576L173.56 86.136L173.323 85.6959C172.128 86.3401 170.878 86.9515 169.577 87.5272L169.779 87.9845ZM177.175 83.9768L177.451 84.3937C178.668 83.5876 179.813 82.7421 180.877 81.8605L180.558 81.4754L180.24 81.0903C179.204 81.9477 178.089 82.7721 176.899 83.5599L177.175 83.9768ZM183.626 78.5921L183.992 78.9326C184.486 78.4023 184.952 77.8618 185.391 77.3118L185 77L184.609 76.6882C184.187 77.2177 183.737 77.7391 183.26 78.2516L183.626 78.5921ZM93 77L94.0807 82.6715L98.452 78.8998L93 77ZM97.4416 81.4754L97.1227 81.8605C98.1872 82.7421 99.3316 83.5876 100.549 84.3937L100.825 83.9768L101.101 83.5598C99.9114 82.7721 98.7958 81.9477 97.7605 81.0903L97.4416 81.4754ZM104.44 86.1359L104.202 86.576C105.421 87.2332 106.694 87.8559 108.018 88.4417L108.221 87.9845L108.423 87.5272C107.122 86.9515 105.872 86.3401 104.677 85.6959L104.44 86.1359ZM112.127 89.5507L111.957 90.0208C113.263 90.4938 114.609 90.9334 115.991 91.3377L116.131 90.8578L116.272 90.3779C114.91 89.9794 113.584 89.5462 112.297 89.0806L112.127 89.5507ZM120.204 91.921L120.091 92.4082C121.449 92.7215 122.835 93.0021 124.247 93.2482L124.333 92.7557L124.419 92.2631C123.024 92.02 121.656 91.743 120.316 91.4338L120.204 91.921ZM128.496 93.3706L128.436 93.867C129.821 94.0356 131.227 94.1717 132.651 94.2739L132.687 93.7752L132.723 93.2765C131.315 93.1754 129.925 93.0409 128.556 92.8743L128.496 93.3706ZM136.894 93.9752L136.882 94.4751C137.585 94.4916 138.291 94.5 139 94.5V94V93.5C138.298 93.5 137.6 93.4917 136.906 93.4753L136.894 93.9752ZM139 94V94.5C139.709 94.5 140.415 94.4916 141.118 94.4751L141.106 93.9752L141.094 93.4753C140.4 93.4917 139.702 93.5 139 93.5V94ZM145.313 93.7752L145.349 94.2739C146.773 94.1717 148.179 94.0356 149.564 93.867L149.504 93.3706L149.444 92.8743C148.075 93.0409 146.685 93.1754 145.277 93.2765L145.313 93.7752ZM153.667 92.7557L153.753 93.2482C155.165 93.0021 156.551 92.7215 157.909 92.4082L157.796 91.921L157.684 91.4338C156.344 91.743 154.976 92.02 153.581 92.2631L153.667 92.7557ZM161.869 90.8578L162.009 91.3377C163.391 90.9334 164.737 90.4938 166.043 90.0209L165.873 89.5507L165.703 89.0806C164.416 89.5463 163.09 89.9794 161.728 90.3779L161.869 90.8578ZM169.779 87.9845L169.982 88.4417C171.306 87.8559 172.579 87.2332 173.798 86.576L173.56 86.136L173.323 85.6959C172.128 86.3401 170.878 86.9515 169.577 87.5272L169.779 87.9845ZM177.175 83.9768L177.451 84.3937C178.668 83.5876 179.813 82.7421 180.877 81.8605L180.558 81.4754L180.24 81.0903C179.204 81.9477 178.089 82.7721 176.899 83.5599L177.175 83.9768ZM183.626 78.5921L183.992 78.9326C184.486 78.4023 184.952 77.8618 185.391 77.3118L185 77L184.609 76.6882C184.187 77.2177 183.737 77.7391 183.26 78.2516L183.626 78.5921Z" fill="url(#paint0_linear_1825_15874)"/>
<circle cx="138.5" cy="93.5" r="9.5" fill="#0076DE"/>
<path d="M138.5 87V93.5L143.5 97.5" stroke="white"/>
<defs>
<linearGradient id="paint0_linear_1825_15874" x1="93" y1="85.5" x2="185" y2="85.5" gradientUnits="userSpaceOnUse">
<stop stop-color="#0076DE"/>
<stop offset="1" stop-color="#7F7F7F"/>
</linearGradient>
</defs>
</svg>
