<svg width="725" height="315" viewBox="0 0 725 315" fill="none" xmlns="http://www.w3.org/2000/svg">
<rect x="1" y="1" width="723" height="313" rx="9" stroke="#E3E3E3" stroke-width="2"/>
<path d="M10 1H280V314H10C5.02944 314 1 309.971 1 305V10C1 5.02944 5.02944 1 10 1Z" stroke="#E3E3E3" stroke-width="2"/>
<path d="M24.512 58.6V76H22.064V58.6H24.512ZM20 90.6H22.688L27.44 99.096L32.288 90.6H34.976L28.592 101.256V108H26.144V101.208L20 90.6ZM36.0363 101.592C36.0363 105.048 37.9083 106.392 39.9003 106.392C41.8923 106.392 43.7643 104.904 43.7643 101.592C43.7643 98.136 41.8923 96.792 39.9003 96.792C37.9083 96.792 36.0363 98.064 36.0363 101.592ZM39.9003 94.872C42.9003 94.872 46.0923 96.912 46.0923 101.592C46.0923 106.272 42.9003 108.312 39.9003 108.312C36.9003 108.312 33.7083 106.272 33.7083 101.592C33.7083 96.912 36.9003 94.872 39.9003 94.872ZM56.6966 108V106.152C55.9526 107.376 54.7766 108.312 52.6406 108.312C49.6646 108.312 48.5126 106.296 48.5126 103.344V95.088H50.6966V102.696C50.6966 104.688 51.0086 106.416 53.4086 106.416C55.4966 106.416 56.6966 104.976 56.6966 102.192V95.088H58.8806V108H56.6966ZM32.528 122.6L35.96 137.216L39.176 122.6H41.744L37.4 140H34.424L31.064 125.696L27.776 140H24.8L20.384 122.6H23.072L26.432 137.216L29.648 122.6H32.528ZM54.5264 134.264H44.5904C44.6624 137.048 46.6784 138.392 48.5744 138.392C50.4944 138.392 51.5504 137.528 52.1024 136.256H54.3584C53.7824 138.464 51.7184 140.312 48.5744 140.312C44.4944 140.312 42.2384 137.384 42.2384 133.568C42.2384 129.464 44.9744 126.872 48.5024 126.872C52.4624 126.872 54.7904 130.16 54.5264 134.264ZM48.5024 128.744C46.5824 128.744 44.8064 129.8 44.6144 132.392H52.2224C52.1504 130.568 50.8304 128.744 48.5024 128.744ZM25.664 172V156.712H20V154.6H33.776V156.712H28.112V172H25.664ZM37.2245 154.6V161.032C37.9685 159.808 39.2165 158.872 41.4005 158.872C44.5205 158.872 45.6485 160.888 45.6485 163.84V172H43.4645V164.488C43.4645 162.496 43.1285 160.768 40.6325 160.768C38.5205 160.768 37.2245 162.208 37.2245 164.992V172H35.0405V154.6H37.2245ZM60.3155 166.264H50.3795C50.4515 169.048 52.4675 170.392 54.3635 170.392C56.2835 170.392 57.3395 169.528 57.8915 168.256H60.1475C59.5715 170.464 57.5075 172.312 54.3635 172.312C50.2835 172.312 48.0275 169.384 48.0275 165.568C48.0275 161.464 50.7635 158.872 54.2915 158.872C58.2515 158.872 60.5795 162.16 60.3155 166.264ZM54.2915 160.744C52.3715 160.744 50.5955 161.8 50.4035 164.392H58.0115C57.9395 162.568 56.6195 160.744 54.2915 160.744ZM69.9196 159.088H72.1996L67.5916 172.552C66.6316 175.336 66.0076 176.2 63.1036 176.2H61.9756V174.376H62.8636C64.3036 174.376 64.9996 174.28 65.5756 172.264L65.6716 172L61.0156 159.088H63.4396L66.7276 169.048L69.9196 159.088Z" fill="#1E1E1E"/>
<path d="M33.656 206.6H36.104V224H33.656V216.104H24.512V224H22.064V206.6H24.512V213.992H33.656V206.6ZM51.2921 218.264H41.3561C41.4281 221.048 43.4441 222.392 45.3401 222.392C47.2601 222.392 48.3161 221.528 48.8681 220.256H51.1241C50.5481 222.464 48.4841 224.312 45.3401 224.312C41.2601 224.312 39.0041 221.384 39.0041 217.568C39.0041 213.464 41.7401 210.872 45.2681 210.872C49.2281 210.872 51.5561 214.16 51.2921 218.264ZM45.2681 212.744C43.3481 212.744 41.5721 213.8 41.3801 216.392H48.9881C48.9161 214.568 47.5961 212.744 45.2681 212.744ZM21.344 243.04C21.344 239.704 24.824 238.288 27.632 238.288C30.776 238.288 33.536 239.704 34.232 243.04H31.856C31.28 241.048 29.264 240.352 27.536 240.352C26.192 240.352 23.84 240.952 23.84 242.896C23.84 244.432 25.04 245.2 26.672 245.56L28.688 246.016C31.352 246.592 34.544 247.6 34.544 251.104C34.544 254.488 31.376 256.312 27.92 256.312C23.816 256.312 21.224 254.056 20.768 250.6H23.168C23.624 253 25.28 254.248 27.968 254.248C30.56 254.248 32.024 253.048 32.024 251.32C32.024 249.472 30.44 248.752 28.28 248.248L26.12 247.792C23.72 247.264 21.344 245.92 21.344 243.04ZM39.287 238.6V245.032C40.031 243.808 41.279 242.872 43.463 242.872C46.583 242.872 47.711 244.888 47.711 247.84V256H45.527V248.488C45.527 246.496 45.191 244.768 42.695 244.768C40.583 244.768 39.287 246.208 39.287 248.992V256H37.103V238.6H39.287ZM62.378 250.264H52.442C52.514 253.048 54.53 254.392 56.426 254.392C58.346 254.392 59.402 253.528 59.954 252.256H62.21C61.634 254.464 59.57 256.312 56.426 256.312C52.346 256.312 50.09 253.384 50.09 249.568C50.09 245.464 52.826 242.872 56.354 242.872C60.314 242.872 62.642 246.16 62.378 250.264ZM56.354 244.744C54.434 244.744 52.658 245.8 52.466 248.392H60.074C60.002 246.568 58.682 244.744 56.354 244.744ZM24.512 270.6V288H22.064V270.6H24.512ZM28.9379 275.088V271.848H31.1219V275.088H33.5699V276.84H31.1219V284.496C31.1219 285.84 31.2179 286.176 32.4659 286.176H33.5699V288H31.9859C29.5139 288 28.9379 287.448 28.9379 284.76V276.84H26.8979V275.088H28.9379Z" fill="#1E1E1E"/>
<rect x="93" y="96" width="51" height="38" rx="3" fill="#0076DE"/>
<path d="M114.584 113.128V106.6H116.768V124H114.584V122.056C113.792 123.424 112.448 124.312 110.36 124.312C107.384 124.312 104.84 121.888 104.84 117.592C104.84 113.368 107.384 110.872 110.36 110.872C112.448 110.872 113.792 111.76 114.584 113.128ZM114.68 117.592C114.68 114.184 112.856 112.744 110.912 112.744C108.68 112.744 107.216 114.496 107.216 117.592C107.216 120.688 108.68 122.44 110.912 122.44C112.856 122.44 114.68 121 114.68 117.592ZM121.7 117.592C121.7 121.048 123.572 122.392 125.564 122.392C127.556 122.392 129.428 120.904 129.428 117.592C129.428 114.136 127.556 112.792 125.564 112.792C123.572 112.792 121.7 114.064 121.7 117.592ZM125.564 110.872C128.564 110.872 131.756 112.912 131.756 117.592C131.756 122.272 128.564 124.312 125.564 124.312C122.564 124.312 119.372 122.272 119.372 117.592C119.372 112.912 122.564 110.872 125.564 110.872Z" fill="white"/>
<path d="M152.912 111.088V113.032C153.656 111.808 154.904 110.872 157.088 110.872C160.208 110.872 161.336 112.888 161.336 115.84V124H159.152V116.488C159.152 114.496 158.816 112.768 156.32 112.768C154.208 112.768 152.912 114.208 152.912 116.992V124H150.728V111.088H152.912ZM166.091 117.592C166.091 121.048 167.963 122.392 169.955 122.392C171.947 122.392 173.819 120.904 173.819 117.592C173.819 114.136 171.947 112.792 169.955 112.792C167.963 112.792 166.091 114.064 166.091 117.592ZM169.955 110.872C172.955 110.872 176.147 112.912 176.147 117.592C176.147 122.272 172.955 124.312 169.955 124.312C166.955 124.312 163.763 122.272 163.763 117.592C163.763 112.912 166.955 110.872 169.955 110.872ZM179.266 111.088V107.848H181.45V111.088H183.898V112.84H181.45V120.496C181.45 121.84 181.546 122.176 182.794 122.176H183.898V124H182.314C179.842 124 179.266 123.448 179.266 120.76V112.84H177.226V111.088H179.266Z" fill="#1E1E1E"/>
<path d="M22.76 30.555C22.76 33.12 24.17 34.485 25.865 34.485C27.56 34.485 28.97 33.12 28.97 30.555C28.97 28.005 27.56 26.64 25.865 26.64C24.17 26.64 22.76 28.005 22.76 30.555ZM31.19 30.555C31.19 33.93 29.105 36.195 25.865 36.195C22.625 36.195 20.54 33.93 20.54 30.555C20.54 27.18 22.625 24.93 25.865 24.93C29.105 24.93 31.19 27.18 31.19 30.555ZM36.6534 36H34.5834V29.565H31.9584V27.93H39.2784V29.565H36.6534V36ZM44.4171 34.605C45.4971 34.605 46.2621 33.555 46.2621 31.98C46.2621 30.405 45.4971 29.34 44.4171 29.34C43.2771 29.34 42.5271 30.345 42.5271 31.965C42.5271 33.63 43.2771 34.605 44.4171 34.605ZM42.6021 38.625H40.5321V27.93H42.6021V28.965C43.0371 28.2 43.9071 27.75 44.9271 27.75C46.8771 27.75 48.4371 29.43 48.4371 31.965C48.4371 34.545 46.8321 36.195 44.9121 36.195C44.0721 36.195 43.1271 35.88 42.6021 34.98V38.625ZM51.9478 36H49.8778V27.93H51.9028V33.435L55.4578 27.93H57.5278V36H55.5028V30.69L51.9478 36ZM67.9443 37.875H66.0243V36H59.6043V27.93H61.6743V34.365H64.6293V27.93H66.6993V34.455H67.9443V37.875ZM74.0315 32.91V32.31C71.7065 32.55 70.7915 32.82 70.7915 33.72C70.7915 34.305 71.2415 34.785 72.1865 34.785C73.4915 34.785 74.0315 34.095 74.0315 32.91ZM74.2115 34.995C73.6265 35.835 72.7865 36.195 71.5715 36.195C70.0265 36.195 68.6615 35.295 68.6615 33.825C68.6615 31.92 70.7915 31.35 73.9715 30.99V30.855C73.9715 29.61 73.2965 29.175 72.4565 29.175C71.6615 29.175 71.0015 29.58 70.9565 30.48H69.0215C69.1865 28.89 70.4765 27.72 72.5615 27.72C74.4665 27.72 76.0415 28.56 76.0415 31.275C76.0415 31.515 76.0115 32.61 76.0115 33.33C76.0115 34.605 76.0865 35.325 76.2515 36H74.3465C74.2865 35.745 74.2565 35.4 74.2115 34.995ZM79.9409 36H77.8709V27.93H79.9409V31.05H83.3009V27.93H85.3709V36H83.3009V32.685H79.9409V36ZM89.5064 36H87.4364V27.93H89.4614V33.435L93.0164 27.93H95.0864V36H93.0614V30.69L89.5064 36ZM104.543 32.535H98.5879C98.7079 33.915 99.6379 34.59 100.628 34.59C101.273 34.59 101.903 34.365 102.323 33.66H104.453C104.018 34.86 102.848 36.195 100.643 36.195C98.0479 36.195 96.5329 34.26 96.5329 31.935C96.5329 29.535 98.1979 27.75 100.583 27.75C103.073 27.75 104.618 29.685 104.543 32.535ZM100.568 29.265C99.7879 29.265 98.7829 29.745 98.6179 31.11H102.443C102.398 29.745 101.438 29.265 100.568 29.265Z" fill="#0F0F0F"/>
<rect x="223.5" y="155.5" width="37" height="37" rx="2.5" stroke="#1E1E1E"/>
<path d="M234.264 165.6H236.952L241.776 180.48L246.504 165.6H249.072L243.168 183H240.24L234.264 165.6Z" fill="#1E1E1E"/>
<rect x="93" y="228" width="79" height="38" rx="3" fill="#0076DE"/>
<rect x="132" y="238" width="29" height="22" rx="3" fill="#589E07"/>
<path d="M114.584 245.128V238.6H116.768V256H114.584V254.056C113.792 255.424 112.448 256.312 110.36 256.312C107.384 256.312 104.84 253.888 104.84 249.592C104.84 245.368 107.384 242.872 110.36 242.872C112.448 242.872 113.792 243.76 114.584 245.128ZM114.68 249.592C114.68 246.184 112.856 244.744 110.912 244.744C108.68 244.744 107.216 246.496 107.216 249.592C107.216 252.688 108.68 254.44 110.912 254.44C112.856 254.44 114.68 253 114.68 249.592ZM121.7 249.592C121.7 253.048 123.572 254.392 125.564 254.392C127.556 254.392 129.428 252.904 129.428 249.592C129.428 246.136 127.556 244.792 125.564 244.792C123.572 244.792 121.7 246.064 121.7 249.592ZM125.564 242.872C128.564 242.872 131.756 244.912 131.756 249.592C131.756 254.272 128.564 256.312 125.564 256.312C122.564 256.312 119.372 254.272 119.372 249.592C119.372 244.912 122.564 242.872 125.564 242.872ZM145.956 250.264H136.02C136.092 253.048 138.108 254.392 140.004 254.392C141.924 254.392 142.98 253.528 143.532 252.256H145.788C145.212 254.464 143.148 256.312 140.004 256.312C135.924 256.312 133.668 253.384 133.668 249.568C133.668 245.464 136.404 242.872 139.932 242.872C143.892 242.872 146.22 246.16 145.956 250.264ZM139.932 244.744C138.012 244.744 136.236 245.8 136.044 248.392H143.652C143.58 246.568 142.26 244.744 139.932 244.744ZM158.22 246.856H155.94C155.58 245.32 154.428 244.72 152.892 244.72C151.62 244.72 150.18 245.176 150.18 246.352C150.18 247.384 150.9 247.84 152.148 248.104L153.972 248.464C156.324 248.896 158.388 249.832 158.388 252.304C158.388 254.872 156.084 256.312 153.132 256.312C149.748 256.312 147.852 254.08 147.588 251.824H149.892C150.252 253.48 151.26 254.464 153.18 254.464C154.836 254.464 156.18 253.768 156.18 252.544C156.18 251.224 154.956 250.72 153.564 250.408L151.644 250.024C149.892 249.64 147.972 248.872 147.972 246.448C147.972 244.168 150.276 242.848 153.132 242.848C155.94 242.848 157.812 244.384 158.22 246.856Z" fill="white"/>
<path d="M180.912 243.088V245.032C181.656 243.808 182.904 242.872 185.088 242.872C188.208 242.872 189.336 244.888 189.336 247.84V256H187.152V248.488C187.152 246.496 186.816 244.768 184.32 244.768C182.208 244.768 180.912 246.208 180.912 248.992V256H178.728V243.088H180.912ZM194.091 249.592C194.091 253.048 195.963 254.392 197.955 254.392C199.947 254.392 201.819 252.904 201.819 249.592C201.819 246.136 199.947 244.792 197.955 244.792C195.963 244.792 194.091 246.064 194.091 249.592ZM197.955 242.872C200.955 242.872 204.147 244.912 204.147 249.592C204.147 254.272 200.955 256.312 197.955 256.312C194.955 256.312 191.763 254.272 191.763 249.592C191.763 244.912 194.955 242.872 197.955 242.872ZM207.266 243.088V239.848H209.45V243.088H211.898V244.84H209.45V252.496C209.45 253.84 209.546 254.176 210.794 254.176H211.898V256H210.314C207.842 256 207.266 255.448 207.266 252.76V244.84H205.226V243.088H207.266Z" fill="#1E1E1E"/>
<rect x="280" y="1" width="177" height="313" stroke="#E3E3E3" stroke-width="2"/>
<path d="M303.512 58.6V76H301.064V58.6H303.512ZM299 90.6H301.688L306.44 99.096L311.288 90.6H313.976L307.592 101.256V108H305.144V101.208L299 90.6ZM315.036 101.592C315.036 105.048 316.908 106.392 318.9 106.392C320.892 106.392 322.764 104.904 322.764 101.592C322.764 98.136 320.892 96.792 318.9 96.792C316.908 96.792 315.036 98.064 315.036 101.592ZM318.9 94.872C321.9 94.872 325.092 96.912 325.092 101.592C325.092 106.272 321.9 108.312 318.9 108.312C315.9 108.312 312.708 106.272 312.708 101.592C312.708 96.912 315.9 94.872 318.9 94.872ZM335.697 108V106.152C334.953 107.376 333.777 108.312 331.641 108.312C328.665 108.312 327.513 106.296 327.513 103.344V95.088H329.697V102.696C329.697 104.688 330.009 106.416 332.409 106.416C334.497 106.416 335.697 104.976 335.697 102.192V95.088H337.881V108H335.697ZM311.528 122.6L314.96 137.216L318.176 122.6H320.744L316.4 140H313.424L310.064 125.696L306.776 140H303.8L299.384 122.6H302.072L305.432 137.216L308.648 122.6H311.528ZM333.526 134.264H323.59C323.662 137.048 325.678 138.392 327.574 138.392C329.494 138.392 330.55 137.528 331.102 136.256H333.358C332.782 138.464 330.718 140.312 327.574 140.312C323.494 140.312 321.238 137.384 321.238 133.568C321.238 129.464 323.974 126.872 327.502 126.872C331.462 126.872 333.79 130.16 333.526 134.264ZM327.502 128.744C325.582 128.744 323.806 129.8 323.614 132.392H331.222C331.15 130.568 329.83 128.744 327.502 128.744ZM304.664 172V156.712H299V154.6H312.776V156.712H307.112V172H304.664ZM316.225 154.6V161.032C316.969 159.808 318.217 158.872 320.401 158.872C323.521 158.872 324.648 160.888 324.648 163.84V172H322.465V164.488C322.465 162.496 322.129 160.768 319.633 160.768C317.521 160.768 316.225 162.208 316.225 164.992V172H314.041V154.6H316.225ZM339.316 166.264H329.38C329.452 169.048 331.468 170.392 333.364 170.392C335.284 170.392 336.34 169.528 336.892 168.256H339.148C338.572 170.464 336.508 172.312 333.364 172.312C329.284 172.312 327.028 169.384 327.028 165.568C327.028 161.464 329.764 158.872 333.292 158.872C337.252 158.872 339.58 162.16 339.316 166.264ZM333.292 160.744C331.372 160.744 329.596 161.8 329.404 164.392H337.012C336.94 162.568 335.62 160.744 333.292 160.744ZM348.92 159.088H351.2L346.592 172.552C345.632 175.336 345.008 176.2 342.104 176.2H340.976V174.376H341.864C343.304 174.376 344 174.28 344.576 172.264L344.672 172L340.016 159.088H342.44L345.728 169.048L348.92 159.088Z" fill="#1E1E1E"/>
<path d="M312.656 206.6H315.104V224H312.656V216.104H303.512V224H301.064V206.6H303.512V213.992H312.656V206.6ZM330.292 218.264H320.356C320.428 221.048 322.444 222.392 324.34 222.392C326.26 222.392 327.316 221.528 327.868 220.256H330.124C329.548 222.464 327.484 224.312 324.34 224.312C320.26 224.312 318.004 221.384 318.004 217.568C318.004 213.464 320.74 210.872 324.268 210.872C328.228 210.872 330.556 214.16 330.292 218.264ZM324.268 212.744C322.348 212.744 320.572 213.8 320.38 216.392H327.988C327.916 214.568 326.596 212.744 324.268 212.744ZM300.344 243.04C300.344 239.704 303.824 238.288 306.632 238.288C309.776 238.288 312.536 239.704 313.232 243.04H310.856C310.28 241.048 308.264 240.352 306.536 240.352C305.192 240.352 302.84 240.952 302.84 242.896C302.84 244.432 304.04 245.2 305.672 245.56L307.688 246.016C310.352 246.592 313.544 247.6 313.544 251.104C313.544 254.488 310.376 256.312 306.92 256.312C302.816 256.312 300.224 254.056 299.768 250.6H302.168C302.624 253 304.28 254.248 306.968 254.248C309.56 254.248 311.024 253.048 311.024 251.32C311.024 249.472 309.44 248.752 307.28 248.248L305.12 247.792C302.72 247.264 300.344 245.92 300.344 243.04ZM318.287 238.6V245.032C319.031 243.808 320.279 242.872 322.463 242.872C325.583 242.872 326.711 244.888 326.711 247.84V256H324.527V248.488C324.527 246.496 324.191 244.768 321.695 244.768C319.583 244.768 318.287 246.208 318.287 248.992V256H316.103V238.6H318.287ZM341.378 250.264H331.442C331.514 253.048 333.53 254.392 335.426 254.392C337.346 254.392 338.402 253.528 338.954 252.256H341.21C340.634 254.464 338.57 256.312 335.426 256.312C331.346 256.312 329.09 253.384 329.09 249.568C329.09 245.464 331.826 242.872 335.354 242.872C339.314 242.872 341.642 246.16 341.378 250.264ZM335.354 244.744C333.434 244.744 331.658 245.8 331.466 248.392H339.074C339.002 246.568 337.682 244.744 335.354 244.744ZM303.512 270.6V288H301.064V270.6H303.512ZM307.938 275.088V271.848H310.122V275.088H312.57V276.84H310.122V284.496C310.122 285.84 310.218 286.176 311.466 286.176H312.57V288H310.986C308.514 288 307.938 287.448 307.938 284.76V276.84H305.898V275.088H307.938Z" fill="#1E1E1E"/>
<rect x="412" y="228" width="18" height="18" rx="3" fill="#589E07"/>
<rect x="412" y="248" width="26" height="18" rx="3" fill="#589E07"/>
<path d="M423.65 235.666H422.32C422.11 234.77 421.438 234.42 420.542 234.42C419.8 234.42 418.96 234.686 418.96 235.372C418.96 235.974 419.38 236.24 420.108 236.394L421.172 236.604C422.544 236.856 423.748 237.402 423.748 238.844C423.748 240.342 422.404 241.182 420.682 241.182C418.708 241.182 417.602 239.88 417.448 238.564H418.792C419.002 239.53 419.59 240.104 420.71 240.104C421.676 240.104 422.46 239.698 422.46 238.984C422.46 238.214 421.746 237.92 420.934 237.738L419.814 237.514C418.792 237.29 417.672 236.842 417.672 235.428C417.672 234.098 419.016 233.328 420.682 233.328C422.32 233.328 423.412 234.224 423.65 235.666Z" fill="white"/>
<path d="M424.658 257.654H418.862C418.904 259.278 420.08 260.062 421.186 260.062C422.306 260.062 422.922 259.558 423.244 258.816H424.56C424.224 260.104 423.02 261.182 421.186 261.182C418.806 261.182 417.49 259.474 417.49 257.248C417.49 254.854 419.086 253.342 421.144 253.342C423.454 253.342 424.812 255.26 424.658 257.654ZM421.144 254.434C420.024 254.434 418.988 255.05 418.876 256.562H423.314C423.272 255.498 422.502 254.434 421.144 254.434ZM431.812 255.666H430.482C430.272 254.77 429.6 254.42 428.704 254.42C427.962 254.42 427.122 254.686 427.122 255.372C427.122 255.974 427.542 256.24 428.27 256.394L429.334 256.604C430.706 256.856 431.91 257.402 431.91 258.844C431.91 260.342 430.566 261.182 428.844 261.182C426.87 261.182 425.764 259.88 425.61 258.564H426.954C427.164 259.53 427.752 260.104 428.872 260.104C429.838 260.104 430.622 259.698 430.622 258.984C430.622 258.214 429.908 257.92 429.096 257.738L427.976 257.514C426.954 257.29 425.834 256.842 425.834 255.428C425.834 254.098 427.178 253.328 428.844 253.328C430.482 253.328 431.574 254.224 431.812 255.666Z" fill="white"/>
<rect x="372" y="228" width="38" height="38" rx="3" fill="#0076DE"/>
<path d="M383.264 238.6H385.952L390.776 253.48L395.504 238.6H398.072L392.168 256H389.24L383.264 238.6Z" fill="white"/>
<rect x="372" y="96" width="38" height="38" rx="3" fill="#0076DE"/>
<path d="M383.264 106.6H385.952L390.776 121.48L395.504 106.6H398.072L392.168 124H389.24L383.264 106.6Z" fill="white"/>
<path d="M301.85 36.195H300.575V34.455H301.685C302.27 34.455 302.585 34.335 302.885 33.87L303.05 33.615L299.075 25.125H301.415L304.145 31.395L306.59 25.125H308.945L305.075 33.93C304.475 35.31 303.65 36.195 301.85 36.195ZM313.119 36H311.049V29.565H308.424V27.93H315.744V29.565H313.119V36ZM321.153 36H316.998V27.93H320.973C322.698 27.93 324.063 28.35 324.063 30.03C324.063 30.825 323.718 31.38 323.043 31.695C323.823 31.95 324.393 32.52 324.393 33.54C324.393 35.31 323.028 36 321.153 36ZM319.068 32.535V34.38H320.943C321.903 34.38 322.383 34.065 322.383 33.45C322.383 32.805 321.888 32.535 320.928 32.535H319.068ZM319.068 29.55V31.185H320.823C321.603 31.185 322.068 30.93 322.068 30.33C322.068 29.715 321.603 29.55 320.808 29.55H319.068ZM333.401 32.535H327.446C327.566 33.915 328.496 34.59 329.486 34.59C330.131 34.59 330.761 34.365 331.181 33.66H333.311C332.876 34.86 331.706 36.195 329.501 36.195C326.906 36.195 325.391 34.26 325.391 31.935C325.391 29.535 327.056 27.75 329.441 27.75C331.931 27.75 333.476 29.685 333.401 32.535ZM329.426 29.265C328.646 29.265 327.641 29.745 327.476 31.11H331.301C331.256 29.745 330.296 29.265 329.426 29.265ZM338.725 34.605C339.805 34.605 340.57 33.555 340.57 31.98C340.57 30.405 339.805 29.34 338.725 29.34C337.585 29.34 336.835 30.345 336.835 31.965C336.835 33.63 337.585 34.605 338.725 34.605ZM336.91 38.625H334.84V27.93H336.91V28.965C337.345 28.2 338.215 27.75 339.235 27.75C341.185 27.75 342.745 29.43 342.745 31.965C342.745 34.545 341.14 36.195 339.22 36.195C338.38 36.195 337.435 35.88 336.91 34.98V38.625ZM345.273 36H342.888L345.858 31.74L343.098 27.93H345.408L347.988 31.71H348.003V27.93H350.073V31.71H350.088L352.698 27.93H355.083L352.263 31.74L355.233 36H352.803L350.088 31.905H350.073V36H348.003V31.905H347.988L345.273 36ZM357.454 37.875H355.534V34.365H355.984C356.764 34.365 357.154 33.69 357.319 30.33L357.424 27.93H363.619V34.365H364.864V37.875H362.944V36H357.454V37.875ZM358.399 34.365H361.549V29.565H359.284L359.194 31.035C359.074 32.715 358.969 33.465 358.399 34.365ZM373.465 32.535H367.51C367.63 33.915 368.56 34.59 369.55 34.59C370.195 34.59 370.825 34.365 371.245 33.66H373.375C372.94 34.86 371.77 36.195 369.565 36.195C366.97 36.195 365.455 34.26 365.455 31.935C365.455 29.535 367.12 27.75 369.505 27.75C371.995 27.75 373.54 29.685 373.465 32.535ZM369.49 29.265C368.71 29.265 367.705 29.745 367.54 31.11H371.365C371.32 29.745 370.36 29.265 369.49 29.265ZM376.973 36H374.903V27.93H376.973V31.05H380.333V27.93H382.403V36H380.333V32.685H376.973V36ZM386.539 36H384.469V27.93H386.494V33.435L390.049 27.93H392.119V36H390.094V30.69L386.539 36ZM401.575 32.535H395.62C395.74 33.915 396.67 34.59 397.66 34.59C398.305 34.59 398.935 34.365 399.355 33.66H401.485C401.05 34.86 399.88 36.195 397.675 36.195C395.08 36.195 393.565 34.26 393.565 31.935C393.565 29.535 395.23 27.75 397.615 27.75C400.105 27.75 401.65 29.685 401.575 32.535ZM397.6 29.265C396.82 29.265 395.815 29.745 395.65 31.11H399.475C399.43 29.745 398.47 29.265 397.6 29.265Z" fill="#0F0F0F"/>
<path d="M457 1H715C719.971 1 724 5.02944 724 10V305C724 309.971 719.971 314 715 314H457V1Z" stroke="#E3E3E3" stroke-width="2"/>
<path d="M582.512 58.6V76H580.064V58.6H582.512ZM586.904 95.088H589.184L584.576 108.552C583.616 111.336 582.992 112.2 580.088 112.2H578.96V110.376H579.848C581.288 110.376 581.984 110.28 582.56 108.264L582.656 108L578 95.088H580.424L583.712 105.048L586.904 95.088ZM592.161 101.592C592.161 105.048 594.033 106.392 596.025 106.392C598.017 106.392 599.889 104.904 599.889 101.592C599.889 98.136 598.017 96.792 596.025 96.792C594.033 96.792 592.161 98.064 592.161 101.592ZM596.025 94.872C599.025 94.872 602.217 96.912 602.217 101.592C602.217 106.272 599.025 108.312 596.025 108.312C593.025 108.312 589.833 106.272 589.833 101.592C589.833 96.912 593.025 94.872 596.025 94.872ZM612.822 108V106.152C612.078 107.376 610.902 108.312 608.766 108.312C605.79 108.312 604.638 106.296 604.638 103.344V95.088H606.822V102.696C606.822 104.688 607.134 106.416 609.534 106.416C611.622 106.416 612.822 104.976 612.822 102.192V95.088H615.006V108H612.822ZM582.944 136.64L585.512 127.088H587.768L590.336 136.64L592.808 127.088H595.16L591.44 140H589.448L586.592 129.608L583.832 140H581.84L578.12 127.088H580.472L582.944 136.64ZM608.284 134.264H598.348C598.42 137.048 600.436 138.392 602.332 138.392C604.252 138.392 605.308 137.528 605.86 136.256H608.116C607.54 138.464 605.476 140.312 602.332 140.312C598.252 140.312 595.996 137.384 595.996 133.568C595.996 129.464 598.732 126.872 602.26 126.872C606.22 126.872 608.548 130.16 608.284 134.264ZM602.26 128.744C600.34 128.744 598.564 129.8 598.372 132.392H605.98C605.908 130.568 604.588 128.744 602.26 128.744ZM580.352 159.088V155.848H582.536V159.088H584.984V160.84H582.536V168.496C582.536 169.84 582.632 170.176 583.88 170.176H584.984V172H583.4C580.928 172 580.352 171.448 580.352 168.76V160.84H578.312V159.088H580.352ZM589.951 154.6V161.032C590.695 159.808 591.943 158.872 594.127 158.872C597.247 158.872 598.375 160.888 598.375 163.84V172H596.191V164.488C596.191 162.496 595.855 160.768 593.359 160.768C591.247 160.768 589.951 162.208 589.951 164.992V172H587.767V154.6H589.951ZM613.042 166.264H603.106C603.178 169.048 605.194 170.392 607.09 170.392C609.01 170.392 610.066 169.528 610.618 168.256H612.874C612.298 170.464 610.234 172.312 607.09 172.312C603.01 172.312 600.754 169.384 600.754 165.568C600.754 161.464 603.49 158.872 607.018 158.872C610.978 158.872 613.306 162.16 613.042 166.264ZM607.018 160.744C605.098 160.744 603.322 161.8 603.13 164.392H610.738C610.666 162.568 609.346 160.744 607.018 160.744ZM622.646 159.088H624.926L620.318 172.552C619.358 175.336 618.734 176.2 615.83 176.2H614.702V174.376H615.59C617.03 174.376 617.726 174.28 618.302 172.264L618.398 172L613.742 159.088H616.166L619.454 169.048L622.646 159.088Z" fill="#1E1E1E"/>
<path d="M581.912 206.6V213.032C582.656 211.808 583.904 210.872 586.088 210.872C589.208 210.872 590.336 212.888 590.336 215.84V224H588.152V216.488C588.152 214.496 587.816 212.768 585.32 212.768C583.208 212.768 581.912 214.208 581.912 216.992V224H579.728V206.6H581.912ZM605.003 218.264H595.067C595.139 221.048 597.155 222.392 599.051 222.392C600.971 222.392 602.027 221.528 602.579 220.256H604.835C604.259 222.464 602.195 224.312 599.051 224.312C594.971 224.312 592.715 221.384 592.715 217.568C592.715 213.464 595.451 210.872 598.979 210.872C602.939 210.872 605.267 214.16 605.003 218.264ZM598.979 212.744C597.059 212.744 595.283 213.8 595.091 216.392H602.699C602.627 214.568 601.307 212.744 598.979 212.744ZM589.4 246.856H587.12C586.76 245.32 585.608 244.72 584.072 244.72C582.8 244.72 581.36 245.176 581.36 246.352C581.36 247.384 582.08 247.84 583.328 248.104L585.152 248.464C587.504 248.896 589.568 249.832 589.568 252.304C589.568 254.872 587.264 256.312 584.312 256.312C580.928 256.312 579.032 254.08 578.768 251.824H581.072C581.432 253.48 582.44 254.464 584.36 254.464C586.016 254.464 587.36 253.768 587.36 252.544C587.36 251.224 586.136 250.72 584.744 250.408L582.824 250.024C581.072 249.64 579.152 248.872 579.152 246.448C579.152 244.168 581.456 242.848 584.312 242.848C587.12 242.848 588.992 244.384 589.4 246.856ZM594.521 238.6V245.032C595.265 243.808 596.513 242.872 598.697 242.872C601.817 242.872 602.945 244.888 602.945 247.84V256H600.761V248.488C600.761 246.496 600.425 244.768 597.929 244.768C595.817 244.768 594.521 246.208 594.521 248.992V256H592.337V238.6H594.521ZM617.612 250.264H607.676C607.748 253.048 609.764 254.392 611.66 254.392C613.58 254.392 614.636 253.528 615.188 252.256H617.444C616.868 254.464 614.804 256.312 611.66 256.312C607.58 256.312 605.324 253.384 605.324 249.568C605.324 245.464 608.06 242.872 611.588 242.872C615.548 242.872 617.876 246.16 617.612 250.264ZM611.588 244.744C609.668 244.744 607.892 245.8 607.7 248.392H615.308C615.236 246.568 613.916 244.744 611.588 244.744ZM579.728 275.088H581.912V288H579.728V275.088ZM579.728 270.6H581.912V273.24H579.728V270.6ZM586 275.088V271.848H588.184V275.088H590.632V276.84H588.184V284.496C588.184 285.84 588.28 286.176 589.528 286.176H590.632V288H589.048C586.576 288 586 287.448 586 284.76V276.84H583.96V275.088H586Z" fill="#1E1E1E"/>
<rect x="476" y="96" width="54" height="38" rx="3" fill="#0076DE"/>
<path d="M500.8 115.288C500.8 109.384 497.32 108.664 493.744 108.664H491.512V121.936H493.744C497.32 121.936 500.8 121.216 500.8 115.288ZM489.064 106.6H493.816C499.312 106.6 503.296 108.688 503.296 115.288C503.296 121.912 499.312 124 493.816 124H489.064V106.6ZM507.747 117.592C507.747 121.048 509.619 122.392 511.611 122.392C513.603 122.392 515.475 120.904 515.475 117.592C515.475 114.136 513.603 112.792 511.611 112.792C509.619 112.792 507.747 114.064 507.747 117.592ZM511.611 110.872C514.611 110.872 517.803 112.912 517.803 117.592C517.803 122.272 514.611 124.312 511.611 124.312C508.611 124.312 505.419 122.272 505.419 117.592C505.419 112.912 508.611 110.872 511.611 110.872Z" fill="white"/>
<path d="M477.155 36V25.125H481.385C483.29 25.125 485.345 25.725 485.345 27.96C485.345 28.98 484.67 29.895 484.115 30.255C484.955 30.66 485.735 31.29 485.735 32.79C485.735 35.13 483.8 36 481.565 36H477.155ZM479.3 31.23V34.32H481.67C482.93 34.32 483.545 33.795 483.545 32.79C483.545 31.77 482.915 31.23 481.58 31.23H479.3ZM479.3 26.805V29.61H481.52C482.54 29.61 483.14 29.13 483.14 28.17C483.14 27.315 482.525 26.805 481.52 26.805H479.3ZM490.855 29.37C489.715 29.37 488.905 30.285 488.905 31.98C488.905 33.675 489.715 34.575 490.855 34.575C491.995 34.575 492.805 33.675 492.805 31.98C492.805 30.285 491.995 29.37 490.855 29.37ZM490.855 36.195C488.815 36.195 486.805 34.8 486.805 31.98C486.805 29.145 488.815 27.75 490.855 27.75C492.895 27.75 494.905 29.145 494.905 31.98C494.905 34.8 492.895 36.195 490.855 36.195ZM498.397 36H496.327V27.93H503.542V36H501.472V29.565H498.397V36ZM509.499 34.605C510.579 34.605 511.344 33.555 511.344 31.98C511.344 30.405 510.579 29.34 509.499 29.34C508.359 29.34 507.609 30.345 507.609 31.965C507.609 33.63 508.359 34.605 509.499 34.605ZM507.684 38.625H505.614V27.93H507.684V28.965C508.119 28.2 508.989 27.75 510.009 27.75C511.959 27.75 513.519 29.43 513.519 31.965C513.519 34.545 511.914 36.195 509.994 36.195C509.154 36.195 508.209 35.88 507.684 34.98V38.625ZM518.482 29.37C517.342 29.37 516.532 30.285 516.532 31.98C516.532 33.675 517.342 34.575 518.482 34.575C519.622 34.575 520.432 33.675 520.432 31.98C520.432 30.285 519.622 29.37 518.482 29.37ZM518.482 36.195C516.442 36.195 514.432 34.8 514.432 31.98C514.432 29.145 516.442 27.75 518.482 27.75C520.522 27.75 522.532 29.145 522.532 31.98C522.532 34.8 520.522 36.195 518.482 36.195ZM527.491 27.75C529.186 27.75 530.866 28.695 531.151 30.69H529.171C529.006 29.91 528.286 29.355 527.491 29.355C526.411 29.355 525.556 30.27 525.556 31.95C525.556 33.645 526.366 34.59 527.506 34.59C528.226 34.59 528.961 34.215 529.246 33.255H531.226C530.746 35.46 529.081 36.195 527.401 36.195C524.986 36.195 523.441 34.425 523.441 31.98C523.441 29.52 525.076 27.75 527.491 27.75Z" fill="#0F0F0F"/>
<rect x="645.5" y="155.5" width="37" height="37" rx="2.5" stroke="#1E1E1E"/>
<path d="M656.264 165.6H658.952L663.776 180.48L668.504 165.6H671.072L665.168 183H662.24L656.264 165.6Z" fill="#1E1E1E"/>
<path d="M699.192 164.288C701.904 164.288 704.616 165.608 704.616 168.512C704.616 170.816 703.008 172.424 701.376 173.456C699.888 174.416 699.36 174.848 699.36 176.168V176.912H697.128V176.096C697.128 174.08 698.088 173.216 700.104 171.92C701.352 171.128 702.336 170.168 702.336 168.608C702.336 167.072 700.992 166.112 699.144 166.112C696.48 166.112 695.568 167.984 695.496 169.448H693.312C693.312 166.328 695.808 164.288 699.192 164.288ZM699.672 182H696.912V179.24H699.672V182Z" fill="#1E1E1E"/>
<rect x="476" y="228" width="82" height="38" rx="3" fill="#0076DE"/>
<rect x="518" y="238" width="29" height="22" rx="3" fill="#589E07"/>
<path d="M500.8 247.288C500.8 241.384 497.32 240.664 493.744 240.664H491.512V253.936H493.744C497.32 253.936 500.8 253.216 500.8 247.288ZM489.064 238.6H493.816C499.312 238.6 503.296 240.688 503.296 247.288C503.296 253.912 499.312 256 493.816 256H489.064V238.6ZM507.747 249.592C507.747 253.048 509.619 254.392 511.611 254.392C513.603 254.392 515.475 252.904 515.475 249.592C515.475 246.136 513.603 244.792 511.611 244.792C509.619 244.792 507.747 246.064 507.747 249.592ZM511.611 242.872C514.611 242.872 517.803 244.912 517.803 249.592C517.803 254.272 514.611 256.312 511.611 256.312C508.611 256.312 505.419 254.272 505.419 249.592C505.419 244.912 508.611 242.872 511.611 242.872ZM532.003 250.264H522.067C522.139 253.048 524.155 254.392 526.051 254.392C527.971 254.392 529.027 253.528 529.579 252.256H531.835C531.259 254.464 529.195 256.312 526.051 256.312C521.971 256.312 519.715 253.384 519.715 249.568C519.715 245.464 522.451 242.872 525.979 242.872C529.939 242.872 532.267 246.16 532.003 250.264ZM525.979 244.744C524.059 244.744 522.283 245.8 522.091 248.392H529.699C529.627 246.568 528.307 244.744 525.979 244.744ZM544.267 246.856H541.987C541.627 245.32 540.475 244.72 538.939 244.72C537.667 244.72 536.227 245.176 536.227 246.352C536.227 247.384 536.947 247.84 538.195 248.104L540.019 248.464C542.371 248.896 544.435 249.832 544.435 252.304C544.435 254.872 542.131 256.312 539.179 256.312C535.795 256.312 533.899 254.08 533.635 251.824H535.939C536.299 253.48 537.307 254.464 539.227 254.464C540.883 254.464 542.227 253.768 542.227 252.544C542.227 251.224 541.003 250.72 539.611 250.408L537.691 250.024C535.939 249.64 534.019 248.872 534.019 246.448C534.019 244.168 536.323 242.848 539.179 242.848C541.987 242.848 543.859 244.384 544.267 246.856Z" fill="white"/>
</svg>
