<svg width="279" height="69" viewBox="0 0 279 69" fill="none" xmlns="http://www.w3.org/2000/svg">
	<rect x="0.5" y="32.5" width="107" height="36" rx="18" stroke="#1E1E1E"/>
	<rect x="113.5" y="32.5" width="81" height="36" rx="18" stroke="#0076DE"/>
	<rect x="200.5" y="32.5" width="66" height="36" rx="18" stroke="#1E1E1E"/>
	<path
		d="M27.4 59H24.7L19.7 43.2V59H17.15V40.875H21.425L26.05 55.975L30.675 40.875H34.95V59H32.4V43.2L27.4 59ZM47.3697 53.375V52.525C43.2447 52.925 40.6197 53.55 40.6197 55.4C40.6197 56.675 41.5947 57.525 43.2197 57.525C45.3447 57.525 47.3697 56.55 47.3697 53.375ZM42.7197 59.325C40.1947 59.325 38.0947 57.925 38.0947 55.45C38.0947 52.275 41.6947 51.325 47.1947 50.725V50.4C47.1947 47.925 45.8447 47.125 44.1447 47.125C42.2447 47.125 41.1697 48.125 41.0697 49.8H38.7197C38.9197 46.9 41.5197 45.275 44.1197 45.275C47.8447 45.275 49.4947 47.025 49.4697 50.825L49.4447 53.925C49.4197 56.2 49.5197 57.725 49.7947 59H47.4947C47.4197 58.5 47.3447 57.95 47.3197 57.15C46.4947 58.55 45.1197 59.325 42.7197 59.325ZM62.9346 49.475H60.5596C60.1846 47.875 58.9846 47.25 57.3846 47.25C56.0596 47.25 54.5596 47.725 54.5596 48.95C54.5596 50.025 55.3096 50.5 56.6096 50.775L58.5096 51.15C60.9596 51.6 63.1096 52.575 63.1096 55.15C63.1096 57.825 60.7096 59.325 57.6346 59.325C54.1096 59.325 52.1346 57 51.8596 54.65H54.2596C54.6346 56.375 55.6846 57.4 57.6846 57.4C59.4096 57.4 60.8096 56.675 60.8096 55.4C60.8096 54.025 59.5346 53.5 58.0846 53.175L56.0846 52.775C54.2596 52.375 52.2596 51.575 52.2596 49.05C52.2596 46.675 54.6596 45.3 57.6346 45.3C60.5596 45.3 62.5096 46.9 62.9346 49.475ZM68.2693 40.875V47.575C69.0443 46.3 70.3443 45.325 72.6193 45.325C75.8693 45.325 77.0443 47.425 77.0443 50.5V59H74.7693V51.175C74.7693 49.1 74.4193 47.3 71.8193 47.3C69.6193 47.3 68.2693 48.8 68.2693 51.7V59H65.9943V40.875H68.2693ZM88.9225 53.375V52.525C84.7975 52.925 82.1725 53.55 82.1725 55.4C82.1725 56.675 83.1475 57.525 84.7725 57.525C86.8975 57.525 88.9225 56.55 88.9225 53.375ZM84.2725 59.325C81.7475 59.325 79.6475 57.925 79.6475 55.45C79.6475 52.275 83.2475 51.325 88.7475 50.725V50.4C88.7475 47.925 87.3975 47.125 85.6975 47.125C83.7975 47.125 82.7225 48.125 82.6225 49.8H80.2725C80.4725 46.9 83.0725 45.275 85.6725 45.275C89.3975 45.275 91.0475 47.025 91.0225 50.825L90.9975 53.925C90.9725 56.2 91.0725 57.725 91.3475 59H89.0475C88.9725 58.5 88.8975 57.95 88.8725 57.15C88.0475 58.55 86.6725 59.325 84.2725 59.325Z"
		fill="black"/>
	<path
		d="M132.075 40.875V59H129.8V40.875H132.075ZM135.684 45.55H137.959V59H135.684V45.55ZM135.684 40.875H137.959V43.625H135.684V40.875ZM141.568 40.875H143.843V51.6L149.268 45.55H152.068L146.943 51.125L152.768 59H149.993L145.418 52.8L143.843 54.5V59H141.568V40.875ZM165.698 53.025H155.348C155.423 55.925 157.523 57.325 159.498 57.325C161.498 57.325 162.598 56.425 163.173 55.1H165.523C164.923 57.4 162.773 59.325 159.498 59.325C155.248 59.325 152.898 56.275 152.898 52.3C152.898 48.025 155.748 45.325 159.423 45.325C163.548 45.325 165.973 48.75 165.698 53.025ZM159.423 47.275C157.423 47.275 155.573 48.375 155.373 51.075H163.298C163.223 49.175 161.848 47.275 159.423 47.275ZM178.474 49.475H176.099C175.724 47.875 174.524 47.25 172.924 47.25C171.599 47.25 170.099 47.725 170.099 48.95C170.099 50.025 170.849 50.5 172.149 50.775L174.049 51.15C176.499 51.6 178.649 52.575 178.649 55.15C178.649 57.825 176.249 59.325 173.174 59.325C169.649 59.325 167.674 57 167.399 54.65H169.799C170.174 56.375 171.224 57.4 173.224 57.4C174.949 57.4 176.349 56.675 176.349 55.4C176.349 54.025 175.074 53.5 173.624 53.175L171.624 52.775C169.799 52.375 167.799 51.575 167.799 49.05C167.799 46.675 170.199 45.3 173.174 45.3C176.099 45.3 178.049 46.9 178.474 49.475Z"
		fill="#0076DE"/>
	<path
		d="M217.45 45.55V42.175H219.725V45.55H222.275V47.375H219.725V55.35C219.725 56.75 219.825 57.1 221.125 57.1H222.275V59H220.625C218.05 59 217.45 58.425 217.45 55.625V47.375H215.325V45.55H217.45ZM236.683 53.025H226.333C226.408 55.925 228.508 57.325 230.483 57.325C232.483 57.325 233.583 56.425 234.158 55.1H236.508C235.908 57.4 233.758 59.325 230.483 59.325C226.233 59.325 223.883 56.275 223.883 52.3C223.883 48.025 226.733 45.325 230.408 45.325C234.533 45.325 236.958 48.75 236.683 53.025ZM230.408 47.275C228.408 47.275 226.558 48.375 226.358 51.075H234.283C234.208 49.175 232.833 47.275 230.408 47.275ZM247.687 53.375V52.525C243.562 52.925 240.937 53.55 240.937 55.4C240.937 56.675 241.912 57.525 243.537 57.525C245.662 57.525 247.687 56.55 247.687 53.375ZM243.037 59.325C240.512 59.325 238.412 57.925 238.412 55.45C238.412 52.275 242.012 51.325 247.512 50.725V50.4C247.512 47.925 246.162 47.125 244.462 47.125C242.562 47.125 241.487 48.125 241.387 49.8H239.037C239.237 46.9 241.837 45.275 244.437 45.275C248.162 45.275 249.812 47.025 249.787 50.825L249.762 53.925C249.737 56.2 249.837 57.725 250.112 59H247.812C247.737 58.5 247.662 57.95 247.637 57.15C246.812 58.55 245.437 59.325 243.037 59.325Z"
		fill="black"/>
	<path d="M276.5 59H273.625V56.125H276.5V59Z" fill="black"/>
	<path
		d="M7.084 16H5.572L2.772 7.152V16H1.344V5.85H3.738L6.328 14.306L8.918 5.85H11.312V16H9.884V7.152L7.084 16ZM18.4142 12.85V12.374C16.1042 12.598 14.6342 12.948 14.6342 13.984C14.6342 14.698 15.1802 15.174 16.0902 15.174C17.2802 15.174 18.4142 14.628 18.4142 12.85ZM15.8102 16.182C14.3962 16.182 13.2202 15.398 13.2202 14.012C13.2202 12.234 15.2362 11.702 18.3162 11.366V11.184C18.3162 9.798 17.5602 9.35 16.6082 9.35C15.5442 9.35 14.9422 9.91 14.8862 10.848H13.5702C13.6822 9.224 15.1382 8.314 16.5942 8.314C18.6802 8.314 19.6042 9.294 19.5902 11.422L19.5762 13.158C19.5622 14.432 19.6182 15.286 19.7722 16H18.4842C18.4422 15.72 18.4002 15.412 18.3862 14.964C17.9242 15.748 17.1542 16.182 15.8102 16.182ZM30.8405 8.468V16H21.5585V8.468H22.8325V14.894H25.5625V8.468H26.8365V14.894H29.5665V8.468H30.8405ZM37.6778 12.85V12.374C35.3678 12.598 33.8978 12.948 33.8978 13.984C33.8978 14.698 34.4438 15.174 35.3538 15.174C36.5438 15.174 37.6778 14.628 37.6778 12.85ZM35.0738 16.182C33.6598 16.182 32.4838 15.398 32.4838 14.012C32.4838 12.234 34.4998 11.702 37.5798 11.366V11.184C37.5798 9.798 36.8238 9.35 35.8718 9.35C34.8078 9.35 34.2058 9.91 34.1498 10.848H32.8338C32.9458 9.224 34.4018 8.314 35.8578 8.314C37.9438 8.314 38.8678 9.294 38.8538 11.422L38.8398 13.158C38.8258 14.432 38.8818 15.286 39.0358 16H37.7478C37.7058 15.72 37.6638 15.412 37.6498 14.964C37.1878 15.748 36.4178 16.182 35.0738 16.182ZM50.0944 8.468V16H48.8204V9.574H46.2864L46.1744 11.394C45.9924 14.432 45.3344 16 43.5844 16H43.3464V14.894H43.4864C44.1584 14.894 44.8024 14.166 44.9564 11.044L45.0684 8.468H50.0944ZM58.4398 8.342C60.1898 8.342 62.0518 9.532 62.0518 12.262C62.0518 14.992 60.1898 16.182 58.4398 16.182C56.8718 16.182 55.2058 15.118 55.0238 12.71H53.5258V16H52.2518V8.468H53.5258V11.604H55.0518C55.3178 9.322 56.8998 8.342 58.4398 8.342ZM58.4398 15.062C59.6018 15.062 60.6938 14.194 60.6938 12.262C60.6938 10.246 59.6018 9.462 58.4398 9.462C57.3898 9.462 56.3678 10.204 56.3678 12.262C56.3678 14.278 57.3898 15.062 58.4398 15.062ZM67.0422 8.902C68.7502 8.902 70.2202 10.092 70.2202 12.472C70.2202 14.894 68.6662 16.182 66.8182 16.182C64.8722 16.182 63.2762 14.824 63.2762 12.08V11.212C63.3182 8.496 64.2142 6.914 67.2382 6.312L69.7162 5.822V6.956L67.3082 7.474C65.4742 7.88 64.5922 8.566 64.4102 10.442C64.9142 9.392 65.9222 8.902 67.0422 8.902ZM66.8182 15.076C68.0502 15.076 68.8622 14.138 68.8622 12.5C68.8622 10.848 67.9942 10.008 66.8322 10.008C65.6842 10.008 64.6482 10.792 64.6482 12.486C64.6482 14.082 65.5442 15.076 66.8182 15.076ZM76.8866 16V10.316L72.9946 16H71.7206V8.468H72.9946V14.152L76.8866 8.468H78.1606V16H76.8866ZM85.8782 9.574H83.3022V16H82.0282V9.574H79.4522V8.468H85.8782V9.574ZM96.0361 16H94.7621V12.948C93.8801 13.158 93.2081 13.256 92.5221 13.256C90.9401 13.256 90.1141 12.556 90.1141 10.918V8.468H91.3881V10.652C91.3881 11.772 91.9201 12.15 92.9841 12.15C93.4741 12.15 94.0621 12.066 94.7621 11.898V8.468H96.0361V16ZM102.865 12.85V12.374C100.555 12.598 99.0853 12.948 99.0853 13.984C99.0853 14.698 99.6313 15.174 100.541 15.174C101.731 15.174 102.865 14.628 102.865 12.85ZM100.261 16.182C98.8473 16.182 97.6713 15.398 97.6713 14.012C97.6713 12.234 99.6873 11.702 102.767 11.366V11.184C102.767 9.798 102.011 9.35 101.059 9.35C99.9953 9.35 99.3933 9.91 99.3373 10.848H98.0213C98.1333 9.224 99.5893 8.314 101.045 8.314C103.131 8.314 104.055 9.294 104.041 11.422L104.027 13.158C104.013 14.432 104.069 15.286 104.223 16H102.935C102.893 15.72 102.851 15.412 102.837 14.964C102.375 15.748 101.605 16.182 100.261 16.182ZM110.518 5.85H111.512C111.4 6.69 110.868 7.544 109.272 7.544C107.732 7.544 107.144 6.69 107.074 5.85H108.068C108.124 6.298 108.46 6.704 109.286 6.704C110.112 6.704 110.462 6.298 110.518 5.85ZM111.176 16V10.316L107.284 16H106.01V8.468H107.284V14.152L111.176 8.468H112.45V16H111.176ZM116.051 16H114.441V14.39H116.051V16Z"
		fill="#8E8E8E"/>
</svg>
