<svg width="393" height="69" viewBox="0 0 393 69" fill="none" xmlns="http://www.w3.org/2000/svg">
	<rect x="108.5" y="32.5" width="107" height="36" rx="18" stroke="#1E1E1E"/>
	<rect x="221.5" y="32.5" width="81" height="36" rx="18" stroke="#0076DE"/>
	<rect x="39.5" y="32.5" width="63" height="36" rx="18" fill="#1E1E1E" stroke="#1E1E1E"/>
	<rect y="36" width="29" height="29" rx="14.5" fill="#C8C8C8"/>
	<rect x="308.5" y="32.5" width="66" height="36" rx="18" stroke="#1E1E1E"/>
	<path
		d="M135.4 59H132.7L127.7 43.2V59H125.15V40.875H129.425L134.05 55.975L138.675 40.875H142.95V59H140.4V43.2L135.4 59ZM155.37 53.375V52.525C151.245 52.925 148.62 53.55 148.62 55.4C148.62 56.675 149.595 57.525 151.22 57.525C153.345 57.525 155.37 56.55 155.37 53.375ZM150.72 59.325C148.195 59.325 146.095 57.925 146.095 55.45C146.095 52.275 149.695 51.325 155.195 50.725V50.4C155.195 47.925 153.845 47.125 152.145 47.125C150.245 47.125 149.17 48.125 149.07 49.8H146.72C146.92 46.9 149.52 45.275 152.12 45.275C155.845 45.275 157.495 47.025 157.47 50.825L157.445 53.925C157.42 56.2 157.52 57.725 157.795 59H155.495C155.42 58.5 155.345 57.95 155.32 57.15C154.495 58.55 153.12 59.325 150.72 59.325ZM170.935 49.475H168.56C168.185 47.875 166.985 47.25 165.385 47.25C164.06 47.25 162.56 47.725 162.56 48.95C162.56 50.025 163.31 50.5 164.61 50.775L166.51 51.15C168.96 51.6 171.11 52.575 171.11 55.15C171.11 57.825 168.71 59.325 165.635 59.325C162.11 59.325 160.135 57 159.86 54.65H162.26C162.635 56.375 163.685 57.4 165.685 57.4C167.41 57.4 168.81 56.675 168.81 55.4C168.81 54.025 167.535 53.5 166.085 53.175L164.085 52.775C162.26 52.375 160.26 51.575 160.26 49.05C160.26 46.675 162.66 45.3 165.635 45.3C168.56 45.3 170.51 46.9 170.935 49.475ZM176.269 40.875V47.575C177.044 46.3 178.344 45.325 180.619 45.325C183.869 45.325 185.044 47.425 185.044 50.5V59H182.769V51.175C182.769 49.1 182.419 47.3 179.819 47.3C177.619 47.3 176.269 48.8 176.269 51.7V59H173.994V40.875H176.269ZM196.922 53.375V52.525C192.797 52.925 190.172 53.55 190.172 55.4C190.172 56.675 191.147 57.525 192.772 57.525C194.897 57.525 196.922 56.55 196.922 53.375ZM192.272 59.325C189.747 59.325 187.647 57.925 187.647 55.45C187.647 52.275 191.247 51.325 196.747 50.725V50.4C196.747 47.925 195.397 47.125 193.697 47.125C191.797 47.125 190.722 48.125 190.622 49.8H188.272C188.472 46.9 191.072 45.275 193.672 45.275C197.397 45.275 199.047 47.025 199.022 50.825L198.997 53.925C198.972 56.2 199.072 57.725 199.347 59H197.047C196.972 58.5 196.897 57.95 196.872 57.15C196.047 58.55 194.672 59.325 192.272 59.325Z"
		fill="black"/>
	<path
		d="M68.375 49.925C68.375 43.775 64.75 43.025 61.025 43.025H58.7V56.85H61.025C64.75 56.85 68.375 56.1 68.375 49.925ZM56.15 40.875H61.1C66.825 40.875 70.975 43.05 70.975 49.925C70.975 56.825 66.825 59 61.1 59H56.15V40.875ZM75.6117 52.325C75.6117 55.925 77.5617 57.325 79.6367 57.325C81.7117 57.325 83.6617 55.775 83.6617 52.325C83.6617 48.725 81.7117 47.325 79.6367 47.325C77.5617 47.325 75.6117 48.65 75.6117 52.325ZM79.6367 45.325C82.7617 45.325 86.0867 47.45 86.0867 52.325C86.0867 57.2 82.7617 59.325 79.6367 59.325C76.5117 59.325 73.1867 57.2 73.1867 52.325C73.1867 47.45 76.5117 45.325 79.6367 45.325Z"
		fill="white"/>
	<path
		d="M240.075 40.875V59H237.8V40.875H240.075ZM243.684 45.55H245.959V59H243.684V45.55ZM243.684 40.875H245.959V43.625H243.684V40.875ZM249.568 40.875H251.843V51.6L257.268 45.55H260.068L254.943 51.125L260.768 59H257.993L253.418 52.8L251.843 54.5V59H249.568V40.875ZM273.698 53.025H263.348C263.423 55.925 265.523 57.325 267.498 57.325C269.498 57.325 270.598 56.425 271.173 55.1H273.523C272.923 57.4 270.773 59.325 267.498 59.325C263.248 59.325 260.898 56.275 260.898 52.3C260.898 48.025 263.748 45.325 267.423 45.325C271.548 45.325 273.973 48.75 273.698 53.025ZM267.423 47.275C265.423 47.275 263.573 48.375 263.373 51.075H271.298C271.223 49.175 269.848 47.275 267.423 47.275ZM286.474 49.475H284.099C283.724 47.875 282.524 47.25 280.924 47.25C279.599 47.25 278.099 47.725 278.099 48.95C278.099 50.025 278.849 50.5 280.149 50.775L282.049 51.15C284.499 51.6 286.649 52.575 286.649 55.15C286.649 57.825 284.249 59.325 281.174 59.325C277.649 59.325 275.674 57 275.399 54.65H277.799C278.174 56.375 279.224 57.4 281.224 57.4C282.949 57.4 284.349 56.675 284.349 55.4C284.349 54.025 283.074 53.5 281.624 53.175L279.624 52.775C277.799 52.375 275.799 51.575 275.799 49.05C275.799 46.675 278.199 45.3 281.174 45.3C284.099 45.3 286.049 46.9 286.474 49.475Z"
		fill="#0076DE"/>
	<path d="M15.878 57H14.24V46.794H11.216V45.678C13.07 45.624 14.06 45.354 14.762 43.95H15.878V57Z" fill="white"/>
	<path
		d="M325.45 45.55V42.175H327.725V45.55H330.275V47.375H327.725V55.35C327.725 56.75 327.825 57.1 329.125 57.1H330.275V59H328.625C326.05 59 325.45 58.425 325.45 55.625V47.375H323.325V45.55H325.45ZM344.683 53.025H334.333C334.408 55.925 336.508 57.325 338.483 57.325C340.483 57.325 341.583 56.425 342.158 55.1H344.508C343.908 57.4 341.758 59.325 338.483 59.325C334.233 59.325 331.883 56.275 331.883 52.3C331.883 48.025 334.733 45.325 338.408 45.325C342.533 45.325 344.958 48.75 344.683 53.025ZM338.408 47.275C336.408 47.275 334.558 48.375 334.358 51.075H342.283C342.208 49.175 340.833 47.275 338.408 47.275ZM355.687 53.375V52.525C351.562 52.925 348.937 53.55 348.937 55.4C348.937 56.675 349.912 57.525 351.537 57.525C353.662 57.525 355.687 56.55 355.687 53.375ZM351.037 59.325C348.512 59.325 346.412 57.925 346.412 55.45C346.412 52.275 350.012 51.325 355.512 50.725V50.4C355.512 47.925 354.162 47.125 352.462 47.125C350.562 47.125 349.487 48.125 349.387 49.8H347.037C347.237 46.9 349.837 45.275 352.437 45.275C356.162 45.275 357.812 47.025 357.787 50.825L357.762 53.925C357.737 56.2 357.837 57.725 358.112 59H355.812C355.737 58.5 355.662 57.95 355.637 57.15C354.812 58.55 353.437 59.325 351.037 59.325Z"
		fill="black"/>
	<path
		d="M386.45 40.55C389.275 40.55 392.1 41.925 392.1 44.95C392.1 47.35 390.425 49.025 388.725 50.1C387.175 51.1 386.625 51.55 386.625 52.925V53.7H384.3V52.85C384.3 50.75 385.3 49.85 387.4 48.5C388.7 47.675 389.725 46.675 389.725 45.05C389.725 43.45 388.325 42.45 386.4 42.45C383.625 42.45 382.675 44.4 382.6 45.925H380.325C380.325 42.675 382.925 40.55 386.45 40.55ZM386.95 59H384.075V56.125H386.95V59Z"
		fill="black"/>
	<path
		d="M7.084 16H5.572L2.772 7.152V16H1.344V5.85H3.738L6.328 14.306L8.918 5.85H11.312V16H9.884V7.152L7.084 16ZM18.4142 12.85V12.374C16.1042 12.598 14.6342 12.948 14.6342 13.984C14.6342 14.698 15.1802 15.174 16.0902 15.174C17.2802 15.174 18.4142 14.628 18.4142 12.85ZM15.8102 16.182C14.3962 16.182 13.2202 15.398 13.2202 14.012C13.2202 12.234 15.2362 11.702 18.3162 11.366V11.184C18.3162 9.798 17.5602 9.35 16.6082 9.35C15.5442 9.35 14.9422 9.91 14.8862 10.848H13.5702C13.6822 9.224 15.1382 8.314 16.5942 8.314C18.6802 8.314 19.6042 9.294 19.5902 11.422L19.5762 13.158C19.5622 14.432 19.6182 15.286 19.7722 16H18.4842C18.4422 15.72 18.4002 15.412 18.3862 14.964C17.9242 15.748 17.1542 16.182 15.8102 16.182ZM30.8405 8.468V16H21.5585V8.468H22.8325V14.894H25.5625V8.468H26.8365V14.894H29.5665V8.468H30.8405ZM37.6778 12.85V12.374C35.3678 12.598 33.8978 12.948 33.8978 13.984C33.8978 14.698 34.4438 15.174 35.3538 15.174C36.5438 15.174 37.6778 14.628 37.6778 12.85ZM35.0738 16.182C33.6598 16.182 32.4838 15.398 32.4838 14.012C32.4838 12.234 34.4998 11.702 37.5798 11.366V11.184C37.5798 9.798 36.8238 9.35 35.8718 9.35C34.8078 9.35 34.2058 9.91 34.1498 10.848H32.8338C32.9458 9.224 34.4018 8.314 35.8578 8.314C37.9438 8.314 38.8678 9.294 38.8538 11.422L38.8398 13.158C38.8258 14.432 38.8818 15.286 39.0358 16H37.7478C37.7058 15.72 37.6638 15.412 37.6498 14.964C37.1878 15.748 36.4178 16.182 35.0738 16.182ZM50.0944 8.468V16H48.8204V9.574H46.2864L46.1744 11.394C45.9924 14.432 45.3344 16 43.5844 16H43.3464V14.894H43.4864C44.1584 14.894 44.8024 14.166 44.9564 11.044L45.0684 8.468H50.0944ZM58.4398 8.342C60.1898 8.342 62.0518 9.532 62.0518 12.262C62.0518 14.992 60.1898 16.182 58.4398 16.182C56.8718 16.182 55.2058 15.118 55.0238 12.71H53.5258V16H52.2518V8.468H53.5258V11.604H55.0518C55.3178 9.322 56.8998 8.342 58.4398 8.342ZM58.4398 15.062C59.6018 15.062 60.6938 14.194 60.6938 12.262C60.6938 10.246 59.6018 9.462 58.4398 9.462C57.3898 9.462 56.3678 10.204 56.3678 12.262C56.3678 14.278 57.3898 15.062 58.4398 15.062ZM67.0422 8.902C68.7502 8.902 70.2202 10.092 70.2202 12.472C70.2202 14.894 68.6662 16.182 66.8182 16.182C64.8722 16.182 63.2762 14.824 63.2762 12.08V11.212C63.3182 8.496 64.2142 6.914 67.2382 6.312L69.7162 5.822V6.956L67.3082 7.474C65.4742 7.88 64.5922 8.566 64.4102 10.442C64.9142 9.392 65.9222 8.902 67.0422 8.902ZM66.8182 15.076C68.0502 15.076 68.8622 14.138 68.8622 12.5C68.8622 10.848 67.9942 10.008 66.8322 10.008C65.6842 10.008 64.6482 10.792 64.6482 12.486C64.6482 14.082 65.5442 15.076 66.8182 15.076ZM76.8866 16V10.316L72.9946 16H71.7206V8.468H72.9946V14.152L76.8866 8.468H78.1606V16H76.8866ZM85.8782 9.574H83.3022V16H82.0282V9.574H79.4522V8.468H85.8782V9.574ZM96.0361 16H94.7621V12.948C93.8801 13.158 93.2081 13.256 92.5221 13.256C90.9401 13.256 90.1141 12.556 90.1141 10.918V8.468H91.3881V10.652C91.3881 11.772 91.9201 12.15 92.9841 12.15C93.4741 12.15 94.0621 12.066 94.7621 11.898V8.468H96.0361V16ZM102.865 12.85V12.374C100.555 12.598 99.0853 12.948 99.0853 13.984C99.0853 14.698 99.6313 15.174 100.541 15.174C101.731 15.174 102.865 14.628 102.865 12.85ZM100.261 16.182C98.8473 16.182 97.6713 15.398 97.6713 14.012C97.6713 12.234 99.6873 11.702 102.767 11.366V11.184C102.767 9.798 102.011 9.35 101.059 9.35C99.9953 9.35 99.3933 9.91 99.3373 10.848H98.0213C98.1333 9.224 99.5893 8.314 101.045 8.314C103.131 8.314 104.055 9.294 104.041 11.422L104.027 13.158C104.013 14.432 104.069 15.286 104.223 16H102.935C102.893 15.72 102.851 15.412 102.837 14.964C102.375 15.748 101.605 16.182 100.261 16.182ZM110.518 5.85H111.512C111.4 6.69 110.868 7.544 109.272 7.544C107.732 7.544 107.144 6.69 107.074 5.85H108.068C108.124 6.298 108.46 6.704 109.286 6.704C110.112 6.704 110.462 6.298 110.518 5.85ZM111.176 16V10.316L107.284 16H106.01V8.468H107.284V14.152L111.176 8.468H112.45V16H111.176ZM117.143 5.668C118.725 5.668 120.307 6.438 120.307 8.132C120.307 9.476 119.369 10.414 118.417 11.016C117.549 11.576 117.241 11.828 117.241 12.598V13.032H115.939V12.556C115.939 11.38 116.499 10.876 117.675 10.12C118.403 9.658 118.977 9.098 118.977 8.188C118.977 7.292 118.193 6.732 117.115 6.732C115.561 6.732 115.029 7.824 114.987 8.678H113.713C113.713 6.858 115.169 5.668 117.143 5.668ZM117.423 16H115.813V14.39H117.423V16Z"
		fill="#8E8E8E"/>
</svg>
