<svg width="372" height="69" viewBox="0 0 372 69" fill="none" xmlns="http://www.w3.org/2000/svg">
<rect y="36" width="29" height="29" rx="14.5" fill="#C8C8C8"/>
<path d="M15.878 57H14.24V46.794H11.216V45.678C13.07 45.624 14.06 45.354 14.762 43.95H15.878V57Z" fill="white"/>
<path d="M8.344 5.85V16H6.916V12.192H5.432C5.222 12.192 4.9 12.164 4.788 12.164L2.268 16H0.616L3.36 11.828C2.072 11.394 1.176 10.484 1.176 8.972C1.176 6.578 2.996 5.85 5.516 5.85H8.344ZM6.916 7.082H5.418C3.78 7.082 2.632 7.432 2.632 9.014C2.632 10.526 3.85 10.96 5.418 10.96H6.916V7.082ZM20.3656 16H19.0916V12.71H15.3676V16H14.0936V8.468H15.3676V11.604H19.0916V8.468H20.3656V16ZM29.0955 12.654H23.2995C23.3415 14.278 24.5175 15.062 25.6235 15.062C26.7435 15.062 27.3595 14.558 27.6815 13.816H28.9975C28.6615 15.104 27.4575 16.182 25.6235 16.182C23.2435 16.182 21.9275 14.474 21.9275 12.248C21.9275 9.854 23.5235 8.342 25.5815 8.342C27.8915 8.342 29.2495 10.26 29.0955 12.654ZM25.5815 9.434C24.4615 9.434 23.4255 10.05 23.3135 11.562H27.7515C27.7095 10.498 26.9395 9.434 25.5815 9.434ZM39.9362 8.468V16H38.6622V9.574H36.1282L36.0162 11.394C35.8342 14.432 35.1762 16 33.4262 16H33.1882V14.894H33.3282C34.0002 14.894 34.6442 14.166 34.7982 11.044L34.9102 8.468H39.9362ZM48.2816 8.342C50.0316 8.342 51.8936 9.532 51.8936 12.262C51.8936 14.992 50.0316 16.182 48.2816 16.182C46.7136 16.182 45.0476 15.118 44.8656 12.71H43.3676V16H42.0936V8.468H43.3676V11.604H44.8936C45.1596 9.322 46.7416 8.342 48.2816 8.342ZM48.2816 15.062C49.4436 15.062 50.5356 14.194 50.5356 12.262C50.5356 10.246 49.4436 9.462 48.2816 9.462C47.2316 9.462 46.2096 10.204 46.2096 12.262C46.2096 14.278 47.2316 15.062 48.2816 15.062ZM56.884 8.902C58.592 8.902 60.062 10.092 60.062 12.472C60.062 14.894 58.508 16.182 56.66 16.182C54.714 16.182 53.118 14.824 53.118 12.08V11.212C53.16 8.496 54.056 6.914 57.08 6.312L59.558 5.822V6.956L57.15 7.474C55.316 7.88 54.434 8.566 54.252 10.442C54.756 9.392 55.764 8.902 56.884 8.902ZM56.66 15.076C57.892 15.076 58.704 14.138 58.704 12.5C58.704 10.848 57.836 10.008 56.674 10.008C55.526 10.008 54.49 10.792 54.49 12.486C54.49 14.082 55.386 15.076 56.66 15.076ZM67.5124 8.468V16H66.2384V9.574H63.7044L63.5924 11.394C63.4104 14.432 62.7524 16 61.0024 16H60.7644V14.894H60.9044C61.5764 14.894 62.2204 14.166 62.3744 11.044L62.4864 8.468H67.5124ZM75.8578 8.342C77.6078 8.342 79.4698 9.532 79.4698 12.262C79.4698 14.992 77.6078 16.182 75.8578 16.182C74.2898 16.182 72.6238 15.118 72.4418 12.71H70.9438V16H69.6698V8.468H70.9438V11.604H72.4698C72.7358 9.322 74.3178 8.342 75.8578 8.342ZM75.8578 15.062C77.0198 15.062 78.1118 14.194 78.1118 12.262C78.1118 10.246 77.0198 9.462 75.8578 9.462C74.8078 9.462 73.7858 10.204 73.7858 12.262C73.7858 14.278 74.8078 15.062 75.8578 15.062ZM89.9384 16H88.6644V12.948C87.7824 13.158 87.1104 13.256 86.4244 13.256C84.8424 13.256 84.0164 12.556 84.0164 10.918V8.468H85.2904V10.652C85.2904 11.772 85.8224 12.15 86.8864 12.15C87.3764 12.15 87.9644 12.066 88.6644 11.898V8.468H89.9384V16ZM96.7677 12.85V12.374C94.4577 12.598 92.9877 12.948 92.9877 13.984C92.9877 14.698 93.5337 15.174 94.4437 15.174C95.6337 15.174 96.7677 14.628 96.7677 12.85ZM94.1637 16.182C92.7497 16.182 91.5737 15.398 91.5737 14.012C91.5737 12.234 93.5897 11.702 96.6697 11.366V11.184C96.6697 9.798 95.9137 9.35 94.9617 9.35C93.8977 9.35 93.2957 9.91 93.2397 10.848H91.9237C92.0357 9.224 93.4917 8.314 94.9477 8.314C97.0337 8.314 97.9577 9.294 97.9437 11.422L97.9297 13.158C97.9157 14.432 97.9717 15.286 98.1257 16H96.8377C96.7957 15.72 96.7537 15.412 96.7397 14.964C96.2777 15.748 95.5077 16.182 94.1637 16.182ZM104.42 5.85H105.414C105.302 6.69 104.77 7.544 103.174 7.544C101.634 7.544 101.046 6.69 100.976 5.85H101.97C102.026 6.298 102.362 6.704 103.188 6.704C104.014 6.704 104.364 6.298 104.42 5.85ZM105.078 16V10.316L101.186 16H99.912V8.468H101.186V14.152L105.078 8.468H106.352V16H105.078ZM109.954 16H108.344V14.39H109.954V16Z" fill="#8E8E8E"/>
<rect x="39.5" y="32.5" width="36" height="36" rx="18" stroke="#1E1E1E"/>
<rect x="219.5" y="32.5" width="68" height="36" rx="18" stroke="#0076DE"/>
<rect x="81.5" y="32.5" width="59" height="36" rx="18" fill="#1E1E1E" stroke="#1E1E1E"/>
<rect x="293.5" y="32.5" width="66" height="36" rx="18" stroke="#1E1E1E"/>
<path d="M58.7 40.875V59H56.15V40.875H58.7Z" fill="black"/>
<path d="M107.025 47.675V40.875H109.3V59H107.025V56.975C106.2 58.4 104.8 59.325 102.625 59.325C99.525 59.325 96.875 56.8 96.875 52.325C96.875 47.925 99.525 45.325 102.625 45.325C104.8 45.325 106.2 46.25 107.025 47.675ZM107.125 52.325C107.125 48.775 105.225 47.275 103.2 47.275C100.875 47.275 99.35 49.1 99.35 52.325C99.35 55.55 100.875 57.375 103.2 57.375C105.225 57.375 107.125 55.875 107.125 52.325ZM114.438 52.325C114.438 55.925 116.388 57.325 118.463 57.325C120.538 57.325 122.488 55.775 122.488 52.325C122.488 48.725 120.538 47.325 118.463 47.325C116.388 47.325 114.438 48.65 114.438 52.325ZM118.463 45.325C121.588 45.325 124.913 47.45 124.913 52.325C124.913 57.2 121.588 59.325 118.463 59.325C115.338 59.325 112.013 57.2 112.013 52.325C112.013 47.45 115.338 45.325 118.463 45.325Z" fill="white"/>
<path d="M238.075 40.875V59H235.8V40.875H238.075ZM241.684 45.55H243.959V59H241.684V45.55ZM241.684 40.875H243.959V43.625H241.684V40.875ZM247.568 40.875H249.843V51.6L255.268 45.55H258.068L252.943 51.125L258.768 59H255.993L251.418 52.8L249.843 54.5V59H247.568V40.875ZM271.698 53.025H261.348C261.423 55.925 263.523 57.325 265.498 57.325C267.498 57.325 268.598 56.425 269.173 55.1H271.523C270.923 57.4 268.773 59.325 265.498 59.325C261.248 59.325 258.898 56.275 258.898 52.3C258.898 48.025 261.748 45.325 265.423 45.325C269.548 45.325 271.973 48.75 271.698 53.025ZM265.423 47.275C263.423 47.275 261.573 48.375 261.373 51.075H269.298C269.223 49.175 267.848 47.275 265.423 47.275Z" fill="#0076DE"/>
<path d="M310.45 45.55V42.175H312.725V45.55H315.275V47.375H312.725V55.35C312.725 56.75 312.825 57.1 314.125 57.1H315.275V59H313.625C311.05 59 310.45 58.425 310.45 55.625V47.375H308.325V45.55H310.45ZM329.683 53.025H319.333C319.408 55.925 321.508 57.325 323.483 57.325C325.483 57.325 326.583 56.425 327.158 55.1H329.508C328.908 57.4 326.758 59.325 323.483 59.325C319.233 59.325 316.883 56.275 316.883 52.3C316.883 48.025 319.733 45.325 323.408 45.325C327.533 45.325 329.958 48.75 329.683 53.025ZM323.408 47.275C321.408 47.275 319.558 48.375 319.358 51.075H327.283C327.208 49.175 325.833 47.275 323.408 47.275ZM340.687 53.375V52.525C336.562 52.925 333.937 53.55 333.937 55.4C333.937 56.675 334.912 57.525 336.537 57.525C338.662 57.525 340.687 56.55 340.687 53.375ZM336.037 59.325C333.512 59.325 331.412 57.925 331.412 55.45C331.412 52.275 335.012 51.325 340.512 50.725V50.4C340.512 47.925 339.162 47.125 337.462 47.125C335.562 47.125 334.487 48.125 334.387 49.8H332.037C332.237 46.9 334.837 45.275 337.437 45.275C341.162 45.275 342.812 47.025 342.787 50.825L342.762 53.925C342.737 56.2 342.837 57.725 343.112 59H340.812C340.737 58.5 340.662 57.95 340.637 57.15C339.812 58.55 338.437 59.325 336.037 59.325Z" fill="black"/>
<path d="M369.5 59H366.625V56.125H369.5V59Z" fill="black"/>
<rect x="146.5" y="32.5" width="67" height="36" rx="18" fill="#1E1E1E" stroke="#1E1E1E"/>
<path d="M165.075 45.55V47.575C165.85 46.3 167.15 45.325 169.425 45.325C172.675 45.325 173.85 47.425 173.85 50.5V59H171.575V51.175C171.575 49.1 171.225 47.3 168.625 47.3C166.425 47.3 165.075 48.8 165.075 51.7V59H162.8V45.55H165.075ZM178.803 52.325C178.803 55.925 180.753 57.325 182.828 57.325C184.903 57.325 186.853 55.775 186.853 52.325C186.853 48.725 184.903 47.325 182.828 47.325C180.753 47.325 178.803 48.65 178.803 52.325ZM182.828 45.325C185.953 45.325 189.278 47.45 189.278 52.325C189.278 57.2 185.953 59.325 182.828 59.325C179.703 59.325 176.378 57.2 176.378 52.325C176.378 47.45 179.703 45.325 182.828 45.325ZM192.527 45.55V42.175H194.802V45.55H197.352V47.375H194.802V55.35C194.802 56.75 194.902 57.1 196.202 57.1H197.352V59H195.702C193.127 59 192.527 58.425 192.527 55.625V47.375H190.402V45.55H192.527Z" fill="white"/>
</svg>
