<svg width="372" height="119" viewBox="0 0 372 119" fill="none" xmlns="http://www.w3.org/2000/svg">
<rect x="219.5" y="32.5" width="68" height="36" rx="18" stroke="#1E1E1E"/>
<rect x="81" y="32" width="60" height="37" rx="18.5" fill="#0076DE"/>
<rect y="36" width="29" height="29" rx="14.5" fill="#C8C8C8"/>
<rect x="293.5" y="32.5" width="66" height="36" rx="18" stroke="#1E1E1E"/>
<rect x="39.5" y="32.5" width="36" height="36" rx="18" stroke="#1E1E1E"/>
<path d="M58.7 40.875V59H56.15V40.875H58.7Z" fill="black"/>
<path d="M107.025 47.675V40.875H109.3V59H107.025V56.975C106.2 58.4 104.8 59.325 102.625 59.325C99.525 59.325 96.875 56.8 96.875 52.325C96.875 47.925 99.525 45.325 102.625 45.325C104.8 45.325 106.2 46.25 107.025 47.675ZM107.125 52.325C107.125 48.775 105.225 47.275 103.2 47.275C100.875 47.275 99.35 49.1 99.35 52.325C99.35 55.55 100.875 57.375 103.2 57.375C105.225 57.375 107.125 55.875 107.125 52.325ZM114.438 52.325C114.438 55.925 116.388 57.325 118.463 57.325C120.538 57.325 122.488 55.775 122.488 52.325C122.488 48.725 120.538 47.325 118.463 47.325C116.388 47.325 114.438 48.65 114.438 52.325ZM118.463 45.325C121.588 45.325 124.913 47.45 124.913 52.325C124.913 57.2 121.588 59.325 118.463 59.325C115.338 59.325 112.013 57.2 112.013 52.325C112.013 47.45 115.338 45.325 118.463 45.325Z" fill="white"/>
<path d="M238.075 40.875V59H235.8V40.875H238.075ZM241.684 45.55H243.959V59H241.684V45.55ZM241.684 40.875H243.959V43.625H241.684V40.875ZM247.568 40.875H249.843V51.6L255.268 45.55H258.068L252.943 51.125L258.768 59H255.993L251.418 52.8L249.843 54.5V59H247.568V40.875ZM271.698 53.025H261.348C261.423 55.925 263.523 57.325 265.498 57.325C267.498 57.325 268.598 56.425 269.173 55.1H271.523C270.923 57.4 268.773 59.325 265.498 59.325C261.248 59.325 258.898 56.275 258.898 52.3C258.898 48.025 261.748 45.325 265.423 45.325C269.548 45.325 271.973 48.75 271.698 53.025ZM265.423 47.275C263.423 47.275 261.573 48.375 261.373 51.075H269.298C269.223 49.175 267.848 47.275 265.423 47.275Z" fill="black"/>
<path d="M14.436 43.716C16.848 43.716 18.576 44.922 18.576 47.136C18.576 50.16 15.426 52.824 11.772 55.47H18.936V57H9.54V55.524C14.148 52.122 16.848 49.674 16.848 47.352C16.848 45.984 15.966 45.084 14.4 45.084C12.996 45.084 11.646 45.858 11.592 48.018H9.9C9.846 45.426 11.646 43.716 14.436 43.716Z" fill="white"/>
<path d="M310.45 45.55V42.175H312.725V45.55H315.275V47.375H312.725V55.35C312.725 56.75 312.825 57.1 314.125 57.1H315.275V59H313.625C311.05 59 310.45 58.425 310.45 55.625V47.375H308.325V45.55H310.45ZM329.683 53.025H319.333C319.408 55.925 321.508 57.325 323.483 57.325C325.483 57.325 326.583 56.425 327.158 55.1H329.508C328.908 57.4 326.758 59.325 323.483 59.325C319.233 59.325 316.883 56.275 316.883 52.3C316.883 48.025 319.733 45.325 323.408 45.325C327.533 45.325 329.958 48.75 329.683 53.025ZM323.408 47.275C321.408 47.275 319.558 48.375 319.358 51.075H327.283C327.208 49.175 325.833 47.275 323.408 47.275ZM340.687 53.375V52.525C336.562 52.925 333.937 53.55 333.937 55.4C333.937 56.675 334.912 57.525 336.537 57.525C338.662 57.525 340.687 56.55 340.687 53.375ZM336.037 59.325C333.512 59.325 331.412 57.925 331.412 55.45C331.412 52.275 335.012 51.325 340.512 50.725V50.4C340.512 47.925 339.162 47.125 337.462 47.125C335.562 47.125 334.487 48.125 334.387 49.8H332.037C332.237 46.9 334.837 45.275 337.437 45.275C341.162 45.275 342.812 47.025 342.787 50.825L342.762 53.925C342.737 56.2 342.837 57.725 343.112 59H340.812C340.737 58.5 340.662 57.95 340.637 57.15C339.812 58.55 338.437 59.325 336.037 59.325Z" fill="black"/>
<path d="M369.5 59H366.625V56.125H369.5V59Z" fill="black"/>
<path d="M8.344 5.85V16H6.916V12.192H5.432C5.222 12.192 4.9 12.164 4.788 12.164L2.268 16H0.616L3.36 11.828C2.072 11.394 1.176 10.484 1.176 8.972C1.176 6.578 2.996 5.85 5.516 5.85H8.344ZM6.916 7.082H5.418C3.78 7.082 2.632 7.432 2.632 9.014C2.632 10.526 3.85 10.96 5.418 10.96H6.916V7.082ZM20.3656 16H19.0916V12.71H15.3676V16H14.0936V8.468H15.3676V11.604H19.0916V8.468H20.3656V16ZM29.0955 12.654H23.2995C23.3415 14.278 24.5175 15.062 25.6235 15.062C26.7435 15.062 27.3595 14.558 27.6815 13.816H28.9975C28.6615 15.104 27.4575 16.182 25.6235 16.182C23.2435 16.182 21.9275 14.474 21.9275 12.248C21.9275 9.854 23.5235 8.342 25.5815 8.342C27.8915 8.342 29.2495 10.26 29.0955 12.654ZM25.5815 9.434C24.4615 9.434 23.4255 10.05 23.3135 11.562H27.7515C27.7095 10.498 26.9395 9.434 25.5815 9.434ZM39.9362 8.468V16H38.6622V9.574H36.1282L36.0162 11.394C35.8342 14.432 35.1762 16 33.4262 16H33.1882V14.894H33.3282C34.0002 14.894 34.6442 14.166 34.7982 11.044L34.9102 8.468H39.9362ZM48.2816 8.342C50.0316 8.342 51.8936 9.532 51.8936 12.262C51.8936 14.992 50.0316 16.182 48.2816 16.182C46.7136 16.182 45.0476 15.118 44.8656 12.71H43.3676V16H42.0936V8.468H43.3676V11.604H44.8936C45.1596 9.322 46.7416 8.342 48.2816 8.342ZM48.2816 15.062C49.4436 15.062 50.5356 14.194 50.5356 12.262C50.5356 10.246 49.4436 9.462 48.2816 9.462C47.2316 9.462 46.2096 10.204 46.2096 12.262C46.2096 14.278 47.2316 15.062 48.2816 15.062ZM56.884 8.902C58.592 8.902 60.062 10.092 60.062 12.472C60.062 14.894 58.508 16.182 56.66 16.182C54.714 16.182 53.118 14.824 53.118 12.08V11.212C53.16 8.496 54.056 6.914 57.08 6.312L59.558 5.822V6.956L57.15 7.474C55.316 7.88 54.434 8.566 54.252 10.442C54.756 9.392 55.764 8.902 56.884 8.902ZM56.66 15.076C57.892 15.076 58.704 14.138 58.704 12.5C58.704 10.848 57.836 10.008 56.674 10.008C55.526 10.008 54.49 10.792 54.49 12.486C54.49 14.082 55.386 15.076 56.66 15.076ZM67.5124 8.468V16H66.2384V9.574H63.7044L63.5924 11.394C63.4104 14.432 62.7524 16 61.0024 16H60.7644V14.894H60.9044C61.5764 14.894 62.2204 14.166 62.3744 11.044L62.4864 8.468H67.5124ZM75.8578 8.342C77.6078 8.342 79.4698 9.532 79.4698 12.262C79.4698 14.992 77.6078 16.182 75.8578 16.182C74.2898 16.182 72.6238 15.118 72.4418 12.71H70.9438V16H69.6698V8.468H70.9438V11.604H72.4698C72.7358 9.322 74.3178 8.342 75.8578 8.342ZM75.8578 15.062C77.0198 15.062 78.1118 14.194 78.1118 12.262C78.1118 10.246 77.0198 9.462 75.8578 9.462C74.8078 9.462 73.7858 10.204 73.7858 12.262C73.7858 14.278 74.8078 15.062 75.8578 15.062ZM89.9384 16H88.6644V12.948C87.7824 13.158 87.1104 13.256 86.4244 13.256C84.8424 13.256 84.0164 12.556 84.0164 10.918V8.468H85.2904V10.652C85.2904 11.772 85.8224 12.15 86.8864 12.15C87.3764 12.15 87.9644 12.066 88.6644 11.898V8.468H89.9384V16ZM96.7677 12.85V12.374C94.4577 12.598 92.9877 12.948 92.9877 13.984C92.9877 14.698 93.5337 15.174 94.4437 15.174C95.6337 15.174 96.7677 14.628 96.7677 12.85ZM94.1637 16.182C92.7497 16.182 91.5737 15.398 91.5737 14.012C91.5737 12.234 93.5897 11.702 96.6697 11.366V11.184C96.6697 9.798 95.9137 9.35 94.9617 9.35C93.8977 9.35 93.2957 9.91 93.2397 10.848H91.9237C92.0357 9.224 93.4917 8.314 94.9477 8.314C97.0337 8.314 97.9577 9.294 97.9437 11.422L97.9297 13.158C97.9157 14.432 97.9717 15.286 98.1257 16H96.8377C96.7957 15.72 96.7537 15.412 96.7397 14.964C96.2777 15.748 95.5077 16.182 94.1637 16.182ZM104.42 5.85H105.414C105.302 6.69 104.77 7.544 103.174 7.544C101.634 7.544 101.046 6.69 100.976 5.85H101.97C102.026 6.298 102.362 6.704 103.188 6.704C104.014 6.704 104.364 6.298 104.42 5.85ZM105.078 16V10.316L101.186 16H99.912V8.468H101.186V14.152L105.078 8.468H106.352V16H105.078ZM109.954 16H108.344V14.39H109.954V16Z" fill="#8E8E8E"/>
<path d="M126.354 77.6464C126.158 77.4512 125.842 77.4512 125.646 77.6464L122.464 80.8284C122.269 81.0237 122.269 81.3403 122.464 81.5355C122.66 81.7308 122.976 81.7308 123.172 81.5355L126 78.7071L128.828 81.5355C129.024 81.7308 129.34 81.7308 129.536 81.5355C129.731 81.3403 129.731 81.0237 129.536 80.8284L126.354 77.6464ZM126 78H125.5C125.5 78.6693 125.54 79.3339 125.618 79.9932L126.115 79.934L126.611 79.8748C126.537 79.2545 126.5 78.6295 126.5 78H126ZM127.01 83.6943L126.54 83.8634C126.978 85.0844 127.551 86.2792 128.248 87.4439L128.677 87.1872L129.106 86.9304C128.44 85.8173 127.896 84.681 127.481 83.5253L127.01 83.6943ZM130.931 90.3383L130.547 90.6591C131.364 91.6353 132.271 92.5857 133.263 93.5077L133.604 93.1414L133.944 92.7751C132.98 91.8793 132.102 90.9591 131.314 90.0175L130.931 90.3383ZM136.573 95.6246L136.272 96.0233C137.284 96.7889 138.359 97.531 139.492 98.2478L139.759 97.8253L140.026 97.4028C138.915 96.6999 137.864 95.9736 136.875 95.2258L136.573 95.6246ZM143.109 99.7786L142.872 100.219C143.993 100.822 145.159 101.404 146.368 101.962L146.578 101.508L146.787 101.054C145.596 100.504 144.448 99.9316 143.345 99.3382L143.109 99.7786ZM150.136 103.036L149.951 103.5C151.138 103.973 152.358 104.426 153.61 104.856L153.773 104.384L153.936 103.911C152.698 103.485 151.493 103.038 150.321 102.571L150.136 103.036ZM157.464 105.562L157.322 106.042C158.549 106.404 159.801 106.747 161.078 107.07L161.2 106.585L161.323 106.1C160.059 105.781 158.819 105.442 157.605 105.083L157.464 105.562ZM164.981 107.463L164.877 107.952C166.13 108.218 167.403 108.465 168.695 108.692L168.782 108.199L168.868 107.707C167.588 107.482 166.326 107.237 165.085 106.973L164.981 107.463ZM172.609 108.804L172.539 109.299C173.811 109.479 175.1 109.639 176.403 109.779L176.457 109.282L176.51 108.785C175.218 108.646 173.94 108.487 172.678 108.309L172.609 108.804ZM180.32 109.636L180.282 110.135C181.563 110.232 182.857 110.31 184.162 110.369L184.185 109.87L184.207 109.37C182.912 109.312 181.629 109.234 180.357 109.138L180.32 109.636ZM188.057 109.986L188.05 110.485C188.698 110.495 189.348 110.5 190 110.5V110V109.5C189.353 109.5 188.708 109.495 188.065 109.486L188.057 109.986ZM190 110V110.5C190.652 110.5 191.302 110.495 191.95 110.485L191.943 109.986L191.935 109.486C191.292 109.495 190.647 109.5 190 109.5V110ZM195.815 109.87L195.838 110.369C197.143 110.31 198.437 110.232 199.718 110.135L199.68 109.636L199.643 109.138C198.371 109.234 197.088 109.312 195.793 109.37L195.815 109.87ZM203.543 109.282L203.597 109.779C204.9 109.639 206.189 109.479 207.461 109.299L207.391 108.804L207.322 108.309C206.06 108.487 204.782 108.646 203.49 108.785L203.543 109.282ZM211.218 108.199L211.305 108.692C212.597 108.465 213.87 108.218 215.123 107.952L215.019 107.463L214.915 106.973C213.674 107.237 212.412 107.482 211.132 107.707L211.218 108.199ZM218.8 106.585L218.922 107.07C220.199 106.747 221.451 106.404 222.678 106.042L222.536 105.562L222.395 105.083C221.181 105.442 219.941 105.781 218.677 106.1L218.8 106.585ZM226.227 104.384L226.39 104.856C227.642 104.426 228.862 103.973 230.049 103.5L229.864 103.036L229.679 102.571C228.507 103.038 227.302 103.485 226.064 103.911L226.227 104.384ZM233.422 101.508L233.632 101.962C234.841 101.404 236.007 100.822 237.128 100.219L236.891 99.7786L236.655 99.3383C235.552 99.9316 234.404 100.504 233.213 101.054L233.422 101.508ZM240.241 97.8253L240.508 98.2478C241.641 97.531 242.716 96.7889 243.728 96.0233L243.427 95.6246L243.125 95.2258C242.136 95.9736 241.085 96.6999 239.974 97.4028L240.241 97.8253ZM246.396 93.1414L246.737 93.5077C247.729 92.5857 248.636 91.6353 249.453 90.6591L249.069 90.3383L248.686 90.0175C247.898 90.9591 247.02 91.8793 246.056 92.7751L246.396 93.1414ZM251.323 87.1872L251.752 87.4439C252.449 86.2792 253.022 85.0844 253.46 83.8634L252.99 83.6943L252.519 83.5253C252.104 84.681 251.56 85.8173 250.894 86.9304L251.323 87.1872ZM253.885 79.934L254.382 79.9932C254.46 79.3339 254.5 78.6693 254.5 78H254H253.5C253.5 78.6295 253.462 79.2545 253.389 79.8748L253.885 79.934ZM126.354 77.6464C126.158 77.4512 125.842 77.4512 125.646 77.6464L122.464 80.8284C122.269 81.0237 122.269 81.3403 122.464 81.5355C122.66 81.7308 122.976 81.7308 123.172 81.5355L126 78.7071L128.828 81.5355C129.024 81.7308 129.34 81.7308 129.536 81.5355C129.731 81.3403 129.731 81.0237 129.536 80.8284L126.354 77.6464ZM126 78H125.5C125.5 78.6693 125.54 79.3339 125.618 79.9932L126.115 79.934L126.611 79.8748C126.537 79.2545 126.5 78.6295 126.5 78H126ZM127.01 83.6943L126.54 83.8634C126.978 85.0844 127.551 86.2792 128.248 87.4439L128.677 87.1872L129.106 86.9304C128.44 85.8173 127.896 84.681 127.481 83.5253L127.01 83.6943ZM130.931 90.3383L130.547 90.6591C131.364 91.6353 132.271 92.5857 133.263 93.5077L133.604 93.1414L133.944 92.7751C132.98 91.8793 132.102 90.9591 131.314 90.0175L130.931 90.3383ZM136.573 95.6246L136.272 96.0233C137.284 96.7889 138.359 97.531 139.492 98.2478L139.759 97.8253L140.026 97.4028C138.915 96.6999 137.864 95.9736 136.875 95.2258L136.573 95.6246ZM143.109 99.7786L142.872 100.219C143.993 100.822 145.159 101.404 146.368 101.962L146.578 101.508L146.787 101.054C145.596 100.504 144.448 99.9316 143.345 99.3382L143.109 99.7786ZM150.136 103.036L149.951 103.5C151.138 103.973 152.358 104.426 153.61 104.856L153.773 104.384L153.936 103.911C152.698 103.485 151.493 103.038 150.321 102.571L150.136 103.036ZM157.464 105.562L157.322 106.042C158.549 106.404 159.801 106.747 161.078 107.07L161.2 106.585L161.323 106.1C160.059 105.781 158.819 105.442 157.605 105.083L157.464 105.562ZM164.981 107.463L164.877 107.952C166.13 108.218 167.403 108.465 168.695 108.692L168.782 108.199L168.868 107.707C167.588 107.482 166.326 107.237 165.085 106.973L164.981 107.463ZM172.609 108.804L172.539 109.299C173.811 109.479 175.1 109.639 176.403 109.779L176.457 109.282L176.51 108.785C175.218 108.646 173.94 108.487 172.678 108.309L172.609 108.804ZM180.32 109.636L180.282 110.135C181.563 110.232 182.857 110.31 184.162 110.369L184.185 109.87L184.207 109.37C182.912 109.312 181.629 109.234 180.357 109.138L180.32 109.636ZM188.057 109.986L188.05 110.485C188.698 110.495 189.348 110.5 190 110.5V110V109.5C189.353 109.5 188.708 109.495 188.065 109.486L188.057 109.986ZM190 110V110.5C190.652 110.5 191.302 110.495 191.95 110.485L191.943 109.986L191.935 109.486C191.292 109.495 190.647 109.5 190 109.5V110ZM195.815 109.87L195.838 110.369C197.143 110.31 198.437 110.232 199.718 110.135L199.68 109.636L199.643 109.138C198.371 109.234 197.088 109.312 195.793 109.37L195.815 109.87ZM203.543 109.282L203.597 109.779C204.9 109.639 206.189 109.479 207.461 109.299L207.391 108.804L207.322 108.309C206.06 108.487 204.782 108.646 203.49 108.785L203.543 109.282ZM211.218 108.199L211.305 108.692C212.597 108.465 213.87 108.218 215.123 107.952L215.019 107.463L214.915 106.973C213.674 107.237 212.412 107.482 211.132 107.707L211.218 108.199ZM218.8 106.585L218.922 107.07C220.199 106.747 221.451 106.404 222.678 106.042L222.536 105.562L222.395 105.083C221.181 105.442 219.941 105.781 218.677 106.1L218.8 106.585ZM226.227 104.384L226.39 104.856C227.642 104.426 228.862 103.973 230.049 103.5L229.864 103.036L229.679 102.571C228.507 103.038 227.302 103.485 226.064 103.911L226.227 104.384ZM233.422 101.508L233.632 101.962C234.841 101.404 236.007 100.822 237.128 100.219L236.891 99.7786L236.655 99.3383C235.552 99.9316 234.404 100.504 233.213 101.054L233.422 101.508ZM240.241 97.8253L240.508 98.2478C241.641 97.531 242.716 96.7889 243.728 96.0233L243.427 95.6246L243.125 95.2258C242.136 95.9736 241.085 96.6999 239.974 97.4028L240.241 97.8253ZM246.396 93.1414L246.737 93.5077C247.729 92.5857 248.636 91.6353 249.453 90.6591L249.069 90.3383L248.686 90.0175C247.898 90.9591 247.02 91.8793 246.056 92.7751L246.396 93.1414ZM251.323 87.1872L251.752 87.4439C252.449 86.2792 253.022 85.0844 253.46 83.8634L252.99 83.6943L252.519 83.5253C252.104 84.681 251.56 85.8173 250.894 86.9304L251.323 87.1872ZM253.885 79.934L254.382 79.9932C254.46 79.3339 254.5 78.6693 254.5 78H254H253.5C253.5 78.6295 253.462 79.2545 253.389 79.8748L253.885 79.934Z" fill="url(#paint0_linear_2064_14000)"/>
<circle cx="189.5" cy="109.5" r="9.5" fill="#0076DE"/>
<path d="M189.5 103V109.5L194.5 113.5" stroke="white"/>
<rect x="146.5" y="32.5" width="67" height="36" rx="18" fill="#1E1E1E" stroke="#1E1E1E"/>
<path d="M165.075 45.55V47.575C165.85 46.3 167.15 45.325 169.425 45.325C172.675 45.325 173.85 47.425 173.85 50.5V59H171.575V51.175C171.575 49.1 171.225 47.3 168.625 47.3C166.425 47.3 165.075 48.8 165.075 51.7V59H162.8V45.55H165.075ZM178.803 52.325C178.803 55.925 180.753 57.325 182.828 57.325C184.903 57.325 186.853 55.775 186.853 52.325C186.853 48.725 184.903 47.325 182.828 47.325C180.753 47.325 178.803 48.65 178.803 52.325ZM182.828 45.325C185.953 45.325 189.278 47.45 189.278 52.325C189.278 57.2 185.953 59.325 182.828 59.325C179.703 59.325 176.378 57.2 176.378 52.325C176.378 47.45 179.703 45.325 182.828 45.325ZM192.527 45.55V42.175H194.802V45.55H197.352V47.375H194.802V55.35C194.802 56.75 194.902 57.1 196.202 57.1H197.352V59H195.702C193.127 59 192.527 58.425 192.527 55.625V47.375H190.402V45.55H192.527Z" fill="white"/>
<defs>
<linearGradient id="paint0_linear_2064_14000" x1="126" y1="78" x2="254" y2="78" gradientUnits="userSpaceOnUse">
<stop stop-color="#0076DE"/>
<stop offset="1" stop-color="#1E1E1E"/>
</linearGradient>
</defs>
</svg>
