<svg width="269" height="315" viewBox="0 0 269 315" fill="none" xmlns="http://www.w3.org/2000/svg">
<rect x="1" y="1" width="267" height="313" rx="9" stroke="#E3E3E3" stroke-width="2"/>
<path d="M126.512 58.6V76H124.064V58.6H126.512ZM130.904 95.088H133.184L128.576 108.552C127.616 111.336 126.992 112.2 124.088 112.2H122.96V110.376H123.848C125.288 110.376 125.984 110.28 126.56 108.264L126.656 108L122 95.088H124.424L127.712 105.048L130.904 95.088ZM136.161 101.592C136.161 105.048 138.033 106.392 140.025 106.392C142.017 106.392 143.889 104.904 143.889 101.592C143.889 98.136 142.017 96.792 140.025 96.792C138.033 96.792 136.161 98.064 136.161 101.592ZM140.025 94.872C143.025 94.872 146.217 96.912 146.217 101.592C146.217 106.272 143.025 108.312 140.025 108.312C137.025 108.312 133.833 106.272 133.833 101.592C133.833 96.912 137.025 94.872 140.025 94.872ZM156.822 108V106.152C156.078 107.376 154.902 108.312 152.766 108.312C149.79 108.312 148.638 106.296 148.638 103.344V95.088H150.822V102.696C150.822 104.688 151.134 106.416 153.534 106.416C155.622 106.416 156.822 104.976 156.822 102.192V95.088H159.006V108H156.822ZM126.944 136.64L129.512 127.088H131.768L134.336 136.64L136.808 127.088H139.16L135.44 140H133.448L130.592 129.608L127.832 140H125.84L122.12 127.088H124.472L126.944 136.64ZM152.284 134.264H142.348C142.42 137.048 144.436 138.392 146.332 138.392C148.252 138.392 149.308 137.528 149.86 136.256H152.116C151.54 138.464 149.476 140.312 146.332 140.312C142.252 140.312 139.996 137.384 139.996 133.568C139.996 129.464 142.732 126.872 146.26 126.872C150.22 126.872 152.548 130.16 152.284 134.264ZM146.26 128.744C144.34 128.744 142.564 129.8 142.372 132.392H149.98C149.908 130.568 148.588 128.744 146.26 128.744ZM124.352 159.088V155.848H126.536V159.088H128.984V160.84H126.536V168.496C126.536 169.84 126.632 170.176 127.88 170.176H128.984V172H127.4C124.928 172 124.352 171.448 124.352 168.76V160.84H122.312V159.088H124.352ZM133.951 154.6V161.032C134.695 159.808 135.943 158.872 138.127 158.872C141.247 158.872 142.375 160.888 142.375 163.84V172H140.191V164.488C140.191 162.496 139.855 160.768 137.359 160.768C135.247 160.768 133.951 162.208 133.951 164.992V172H131.767V154.6H133.951ZM157.042 166.264H147.106C147.178 169.048 149.194 170.392 151.09 170.392C153.01 170.392 154.066 169.528 154.618 168.256H156.874C156.298 170.464 154.234 172.312 151.09 172.312C147.01 172.312 144.754 169.384 144.754 165.568C144.754 161.464 147.49 158.872 151.018 158.872C154.978 158.872 157.306 162.16 157.042 166.264ZM151.018 160.744C149.098 160.744 147.322 161.8 147.13 164.392H154.738C154.666 162.568 153.346 160.744 151.018 160.744ZM166.646 159.088H168.926L164.318 172.552C163.358 175.336 162.734 176.2 159.83 176.2H158.702V174.376H159.59C161.03 174.376 161.726 174.28 162.302 172.264L162.398 172L157.742 159.088H160.166L163.454 169.048L166.646 159.088Z" fill="#1E1E1E"/>
<path d="M125.912 206.6V213.032C126.656 211.808 127.904 210.872 130.088 210.872C133.208 210.872 134.336 212.888 134.336 215.84V224H132.152V216.488C132.152 214.496 131.816 212.768 129.32 212.768C127.208 212.768 125.912 214.208 125.912 216.992V224H123.728V206.6H125.912ZM149.003 218.264H139.067C139.139 221.048 141.155 222.392 143.051 222.392C144.971 222.392 146.027 221.528 146.579 220.256H148.835C148.259 222.464 146.195 224.312 143.051 224.312C138.971 224.312 136.715 221.384 136.715 217.568C136.715 213.464 139.451 210.872 142.979 210.872C146.939 210.872 149.267 214.16 149.003 218.264ZM142.979 212.744C141.059 212.744 139.283 213.8 139.091 216.392H146.699C146.627 214.568 145.307 212.744 142.979 212.744ZM133.4 246.856H131.12C130.76 245.32 129.608 244.72 128.072 244.72C126.8 244.72 125.36 245.176 125.36 246.352C125.36 247.384 126.08 247.84 127.328 248.104L129.152 248.464C131.504 248.896 133.568 249.832 133.568 252.304C133.568 254.872 131.264 256.312 128.312 256.312C124.928 256.312 123.032 254.08 122.768 251.824H125.072C125.432 253.48 126.44 254.464 128.36 254.464C130.016 254.464 131.36 253.768 131.36 252.544C131.36 251.224 130.136 250.72 128.744 250.408L126.824 250.024C125.072 249.64 123.152 248.872 123.152 246.448C123.152 244.168 125.456 242.848 128.312 242.848C131.12 242.848 132.992 244.384 133.4 246.856ZM138.521 238.6V245.032C139.265 243.808 140.513 242.872 142.697 242.872C145.817 242.872 146.945 244.888 146.945 247.84V256H144.761V248.488C144.761 246.496 144.425 244.768 141.929 244.768C139.817 244.768 138.521 246.208 138.521 248.992V256H136.337V238.6H138.521ZM161.612 250.264H151.676C151.748 253.048 153.764 254.392 155.66 254.392C157.58 254.392 158.636 253.528 159.188 252.256H161.444C160.868 254.464 158.804 256.312 155.66 256.312C151.58 256.312 149.324 253.384 149.324 249.568C149.324 245.464 152.06 242.872 155.588 242.872C159.548 242.872 161.876 246.16 161.612 250.264ZM155.588 244.744C153.668 244.744 151.892 245.8 151.7 248.392H159.308C159.236 246.568 157.916 244.744 155.588 244.744ZM123.728 275.088H125.912V288H123.728V275.088ZM123.728 270.6H125.912V273.24H123.728V270.6ZM130 275.088V271.848H132.184V275.088H134.632V276.84H132.184V284.496C132.184 285.84 132.28 286.176 133.528 286.176H134.632V288H133.048C130.576 288 130 287.448 130 284.76V276.84H127.96V275.088H130Z" fill="#1E1E1E"/>
<rect x="20" y="96" width="54" height="38" rx="3" fill="#0076DE"/>
<path d="M44.8 115.288C44.8 109.384 41.32 108.664 37.744 108.664H35.512V121.936H37.744C41.32 121.936 44.8 121.216 44.8 115.288ZM33.064 106.6H37.816C43.312 106.6 47.296 108.688 47.296 115.288C47.296 121.912 43.312 124 37.816 124H33.064V106.6ZM51.7473 117.592C51.7473 121.048 53.6193 122.392 55.6113 122.392C57.6033 122.392 59.4753 120.904 59.4753 117.592C59.4753 114.136 57.6033 112.792 55.6113 112.792C53.6193 112.792 51.7473 114.064 51.7473 117.592ZM55.6113 110.872C58.6113 110.872 61.8033 112.912 61.8033 117.592C61.8033 122.272 58.6113 124.312 55.6113 124.312C52.6113 124.312 49.4193 122.272 49.4193 117.592C49.4193 112.912 52.6113 110.872 55.6113 110.872Z" fill="white"/>
<path d="M21.155 36V25.125H25.385C27.29 25.125 29.345 25.725 29.345 27.96C29.345 28.98 28.67 29.895 28.115 30.255C28.955 30.66 29.735 31.29 29.735 32.79C29.735 35.13 27.8 36 25.565 36H21.155ZM23.3 31.23V34.32H25.67C26.93 34.32 27.545 33.795 27.545 32.79C27.545 31.77 26.915 31.23 25.58 31.23H23.3ZM23.3 26.805V29.61H25.52C26.54 29.61 27.14 29.13 27.14 28.17C27.14 27.315 26.525 26.805 25.52 26.805H23.3ZM34.855 29.37C33.715 29.37 32.905 30.285 32.905 31.98C32.905 33.675 33.715 34.575 34.855 34.575C35.995 34.575 36.805 33.675 36.805 31.98C36.805 30.285 35.995 29.37 34.855 29.37ZM34.855 36.195C32.815 36.195 30.805 34.8 30.805 31.98C30.805 29.145 32.815 27.75 34.855 27.75C36.895 27.75 38.905 29.145 38.905 31.98C38.905 34.8 36.895 36.195 34.855 36.195ZM42.397 36H40.327V27.93H47.542V36H45.472V29.565H42.397V36ZM53.4991 34.605C54.5791 34.605 55.3441 33.555 55.3441 31.98C55.3441 30.405 54.5791 29.34 53.4991 29.34C52.3591 29.34 51.6091 30.345 51.6091 31.965C51.6091 33.63 52.3591 34.605 53.4991 34.605ZM51.6841 38.625H49.6141V27.93H51.6841V28.965C52.1191 28.2 52.9891 27.75 54.0091 27.75C55.9591 27.75 57.5191 29.43 57.5191 31.965C57.5191 34.545 55.9141 36.195 53.9941 36.195C53.1541 36.195 52.2091 35.88 51.6841 34.98V38.625ZM62.482 29.37C61.342 29.37 60.532 30.285 60.532 31.98C60.532 33.675 61.342 34.575 62.482 34.575C63.622 34.575 64.432 33.675 64.432 31.98C64.432 30.285 63.622 29.37 62.482 29.37ZM62.482 36.195C60.442 36.195 58.432 34.8 58.432 31.98C58.432 29.145 60.442 27.75 62.482 27.75C64.522 27.75 66.532 29.145 66.532 31.98C66.532 34.8 64.522 36.195 62.482 36.195ZM71.4911 27.75C73.1861 27.75 74.8661 28.695 75.1511 30.69H73.1711C73.0061 29.91 72.2861 29.355 71.4911 29.355C70.4111 29.355 69.5561 30.27 69.5561 31.95C69.5561 33.645 70.3661 34.59 71.5061 34.59C72.2261 34.59 72.9611 34.215 73.2461 33.255H75.2261C74.7461 35.46 73.0811 36.195 71.4011 36.195C68.9861 36.195 67.4411 34.425 67.4411 31.98C67.4411 29.52 69.0761 27.75 71.4911 27.75Z" fill="#0F0F0F"/>
<rect x="189.5" y="155.5" width="37" height="37" rx="2.5" stroke="#1E1E1E"/>
<path d="M200.264 165.6H202.952L207.776 180.48L212.504 165.6H215.072L209.168 183H206.24L200.264 165.6Z" fill="#1E1E1E"/>
<path d="M243.192 164.288C245.904 164.288 248.616 165.608 248.616 168.512C248.616 170.816 247.008 172.424 245.376 173.456C243.888 174.416 243.36 174.848 243.36 176.168V176.912H241.128V176.096C241.128 174.08 242.088 173.216 244.104 171.92C245.352 171.128 246.336 170.168 246.336 168.608C246.336 167.072 244.992 166.112 243.144 166.112C240.48 166.112 239.568 167.984 239.496 169.448H237.312C237.312 166.328 239.808 164.288 243.192 164.288ZM243.672 182H240.912V179.24H243.672V182Z" fill="#1E1E1E"/>
<rect x="20" y="228" width="82" height="38" rx="3" fill="#0076DE"/>
<rect x="62" y="238" width="29" height="22" rx="3" fill="#589E07"/>
<path d="M44.8 247.288C44.8 241.384 41.32 240.664 37.744 240.664H35.512V253.936H37.744C41.32 253.936 44.8 253.216 44.8 247.288ZM33.064 238.6H37.816C43.312 238.6 47.296 240.688 47.296 247.288C47.296 253.912 43.312 256 37.816 256H33.064V238.6ZM51.7473 249.592C51.7473 253.048 53.6193 254.392 55.6113 254.392C57.6033 254.392 59.4753 252.904 59.4753 249.592C59.4753 246.136 57.6033 244.792 55.6113 244.792C53.6193 244.792 51.7473 246.064 51.7473 249.592ZM55.6113 242.872C58.6113 242.872 61.8033 244.912 61.8033 249.592C61.8033 254.272 58.6113 256.312 55.6113 256.312C52.6113 256.312 49.4193 254.272 49.4193 249.592C49.4193 244.912 52.6113 242.872 55.6113 242.872ZM76.003 250.264H66.067C66.139 253.048 68.155 254.392 70.051 254.392C71.971 254.392 73.027 253.528 73.579 252.256H75.835C75.259 254.464 73.195 256.312 70.051 256.312C65.971 256.312 63.715 253.384 63.715 249.568C63.715 245.464 66.451 242.872 69.979 242.872C73.939 242.872 76.267 246.16 76.003 250.264ZM69.979 244.744C68.059 244.744 66.283 245.8 66.091 248.392H73.699C73.627 246.568 72.307 244.744 69.979 244.744ZM88.2672 246.856H85.9872C85.6272 245.32 84.4752 244.72 82.9392 244.72C81.6672 244.72 80.2272 245.176 80.2272 246.352C80.2272 247.384 80.9472 247.84 82.1952 248.104L84.0192 248.464C86.3712 248.896 88.4352 249.832 88.4352 252.304C88.4352 254.872 86.1312 256.312 83.1792 256.312C79.7952 256.312 77.8992 254.08 77.6352 251.824H79.9392C80.2992 253.48 81.3072 254.464 83.2272 254.464C84.8832 254.464 86.2272 253.768 86.2272 252.544C86.2272 251.224 85.0032 250.72 83.6112 250.408L81.6912 250.024C79.9392 249.64 78.0192 248.872 78.0192 246.448C78.0192 244.168 80.3232 242.848 83.1792 242.848C85.9872 242.848 87.8592 244.384 88.2672 246.856Z" fill="white"/>
</svg>
