<svg width="281" height="315" viewBox="0 0 281 315" fill="none" xmlns="http://www.w3.org/2000/svg">
<rect x="1" y="1" width="279" height="313" rx="9" stroke="#E3E3E3" stroke-width="2"/>
<path d="M24.512 58.6V76H22.064V58.6H24.512ZM20 90.6H22.688L27.44 99.096L32.288 90.6H34.976L28.592 101.256V108H26.144V101.208L20 90.6ZM36.0363 101.592C36.0363 105.048 37.9083 106.392 39.9003 106.392C41.8923 106.392 43.7643 104.904 43.7643 101.592C43.7643 98.136 41.8923 96.792 39.9003 96.792C37.9083 96.792 36.0363 98.064 36.0363 101.592ZM39.9003 94.872C42.9003 94.872 46.0923 96.912 46.0923 101.592C46.0923 106.272 42.9003 108.312 39.9003 108.312C36.9003 108.312 33.7083 106.272 33.7083 101.592C33.7083 96.912 36.9003 94.872 39.9003 94.872ZM56.6966 108V106.152C55.9526 107.376 54.7766 108.312 52.6406 108.312C49.6646 108.312 48.5126 106.296 48.5126 103.344V95.088H50.6966V102.696C50.6966 104.688 51.0086 106.416 53.4086 106.416C55.4966 106.416 56.6966 104.976 56.6966 102.192V95.088H58.8806V108H56.6966ZM32.528 122.6L35.96 137.216L39.176 122.6H41.744L37.4 140H34.424L31.064 125.696L27.776 140H24.8L20.384 122.6H23.072L26.432 137.216L29.648 122.6H32.528ZM54.5264 134.264H44.5904C44.6624 137.048 46.6784 138.392 48.5744 138.392C50.4944 138.392 51.5504 137.528 52.1024 136.256H54.3584C53.7824 138.464 51.7184 140.312 48.5744 140.312C44.4944 140.312 42.2384 137.384 42.2384 133.568C42.2384 129.464 44.9744 126.872 48.5024 126.872C52.4624 126.872 54.7904 130.16 54.5264 134.264ZM48.5024 128.744C46.5824 128.744 44.8064 129.8 44.6144 132.392H52.2224C52.1504 130.568 50.8304 128.744 48.5024 128.744ZM25.664 172V156.712H20V154.6H33.776V156.712H28.112V172H25.664ZM37.2245 154.6V161.032C37.9685 159.808 39.2165 158.872 41.4005 158.872C44.5205 158.872 45.6485 160.888 45.6485 163.84V172H43.4645V164.488C43.4645 162.496 43.1285 160.768 40.6325 160.768C38.5205 160.768 37.2245 162.208 37.2245 164.992V172H35.0405V154.6H37.2245ZM60.3155 166.264H50.3795C50.4515 169.048 52.4675 170.392 54.3635 170.392C56.2835 170.392 57.3395 169.528 57.8915 168.256H60.1475C59.5715 170.464 57.5075 172.312 54.3635 172.312C50.2835 172.312 48.0275 169.384 48.0275 165.568C48.0275 161.464 50.7635 158.872 54.2915 158.872C58.2515 158.872 60.5795 162.16 60.3155 166.264ZM54.2915 160.744C52.3715 160.744 50.5955 161.8 50.4035 164.392H58.0115C57.9395 162.568 56.6195 160.744 54.2915 160.744ZM69.9196 159.088H72.1996L67.5916 172.552C66.6316 175.336 66.0076 176.2 63.1036 176.2H61.9756V174.376H62.8636C64.3036 174.376 64.9996 174.28 65.5756 172.264L65.6716 172L61.0156 159.088H63.4396L66.7276 169.048L69.9196 159.088Z" fill="#1E1E1E"/>
<path d="M33.656 206.6H36.104V224H33.656V216.104H24.512V224H22.064V206.6H24.512V213.992H33.656V206.6ZM51.2921 218.264H41.3561C41.4281 221.048 43.4441 222.392 45.3401 222.392C47.2601 222.392 48.3161 221.528 48.8681 220.256H51.1241C50.5481 222.464 48.4841 224.312 45.3401 224.312C41.2601 224.312 39.0041 221.384 39.0041 217.568C39.0041 213.464 41.7401 210.872 45.2681 210.872C49.2281 210.872 51.5561 214.16 51.2921 218.264ZM45.2681 212.744C43.3481 212.744 41.5721 213.8 41.3801 216.392H48.9881C48.9161 214.568 47.5961 212.744 45.2681 212.744ZM21.344 243.04C21.344 239.704 24.824 238.288 27.632 238.288C30.776 238.288 33.536 239.704 34.232 243.04H31.856C31.28 241.048 29.264 240.352 27.536 240.352C26.192 240.352 23.84 240.952 23.84 242.896C23.84 244.432 25.04 245.2 26.672 245.56L28.688 246.016C31.352 246.592 34.544 247.6 34.544 251.104C34.544 254.488 31.376 256.312 27.92 256.312C23.816 256.312 21.224 254.056 20.768 250.6H23.168C23.624 253 25.28 254.248 27.968 254.248C30.56 254.248 32.024 253.048 32.024 251.32C32.024 249.472 30.44 248.752 28.28 248.248L26.12 247.792C23.72 247.264 21.344 245.92 21.344 243.04ZM39.287 238.6V245.032C40.031 243.808 41.279 242.872 43.463 242.872C46.583 242.872 47.711 244.888 47.711 247.84V256H45.527V248.488C45.527 246.496 45.191 244.768 42.695 244.768C40.583 244.768 39.287 246.208 39.287 248.992V256H37.103V238.6H39.287ZM62.378 250.264H52.442C52.514 253.048 54.53 254.392 56.426 254.392C58.346 254.392 59.402 253.528 59.954 252.256H62.21C61.634 254.464 59.57 256.312 56.426 256.312C52.346 256.312 50.09 253.384 50.09 249.568C50.09 245.464 52.826 242.872 56.354 242.872C60.314 242.872 62.642 246.16 62.378 250.264ZM56.354 244.744C54.434 244.744 52.658 245.8 52.466 248.392H60.074C60.002 246.568 58.682 244.744 56.354 244.744ZM24.512 270.6V288H22.064V270.6H24.512ZM28.9379 275.088V271.848H31.1219V275.088H33.5699V276.84H31.1219V284.496C31.1219 285.84 31.2179 286.176 32.4659 286.176H33.5699V288H31.9859C29.5139 288 28.9379 287.448 28.9379 284.76V276.84H26.8979V275.088H28.9379Z" fill="#1E1E1E"/>
<rect x="93" y="96" width="51" height="38" rx="3" fill="#0076DE"/>
<path d="M114.584 113.128V106.6H116.768V124H114.584V122.056C113.792 123.424 112.448 124.312 110.36 124.312C107.384 124.312 104.84 121.888 104.84 117.592C104.84 113.368 107.384 110.872 110.36 110.872C112.448 110.872 113.792 111.76 114.584 113.128ZM114.68 117.592C114.68 114.184 112.856 112.744 110.912 112.744C108.68 112.744 107.216 114.496 107.216 117.592C107.216 120.688 108.68 122.44 110.912 122.44C112.856 122.44 114.68 121 114.68 117.592ZM121.7 117.592C121.7 121.048 123.572 122.392 125.564 122.392C127.556 122.392 129.428 120.904 129.428 117.592C129.428 114.136 127.556 112.792 125.564 112.792C123.572 112.792 121.7 114.064 121.7 117.592ZM125.564 110.872C128.564 110.872 131.756 112.912 131.756 117.592C131.756 122.272 128.564 124.312 125.564 124.312C122.564 124.312 119.372 122.272 119.372 117.592C119.372 112.912 122.564 110.872 125.564 110.872Z" fill="white"/>
<path d="M152.912 111.088V113.032C153.656 111.808 154.904 110.872 157.088 110.872C160.208 110.872 161.336 112.888 161.336 115.84V124H159.152V116.488C159.152 114.496 158.816 112.768 156.32 112.768C154.208 112.768 152.912 114.208 152.912 116.992V124H150.728V111.088H152.912ZM166.091 117.592C166.091 121.048 167.963 122.392 169.955 122.392C171.947 122.392 173.819 120.904 173.819 117.592C173.819 114.136 171.947 112.792 169.955 112.792C167.963 112.792 166.091 114.064 166.091 117.592ZM169.955 110.872C172.955 110.872 176.147 112.912 176.147 117.592C176.147 122.272 172.955 124.312 169.955 124.312C166.955 124.312 163.763 122.272 163.763 117.592C163.763 112.912 166.955 110.872 169.955 110.872ZM179.266 111.088V107.848H181.45V111.088H183.898V112.84H181.45V120.496C181.45 121.84 181.546 122.176 182.794 122.176H183.898V124H182.314C179.842 124 179.266 123.448 179.266 120.76V112.84H177.226V111.088H179.266Z" fill="#1E1E1E"/>
<path d="M22.76 30.555C22.76 33.12 24.17 34.485 25.865 34.485C27.56 34.485 28.97 33.12 28.97 30.555C28.97 28.005 27.56 26.64 25.865 26.64C24.17 26.64 22.76 28.005 22.76 30.555ZM31.19 30.555C31.19 33.93 29.105 36.195 25.865 36.195C22.625 36.195 20.54 33.93 20.54 30.555C20.54 27.18 22.625 24.93 25.865 24.93C29.105 24.93 31.19 27.18 31.19 30.555ZM36.6534 36H34.5834V29.565H31.9584V27.93H39.2784V29.565H36.6534V36ZM44.4171 34.605C45.4971 34.605 46.2621 33.555 46.2621 31.98C46.2621 30.405 45.4971 29.34 44.4171 29.34C43.2771 29.34 42.5271 30.345 42.5271 31.965C42.5271 33.63 43.2771 34.605 44.4171 34.605ZM42.6021 38.625H40.5321V27.93H42.6021V28.965C43.0371 28.2 43.9071 27.75 44.9271 27.75C46.8771 27.75 48.4371 29.43 48.4371 31.965C48.4371 34.545 46.8321 36.195 44.9121 36.195C44.0721 36.195 43.1271 35.88 42.6021 34.98V38.625ZM51.9478 36H49.8778V27.93H51.9028V33.435L55.4578 27.93H57.5278V36H55.5028V30.69L51.9478 36ZM67.9443 37.875H66.0243V36H59.6043V27.93H61.6743V34.365H64.6293V27.93H66.6993V34.455H67.9443V37.875ZM74.0315 32.91V32.31C71.7065 32.55 70.7915 32.82 70.7915 33.72C70.7915 34.305 71.2415 34.785 72.1865 34.785C73.4915 34.785 74.0315 34.095 74.0315 32.91ZM74.2115 34.995C73.6265 35.835 72.7865 36.195 71.5715 36.195C70.0265 36.195 68.6615 35.295 68.6615 33.825C68.6615 31.92 70.7915 31.35 73.9715 30.99V30.855C73.9715 29.61 73.2965 29.175 72.4565 29.175C71.6615 29.175 71.0015 29.58 70.9565 30.48H69.0215C69.1865 28.89 70.4765 27.72 72.5615 27.72C74.4665 27.72 76.0415 28.56 76.0415 31.275C76.0415 31.515 76.0115 32.61 76.0115 33.33C76.0115 34.605 76.0865 35.325 76.2515 36H74.3465C74.2865 35.745 74.2565 35.4 74.2115 34.995ZM79.9409 36H77.8709V27.93H79.9409V31.05H83.3009V27.93H85.3709V36H83.3009V32.685H79.9409V36ZM89.5064 36H87.4364V27.93H89.4614V33.435L93.0164 27.93H95.0864V36H93.0614V30.69L89.5064 36ZM104.543 32.535H98.5879C98.7079 33.915 99.6379 34.59 100.628 34.59C101.273 34.59 101.903 34.365 102.323 33.66H104.453C104.018 34.86 102.848 36.195 100.643 36.195C98.0479 36.195 96.5329 34.26 96.5329 31.935C96.5329 29.535 98.1979 27.75 100.583 27.75C103.073 27.75 104.618 29.685 104.543 32.535ZM100.568 29.265C99.7879 29.265 98.7829 29.745 98.6179 31.11H102.443C102.398 29.745 101.438 29.265 100.568 29.265Z" fill="#0F0F0F"/>
<rect x="223.5" y="155.5" width="37" height="37" rx="2.5" stroke="#1E1E1E"/>
<path d="M234.264 165.6H236.952L241.776 180.48L246.504 165.6H249.072L243.168 183H240.24L234.264 165.6Z" fill="#1E1E1E"/>
<rect x="93" y="228" width="79" height="38" rx="3" fill="#0076DE"/>
<rect x="132" y="238" width="29" height="22" rx="3" fill="#589E07"/>
<path d="M114.584 245.128V238.6H116.768V256H114.584V254.056C113.792 255.424 112.448 256.312 110.36 256.312C107.384 256.312 104.84 253.888 104.84 249.592C104.84 245.368 107.384 242.872 110.36 242.872C112.448 242.872 113.792 243.76 114.584 245.128ZM114.68 249.592C114.68 246.184 112.856 244.744 110.912 244.744C108.68 244.744 107.216 246.496 107.216 249.592C107.216 252.688 108.68 254.44 110.912 254.44C112.856 254.44 114.68 253 114.68 249.592ZM121.7 249.592C121.7 253.048 123.572 254.392 125.564 254.392C127.556 254.392 129.428 252.904 129.428 249.592C129.428 246.136 127.556 244.792 125.564 244.792C123.572 244.792 121.7 246.064 121.7 249.592ZM125.564 242.872C128.564 242.872 131.756 244.912 131.756 249.592C131.756 254.272 128.564 256.312 125.564 256.312C122.564 256.312 119.372 254.272 119.372 249.592C119.372 244.912 122.564 242.872 125.564 242.872ZM145.956 250.264H136.02C136.092 253.048 138.108 254.392 140.004 254.392C141.924 254.392 142.98 253.528 143.532 252.256H145.788C145.212 254.464 143.148 256.312 140.004 256.312C135.924 256.312 133.668 253.384 133.668 249.568C133.668 245.464 136.404 242.872 139.932 242.872C143.892 242.872 146.22 246.16 145.956 250.264ZM139.932 244.744C138.012 244.744 136.236 245.8 136.044 248.392H143.652C143.58 246.568 142.26 244.744 139.932 244.744ZM158.22 246.856H155.94C155.58 245.32 154.428 244.72 152.892 244.72C151.62 244.72 150.18 245.176 150.18 246.352C150.18 247.384 150.9 247.84 152.148 248.104L153.972 248.464C156.324 248.896 158.388 249.832 158.388 252.304C158.388 254.872 156.084 256.312 153.132 256.312C149.748 256.312 147.852 254.08 147.588 251.824H149.892C150.252 253.48 151.26 254.464 153.18 254.464C154.836 254.464 156.18 253.768 156.18 252.544C156.18 251.224 154.956 250.72 153.564 250.408L151.644 250.024C149.892 249.64 147.972 248.872 147.972 246.448C147.972 244.168 150.276 242.848 153.132 242.848C155.94 242.848 157.812 244.384 158.22 246.856Z" fill="white"/>
<path d="M180.912 243.088V245.032C181.656 243.808 182.904 242.872 185.088 242.872C188.208 242.872 189.336 244.888 189.336 247.84V256H187.152V248.488C187.152 246.496 186.816 244.768 184.32 244.768C182.208 244.768 180.912 246.208 180.912 248.992V256H178.728V243.088H180.912ZM194.091 249.592C194.091 253.048 195.963 254.392 197.955 254.392C199.947 254.392 201.819 252.904 201.819 249.592C201.819 246.136 199.947 244.792 197.955 244.792C195.963 244.792 194.091 246.064 194.091 249.592ZM197.955 242.872C200.955 242.872 204.147 244.912 204.147 249.592C204.147 254.272 200.955 256.312 197.955 256.312C194.955 256.312 191.763 254.272 191.763 249.592C191.763 244.912 194.955 242.872 197.955 242.872ZM207.266 243.088V239.848H209.45V243.088H211.898V244.84H209.45V252.496C209.45 253.84 209.546 254.176 210.794 254.176H211.898V256H210.314C207.842 256 207.266 255.448 207.266 252.76V244.84H205.226V243.088H207.266Z" fill="#1E1E1E"/>
</svg>
