<svg width="407" height="119" viewBox="0 0 407 119" fill="none" xmlns="http://www.w3.org/2000/svg">
	<rect x="135.5" y="32.5" width="107" height="36" rx="18" stroke="#1E1E1E"/>
	<rect x="248.5" y="32.5" width="68" height="36" rx="18" stroke="#1E1E1E"/>
	<rect x="39" y="32" width="91" height="37" rx="18.5" fill="#0076DE"/>
	<rect y="36" width="29" height="29" rx="14.5" fill="#C8C8C8"/>
	<rect x="322.5" y="32.5" width="66" height="36" rx="18" stroke="#1E1E1E"/>
	<path
		d="M162.4 59H159.7L154.7 43.2V59H152.15V40.875H156.425L161.05 55.975L165.675 40.875H169.95V59H167.4V43.2L162.4 59ZM182.37 53.375V52.525C178.245 52.925 175.62 53.55 175.62 55.4C175.62 56.675 176.595 57.525 178.22 57.525C180.345 57.525 182.37 56.55 182.37 53.375ZM177.72 59.325C175.195 59.325 173.095 57.925 173.095 55.45C173.095 52.275 176.695 51.325 182.195 50.725V50.4C182.195 47.925 180.845 47.125 179.145 47.125C177.245 47.125 176.17 48.125 176.07 49.8H173.72C173.92 46.9 176.52 45.275 179.12 45.275C182.845 45.275 184.495 47.025 184.47 50.825L184.445 53.925C184.42 56.2 184.52 57.725 184.795 59H182.495C182.42 58.5 182.345 57.95 182.32 57.15C181.495 58.55 180.12 59.325 177.72 59.325ZM197.935 49.475H195.56C195.185 47.875 193.985 47.25 192.385 47.25C191.06 47.25 189.56 47.725 189.56 48.95C189.56 50.025 190.31 50.5 191.61 50.775L193.51 51.15C195.96 51.6 198.11 52.575 198.11 55.15C198.11 57.825 195.71 59.325 192.635 59.325C189.11 59.325 187.135 57 186.86 54.65H189.26C189.635 56.375 190.685 57.4 192.685 57.4C194.41 57.4 195.81 56.675 195.81 55.4C195.81 54.025 194.535 53.5 193.085 53.175L191.085 52.775C189.26 52.375 187.26 51.575 187.26 49.05C187.26 46.675 189.66 45.3 192.635 45.3C195.56 45.3 197.51 46.9 197.935 49.475ZM203.269 40.875V47.575C204.044 46.3 205.344 45.325 207.619 45.325C210.869 45.325 212.044 47.425 212.044 50.5V59H209.769V51.175C209.769 49.1 209.419 47.3 206.819 47.3C204.619 47.3 203.269 48.8 203.269 51.7V59H200.994V40.875H203.269ZM223.922 53.375V52.525C219.797 52.925 217.172 53.55 217.172 55.4C217.172 56.675 218.147 57.525 219.772 57.525C221.897 57.525 223.922 56.55 223.922 53.375ZM219.272 59.325C216.747 59.325 214.647 57.925 214.647 55.45C214.647 52.275 218.247 51.325 223.747 50.725V50.4C223.747 47.925 222.397 47.125 220.697 47.125C218.797 47.125 217.722 48.125 217.622 49.8H215.272C215.472 46.9 218.072 45.275 220.672 45.275C224.397 45.275 226.047 47.025 226.022 50.825L225.997 53.925C225.972 56.2 226.072 57.725 226.347 59H224.047C223.972 58.5 223.897 57.95 223.872 57.15C223.047 58.55 221.672 59.325 219.272 59.325Z"
		fill="black"/>
	<path
		d="M68.375 49.925C68.375 43.775 64.75 43.025 61.025 43.025H58.7V56.85H61.025C64.75 56.85 68.375 56.1 68.375 49.925ZM56.15 40.875H61.1C66.825 40.875 70.975 43.05 70.975 49.925C70.975 56.825 66.825 59 61.1 59H56.15V40.875ZM75.6117 52.325C75.6117 55.925 77.5617 57.325 79.6367 57.325C81.7117 57.325 83.6617 55.775 83.6617 52.325C83.6617 48.725 81.7117 47.325 79.6367 47.325C77.5617 47.325 75.6117 48.65 75.6117 52.325ZM79.6367 45.325C82.7617 45.325 86.0867 47.45 86.0867 52.325C86.0867 57.2 82.7617 59.325 79.6367 59.325C76.5117 59.325 73.1867 57.2 73.1867 52.325C73.1867 47.45 76.5117 45.325 79.6367 45.325ZM100.878 53.025H90.5281C90.6031 55.925 92.7031 57.325 94.6781 57.325C96.6781 57.325 97.7781 56.425 98.3531 55.1H100.703C100.103 57.4 97.9531 59.325 94.6781 59.325C90.4281 59.325 88.0781 56.275 88.0781 52.3C88.0781 48.025 90.9281 45.325 94.6031 45.325C98.7281 45.325 101.153 48.75 100.878 53.025ZM94.6031 47.275C92.6031 47.275 90.7531 48.375 90.5531 51.075H98.4781C98.4031 49.175 97.0281 47.275 94.6031 47.275ZM113.653 49.475H111.278C110.903 47.875 109.703 47.25 108.103 47.25C106.778 47.25 105.278 47.725 105.278 48.95C105.278 50.025 106.028 50.5 107.328 50.775L109.228 51.15C111.678 51.6 113.828 52.575 113.828 55.15C113.828 57.825 111.428 59.325 108.353 59.325C104.828 59.325 102.853 57 102.578 54.65H104.978C105.353 56.375 106.403 57.4 108.403 57.4C110.128 57.4 111.528 56.675 111.528 55.4C111.528 54.025 110.253 53.5 108.803 53.175L106.803 52.775C104.978 52.375 102.978 51.575 102.978 49.05C102.978 46.675 105.378 45.3 108.353 45.3C111.278 45.3 113.228 46.9 113.653 49.475Z"
		fill="white"/>
	<path
		d="M267.075 40.875V59H264.8V40.875H267.075ZM270.684 45.55H272.959V59H270.684V45.55ZM270.684 40.875H272.959V43.625H270.684V40.875ZM276.568 40.875H278.843V51.6L284.268 45.55H287.068L281.943 51.125L287.768 59H284.993L280.418 52.8L278.843 54.5V59H276.568V40.875ZM300.698 53.025H290.348C290.423 55.925 292.523 57.325 294.498 57.325C296.498 57.325 297.598 56.425 298.173 55.1H300.523C299.923 57.4 297.773 59.325 294.498 59.325C290.248 59.325 287.898 56.275 287.898 52.3C287.898 48.025 290.748 45.325 294.423 45.325C298.548 45.325 300.973 48.75 300.698 53.025ZM294.423 47.275C292.423 47.275 290.573 48.375 290.373 51.075H298.298C298.223 49.175 296.848 47.275 294.423 47.275Z"
		fill="black"/>
	<path
		d="M14.436 43.716C16.848 43.716 18.576 44.922 18.576 47.136C18.576 50.16 15.426 52.824 11.772 55.47H18.936V57H9.54V55.524C14.148 52.122 16.848 49.674 16.848 47.352C16.848 45.984 15.966 45.084 14.4 45.084C12.996 45.084 11.646 45.858 11.592 48.018H9.9C9.846 45.426 11.646 43.716 14.436 43.716Z"
		fill="white"/>
	<path
		d="M339.45 45.55V42.175H341.725V45.55H344.275V47.375H341.725V55.35C341.725 56.75 341.825 57.1 343.125 57.1H344.275V59H342.625C340.05 59 339.45 58.425 339.45 55.625V47.375H337.325V45.55H339.45ZM358.683 53.025H348.333C348.408 55.925 350.508 57.325 352.483 57.325C354.483 57.325 355.583 56.425 356.158 55.1H358.508C357.908 57.4 355.758 59.325 352.483 59.325C348.233 59.325 345.883 56.275 345.883 52.3C345.883 48.025 348.733 45.325 352.408 45.325C356.533 45.325 358.958 48.75 358.683 53.025ZM352.408 47.275C350.408 47.275 348.558 48.375 348.358 51.075H356.283C356.208 49.175 354.833 47.275 352.408 47.275ZM369.687 53.375V52.525C365.562 52.925 362.937 53.55 362.937 55.4C362.937 56.675 363.912 57.525 365.537 57.525C367.662 57.525 369.687 56.55 369.687 53.375ZM365.037 59.325C362.512 59.325 360.412 57.925 360.412 55.45C360.412 52.275 364.012 51.325 369.512 50.725V50.4C369.512 47.925 368.162 47.125 366.462 47.125C364.562 47.125 363.487 48.125 363.387 49.8H361.037C361.237 46.9 363.837 45.275 366.437 45.275C370.162 45.275 371.812 47.025 371.787 50.825L371.762 53.925C371.737 56.2 371.837 57.725 372.112 59H369.812C369.737 58.5 369.662 57.95 369.637 57.15C368.812 58.55 367.437 59.325 365.037 59.325Z"
		fill="black"/>
	<path
		d="M400.45 40.55C403.275 40.55 406.1 41.925 406.1 44.95C406.1 47.35 404.425 49.025 402.725 50.1C401.175 51.1 400.625 51.55 400.625 52.925V53.7H398.3V52.85C398.3 50.75 399.3 49.85 401.4 48.5C402.7 47.675 403.725 46.675 403.725 45.05C403.725 43.45 402.325 42.45 400.4 42.45C397.625 42.45 396.675 44.4 396.6 45.925H394.325C394.325 42.675 396.925 40.55 400.45 40.55ZM400.95 59H398.075V56.125H400.95V59Z"
		fill="black"/>
	<path
		d="M7.084 16H5.572L2.772 7.152V16H1.344V5.85H3.738L6.328 14.306L8.918 5.85H11.312V16H9.884V7.152L7.084 16ZM18.4142 12.85V12.374C16.1042 12.598 14.6342 12.948 14.6342 13.984C14.6342 14.698 15.1802 15.174 16.0902 15.174C17.2802 15.174 18.4142 14.628 18.4142 12.85ZM15.8102 16.182C14.3962 16.182 13.2202 15.398 13.2202 14.012C13.2202 12.234 15.2362 11.702 18.3162 11.366V11.184C18.3162 9.798 17.5602 9.35 16.6082 9.35C15.5442 9.35 14.9422 9.91 14.8862 10.848H13.5702C13.6822 9.224 15.1382 8.314 16.5942 8.314C18.6802 8.314 19.6042 9.294 19.5902 11.422L19.5762 13.158C19.5622 14.432 19.6182 15.286 19.7722 16H18.4842C18.4422 15.72 18.4002 15.412 18.3862 14.964C17.9242 15.748 17.1542 16.182 15.8102 16.182ZM30.8405 8.468V16H21.5585V8.468H22.8325V14.894H25.5625V8.468H26.8365V14.894H29.5665V8.468H30.8405ZM37.6778 12.85V12.374C35.3678 12.598 33.8978 12.948 33.8978 13.984C33.8978 14.698 34.4438 15.174 35.3538 15.174C36.5438 15.174 37.6778 14.628 37.6778 12.85ZM35.0738 16.182C33.6598 16.182 32.4838 15.398 32.4838 14.012C32.4838 12.234 34.4998 11.702 37.5798 11.366V11.184C37.5798 9.798 36.8238 9.35 35.8718 9.35C34.8078 9.35 34.2058 9.91 34.1498 10.848H32.8338C32.9458 9.224 34.4018 8.314 35.8578 8.314C37.9438 8.314 38.8678 9.294 38.8538 11.422L38.8398 13.158C38.8258 14.432 38.8818 15.286 39.0358 16H37.7478C37.7058 15.72 37.6638 15.412 37.6498 14.964C37.1878 15.748 36.4178 16.182 35.0738 16.182ZM50.0944 8.468V16H48.8204V9.574H46.2864L46.1744 11.394C45.9924 14.432 45.3344 16 43.5844 16H43.3464V14.894H43.4864C44.1584 14.894 44.8024 14.166 44.9564 11.044L45.0684 8.468H50.0944ZM58.4398 8.342C60.1898 8.342 62.0518 9.532 62.0518 12.262C62.0518 14.992 60.1898 16.182 58.4398 16.182C56.8718 16.182 55.2058 15.118 55.0238 12.71H53.5258V16H52.2518V8.468H53.5258V11.604H55.0518C55.3178 9.322 56.8998 8.342 58.4398 8.342ZM58.4398 15.062C59.6018 15.062 60.6938 14.194 60.6938 12.262C60.6938 10.246 59.6018 9.462 58.4398 9.462C57.3898 9.462 56.3678 10.204 56.3678 12.262C56.3678 14.278 57.3898 15.062 58.4398 15.062ZM67.0422 8.902C68.7502 8.902 70.2202 10.092 70.2202 12.472C70.2202 14.894 68.6662 16.182 66.8182 16.182C64.8722 16.182 63.2762 14.824 63.2762 12.08V11.212C63.3182 8.496 64.2142 6.914 67.2382 6.312L69.7162 5.822V6.956L67.3082 7.474C65.4742 7.88 64.5922 8.566 64.4102 10.442C64.9142 9.392 65.9222 8.902 67.0422 8.902ZM66.8182 15.076C68.0502 15.076 68.8622 14.138 68.8622 12.5C68.8622 10.848 67.9942 10.008 66.8322 10.008C65.6842 10.008 64.6482 10.792 64.6482 12.486C64.6482 14.082 65.5442 15.076 66.8182 15.076ZM76.8866 16V10.316L72.9946 16H71.7206V8.468H72.9946V14.152L76.8866 8.468H78.1606V16H76.8866ZM85.8782 9.574H83.3022V16H82.0282V9.574H79.4522V8.468H85.8782V9.574ZM96.0361 16H94.7621V12.948C93.8801 13.158 93.2081 13.256 92.5221 13.256C90.9401 13.256 90.1141 12.556 90.1141 10.918V8.468H91.3881V10.652C91.3881 11.772 91.9201 12.15 92.9841 12.15C93.4741 12.15 94.0621 12.066 94.7621 11.898V8.468H96.0361V16ZM102.865 12.85V12.374C100.555 12.598 99.0853 12.948 99.0853 13.984C99.0853 14.698 99.6313 15.174 100.541 15.174C101.731 15.174 102.865 14.628 102.865 12.85ZM100.261 16.182C98.8473 16.182 97.6713 15.398 97.6713 14.012C97.6713 12.234 99.6873 11.702 102.767 11.366V11.184C102.767 9.798 102.011 9.35 101.059 9.35C99.9953 9.35 99.3933 9.91 99.3373 10.848H98.0213C98.1333 9.224 99.5893 8.314 101.045 8.314C103.131 8.314 104.055 9.294 104.041 11.422L104.027 13.158C104.013 14.432 104.069 15.286 104.223 16H102.935C102.893 15.72 102.851 15.412 102.837 14.964C102.375 15.748 101.605 16.182 100.261 16.182ZM110.518 5.85H111.512C111.4 6.69 110.868 7.544 109.272 7.544C107.732 7.544 107.144 6.69 107.074 5.85H108.068C108.124 6.298 108.46 6.704 109.286 6.704C110.112 6.704 110.462 6.298 110.518 5.85ZM111.176 16V10.316L107.284 16H106.01V8.468H107.284V14.152L111.176 8.468H112.45V16H111.176ZM117.143 5.668C118.725 5.668 120.307 6.438 120.307 8.132C120.307 9.476 119.369 10.414 118.417 11.016C117.549 11.576 117.241 11.828 117.241 12.598V13.032H115.939V12.556C115.939 11.38 116.499 10.876 117.675 10.12C118.403 9.658 118.977 9.098 118.977 8.188C118.977 7.292 118.193 6.732 117.115 6.732C115.561 6.732 115.029 7.824 114.987 8.678H113.713C113.713 6.858 115.169 5.668 117.143 5.668ZM117.423 16H115.813V14.39H117.423V16Z"
		fill="#8E8E8E"/>
	<path
		d="M88.3536 77.6464C88.1583 77.4512 87.8417 77.4512 87.6464 77.6464L84.4645 80.8284C84.2692 81.0237 84.2692 81.3403 84.4645 81.5355C84.6597 81.7308 84.9763 81.7308 85.1716 81.5355L88 78.7071L90.8284 81.5355C91.0237 81.7308 91.3403 81.7308 91.5355 81.5355C91.7308 81.3403 91.7308 81.0237 91.5355 80.8284L88.3536 77.6464ZM87.5 78C87.5 78.6762 87.5611 79.3474 87.6813 80.0127L88.6653 79.8349C88.5556 79.2274 88.5 78.6157 88.5 78H87.5ZM89.0197 83.7847C89.6124 84.8972 90.3711 85.9847 91.2835 87.0446L92.0414 86.3922C91.1705 85.3804 90.4557 84.3534 89.9023 83.3145L89.0197 83.7847ZM94.0868 89.817C95.0356 90.6305 96.079 91.4264 97.2116 92.2035L97.7774 91.379C96.6709 90.6198 95.6564 89.8455 94.7377 89.0578L94.0868 89.817ZM100.511 94.2716C101.6 94.898 102.751 95.5107 103.959 96.1089L104.403 95.2126C103.211 94.623 102.08 94.02 101.01 93.4047L100.511 94.2716ZM107.496 97.7466C108.651 98.2478 109.849 98.7373 111.089 99.2145L111.448 98.2813C110.221 97.8088 109.035 97.3245 107.894 96.8292L107.496 97.7466ZM114.74 100.544C115.938 100.957 117.17 101.359 118.433 101.75L118.729 100.795C117.476 100.407 116.254 100.008 115.065 99.5983L114.74 100.544ZM122.159 102.848C123.385 103.19 124.636 103.523 125.911 103.846L126.157 102.876C124.889 102.556 123.646 102.225 122.429 101.885L122.159 102.848ZM129.684 104.754C130.927 105.038 132.191 105.314 133.475 105.579L133.677 104.6C132.4 104.336 131.143 104.062 129.907 103.779L129.684 104.754ZM137.28 106.328C138.536 106.562 139.809 106.787 141.099 107.004L141.264 106.018C139.98 105.802 138.713 105.578 137.463 105.344L137.28 106.328ZM144.929 107.612C146.195 107.802 147.476 107.984 148.77 108.156L148.902 107.165C147.613 106.993 146.338 106.812 145.078 106.623L144.929 107.612ZM152.621 108.638C153.895 108.788 155.182 108.929 156.48 109.061L156.581 108.066C155.288 107.935 154.007 107.794 152.737 107.645L152.621 108.638ZM160.333 109.426C161.61 109.537 162.897 109.64 164.194 109.735L164.267 108.738C162.975 108.643 161.692 108.541 160.42 108.43L160.333 109.426ZM168.061 109.99C169.343 110.066 170.634 110.134 171.934 110.193L171.979 109.194C170.684 109.135 169.398 109.068 168.12 108.992L168.061 109.99ZM175.811 110.344C177.095 110.386 178.385 110.419 179.683 110.444L179.702 109.444C178.409 109.419 177.123 109.386 175.844 109.345L175.811 110.344ZM183.555 110.494C184.202 110.498 184.85 110.5 185.5 110.5V109.5C184.852 109.5 184.206 109.498 183.561 109.494L183.555 110.494ZM185.5 110.5C186.15 110.5 186.798 110.498 187.445 110.494L187.439 109.494C186.794 109.498 186.148 109.5 185.5 109.5V110.5ZM191.317 110.444C192.615 110.419 193.905 110.386 195.189 110.344L195.156 109.345C193.877 109.386 192.591 109.419 191.298 109.444L191.317 110.444ZM199.066 110.193C200.366 110.134 201.657 110.066 202.939 109.99L202.88 108.992C201.602 109.068 200.316 109.135 199.021 109.194L199.066 110.193ZM206.806 109.735C208.103 109.64 209.39 109.537 210.667 109.426L210.58 108.43C209.308 108.541 208.025 108.643 206.733 108.738L206.806 109.735ZM214.52 109.061C215.818 108.929 217.105 108.788 218.379 108.638L218.263 107.645C216.993 107.794 215.712 107.935 214.419 108.066L214.52 109.061ZM222.23 108.156C223.524 107.984 224.805 107.802 226.071 107.612L225.922 106.623C224.662 106.812 223.387 106.993 222.098 107.165L222.23 108.156ZM229.901 107.004C231.191 106.787 232.464 106.562 233.72 106.328L233.537 105.344C232.287 105.578 231.02 105.802 229.736 106.018L229.901 107.004ZM237.525 105.579C238.809 105.314 240.073 105.038 241.316 104.754L241.093 103.779C239.857 104.062 238.6 104.336 237.323 104.6L237.525 105.579ZM245.089 103.846C246.364 103.523 247.615 103.19 248.841 102.848L248.571 101.885C247.354 102.225 246.111 102.556 244.843 102.876L245.089 103.846ZM252.567 101.75C253.83 101.359 255.062 100.957 256.26 100.544L255.935 99.5983C254.746 100.008 253.524 100.407 252.271 100.795L252.567 101.75ZM259.911 99.2145C261.151 98.7373 262.349 98.2478 263.504 97.7466L263.106 96.8292C261.965 97.3245 260.779 97.8088 259.552 98.2813L259.911 99.2145ZM267.041 96.1089C268.249 95.5107 269.4 94.898 270.489 94.2716L269.99 93.4047C268.92 94.02 267.789 94.6229 266.597 95.2126L267.041 96.1089ZM273.788 92.2035C274.921 91.4264 275.964 90.6304 276.913 89.817L276.262 89.0578C275.344 89.8455 274.329 90.6198 273.223 91.3789L273.788 92.2035ZM279.716 87.0446C280.629 85.9846 281.388 84.8972 281.98 83.7847L281.098 83.3145C280.544 84.3534 279.83 85.3804 278.959 86.3922L279.716 87.0446ZM283.319 80.0127C283.439 79.3474 283.5 78.6762 283.5 78H282.5C282.5 78.6157 282.444 79.2274 282.335 79.8349L283.319 80.0127ZM88.7071 77.2929C88.3166 76.9024 87.6834 76.9024 87.2929 77.2929L80.9289 83.6569C80.5384 84.0474 80.5384 84.6805 80.9289 85.0711C81.3195 85.4616 81.9526 85.4616 82.3431 85.0711L88 79.4142L93.6569 85.0711C94.0474 85.4616 94.6805 85.4616 95.0711 85.0711C95.4616 84.6805 95.4616 84.0474 95.0711 83.6569L88.7071 77.2929ZM87 78C87 78.7064 87.0638 79.4074 87.1892 80.1016L89.1574 79.746C89.0528 79.1674 89 78.5854 89 78H87ZM88.5784 84.0198C89.1907 85.1692 89.9715 86.2868 90.9046 87.3708L92.4204 86.066C91.5701 85.0783 90.8774 84.0815 90.3435 83.0794L88.5784 84.0198ZM93.7614 90.1966C94.7252 91.0229 95.783 91.8297 96.9287 92.6158L98.0603 90.9667C96.9669 90.2165 95.9668 89.453 95.0631 88.6782L93.7614 90.1966ZM100.262 94.705C101.361 95.337 102.52 95.9546 103.737 96.557L104.625 94.7645C103.442 94.1791 102.319 93.581 101.259 92.9713L100.262 94.705ZM107.297 98.2053C108.459 98.7094 109.663 99.2015 110.909 99.6811L111.628 97.8147C110.407 97.3445 109.228 96.8629 108.093 96.3705L107.297 98.2053ZM114.577 101.017C115.781 101.431 117.017 101.835 118.285 102.228L118.877 100.318C117.628 99.9308 116.412 99.5332 115.228 99.1256L114.577 101.017ZM122.025 103.329C123.254 103.673 124.509 104.007 125.789 104.331L126.279 102.392C125.015 102.072 123.776 101.742 122.563 101.403L122.025 103.329ZM129.573 105.241C130.819 105.527 132.086 105.803 133.373 106.069L133.779 104.11C132.505 103.847 131.251 103.574 130.019 103.292L129.573 105.241ZM137.188 106.819C138.447 107.054 139.723 107.28 141.016 107.497L141.347 105.524C140.066 105.31 138.802 105.086 137.555 104.853L137.188 106.819ZM144.855 108.107C146.124 108.297 147.407 108.479 148.704 108.652L148.968 106.669C147.682 106.498 146.41 106.318 145.152 106.129L144.855 108.107ZM152.563 109.135C153.84 109.285 155.129 109.426 156.429 109.559L156.632 107.569C155.342 107.437 154.062 107.297 152.796 107.149L152.563 109.135ZM160.29 109.924C161.569 110.035 162.858 110.139 164.157 110.234L164.303 108.239C163.013 108.145 161.733 108.042 160.464 107.931L160.29 109.924ZM168.031 110.49C169.316 110.566 170.609 110.633 171.911 110.693L172.002 108.695C170.709 108.636 169.425 108.569 168.149 108.493L168.031 110.49ZM175.795 110.844C177.081 110.886 178.374 110.919 179.673 110.944L179.712 108.944C178.421 108.919 177.137 108.886 175.86 108.845L175.795 110.844ZM183.552 110.994C184.2 110.998 184.849 111 185.5 111V109C184.853 109 184.208 108.998 183.565 108.994L183.552 110.994ZM185.5 111C186.151 111 186.8 110.998 187.448 110.994L187.435 108.994C186.792 108.998 186.147 109 185.5 109V111ZM191.327 110.944C192.626 110.919 193.919 110.886 195.205 110.844L195.14 108.845C193.863 108.886 192.579 108.919 191.288 108.944L191.327 110.944ZM199.089 110.693C200.391 110.633 201.684 110.566 202.969 110.49L202.851 108.493C201.575 108.569 200.291 108.636 198.998 108.695L199.089 110.693ZM206.843 110.234C208.142 110.139 209.431 110.035 210.71 109.924L210.536 107.931C209.267 108.042 207.987 108.145 206.697 108.239L206.843 110.234ZM214.571 109.559C215.871 109.426 217.16 109.285 218.437 109.135L218.204 107.149C216.938 107.297 215.658 107.437 214.368 107.569L214.571 109.559ZM222.296 108.652C223.593 108.479 224.876 108.297 226.145 108.107L225.848 106.129C224.59 106.318 223.318 106.498 222.032 106.669L222.296 108.652ZM229.984 107.497C231.277 107.28 232.553 107.054 233.812 106.819L233.445 104.853C232.198 105.086 230.934 105.31 229.653 105.524L229.984 107.497ZM237.627 106.069C238.914 105.803 240.181 105.527 241.427 105.241L240.981 103.292C239.749 103.574 238.495 103.847 237.222 104.11L237.627 106.069ZM245.211 104.331C246.491 104.007 247.746 103.673 248.975 103.329L248.437 101.403C247.224 101.742 245.985 102.072 244.721 102.392L245.211 104.331ZM252.715 102.228C253.983 101.835 255.219 101.431 256.423 101.017L255.772 99.1256C254.588 99.5332 253.372 99.9308 252.123 100.318L252.715 102.228ZM260.091 99.6811C261.337 99.2015 262.541 98.7094 263.703 98.2052L262.907 96.3705C261.772 96.8629 260.593 97.3445 259.372 97.8147L260.091 99.6811ZM267.263 96.557C268.48 95.9546 269.639 95.337 270.738 94.705L269.741 92.9713C268.681 93.581 267.558 94.1791 266.375 94.7645L267.263 96.557ZM274.071 92.6158C275.217 91.8297 276.275 91.0229 277.239 90.1966L275.937 88.6782C275.033 89.453 274.033 90.2165 272.94 90.9667L274.071 92.6158ZM280.095 87.3708C281.029 86.2868 281.809 85.1691 282.422 84.0198L280.656 83.0794C280.123 84.0815 279.43 85.0783 278.58 86.066L280.095 87.3708ZM283.811 80.1016C283.936 79.4074 284 78.7064 284 78H282C282 78.5854 281.947 79.1674 281.843 79.746L283.811 80.1016Z"
		fill="url(#paint0_linear_336_25443)"/>
	<circle cx="186.5" cy="109.5" r="9.5" fill="#0076DE"/>
	<path d="M186.5 103V109.5L191.5 113.5" stroke="white"/>
	<defs>
		<linearGradient id="paint0_linear_336_25443" x1="88" y1="78" x2="283" y2="78" gradientUnits="userSpaceOnUse">
			<stop stop-color="#0076DE"/>
			<stop offset="1" stop-color="#1E1E1E"/>
		</linearGradient>
	</defs>
</svg>
