<svg width="326" height="69" viewBox="0 0 326 69" fill="none" xmlns="http://www.w3.org/2000/svg">
	<rect x="0.5" y="32.5" width="72" height="36" rx="18" stroke="#1E1E1E"/>
	<rect x="149.5" y="32.5" width="59" height="36" rx="18" stroke="#1E1E1E"/>
	<rect x="78" y="32" width="66" height="37" rx="18.5" fill="#0076DE"/>
	<rect x="214.5" y="32.5" width="99" height="36" rx="18" stroke="#1E1E1E"/>
	<path
		d="M15 40.875H17.8L22.75 49.725L27.8 40.875H30.6L23.95 51.975V59H21.4V51.925L15 40.875ZM31.7045 52.325C31.7045 55.925 33.6545 57.325 35.7295 57.325C37.8045 57.325 39.7545 55.775 39.7545 52.325C39.7545 48.725 37.8045 47.325 35.7295 47.325C33.6545 47.325 31.7045 48.65 31.7045 52.325ZM35.7295 45.325C38.8545 45.325 42.1795 47.45 42.1795 52.325C42.1795 57.2 38.8545 59.325 35.7295 59.325C32.6045 59.325 29.2795 57.2 29.2795 52.325C29.2795 47.45 32.6045 45.325 35.7295 45.325ZM53.2256 59V57.075C52.4506 58.35 51.2256 59.325 49.0006 59.325C45.9006 59.325 44.7006 57.225 44.7006 54.15V45.55H46.9756V53.475C46.9756 55.55 47.3006 57.35 49.8006 57.35C51.9756 57.35 53.2256 55.85 53.2256 52.95V45.55H55.5006V59H53.2256Z"
		fill="black"/>
	<path
		d="M167.975 52.325C167.975 55.875 169.875 57.375 171.9 57.375C174.225 57.375 175.75 55.55 175.75 52.325C175.75 49.1 174.225 47.275 171.9 47.275C169.875 47.275 167.975 48.775 167.975 52.325ZM165.8 40.875H168.075V47.675C168.9 46.25 170.3 45.325 172.475 45.325C175.575 45.325 178.225 47.925 178.225 52.325C178.225 56.8 175.575 59.325 172.475 59.325C170.3 59.325 168.9 58.4 168.075 56.975V59H165.8V40.875ZM192.885 53.025H182.535C182.61 55.925 184.71 57.325 186.685 57.325C188.685 57.325 189.785 56.425 190.36 55.1H192.71C192.11 57.4 189.96 59.325 186.685 59.325C182.435 59.325 180.085 56.275 180.085 52.3C180.085 48.025 182.935 45.325 186.61 45.325C190.735 45.325 193.16 48.75 192.885 53.025ZM186.61 47.275C184.61 47.275 182.76 48.375 182.56 51.075H190.485C190.41 49.175 189.035 47.275 186.61 47.275Z"
		fill="black"/>
	<path
		d="M98.15 55.5L100.825 45.55H103.175L105.85 55.5L108.425 45.55H110.875L107 59H104.925L101.95 48.175L99.075 59H97L93.125 45.55H95.575L98.15 55.5ZM112.793 45.55H115.068V59H112.793V45.55ZM112.793 40.875H115.068V43.625H112.793V40.875ZM120.952 40.875V59H118.677V40.875H120.952ZM126.836 40.875V59H124.561V40.875H126.836Z"
		fill="white"/>
	<path
		d="M233.075 40.875V47.575C233.85 46.3 235.15 45.325 237.425 45.325C240.675 45.325 241.85 47.425 241.85 50.5V59H239.575V51.175C239.575 49.1 239.225 47.3 236.625 47.3C234.425 47.3 233.075 48.8 233.075 51.7V59H230.8V40.875H233.075ZM253.728 53.375V52.525C249.603 52.925 246.978 53.55 246.978 55.4C246.978 56.675 247.953 57.525 249.578 57.525C251.703 57.525 253.728 56.55 253.728 53.375ZM249.078 59.325C246.553 59.325 244.453 57.925 244.453 55.45C244.453 52.275 248.053 51.325 253.553 50.725V50.4C253.553 47.925 252.203 47.125 250.503 47.125C248.603 47.125 247.528 48.125 247.428 49.8H245.078C245.278 46.9 247.878 45.275 250.478 45.275C254.203 45.275 255.853 47.025 255.828 50.825L255.803 53.925C255.778 56.2 255.878 57.725 256.153 59H253.853C253.778 58.5 253.703 57.95 253.678 57.15C252.853 58.55 251.478 59.325 249.078 59.325ZM259.218 45.55H261.493V47.675C262.318 46.25 263.718 45.325 265.893 45.325C268.993 45.325 271.643 47.925 271.643 52.325C271.643 56.8 268.993 59.325 265.893 59.325C263.718 59.325 262.318 58.4 261.493 56.975V63.375H259.218V45.55ZM261.393 52.325C261.393 55.875 263.293 57.375 265.318 57.375C267.643 57.375 269.168 55.55 269.168 52.325C269.168 49.1 267.643 47.275 265.318 47.275C263.293 47.275 261.393 48.775 261.393 52.325ZM274.306 45.55H276.581V47.675C277.406 46.25 278.806 45.325 280.981 45.325C284.081 45.325 286.731 47.925 286.731 52.325C286.731 56.8 284.081 59.325 280.981 59.325C278.806 59.325 277.406 58.4 276.581 56.975V63.375H274.306V45.55ZM276.481 52.325C276.481 55.875 278.381 57.375 280.406 57.375C282.731 57.375 284.256 55.55 284.256 52.325C284.256 49.1 282.731 47.275 280.406 47.275C278.381 47.275 276.481 48.775 276.481 52.325ZM296.625 45.55H299L294.2 59.575C293.2 62.475 292.55 63.375 289.525 63.375H288.35V61.475H289.275C290.775 61.475 291.5 61.375 292.1 59.275L292.2 59L287.35 45.55H289.875L293.3 55.925L296.625 45.55Z"
		fill="black"/>
	<path d="M323.5 59H320.625V56.125H323.5V59Z" fill="black"/>
	<path
		d="M1.344 16V5.85H4.998C6.888 5.85 8.568 6.34 8.568 8.356C8.568 9.322 8.162 10.19 7.448 10.596C8.414 11.002 8.988 11.758 8.988 13.004C8.988 15.16 7.378 16 5.348 16H1.344ZM2.772 11.324V14.796H5.362C6.818 14.796 7.518 14.18 7.518 13.018C7.518 11.828 6.804 11.324 5.278 11.324H2.772ZM2.772 7.054V10.19H5.222C6.398 10.19 7.126 9.742 7.126 8.552C7.126 7.502 6.356 7.054 5.222 7.054H2.772ZM13.3643 16H10.6483V8.468H11.9223V11.128H13.3783C15.3383 11.128 16.1923 11.898 16.1923 13.508C16.1923 15.37 15.0863 16 13.3643 16ZM11.9223 12.234V14.894H13.2523C14.3723 14.894 14.9463 14.53 14.9463 13.508C14.9463 12.5 14.3863 12.234 13.2103 12.234H11.9223ZM18.7123 16H17.4383V8.468H18.7123V16ZM27.5851 8.902C29.2931 8.902 30.7631 10.092 30.7631 12.472C30.7631 14.894 29.2091 16.182 27.3611 16.182C25.4151 16.182 23.8191 14.824 23.8191 12.08V11.212C23.8611 8.496 24.7571 6.914 27.7811 6.312L30.2591 5.822V6.956L27.8511 7.474C26.0171 7.88 25.1351 8.566 24.9531 10.442C25.4571 9.392 26.4651 8.902 27.5851 8.902ZM27.3611 15.076C28.5931 15.076 29.4051 14.138 29.4051 12.5C29.4051 10.848 28.5371 10.008 27.3751 10.008C26.2271 10.008 25.1911 10.792 25.1911 12.486C25.1911 14.082 26.0871 15.076 27.3611 15.076ZM31.7472 18.45V17.386H32.2652C33.1052 17.386 33.5112 17.33 33.8472 16.154L33.9032 16L31.1872 8.468H32.6012L34.5192 14.278L36.3812 8.468H37.7112L35.0232 16.322C34.4632 17.946 34.0992 18.45 32.4052 18.45H31.7472ZM45.4716 14.894V17.666H44.2396V16H38.7236V17.666H37.4916V14.894H37.8276C38.6816 14.894 39.1296 13.774 39.2416 10.89L39.3396 8.468H44.4216V14.894H45.4716ZM43.1476 14.894V9.574H40.5716L40.5016 11.016C40.3896 13.242 40.0676 14.334 39.4796 14.894H43.1476ZM53.3357 12.654H47.5397C47.5817 14.278 48.7577 15.062 49.8637 15.062C50.9837 15.062 51.5997 14.558 51.9217 13.816H53.2377C52.9017 15.104 51.6977 16.182 49.8637 16.182C47.4837 16.182 46.1677 14.474 46.1677 12.248C46.1677 9.854 47.7637 8.342 49.8217 8.342C52.1317 8.342 53.4897 10.26 53.3357 12.654ZM49.8217 9.434C48.7017 9.434 47.6657 10.05 47.5537 11.562H51.9917C51.9497 10.498 51.1797 9.434 49.8217 9.434ZM60.1477 9.574H57.5717V16H56.2977V9.574H53.7217V8.468H60.1477V9.574ZM67.7732 12.654H61.9772C62.0192 14.278 63.1952 15.062 64.3012 15.062C65.4212 15.062 66.0372 14.558 66.3592 13.816H67.6752C67.3392 15.104 66.1352 16.182 64.3012 16.182C61.9212 16.182 60.6052 14.474 60.6052 12.248C60.6052 9.854 62.2012 8.342 64.2592 8.342C66.5692 8.342 67.9272 10.26 67.7732 12.654ZM64.2592 9.434C63.1392 9.434 62.1032 10.05 61.9912 11.562H66.4292C66.3872 10.498 65.6172 9.434 64.2592 9.434ZM75.7159 8.342C77.5639 8.342 78.6839 9.7 78.8659 10.988H77.5779C77.3959 10.092 76.6259 9.462 75.6319 9.462C74.5119 9.462 73.4619 10.344 73.4619 12.234C73.4619 14.138 74.5119 15.062 75.6319 15.062C76.7099 15.062 77.4519 14.334 77.6339 13.55H78.9499C78.6839 14.964 77.3539 16.182 75.5899 16.182C73.4199 16.182 72.0759 14.544 72.0759 12.248C72.0759 10.008 73.4899 8.342 75.7159 8.342ZM86.0009 16H84.7269V12.948C83.8449 13.158 83.1729 13.256 82.4869 13.256C80.9049 13.256 80.0789 12.556 80.0789 10.918V8.468H81.3529V10.652C81.3529 11.772 81.8849 12.15 82.9489 12.15C83.4389 12.15 84.0269 12.066 84.7269 11.898V8.468H86.0009V16ZM92.8302 12.85V12.374C90.5202 12.598 89.0502 12.948 89.0502 13.984C89.0502 14.698 89.5962 15.174 90.5062 15.174C91.6962 15.174 92.8302 14.628 92.8302 12.85ZM90.2262 16.182C88.8122 16.182 87.6362 15.398 87.6362 14.012C87.6362 12.234 89.6522 11.702 92.7322 11.366V11.184C92.7322 9.798 91.9762 9.35 91.0242 9.35C89.9602 9.35 89.3582 9.91 89.3022 10.848H87.9862C88.0982 9.224 89.5542 8.314 91.0102 8.314C93.0962 8.314 94.0202 9.294 94.0062 11.422L93.9922 13.158C93.9782 14.432 94.0342 15.286 94.1882 16H92.9002C92.8582 15.72 92.8162 15.412 92.8022 14.964C92.3402 15.748 91.5702 16.182 90.2262 16.182ZM99.0265 8.342C100.874 8.342 101.994 9.7 102.176 10.988H100.888C100.706 10.092 99.9365 9.462 98.9425 9.462C97.8225 9.462 96.7725 10.344 96.7725 12.234C96.7725 14.138 97.8225 15.062 98.9425 15.062C100.02 15.062 100.762 14.334 100.944 13.55H102.26C101.994 14.964 100.664 16.182 98.9005 16.182C96.7305 16.182 95.3865 14.544 95.3865 12.248C95.3865 10.008 96.8005 8.342 99.0265 8.342ZM109.079 9.574H106.503V16H105.229V9.574H102.653V8.468H109.079V9.574ZM115.76 8.468V16H114.486V9.574H111.952L111.84 11.394C111.658 14.432 111 16 109.25 16H109.012V14.894H109.152C109.824 14.894 110.468 14.166 110.622 11.044L110.734 8.468H115.76ZM123.084 16V10.316L119.192 16H117.918V8.468H119.192V14.152L123.084 8.468H124.358V16H123.084ZM126.517 8.468H129.793C131.305 8.468 132.537 8.86 132.537 10.386C132.537 11.184 132.187 11.744 131.487 12.038C132.271 12.262 132.845 12.794 132.845 13.802C132.845 15.37 131.627 16 130.017 16H126.517V8.468ZM127.791 11.632H129.709C130.647 11.632 131.207 11.38 131.207 10.526C131.207 9.742 130.619 9.574 129.667 9.574H127.791V11.632ZM127.791 12.682V14.894H129.821C130.941 14.894 131.515 14.572 131.515 13.788C131.515 12.948 130.955 12.682 129.779 12.682H127.791ZM137.054 16H134.338V8.468H135.612V11.128H137.068C139.028 11.128 139.882 11.898 139.882 13.508C139.882 15.37 138.776 16 137.054 16ZM135.612 12.234V14.894H136.942C138.062 14.894 138.636 14.53 138.636 13.508C138.636 12.5 138.076 12.234 136.9 12.234H135.612ZM142.402 16H141.128V8.468H142.402V16ZM149.072 5.85H150.066C149.954 6.69 149.422 7.544 147.826 7.544C146.286 7.544 145.698 6.69 145.628 5.85H146.622C146.678 6.298 147.014 6.704 147.84 6.704C148.666 6.704 149.016 6.298 149.072 5.85ZM149.73 16V10.316L145.838 16H144.564V8.468H145.838V14.152L149.73 8.468H151.004V16H149.73ZM154.606 16H152.996V14.39H154.606V16Z"
		fill="#8E8E8E"/>
</svg>
