<svg width="345" height="69" viewBox="0 0 345 69" fill="none" xmlns="http://www.w3.org/2000/svg">
	<rect x="0.5" y="32.5" width="72" height="36" rx="18" stroke="#1E1E1E"/>
	<rect x="78.5" y="32.5" width="67" height="36" rx="18" fill="#1E1E1E" stroke="#1E1E1E"/>
	<rect x="151.5" y="32.5" width="67" height="36" rx="18" fill="#1E1E1E" stroke="#1E1E1E"/>
	<rect x="224.5" y="32.5" width="108" height="36" rx="18" stroke="#1E1E1E"/>
	<path
		d="M15 40.875H17.8L22.75 49.725L27.8 40.875H30.6L23.95 51.975V59H21.4V51.925L15 40.875ZM31.7045 52.325C31.7045 55.925 33.6545 57.325 35.7295 57.325C37.8045 57.325 39.7545 55.775 39.7545 52.325C39.7545 48.725 37.8045 47.325 35.7295 47.325C33.6545 47.325 31.7045 48.65 31.7045 52.325ZM35.7295 45.325C38.8545 45.325 42.1795 47.45 42.1795 52.325C42.1795 57.2 38.8545 59.325 35.7295 59.325C32.6045 59.325 29.2795 57.2 29.2795 52.325C29.2795 47.45 32.6045 45.325 35.7295 45.325ZM53.2256 59V57.075C52.4506 58.35 51.2256 59.325 49.0006 59.325C45.9006 59.325 44.7006 57.225 44.7006 54.15V45.55H46.9756V53.475C46.9756 55.55 47.3006 57.35 49.8006 57.35C51.9756 57.35 53.2256 55.85 53.2256 52.95V45.55H55.5006V59H53.2256Z"
		fill="black"/>
	<path
		d="M103.275 53.375V52.525C99.15 52.925 96.525 53.55 96.525 55.4C96.525 56.675 97.5 57.525 99.125 57.525C101.25 57.525 103.275 56.55 103.275 53.375ZM98.625 59.325C96.1 59.325 94 57.925 94 55.45C94 52.275 97.6 51.325 103.1 50.725V50.4C103.1 47.925 101.75 47.125 100.05 47.125C98.15 47.125 97.075 48.125 96.975 49.8H94.625C94.825 46.9 97.425 45.275 100.025 45.275C103.75 45.275 105.4 47.025 105.375 50.825L105.35 53.925C105.325 56.2 105.425 57.725 105.7 59H103.4C103.325 58.5 103.25 57.95 103.225 57.15C102.4 58.55 101.025 59.325 98.625 59.325ZM115.465 45.5V47.925C114.99 47.85 114.565 47.825 114.19 47.825C112.09 47.825 111.04 48.975 111.04 51.95V59H108.765V45.55H110.99V47.9C111.665 46.375 113.015 45.55 114.79 45.475C115.015 45.475 115.19 45.475 115.465 45.5ZM129.282 53.025H118.932C119.007 55.925 121.107 57.325 123.082 57.325C125.082 57.325 126.182 56.425 126.757 55.1H129.107C128.507 57.4 126.357 59.325 123.082 59.325C118.832 59.325 116.482 56.275 116.482 52.3C116.482 48.025 119.332 45.325 123.007 45.325C127.132 45.325 129.557 48.75 129.282 53.025ZM123.007 47.275C121.007 47.275 119.157 48.375 118.957 51.075H126.882C126.807 49.175 125.432 47.275 123.007 47.275Z"
		fill="white"/>
	<path
		d="M170.075 45.55V47.575C170.85 46.3 172.15 45.325 174.425 45.325C177.675 45.325 178.85 47.425 178.85 50.5V59H176.575V51.175C176.575 49.1 176.225 47.3 173.625 47.3C171.425 47.3 170.075 48.8 170.075 51.7V59H167.8V45.55H170.075ZM183.803 52.325C183.803 55.925 185.753 57.325 187.828 57.325C189.903 57.325 191.853 55.775 191.853 52.325C191.853 48.725 189.903 47.325 187.828 47.325C185.753 47.325 183.803 48.65 183.803 52.325ZM187.828 45.325C190.953 45.325 194.278 47.45 194.278 52.325C194.278 57.2 190.953 59.325 187.828 59.325C184.703 59.325 181.378 57.2 181.378 52.325C181.378 47.45 184.703 45.325 187.828 45.325ZM197.527 45.55V42.175H199.802V45.55H202.352V47.375H199.802V55.35C199.802 56.75 199.902 57.1 201.202 57.1H202.352V59H200.702C198.127 59 197.527 58.425 197.527 55.625V47.375H195.402V45.55H197.527Z"
		fill="white"/>
	<path
		d="M243.075 40.875V47.575C243.85 46.3 245.15 45.325 247.425 45.325C250.675 45.325 251.85 47.425 251.85 50.5V59H249.575V51.175C249.575 49.1 249.225 47.3 246.625 47.3C244.425 47.3 243.075 48.8 243.075 51.7V59H240.8V40.875H243.075ZM263.578 59V57.075C262.803 58.35 261.578 59.325 259.353 59.325C256.253 59.325 255.053 57.225 255.053 54.15V45.55H257.328V53.475C257.328 55.55 257.653 57.35 260.153 57.35C262.328 57.35 263.578 55.85 263.578 52.95V45.55H265.853V59H263.578ZM271.737 45.55V47.575C272.512 46.3 273.812 45.325 276.087 45.325C279.337 45.325 280.512 47.425 280.512 50.5V59H278.237V51.175C278.237 49.1 277.887 47.3 275.287 47.3C273.087 47.3 271.737 48.8 271.737 51.7V59H269.462V45.55H271.737ZM292.965 47.675V45.55H295.24V57.2C295.24 59.925 294.74 61.075 293.965 61.925C292.99 63.05 291.315 63.7 289.315 63.7C286.24 63.7 284.215 62.3 283.79 59.575H286.215C286.49 60.775 287.265 61.7 289.34 61.7C290.565 61.7 291.465 61.375 292.09 60.7C292.565 60.15 292.965 59.575 292.965 57.725V56.45C292.14 57.875 290.865 58.775 288.69 58.775C285.715 58.775 282.99 56.375 282.99 52.05C282.99 47.75 285.715 45.325 288.69 45.325C290.865 45.325 292.14 46.25 292.965 47.675ZM293.065 52.05C293.065 48.65 291.265 47.275 289.265 47.275C287.04 47.275 285.465 48.975 285.465 52.05C285.465 55.15 287.04 56.85 289.265 56.85C291.265 56.85 293.065 55.475 293.065 52.05ZM305.532 45.5V47.925C305.057 47.85 304.632 47.825 304.257 47.825C302.157 47.825 301.107 48.975 301.107 51.95V59H298.832V45.55H301.057V47.9C301.732 46.375 303.082 45.55 304.857 45.475C305.082 45.475 305.257 45.475 305.532 45.5ZM315.194 45.55H317.569L312.769 59.575C311.769 62.475 311.119 63.375 308.094 63.375H306.919V61.475H307.844C309.344 61.475 310.069 61.375 310.669 59.275L310.769 59L305.919 45.55H308.444L311.869 55.925L315.194 45.55Z"
		fill="black"/>
	<path d="M342.5 59H339.625V56.125H342.5V59Z" fill="black"/>
	<path
		d="M1.344 16V5.85H4.998C6.888 5.85 8.568 6.34 8.568 8.356C8.568 9.322 8.162 10.19 7.448 10.596C8.414 11.002 8.988 11.758 8.988 13.004C8.988 15.16 7.378 16 5.348 16H1.344ZM2.772 11.324V14.796H5.362C6.818 14.796 7.518 14.18 7.518 13.018C7.518 11.828 6.804 11.324 5.278 11.324H2.772ZM2.772 7.054V10.19H5.222C6.398 10.19 7.126 9.742 7.126 8.552C7.126 7.502 6.356 7.054 5.222 7.054H2.772ZM13.3643 16H10.6483V8.468H11.9223V11.128H13.3783C15.3383 11.128 16.1923 11.898 16.1923 13.508C16.1923 15.37 15.0863 16 13.3643 16ZM11.9223 12.234V14.894H13.2523C14.3723 14.894 14.9463 14.53 14.9463 13.508C14.9463 12.5 14.3863 12.234 13.2103 12.234H11.9223ZM18.7123 16H17.4383V8.468H18.7123V16ZM23.5671 12.15C23.5671 9.308 24.6451 7.068 25.4991 5.85H26.5491C25.6111 7.348 24.8831 9.504 24.8831 12.15C24.8831 14.796 25.6111 16.938 26.5491 18.45H25.4991C24.6451 17.218 23.5671 14.992 23.5671 12.15ZM34.2088 12.654H28.4128C28.4548 14.278 29.6308 15.062 30.7368 15.062C31.8568 15.062 32.4728 14.558 32.7948 13.816H34.1108C33.7748 15.104 32.5708 16.182 30.7368 16.182C28.3568 16.182 27.0408 14.474 27.0408 12.248C27.0408 9.854 28.6368 8.342 30.6948 8.342C33.0048 8.342 34.3628 10.26 34.2088 12.654ZM30.6948 9.434C29.5748 9.434 28.5388 10.05 28.4268 11.562H32.8648C32.8228 10.498 32.0528 9.434 30.6948 9.434ZM38.8976 8.342C40.7456 8.342 41.8656 9.7 42.0476 10.988H40.7596C40.5776 10.092 39.8076 9.462 38.8136 9.462C37.6936 9.462 36.6436 10.344 36.6436 12.234C36.6436 14.138 37.6936 15.062 38.8136 15.062C39.8916 15.062 40.6336 14.334 40.8156 13.55H42.1316C41.8656 14.964 40.5356 16.182 38.7716 16.182C36.6016 16.182 35.2576 14.544 35.2576 12.248C35.2576 10.008 36.6716 8.342 38.8976 8.342ZM48.9505 9.574H46.3745V16H45.1005V9.574H42.5245V8.468H48.9505V9.574ZM51.5161 11.128H53.3081C55.2821 11.128 56.1221 11.898 56.1221 13.508C56.1221 15.37 55.0301 16 53.2941 16H50.2421V8.468H51.5161V11.128ZM51.5161 14.894H53.1821C54.3021 14.894 54.8761 14.516 54.8761 13.508C54.8761 12.514 54.2881 12.234 53.1541 12.234H51.5161V14.894ZM59.4605 12.15C59.4605 14.992 58.3825 17.218 57.5285 18.45H56.4785C57.4165 16.938 58.1445 14.796 58.1445 12.15C58.1445 9.518 57.4025 7.334 56.4785 5.85H57.5285C58.3825 7.068 59.4605 9.308 59.4605 12.15ZM70.5824 16H69.3084V12.71H65.5844V16H64.3104V8.468H65.5844V11.604H69.3084V8.468H70.5824V16ZM79.3123 12.654H73.5163C73.5583 14.278 74.7343 15.062 75.8403 15.062C76.9603 15.062 77.5763 14.558 77.8983 13.816H79.2143C78.8783 15.104 77.6743 16.182 75.8403 16.182C73.4603 16.182 72.1443 14.474 72.1443 12.248C72.1443 9.854 73.7403 8.342 75.7983 8.342C78.1083 8.342 79.4663 10.26 79.3123 12.654ZM75.7983 9.434C74.6783 9.434 73.6423 10.05 73.5303 11.562H77.9683C77.9263 10.498 77.1563 9.434 75.7983 9.434ZM89.005 9.574H85.477V16H84.203V8.468H89.005V9.574ZM90.7705 12.262C90.7705 14.278 91.8625 15.062 93.0245 15.062C94.1865 15.062 95.2785 14.194 95.2785 12.262C95.2785 10.246 94.1865 9.462 93.0245 9.462C91.8625 9.462 90.7705 10.204 90.7705 12.262ZM93.0245 8.342C94.7745 8.342 96.6365 9.532 96.6365 12.262C96.6365 14.992 94.7745 16.182 93.0245 16.182C91.2745 16.182 89.4125 14.992 89.4125 12.262C89.4125 9.532 91.2745 8.342 93.0245 8.342ZM104.071 8.468V16H102.797V9.574H100.263L100.151 11.394C99.969 14.432 99.311 16 97.561 16H97.323V14.894H97.463C98.135 14.894 98.779 14.166 98.933 11.044L99.045 8.468H104.071ZM107.026 12.262C107.026 14.278 108.118 15.062 109.28 15.062C110.442 15.062 111.534 14.194 111.534 12.262C111.534 10.246 110.442 9.462 109.28 9.462C108.118 9.462 107.026 10.204 107.026 12.262ZM109.28 8.342C111.03 8.342 112.892 9.532 112.892 12.262C112.892 14.992 111.03 16.182 109.28 16.182C107.53 16.182 105.668 14.992 105.668 12.262C105.668 9.532 107.53 8.342 109.28 8.342ZM121.391 14.894V17.666H120.159V16H114.643V17.666H113.411V14.894H113.747C114.601 14.894 115.049 13.774 115.161 10.89L115.259 8.468H120.341V14.894H121.391ZM119.067 14.894V9.574H116.491L116.421 11.016C116.309 13.242 115.987 14.334 115.399 14.894H119.067ZM128.948 16H127.674V12.71H123.95V16H122.676V8.468H123.95V11.604H127.674V8.468H128.948V16ZM133.814 16H131.098V8.468H132.372V11.128H133.828C135.788 11.128 136.642 11.898 136.642 13.508C136.642 15.37 135.536 16 133.814 16ZM132.372 12.234V14.894H133.702C134.822 14.894 135.396 14.53 135.396 13.508C135.396 12.5 134.836 12.234 133.66 12.234H132.372ZM139.162 16H137.888V8.468H139.162V16ZM145.832 5.85H146.826C146.714 6.69 146.182 7.544 144.586 7.544C143.046 7.544 142.458 6.69 142.388 5.85H143.382C143.438 6.298 143.774 6.704 144.6 6.704C145.426 6.704 145.776 6.298 145.832 5.85ZM146.49 16V10.316L142.598 16H141.324V8.468H142.598V14.152L146.49 8.468H147.764V16H146.49ZM151.366 16H149.756V14.39H151.366V16Z"
		fill="#8E8E8E"/>
</svg>
