<svg width="182" height="264" viewBox="0 0 182 264" fill="none" xmlns="http://www.w3.org/2000/svg">
<rect x="1" y="1" width="180" height="262" rx="9" fill="white"/>
<rect x="1" y="1" width="180" height="262" rx="9" stroke="#E3E3E3" stroke-width="2"/>
<path d="M24.512 27.6V45H22.064V27.6H24.512ZM20 59.6H22.688L27.44 68.096L32.288 59.6H34.976L28.592 70.256V77H26.144V70.208L20 59.6ZM36.0363 70.592C36.0363 74.048 37.9083 75.392 39.9003 75.392C41.8923 75.392 43.7643 73.904 43.7643 70.592C43.7643 67.136 41.8923 65.792 39.9003 65.792C37.9083 65.792 36.0363 67.064 36.0363 70.592ZM39.9003 63.872C42.9003 63.872 46.0923 65.912 46.0923 70.592C46.0923 75.272 42.9003 77.312 39.9003 77.312C36.9003 77.312 33.7083 75.272 33.7083 70.592C33.7083 65.912 36.9003 63.872 39.9003 63.872ZM56.6966 77V75.152C55.9526 76.376 54.7766 77.312 52.6406 77.312C49.6646 77.312 48.5126 75.296 48.5126 72.344V64.088H50.6966V71.696C50.6966 73.688 51.0086 75.416 53.4086 75.416C55.4966 75.416 56.6966 73.976 56.6966 71.192V64.088H58.8806V77H56.6966ZM32.528 91.6L35.96 106.216L39.176 91.6H41.744L37.4 109H34.424L31.064 94.696L27.776 109H24.8L20.384 91.6H23.072L26.432 106.216L29.648 91.6H32.528ZM54.5264 103.264H44.5904C44.6624 106.048 46.6784 107.392 48.5744 107.392C50.4944 107.392 51.5504 106.528 52.1024 105.256H54.3584C53.7824 107.464 51.7184 109.312 48.5744 109.312C44.4944 109.312 42.2384 106.384 42.2384 102.568C42.2384 98.464 44.9744 95.872 48.5024 95.872C52.4624 95.872 54.7904 99.16 54.5264 103.264ZM48.5024 97.744C46.5824 97.744 44.8064 98.8 44.6144 101.392H52.2224C52.1504 99.568 50.8304 97.744 48.5024 97.744ZM25.664 141V125.712H20V123.6H33.776V125.712H28.112V141H25.664ZM37.2245 123.6V130.032C37.9685 128.808 39.2165 127.872 41.4005 127.872C44.5205 127.872 45.6485 129.888 45.6485 132.84V141H43.4645V133.488C43.4645 131.496 43.1285 129.768 40.6325 129.768C38.5205 129.768 37.2245 131.208 37.2245 133.992V141H35.0405V123.6H37.2245ZM60.3155 135.264H50.3795C50.4515 138.048 52.4675 139.392 54.3635 139.392C56.2835 139.392 57.3395 138.528 57.8915 137.256H60.1475C59.5715 139.464 57.5075 141.312 54.3635 141.312C50.2835 141.312 48.0275 138.384 48.0275 134.568C48.0275 130.464 50.7635 127.872 54.2915 127.872C58.2515 127.872 60.5795 131.16 60.3155 135.264ZM54.2915 129.744C52.3715 129.744 50.5955 130.8 50.4035 133.392H58.0115C57.9395 131.568 56.6195 129.744 54.2915 129.744ZM69.9196 128.088H72.1996L67.5916 141.552C66.6316 144.336 66.0076 145.2 63.1036 145.2H61.9756V143.376H62.8636C64.3036 143.376 64.9996 143.28 65.5756 141.264L65.6716 141L61.0156 128.088H63.4396L66.7276 138.048L69.9196 128.088ZM33.656 155.6H36.104V173H33.656V165.104H24.512V173H22.064V155.6H24.512V162.992H33.656V155.6ZM51.2921 167.264H41.3561C41.4281 170.048 43.4441 171.392 45.3401 171.392C47.2601 171.392 48.3161 170.528 48.8681 169.256H51.1241C50.5481 171.464 48.4841 173.312 45.3401 173.312C41.2601 173.312 39.0041 170.384 39.0041 166.568C39.0041 162.464 41.7401 159.872 45.2681 159.872C49.2281 159.872 51.5561 163.16 51.2921 167.264ZM45.2681 161.744C43.3481 161.744 41.5721 162.8 41.3801 165.392H48.9881C48.9161 163.568 47.5961 161.744 45.2681 161.744ZM21.344 192.04C21.344 188.704 24.824 187.288 27.632 187.288C30.776 187.288 33.536 188.704 34.232 192.04H31.856C31.28 190.048 29.264 189.352 27.536 189.352C26.192 189.352 23.84 189.952 23.84 191.896C23.84 193.432 25.04 194.2 26.672 194.56L28.688 195.016C31.352 195.592 34.544 196.6 34.544 200.104C34.544 203.488 31.376 205.312 27.92 205.312C23.816 205.312 21.224 203.056 20.768 199.6H23.168C23.624 202 25.28 203.248 27.968 203.248C30.56 203.248 32.024 202.048 32.024 200.32C32.024 198.472 30.44 197.752 28.28 197.248L26.12 196.792C23.72 196.264 21.344 194.92 21.344 192.04ZM39.287 187.6V194.032C40.031 192.808 41.279 191.872 43.463 191.872C46.583 191.872 47.711 193.888 47.711 196.84V205H45.527V197.488C45.527 195.496 45.191 193.768 42.695 193.768C40.583 193.768 39.287 195.208 39.287 197.992V205H37.103V187.6H39.287ZM62.378 199.264H52.442C52.514 202.048 54.53 203.392 56.426 203.392C58.346 203.392 59.402 202.528 59.954 201.256H62.21C61.634 203.464 59.57 205.312 56.426 205.312C52.346 205.312 50.09 202.384 50.09 198.568C50.09 194.464 52.826 191.872 56.354 191.872C60.314 191.872 62.642 195.16 62.378 199.264ZM56.354 193.744C54.434 193.744 52.658 194.8 52.466 197.392H60.074C60.002 195.568 58.682 193.744 56.354 193.744ZM24.512 219.6V237H22.064V219.6H24.512ZM28.9379 224.088V220.848H31.1219V224.088H33.5699V225.84H31.1219V233.496C31.1219 234.84 31.2179 235.176 32.4659 235.176H33.5699V237H31.9859C29.5139 237 28.9379 236.448 28.9379 233.76V225.84H26.8979V224.088H28.9379Z" fill="#1E1E1E"/>
<path d="M97.944 137.64L100.512 128.088H102.768L105.336 137.64L107.808 128.088H110.16L106.44 141H104.448L101.592 130.608L98.832 141H96.84L93.12 128.088H95.472L97.944 137.64ZM112.001 128.088H114.185V141H112.001V128.088ZM112.001 123.6H114.185V126.24H112.001V123.6ZM119.834 123.6V141H117.65V123.6H119.834ZM125.482 123.6V141H123.298V123.6H125.482ZM136.73 134.592C136.73 138 138.554 139.44 140.498 139.44C142.73 139.44 144.194 137.688 144.194 134.592C144.194 131.496 142.73 129.744 140.498 129.744C138.554 129.744 136.73 131.184 136.73 134.592ZM134.642 123.6H136.826V130.128C137.618 128.76 138.962 127.872 141.05 127.872C144.026 127.872 146.57 130.368 146.57 134.592C146.57 138.888 144.026 141.312 141.05 141.312C138.962 141.312 137.618 140.424 136.826 139.056V141H134.642V123.6ZM160.644 135.264H150.708C150.78 138.048 152.796 139.392 154.692 139.392C156.612 139.392 157.668 138.528 158.22 137.256H160.476C159.9 139.464 157.836 141.312 154.692 141.312C150.612 141.312 148.356 138.384 148.356 134.568C148.356 130.464 151.092 127.872 154.62 127.872C158.58 127.872 160.908 131.16 160.644 135.264ZM154.62 129.744C152.7 129.744 150.924 130.8 150.732 133.392H158.34C158.268 131.568 156.948 129.744 154.62 129.744Z" fill="#1E1E1E"/>
</svg>
