<svg width="272" height="69" viewBox="0 0 272 69" fill="none" xmlns="http://www.w3.org/2000/svg">
	<rect x="0.5" y="32.5" width="72" height="36" rx="18" stroke="#1E1E1E"/>
	<rect x="78.5" y="32.5" width="67" height="36" rx="18" fill="#1E1E1E" stroke="#1E1E1E"/>
	<rect x="151.5" y="32.5" width="108" height="36" rx="18" stroke="#1E1E1E"/>
	<path
		d="M15 40.875H17.8L22.75 49.725L27.8 40.875H30.6L23.95 51.975V59H21.4V51.925L15 40.875ZM31.7045 52.325C31.7045 55.925 33.6545 57.325 35.7295 57.325C37.8045 57.325 39.7545 55.775 39.7545 52.325C39.7545 48.725 37.8045 47.325 35.7295 47.325C33.6545 47.325 31.7045 48.65 31.7045 52.325ZM35.7295 45.325C38.8545 45.325 42.1795 47.45 42.1795 52.325C42.1795 57.2 38.8545 59.325 35.7295 59.325C32.6045 59.325 29.2795 57.2 29.2795 52.325C29.2795 47.45 32.6045 45.325 35.7295 45.325ZM53.2256 59V57.075C52.4506 58.35 51.2256 59.325 49.0006 59.325C45.9006 59.325 44.7006 57.225 44.7006 54.15V45.55H46.9756V53.475C46.9756 55.55 47.3006 57.35 49.8006 57.35C51.9756 57.35 53.2256 55.85 53.2256 52.95V45.55H55.5006V59H53.2256Z"
		fill="black"/>
	<path
		d="M103.275 53.375V52.525C99.15 52.925 96.525 53.55 96.525 55.4C96.525 56.675 97.5 57.525 99.125 57.525C101.25 57.525 103.275 56.55 103.275 53.375ZM98.625 59.325C96.1 59.325 94 57.925 94 55.45C94 52.275 97.6 51.325 103.1 50.725V50.4C103.1 47.925 101.75 47.125 100.05 47.125C98.15 47.125 97.075 48.125 96.975 49.8H94.625C94.825 46.9 97.425 45.275 100.025 45.275C103.75 45.275 105.4 47.025 105.375 50.825L105.35 53.925C105.325 56.2 105.425 57.725 105.7 59H103.4C103.325 58.5 103.25 57.95 103.225 57.15C102.4 58.55 101.025 59.325 98.625 59.325ZM115.465 45.5V47.925C114.99 47.85 114.565 47.825 114.19 47.825C112.09 47.825 111.04 48.975 111.04 51.95V59H108.765V45.55H110.99V47.9C111.665 46.375 113.015 45.55 114.79 45.475C115.015 45.475 115.19 45.475 115.465 45.5ZM129.282 53.025H118.932C119.007 55.925 121.107 57.325 123.082 57.325C125.082 57.325 126.182 56.425 126.757 55.1H129.107C128.507 57.4 126.357 59.325 123.082 59.325C118.832 59.325 116.482 56.275 116.482 52.3C116.482 48.025 119.332 45.325 123.007 45.325C127.132 45.325 129.557 48.75 129.282 53.025ZM123.007 47.275C121.007 47.275 119.157 48.375 118.957 51.075H126.882C126.807 49.175 125.432 47.275 123.007 47.275Z"
		fill="white"/>
	<path
		d="M170.075 40.875V47.575C170.85 46.3 172.15 45.325 174.425 45.325C177.675 45.325 178.85 47.425 178.85 50.5V59H176.575V51.175C176.575 49.1 176.225 47.3 173.625 47.3C171.425 47.3 170.075 48.8 170.075 51.7V59H167.8V40.875H170.075ZM190.578 59V57.075C189.803 58.35 188.578 59.325 186.353 59.325C183.253 59.325 182.053 57.225 182.053 54.15V45.55H184.328V53.475C184.328 55.55 184.653 57.35 187.153 57.35C189.328 57.35 190.578 55.85 190.578 52.95V45.55H192.853V59H190.578ZM198.737 45.55V47.575C199.512 46.3 200.812 45.325 203.087 45.325C206.337 45.325 207.512 47.425 207.512 50.5V59H205.237V51.175C205.237 49.1 204.887 47.3 202.287 47.3C200.087 47.3 198.737 48.8 198.737 51.7V59H196.462V45.55H198.737ZM219.965 47.675V45.55H222.24V57.2C222.24 59.925 221.74 61.075 220.965 61.925C219.99 63.05 218.315 63.7 216.315 63.7C213.24 63.7 211.215 62.3 210.79 59.575H213.215C213.49 60.775 214.265 61.7 216.34 61.7C217.565 61.7 218.465 61.375 219.09 60.7C219.565 60.15 219.965 59.575 219.965 57.725V56.45C219.14 57.875 217.865 58.775 215.69 58.775C212.715 58.775 209.99 56.375 209.99 52.05C209.99 47.75 212.715 45.325 215.69 45.325C217.865 45.325 219.14 46.25 219.965 47.675ZM220.065 52.05C220.065 48.65 218.265 47.275 216.265 47.275C214.04 47.275 212.465 48.975 212.465 52.05C212.465 55.15 214.04 56.85 216.265 56.85C218.265 56.85 220.065 55.475 220.065 52.05ZM232.532 45.5V47.925C232.057 47.85 231.632 47.825 231.257 47.825C229.157 47.825 228.107 48.975 228.107 51.95V59H225.832V45.55H228.057V47.9C228.732 46.375 230.082 45.55 231.857 45.475C232.082 45.475 232.257 45.475 232.532 45.5ZM242.194 45.55H244.569L239.769 59.575C238.769 62.475 238.119 63.375 235.094 63.375H233.919V61.475H234.844C236.344 61.475 237.069 61.375 237.669 59.275L237.769 59L232.919 45.55H235.444L238.869 55.925L242.194 45.55Z"
		fill="black"/>
	<path d="M269.5 59H266.625V56.125H269.5V59Z" fill="black"/>
	<path
		d="M1.344 16V5.85H4.998C6.888 5.85 8.568 6.34 8.568 8.356C8.568 9.322 8.162 10.19 7.448 10.596C8.414 11.002 8.988 11.758 8.988 13.004C8.988 15.16 7.378 16 5.348 16H1.344ZM2.772 11.324V14.796H5.362C6.818 14.796 7.518 14.18 7.518 13.018C7.518 11.828 6.804 11.324 5.278 11.324H2.772ZM2.772 7.054V10.19H5.222C6.398 10.19 7.126 9.742 7.126 8.552C7.126 7.502 6.356 7.054 5.222 7.054H2.772ZM13.3643 16H10.6483V8.468H11.9223V11.128H13.3783C15.3383 11.128 16.1923 11.898 16.1923 13.508C16.1923 15.37 15.0863 16 13.3643 16ZM11.9223 12.234V14.894H13.2523C14.3723 14.894 14.9463 14.53 14.9463 13.508C14.9463 12.5 14.3863 12.234 13.2103 12.234H11.9223ZM18.7123 16H17.4383V8.468H18.7123V16ZM23.5671 12.15C23.5671 9.308 24.6451 7.068 25.4991 5.85H26.5491C25.6111 7.348 24.8831 9.504 24.8831 12.15C24.8831 14.796 25.6111 16.938 26.5491 18.45H25.4991C24.6451 17.218 23.5671 14.992 23.5671 12.15ZM34.2088 12.654H28.4128C28.4548 14.278 29.6308 15.062 30.7368 15.062C31.8568 15.062 32.4728 14.558 32.7948 13.816H34.1108C33.7748 15.104 32.5708 16.182 30.7368 16.182C28.3568 16.182 27.0408 14.474 27.0408 12.248C27.0408 9.854 28.6368 8.342 30.6948 8.342C33.0048 8.342 34.3628 10.26 34.2088 12.654ZM30.6948 9.434C29.5748 9.434 28.5388 10.05 28.4268 11.562H32.8648C32.8228 10.498 32.0528 9.434 30.6948 9.434ZM38.8976 8.342C40.7456 8.342 41.8656 9.7 42.0476 10.988H40.7596C40.5776 10.092 39.8076 9.462 38.8136 9.462C37.6936 9.462 36.6436 10.344 36.6436 12.234C36.6436 14.138 37.6936 15.062 38.8136 15.062C39.8916 15.062 40.6336 14.334 40.8156 13.55H42.1316C41.8656 14.964 40.5356 16.182 38.7716 16.182C36.6016 16.182 35.2576 14.544 35.2576 12.248C35.2576 10.008 36.6716 8.342 38.8976 8.342ZM48.9505 9.574H46.3745V16H45.1005V9.574H42.5245V8.468H48.9505V9.574ZM51.5161 11.128H53.3081C55.2821 11.128 56.1221 11.898 56.1221 13.508C56.1221 15.37 55.0301 16 53.2941 16H50.2421V8.468H51.5161V11.128ZM51.5161 14.894H53.1821C54.3021 14.894 54.8761 14.516 54.8761 13.508C54.8761 12.514 54.2881 12.234 53.1541 12.234H51.5161V14.894ZM59.4605 12.15C59.4605 14.992 58.3825 17.218 57.5285 18.45H56.4785C57.4165 16.938 58.1445 14.796 58.1445 12.15C58.1445 9.518 57.4025 7.334 56.4785 5.85H57.5285C58.3825 7.068 59.4605 9.308 59.4605 12.15ZM69.1124 9.574H65.5844V16H64.3104V8.468H69.1124V9.574ZM70.878 12.262C70.878 14.278 71.97 15.062 73.132 15.062C74.294 15.062 75.386 14.194 75.386 12.262C75.386 10.246 74.294 9.462 73.132 9.462C71.97 9.462 70.878 10.204 70.878 12.262ZM73.132 8.342C74.882 8.342 76.744 9.532 76.744 12.262C76.744 14.992 74.882 16.182 73.132 16.182C71.382 16.182 69.52 14.992 69.52 12.262C69.52 9.532 71.382 8.342 73.132 8.342ZM84.1784 8.468V16H82.9044V9.574H80.3704L80.2584 11.394C80.0764 14.432 79.4184 16 77.6684 16H77.4304V14.894H77.5704C78.2424 14.894 78.8864 14.166 79.0404 11.044L79.1524 8.468H84.1784ZM87.1338 12.262C87.1338 14.278 88.2258 15.062 89.3878 15.062C90.5498 15.062 91.6418 14.194 91.6418 12.262C91.6418 10.246 90.5498 9.462 89.3878 9.462C88.2258 9.462 87.1338 10.204 87.1338 12.262ZM89.3878 8.342C91.1378 8.342 92.9998 9.532 92.9998 12.262C92.9998 14.992 91.1378 16.182 89.3878 16.182C87.6378 16.182 85.7758 14.992 85.7758 12.262C85.7758 9.532 87.6378 8.342 89.3878 8.342ZM101.499 14.894V17.666H100.267V16H94.7509V17.666H93.5189V14.894H93.8549C94.7089 14.894 95.1569 13.774 95.2689 10.89L95.3669 8.468H100.449V14.894H101.499ZM99.1749 14.894V9.574H96.5989L96.5289 11.016C96.4169 13.242 96.0949 14.334 95.5069 14.894H99.1749ZM109.055 16H107.781V12.71H104.057V16H102.783V8.468H104.057V11.604H107.781V8.468H109.055V16ZM113.921 16H111.205V8.468H112.479V11.128H113.935C115.895 11.128 116.749 11.898 116.749 13.508C116.749 15.37 115.643 16 113.921 16ZM112.479 12.234V14.894H113.809C114.929 14.894 115.503 14.53 115.503 13.508C115.503 12.5 114.943 12.234 113.767 12.234H112.479ZM119.269 16H117.995V8.468H119.269V16ZM125.94 5.85H126.934C126.822 6.69 126.29 7.544 124.694 7.544C123.154 7.544 122.566 6.69 122.496 5.85H123.49C123.546 6.298 123.882 6.704 124.708 6.704C125.534 6.704 125.884 6.298 125.94 5.85ZM126.598 16V10.316L122.706 16H121.432V8.468H122.706V14.152L126.598 8.468H127.872V16H126.598ZM131.473 16H129.863V14.39H131.473V16Z"
		fill="#8E8E8E"/>
</svg>
