<svg width="301" height="376" viewBox="0 0 301 376" fill="none" xmlns="http://www.w3.org/2000/svg">
<rect x="1" y="1" width="299" height="374" rx="9" fill="white"/>
<rect x="1" y="1" width="299" height="374" rx="9" stroke="#E3E3E3" stroke-width="2"/>
<path d="M23.794 33H22.52V25.062H20.168V24.194C21.61 24.152 22.38 23.942 22.926 22.85H23.794V33ZM35.5046 25.468V33H34.2306V26.574H31.6966L31.5846 28.394C31.4026 31.432 30.7446 33 28.9946 33H28.7566V31.894H28.8966C29.5686 31.894 30.2126 31.166 30.3666 28.044L30.4786 25.468H35.5046ZM42.828 33V27.316L38.936 33H37.662V25.468H38.936V31.152L42.828 25.468H44.102V33H42.828ZM52.2536 31.894H53.3036V34.806H52.0996V33H46.2616V25.468H47.5356V31.894H50.9796V25.468H52.2536V31.894ZM55.3858 29.262C55.3858 31.278 56.4778 32.062 57.6398 32.062C58.8018 32.062 59.8938 31.194 59.8938 29.262C59.8938 27.246 58.8018 26.462 57.6398 26.462C56.4778 26.462 55.3858 27.204 55.3858 29.262ZM57.6398 25.342C59.3898 25.342 61.2518 26.532 61.2518 29.262C61.2518 31.992 59.3898 33.182 57.6398 33.182C55.8898 33.182 54.0278 31.992 54.0278 29.262C54.0278 26.532 55.8898 25.342 57.6398 25.342Z" fill="#5A5A5A"/>
<path d="M101.232 33V24.936L95.772 33H94.344V22.85H95.772V30.9L101.232 22.85H102.66V33H101.232ZM111.356 33H110.082V29.71H106.358V33H105.084V25.468H106.358V28.604H110.082V25.468H111.356V33ZM118.07 22.85V25.482C120.268 25.482 121.948 26.7 121.948 29.262C121.948 31.908 120.24 33.07 118.07 33.07V35.45H116.796V33.07C114.612 33.07 112.918 31.908 112.918 29.262C112.918 26.7 114.612 25.482 116.796 25.482V22.85H118.07ZM116.796 31.978V26.574C115.34 26.574 114.276 27.456 114.276 29.304C114.276 31.138 115.298 31.978 116.796 31.978ZM118.07 26.574V31.978C119.526 31.978 120.59 31.138 120.59 29.304C120.59 27.456 119.568 26.574 118.07 26.574ZM128.68 33V27.316L124.788 33H123.514V25.468H124.788V31.152L128.68 25.468H129.954V33H128.68ZM138.385 33H137.111V29.71H133.387V33H132.113V25.468H133.387V28.604H137.111V25.468H138.385V33ZM145.701 33V27.316L141.809 33H140.535V25.468H141.809V31.152L145.701 25.468H146.975V33H145.701ZM154.693 26.574H152.117V33H150.843V26.574H148.267V25.468H154.693V26.574ZM161.15 33V27.316L157.258 33H155.984V25.468H157.258V31.152L161.15 25.468H162.424V33H161.15ZM164.584 25.468H167.86C169.372 25.468 170.604 25.86 170.604 27.386C170.604 28.184 170.254 28.744 169.554 29.038C170.338 29.262 170.912 29.794 170.912 30.802C170.912 32.37 169.694 33 168.084 33H164.584V25.468ZM165.858 28.632H167.776C168.714 28.632 169.274 28.38 169.274 27.526C169.274 26.742 168.686 26.574 167.734 26.574H165.858V28.632ZM165.858 29.682V31.894H167.888C169.008 31.894 169.582 31.572 169.582 30.788C169.582 29.948 169.022 29.682 167.846 29.682H165.858Z" fill="#5A5A5A"/>
<path d="M201.268 33H199.84V24.082H194.772V33H193.344V22.85H201.268V33ZM203.687 25.468H204.961V26.658C205.423 25.86 206.207 25.342 207.425 25.342C209.161 25.342 210.645 26.798 210.645 29.262C210.645 31.768 209.161 33.182 207.425 33.182C206.207 33.182 205.423 32.664 204.961 31.866V35.45H203.687V25.468ZM204.905 29.262C204.905 31.25 205.969 32.09 207.103 32.09C208.405 32.09 209.259 31.068 209.259 29.262C209.259 27.456 208.405 26.434 207.103 26.434C205.969 26.434 204.905 27.274 204.905 29.262ZM213.126 29.262C213.126 31.278 214.218 32.062 215.38 32.062C216.542 32.062 217.634 31.194 217.634 29.262C217.634 27.246 216.542 26.462 215.38 26.462C214.218 26.462 213.126 27.204 213.126 29.262ZM215.38 25.342C217.13 25.342 218.992 26.532 218.992 29.262C218.992 31.992 217.13 33.182 215.38 33.182C213.63 33.182 211.768 31.992 211.768 29.262C211.768 26.532 213.63 25.342 215.38 25.342ZM229.868 25.468V33H220.586V25.468H221.86V31.894H224.59V25.468H225.864V31.894H228.594V25.468H229.868ZM233.471 33H231.861V31.39H233.471V33ZM238.783 25.468H242.059C243.571 25.468 244.803 25.86 244.803 27.386C244.803 28.184 244.453 28.744 243.753 29.038C244.537 29.262 245.111 29.794 245.111 30.802C245.111 32.37 243.893 33 242.283 33H238.783V25.468ZM240.057 28.632H241.975C242.913 28.632 243.473 28.38 243.473 27.526C243.473 26.742 242.885 26.574 241.933 26.574H240.057V28.632ZM240.057 29.682V31.894H242.087C243.207 31.894 243.781 31.572 243.781 30.788C243.781 29.948 243.221 29.682 242.045 29.682H240.057ZM246.603 25.468H247.877V26.658C248.339 25.86 249.123 25.342 250.341 25.342C252.077 25.342 253.561 26.798 253.561 29.262C253.561 31.768 252.077 33.182 250.341 33.182C249.123 33.182 248.339 32.664 247.877 31.866V35.45H246.603V25.468ZM247.821 29.262C247.821 31.25 248.885 32.09 250.019 32.09C251.321 32.09 252.175 31.068 252.175 29.262C252.175 27.456 251.321 26.434 250.019 26.434C248.885 26.434 247.821 27.274 247.821 29.262ZM261.824 29.654H256.028C256.07 31.278 257.246 32.062 258.352 32.062C259.472 32.062 260.088 31.558 260.41 30.816H261.726C261.39 32.104 260.186 33.182 258.352 33.182C255.972 33.182 254.656 31.474 254.656 29.248C254.656 26.854 256.252 25.342 258.31 25.342C260.62 25.342 261.978 27.26 261.824 29.654ZM258.31 26.434C257.19 26.434 256.154 27.05 256.042 28.562H260.48C260.438 27.498 259.668 26.434 258.31 26.434ZM271.624 25.468V33H270.378V26.952L267.956 33H267.046L264.638 27.036V33H263.392V25.468H265.212L267.55 31.264L269.804 25.468H271.624ZM279.355 25.468V33H278.081V30.326H276.751C276.681 30.326 276.611 30.326 276.541 30.312L274.497 33H272.915L275.197 29.962C274.245 29.64 273.601 28.912 273.601 27.792C273.601 26.238 274.665 25.468 276.401 25.468H279.355ZM278.081 26.574H276.471C275.533 26.574 274.903 26.966 274.903 27.876C274.903 28.898 275.701 29.22 276.583 29.22H278.081V26.574Z" fill="#5A5A5A"/>
<path d="M24.228 98.668C26.104 98.668 27.448 99.606 27.448 101.328C27.448 103.68 24.998 105.752 22.156 107.81H27.728V109H20.42V107.852C24.004 105.206 26.104 103.302 26.104 101.496C26.104 100.432 25.418 99.732 24.2 99.732C23.108 99.732 22.058 100.334 22.016 102.014H20.7C20.658 99.998 22.058 98.668 24.228 98.668ZM38.6081 101.468V109H37.3341V102.574H34.8001L34.6881 104.394C34.5061 107.432 33.8481 109 32.0981 109H31.8601V107.894H32.0001C32.6721 107.894 33.3161 107.166 33.4701 104.044L33.5821 101.468H38.6081ZM45.9315 109V103.316L42.0395 109H40.7655V101.468H42.0395V107.152L45.9315 101.468H47.2055V109H45.9315ZM55.3571 107.894H56.4071V110.806H55.2031V109H49.3651V101.468H50.6391V107.894H54.0831V101.468H55.3571V107.894ZM58.4893 105.262C58.4893 107.278 59.5813 108.062 60.7433 108.062C61.9053 108.062 62.9973 107.194 62.9973 105.262C62.9973 103.246 61.9053 102.462 60.7433 102.462C59.5813 102.462 58.4893 103.204 58.4893 105.262ZM60.7433 101.342C62.4933 101.342 64.3553 102.532 64.3553 105.262C64.3553 107.992 62.4933 109.182 60.7433 109.182C58.9933 109.182 57.1313 107.992 57.1313 105.262C57.1313 102.532 58.9933 101.342 60.7433 101.342Z" fill="#5A5A5A"/>
<path d="M23.948 248.118C25.292 248.118 26.244 247.432 26.244 246.158C26.244 244.702 24.942 244.226 23.318 244.226H23.108V243.064H23.276C25.054 243.064 25.978 242.574 25.978 241.384C25.978 240.306 25.082 239.732 24.004 239.732C22.646 239.732 21.904 240.544 21.792 241.706H20.476C20.63 239.914 21.904 238.668 24.032 238.668C25.782 238.668 27.322 239.382 27.322 241.244C27.322 242.294 26.734 243.162 25.67 243.596C27.182 244.086 27.602 245.066 27.602 246.144C27.602 248.188 25.88 249.182 23.934 249.182C21.526 249.182 20.476 247.698 20.322 246.004H21.638C21.792 247.25 22.506 248.118 23.948 248.118ZM38.5671 241.468V249H37.2931V242.574H34.7591L34.6471 244.394C34.4651 247.432 33.8071 249 32.0571 249H31.8191V247.894H31.9591C32.6311 247.894 33.2751 247.166 33.4291 244.044L33.5411 241.468H38.5671ZM45.8905 249V243.316L41.9985 249H40.7245V241.468H41.9985V247.152L45.8905 241.468H47.1645V249H45.8905ZM55.3161 247.894H56.3661V250.806H55.1621V249H49.3241V241.468H50.5981V247.894H54.0421V241.468H55.3161V247.894ZM58.4483 245.262C58.4483 247.278 59.5403 248.062 60.7023 248.062C61.8643 248.062 62.9563 247.194 62.9563 245.262C62.9563 243.246 61.8643 242.462 60.7023 242.462C59.5403 242.462 58.4483 243.204 58.4483 245.262ZM60.7023 241.342C62.4523 241.342 64.3143 242.532 64.3143 245.262C64.3143 247.992 62.4523 249.182 60.7023 249.182C58.9523 249.182 57.0903 247.992 57.0903 245.262C57.0903 242.532 58.9523 241.342 60.7023 241.342Z" fill="#5A5A5A"/>
<path d="M24.512 51.6V69H22.064V51.6H24.512Z" fill="#1E1E1E"/>
<path d="M20 127.6H22.688L27.44 136.096L32.288 127.6H34.976L28.592 138.256V145H26.144V138.208L20 127.6ZM36.0363 138.592C36.0363 142.048 37.9083 143.392 39.9003 143.392C41.8923 143.392 43.7643 141.904 43.7643 138.592C43.7643 135.136 41.8923 133.792 39.9003 133.792C37.9083 133.792 36.0363 135.064 36.0363 138.592ZM39.9003 131.872C42.9003 131.872 46.0923 133.912 46.0923 138.592C46.0923 143.272 42.9003 145.312 39.9003 145.312C36.9003 145.312 33.7083 143.272 33.7083 138.592C33.7083 133.912 36.9003 131.872 39.9003 131.872ZM56.6966 145V143.152C55.9526 144.376 54.7766 145.312 52.6406 145.312C49.6646 145.312 48.5126 143.296 48.5126 140.344V132.088H50.6966V139.696C50.6966 141.688 51.0086 143.416 53.4086 143.416C55.4966 143.416 56.6966 141.976 56.6966 139.192V132.088H58.8806V145H56.6966ZM32.528 159.6L35.96 174.216L39.176 159.6H41.744L37.4 177H34.424L31.064 162.696L27.776 177H24.8L20.384 159.6H23.072L26.432 174.216L29.648 159.6H32.528ZM54.5264 171.264H44.5904C44.6624 174.048 46.6784 175.392 48.5744 175.392C50.4944 175.392 51.5504 174.528 52.1024 173.256H54.3584C53.7824 175.464 51.7184 177.312 48.5744 177.312C44.4944 177.312 42.2384 174.384 42.2384 170.568C42.2384 166.464 44.9744 163.872 48.5024 163.872C52.4624 163.872 54.7904 167.16 54.5264 171.264ZM48.5024 165.744C46.5824 165.744 44.8064 166.8 44.6144 169.392H52.2224C52.1504 167.568 50.8304 165.744 48.5024 165.744ZM25.664 209V193.712H20V191.6H33.776V193.712H28.112V209H25.664ZM37.2245 191.6V198.032C37.9685 196.808 39.2165 195.872 41.4005 195.872C44.5205 195.872 45.6485 197.888 45.6485 200.84V209H43.4645V201.488C43.4645 199.496 43.1285 197.768 40.6325 197.768C38.5205 197.768 37.2245 199.208 37.2245 201.992V209H35.0405V191.6H37.2245ZM60.3155 203.264H50.3795C50.4515 206.048 52.4675 207.392 54.3635 207.392C56.2835 207.392 57.3395 206.528 57.8915 205.256H60.1475C59.5715 207.464 57.5075 209.312 54.3635 209.312C50.2835 209.312 48.0275 206.384 48.0275 202.568C48.0275 198.464 50.7635 195.872 54.2915 195.872C58.2515 195.872 60.5795 199.16 60.3155 203.264ZM54.2915 197.744C52.3715 197.744 50.5955 198.8 50.4035 201.392H58.0115C57.9395 199.568 56.6195 197.744 54.2915 197.744ZM69.9196 196.088H72.1996L67.5916 209.552C66.6316 212.336 66.0076 213.2 63.1036 213.2H61.9756V211.376H62.8636C64.3036 211.376 64.9996 211.28 65.5756 209.264L65.6716 209L61.0156 196.088H63.4396L66.7276 206.048L69.9196 196.088Z" fill="#1E1E1E"/>
<path d="M96.816 170.592C96.816 174 98.64 175.44 100.584 175.44C102.816 175.44 104.28 173.688 104.28 170.592C104.28 167.496 102.816 165.744 100.584 165.744C98.64 165.744 96.816 167.184 96.816 170.592ZM94.728 159.6H96.912V166.128C97.704 164.76 99.048 163.872 101.136 163.872C104.112 163.872 106.656 166.368 106.656 170.592C106.656 174.888 104.112 177.312 101.136 177.312C99.048 177.312 97.704 176.424 96.912 175.056V177H94.728V159.6ZM120.73 171.264H110.794C110.866 174.048 112.882 175.392 114.778 175.392C116.698 175.392 117.754 174.528 118.306 173.256H120.562C119.986 175.464 117.922 177.312 114.778 177.312C110.698 177.312 108.442 174.384 108.442 170.568C108.442 166.464 111.178 163.872 114.706 163.872C118.666 163.872 120.994 167.16 120.73 171.264ZM114.706 165.744C112.786 165.744 111.01 166.8 110.818 169.392H118.426C118.354 167.568 117.034 165.744 114.706 165.744Z" fill="#1E1E1E"/>
<path d="M196.944 173.64L199.512 164.088H201.768L204.336 173.64L206.808 164.088H209.16L205.44 177H203.448L200.592 166.608L197.832 177H195.84L192.12 164.088H194.472L196.944 173.64ZM222.284 171.264H212.348C212.42 174.048 214.436 175.392 216.332 175.392C218.252 175.392 219.308 174.528 219.86 173.256H222.116C221.54 175.464 219.476 177.312 216.332 177.312C212.252 177.312 209.996 174.384 209.996 170.568C209.996 166.464 212.732 163.872 216.26 163.872C220.22 163.872 222.548 167.16 222.284 171.264ZM216.26 165.744C214.34 165.744 212.564 166.8 212.372 169.392H219.98C219.908 167.568 218.588 165.744 216.26 165.744ZM231.262 164.04V166.368C230.806 166.296 230.398 166.272 230.038 166.272C228.022 166.272 227.014 167.376 227.014 170.232V177H224.83V164.088H226.966V166.344C227.614 164.88 228.91 164.088 230.614 164.016C230.83 164.016 230.998 164.016 231.262 164.04ZM244.526 171.264H234.59C234.662 174.048 236.678 175.392 238.574 175.392C240.494 175.392 241.55 174.528 242.102 173.256H244.358C243.782 175.464 241.718 177.312 238.574 177.312C234.494 177.312 232.238 174.384 232.238 170.568C232.238 166.464 234.974 163.872 238.502 163.872C242.462 163.872 244.79 167.16 244.526 171.264ZM238.502 165.744C236.582 165.744 234.806 166.8 234.614 169.392H242.222C242.15 167.568 240.83 165.744 238.502 165.744Z" fill="#1E1E1E"/>
<path d="M33.656 267.6H36.104V285H33.656V277.104H24.512V285H22.064V267.6H24.512V274.992H33.656V267.6ZM51.2921 279.264H41.3561C41.4281 282.048 43.4441 283.392 45.3401 283.392C47.2601 283.392 48.3161 282.528 48.8681 281.256H51.1241C50.5481 283.464 48.4841 285.312 45.3401 285.312C41.2601 285.312 39.0041 282.384 39.0041 278.568C39.0041 274.464 41.7401 271.872 45.2681 271.872C49.2281 271.872 51.5561 275.16 51.2921 279.264ZM45.2681 273.744C43.3481 273.744 41.5721 274.8 41.3801 277.392H48.9881C48.9161 275.568 47.5961 273.744 45.2681 273.744ZM21.344 304.04C21.344 300.704 24.824 299.288 27.632 299.288C30.776 299.288 33.536 300.704 34.232 304.04H31.856C31.28 302.048 29.264 301.352 27.536 301.352C26.192 301.352 23.84 301.952 23.84 303.896C23.84 305.432 25.04 306.2 26.672 306.56L28.688 307.016C31.352 307.592 34.544 308.6 34.544 312.104C34.544 315.488 31.376 317.312 27.92 317.312C23.816 317.312 21.224 315.056 20.768 311.6H23.168C23.624 314 25.28 315.248 27.968 315.248C30.56 315.248 32.024 314.048 32.024 312.32C32.024 310.472 30.44 309.752 28.28 309.248L26.12 308.792C23.72 308.264 21.344 306.92 21.344 304.04ZM39.287 299.6V306.032C40.031 304.808 41.279 303.872 43.463 303.872C46.583 303.872 47.711 305.888 47.711 308.84V317H45.527V309.488C45.527 307.496 45.191 305.768 42.695 305.768C40.583 305.768 39.287 307.208 39.287 309.992V317H37.103V299.6H39.287ZM62.378 311.264H52.442C52.514 314.048 54.53 315.392 56.426 315.392C58.346 315.392 59.402 314.528 59.954 313.256H62.21C61.634 315.464 59.57 317.312 56.426 317.312C52.346 317.312 50.09 314.384 50.09 310.568C50.09 306.464 52.826 303.872 56.354 303.872C60.314 303.872 62.642 307.16 62.378 311.264ZM56.354 305.744C54.434 305.744 52.658 306.8 52.466 309.392H60.074C60.002 307.568 58.682 305.744 56.354 305.744ZM24.512 331.6V349H22.064V331.6H24.512ZM28.9379 336.088V332.848H31.1219V336.088H33.5699V337.84H31.1219V345.496C31.1219 346.84 31.2179 347.176 32.4659 347.176H33.5699V349H31.9859C29.5139 349 28.9379 348.448 28.9379 345.76V337.84H26.8979V336.088H28.9379Z" fill="#1E1E1E"/>
<path d="M96.816 310.592C96.816 314 98.64 315.44 100.584 315.44C102.816 315.44 104.28 313.688 104.28 310.592C104.28 307.496 102.816 305.744 100.584 305.744C98.64 305.744 96.816 307.184 96.816 310.592ZM94.728 299.6H96.912V306.128C97.704 304.76 99.048 303.872 101.136 303.872C104.112 303.872 106.656 306.368 106.656 310.592C106.656 314.888 104.112 317.312 101.136 317.312C99.048 317.312 97.704 316.424 96.912 315.056V317H94.728V299.6ZM120.73 311.264H110.794C110.866 314.048 112.882 315.392 114.778 315.392C116.698 315.392 117.754 314.528 118.306 313.256H120.562C119.986 315.464 117.922 317.312 114.778 317.312C110.698 317.312 108.442 314.384 108.442 310.568C108.442 306.464 111.178 303.872 114.706 303.872C118.666 303.872 120.994 307.16 120.73 311.264ZM114.706 305.744C112.786 305.744 111.01 306.8 110.818 309.392H118.426C118.354 307.568 117.034 305.744 114.706 305.744Z" fill="#1E1E1E"/>
<path d="M196.944 313.64L199.512 304.088H201.768L204.336 313.64L206.808 304.088H209.16L205.44 317H203.448L200.592 306.608L197.832 317H195.84L192.12 304.088H194.472L196.944 313.64ZM218.903 311.6V310.784C214.943 311.168 212.423 311.768 212.423 313.544C212.423 314.768 213.359 315.584 214.919 315.584C216.959 315.584 218.903 314.648 218.903 311.6ZM214.439 317.312C212.015 317.312 209.999 315.968 209.999 313.592C209.999 310.544 213.455 309.632 218.735 309.056V308.744C218.735 306.368 217.439 305.6 215.807 305.6C213.983 305.6 212.951 306.56 212.855 308.168H210.599C210.791 305.384 213.287 303.824 215.783 303.824C219.359 303.824 220.943 305.504 220.919 309.152L220.895 312.128C220.871 314.312 220.967 315.776 221.231 317H219.023C218.951 316.52 218.879 315.992 218.855 315.224C218.063 316.568 216.743 317.312 214.439 317.312ZM233.845 307.856H231.565C231.205 306.32 230.053 305.72 228.517 305.72C227.245 305.72 225.805 306.176 225.805 307.352C225.805 308.384 226.525 308.84 227.773 309.104L229.597 309.464C231.949 309.896 234.013 310.832 234.013 313.304C234.013 315.872 231.709 317.312 228.757 317.312C225.373 317.312 223.477 315.08 223.213 312.824H225.517C225.877 314.48 226.885 315.464 228.805 315.464C230.461 315.464 231.805 314.768 231.805 313.544C231.805 312.224 230.581 311.72 229.189 311.408L227.269 311.024C225.517 310.64 223.597 309.872 223.597 307.448C223.597 305.168 225.901 303.848 228.757 303.848C231.565 303.848 233.437 305.384 233.845 307.856Z" fill="#1E1E1E"/>
<path d="M96.816 62.592C96.816 66 98.64 67.44 100.584 67.44C102.816 67.44 104.28 65.688 104.28 62.592C104.28 59.496 102.816 57.744 100.584 57.744C98.64 57.744 96.816 59.184 96.816 62.592ZM94.728 51.6H96.912V58.128C97.704 56.76 99.048 55.872 101.136 55.872C104.112 55.872 106.656 58.368 106.656 62.592C106.656 66.888 104.112 69.312 101.136 69.312C99.048 69.312 97.704 68.424 96.912 67.056V69H94.728V51.6ZM120.73 63.264H110.794C110.866 66.048 112.882 67.392 114.778 67.392C116.698 67.392 117.754 66.528 118.306 65.256H120.562C119.986 67.464 117.922 69.312 114.778 69.312C110.698 69.312 108.442 66.384 108.442 62.568C108.442 58.464 111.178 55.872 114.706 55.872C118.666 55.872 120.994 59.16 120.73 63.264ZM114.706 57.744C112.786 57.744 111.01 58.8 110.818 61.392H118.426C118.354 59.568 117.034 57.744 114.706 57.744Z" fill="#1E1E1E"/>
<path d="M196.944 65.64L199.512 56.088H201.768L204.336 65.64L206.808 56.088H209.16L205.44 69H203.448L200.592 58.608L197.832 69H195.84L192.12 56.088H194.472L196.944 65.64ZM218.903 63.6V62.784C214.943 63.168 212.423 63.768 212.423 65.544C212.423 66.768 213.359 67.584 214.919 67.584C216.959 67.584 218.903 66.648 218.903 63.6ZM214.439 69.312C212.015 69.312 209.999 67.968 209.999 65.592C209.999 62.544 213.455 61.632 218.735 61.056V60.744C218.735 58.368 217.439 57.6 215.807 57.6C213.983 57.6 212.951 58.56 212.855 60.168H210.599C210.791 57.384 213.287 55.824 215.783 55.824C219.359 55.824 220.943 57.504 220.919 61.152L220.895 64.128C220.871 66.312 220.967 67.776 221.231 69H219.023C218.951 68.52 218.879 67.992 218.855 67.224C218.063 68.568 216.743 69.312 214.439 69.312ZM233.845 59.856H231.565C231.205 58.32 230.053 57.72 228.517 57.72C227.245 57.72 225.805 58.176 225.805 59.352C225.805 60.384 226.525 60.84 227.773 61.104L229.597 61.464C231.949 61.896 234.013 62.832 234.013 65.304C234.013 67.872 231.709 69.312 228.757 69.312C225.373 69.312 223.477 67.08 223.213 64.824H225.517C225.877 66.48 226.885 67.464 228.805 67.464C230.461 67.464 231.805 66.768 231.805 65.544C231.805 64.224 230.581 63.72 229.189 63.408L227.269 63.024C225.517 62.64 223.597 61.872 223.597 59.448C223.597 57.168 225.901 55.848 228.757 55.848C231.565 55.848 233.437 57.384 233.845 59.856Z" fill="#1E1E1E"/>
</svg>
