<svg width="294" height="412" viewBox="0 0 294 412" fill="none" xmlns="http://www.w3.org/2000/svg">
<rect x="1" y="1" width="292" height="410" rx="9" stroke="#E3E3E3" stroke-width="2"/>
<path d="M23.794 69H22.52V61.062H20.168V60.194C21.61 60.152 22.38 59.942 22.926 58.85H23.794V69ZM35.5046 61.468V69H34.2306V62.574H31.6966L31.5846 64.394C31.4026 67.432 30.7446 69 28.9946 69H28.7566V67.894H28.8966C29.5686 67.894 30.2126 67.166 30.3666 64.044L30.4786 61.468H35.5046ZM42.828 69V63.316L38.936 69H37.662V61.468H38.936V67.152L42.828 61.468H44.102V69H42.828ZM52.2536 67.894H53.3036V70.806H52.0996V69H46.2616V61.468H47.5356V67.894H50.9796V61.468H52.2536V67.894ZM55.3858 65.262C55.3858 67.278 56.4778 68.062 57.6398 68.062C58.8018 68.062 59.8938 67.194 59.8938 65.262C59.8938 63.246 58.8018 62.462 57.6398 62.462C56.4778 62.462 55.3858 63.204 55.3858 65.262ZM57.6398 61.342C59.3898 61.342 61.2518 62.532 61.2518 65.262C61.2518 67.992 59.3898 69.182 57.6398 69.182C55.8898 69.182 54.0278 67.992 54.0278 65.262C54.0278 62.532 55.8898 61.342 57.6398 61.342Z" fill="#5A5A5A"/>
<path d="M24.228 134.668C26.104 134.668 27.448 135.606 27.448 137.328C27.448 139.68 24.998 141.752 22.156 143.81H27.728V145H20.42V143.852C24.004 141.206 26.104 139.302 26.104 137.496C26.104 136.432 25.418 135.732 24.2 135.732C23.108 135.732 22.058 136.334 22.016 138.014H20.7C20.658 135.998 22.058 134.668 24.228 134.668ZM38.6081 137.468V145H37.3341V138.574H34.8001L34.6881 140.394C34.5061 143.432 33.8481 145 32.0981 145H31.8601V143.894H32.0001C32.6721 143.894 33.3161 143.166 33.4701 140.044L33.5821 137.468H38.6081ZM45.9315 145V139.316L42.0395 145H40.7655V137.468H42.0395V143.152L45.9315 137.468H47.2055V145H45.9315ZM55.3571 143.894H56.4071V146.806H55.2031V145H49.3651V137.468H50.6391V143.894H54.0831V137.468H55.3571V143.894ZM58.4893 141.262C58.4893 143.278 59.5813 144.062 60.7433 144.062C61.9053 144.062 62.9973 143.194 62.9973 141.262C62.9973 139.246 61.9053 138.462 60.7433 138.462C59.5813 138.462 58.4893 139.204 58.4893 141.262ZM60.7433 137.342C62.4933 137.342 64.3553 138.532 64.3553 141.262C64.3553 143.992 62.4933 145.182 60.7433 145.182C58.9933 145.182 57.1313 143.992 57.1313 141.262C57.1313 138.532 58.9933 137.342 60.7433 137.342Z" fill="#5A5A5A"/>
<path d="M23.948 284.118C25.292 284.118 26.244 283.432 26.244 282.158C26.244 280.702 24.942 280.226 23.318 280.226H23.108V279.064H23.276C25.054 279.064 25.978 278.574 25.978 277.384C25.978 276.306 25.082 275.732 24.004 275.732C22.646 275.732 21.904 276.544 21.792 277.706H20.476C20.63 275.914 21.904 274.668 24.032 274.668C25.782 274.668 27.322 275.382 27.322 277.244C27.322 278.294 26.734 279.162 25.67 279.596C27.182 280.086 27.602 281.066 27.602 282.144C27.602 284.188 25.88 285.182 23.934 285.182C21.526 285.182 20.476 283.698 20.322 282.004H21.638C21.792 283.25 22.506 284.118 23.948 284.118ZM38.5671 277.468V285H37.2931V278.574H34.7591L34.6471 280.394C34.4651 283.432 33.8071 285 32.0571 285H31.8191V283.894H31.9591C32.6311 283.894 33.2751 283.166 33.4291 280.044L33.5411 277.468H38.5671ZM45.8905 285V279.316L41.9985 285H40.7245V277.468H41.9985V283.152L45.8905 277.468H47.1645V285H45.8905ZM55.3161 283.894H56.3661V286.806H55.1621V285H49.3241V277.468H50.5981V283.894H54.0421V277.468H55.3161V283.894ZM58.4483 281.262C58.4483 283.278 59.5403 284.062 60.7023 284.062C61.8643 284.062 62.9563 283.194 62.9563 281.262C62.9563 279.246 61.8643 278.462 60.7023 278.462C59.5403 278.462 58.4483 279.204 58.4483 281.262ZM60.7023 277.342C62.4523 277.342 64.3143 278.532 64.3143 281.262C64.3143 283.992 62.4523 285.182 60.7023 285.182C58.9523 285.182 57.0903 283.992 57.0903 281.262C57.0903 278.532 58.9523 277.342 60.7023 277.342Z" fill="#5A5A5A"/>
<path d="M24.512 87.6V105H22.064V87.6H24.512Z" fill="#1E1E1E"/>
<path d="M20 163.6H22.688L27.44 172.096L32.288 163.6H34.976L28.592 174.256V181H26.144V174.208L20 163.6ZM36.0363 174.592C36.0363 178.048 37.9083 179.392 39.9003 179.392C41.8923 179.392 43.7643 177.904 43.7643 174.592C43.7643 171.136 41.8923 169.792 39.9003 169.792C37.9083 169.792 36.0363 171.064 36.0363 174.592ZM39.9003 167.872C42.9003 167.872 46.0923 169.912 46.0923 174.592C46.0923 179.272 42.9003 181.312 39.9003 181.312C36.9003 181.312 33.7083 179.272 33.7083 174.592C33.7083 169.912 36.9003 167.872 39.9003 167.872ZM56.6966 181V179.152C55.9526 180.376 54.7766 181.312 52.6406 181.312C49.6646 181.312 48.5126 179.296 48.5126 176.344V168.088H50.6966V175.696C50.6966 177.688 51.0086 179.416 53.4086 179.416C55.4966 179.416 56.6966 177.976 56.6966 175.192V168.088H58.8806V181H56.6966ZM32.528 195.6L35.96 210.216L39.176 195.6H41.744L37.4 213H34.424L31.064 198.696L27.776 213H24.8L20.384 195.6H23.072L26.432 210.216L29.648 195.6H32.528ZM54.5264 207.264H44.5904C44.6624 210.048 46.6784 211.392 48.5744 211.392C50.4944 211.392 51.5504 210.528 52.1024 209.256H54.3584C53.7824 211.464 51.7184 213.312 48.5744 213.312C44.4944 213.312 42.2384 210.384 42.2384 206.568C42.2384 202.464 44.9744 199.872 48.5024 199.872C52.4624 199.872 54.7904 203.16 54.5264 207.264ZM48.5024 201.744C46.5824 201.744 44.8064 202.8 44.6144 205.392H52.2224C52.1504 203.568 50.8304 201.744 48.5024 201.744ZM25.664 245V229.712H20V227.6H33.776V229.712H28.112V245H25.664ZM37.2245 227.6V234.032C37.9685 232.808 39.2165 231.872 41.4005 231.872C44.5205 231.872 45.6485 233.888 45.6485 236.84V245H43.4645V237.488C43.4645 235.496 43.1285 233.768 40.6325 233.768C38.5205 233.768 37.2245 235.208 37.2245 237.992V245H35.0405V227.6H37.2245ZM60.3155 239.264H50.3795C50.4515 242.048 52.4675 243.392 54.3635 243.392C56.2835 243.392 57.3395 242.528 57.8915 241.256H60.1475C59.5715 243.464 57.5075 245.312 54.3635 245.312C50.2835 245.312 48.0275 242.384 48.0275 238.568C48.0275 234.464 50.7635 231.872 54.2915 231.872C58.2515 231.872 60.5795 235.16 60.3155 239.264ZM54.2915 233.744C52.3715 233.744 50.5955 234.8 50.4035 237.392H58.0115C57.9395 235.568 56.6195 233.744 54.2915 233.744ZM69.9196 232.088H72.1996L67.5916 245.552C66.6316 248.336 66.0076 249.2 63.1036 249.2H61.9756V247.376H62.8636C64.3036 247.376 64.9996 247.28 65.5756 245.264L65.6716 245L61.0156 232.088H63.4396L66.7276 242.048L69.9196 232.088Z" fill="#1E1E1E"/>
<path d="M33.656 303.6H36.104V321H33.656V313.104H24.512V321H22.064V303.6H24.512V310.992H33.656V303.6ZM51.2921 315.264H41.3561C41.4281 318.048 43.4441 319.392 45.3401 319.392C47.2601 319.392 48.3161 318.528 48.8681 317.256H51.1241C50.5481 319.464 48.4841 321.312 45.3401 321.312C41.2601 321.312 39.0041 318.384 39.0041 314.568C39.0041 310.464 41.7401 307.872 45.2681 307.872C49.2281 307.872 51.5561 311.16 51.2921 315.264ZM45.2681 309.744C43.3481 309.744 41.5721 310.8 41.3801 313.392H48.9881C48.9161 311.568 47.5961 309.744 45.2681 309.744ZM21.344 340.04C21.344 336.704 24.824 335.288 27.632 335.288C30.776 335.288 33.536 336.704 34.232 340.04H31.856C31.28 338.048 29.264 337.352 27.536 337.352C26.192 337.352 23.84 337.952 23.84 339.896C23.84 341.432 25.04 342.2 26.672 342.56L28.688 343.016C31.352 343.592 34.544 344.6 34.544 348.104C34.544 351.488 31.376 353.312 27.92 353.312C23.816 353.312 21.224 351.056 20.768 347.6H23.168C23.624 350 25.28 351.248 27.968 351.248C30.56 351.248 32.024 350.048 32.024 348.32C32.024 346.472 30.44 345.752 28.28 345.248L26.12 344.792C23.72 344.264 21.344 342.92 21.344 340.04ZM39.287 335.6V342.032C40.031 340.808 41.279 339.872 43.463 339.872C46.583 339.872 47.711 341.888 47.711 344.84V353H45.527V345.488C45.527 343.496 45.191 341.768 42.695 341.768C40.583 341.768 39.287 343.208 39.287 345.992V353H37.103V335.6H39.287ZM62.378 347.264H52.442C52.514 350.048 54.53 351.392 56.426 351.392C58.346 351.392 59.402 350.528 59.954 349.256H62.21C61.634 351.464 59.57 353.312 56.426 353.312C52.346 353.312 50.09 350.384 50.09 346.568C50.09 342.464 52.826 339.872 56.354 339.872C60.314 339.872 62.642 343.16 62.378 347.264ZM56.354 341.744C54.434 341.744 52.658 342.8 52.466 345.392H60.074C60.002 343.568 58.682 341.744 56.354 341.744ZM24.512 367.6V385H22.064V367.6H24.512ZM28.9379 372.088V368.848H31.1219V372.088H33.5699V373.84H31.1219V381.496C31.1219 382.84 31.2179 383.176 32.4659 383.176H33.5699V385H31.9859C29.5139 385 28.9379 384.448 28.9379 381.76V373.84H26.8979V372.088H28.9379Z" fill="#1E1E1E"/>
<path d="M97.944 101.64L100.512 92.088H102.768L105.336 101.64L107.808 92.088H110.16L106.44 105H104.448L101.592 94.608L98.832 105H96.84L93.12 92.088H95.472L97.944 101.64ZM119.903 99.6V98.784C115.943 99.168 113.423 99.768 113.423 101.544C113.423 102.768 114.359 103.584 115.919 103.584C117.959 103.584 119.903 102.648 119.903 99.6ZM115.439 105.312C113.015 105.312 110.999 103.968 110.999 101.592C110.999 98.544 114.455 97.632 119.735 97.056V96.744C119.735 94.368 118.439 93.6 116.807 93.6C114.983 93.6 113.951 94.56 113.855 96.168H111.599C111.791 93.384 114.287 91.824 116.783 91.824C120.359 91.824 121.943 93.504 121.919 97.152L121.895 100.128C121.871 102.312 121.967 103.776 122.231 105H120.023C119.951 104.52 119.879 103.992 119.855 103.224C119.063 104.568 117.743 105.312 115.439 105.312ZM134.845 95.856H132.565C132.205 94.32 131.053 93.72 129.517 93.72C128.245 93.72 126.805 94.176 126.805 95.352C126.805 96.384 127.525 96.84 128.773 97.104L130.597 97.464C132.949 97.896 135.013 98.832 135.013 101.304C135.013 103.872 132.709 105.312 129.757 105.312C126.373 105.312 124.477 103.08 124.213 100.824H126.517C126.877 102.48 127.885 103.464 129.805 103.464C131.461 103.464 132.805 102.768 132.805 101.544C132.805 100.224 131.581 99.72 130.189 99.408L128.269 99.024C126.517 98.64 124.597 97.872 124.597 95.448C124.597 93.168 126.901 91.848 129.757 91.848C132.565 91.848 134.437 93.384 134.845 95.856Z" fill="#1E1E1E"/>
<path d="M97.944 209.64L100.512 200.088H102.768L105.336 209.64L107.808 200.088H110.16L106.44 213H104.448L101.592 202.608L98.832 213H96.84L93.12 200.088H95.472L97.944 209.64ZM123.284 207.264H113.348C113.42 210.048 115.436 211.392 117.332 211.392C119.252 211.392 120.308 210.528 120.86 209.256H123.116C122.54 211.464 120.476 213.312 117.332 213.312C113.252 213.312 110.996 210.384 110.996 206.568C110.996 202.464 113.732 199.872 117.26 199.872C121.22 199.872 123.548 203.16 123.284 207.264ZM117.26 201.744C115.34 201.744 113.564 202.8 113.372 205.392H120.98C120.908 203.568 119.588 201.744 117.26 201.744ZM132.262 200.04V202.368C131.806 202.296 131.398 202.272 131.038 202.272C129.022 202.272 128.014 203.376 128.014 206.232V213H125.83V200.088H127.966V202.344C128.614 200.88 129.91 200.088 131.614 200.016C131.83 200.016 131.998 200.016 132.262 200.04ZM145.526 207.264H135.59C135.662 210.048 137.678 211.392 139.574 211.392C141.494 211.392 142.55 210.528 143.102 209.256H145.358C144.782 211.464 142.718 213.312 139.574 213.312C135.494 213.312 133.238 210.384 133.238 206.568C133.238 202.464 135.974 199.872 139.502 199.872C143.462 199.872 145.79 203.16 145.526 207.264ZM139.502 201.744C137.582 201.744 135.806 202.8 135.614 205.392H143.222C143.15 203.568 141.83 201.744 139.502 201.744Z" fill="#1E1E1E"/>
<path d="M97.944 349.64L100.512 340.088H102.768L105.336 349.64L107.808 340.088H110.16L106.44 353H104.448L101.592 342.608L98.832 353H96.84L93.12 340.088H95.472L97.944 349.64ZM119.903 347.6V346.784C115.943 347.168 113.423 347.768 113.423 349.544C113.423 350.768 114.359 351.584 115.919 351.584C117.959 351.584 119.903 350.648 119.903 347.6ZM115.439 353.312C113.015 353.312 110.999 351.968 110.999 349.592C110.999 346.544 114.455 345.632 119.735 345.056V344.744C119.735 342.368 118.439 341.6 116.807 341.6C114.983 341.6 113.951 342.56 113.855 344.168H111.599C111.791 341.384 114.287 339.824 116.783 339.824C120.359 339.824 121.943 341.504 121.919 345.152L121.895 348.128C121.871 350.312 121.967 351.776 122.231 353H120.023C119.951 352.52 119.879 351.992 119.855 351.224C119.063 352.568 117.743 353.312 115.439 353.312ZM134.845 343.856H132.565C132.205 342.32 131.053 341.72 129.517 341.72C128.245 341.72 126.805 342.176 126.805 343.352C126.805 344.384 127.525 344.84 128.773 345.104L130.597 345.464C132.949 345.896 135.013 346.832 135.013 349.304C135.013 351.872 132.709 353.312 129.757 353.312C126.373 353.312 124.477 351.08 124.213 348.824H126.517C126.877 350.48 127.885 351.464 129.805 351.464C131.461 351.464 132.805 350.768 132.805 349.544C132.805 348.224 131.581 347.72 130.189 347.408L128.269 347.024C126.517 346.64 124.597 345.872 124.597 343.448C124.597 341.168 126.901 339.848 129.757 339.848C132.565 339.848 134.437 341.384 134.845 343.856Z" fill="#1E1E1E"/>
<path d="M206.864 99.6V98.784C202.904 99.168 200.384 99.768 200.384 101.544C200.384 102.768 201.32 103.584 202.88 103.584C204.92 103.584 206.864 102.648 206.864 99.6ZM202.4 105.312C199.976 105.312 197.96 103.968 197.96 101.592C197.96 98.544 201.416 97.632 206.696 97.056V96.744C206.696 94.368 205.4 93.6 203.768 93.6C201.944 93.6 200.912 94.56 200.816 96.168H198.56C198.752 93.384 201.248 91.824 203.744 91.824C207.32 91.824 208.904 93.504 208.88 97.152L208.856 100.128C208.832 102.312 208.928 103.776 209.192 105H206.984C206.912 104.52 206.84 103.992 206.816 103.224C206.024 104.568 204.704 105.312 202.4 105.312ZM214.318 97.992V105H212.134V92.088H214.318V94.032C215.062 92.808 216.262 91.872 218.206 91.872C220.198 91.872 221.35 92.712 221.926 94.152C222.958 92.544 224.446 91.872 226.27 91.872C229.27 91.872 230.446 93.888 230.446 96.84V105H228.262V97.488C228.262 95.496 227.878 93.768 225.502 93.768C223.606 93.768 222.382 95.208 222.382 97.992V105H220.198V97.488C220.198 95.496 219.814 93.768 217.438 93.768C215.542 93.768 214.318 95.208 214.318 97.992Z" fill="#1E1E1E"/>
<path d="M206.864 207.6V206.784C202.904 207.168 200.384 207.768 200.384 209.544C200.384 210.768 201.32 211.584 202.88 211.584C204.92 211.584 206.864 210.648 206.864 207.6ZM202.4 213.312C199.976 213.312 197.96 211.968 197.96 209.592C197.96 206.544 201.416 205.632 206.696 205.056V204.744C206.696 202.368 205.4 201.6 203.768 201.6C201.944 201.6 200.912 202.56 200.816 204.168H198.56C198.752 201.384 201.248 199.824 203.744 199.824C207.32 199.824 208.904 201.504 208.88 205.152L208.856 208.128C208.832 210.312 208.928 211.776 209.192 213H206.984C206.912 212.52 206.84 211.992 206.816 211.224C206.024 212.568 204.704 213.312 202.4 213.312ZM218.566 200.04V202.368C218.11 202.296 217.702 202.272 217.342 202.272C215.326 202.272 214.318 203.376 214.318 206.232V213H212.134V200.088H214.27V202.344C214.918 200.88 216.214 200.088 217.918 200.016C218.134 200.016 218.302 200.016 218.566 200.04ZM231.831 207.264H221.895C221.967 210.048 223.983 211.392 225.879 211.392C227.799 211.392 228.855 210.528 229.407 209.256H231.663C231.087 211.464 229.023 213.312 225.879 213.312C221.799 213.312 219.543 210.384 219.543 206.568C219.543 202.464 222.279 199.872 225.807 199.872C229.767 199.872 232.095 203.16 231.831 207.264ZM225.807 201.744C223.887 201.744 222.111 202.8 221.919 205.392H229.527C229.455 203.568 228.135 201.744 225.807 201.744Z" fill="#1E1E1E"/>
<path d="M198.728 340.088H200.912V353H198.728V340.088ZM198.728 335.6H200.912V338.24H198.728V335.6ZM214.048 343.856H211.768C211.408 342.32 210.256 341.72 208.72 341.72C207.448 341.72 206.008 342.176 206.008 343.352C206.008 344.384 206.728 344.84 207.976 345.104L209.8 345.464C212.152 345.896 214.216 346.832 214.216 349.304C214.216 351.872 211.912 353.312 208.96 353.312C205.576 353.312 203.68 351.08 203.416 348.824H205.72C206.08 350.48 207.088 351.464 209.008 351.464C210.664 351.464 212.008 350.768 212.008 349.544C212.008 348.224 210.784 347.72 209.392 347.408L207.472 347.024C205.72 346.64 203.8 345.872 203.8 343.448C203.8 341.168 206.104 339.848 208.96 339.848C211.768 339.848 213.64 341.384 214.048 343.856Z" fill="#1E1E1E"/>
<path d="M102.268 33H100.84V24.082H95.772V33H94.344V22.85H102.268V33ZM104.687 25.468H105.961V26.658C106.423 25.86 107.207 25.342 108.425 25.342C110.161 25.342 111.645 26.798 111.645 29.262C111.645 31.768 110.161 33.182 108.425 33.182C107.207 33.182 106.423 32.664 105.961 31.866V35.45H104.687V25.468ZM105.905 29.262C105.905 31.25 106.969 32.09 108.103 32.09C109.405 32.09 110.259 31.068 110.259 29.262C110.259 27.456 109.405 26.434 108.103 26.434C106.969 26.434 105.905 27.274 105.905 29.262ZM114.126 29.262C114.126 31.278 115.218 32.062 116.38 32.062C117.542 32.062 118.634 31.194 118.634 29.262C118.634 27.246 117.542 26.462 116.38 26.462C115.218 26.462 114.126 27.204 114.126 29.262ZM116.38 25.342C118.13 25.342 119.992 26.532 119.992 29.262C119.992 31.992 118.13 33.182 116.38 33.182C114.63 33.182 112.768 31.992 112.768 29.262C112.768 26.532 114.63 25.342 116.38 25.342ZM130.868 25.468V33H121.586V25.468H122.86V31.894H125.59V25.468H126.864V31.894H129.594V25.468H130.868ZM139.609 29.654H133.813C133.855 31.278 135.031 32.062 136.137 32.062C137.257 32.062 137.873 31.558 138.195 30.816H139.511C139.175 32.104 137.971 33.182 136.137 33.182C133.757 33.182 132.441 31.474 132.441 29.248C132.441 26.854 134.037 25.342 136.095 25.342C138.405 25.342 139.763 27.26 139.609 29.654ZM136.095 26.434C134.975 26.434 133.939 27.05 133.827 28.562H138.265C138.223 27.498 137.453 26.434 136.095 26.434ZM148.083 31.894V34.666H146.851V33H141.335V34.666H140.103V31.894H140.439C141.293 31.894 141.741 30.774 141.853 27.89L141.951 25.468H147.033V31.894H148.083ZM145.759 31.894V26.574H143.183L143.113 28.016C143.001 30.242 142.679 31.334 142.091 31.894H145.759ZM158.649 25.468V33H149.367V25.468H150.641V31.894H153.371V25.468H154.645V31.894H157.375V25.468H158.649ZM167.39 29.654H161.594C161.636 31.278 162.812 32.062 163.918 32.062C165.038 32.062 165.654 31.558 165.976 30.816H167.292C166.956 32.104 165.752 33.182 163.918 33.182C161.538 33.182 160.222 31.474 160.222 29.248C160.222 26.854 161.818 25.342 163.876 25.342C166.186 25.342 167.544 27.26 167.39 29.654ZM163.876 26.434C162.756 26.434 161.72 27.05 161.608 28.562H166.046C166.004 27.498 165.234 26.434 163.876 26.434ZM175.607 29.654H169.811C169.853 31.278 171.029 32.062 172.135 32.062C173.255 32.062 173.871 31.558 174.193 30.816H175.509C175.173 32.104 173.969 33.182 172.135 33.182C169.755 33.182 168.439 31.474 168.439 29.248C168.439 26.854 170.035 25.342 172.093 25.342C174.403 25.342 175.761 27.26 175.607 29.654ZM172.093 26.434C170.973 26.434 169.937 27.05 169.825 28.562H174.263C174.221 27.498 173.451 26.434 172.093 26.434Z" fill="#5A5A5A"/>
<path d="M205.106 22.85H206.534V33H205.106V28.394H199.772V33H198.344V22.85H199.772V27.162H205.106V22.85ZM213.637 29.85V29.374C211.327 29.598 209.857 29.948 209.857 30.984C209.857 31.698 210.403 32.174 211.313 32.174C212.503 32.174 213.637 31.628 213.637 29.85ZM211.033 33.182C209.619 33.182 208.443 32.398 208.443 31.012C208.443 29.234 210.459 28.702 213.539 28.366V28.184C213.539 26.798 212.783 26.35 211.831 26.35C210.767 26.35 210.165 26.91 210.109 27.848H208.793C208.905 26.224 210.361 25.314 211.817 25.314C213.903 25.314 214.827 26.294 214.813 28.422L214.799 30.158C214.785 31.432 214.841 32.286 214.995 33H213.707C213.665 32.72 213.623 32.412 213.609 31.964C213.147 32.748 212.377 33.182 211.033 33.182ZM219.833 25.342C221.681 25.342 222.801 26.7 222.983 27.988H221.695C221.513 27.092 220.743 26.462 219.749 26.462C218.629 26.462 217.579 27.344 217.579 29.234C217.579 31.138 218.629 32.062 219.749 32.062C220.827 32.062 221.569 31.334 221.751 30.55H223.067C222.801 31.964 221.471 33.182 219.707 33.182C217.537 33.182 216.193 31.544 216.193 29.248C216.193 27.008 217.607 25.342 219.833 25.342ZM229.886 26.574H227.31V33H226.036V26.574H223.46V25.468H229.886V26.574ZM231.73 29.262C231.73 31.278 232.822 32.062 233.984 32.062C235.146 32.062 236.238 31.194 236.238 29.262C236.238 27.246 235.146 26.462 233.984 26.462C232.822 26.462 231.73 27.204 231.73 29.262ZM233.984 25.342C235.734 25.342 237.596 26.532 237.596 29.262C237.596 31.992 235.734 33.182 233.984 33.182C232.234 33.182 230.372 31.992 230.372 29.262C230.372 26.532 232.234 25.342 233.984 25.342ZM244.761 25.468V33H243.487V30.326H242.157C242.087 30.326 242.017 30.326 241.947 30.312L239.903 33H238.321L240.603 29.962C239.651 29.64 239.007 28.912 239.007 27.792C239.007 26.238 240.071 25.468 241.807 25.468H244.761ZM243.487 26.574H241.877C240.939 26.574 240.309 26.966 240.309 27.876C240.309 28.898 241.107 29.22 241.989 29.22H243.487V26.574ZM257.246 31.894V34.806H256.042V33H246.914V25.468H248.188V31.894H250.918V25.468H252.192V31.894H254.922V25.468H256.196V31.894H257.246ZM265.115 29.654H259.319C259.361 31.278 260.537 32.062 261.643 32.062C262.763 32.062 263.379 31.558 263.701 30.816H265.017C264.681 32.104 263.477 33.182 261.643 33.182C259.263 33.182 257.947 31.474 257.947 29.248C257.947 26.854 259.543 25.342 261.601 25.342C263.911 25.342 265.269 27.26 265.115 29.654ZM261.601 26.434C260.481 26.434 259.445 27.05 259.333 28.562H263.771C263.729 27.498 262.959 26.434 261.601 26.434ZM273.332 29.654H267.536C267.578 31.278 268.754 32.062 269.86 32.062C270.98 32.062 271.596 31.558 271.918 30.816H273.234C272.898 32.104 271.694 33.182 269.86 33.182C267.48 33.182 266.164 31.474 266.164 29.248C266.164 26.854 267.76 25.342 269.818 25.342C272.128 25.342 273.486 27.26 273.332 29.654ZM269.818 26.434C268.698 26.434 267.662 27.05 267.55 28.562H271.988C271.946 27.498 271.176 26.434 269.818 26.434Z" fill="#5A5A5A"/>
</svg>
