<svg width="278" height="112" viewBox="0 0 278 112" fill="none" xmlns="http://www.w3.org/2000/svg">
	<rect x="75.5" y="32.5" width="70" height="36" rx="18" stroke="#1E1E1E"/>
	<rect x="0.5" y="32.5" width="69" height="36" rx="18" fill="#1E1E1E" stroke="#1E1E1E"/>
	<rect x="151.5" y="32.5" width="108" height="36" rx="18" stroke="#1E1E1E"/>
	<path
		d="M99.275 45.55H101.65L96.85 59.575C95.85 62.475 95.2 63.375 92.175 63.375H91V61.475H91.925C93.425 61.475 94.15 61.375 94.75 59.275L94.85 59L90 45.55H92.525L95.95 55.925L99.275 45.55ZM104.751 52.325C104.751 55.925 106.701 57.325 108.776 57.325C110.851 57.325 112.801 55.775 112.801 52.325C112.801 48.725 110.851 47.325 108.776 47.325C106.701 47.325 104.751 48.65 104.751 52.325ZM108.776 45.325C111.901 45.325 115.226 47.45 115.226 52.325C115.226 57.2 111.901 59.325 108.776 59.325C105.651 59.325 102.326 57.2 102.326 52.325C102.326 47.45 105.651 45.325 108.776 45.325ZM126.272 59V57.075C125.497 58.35 124.272 59.325 122.047 59.325C118.947 59.325 117.747 57.225 117.747 54.15V45.55H120.022V53.475C120.022 55.55 120.347 57.35 122.847 57.35C125.022 57.35 126.272 55.85 126.272 52.95V45.55H128.547V59H126.272Z"
		fill="black"/>
	<path
		d="M15 59L21.725 40.875H24.675L31.5 59H28.75L27.325 55.075H19L17.6 59H15ZM23.125 43.45L19.775 52.9H26.525L23.125 43.45ZM40.0039 45.5V47.925C39.5289 47.85 39.1039 47.825 38.7289 47.825C36.6289 47.825 35.5789 48.975 35.5789 51.95V59H33.3039V45.55H35.5289V47.9C36.2039 46.375 37.5539 45.55 39.3289 45.475C39.5539 45.475 39.7289 45.475 40.0039 45.5ZM53.8215 53.025H43.4715C43.5465 55.925 45.6465 57.325 47.6215 57.325C49.6215 57.325 50.7215 56.425 51.2965 55.1H53.6465C53.0465 57.4 50.8965 59.325 47.6215 59.325C43.3715 59.325 41.0215 56.275 41.0215 52.3C41.0215 48.025 43.8715 45.325 47.5465 45.325C51.6715 45.325 54.0965 48.75 53.8215 53.025ZM47.5465 47.275C45.5465 47.275 43.6965 48.375 43.4965 51.075H51.4215C51.3465 49.175 49.9715 47.275 47.5465 47.275Z"
		fill="white"/>
	<path
		d="M170.075 40.875V47.575C170.85 46.3 172.15 45.325 174.425 45.325C177.675 45.325 178.85 47.425 178.85 50.5V59H176.575V51.175C176.575 49.1 176.225 47.3 173.625 47.3C171.425 47.3 170.075 48.8 170.075 51.7V59H167.8V40.875H170.075ZM190.578 59V57.075C189.803 58.35 188.578 59.325 186.353 59.325C183.253 59.325 182.053 57.225 182.053 54.15V45.55H184.328V53.475C184.328 55.55 184.653 57.35 187.153 57.35C189.328 57.35 190.578 55.85 190.578 52.95V45.55H192.853V59H190.578ZM198.737 45.55V47.575C199.512 46.3 200.812 45.325 203.087 45.325C206.337 45.325 207.512 47.425 207.512 50.5V59H205.237V51.175C205.237 49.1 204.887 47.3 202.287 47.3C200.087 47.3 198.737 48.8 198.737 51.7V59H196.462V45.55H198.737ZM219.965 47.675V45.55H222.24V57.2C222.24 59.925 221.74 61.075 220.965 61.925C219.99 63.05 218.315 63.7 216.315 63.7C213.24 63.7 211.215 62.3 210.79 59.575H213.215C213.49 60.775 214.265 61.7 216.34 61.7C217.565 61.7 218.465 61.375 219.09 60.7C219.565 60.15 219.965 59.575 219.965 57.725V56.45C219.14 57.875 217.865 58.775 215.69 58.775C212.715 58.775 209.99 56.375 209.99 52.05C209.99 47.75 212.715 45.325 215.69 45.325C217.865 45.325 219.14 46.25 219.965 47.675ZM220.065 52.05C220.065 48.65 218.265 47.275 216.265 47.275C214.04 47.275 212.465 48.975 212.465 52.05C212.465 55.15 214.04 56.85 216.265 56.85C218.265 56.85 220.065 55.475 220.065 52.05ZM232.532 45.5V47.925C232.057 47.85 231.632 47.825 231.257 47.825C229.157 47.825 228.107 48.975 228.107 51.95V59H225.832V45.55H228.057V47.9C228.732 46.375 230.082 45.55 231.857 45.475C232.082 45.475 232.257 45.475 232.532 45.5ZM242.194 45.55H244.569L239.769 59.575C238.769 62.475 238.119 63.375 235.094 63.375H233.919V61.475H234.844C236.344 61.475 237.069 61.375 237.669 59.275L237.769 59L232.919 45.55H235.444L238.869 55.925L242.194 45.55Z"
		fill="black"/>
	<path
		d="M271.45 40.55C274.275 40.55 277.1 41.925 277.1 44.95C277.1 47.35 275.425 49.025 273.725 50.1C272.175 51.1 271.625 51.55 271.625 52.925V53.7H269.3V52.85C269.3 50.75 270.3 49.85 272.4 48.5C273.7 47.675 274.725 46.675 274.725 45.05C274.725 43.45 273.325 42.45 271.4 42.45C268.625 42.45 267.675 44.4 267.6 45.925H265.325C265.325 42.675 267.925 40.55 271.45 40.55ZM271.95 59H269.075V56.125H271.95V59Z"
		fill="black"/>
	<path
		d="M0.448 12.15C0.448 9.308 1.526 7.068 2.38 5.85H3.43C2.492 7.348 1.764 9.504 1.764 12.15C1.764 14.796 2.492 16.938 3.43 18.45H2.38C1.526 17.218 0.448 14.992 0.448 12.15ZM4.77564 16V5.85H11.6636V7.082H6.20364V10.162H11.3416V11.394H6.20364V14.768H11.6636V16H4.77564ZM16.4894 8.342C18.3374 8.342 19.4574 9.7 19.6394 10.988H18.3514C18.1694 10.092 17.3994 9.462 16.4054 9.462C15.2854 9.462 14.2354 10.344 14.2354 12.234C14.2354 14.138 15.2854 15.062 16.4054 15.062C17.4834 15.062 18.2254 14.334 18.4074 13.55H19.7234C19.4574 14.964 18.1274 16.182 16.3634 16.182C14.1934 16.182 12.8494 14.544 12.8494 12.248C12.8494 10.008 14.2634 8.342 16.4894 8.342ZM26.5423 9.574H23.9663V16H22.6923V9.574H20.1163V8.468H26.5423V9.574ZM29.1079 11.128H30.8999C32.8739 11.128 33.7139 11.898 33.7139 13.508C33.7139 15.37 32.6219 16 30.8859 16H27.8339V8.468H29.1079V11.128ZM29.1079 14.894H30.7739C31.8939 14.894 32.4679 14.516 32.4679 13.508C32.4679 12.514 31.8799 12.234 30.7459 12.234H29.1079V14.894ZM37.0523 12.15C37.0523 14.992 35.9743 17.218 35.1203 18.45H34.0703C35.0083 16.938 35.7363 14.796 35.7363 12.15C35.7363 9.518 34.9943 7.334 34.0703 5.85H35.1203C35.9743 7.068 37.0523 9.308 37.0523 12.15ZM41.9022 8.468H45.1782C46.6902 8.468 47.9222 8.86 47.9222 10.386C47.9222 11.184 47.5722 11.744 46.8722 12.038C47.6562 12.262 48.2302 12.794 48.2302 13.802C48.2302 15.37 47.0122 16 45.4022 16H41.9022V8.468ZM43.1762 11.632H45.0942C46.0322 11.632 46.5922 11.38 46.5922 10.526C46.5922 9.742 46.0042 9.574 45.0522 9.574H43.1762V11.632ZM43.1762 12.682V14.894H45.2062C46.3262 14.894 46.9002 14.572 46.9002 13.788C46.9002 12.948 46.3402 12.682 45.1642 12.682H43.1762ZM52.4385 16H49.7225V8.468H50.9965V11.128H52.4525C54.4125 11.128 55.2665 11.898 55.2665 13.508C55.2665 15.37 54.1605 16 52.4385 16ZM50.9965 12.234V14.894H52.3265C53.4465 14.894 54.0205 14.53 54.0205 13.508C54.0205 12.5 53.4605 12.234 52.2845 12.234H50.9965ZM57.7865 16H56.5125V8.468H57.7865V16ZM68.0734 9.574H64.5454V16H63.2714V8.468H68.0734V9.574ZM69.8389 12.262C69.8389 14.278 70.9309 15.062 72.0929 15.062C73.2549 15.062 74.3469 14.194 74.3469 12.262C74.3469 10.246 73.2549 9.462 72.0929 9.462C70.9309 9.462 69.8389 10.204 69.8389 12.262ZM72.0929 8.342C73.8429 8.342 75.7049 9.532 75.7049 12.262C75.7049 14.992 73.8429 16.182 72.0929 16.182C70.3429 16.182 68.4809 14.992 68.4809 12.262C68.4809 9.532 70.3429 8.342 72.0929 8.342ZM83.1393 8.468V16H81.8653V9.574H79.3313L79.2193 11.394C79.0373 14.432 78.3793 16 76.6293 16H76.3913V14.894H76.5313C77.2033 14.894 77.8473 14.166 78.0013 11.044L78.1133 8.468H83.1393ZM86.0948 12.262C86.0948 14.278 87.1868 15.062 88.3488 15.062C89.5108 15.062 90.6028 14.194 90.6028 12.262C90.6028 10.246 89.5108 9.462 88.3488 9.462C87.1868 9.462 86.0948 10.204 86.0948 12.262ZM88.3488 8.342C90.0988 8.342 91.9608 9.532 91.9608 12.262C91.9608 14.992 90.0988 16.182 88.3488 16.182C86.5988 16.182 84.7368 14.992 84.7368 12.262C84.7368 9.532 86.5988 8.342 88.3488 8.342ZM100.46 14.894V17.666H99.2278V16H93.7118V17.666H92.4798V14.894H92.8158C93.6698 14.894 94.1178 13.774 94.2298 10.89L94.3278 8.468H99.4098V14.894H100.46ZM98.1358 14.894V9.574H95.5598L95.4898 11.016C95.3778 13.242 95.0558 14.334 94.4678 14.894H98.1358ZM108.016 16H106.742V12.71H103.018V16H101.744V8.468H103.018V11.604H106.742V8.468H108.016V16ZM112.882 16H110.166V8.468H111.44V11.128H112.896C114.856 11.128 115.71 11.898 115.71 13.508C115.71 15.37 114.604 16 112.882 16ZM111.44 12.234V14.894H112.77C113.89 14.894 114.464 14.53 114.464 13.508C114.464 12.5 113.904 12.234 112.728 12.234H111.44ZM118.23 16H116.956V8.468H118.23V16ZM124.9 5.85H125.894C125.782 6.69 125.25 7.544 123.654 7.544C122.114 7.544 121.526 6.69 121.456 5.85H122.45C122.506 6.298 122.842 6.704 123.668 6.704C124.494 6.704 124.844 6.298 124.9 5.85ZM125.558 16V10.316L121.666 16H120.392V8.468H121.666V14.152L125.558 8.468H126.832V16H125.558ZM131.526 5.668C133.108 5.668 134.69 6.438 134.69 8.132C134.69 9.476 133.752 10.414 132.8 11.016C131.932 11.576 131.624 11.828 131.624 12.598V13.032H130.322V12.556C130.322 11.38 130.882 10.876 132.058 10.12C132.786 9.658 133.36 9.098 133.36 8.188C133.36 7.292 132.576 6.732 131.498 6.732C129.944 6.732 129.412 7.824 129.37 8.678H128.096C128.096 6.858 129.552 5.668 131.526 5.668ZM131.806 16H130.196V14.39H131.806V16Z"
		fill="#8E8E8E"/>
	<path
		d="M34.3536 78.6464C34.1583 78.4512 33.8417 78.4512 33.6464 78.6464L30.4645 81.8284C30.2692 82.0237 30.2692 82.3403 30.4645 82.5355C30.6597 82.7308 30.9763 82.7308 31.1716 82.5355L34 79.7071L36.8284 82.5355C37.0237 82.7308 37.3403 82.7308 37.5355 82.5355C37.7308 82.3403 37.7308 82.0237 37.5355 81.8284L34.3536 78.6464ZM33.5 79C33.5 79.6822 33.537 80.3595 33.61 81.0314L34.6041 80.9234C34.535 80.2872 34.5 79.6459 34.5 79H33.5ZM34.4718 84.9954C34.8875 86.2612 35.432 87.4994 36.0962 88.7055L36.9721 88.2231C36.3361 87.0681 35.8171 85.8868 35.4218 84.6834L34.4718 84.9954ZM38.3191 92.0694C39.1199 93.102 40.0121 94.1052 40.9891 95.0758L41.6939 94.3663C40.7452 93.4239 39.882 92.4529 39.1093 91.4566L38.3191 92.0694ZM43.9869 97.7423C45.004 98.5566 46.0852 99.3426 47.2261 100.098L47.7783 99.2644C46.661 98.5245 45.6042 97.7561 44.6118 96.9617L43.9869 97.7423ZM50.6474 102.174C51.787 102.807 52.973 103.414 54.2021 103.992L54.6277 103.087C53.4183 102.518 52.2525 101.922 51.1334 101.3L50.6474 102.174ZM57.8608 105.578C59.0761 106.062 60.3262 106.52 61.6083 106.951L61.9268 106.003C60.6616 105.578 59.4288 105.126 58.2309 104.649L57.8608 105.578ZM65.4156 108.123C66.6772 108.477 67.965 108.805 69.277 109.107L69.5013 108.133C68.2044 107.834 66.9319 107.509 65.6857 107.16L65.4156 108.123ZM73.1768 109.913C74.4682 110.15 75.7796 110.362 77.1093 110.548L77.2478 109.558C75.9321 109.374 74.6346 109.164 73.3573 108.929L73.1768 109.913ZM81.0603 111.018C82.3697 111.146 83.6944 111.25 85.0326 111.328L85.0906 110.329C83.7656 110.252 82.4542 110.15 81.158 110.022L81.0603 111.018ZM89.0063 111.481C89.6681 111.494 90.3327 111.5 91 111.5V110.5C90.3391 110.5 89.6809 110.494 89.0255 110.481L89.0063 111.481ZM91 111.5C91.6673 111.5 92.3319 111.494 92.9937 111.481L92.9745 110.481C92.3191 110.494 91.6609 110.5 91 110.5V111.5ZM96.9674 111.328C98.3056 111.25 99.6303 111.146 100.94 111.018L100.842 110.022C99.5458 110.15 98.2344 110.252 96.9093 110.329L96.9674 111.328ZM104.891 110.548C106.22 110.362 107.532 110.15 108.823 109.913L108.643 108.929C107.365 109.164 106.068 109.374 104.752 109.558L104.891 110.548ZM112.723 109.107C114.035 108.805 115.323 108.477 116.584 108.123L116.314 107.16C115.068 107.509 113.796 107.834 112.499 108.133L112.723 109.107ZM120.392 106.951C121.674 106.52 122.924 106.062 124.139 105.578L123.769 104.649C122.571 105.126 121.338 105.578 120.073 106.003L120.392 106.951ZM127.798 103.992C129.027 103.414 130.213 102.807 131.353 102.174L130.867 101.3C129.748 101.922 128.582 102.518 127.372 103.087L127.798 103.992ZM134.774 100.098C135.915 99.3426 136.996 98.5566 138.013 97.7423L137.388 96.9617C136.396 97.7561 135.339 98.5245 134.222 99.2644L134.774 100.098ZM141.011 95.0758C141.988 94.1052 142.88 93.102 143.681 92.0694L142.891 91.4566C142.118 92.4529 141.255 93.4239 140.306 94.3663L141.011 95.0758ZM145.904 88.7055C146.568 87.4994 147.112 86.2612 147.528 84.9954L146.578 84.6834C146.183 85.8868 145.664 87.0681 145.028 88.2231L145.904 88.7055ZM148.39 81.0314C148.463 80.3595 148.5 79.6822 148.5 79H147.5C147.5 79.6459 147.465 80.2872 147.396 80.9234L148.39 81.0314ZM34.7071 78.2929C34.3166 77.9024 33.6834 77.9024 33.2929 78.2929L26.9289 84.6569C26.5384 85.0474 26.5384 85.6805 26.9289 86.0711C27.3195 86.4616 27.9526 86.4616 28.3431 86.0711L34 80.4142L39.6569 86.0711C40.0474 86.4616 40.6805 86.4616 41.0711 86.0711C41.4616 85.6805 41.4616 85.0474 41.0711 84.6569L34.7071 78.2929ZM33 79C33 79.7003 33.038 80.3956 33.1129 81.0853L35.1012 80.8694C35.0341 80.2511 35 79.6278 35 79H33ZM33.9967 85.1514C34.4227 86.4484 34.9799 87.715 35.6582 88.9467L37.4101 87.9819C36.7881 86.8525 36.2819 85.6996 35.8969 84.5273L33.9967 85.1514ZM37.924 92.3759C38.7389 93.4266 39.6455 94.4458 40.6367 95.4305L42.0463 94.0116C41.1118 93.0833 40.263 92.1283 39.5044 91.1501L37.924 92.3759ZM43.6744 98.1327C44.7039 98.9568 45.7973 99.7517 46.9501 100.515L48.0543 98.8475C46.9489 98.1155 45.9043 97.3559 44.9243 96.5713L43.6744 98.1327ZM50.4044 102.611C51.5543 103.25 52.7504 103.862 53.9893 104.445L54.8405 102.635C53.6409 102.071 52.4852 101.479 51.3764 100.863L50.4044 102.611ZM57.6757 106.042C58.8998 106.53 60.1585 106.991 61.449 107.425L62.0861 105.529C60.8293 105.107 59.6051 104.658 58.416 104.184L57.6757 106.042ZM65.2805 108.604C66.5498 108.96 67.8453 109.291 69.1649 109.595L69.6135 107.645C68.3242 107.349 67.0592 107.026 65.8208 106.678L65.2805 108.604ZM73.0865 110.405C74.3849 110.643 75.7034 110.856 77.0401 111.043L77.3171 109.062C76.0083 108.879 74.7179 108.671 73.4476 108.438L73.0865 110.405ZM81.0114 111.515C82.3275 111.644 83.6588 111.749 85.0036 111.827L85.1197 109.83C83.8012 109.753 82.4964 109.651 81.2069 109.525L81.0114 111.515ZM88.9967 111.981C89.6617 111.994 90.3295 112 91 112V110C90.3423 110 89.6873 109.994 89.0351 109.981L88.9967 111.981ZM91 112C91.6705 112 92.3383 111.994 93.0033 111.981L92.9649 109.981C92.3127 109.994 91.6577 110 91 110V112ZM96.9964 111.827C98.3412 111.749 99.6725 111.644 100.989 111.515L100.793 109.525C99.5036 109.651 98.1988 109.753 96.8803 109.83L96.9964 111.827ZM104.96 111.043C106.297 110.856 107.615 110.643 108.914 110.405L108.552 108.438C107.282 108.671 105.992 108.879 104.683 109.062L104.96 111.043ZM112.835 109.595C114.155 109.291 115.45 108.96 116.72 108.604L116.179 106.678C114.941 107.026 113.676 107.349 112.386 107.645L112.835 109.595ZM120.551 107.425C121.842 106.991 123.1 106.53 124.324 106.042L123.584 104.184C122.395 104.658 121.171 105.107 119.914 105.529L120.551 107.425ZM128.011 104.445C129.25 103.862 130.446 103.25 131.596 102.611L130.624 100.863C129.515 101.479 128.359 102.071 127.159 102.635L128.011 104.445ZM135.05 100.515C136.203 99.7517 137.296 98.9568 138.326 98.1327L137.076 96.5713C136.096 97.3559 135.051 98.1155 133.946 98.8475L135.05 100.515ZM141.363 95.4305C142.355 94.4458 143.261 93.4266 144.076 92.3759L142.496 91.1502C141.737 92.1283 140.888 93.0833 139.954 94.0116L141.363 95.4305ZM146.342 88.9467C147.02 87.715 147.577 86.4484 148.003 85.1514L146.103 84.5273C145.718 85.6996 145.212 86.8525 144.59 87.9819L146.342 88.9467ZM148.887 81.0854C148.962 80.3957 149 79.7003 149 79H147C147 79.6278 146.966 80.2511 146.899 80.8694L148.887 81.0854Z"
		fill="#8E8E8E"/>
</svg>
