<svg width="45" height="41" viewBox="0 0 45 41" fill="none" xmlns="http://www.w3.org/2000/svg">
<path d="M42.9702 17.1225L33.2702 23.1225V17.2125C33.2715 17.037 33.238 16.863 33.1718 16.7004C33.1056 16.5379 33.0078 16.3901 32.8842 16.2656C32.7605 16.141 32.6135 16.0421 32.4514 15.9747C32.2894 15.9072 32.1157 15.8725 31.9401 15.8725H28.9401C29.8461 14.7367 30.3365 13.3253 30.3302 11.8725C30.3302 10.1618 29.6506 8.52125 28.441 7.31164C27.2314 6.10203 25.5908 5.42248 23.8802 5.42248C22.6905 5.42643 21.5273 5.77366 20.5301 6.42248C20.0879 5.08807 19.3511 3.87027 18.3743 2.8593C17.3975 1.84832 16.2058 1.07009 14.8874 0.582266C13.569 0.0944386 12.1577 -0.0904829 10.7581 0.0412029C9.3585 0.172889 8.00648 0.617806 6.80219 1.34299C5.59791 2.06818 4.57223 3.05504 3.80115 4.23047C3.03007 5.4059 2.53336 6.73976 2.34781 8.13323C2.16226 9.52671 2.29263 10.9441 2.72926 12.2803C3.16589 13.6166 3.89759 14.8374 4.87015 15.8525H1.32015C1.14511 15.8525 0.971815 15.8873 0.810347 15.9548C0.64888 16.0224 0.502466 16.1214 0.379628 16.2461C0.25679 16.3708 0.15998 16.5187 0.0948323 16.6812C0.0296845 16.8437 -0.0025006 17.0175 0.000151532 17.1925V39.3025C0.000151532 39.6526 0.139223 39.9883 0.386771 40.2359C0.634319 40.4834 0.970065 40.6225 1.32015 40.6225H31.9401C32.1143 40.6238 32.2871 40.5906 32.4484 40.5249C32.6097 40.4591 32.7564 40.3621 32.88 40.2394C33.0036 40.1167 33.1018 39.9707 33.1687 39.8099C33.2357 39.6491 33.2702 39.4767 33.2702 39.3025V33.3725L42.9702 39.3725C43.1696 39.4924 43.3972 39.5574 43.6299 39.561C43.8626 39.5646 44.0921 39.5066 44.2952 39.3929C44.4982 39.2791 44.6676 39.1138 44.7861 38.9135C44.9047 38.7132 44.9682 38.4852 44.9702 38.2525V18.3025C44.9726 18.0671 44.913 17.8352 44.7973 17.6301C44.6816 17.4251 44.5139 17.2542 44.3111 17.1345C44.1084 17.0149 43.8777 16.9508 43.6423 16.9487C43.4069 16.9466 43.175 17.0065 42.9702 17.1225ZM11.6002 14.9825C10.4902 14.9845 9.40456 14.6571 8.48068 14.0419C7.55681 13.4267 6.83621 12.5512 6.41006 11.5263C5.98392 10.5014 5.8714 9.37306 6.08673 8.28417C6.30206 7.19527 6.83557 6.19474 7.61975 5.40916C8.40392 4.62359 9.40351 4.08829 10.492 3.87102C11.5805 3.65374 12.709 3.76425 13.7347 4.18857C14.7604 4.61288 15.6371 5.33192 16.254 6.25469C16.8709 7.17747 17.2001 8.2625 17.2002 9.37248C17.2002 10.8586 16.6105 12.284 15.5606 13.3358C14.5106 14.3876 13.0863 14.9798 11.6002 14.9825ZM23.8402 15.7725C23.0795 15.7705 22.3366 15.5433 21.705 15.1195C21.0734 14.6957 20.5815 14.0943 20.2913 13.3912C20.0012 12.6881 19.9258 11.9148 20.0746 11.1689C20.2235 10.423 20.59 9.73796 21.1278 9.20013C21.6656 8.6623 22.3507 8.29583 23.0966 8.14696C23.8425 7.99809 24.6158 8.07349 25.3189 8.36365C26.022 8.6538 26.6233 9.14571 27.0471 9.77731C27.4709 10.4089 27.6982 11.1519 27.7002 11.9125C27.7015 12.4198 27.6025 12.9223 27.409 13.3912C27.2155 13.8601 26.9312 14.2862 26.5725 14.6449C26.2138 15.0036 25.7878 15.2878 25.3189 15.4813C24.85 15.6749 24.3474 15.7738 23.8402 15.7725Z" fill="white"/>
</svg>
