<?xml version="1.0" encoding="UTF-8"?>
<svg width="50px" height="62px" viewBox="0 0 50 62" version="1.1" xmlns="http://www.w3.org/2000/svg" xmlns:xlink="http://www.w3.org/1999/xlink">
    <g id="Page-1" stroke="none" stroke-width="1" fill="none" fill-rule="evenodd">
        <g id="Group-Copy-2" transform="translate(0, -0.001)">
            <g id="Group-Copy-62" transform="translate(10, 10)">
                <path d="M5,0.577 L26,0.577 L26,0.577 L40,14.6406364 L40,46.577 C40,49.3384237 37.7614237,51.577 35,51.577 L5,51.577 C2.23857625,51.577 0,49.3384237 0,46.577 L0,5.577 C0,2.81557625 2.23857625,0.577 5,0.577 Z" id="Rectangle" fill="#539AFF"></path>
                <path d="M26,0.481 L26,11.481 C26,13.1378542 27.3431458,14.481 29,14.481 L40,14.481 L40,14.481 L26,0.481 Z" id="Path" fill="#FFFFFF" opacity="0.400000006"></path>
            </g>
            <g id="Group-Copy-61" transform="translate(5, 5)">
                <path d="M5,0.577 L26,0.577 L26,0.577 L40,14.6406364 L40,46.577 C40,49.3384237 37.7614237,51.577 35,51.577 L5,51.577 C2.23857625,51.577 0,49.3384237 0,46.577 L0,5.577 C0,2.81557625 2.23857625,0.577 5,0.577 Z" id="Rectangle" fill="#2D84FF"></path>
                <path d="M26,0.481 L26,11.481 C26,13.1378542 27.3431458,14.481 29,14.481 L40,14.481 L40,14.481 L26,0.481 Z" id="Path" fill="#FFFFFF" opacity="0.400000006"></path>
            </g>
            <g id="Group">
                <path d="M5,0.385 L26,0.385 L26,0.385 L40,14.4486364 L40,46.385 C40,49.1464237 37.7614237,51.385 35,51.385 L5,51.385 C2.23857625,51.385 0,49.1464237 0,46.385 L0,5.385 C0,2.62357625 2.23857625,0.385 5,0.385 Z" id="Rectangle" fill="#006AFF"></path>
                <g id="actionButtonIcon" transform="translate(20, 30.981) rotate(-90) translate(-20, -30.981)translate(10, 20.981)" fill="#FFFFFF">
                    <path d="M10.3462659,5.63930634 L14.3462659,9.47930634 C14.5455842,9.67065191 14.5519215,9.98738919 14.3604165,10.1865544 L10.3604165,14.3465544 C10.1690198,14.5456069 9.8524982,14.5518132 9.65344564,14.3604165 C9.45439309,14.1690198 9.44818678,13.8524982 9.63958347,13.6534456 L12.67,10.4999993 L5.5,10.5 C5.22385763,10.5 5,10.2761424 5,10 C5,9.72385763 5.22385763,9.5 5.5,9.5 L12.922,9.49999935 L9.65373409,6.36069366 C9.47666243,6.19070487 9.45188399,5.92173006 9.58287586,5.72414804 L9.63930634,5.65373409 C9.83054372,5.45452848 10.1470603,5.44806896 10.3462659,5.63930634 Z" id="Combined-Shape" fill-rule="evenodd"></path>
                    <path d="M10,1 C14.9705627,1 19,5.02943725 19,10 C19,14.9705627 14.9705627,19 10,19 C5.02943725,19 1,14.9705627 1,10 C1,5.02943725 5.02943725,1 10,1 Z M10,2 C5.581722,2 2,5.581722 2,10 C2,14.418278 5.581722,18 10,18 C14.418278,18 18,14.418278 18,10 C18,5.581722 14.418278,2 10,2 Z" id="Oval-2" fill-rule="nonzero"></path>
                </g>
                <path d="M26,0.385 L26,11.385 C26,13.0418542 27.3431458,14.385 29,14.385 L40,14.385 L40,14.385 L26,0.385 Z" id="Path" fill="#FFFFFF" opacity="0.400000006"></path>
            </g>
        </g>
    </g>
</svg>
