<svg width="40" height="40" viewBox="0 0 40 40" fill="none" xmlns="http://www.w3.org/2000/svg">
<path d="M18.1119 1.04076C19.8957 0.538944 21.4172 1.22296 22.4432 2.01992L22.5715 2.12219L22.6943 2.22519L22.7536 2.27681L22.8679 2.37998L22.9765 2.48264L23.0792 2.58429C23.1124 2.61795 23.1447 2.65136 23.1759 2.68444L23.2666 2.7826C23.2958 2.81493 23.3239 2.84684 23.3511 2.87826L23.4292 2.97093L23.501 3.06012L23.5344 3.10325L23.5964 3.18628L23.6516 3.26458L23.7001 3.33767L23.7417 3.40503L23.7763 3.46618L23.7909 3.49428L23.8148 3.54518L23.8314 3.58863C24.0127 4.14241 23.7048 5.2427 23.2537 6.24271C29.3825 6.27816 31.4406 10.4179 32.2703 14.666L32.3239 14.9493L32.374 15.2327C32.382 15.2799 32.39 15.3271 32.3978 15.3743L32.443 15.6573C32.4503 15.7044 32.4575 15.7515 32.4645 15.7986L32.5054 16.0806L32.555 16.45L32.6004 16.8172L32.6518 17.2719L32.6981 17.721L32.732 18.0753L32.7785 18.5971L32.9143 20.2292C33.1931 23.1837 32.8385 25.6468 32.3107 27.5131L32.2377 27.7639L32.2005 27.8865L32.1248 28.1261C32.0993 28.2047 32.0735 28.282 32.0476 28.3581L31.9691 28.5825L31.8697 28.8523L31.7692 29.1099L31.6885 29.3072L31.6076 29.4967L31.527 29.6782L31.4468 29.8517L31.3673 30.0172L31.2888 30.1746L31.2115 30.3238L31.1357 30.4647L31.0616 30.5974C31.5579 31.514 31.8631 33.7196 31.3905 35.3091C31.3714 35.438 31.3523 35.5669 31.2855 35.6624C31.2584 35.6671 31.2526 35.6867 31.2517 35.6993L31.2521 35.7101C31.2115 35.7172 31.1781 35.765 31.1853 35.8055L31.1737 35.8585L31.1601 35.9061L31.1396 35.9663C31.1234 36.0103 31.1017 36.0617 31.0731 36.1182C31.0635 36.1827 31.042 36.2387 31.0155 36.2957L30.9577 36.4136L30.9275 36.4786L30.8117 36.7459L30.6813 37.0534L30.5417 37.3885L30.4463 37.6208C30.3508 37.6767 30.2547 37.7314 30.1582 37.7854C30.1327 37.7172 30.1047 37.6509 30.0779 37.5907C30.0636 37.5096 30.0159 37.4761 30.0016 37.395C28.8416 34.4852 27.1329 33.1188 25.3455 32.5326L25.1604 32.4747L25.0039 32.4396L24.706 32.3666L24.5495 32.3314C23.0761 32.0289 21.6038 32.2077 20.3852 32.453L20.1368 32.5046L19.8961 32.5572L19.6636 32.6102L19.0206 32.7624L18.9682 32.7735L18.8542 32.7956L18.7927 32.8065L18.6609 32.828L18.4417 32.8597L18.1977 32.8906L17.9297 32.9205L17.5371 32.9589L17.2174 32.9864L16.9928 33.0041L16.6395 33.0297L16.2674 33.0541L15.7437 33.0844L15.3316 33.1055L14.7584 33.1314L14.3119 33.1489L13.8523 33.1648L13.2209 33.1834L12.239 33.2051C11.7052 32.4654 11.415 31.7346 11.2017 31.0755L11.1332 30.8585L10.9481 30.2447L10.8886 30.0541C8.6164 29.9241 5.95533 30.3365 3.45605 30.9757C2.26639 29.0861 1.37795 26.9675 0.869141 24.6755C1.4564 24.3378 2.16537 24.1237 2.87997 23.9389L3.14827 23.8707L3.79781 23.7086L4.02886 23.6489C5.87776 23.1998 6.79021 22.2316 6.79322 20.8975L6.79235 20.8186C6.78723 20.6071 6.79295 20.356 6.81161 20.0746L6.82806 19.8581C6.83438 19.7841 6.84153 19.7083 6.84956 19.631L6.8763 19.3943L6.90847 19.1488C7.1182 17.6514 7.63202 15.727 8.63987 14.2169C10.0045 11.9169 11.6624 10.3266 13.1918 9.24747L13.3905 9.1096L13.4892 9.0428L13.6854 8.91345L13.8796 8.78964L14.0715 8.67129L14.2611 8.5583L14.4481 8.45056L14.6323 8.34799L14.8135 8.25048L15.0791 8.1135L15.2518 8.02822L15.4208 7.94767L15.6668 7.83547L15.8255 7.76629L16.0551 7.6707L16.2022 7.61228L16.3443 7.55799L16.5477 7.4841L16.6764 7.43973L16.7995 7.39914L16.9728 7.34515L17.1321 7.29915L17.2301 7.27275L17.3645 7.23931C16.651 6.98855 15.2934 5.93091 14.9594 4.98565L14.9361 4.91445L14.9254 4.87737L14.9059 4.80036L14.8891 4.71974C14.8814 4.67855 14.8749 4.63609 14.8695 4.59247L14.8605 4.5037L14.8572 4.45821L14.8534 4.36518L14.8529 4.31768L14.8547 4.22083C14.8599 4.09015 14.8757 3.95338 14.9044 3.81273L14.9283 3.70654C15.1661 2.74496 16.0125 1.63137 18.1119 1.04076Z" fill="black"/>
<path d="M10.5652 29.4276L10.4565 29.4087L10.4346 29.404L10.4673 29.5834L10.5018 29.759L10.5475 29.9734L10.5965 30.1824L10.6384 30.3459L10.6603 30.4264L10.706 30.5851L10.7545 30.7408L10.806 30.8937C11.0005 31.4493 11.2592 31.9501 11.6229 32.4253L11.7247 32.5543C11.8641 32.7255 12.0178 32.8937 12.1879 33.0602L12.3185 33.1849L12.3862 33.247L12.5264 33.371C12.5743 33.4122 12.6232 33.4535 12.6732 33.4947L12.8268 33.6182C12.9054 33.68 12.9865 33.7417 13.0704 33.8035L13.2417 33.9273C13.3001 33.9686 13.3597 34.0099 13.4205 34.0513L13.6069 34.1759C13.6387 34.1967 13.6707 34.2175 13.7031 34.2383L13.9012 34.3638L14.0034 34.4268L14.2137 34.5534L14.4325 34.681L14.7766 34.8746L15.017 35.0052L15.2665 35.1373L15.5251 35.2709L15.7931 35.4062L16.0706 35.5434L16.3579 35.6825L16.8076 35.8951C19.4611 37.1336 21.5018 36.5739 22.8983 35.6293L23.0315 35.5368C23.097 35.4899 23.1611 35.4423 23.2236 35.394L23.3467 35.2967C23.3668 35.2804 23.3868 35.264 23.4067 35.2475L23.5237 35.1482L23.6504 35.0353C23.7746 34.9219 23.8911 34.8072 23.9998 34.6932L24.106 34.5794L24.2069 34.4663L24.2555 34.4103L24.3487 34.2992L24.4367 34.1899L24.5194 34.0828L24.597 33.9783L24.6694 33.8769L24.7681 33.7312L24.8273 33.6391L24.9063 33.5093L24.9524 33.429L25.0116 33.3189C24.2218 32.8724 23.945 32.2517 23.9451 31.5405C23.9308 30.6413 24.3988 29.657 24.8707 28.9133L24.9838 28.7397C25.0213 28.6834 25.0587 28.6289 25.0955 28.5762C27.2844 28.1902 28.6071 26.3731 29.4094 24.3646L29.4933 24.1487L29.5734 23.9317C29.6256 23.7868 29.6752 23.6413 29.7223 23.4957L29.7914 23.2774L29.8568 23.0593L29.9318 22.7953L29.9674 22.6637L30.0351 22.4021L30.0672 22.2721L30.1281 22.0142L30.1846 21.7596L30.2369 21.5089L30.2852 21.2626L30.3296 21.0214L30.3894 20.6706L30.4249 20.4448L30.4572 20.2262L30.4864 20.0154L30.5248 19.7152L30.5571 19.4361L30.5919 19.1L30.6185 18.8099L30.642 18.519C30.6531 18.3845 30.6602 18.2403 30.6633 18.0887L30.665 17.9033L30.6643 17.8082L30.6601 17.6137L30.652 17.4143L30.6399 17.2109L30.6239 17.0043L30.6144 16.9001L30.5924 16.6904L30.5683 16.4942C30.564 16.4614 30.5595 16.4287 30.5549 16.396L30.5256 16.1998C30.5153 16.1346 30.5043 16.0695 30.4928 16.0047L30.4565 15.8112C30.2347 14.6888 29.834 13.6889 29.2465 13.4514L28.6179 13.188L28.4611 13.1202L28.2098 13.0079L27.9416 12.8826L27.7547 12.7914L27.5705 12.6982C27.5393 12.6822 27.5081 12.6659 27.4766 12.6494L27.2858 12.5472C27.2216 12.5121 27.1567 12.4759 27.0914 12.4387L26.8942 12.3239C25.6374 11.576 24.2468 10.4327 23.4723 8.69568C22.3242 11.2572 21.0857 12.8264 19.8944 13.8202L19.7393 13.9466C19.6619 14.0082 19.5847 14.0675 19.5078 14.1244L19.3543 14.2354C19.3288 14.2534 19.3033 14.2712 19.2779 14.2887L19.1256 14.3911C19.0496 14.4409 18.974 14.4886 18.8988 14.5344L18.7488 14.6234L18.5999 14.7074C18.5504 14.7346 18.5011 14.761 18.4521 14.7866L18.3054 14.8613C18.2811 14.8733 18.2568 14.8852 18.2326 14.8969L18.0878 14.9651L17.9207 15.0395L17.7554 15.1088L17.5923 15.1731L17.4313 15.2329L17.2725 15.2885L17.1162 15.3402L16.9623 15.3884L16.811 15.4332L16.6624 15.4752L16.4448 15.5334L16.2339 15.5869L15.5236 15.7605L15.3486 15.8065L15.2368 15.838L15.1331 15.8478L14.9713 15.8671L14.86 15.8833L14.7464 15.9021L14.6015 15.9297L14.4543 15.9618C14.4148 15.971 14.3751 15.9807 14.3352 15.991L14.2155 16.0233L14.0955 16.0589L13.9755 16.0978C13.9355 16.1114 13.8956 16.1255 13.8559 16.1403L13.7371 16.1862C13.6779 16.2101 13.6192 16.2354 13.5611 16.2621L13.4459 16.3175C12.5129 16.7852 11.7882 17.6443 12.1798 19.1385C12.7413 21.2813 14.3304 21.5643 15.687 21.202L15.8115 21.1668C15.8941 21.1421 15.9756 21.1152 16.0558 21.0862L16.175 21.0412C16.1947 21.0335 16.2143 21.0257 16.2338 21.0177C16.6621 22.0617 16.2997 23.3936 15.6893 24.6769L15.5853 24.8903C15.5323 24.9967 15.4777 25.1027 15.422 25.2079L15.309 25.4176L15.1934 25.6251L15.0757 25.8301L14.9565 26.0324L14.8363 26.2314L14.7157 26.427L14.5353 26.7131L14.2985 27.0791L13.5654 28.1826C13.0085 29.0567 12.1945 29.3544 11.5361 29.4375L11.3935 29.4525L11.257 29.4615L11.2043 29.4635L11.1025 29.4653L11.006 29.4644L10.9152 29.4613L10.791 29.4534L10.6824 29.4429L10.5652 29.4276Z" fill="white"/>
<path d="M23.9362 31.5156C23.9219 30.6164 24.3899 29.6321 24.8618 28.8884L24.9749 28.7147C25.0124 28.6585 25.0498 28.604 25.0866 28.5513L24.6965 28.5369L24.4537 28.5249L24.2466 28.5117L24.0352 28.4947L23.8631 28.4778L23.6885 28.4575C23.6592 28.4538 23.6298 28.45 23.6003 28.446L23.422 28.4198L23.2455 28.39C23.2159 28.3846 23.1862 28.3791 23.1564 28.3733L22.9766 28.3364C21.8009 28.0798 20.4921 27.4922 19.1309 26.0869L19.1506 26.4492L19.1673 26.6945L19.1829 26.88L19.2019 27.0664L19.2169 27.191L19.2431 27.3784L19.2634 27.5035L19.2746 27.566L19.2988 27.691L19.3259 27.8159L19.3561 27.9405L19.3895 28.0649L19.4264 28.1889C19.4392 28.2302 19.4528 28.2714 19.4669 28.3125L19.5113 28.4354C19.5346 28.4968 19.5593 28.5579 19.5857 28.6187L19.6407 28.74C20.185 29.888 21.352 30.9219 23.9362 31.5156Z" fill="#737373"/>
<path d="M25.2425 16.5226C25.1618 16.5316 25.1037 16.6043 25.1126 16.6851L25.1511 17.0443L25.1882 17.415L25.235 17.9199L25.2884 18.5532L25.3354 19.1704L25.3748 19.7512L25.4002 20.1762L25.4196 20.5547L25.4299 20.8019L25.4346 20.9469L25.4382 21.1313C25.4403 21.3489 25.2651 21.4892 24.904 21.5885L24.8002 21.6148L24.6825 21.6402L24.4692 21.6795C24.3892 21.6936 24.3358 21.7698 24.3499 21.8498C24.364 21.9298 24.4403 21.9832 24.5203 21.9691L24.6957 21.9373L24.7859 21.9192L24.9088 21.8911C25.4324 21.7619 25.7362 21.5397 25.7324 21.1285L25.7287 20.9418L25.7175 20.6327L25.6941 20.1642L25.6686 19.7363L25.6375 19.2723L25.6109 18.9068L25.561 18.2772L25.5165 17.7667L25.4687 17.2614L25.4309 16.8919L25.4049 16.6525C25.396 16.5718 25.3232 16.5137 25.2425 16.5226Z" fill="#D6D6D6"/>
<path d="M22.7233 19.1883C22.2752 19.2673 21.8415 18.9317 21.7545 18.4387C21.6676 17.9456 21.9604 17.4819 22.4085 17.4029C22.8565 17.3239 23.2903 17.6595 23.3772 18.1525C23.4641 18.6456 23.1714 19.1093 22.7233 19.1883Z" fill="#1E1E1E"/>
<path d="M27.8832 19.8954C27.4575 19.9705 27.0484 19.668 26.9694 19.2198C26.8903 18.7715 27.1713 18.3474 27.597 18.2723C28.0227 18.1972 28.4319 18.4997 28.5109 18.948C28.5899 19.3962 28.3089 19.8204 27.8832 19.8954Z" fill="#1E1E1E"/>
<path d="M29.9053 17.1495C29.9292 16.8105 29.7908 16.5002 29.5785 16.2448C29.3661 15.9893 29.0464 15.8365 28.7338 15.7243C28.4284 15.6526 28.0895 15.6287 27.8056 15.6788C27.4811 15.736 27.2114 15.8672 26.9561 16.0796L26.9632 16.1202C27.2758 16.2324 27.5407 16.3112 27.7984 16.3495L27.9271 16.3864L28.1667 16.4519C28.2822 16.4838 28.3925 16.5167 28.5047 16.5596L28.6718 16.6178L29.0033 16.7188C29.0587 16.7365 29.1143 16.7555 29.1704 16.777L29.5614 16.9791L29.7237 17.061L29.9053 17.1495Z" fill="#1E1E1E"/>
<path d="M23.7852 16.1239C23.5657 15.8279 23.2531 15.7156 22.9548 15.6846C22.6494 15.6129 22.3249 15.6701 22.0481 15.7608C21.7307 15.8586 21.4682 16.0304 21.2606 16.2762C21.0529 16.522 20.893 16.8012 20.8691 17.1402L21.252 17.0205C21.3979 16.9761 21.5309 16.9398 21.6662 16.9159L22.3415 16.7132C22.5777 16.6297 22.7805 16.5939 23.0168 16.5104L23.2558 16.4249L23.4232 16.3619C23.5384 16.3172 23.6616 16.2666 23.7995 16.2051L23.7852 16.1239Z" fill="#1E1E1E"/>
<path d="M26.0025 24.4198C25.8354 24.6585 25.6064 24.7826 25.4107 24.8589L25.2586 24.9127C25.0868 24.9723 24.9321 25.0177 24.7688 25.0139C24.5588 25.0091 24.3416 24.9637 24.1102 24.8372C23.8859 24.7512 23.7284 24.5698 23.5638 24.3478L23.4827 24.3621C23.4537 24.6405 23.5785 24.9648 23.7951 25.1756L23.8429 25.219C24.0958 25.4673 24.4084 25.5796 24.7472 25.6035C25.1267 25.6203 25.4369 25.4819 25.6922 25.2695C25.9476 25.0571 26.1409 24.7302 26.0836 24.4055L26.0025 24.4198Z" fill="#737373"/>
<path d="M23.4212 20.2377C23.3663 20.875 22.4213 21.209 21.3642 21.1443C20.3071 21.0797 19.861 20.4471 20.0376 19.7883C20.2142 19.1296 21.4599 19.0773 21.9347 19.1609L22.0191 19.1778C22.034 19.181 22.0493 19.1846 22.0649 19.1883L22.1626 19.2136C22.1963 19.2229 22.2312 19.2332 22.2669 19.2444L22.376 19.2806C22.8754 19.4553 23.4678 19.7902 23.4212 20.2377Z" fill="#D6D6D6"/>
<path d="M27.3556 21.9327C26.561 21.6963 25.9597 21.1328 26.1101 20.5624C26.233 20.0961 26.8931 19.9824 27.3895 20.0021L27.4968 20.0086C27.5488 20.0128 27.5982 20.0185 27.6439 20.0254L27.9831 20.0818L28.169 20.1162L28.3184 20.1478L28.4465 20.1785L28.5755 20.2137L28.678 20.2454L28.7753 20.2792C29.2237 20.4446 29.583 20.7193 29.4006 21.1955C29.1768 21.7799 28.5271 21.9604 28.0035 21.9861L27.8934 21.9894L27.7885 21.9884L27.7382 21.9866L27.6431 21.9804L27.5561 21.9713L27.516 21.9659L27.4433 21.9537C27.4097 21.9471 27.3802 21.94 27.3556 21.9327Z" fill="#D6D6D6"/>
<path d="M15.3798 16.5217C15.3841 16.6314 15.3901 16.7408 15.3977 16.8496L15.4149 17.0663C15.4212 17.1382 15.4282 17.2098 15.4357 17.2809L15.4599 17.4929L15.4871 17.7018L15.5169 17.907L15.5326 18.0081L15.5656 18.2069L15.6179 18.4958L15.6542 18.6813L15.6913 18.8607L15.7472 19.117L15.8026 19.3565L15.8734 19.6467L16.0355 20.2786L16.0627 20.3961L16.0667 20.4172C16.0448 20.4263 16.0215 20.4352 15.9971 20.4438L15.9203 20.4687L15.8367 20.4917L15.7471 20.5124L15.7001 20.5218L15.6024 20.5384L15.4999 20.552L15.3934 20.5622C15.3753 20.5636 15.3571 20.5648 15.3387 20.5659L15.227 20.5703L15.1127 20.5705L14.9962 20.5661C14.1748 20.5191 13.2396 20.1142 13.0721 18.8533C12.9091 17.7978 13.4793 17.2236 14.1054 16.9063L14.2047 16.8583L14.3042 16.8144L14.4111 16.7715L14.517 16.7328L14.5693 16.7149L14.6723 16.6822L14.7723 16.653L14.9153 16.6156L15.0049 16.5945L15.1669 16.5605L15.3798 16.5217Z" fill="#D6D6D6"/>
<path d="M31.3047 17.7182C31.9506 19.0089 32.7644 20.1633 33.5968 21.2839L33.9303 21.7306L34.4297 22.3971C34.4849 22.4711 34.54 22.545 34.5948 22.619L34.8036 22.9209C35.0089 23.2181 35.2009 23.5059 35.3512 23.8246C35.5058 24.132 35.6176 24.5006 35.7209 24.8813L35.7973 25.1684C35.9237 25.6482 36.0024 26.0946 36.0477 26.5887L36.0448 26.7633C36.0327 27.1745 35.976 27.6055 35.7421 27.9396L35.8376 28.0064C36.186 27.6103 36.2624 27.0947 36.2982 26.5863C36.2935 26.0851 36.2482 25.591 36.1624 25.1041L36.1099 24.8121C36.0373 24.4232 35.9491 24.0371 35.7831 23.6647C35.5755 23.1992 35.3345 22.7815 35.0936 22.3637L34.5713 21.5369C34.2235 20.9877 33.8768 20.4445 33.5332 19.9193L33.245 19.4178C32.8634 18.7487 32.4973 18.0769 32.2091 17.3914L31.3047 17.7182Z" fill="#1E1E1E"/>
<path d="M10.9111 29.5926L11.0734 30.1485L11.1447 30.3804L11.2023 30.5575L11.2643 30.737L11.3085 30.8579L11.3552 30.9798L11.4046 31.1026L11.4571 31.2262L11.5271 31.3817L11.6027 31.5383L11.6842 31.6959L11.772 31.8542L11.8472 31.9815L11.8864 32.0452L11.9686 32.173L12.0556 32.3011L12.1478 32.4295L12.2455 32.558C12.6972 33.1367 13.3198 33.7191 14.2073 34.2805L14.409 34.4049C15.1645 34.8596 16.1006 35.2991 17.2681 35.71C20.2636 36.7642 22.04 36.4362 23.2432 35.6853L23.3597 35.6101L23.4726 35.5324L23.5822 35.4523L23.6968 35.3635L23.8078 35.2724L23.9154 35.1793L24.0196 35.0846L24.0705 35.0366L24.17 34.9398L24.2666 34.8419L24.3606 34.7432L24.4967 34.5942L24.6278 34.4447L24.7955 34.2464L25.226 33.7221L25.3011 33.6325L25.2391 33.5789L25.1197 33.4722C24.5383 32.9391 24.1997 32.411 24.4145 31.6884L24.498 31.7174L25.0056 31.8785L25.1523 31.9276L25.3085 31.9825L25.4736 32.044L25.5881 32.0889L25.706 32.1371L25.8271 32.189L25.9511 32.2446L26.0778 32.3041L26.207 32.3678L26.3385 32.4358L26.472 32.5084L26.6074 32.5857C26.8572 32.7318 27.1151 32.9027 27.3752 33.1038L27.5172 33.2164L27.6595 33.3353L27.7306 33.3971L27.8728 33.5256C28.7486 34.3382 29.6052 35.5303 30.2129 37.3058C28.2981 38.3817 26.172 39.158 23.8864 39.561C15.6383 41.0154 7.68035 37.191 3.47852 30.5148C5.97822 29.8697 8.64048 29.4514 10.9111 29.5926Z" fill="#96989E"/>
<path d="M25.4121 32.1678C25.5023 32.2051 25.6052 32.2513 25.7172 32.3051L25.8917 32.3916C26.3427 32.6213 26.8981 32.9512 27.3747 33.3206L27.4689 33.395C27.9001 33.7089 28.1685 34.5706 28.3351 35.6885L28.3652 35.9011L28.393 36.1192L28.4185 36.3425L28.442 36.5705L28.4634 36.8028L28.4919 37.1584L28.5087 37.3996L28.5307 37.7665L28.5545 38.263C27.7471 38.6279 26.9079 38.9416 26.0405 39.1998L26.0193 38.6696L25.9947 38.1473L25.9669 37.6342L25.9362 37.1316L25.903 36.641L25.8796 36.3211L25.8428 35.8532L25.8043 35.4008L25.7642 34.9652L25.7229 34.5477L25.6808 34.1497L25.6237 33.6517L25.5806 33.3043L25.5376 32.9809L25.495 32.6828L25.467 32.4987L25.4121 32.1678ZM8.13854 29.5652C9.85047 31.9523 10.716 34.9673 11.1376 37.8088C9.54527 36.986 8.06914 35.9527 6.75101 34.7388L6.71749 34.5875L6.64846 34.2899C6.62504 34.1917 6.60123 34.0947 6.57708 33.9989L6.50368 33.7149L6.4096 33.37L6.31353 33.0369L6.23569 32.7792L6.15733 32.5296L6.07879 32.2883L6.0004 32.0557L5.9225 31.8319L5.80728 31.5133L5.69503 31.2161L5.58687 30.9411L5.5176 30.7705L5.41878 30.5344L5.32707 30.3228L5.21777 30.0802L8.13854 29.5652Z" fill="#0C0C0C"/>
</svg>
