<?xml version="1.0" encoding="UTF-8"?>
<svg width="250px" height="93px" viewBox="0 0 250 93" version="1.1" xmlns="http://www.w3.org/2000/svg" xmlns:xlink="http://www.w3.org/1999/xlink">
    <title>Group</title>
    <g id="Page-1" stroke="none" stroke-width="1" fill="none" fill-rule="evenodd">
        <g id="Group">
            <path d="M136.791667,1 C137.953806,1 139.005906,1.47094856 139.76747,2.23239684 C140.52899,2.99380248 141,4.04567604 141,5.20754717 L141,86.7924528 C141,87.9543497 140.529002,89.0062183 139.767491,89.7676144 C139.005925,90.5290651 137.953815,91 136.791667,91 L22.2083333,91 C21.0461848,91 19.9940748,90.5290651 19.2325091,89.7676144 C18.4709981,89.0062183 18,87.9543497 18,86.7924528 L18,5.20754717 C18,4.04567604 18.4710099,2.99380248 19.2325305,2.23239684 C19.9940937,1.47094856 21.0461941,1 22.2083333,1 Z" id="Path" stroke="#C7C6C2" stroke-width="2" fill="#FFFFFF"></path>
            <path d="M244.807692,10 C245.977712,10 247.040415,10.4227035 247.808301,11.117504 C248.538201,11.7779327 249,12.6873445 249,13.6981132 L249,87.3018868 C249,88.3126776 248.538213,89.2220857 247.808323,89.8825062 C247.040434,90.5773087 245.977722,91 244.807692,91 L210.192308,91 C209.022278,91 207.959566,90.5773087 207.191677,89.8825062 C206.461787,89.2220857 206,88.3126776 206,87.3018868 L206,13.6981132 C206,12.6873445 206.461799,11.7779327 207.191699,11.117504 C207.959585,10.4227035 209.022288,10 210.192308,10 Z" id="Path" stroke="#C7C6C2" stroke-width="2" fill="#FFFFFF"></path>
            <path d="M158.26087,87 C158.406458,87.1338615 158.504949,87.2886777 158.595094,87.4700935 C158.853225,87.9895822 159,88.7095239 159,89.5 C159,90.2904761 158.853225,91.0104178 158.595094,91.5299065 C158.504949,91.7113223 158.406458,91.8661385 158.285663,91.9668308 L1.73913043,92 C1.593555,91.8661348 1.49505927,91.7113128 1.40491095,91.5298893 C1.14678087,91.0104025 1,90.290468 1,89.5 C1,88.709532 1.14678087,87.9895975 1.40491095,87.4701107 C1.49505927,87.2886872 1.593555,87.1338652 1.71435255,87.0331685 Z" id="Path" stroke="#C7C6C2" stroke-width="2" fill="#FFFFFF"></path>
            <path d="M157.792453,30 C158.954772,30 160.007188,30.4691587 160.768917,31.2282029 C161.529367,31.9859713 162,33.0327474 162,34.1891892 L162,87.8108108 C162,88.9672526 161.529367,90.0140287 160.768917,90.7717971 C160.007188,91.5308413 158.954772,92 157.792453,92 L76.2075472,92 C75.0452279,92 73.9928121,91.5308413 73.2310826,90.7717971 C72.4706334,90.0140287 72,88.9672526 72,87.8108108 L72,34.1891892 C72,33.0327474 72.4706334,31.9859713 73.2310826,31.2282029 C73.9928121,30.4691587 75.0452279,30 76.2075472,30 Z" id="Path" stroke="#C7C6C2" stroke-width="2" fill="#FFFFFF" fill-rule="nonzero"></path>
            <text id="✦-copy-4" font-family="ZapfDingbatsITC, Zapf Dingbats" font-size="20" font-weight="normal" line-spacing="29" fill="#C7C6C2">
                <tspan x="109" y="63">✦</tspan>
            </text>
            <rect id="Rectangle" fill="#C7C6C2" fill-rule="nonzero" x="219" y="14" width="17" height="3" rx="1.5"></rect>
            <rect id="Rectangle" fill="#C7C6C2" fill-rule="nonzero" x="182" y="35" width="3" height="28" rx="1.5"></rect>
            <rect id="Rectangle" fill="#C7C6C2" fill-rule="nonzero" x="170" y="47" width="28" height="3" rx="1.5"></rect>
        </g>
    </g>
</svg>