<?xml version="1.0" encoding="UTF-8"?>
<svg width="60px" height="38px" viewBox="0 0 60 38" version="1.1" xmlns="http://www.w3.org/2000/svg" xmlns:xlink="http://www.w3.org/1999/xlink">
    <title>Shape Copy</title>
    <g id="Page-1" stroke="none" stroke-width="1" fill="none" fill-rule="evenodd">
        <path d="M58.7162778,3.78240971 L53.4492623,3.78240971 L53.455495,1.56303603 L53.455495,1.24685781 L53.455495,1.0856739 L53.2934379,0.924489978 C53.1313808,0.608311758 52.6576557,0.292133537 52.1777076,0.292133537 L50.2641699,0.292133537 C45.1592753,0.292133537 35.9030636,0.13094962 30.000649,6.16306253 C24.0979151,0.130886136 14.8417034,0.130886136 9.73712797,0.292133537 L7.82359034,0.292133537 C7.18780821,0.292133537 6.70786003,0.769495676 6.54580293,1.40185212 L6.54580293,1.56303603 L6.54580293,3.78240971 L1.27878741,3.78240971 C0.480948172,3.78240971 0.001,4.41476615 0.001,5.05331221 L0.001,36.4790975 C0.001,37.2726379 0.636782132,37.75 1.27878741,37.75 L58.7232126,37.75 C59.5210518,37.75 60.001,37.1176436 60.001,36.4790975 L59.9947673,5.05331221 C59.9947673,4.42095577 59.3589851,3.78240971 58.7169799,3.78240971 L58.7162778,3.78240971 Z M2.54999105,35.0526611 L2.54999105,6.48520817 L6.53918725,6.48520817 L6.53918725,31.4007884 L6.53918725,31.5619723 L6.53918725,31.8781505 L6.53918725,32.0393344 C6.53918725,32.2005183 6.70124435,32.3555126 6.70124435,32.3555126 C6.86330146,32.5166966 7.18119252,32.6716909 7.6611407,32.6716909 L9.89253748,32.6716909 C14.0438546,32.5105069 20.5823067,32.5105069 25.3693422,35.2135593 L2.54954426,35.2073602 L2.54999105,35.0526611 Z M28.5611459,33.9367529 C22.9762712,29.8078037 14.9978789,29.9690511 10.0480842,29.9690511 L9.08818787,29.9690511 L9.08818787,2.9886789 L9.72397,2.9886789 C14.9909855,2.9886789 23.6050962,2.82749498 28.5545717,8.85960789 L28.5611459,33.9367529 Z M31.2725228,8.70534365 C36.2216791,2.83441466 44.8357898,2.83441466 50.1031245,2.83441466 L50.7389066,2.83441466 L50.7389066,29.8147869 L49.7790103,29.8147869 C44.8298539,29.6536029 36.8514615,29.6536029 31.2659486,33.7824887 L31.2725228,8.70534365 Z M57.2836776,35.0540577 L34.1463397,35.0540577 C39.0954961,32.3572902 45.47821,32.5121892 49.6231444,32.5121892 L51.8545412,32.5121892 C52.1724322,32.5121892 52.4903233,32.3510053 52.8144375,32.196011 C52.9764946,32.0348271 52.9764946,32.0348271 52.9764946,31.8798328 L52.9764946,31.7186489 L52.9764946,31.4024707 L52.9764946,31.2412868 L52.9764946,6.48600171 L57.2836776,6.48600171 L57.2836776,35.0540577 Z" id="Shape-Copy" fill="#1E1E1E" fill-rule="nonzero"></path>
    </g>
</svg>