<?xml version="1.0" encoding="UTF-8"?>
<svg width="27px" height="27px" viewBox="0 0 27 27" version="1.1" xmlns="http://www.w3.org/2000/svg" xmlns:xlink="http://www.w3.org/1999/xlink">
    <title>Group Copy 51</title>
    <g id="Page-1" stroke="none" stroke-width="1" fill="none" fill-rule="evenodd">
        <g id="Stack-14" transform="translate(-453, -303)" stroke="#282316">
            <g transform="translate(447, 297)" id="Group-Copy-51">
                <g transform="translate(19, 20) rotate(90) translate(-19, -20)translate(4, 5)">
                    <circle id="Oval-2-Copy" cx="14.5" cy="14.5" r="13"></circle>
                    <path d="M9.92769077,6.83357963 C10.0526048,6.80582096 10.1881084,6.82571538 10.3045937,6.89984242 L18.3660299,12.0298472 C18.5267399,12.2499661 18.6130063,12.4477918 18.6130063,12.623011 C18.6130063,12.7548778 18.5446962,12.856456 18.4419645,12.9218307 L10.3045937,18.1001576 C10.2243683,18.1512101 10.131248,18.1783268 10.036156,18.1783268 C9.89808481,18.1783268 9.77308481,18.1223624 9.6826026,18.0318802 C9.5921204,17.941398 9.53615599,17.816398 9.53615599,17.6783268 L9.53615599,7.32167316 C9.68845229,6.93675008 9.80277674,6.86133831 9.92769077,6.83357963 Z" id="Path-Copy-9" transform="translate(14.5362, 12.5) rotate(-90) translate(-14.5362, -12.5)"></path>
                </g>
            </g>
        </g>
    </g>
</svg>