<?xml version="1.0" encoding="UTF-8"?>
<svg width="27px" height="27px" viewBox="0 0 27 27" version="1.1" xmlns="http://www.w3.org/2000/svg" xmlns:xlink="http://www.w3.org/1999/xlink">
    <title>Group Copy 52</title>
    <g id="Page-1" stroke="none" stroke-width="1" fill="none" fill-rule="evenodd">
        <g id="Group-Copy-52" transform="translate(13.5, 13.5) rotate(90) translate(-13.5, -13.5)" fill="#FFFFFF">
            <path d="M13.5,0 C20.9558441,0 27,6.04415588 27,13.5 C27,20.9558441 20.9558441,27 13.5,27 C6.04415588,27 0,20.9558441 0,13.5 C0,6.04415588 6.04415588,0 13.5,0 Z M13.8535534,8.14644661 C13.6582912,7.95118446 13.3417088,7.95118446 13.1464466,8.14644661 L8.14644661,13.1464466 C7.95118446,13.3417088 7.95118446,13.6582912 8.14644661,13.8535534 L8.2156945,13.9114088 C8.41056264,14.0464049 8.67998704,14.0271197 8.85355339,13.8535534 L13,9.707 L13,19.5 C13,19.7761424 13.2238576,20 13.5,20 C13.7761424,20 14,19.7761424 14,19.5 L14,9.707 L18.1464466,13.8535534 C18.3417088,14.0488155 18.6582912,14.0488155 18.8535534,13.8535534 C19.0488155,13.6582912 19.0488155,13.3417088 18.8535534,13.1464466 Z" id="Combined-Shape"></path>
        </g>
    </g>
</svg>