<?xml version="1.0" encoding="UTF-8"?>
<svg width="68px" height="84px" viewBox="0 0 68 84" version="1.1" xmlns="http://www.w3.org/2000/svg" xmlns:xlink="http://www.w3.org/1999/xlink">
    <title>Group</title>
    <g id="Page-1" stroke="none" stroke-width="1" fill="none" fill-rule="evenodd">
        <g id="Group">
            <path d="M66.5439815,12.0033977 L60.5746972,12.0033977 L60.581761,9.48810751 L60.581761,9.12977219 L60.581761,8.94709708 L60.3980962,8.76442198 C60.2144315,8.40608666 59.6775432,8.04775134 59.1336019,8.04775134 L56.9649259,8.04775134 C51.1793787,8.04775134 40.6890055,7.86507624 33.9996021,14.7014709 C27.3098371,7.86500429 16.8194639,7.86500429 11.0342784,8.04775134 L8.86560238,8.04775134 C8.1450493,8.04775134 7.60110804,8.58876177 7.41744332,9.3054324 L7.41744332,9.48810751 L7.41744332,12.0033977 L1.44815907,12.0033977 C0.543941262,12.0033977 0,12.7200683 0,13.4437538 L0,49.0596438 C0,49.9589896 0.720553083,50.5 1.44815907,50.5 L66.5518409,50.5 C67.4560587,50.5 68,49.7833294 68,49.0596438 L67.9929363,13.4437538 C67.9929363,12.7270832 67.2723832,12.0033977 66.5447772,12.0033977 L66.5439815,12.0033977 Z M2.88885653,47.4430159 L2.88885653,15.0665693 L7.40994554,15.0665693 L7.40994554,43.3042268 L7.40994554,43.4869019 L7.40994554,43.8452372 L7.40994554,44.0279123 C7.40994554,44.2105874 7.59361027,44.3862477 7.59361027,44.3862477 C7.77727499,44.5689228 8.13755153,44.744583 8.68149279,44.744583 L11.2104091,44.744583 C15.9152352,44.5619079 23.325481,44.5619079 28.7507878,47.6253673 L2.88835016,47.6183416 L2.88885653,47.4430159 Z M32.3681654,46.17832 C26.0386407,41.4988442 16.9964627,41.6815913 11.3866954,41.6815913 L10.2988129,41.6815913 L10.2988129,11.1038361 L11.019366,11.1038361 C16.9886503,11.1038361 26.751309,10.921161 32.3607146,17.7575556 L32.3681654,46.17832 Z M35.4410591,17.5827228 C41.050103,10.9290033 50.8127618,10.9290033 56.7824078,10.9290033 L57.5029608,10.9290033 L57.5029608,41.5067584 L56.4150783,41.5067584 C50.8060344,41.3240833 41.7638564,41.3240833 35.4336084,46.0034871 L35.4410591,17.5827228 Z M64.920368,47.4445988 L38.6980517,47.4445988 C44.3070956,44.3882622 51.540838,44.5638145 56.2384303,44.5638145 L58.7673467,44.5638145 C59.1276232,44.5638145 59.4878998,44.3811394 59.8552292,44.2054792 C60.0388939,44.0228041 60.0388939,44.0228041 60.0388939,43.8471438 L60.0388939,43.6644687 L60.0388939,43.3061334 L60.0388939,43.1234583 L60.0388939,15.0674686 L64.920368,15.0674686 L64.920368,47.4445988 Z" id="Shape-Copy" fill="#6D6D6C" fill-rule="nonzero"></path>
        </g>
    </g>
</svg>
