<?xml version="1.0" encoding="UTF-8"?>
<svg width="48px" height="84px" viewBox="0 0 48 84" version="1.1" xmlns="http://www.w3.org/2000/svg" xmlns:xlink="http://www.w3.org/1999/xlink">
    <title>Group</title>
    <g id="Page-1" stroke="none" stroke-width="1" fill="none" fill-rule="evenodd">
        <g id="Group" transform="translate(-1, 0)">
            <path d="M30.0136788,68 C24.7532046,68 19.6908145,65.8022778 16.1071617,61.9672778 C16.0687059,61.9311667 16.0317011,61.8921667 15.9968732,61.8517222 L15.9410033,61.7867222 C15.6892261,61.513 15.4164071,61.1937778 15.1544717,60.8666111 L2.38929617,45.9325 C1.38073629,44.7523889 0.893870329,43.2516111 1.01939613,41.7067778 C1.14492193,40.1619444 1.86615108,38.7586667 3.05175313,37.7547778 C4.23808076,36.7501667 5.74439034,36.2662778 7.29713721,36.3905 C8.72871178,36.5053333 10.0398396,37.1264444 11.026632,38.1491111 L11.026632,8.80088889 C11.026632,5.60216667 13.6409063,3 16.8545119,3 C20.0681174,3 22.6823917,5.60216667 22.6823917,8.80088889 L22.6823917,16.6268889 C23.5429327,16.1278333 24.54206,15.8418333 25.607941,15.8418333 C28.1728756,15.8418333 30.3554282,17.4986111 31.1332528,19.7938333 C32.0576451,19.1785 33.1692378,18.8195556 34.3620956,18.8195556 C36.9654862,18.8195556 39.1763365,20.5276111 39.9215099,22.8777222 C40.853158,22.2652778 41.9712809,21.9077778 43.1721202,21.9077778 C46.3857257,21.9077778 49,24.5106667 49,27.7093889 L49,49.1008889 C49.0007256,59.5218333 40.4831109,68 30.0136788,68 Z M18.1329885,59.8937778 C18.146049,59.9075 18.1591095,59.9205 18.17217,59.9349444 C21.2109101,63.2246667 25.5274013,65.1111111 30.0136788,65.1111111 C38.8832011,65.1111111 46.098395,57.9293333 46.098395,49.1008889 L46.098395,27.7093889 C46.098395,26.1031667 44.785816,24.7966667 43.1728457,24.7966667 C41.555522,24.7966667 40.1907011,26.1356667 40.1907011,27.7202222 L40.1907011,27.9831111 C40.1907011,28.7804444 39.540579,29.4275556 38.7395358,29.4275556 C37.9384925,29.4275556 37.2883705,28.7804444 37.2883705,27.9831111 L37.2883705,24.6204444 C37.2883705,23.0149444 35.9757914,21.7084444 34.3628212,21.7084444 C32.749851,21.7084444 31.437272,23.0149444 31.437272,24.6204444 C31.437272,25.4177778 30.7871499,26.0648889 29.9861067,26.0648889 C29.1850634,26.0648889 28.5349414,25.4177778 28.5349414,24.6204444 L28.5349414,21.642 C28.5349414,20.0365 27.2223624,18.73 25.6086665,18.73 C23.9956963,18.73 22.6831173,20.0365 22.6831173,21.642 C22.6831173,22.4393333 22.0329952,23.0864444 21.231952,23.0864444 C20.4309088,23.0864444 19.7807867,22.4393333 19.7807867,21.642 L19.7807867,8.80088889 C19.7800611,7.19538889 18.4674821,5.88888889 16.8545119,5.88888889 C15.2415416,5.88888889 13.9289626,7.19538889 13.9289626,8.80088889 L13.9289626,42.0599444 C13.9289626,42.6651667 13.5494829,43.2068333 12.9784494,43.4155556 C12.4066902,43.6242778 11.7660008,43.4574444 11.3720094,42.9959444 L9.05667514,40.2868889 C8.55021845,39.6946667 7.84277536,39.3335556 7.0634996,39.2714444 C6.28422383,39.2093333 5.52816671,39.4527222 4.93246336,39.9561111 C4.33748558,40.4595 3.97541984,41.1643889 3.91229415,41.9400556 C3.84989404,42.715 4.09368981,43.4682778 4.6001465,44.0612222 L17.3950709,59.03 C17.6468481,59.3434444 17.878309,59.615 18.1184768,59.8771667 L18.1329885,59.8937778 Z" id="Shape" fill="#6D6D6C" fill-rule="nonzero"></path>
            <path d="M21.2312264,36.1882778 C20.4301832,36.1882778 19.7800611,35.5411667 19.7800611,34.7438333 L19.7800611,21.6427222 C19.7800611,20.8453889 20.4301832,20.1982778 21.2312264,20.1982778 C22.0322697,20.1982778 22.6823917,20.8453889 22.6823917,21.6427222 L22.6823917,34.7438333 C22.6823917,35.5418889 22.0329952,36.1882778 21.2312264,36.1882778 Z" id="Path" fill="#6D6D6C" fill-rule="nonzero"></path>
            <path d="M29.9853811,36.1882778 C29.1843378,36.1882778 28.5342158,35.5411667 28.5342158,34.7438333 L28.5342158,24.6211667 C28.5342158,23.8238333 29.1843378,23.1767222 29.9853811,23.1767222 C30.7864243,23.1767222 31.4365464,23.8238333 31.4365464,24.6211667 L31.4365464,34.7445556 C31.4365464,35.5418889 30.7871499,36.1882778 29.9853811,36.1882778 Z" id="Path" fill="#6D6D6C" fill-rule="nonzero"></path>
            <path d="M38.7395358,36.1882778 C37.9384925,36.1882778 37.2883705,35.5411667 37.2883705,34.7438333 L37.2883705,27.9838333 C37.2883705,27.1865 37.9384925,26.5393889 38.7395358,26.5393889 C39.540579,26.5393889 40.1907011,27.1865 40.1907011,27.9838333 L40.1907011,34.7438333 C40.1907011,35.5418889 39.540579,36.1882778 38.7395358,36.1882778 Z" id="Path" fill="#6D6D6C" fill-rule="nonzero"></path>
        </g>
    </g>
</svg>
