<?xml version="1.0" encoding="UTF-8"?>
<svg width="52px" height="84px" viewBox="0 0 52 84" version="1.1" xmlns="http://www.w3.org/2000/svg" xmlns:xlink="http://www.w3.org/1999/xlink">
    <title>Group</title>
    <g id="Page-1" stroke="none" stroke-width="1" fill="none" fill-rule="evenodd">
        <g id="Group">
            <path d="M12.446579,67 L12.446579,65.26875 L23.9137665,64.0015625 L28.002829,64.0015625 L39.4700165,65.26875 L39.4700165,67 L12.446579,67 Z M21.2168915,67 C21.3502248,64.3447917 21.4530894,61.2393229 21.5254852,57.6835938 C21.5978811,54.1278646 21.6366831,50.4247396 21.6418915,46.5742188 C21.6470998,42.7236979 21.649704,39.0427083 21.649704,35.53125 L21.649704,31.1484375 C21.649704,27.6953125 21.6470998,24.0947917 21.6418915,20.346875 C21.6366831,16.5989583 21.6007456,12.9841146 21.534079,9.50234375 C21.4674123,6.02057292 21.3674123,2.95208333 21.234079,0.296875 L30.7668915,0.296875 C30.6335581,2.95208333 30.5335581,6.02291667 30.4668915,9.509375 C30.4002248,12.9958333 30.3640269,16.6101562 30.3582977,20.3523437 C30.3525686,24.0945312 30.349704,27.6932292 30.349704,31.1484375 L30.349704,35.53125 C30.349704,39.0427083 30.3525686,42.7236979 30.3582977,46.5742188 C30.3640269,50.4247396 30.4002248,54.1278646 30.4668915,57.6835938 C30.5335581,61.2393229 30.6335581,64.3447917 30.7668915,67 L21.2168915,67 Z M0.0278289795,19.2296875 L1.22782898,0.296875 L50.771579,0.296875 L51.971579,19.2296875 L50.240329,19.2296875 L43.7606415,1.496875 L47.527829,2.7625 L4.47314148,2.7625 L8.24032898,1.496875 L1.76064148,19.2296875 L0.0278289795,19.2296875 Z" id="Shape" fill="#FF4D0C" fill-rule="nonzero"></path>
        </g>
    </g>
</svg>
