<?xml version="1.0" encoding="UTF-8"?>
<svg width="58px" height="36px" viewBox="0 0 58 36" version="1.1" xmlns="http://www.w3.org/2000/svg" xmlns:xlink="http://www.w3.org/1999/xlink">
    <g id="Page-1" stroke="none" stroke-width="1" fill="none" fill-rule="evenodd">
        <path d="M34.914,0.03 C39.0699084,0.03 42.4866518,3.19283738 42.8601374,7.23532661 L42.872,7.401 L51.509155,2.46624483 C54.5714064,0.720959796 57.501,2.40587038 57.501,5.92665254 L57.501,30.0840841 C57.501,33.5966138 54.5630561,35.2788482 51.509155,33.5337552 L42.872,28.598 L42.8601374,28.7646734 C42.4941215,32.7263128 39.2053608,35.8431346 35.1624491,35.9662229 L34.914,35.97 L8.481,35.97 C4.07573711,35.97 0.501,32.4162359 0.501,28.0280183 L0.501,7.97198175 C0.501,3.58376408 4.07573711,0.03 8.481,0.03 L34.914,0.03 Z M34.914,3.03 L8.481,3.03 C5.72865253,3.03 3.501,5.24458286 3.501,7.97198175 L3.501,28.0280183 C3.501,30.7554171 5.72865253,32.97 8.481,32.97 L34.914,32.97 C37.6663475,32.97 39.894,30.7554171 39.894,28.0280183 L39.894,23.4407825 L42.138245,24.7232918 L52.9976106,30.9290479 C54.0598487,31.5360434 54.501,31.2834451 54.501,30.0840841 L54.501,5.92665254 C54.501,4.71526761 54.0633423,4.46355554 52.9961405,5.07179107 L42.138245,11.2767082 L39.894,12.5592175 L39.894,7.97198175 C39.894,5.24458286 37.6663475,3.03 34.914,3.03 Z" id="Path-Copy-2" fill="#282316" fill-rule="nonzero"></path>
    </g>
</svg>
